<?xml version="1.0" encoding="UTF-8" standalone="no"?>
<!-- Created with Inkscape (http://www.inkscape.org/) -->

<svg
   width="62.784168mm"
   height="40.195614mm"
   viewBox="0 0 62.784168 40.195614"
   version="1.1"
   id="svg1"
   xml:space="preserve"
   sodipodi:docname="jaxrts_logo_bright.svg"
   inkscape:version="1.4.2 (ebf0e940d0, 2025-05-08)"
   xmlns:inkscape="http://www.inkscape.org/namespaces/inkscape"
   xmlns:sodipodi="http://sodipodi.sourceforge.net/DTD/sodipodi-0.dtd"
   xmlns:xlink="http://www.w3.org/1999/xlink"
   xmlns="http://www.w3.org/2000/svg"
   xmlns:svg="http://www.w3.org/2000/svg"><sodipodi:namedview
     id="namedview1"
     pagecolor="#505050"
     bordercolor="#eeeeee"
     borderopacity="1"
     inkscape:showpageshadow="0"
     inkscape:pageopacity="0"
     inkscape:pagecheckerboard="0"
     inkscape:deskcolor="#d1d1d1"
     inkscape:document-units="mm"
     inkscape:zoom="0.84283456"
     inkscape:cx="122.7999"
     inkscape:cy="35.000938"
     inkscape:window-width="1916"
     inkscape:window-height="1058"
     inkscape:window-x="1920"
     inkscape:window-y="20"
     inkscape:window-maximized="1"
     inkscape:current-layer="layer1" /><defs
     id="defs1"><linearGradient
       id="linearGradient33"><stop
         style="stop-color:#c61010;stop-opacity:1;"
         offset="0"
         id="stop33" /><stop
         style="stop-color:#c61010;stop-opacity:0;"
         offset="1"
         id="stop34" /></linearGradient><clipPath
       clipPathUnits="userSpaceOnUse"
       id="clipPath32"><path
         style="font-variation-settings:normal;opacity:1;vector-effect:none;fill:#475da1;fill-opacity:1;stroke:#e03935;stroke-width:0.0406686;stroke-linecap:round;stroke-linejoin:miter;stroke-miterlimit:4;stroke-dasharray:none;stroke-dashoffset:0;stroke-opacity:1;-inkscape-stroke:none;stop-color:#000000;stop-opacity:1"
         d="m 182.63646,59.043984 c -10.88212,7.57426 -58.44533,16.655768 -58.44533,16.655768 0,0 5.69369,-0.894103 18.3774,-1.272296 19.65477,-0.586037 24.31641,1.639517 24.31641,1.639517 L 185.49132,58.65244 c 0,0 -2.55188,0.101833 -2.85486,0.391544 z"
         id="path32" /></clipPath><linearGradient
       xlink:href="#linearGradient33"
       id="linearGradient34"
       x1="102.2551"
       y1="97.316879"
       x2="106.45416"
       y2="94.279411"
       gradientUnits="userSpaceOnUse"
       gradientTransform="matrix(1.0240075,0.03875935,-0.04187513,1.1063253,1.593966,-14.308103)" /></defs><g
     id="layer1"
     transform="translate(-96.309127,-77.809039)"><path
       style="font-weight:bold;font-size:23.4627px;font-family:'Source Sans Pro';-inkscape-font-specification:'Source Sans Pro Bold';stroke-width:0.166271;stroke-linecap:round;stroke-dasharray:0.498814, 0.498814;fill:#f9f9f9"
       d="m 98.42077,118.00465 c 3.28478,0 4.27021,-2.22895 4.27021,-4.80985 v -11.40287 h -3.636717 v 11.52018 c 0,1.29045 -0.305015,1.83009 -1.22006,1.83009 -0.281553,0 -0.563105,-0.0469 -0.891583,-0.14077 l -0.633493,2.67474 c 0.492717,0.18771 1.102747,0.32848 2.111643,0.32848 z m 2.46358,-17.85511 c 1.1966,0 2.04126,-0.727346 2.04126,-1.877018 0,-1.12621 -0.84466,-1.853554 -2.04126,-1.853554 -1.196594,0 -2.041251,0.727344 -2.041251,1.853554 0,1.149672 0.844657,1.877018 2.041251,1.877018 z m 7.71922,13.5849 c 1.31391,0 2.36974,-0.58657 3.33171,-1.45469 h 0.0938 l 0.25809,1.17314 h 2.9563 v -6.61648 c 0,-3.66018 -1.68932,-5.32604 -4.69254,-5.32604 -1.83009,0 -3.49595,0.58657 -5.02102,1.52508 l 1.26698,2.34627 c 1.17314,-0.65696 2.11165,-0.98543 3.05016,-0.98543 1.19659,0 1.68931,0.5631 1.78316,1.52507 -4.59869,0.46926 -6.49917,1.80663 -6.49917,4.27021 0,1.94741 1.33738,3.54287 3.47248,3.54287 z m 1.24353,-2.81552 c -0.79774,0 -1.24353,-0.32848 -1.24353,-1.0089 0,-0.82119 0.70388,-1.45469 3.02669,-1.7597 v 1.85355 c -0.5631,0.56311 -1.05582,0.91505 -1.78316,0.91505 z m 7.08575,2.53397 h 3.75403 l 0.84466,-1.83009 c 0.28155,-0.68042 0.5631,-1.36084 0.86812,-2.01779 h 0.0939 c 0.35194,0.65695 0.70388,1.36083 1.05582,2.01779 l 1.07928,1.83009 h 3.89481 l -3.54287,-5.65451 3.33171,-6.00645 h -3.75403 l -0.72735,1.80662 c -0.23463,0.6335 -0.51618,1.33738 -0.7508,1.99433 h -0.0939 c -0.32847,-0.65695 -0.65695,-1.36083 -0.98543,-1.99433 l -0.96197,-1.80662 h -3.89481 l 3.35517,5.58412 z m 13.39718,0 h 3.61326 v -6.66341 c 0.61003,-1.54854 1.66585,-2.11164 2.53397,-2.11164 0.51618,0 0.77427,0.0469 1.1966,0.14077 l 0.68042,-3.07361 c -0.32848,-0.16424 -0.72735,-0.23463 -1.40776,-0.23463 -1.17314,0 -2.46359,0.72735 -3.30824,2.29935 h -0.0939 l -0.25808,-2.01779 h -2.95631 z m 14.07764,0.28155 c 1.14967,0 2.04126,-0.23463 2.65129,-0.46925 l -0.56311,-2.53397 c -0.30501,0.11731 -0.70388,0.16423 -1.07928,0.16423 -0.86812,0 -1.47815,-0.49271 -1.47815,-1.80662 v -4.45792 h 2.74513 v -2.83898 h -2.74513 v -3.566334 h -3.00323 l -0.42233,3.566334 -1.78316,0.11731 v 2.72167 h 1.572 v 4.50484 c 0,2.74514 1.1966,4.59869 4.10597,4.59869 z m 7.78962,0 c 3.16747,0 4.85678,-1.66585 4.85678,-3.80096 0,-1.92394 -1.40776,-2.97976 -3.19092,-3.54286 -1.47815,-0.46926 -2.13511,-0.75081 -2.13511,-1.36084 0,-0.51618 0.39887,-0.84466 1.24352,-0.84466 0.79774,0 1.66585,0.23463 2.51051,0.84466 l 1.54854,-2.04126 c -1.0089,-0.84465 -2.46358,-1.47815 -4.17636,-1.47815 -2.72167,0 -4.50484,1.47815 -4.50484,3.68365 0,1.80663 1.40776,2.86245 3.07362,3.47248 1.24352,0.46925 2.22895,0.77427 2.22895,1.47815 0,0.5631 -0.39886,0.91504 -1.3843,0.91504 -0.91504,0 -1.97086,-0.28155 -3.05015,-1.12621 l -1.52507,2.04126 c 1.17313,1.14967 2.9563,1.7597 4.50483,1.7597 z"
       id="text1"
       aria-label="jaxrts" /><path
       id="path1"
       style="fill:#0e334d;stroke-width:0.0712772;stroke-linecap:round;stroke-dasharray:0.213832, 0.213832"
       d="m 152.43724,85.966377 a 8.2132101,8.1573381 0 0 1 -8.21321,8.157338 8.2132101,8.1573381 0 0 1 -8.21321,-8.157338 8.2132101,8.1573381 0 0 1 8.21321,-8.157338 8.2132101,8.1573381 0 0 1 8.21321,8.157338 z" /><path
       id="path33-1"
       style="fill:#1245e7;stroke-width:0.484422;stroke-linecap:round;stroke-linejoin:round"
       d="m 144.09624,90.855942 a 0.3752023,0.3752023 0 0 1 -0.3752,0.375202 0.3752023,0.3752023 0 0 1 -0.3752,-0.375202 0.3752023,0.3752023 0 0 1 0.3752,-0.375203 0.3752023,0.3752023 0 0 1 0.3752,0.375203 z" /><path
       id="path33-1-4"
       style="fill:#1245e7;stroke-width:0.484422;stroke-linecap:round;stroke-linejoin:round"
       d="m 150.14655,87.850136 a 0.3752023,0.3752023 0 0 1 -0.3752,0.375202 0.3752023,0.3752023 0 0 1 -0.37521,-0.375202 0.3752023,0.3752023 0 0 1 0.37521,-0.375202 0.3752023,0.3752023 0 0 1 0.3752,0.375202 z" /><path
       id="path33-1-0"
       style="fill:#1245e7;stroke-width:0.484422;stroke-linecap:round;stroke-linejoin:round"
       d="m 144.78995,81.873322 a 0.3752023,0.3752023 0 0 1 -0.3752,0.375202 0.3752023,0.3752023 0 0 1 -0.3752,-0.375202 0.3752023,0.3752023 0 0 1 0.3752,-0.375203 0.3752023,0.3752023 0 0 1 0.3752,0.375203 z" /><path
       id="path33-1-9"
       style="fill:#1245e7;stroke-width:0.484422;stroke-linecap:round;stroke-linejoin:round"
       d="m 147.93608,85.032188 a 0.3752023,0.3752023 0 0 1 -0.3752,0.375203 0.3752023,0.3752023 0 0 1 -0.3752,-0.375203 0.3752023,0.3752023 0 0 1 0.3752,-0.375202 0.3752023,0.3752023 0 0 1 0.3752,0.375202 z" /><path
       id="path33-1-30"
       style="fill:#1245e7;stroke-width:0.484422;stroke-linecap:round;stroke-linejoin:round"
       d="m 139.90766,84.041496 a 0.3752023,0.3752023 0 0 1 -0.3752,0.375203 0.3752023,0.3752023 0 0 1 -0.37521,-0.375203 0.3752023,0.3752023 0 0 1 0.37521,-0.375202 0.3752023,0.3752023 0 0 1 0.3752,0.375202 z" /><path
       id="path33-1-30-3"
       style="fill:#1245e7;stroke-width:0.484422;stroke-linecap:round;stroke-linejoin:round"
       d="m 145.17989,84.610237 a 0.3752023,0.3752023 0 0 1 -0.3752,0.375202 0.3752023,0.3752023 0 0 1 -0.3752,-0.375202 0.3752023,0.3752023 0 0 1 0.3752,-0.375202 0.3752023,0.3752023 0 0 1 0.3752,0.375202 z" /><path
       id="path33-1-3"
       style="fill:#c61010;stroke-width:1.78069;stroke-linecap:round;stroke-linejoin:round"
       d="m 150.99913,84.248993 a 1.3792137,1.3792137 0 0 1 -1.37921,1.379214 1.3792137,1.3792137 0 0 1 -1.37921,-1.379214 1.3792137,1.3792137 0 0 1 1.37921,-1.379214 1.3792137,1.3792137 0 0 1 1.37921,1.379214 z" /><path
       id="path33-1-3-59"
       style="fill:#c61010;stroke-width:1.69941;stroke-linecap:round;stroke-linejoin:round"
       d="m 143.63508,89.096436 a 1.3162608,1.3162608 0 0 1 -1.31626,1.31626 1.3162608,1.3162608 0 0 1 -1.31626,-1.31626 1.3162608,1.3162608 0 0 1 1.31626,-1.316261 1.3162608,1.3162608 0 0 1 1.31626,1.316261 z" /><path
       id="path33-1-3-5"
       style="fill:#c61010;stroke-width:1.78069;stroke-linecap:round;stroke-linejoin:round"
       d="m 142.68497,82.251282 a 1.3792137,1.3792137 0 0 1 -1.37921,1.379213 1.3792137,1.3792137 0 0 1 -1.37922,-1.379213 1.3792137,1.3792137 0 0 1 1.37922,-1.379214 1.3792137,1.3792137 0 0 1 1.37921,1.379214 z" /><g
       id="g23"
       transform="matrix(-0.24825725,-0.02128645,-0.03706387,0.98890222,192.73037,29.993712)"
       clip-path="url(#clipPath32)"><g
         id="g8"
         transform="translate(97.206244,75.71841)"><g
           id="g22"
           transform="translate(-321.21583,-186.96043)"><path
             id="rect22"
             style="opacity:1;fill:#4a993d;stroke-width:0.0749422;stroke-linecap:round;stroke-dasharray:0.224827, 0.224827"
             d="m 428.36603,167.19463 h 5.28804 v 50.8659 h -5.28804 z" /><path
             id="rect22-9"
             style="fill:#45629d;stroke-width:0.0749422;stroke-linecap:round;stroke-dasharray:0.224827, 0.224827"
             d="m 423.1076,167.19855 h 5.28804 v 50.8659 h -5.28804 z" /><path
             id="rect22-8"
             style="fill:#ea921f;stroke-width:0.0749422;stroke-linecap:round;stroke-dasharray:0.224827, 0.224827"
             d="m 438.89334,167.19763 h 5.28804 v 50.86591 h -5.28804 z" /><path
             id="rect22-8-0"
             style="fill:#e8432b;stroke-width:0.0749422;stroke-linecap:round;stroke-dasharray:0.224827, 0.224827"
             d="m 444.13428,167.19841 h 5.28804 v 50.86591 h -5.28804 z" /><path
             id="rect22-9-4"
             style="fill:#fbc903;stroke-width:0.0749422;stroke-linecap:round;stroke-dasharray:0.224827, 0.224827"
             d="m 433.63492,167.20157 h 5.28804 v 50.8659 h -5.28804 z" /></g></g><path
         style="opacity:1;fill:#475da1;fill-opacity:1;stroke-width:0.138184;stroke-linecap:round;stroke-dasharray:0.414554, 0.414554"
         d="M 179.96547,61.091329 C 157.74499,72.915564 124.46599,81.805317 124.46599,81.805317 L 114.16315,77.189463 Z"
         id="path27" /><path
         style="opacity:1;fill:#4a993d;fill-opacity:1;stroke-width:0.137356;stroke-linecap:round;stroke-dasharray:0.412069, 0.412069"
         d="m 179.35913,61.0672 c -7.8457,7.379024 -44.68039,25.180216 -44.68039,25.180216 l -18.05639,-4.896869 z"
         id="path28" /><path
         style="opacity:1;fill:#fbc903;fill-opacity:1;stroke-width:0.138184;stroke-linecap:round;stroke-dasharray:0.414554, 0.414554"
         d="M 182.12246,60.505472 C 165.99589,72.386303 140.87181,87.034181 140.87181,87.034181 L 122.10488,83.80008 Z"
         id="path29" /><path
         style="opacity:1;fill:#ea921f;fill-opacity:1;stroke-width:0.138184;stroke-linecap:round;stroke-dasharray:0.414554, 0.414554"
         d="m 181.70287,61.083918 c -7.47435,8.692758 -33.84503,27.336424 -33.84503,27.336424 l -17.00653,-2.035554 c 16.90772,-8.451601 32.41628,-16.823563 50.85156,-25.30087 z"
         id="path30" /><path
         style="fill:#e8432b;fill-opacity:1;stroke-width:0.138184;stroke-linecap:round;stroke-dasharray:0.414554, 0.414554"
         d="m 182.4323,60.848014 c -4.41722,8.93524 -23.3682,29.330006 -23.3682,29.330006 l -17.53874,-1.434247 z"
         id="path30-2" /></g><path
       style="opacity:1;fill:none;fill-opacity:1;stroke:#e03935;stroke-width:1.98868;stroke-linecap:butt;stroke-linejoin:bevel;stroke-dasharray:none;stroke-dashoffset:0;stroke-opacity:1"
       d="m 127.23877,15.925058 c 0.19874,-0.0475 0.39795,-0.09309 0.59757,-0.136742 0.92619,-0.202546 1.87234,-0.364218 2.81844,-0.303018 0.94611,0.0612 1.90109,0.362503 2.61073,0.991211 0.42666,0.378004 0.75194,0.862621 0.97969,1.38517 0.22775,0.522549 0.3604,1.082963 0.43407,1.648206 0.14735,1.130487 0.062,2.276856 0.0926,3.416494 0.0306,1.139638 0.19012,2.313231 0.77383,3.292514 0.29185,0.489641 0.68899,0.921812 1.17557,1.21874 0.48658,0.296928 1.06469,0.453613 1.63237,0.401916 0.58066,-0.05288 1.1315,-0.32172 1.56542,-0.711175 0.43392,-0.389456 0.75494,-0.894722 0.97175,-1.435976 0.43361,-1.082507 0.45557,-2.27942 0.46855,-3.445472 0.013,-1.166052 0.0283,-2.361973 0.45041,-3.449025 0.21105,-0.543526 0.52513,-1.052724 0.95279,-1.449044 0.42766,-0.396321 0.97297,-0.675158 1.55237,-0.740362 0.65405,-0.0736 1.32437,0.129566 1.86523,0.504626 0.54085,0.37506 0.95692,0.9133 1.24285,1.506122 0.57186,1.185645 0.62959,2.545113 0.66802,3.860901 0.0384,1.315788 0.0768,2.672436 0.61622,3.873169 0.26973,0.600366 0.66659,1.151546 1.19173,1.548316 0.52513,0.396769 1.18357,0.631115 1.84065,0.593117 0.56804,-0.03285 1.1155,-0.266916 1.56257,-0.618891 0.44706,-0.351975 0.79706,-0.8177 1.05508,-1.324824 0.51605,-1.014248 0.66616,-2.168939 0.81629,-3.296975 0.15014,-1.128036 0.31695,-2.283123 0.86053,-3.282887 0.27179,-0.499882 0.63806,-0.954006 1.09918,-1.287358 0.46112,-0.333352 1.02026,-0.541322 1.58925,-0.543079 0.59817,-0.0018 1.18648,0.224878 1.66079,0.589355 0.4743,0.364478 0.83823,0.861031 1.09051,1.403403 0.50455,1.084744 0.56588,2.317359 0.57678,3.513657 0.0109,1.196298 -0.0171,2.415592 0.33086,3.560227 0.17397,0.572317 0.44345,1.120711 0.83117,1.576216 0.38772,0.455504 0.89788,0.814996 1.47318,0.978845 0.5582,0.158981 1.16332,0.12902 1.71497,-0.05141 0.55164,-0.18043 1.05035,-0.507267 1.46186,-0.916565 0.82303,-0.818595 1.28391,-1.937176 1.55516,-3.065842 0.27126,-1.128666 0.37275,-2.29093 0.59375,-3.430503 0.221,-1.139573 0.57549,-2.282954 1.28277,-3.203403 0.61385,-0.798868 1.4827,-1.398674 2.44729,-1.689486 0.96459,-0.290811 2.02018,-0.271196 2.9733,0.05525 0.95312,0.326446 1.79909,0.958116 2.38284,1.779239 0.58375,0.821122 0.90242,1.827653 0.8976,2.835118"
       id="path2"
       transform="matrix(0.74140324,-0.19518932,0.13510808,0.48629322,9.3908862,111.74273)" /><path
       style="opacity:1;fill:url(#linearGradient34);stroke:none;stroke-width:1.55829;stroke-linecap:round;stroke-linejoin:round;stroke-dasharray:none;stroke-opacity:1"
       d="m 102.47828,95.844677 0.62512,0.503372 c 0,0 0.22444,0.271491 0.32539,0.421988 0.12413,0.185066 0.27734,0.720789 0.27734,0.720789 l 3.33672,-0.375581 -3.08887,-4.449337 z"
       id="path33" /><path
       id="path33-1-3-5-1"
       style="fill:#e03935;stroke-width:0.984606;stroke-linecap:round;stroke-linejoin:round"
       d="m 146.58084,87.320198 a 0.76507682,0.7601586 0 0 1 -0.76507,0.760159 0.76507682,0.7601586 0 0 1 -0.76508,-0.760159 0.76507682,0.7601586 0 0 1 0.76508,-0.760159 0.76507682,0.7601586 0 0 1 0.76507,0.760159 z" /></g></svg>
