<?xml version="1.0" encoding="UTF-8" standalone="no"?>
<!-- Created with Inkscape (http://www.inkscape.org/) -->

<svg
   width="62.784157mm"
   height="40.195621mm"
   viewBox="0 0 62.784157 40.195622"
   version="1.1"
   id="svg1"
   xml:space="preserve"
   xmlns:xlink="http://www.w3.org/1999/xlink"
   xmlns="http://www.w3.org/2000/svg"
   xmlns:svg="http://www.w3.org/2000/svg"><defs
     id="defs1"><linearGradient
       id="linearGradient33"><stop
         style="stop-color:#c61010;stop-opacity:1;"
         offset="0"
         id="stop33" /><stop
         style="stop-color:#c61010;stop-opacity:0;"
         offset="1"
         id="stop34" /></linearGradient><clipPath
       clipPathUnits="userSpaceOnUse"
       id="clipPath32"><path
         style="font-variation-settings:normal;opacity:1;vector-effect:none;fill:#475da1;fill-opacity:1;stroke:#e03935;stroke-width:0.0406686;stroke-linecap:round;stroke-linejoin:miter;stroke-miterlimit:4;stroke-dasharray:none;stroke-dashoffset:0;stroke-opacity:1;-inkscape-stroke:none;stop-color:#000000;stop-opacity:1"
         d="m 182.63646,59.043984 c -10.88212,7.57426 -58.44533,16.655768 -58.44533,16.655768 0,0 5.69369,-0.894103 18.3774,-1.272296 19.65477,-0.586037 24.31641,1.639517 24.31641,1.639517 L 185.49132,58.65244 c 0,0 -2.55188,0.101833 -2.85486,0.391544 z"
         id="path32" /></clipPath><linearGradient
       xlink:href="#linearGradient33"
       id="linearGradient34"
       x1="102.2551"
       y1="97.316879"
       x2="106.45416"
       y2="94.279411"
       gradientUnits="userSpaceOnUse"
       gradientTransform="matrix(1.0240075,0.03875935,-0.04187513,1.1063253,1.593966,-14.308103)" /></defs><g
     id="layer1"
     transform="translate(-96.309139,-77.809039)"><text
       xml:space="preserve"
       style="font-weight:bold;font-size:23.4627px;font-family:Sans;-inkscape-font-specification:'Sans, Bold';text-align:start;writing-mode:lr-tb;direction:ltr;text-anchor:start;opacity:1;fill:#000000;fill-opacity:1;stroke-width:0.166271;stroke-linecap:round;stroke-dasharray:0.498814, 0.498814"
       x="97.55265"
       y="113.45289"
       id="text1"><tspan
         id="tspan1"
         style="font-style:normal;font-variant:normal;font-weight:bold;font-stretch:normal;font-size:23.4627px;font-family:'Source Sans Pro';-inkscape-font-specification:'Source Sans Pro Bold';fill:#000000;fill-opacity:1;stroke-width:0.166271"
         x="97.55265"
         y="113.45289">jaxrts</tspan></text><ellipse
       style="fill:#0e334d;fill-opacity:1;stroke-width:0.0712772;stroke-linecap:round;stroke-dasharray:0.213832, 0.213832"
       id="path1"
       cx="144.22403"
       cy="85.966377"
       rx="8.2132101"
       ry="8.1573381" /><circle
       style="fill:#1245e7;fill-opacity:1;stroke:none;stroke-width:0.484422;stroke-linecap:round;stroke-linejoin:round;stroke-dasharray:none;stroke-opacity:1"
       id="path33-1"
       cx="143.72104"
       cy="90.855942"
       r="0.3752023" /><circle
       style="fill:#1245e7;fill-opacity:1;stroke:none;stroke-width:0.484422;stroke-linecap:round;stroke-linejoin:round;stroke-dasharray:none;stroke-opacity:1"
       id="path33-1-4"
       cx="149.77135"
       cy="87.850136"
       r="0.3752023" /><circle
       style="fill:#1245e7;fill-opacity:1;stroke:none;stroke-width:0.484422;stroke-linecap:round;stroke-linejoin:round;stroke-dasharray:none;stroke-opacity:1"
       id="path33-1-0"
       cx="144.41475"
       cy="81.873322"
       r="0.3752023" /><circle
       style="fill:#1245e7;fill-opacity:1;stroke:none;stroke-width:0.484422;stroke-linecap:round;stroke-linejoin:round;stroke-dasharray:none;stroke-opacity:1"
       id="path33-1-9"
       cx="147.56088"
       cy="85.032188"
       r="0.3752023" /><circle
       style="fill:#1245e7;fill-opacity:1;stroke:none;stroke-width:0.484422;stroke-linecap:round;stroke-linejoin:round;stroke-dasharray:none;stroke-opacity:1"
       id="path33-1-30"
       cx="139.53246"
       cy="84.041496"
       r="0.3752023" /><circle
       style="fill:#1245e7;fill-opacity:1;stroke:none;stroke-width:0.484422;stroke-linecap:round;stroke-linejoin:round;stroke-dasharray:none;stroke-opacity:1"
       id="path33-1-30-3"
       cx="144.80469"
       cy="84.610237"
       r="0.3752023" /><circle
       style="fill:#c61010;fill-opacity:1;stroke:none;stroke-width:1.78069;stroke-linecap:round;stroke-linejoin:round;stroke-dasharray:none;stroke-opacity:1"
       id="path33-1-3"
       cx="149.61992"
       cy="84.248993"
       r="1.3792137" /><circle
       style="fill:#c61010;fill-opacity:1;stroke:none;stroke-width:1.69941;stroke-linecap:round;stroke-linejoin:round;stroke-dasharray:none;stroke-opacity:1"
       id="path33-1-3-59"
       cx="142.31882"
       cy="89.096436"
       r="1.3162608" /><circle
       style="fill:#c61010;fill-opacity:1;stroke:none;stroke-width:1.78069;stroke-linecap:round;stroke-linejoin:round;stroke-dasharray:none;stroke-opacity:1"
       id="path33-1-3-5"
       cx="141.30576"
       cy="82.251282"
       r="1.3792137" /><g
       id="g23"
       transform="matrix(-0.24825725,-0.02128645,-0.03706387,0.98890222,192.73037,29.993712)"
       clip-path="url(#clipPath32)"><g
         id="g8"
         transform="translate(97.206244,75.71841)"><g
           id="g22"
           transform="translate(-321.21583,-186.96043)"><rect
             style="opacity:1;fill:#4a993d;fill-opacity:1;stroke-width:0.0749422;stroke-linecap:round;stroke-dasharray:0.224827, 0.224827"
             id="rect22"
             width="5.2880387"
             height="50.865906"
             x="428.36603"
             y="167.19463" /><rect
             style="fill:#45629d;fill-opacity:1;stroke-width:0.0749422;stroke-linecap:round;stroke-dasharray:0.224827, 0.224827"
             id="rect22-9"
             width="5.2880387"
             height="50.865906"
             x="423.1076"
             y="167.19855" /><rect
             style="fill:#ea921f;fill-opacity:1;stroke-width:0.0749422;stroke-linecap:round;stroke-dasharray:0.224827, 0.224827"
             id="rect22-8"
             width="5.2880387"
             height="50.865906"
             x="438.89334"
             y="167.19763" /><rect
             style="fill:#e8432b;fill-opacity:1;stroke-width:0.0749422;stroke-linecap:round;stroke-dasharray:0.224827, 0.224827"
             id="rect22-8-0"
             width="5.2880387"
             height="50.865906"
             x="444.13428"
             y="167.19841" /><rect
             style="fill:#fbc903;fill-opacity:1;stroke-width:0.0749422;stroke-linecap:round;stroke-dasharray:0.224827, 0.224827"
             id="rect22-9-4"
             width="5.2880387"
             height="50.865906"
             x="433.63492"
             y="167.20157" /></g></g><path
         style="opacity:1;fill:#475da1;fill-opacity:1;stroke-width:0.138184;stroke-linecap:round;stroke-dasharray:0.414554, 0.414554"
         d="M 179.96547,61.091329 C 157.74499,72.915564 124.46599,81.805317 124.46599,81.805317 L 114.16315,77.189463 Z"
         id="path27" /><path
         style="opacity:1;fill:#4a993d;fill-opacity:1;stroke-width:0.137356;stroke-linecap:round;stroke-dasharray:0.412069, 0.412069"
         d="m 179.35913,61.0672 c -7.8457,7.379024 -44.68039,25.180216 -44.68039,25.180216 l -18.05639,-4.896869 z"
         id="path28" /><path
         style="opacity:1;fill:#fbc903;fill-opacity:1;stroke-width:0.138184;stroke-linecap:round;stroke-dasharray:0.414554, 0.414554"
         d="M 182.12246,60.505472 C 165.99589,72.386303 140.87181,87.034181 140.87181,87.034181 L 122.10488,83.80008 Z"
         id="path29" /><path
         style="opacity:1;fill:#ea921f;fill-opacity:1;stroke-width:0.138184;stroke-linecap:round;stroke-dasharray:0.414554, 0.414554"
         d="m 181.70287,61.083918 c -7.47435,8.692758 -33.84503,27.336424 -33.84503,27.336424 l -17.00653,-2.035554 c 16.90772,-8.451601 32.41628,-16.823563 50.85156,-25.30087 z"
         id="path30" /><path
         style="fill:#e8432b;fill-opacity:1;stroke-width:0.138184;stroke-linecap:round;stroke-dasharray:0.414554, 0.414554"
         d="m 182.4323,60.848014 c -4.41722,8.93524 -23.3682,29.330006 -23.3682,29.330006 l -17.53874,-1.434247 z"
         id="path30-2" /></g><path
       style="opacity:1;fill:none;fill-opacity:1;stroke:#e03935;stroke-width:1.98868;stroke-linecap:butt;stroke-linejoin:bevel;stroke-dasharray:none;stroke-dashoffset:0;stroke-opacity:1"
       d="m 127.23877,15.925058 c 0.19874,-0.0475 0.39795,-0.09309 0.59757,-0.136742 0.92619,-0.202546 1.87234,-0.364218 2.81844,-0.303018 0.94611,0.0612 1.90109,0.362503 2.61073,0.991211 0.42666,0.378004 0.75194,0.862621 0.97969,1.38517 0.22775,0.522549 0.3604,1.082963 0.43407,1.648206 0.14735,1.130487 0.062,2.276856 0.0926,3.416494 0.0306,1.139638 0.19012,2.313231 0.77383,3.292514 0.29185,0.489641 0.68899,0.921812 1.17557,1.21874 0.48658,0.296928 1.06469,0.453613 1.63237,0.401916 0.58066,-0.05288 1.1315,-0.32172 1.56542,-0.711175 0.43392,-0.389456 0.75494,-0.894722 0.97175,-1.435976 0.43361,-1.082507 0.45557,-2.27942 0.46855,-3.445472 0.013,-1.166052 0.0283,-2.361973 0.45041,-3.449025 0.21105,-0.543526 0.52513,-1.052724 0.95279,-1.449044 0.42766,-0.396321 0.97297,-0.675158 1.55237,-0.740362 0.65405,-0.0736 1.32437,0.129566 1.86523,0.504626 0.54085,0.37506 0.95692,0.9133 1.24285,1.506122 0.57186,1.185645 0.62959,2.545113 0.66802,3.860901 0.0384,1.315788 0.0768,2.672436 0.61622,3.873169 0.26973,0.600366 0.66659,1.151546 1.19173,1.548316 0.52513,0.396769 1.18357,0.631115 1.84065,0.593117 0.56804,-0.03285 1.1155,-0.266916 1.56257,-0.618891 0.44706,-0.351975 0.79706,-0.8177 1.05508,-1.324824 0.51605,-1.014248 0.66616,-2.168939 0.81629,-3.296975 0.15014,-1.128036 0.31695,-2.283123 0.86053,-3.282887 0.27179,-0.499882 0.63806,-0.954006 1.09918,-1.287358 0.46112,-0.333352 1.02026,-0.541322 1.58925,-0.543079 0.59817,-0.0018 1.18648,0.224878 1.66079,0.589355 0.4743,0.364478 0.83823,0.861031 1.09051,1.403403 0.50455,1.084744 0.56588,2.317359 0.57678,3.513657 0.0109,1.196298 -0.0171,2.415592 0.33086,3.560227 0.17397,0.572317 0.44345,1.120711 0.83117,1.576216 0.38772,0.455504 0.89788,0.814996 1.47318,0.978845 0.5582,0.158981 1.16332,0.12902 1.71497,-0.05141 0.55164,-0.18043 1.05035,-0.507267 1.46186,-0.916565 0.82303,-0.818595 1.28391,-1.937176 1.55516,-3.065842 0.27126,-1.128666 0.37275,-2.29093 0.59375,-3.430503 0.221,-1.139573 0.57549,-2.282954 1.28277,-3.203403 0.61385,-0.798868 1.4827,-1.398674 2.44729,-1.689486 0.96459,-0.290811 2.02018,-0.271196 2.9733,0.05525 0.95312,0.326446 1.79909,0.958116 2.38284,1.779239 0.58375,0.821122 0.90242,1.827653 0.8976,2.835118"
       id="path2"
       transform="matrix(0.74140324,-0.19518932,0.13510808,0.48629322,9.3908862,111.74273)" /><path
       style="opacity:1;fill:url(#linearGradient34);stroke:none;stroke-width:1.55829;stroke-linecap:round;stroke-linejoin:round;stroke-dasharray:none;stroke-opacity:1"
       d="m 102.47828,95.844677 0.62512,0.503372 c 0,0 0.22444,0.271491 0.32539,0.421988 0.12413,0.185066 0.27734,0.720789 0.27734,0.720789 l 3.33672,-0.375581 -3.08887,-4.449337 z"
       id="path33" /><ellipse
       style="fill:#e03935;fill-opacity:1;stroke:none;stroke-width:0.984606;stroke-linecap:round;stroke-linejoin:round;stroke-dasharray:none;stroke-opacity:1"
       id="path33-1-3-5-1"
       cx="145.81577"
       cy="87.320198"
       rx="0.76507682"
       ry="0.7601586" /></g></svg>
