<?xml version="1.0" encoding="utf-8" standalone="no"?>
<!DOCTYPE svg PUBLIC "-//W3C//DTD SVG 1.1//EN"
  "http://www.w3.org/Graphics/SVG/1.1/DTD/svg11.dtd">
<svg xmlns:xlink="http://www.w3.org/1999/xlink" width="232.621051pt" height="174.6pt" viewBox="0 0 232.621051 174.6" xmlns="http://www.w3.org/2000/svg" version="1.1">
 <metadata>
  <rdf:RDF xmlns:dc="http://purl.org/dc/elements/1.1/" xmlns:cc="http://creativecommons.org/ns#" xmlns:rdf="http://www.w3.org/1999/02/22-rdf-syntax-ns#">
   <cc:Work>
    <dc:type rdf:resource="http://purl.org/dc/dcmitype/StillImage"/>
    <dc:date>2026-04-11T13:56:54.433260</dc:date>
    <dc:format>image/svg+xml</dc:format>
    <dc:creator>
     <cc:Agent>
      <dc:title>Matplotlib v3.10.8, https://matplotlib.org/</dc:title>
     </cc:Agent>
    </dc:creator>
   </cc:Work>
  </rdf:RDF>
 </metadata>
 <defs>
  <style type="text/css">*{stroke-linejoin: round; stroke-linecap: butt}</style>
 </defs>
 <g id="figure_1">
  <g id="patch_1">
   <path d="M 0 174.6 
L 232.621051 174.6 
L 232.621051 0 
L 0 0 
z
" style="fill: #ffffff"/>
  </g>
  <g id="axes_1">
   <g id="patch_2">
    <path d="M 32.685756 144.681683 
L 227.933267 144.681683 
L 227.933267 13.602655 
L 32.685756 13.602655 
z
" style="fill: #ffffff"/>
   </g>
   <g id="matplotlib.axis_1">
    <g id="xtick_1">
     <g id="line2d_1">
      <defs>
       <path id="m16978634ae" d="M 0 0 
L 0 -3 
" style="stroke: #000000; stroke-width: 0.5"/>
      </defs>
      <g>
       <use xlink:href="#m16978634ae" x="41.560643" y="144.681683" style="stroke: #000000; stroke-width: 0.5"/>
      </g>
     </g>
     <g id="line2d_2">
      <defs>
       <path id="mbfa90a7be4" d="M 0 0 
L 0 3 
" style="stroke: #000000; stroke-width: 0.5"/>
      </defs>
      <g>
       <use xlink:href="#mbfa90a7be4" x="41.560643" y="13.602655" style="stroke: #000000; stroke-width: 0.5"/>
      </g>
     </g>
     <g id="text_1">
      <!-- $\mathdefault{8000}$ -->
      <g transform="translate(31.597972 155.100182) scale(0.1 -0.1)">
       <defs>
        <path id="CMR17-38" d="M 1741 2264 
C 2144 2467 2554 2773 2554 3263 
C 2554 3841 1990 4179 1472 4179 
C 890 4179 378 3759 378 3180 
C 378 3021 416 2747 666 2505 
C 730 2442 998 2251 1171 2130 
C 883 1983 211 1634 211 934 
C 211 279 838 -128 1459 -128 
C 2144 -128 2720 362 2720 1010 
C 2720 1590 2330 1857 2074 2029 
L 1741 2264 
z
M 902 2822 
C 851 2854 595 3051 595 3351 
C 595 3739 998 4032 1459 4032 
C 1965 4032 2336 3676 2336 3262 
C 2336 2669 1670 2331 1638 2331 
C 1632 2331 1626 2331 1574 2370 
L 902 2822 
z
M 2080 1519 
C 2176 1449 2483 1240 2483 851 
C 2483 381 2010 25 1472 25 
C 890 25 448 438 448 940 
C 448 1443 838 1862 1280 2060 
L 2080 1519 
z
" transform="scale(0.015625)"/>
        <path id="CMR17-30" d="M 2688 2025 
C 2688 2416 2682 3080 2413 3591 
C 2176 4039 1798 4198 1466 4198 
C 1158 4198 768 4058 525 3597 
C 269 3118 243 2524 243 2025 
C 243 1661 250 1106 448 619 
C 723 -39 1216 -128 1466 -128 
C 1760 -128 2208 -7 2470 600 
C 2662 1042 2688 1559 2688 2025 
z
M 1466 -26 
C 1056 -26 813 325 723 812 
C 653 1188 653 1738 653 2096 
C 653 2588 653 2997 736 3387 
C 858 3929 1216 4096 1466 4096 
C 1728 4096 2067 3923 2189 3400 
C 2272 3036 2278 2607 2278 2096 
C 2278 1680 2278 1169 2202 792 
C 2067 95 1690 -26 1466 -26 
z
" transform="scale(0.015625)"/>
       </defs>
       <use xlink:href="#CMR17-38" transform="scale(0.996264)"/>
       <use xlink:href="#CMR17-30" transform="translate(45.690477 0) scale(0.996264)"/>
       <use xlink:href="#CMR17-30" transform="translate(91.380954 0) scale(0.996264)"/>
       <use xlink:href="#CMR17-30" transform="translate(137.071431 0) scale(0.996264)"/>
      </g>
     </g>
    </g>
    <g id="xtick_2">
     <g id="line2d_3">
      <g>
       <use xlink:href="#m16978634ae" x="100.726555" y="144.681683" style="stroke: #000000; stroke-width: 0.5"/>
      </g>
     </g>
     <g id="line2d_4">
      <g>
       <use xlink:href="#mbfa90a7be4" x="100.726555" y="13.602655" style="stroke: #000000; stroke-width: 0.5"/>
      </g>
     </g>
     <g id="text_2">
      <!-- $\mathdefault{8500}$ -->
      <g transform="translate(90.763885 155.100182) scale(0.1 -0.1)">
       <defs>
        <path id="CMR17-35" d="M 730 3692 
C 794 3666 1056 3584 1325 3584 
C 1920 3584 2246 3911 2432 4100 
C 2432 4157 2432 4192 2394 4192 
C 2387 4192 2374 4192 2323 4163 
C 2099 4058 1837 3973 1517 3973 
C 1325 3973 1037 3999 723 4139 
C 653 4171 640 4171 634 4171 
C 602 4171 595 4164 595 4037 
L 595 2203 
C 595 2089 595 2057 659 2057 
C 691 2057 704 2070 736 2114 
C 941 2401 1222 2522 1542 2522 
C 1766 2522 2246 2382 2246 1289 
C 2246 1085 2246 715 2054 421 
C 1894 159 1645 25 1370 25 
C 947 25 518 320 403 814 
C 429 807 480 795 506 795 
C 589 795 749 840 749 1038 
C 749 1210 627 1280 506 1280 
C 358 1280 262 1190 262 1011 
C 262 454 704 -128 1382 -128 
C 2042 -128 2669 440 2669 1264 
C 2669 2030 2170 2624 1549 2624 
C 1222 2624 947 2503 730 2274 
L 730 3692 
z
" transform="scale(0.015625)"/>
       </defs>
       <use xlink:href="#CMR17-38" transform="scale(0.996264)"/>
       <use xlink:href="#CMR17-35" transform="translate(45.690477 0) scale(0.996264)"/>
       <use xlink:href="#CMR17-30" transform="translate(91.380954 0) scale(0.996264)"/>
       <use xlink:href="#CMR17-30" transform="translate(137.071431 0) scale(0.996264)"/>
      </g>
     </g>
    </g>
    <g id="xtick_3">
     <g id="line2d_5">
      <g>
       <use xlink:href="#m16978634ae" x="159.892468" y="144.681683" style="stroke: #000000; stroke-width: 0.5"/>
      </g>
     </g>
     <g id="line2d_6">
      <g>
       <use xlink:href="#mbfa90a7be4" x="159.892468" y="13.602655" style="stroke: #000000; stroke-width: 0.5"/>
      </g>
     </g>
     <g id="text_3">
      <!-- $\mathdefault{9000}$ -->
      <g transform="translate(149.929797 155.100182) scale(0.1 -0.1)">
       <defs>
        <path id="CMR17-39" d="M 2253 1864 
C 2253 464 1670 31 1190 31 
C 1043 31 685 31 538 294 
C 704 268 826 357 826 518 
C 826 692 685 749 595 749 
C 538 749 365 723 365 506 
C 365 71 742 -128 1203 -128 
C 1939 -128 2688 674 2688 2073 
C 2688 3817 1971 4179 1485 4179 
C 851 4179 243 3628 243 2778 
C 243 1991 762 1408 1414 1408 
C 1952 1408 2189 1903 2253 2112 
L 2253 1864 
z
M 1427 1510 
C 1254 1510 1011 1542 813 1922 
C 678 2169 678 2461 678 2771 
C 678 3146 678 3405 858 3684 
C 947 3817 1114 4032 1485 4032 
C 2240 4032 2240 2885 2240 2632 
C 2240 2182 2035 1510 1427 1510 
z
" transform="scale(0.015625)"/>
       </defs>
       <use xlink:href="#CMR17-39" transform="scale(0.996264)"/>
       <use xlink:href="#CMR17-30" transform="translate(45.690477 0) scale(0.996264)"/>
       <use xlink:href="#CMR17-30" transform="translate(91.380954 0) scale(0.996264)"/>
       <use xlink:href="#CMR17-30" transform="translate(137.071431 0) scale(0.996264)"/>
      </g>
     </g>
    </g>
    <g id="xtick_4">
     <g id="line2d_7">
      <g>
       <use xlink:href="#m16978634ae" x="219.05838" y="144.681683" style="stroke: #000000; stroke-width: 0.5"/>
      </g>
     </g>
     <g id="line2d_8">
      <g>
       <use xlink:href="#mbfa90a7be4" x="219.05838" y="13.602655" style="stroke: #000000; stroke-width: 0.5"/>
      </g>
     </g>
     <g id="text_4">
      <!-- $\mathdefault{9500}$ -->
      <g transform="translate(209.09571 155.100182) scale(0.1 -0.1)">
       <use xlink:href="#CMR17-39" transform="scale(0.996264)"/>
       <use xlink:href="#CMR17-35" transform="translate(45.690477 0) scale(0.996264)"/>
       <use xlink:href="#CMR17-30" transform="translate(91.380954 0) scale(0.996264)"/>
       <use xlink:href="#CMR17-30" transform="translate(137.071431 0) scale(0.996264)"/>
      </g>
     </g>
    </g>
    <g id="xtick_5">
     <g id="line2d_9">
      <defs>
       <path id="m34027c725b" d="M 0 0 
L 0 -1.5 
" style="stroke: #000000; stroke-width: 0.5"/>
      </defs>
      <g>
       <use xlink:href="#m34027c725b" x="53.393825" y="144.681683" style="stroke: #000000; stroke-width: 0.5"/>
      </g>
     </g>
     <g id="line2d_10">
      <defs>
       <path id="m07722c4a83" d="M 0 0 
L 0 1.5 
" style="stroke: #000000; stroke-width: 0.5"/>
      </defs>
      <g>
       <use xlink:href="#m07722c4a83" x="53.393825" y="13.602655" style="stroke: #000000; stroke-width: 0.5"/>
      </g>
     </g>
    </g>
    <g id="xtick_6">
     <g id="line2d_11">
      <g>
       <use xlink:href="#m34027c725b" x="65.227008" y="144.681683" style="stroke: #000000; stroke-width: 0.5"/>
      </g>
     </g>
     <g id="line2d_12">
      <g>
       <use xlink:href="#m07722c4a83" x="65.227008" y="13.602655" style="stroke: #000000; stroke-width: 0.5"/>
      </g>
     </g>
    </g>
    <g id="xtick_7">
     <g id="line2d_13">
      <g>
       <use xlink:href="#m34027c725b" x="77.06019" y="144.681683" style="stroke: #000000; stroke-width: 0.5"/>
      </g>
     </g>
     <g id="line2d_14">
      <g>
       <use xlink:href="#m07722c4a83" x="77.06019" y="13.602655" style="stroke: #000000; stroke-width: 0.5"/>
      </g>
     </g>
    </g>
    <g id="xtick_8">
     <g id="line2d_15">
      <g>
       <use xlink:href="#m34027c725b" x="88.893373" y="144.681683" style="stroke: #000000; stroke-width: 0.5"/>
      </g>
     </g>
     <g id="line2d_16">
      <g>
       <use xlink:href="#m07722c4a83" x="88.893373" y="13.602655" style="stroke: #000000; stroke-width: 0.5"/>
      </g>
     </g>
    </g>
    <g id="xtick_9">
     <g id="line2d_17">
      <g>
       <use xlink:href="#m34027c725b" x="112.559738" y="144.681683" style="stroke: #000000; stroke-width: 0.5"/>
      </g>
     </g>
     <g id="line2d_18">
      <g>
       <use xlink:href="#m07722c4a83" x="112.559738" y="13.602655" style="stroke: #000000; stroke-width: 0.5"/>
      </g>
     </g>
    </g>
    <g id="xtick_10">
     <g id="line2d_19">
      <g>
       <use xlink:href="#m34027c725b" x="124.39292" y="144.681683" style="stroke: #000000; stroke-width: 0.5"/>
      </g>
     </g>
     <g id="line2d_20">
      <g>
       <use xlink:href="#m07722c4a83" x="124.39292" y="13.602655" style="stroke: #000000; stroke-width: 0.5"/>
      </g>
     </g>
    </g>
    <g id="xtick_11">
     <g id="line2d_21">
      <g>
       <use xlink:href="#m34027c725b" x="136.226103" y="144.681683" style="stroke: #000000; stroke-width: 0.5"/>
      </g>
     </g>
     <g id="line2d_22">
      <g>
       <use xlink:href="#m07722c4a83" x="136.226103" y="13.602655" style="stroke: #000000; stroke-width: 0.5"/>
      </g>
     </g>
    </g>
    <g id="xtick_12">
     <g id="line2d_23">
      <g>
       <use xlink:href="#m34027c725b" x="148.059285" y="144.681683" style="stroke: #000000; stroke-width: 0.5"/>
      </g>
     </g>
     <g id="line2d_24">
      <g>
       <use xlink:href="#m07722c4a83" x="148.059285" y="13.602655" style="stroke: #000000; stroke-width: 0.5"/>
      </g>
     </g>
    </g>
    <g id="xtick_13">
     <g id="line2d_25">
      <g>
       <use xlink:href="#m34027c725b" x="171.72565" y="144.681683" style="stroke: #000000; stroke-width: 0.5"/>
      </g>
     </g>
     <g id="line2d_26">
      <g>
       <use xlink:href="#m07722c4a83" x="171.72565" y="13.602655" style="stroke: #000000; stroke-width: 0.5"/>
      </g>
     </g>
    </g>
    <g id="xtick_14">
     <g id="line2d_27">
      <g>
       <use xlink:href="#m34027c725b" x="183.558833" y="144.681683" style="stroke: #000000; stroke-width: 0.5"/>
      </g>
     </g>
     <g id="line2d_28">
      <g>
       <use xlink:href="#m07722c4a83" x="183.558833" y="13.602655" style="stroke: #000000; stroke-width: 0.5"/>
      </g>
     </g>
    </g>
    <g id="xtick_15">
     <g id="line2d_29">
      <g>
       <use xlink:href="#m34027c725b" x="195.392015" y="144.681683" style="stroke: #000000; stroke-width: 0.5"/>
      </g>
     </g>
     <g id="line2d_30">
      <g>
       <use xlink:href="#m07722c4a83" x="195.392015" y="13.602655" style="stroke: #000000; stroke-width: 0.5"/>
      </g>
     </g>
    </g>
    <g id="xtick_16">
     <g id="line2d_31">
      <g>
       <use xlink:href="#m34027c725b" x="207.225198" y="144.681683" style="stroke: #000000; stroke-width: 0.5"/>
      </g>
     </g>
     <g id="line2d_32">
      <g>
       <use xlink:href="#m07722c4a83" x="207.225198" y="13.602655" style="stroke: #000000; stroke-width: 0.5"/>
      </g>
     </g>
    </g>
    <g id="text_5">
     <!-- Energy [eV] -->
     <g transform="translate(104.489618 168.50934) scale(0.1 -0.1)">
      <defs>
       <path id="CMR17-45" d="M 3885 1615 
L 3770 1615 
C 3629 676 3546 166 2419 166 
L 1530 166 
C 1274 166 1261 197 1261 414 
L 1261 2176 
L 1862 2176 
C 2464 2176 2522 1960 2522 1430 
L 2637 1430 
L 2637 3081 
L 2522 3081 
C 2522 2557 2464 2342 1862 2342 
L 1261 2342 
L 1261 3913 
C 1261 4128 1274 4160 1530 4160 
L 2406 4160 
C 3398 4160 3514 3769 3603 2929 
L 3718 2929 
L 3565 4325 
L 326 4325 
L 326 4160 
C 768 4160 838 4160 838 3874 
L 838 451 
C 838 166 768 166 326 166 
L 326 0 
L 3654 0 
L 3885 1615 
z
" transform="scale(0.015625)"/>
       <path id="CMR17-6e" d="M 2656 1933 
C 2656 2259 2592 2790 1837 2790 
C 1331 2790 1069 2400 973 2144 
L 966 2144 
L 966 2790 
L 211 2720 
L 211 2554 
C 589 2554 646 2515 646 2208 
L 646 428 
C 646 184 621 153 211 153 
L 211 -13 
C 365 0 646 0 813 0 
C 979 0 1267 0 1421 -13 
L 1421 153 
C 1011 153 986 178 986 428 
L 986 1658 
C 986 2247 1344 2688 1792 2688 
C 2266 2688 2317 2266 2317 1958 
L 2317 428 
C 2317 184 2291 153 1882 153 
L 1882 -13 
C 2035 0 2317 0 2483 0 
C 2650 0 2938 0 3091 -13 
L 3091 153 
C 2682 153 2656 178 2656 428 
L 2656 1933 
z
" transform="scale(0.015625)"/>
       <path id="CMR17-65" d="M 2438 1472 
C 2464 1498 2464 1511 2464 1576 
C 2464 2238 2118 2816 1389 2816 
C 710 2816 173 2169 173 1383 
C 173 551 781 -64 1459 -64 
C 2176 -64 2458 607 2458 740 
C 2458 784 2419 784 2406 784 
C 2362 784 2355 771 2330 696 
C 2189 265 1837 51 1504 51 
C 1229 51 954 203 781 480 
C 582 803 582 1176 582 1472 
L 2438 1472 
z
M 589 1568 
C 634 2505 1126 2714 1382 2714 
C 1818 2714 2112 2297 2118 1568 
L 589 1568 
z
" transform="scale(0.015625)"/>
       <path id="CMR17-72" d="M 960 1497 
C 960 2112 1222 2688 1702 2688 
C 1747 2688 1792 2682 1837 2662 
C 1837 2662 1696 2617 1696 2452 
C 1696 2298 1818 2234 1914 2234 
C 1990 2234 2131 2279 2131 2458 
C 2131 2663 1926 2790 1709 2790 
C 1222 2790 1011 2317 947 2093 
L 941 2093 
L 941 2790 
L 198 2720 
L 198 2554 
C 576 2554 634 2515 634 2208 
L 634 428 
C 634 184 608 153 198 153 
L 198 -13 
C 352 0 646 0 813 0 
C 998 0 1325 0 1498 -13 
L 1498 153 
C 1037 153 960 153 960 440 
L 960 1497 
z
" transform="scale(0.015625)"/>
       <path id="CMR17-67" d="M 710 1164 
C 832 1068 1043 960 1299 960 
C 1805 960 2240 1357 2240 1888 
C 2240 2054 2189 2310 1997 2509 
C 2176 2692 2438 2752 2586 2752 
C 2611 2752 2650 2752 2682 2734 
C 2656 2728 2598 2703 2598 2605 
C 2598 2527 2656 2471 2739 2471 
C 2835 2471 2886 2533 2886 2614 
C 2886 2731 2790 2854 2586 2854 
C 2330 2854 2106 2738 1926 2580 
C 1734 2753 1504 2816 1299 2816 
C 794 2816 358 2419 358 1888 
C 358 1522 570 1292 634 1228 
C 442 1004 442 743 442 711 
C 442 545 506 302 723 168 
C 390 85 128 -169 128 -486 
C 128 -943 736 -1280 1466 -1280 
C 2170 -1280 2803 -956 2803 -479 
C 2803 384 1856 384 1363 384 
C 1216 384 954 384 922 391 
C 723 423 589 602 589 826 
C 589 883 589 1024 710 1164 
z
M 1299 1068 
C 736 1068 736 1760 736 1889 
C 736 2016 736 2708 1299 2708 
C 1862 2708 1862 2016 1862 1889 
C 1862 1760 1862 1068 1299 1068 
z
M 1466 -1171 
C 826 -1171 384 -835 384 -486 
C 384 -289 493 -105 634 -4 
C 794 104 858 104 1293 104 
C 1818 104 2547 104 2547 -486 
C 2547 -835 2106 -1171 1466 -1171 
z
" transform="scale(0.015625)"/>
       <path id="CMR17-79" d="M 2496 2197 
C 2656 2586 2944 2586 3034 2586 
L 3034 2752 
C 2912 2752 2752 2752 2630 2752 
C 2496 2752 2285 2752 2157 2758 
L 2157 2592 
C 2400 2573 2406 2394 2406 2343 
C 2406 2280 2394 2248 2362 2171 
L 1664 449 
L 902 2306 
C 870 2382 870 2426 870 2433 
C 870 2573 1018 2586 1171 2586 
L 1171 2758 
C 1018 2752 742 2752 582 2752 
C 410 2752 205 2752 64 2758 
L 64 2586 
C 410 2586 448 2554 531 2350 
L 1485 15 
C 1197 -738 1030 -1178 627 -1178 
C 557 -1178 397 -1159 282 -1044 
C 429 -1031 493 -942 493 -833 
C 493 -725 416 -629 288 -629 
C 147 -629 77 -725 77 -840 
C 77 -1095 339 -1280 627 -1280 
C 998 -1280 1229 -922 1357 -604 
L 2496 2197 
z
" transform="scale(0.015625)"/>
       <path id="CMR17-5b" d="M 1504 -1600 
L 1504 -1377 
L 902 -1377 
L 902 4544 
L 1504 4544 
L 1504 4767 
L 678 4767 
L 678 -1600 
L 1504 -1600 
z
" transform="scale(0.015625)"/>
       <path id="CMR17-56" d="M 3776 3745 
C 3834 3886 3936 4160 4365 4160 
L 4365 4332 
C 4218 4319 4051 4319 3891 4319 
C 3738 4319 3475 4319 3328 4332 
L 3328 4160 
C 3648 4160 3661 3936 3661 3898 
C 3661 3827 3642 3783 3622 3732 
L 2362 446 
L 1043 3886 
C 1024 3931 1011 3963 1011 3994 
C 1011 4160 1267 4160 1402 4160 
L 1402 4319 
C 1197 4319 896 4319 685 4319 
C 518 4319 218 4319 64 4332 
L 64 4160 
C 435 4160 506 4135 582 3931 
L 2106 -26 
C 2138 -115 2144 -128 2214 -128 
C 2285 -128 2291 -115 2323 -26 
L 3776 3745 
z
" transform="scale(0.015625)"/>
       <path id="CMR17-5d" d="M 915 4767 
L 90 4767 
L 90 4544 
L 691 4544 
L 691 -1377 
L 90 -1377 
L 90 -1600 
L 915 -1600 
L 915 4767 
z
" transform="scale(0.015625)"/>
      </defs>
      <use xlink:href="#CMR17-45" transform="scale(0.996264)"/>
      <use xlink:href="#CMR17-6e" transform="translate(62.586301 0) scale(0.996264)"/>
      <use xlink:href="#CMR17-65" transform="translate(113.48167 0) scale(0.996264)"/>
      <use xlink:href="#CMR17-72" transform="translate(153.967331 0) scale(0.996264)"/>
      <use xlink:href="#CMR17-67" transform="translate(189.248099 0) scale(0.996264)"/>
      <use xlink:href="#CMR17-79" transform="translate(234.938576 0) scale(0.996264)"/>
      <use xlink:href="#CMR17-5b" transform="translate(313.307458 0) scale(0.996264)"/>
      <use xlink:href="#CMR17-65" transform="translate(338.178516 0) scale(0.996264)"/>
      <use xlink:href="#CMR17-56" transform="translate(378.664177 0) scale(0.996264)"/>
      <use xlink:href="#CMR17-5d" transform="translate(447.736607 0) scale(0.996264)"/>
     </g>
    </g>
   </g>
   <g id="matplotlib.axis_2">
    <g id="ytick_1">
     <g id="line2d_33">
      <defs>
       <path id="m2bd9403c9c" d="M 0 0 
L 3 0 
" style="stroke: #000000; stroke-width: 0.5"/>
      </defs>
      <g>
       <use xlink:href="#m2bd9403c9c" x="32.685756" y="138.723546" style="stroke: #000000; stroke-width: 0.5"/>
      </g>
     </g>
     <g id="line2d_34">
      <defs>
       <path id="m162dc69d27" d="M 0 0 
L -3 0 
" style="stroke: #000000; stroke-width: 0.5"/>
      </defs>
      <g>
       <use xlink:href="#m162dc69d27" x="227.933267" y="138.723546" style="stroke: #000000; stroke-width: 0.5"/>
      </g>
     </g>
     <g id="text_6">
      <!-- $\mathdefault{0.0}$ -->
      <g transform="translate(16.455677 142.182795) scale(0.1 -0.1)">
       <defs>
        <path id="CMMI12-3a" d="M 1178 307 
C 1178 492 1024 619 870 619 
C 685 619 557 466 557 313 
C 557 128 710 0 864 0 
C 1050 0 1178 153 1178 307 
z
" transform="scale(0.015625)"/>
       </defs>
       <use xlink:href="#CMR17-30" transform="scale(0.996264)"/>
       <use xlink:href="#CMMI12-3a" transform="translate(45.690477 0) scale(0.996264)"/>
       <use xlink:href="#CMR17-30" transform="translate(72.787654 0) scale(0.996264)"/>
      </g>
     </g>
    </g>
    <g id="ytick_2">
     <g id="line2d_35">
      <g>
       <use xlink:href="#m2bd9403c9c" x="32.685756" y="95.979892" style="stroke: #000000; stroke-width: 0.5"/>
      </g>
     </g>
     <g id="line2d_36">
      <g>
       <use xlink:href="#m162dc69d27" x="227.933267" y="95.979892" style="stroke: #000000; stroke-width: 0.5"/>
      </g>
     </g>
     <g id="text_7">
      <!-- $\mathdefault{0.5}$ -->
      <g transform="translate(16.455677 99.439141) scale(0.1 -0.1)">
       <use xlink:href="#CMR17-30" transform="scale(0.996264)"/>
       <use xlink:href="#CMMI12-3a" transform="translate(45.690477 0) scale(0.996264)"/>
       <use xlink:href="#CMR17-35" transform="translate(72.787654 0) scale(0.996264)"/>
      </g>
     </g>
    </g>
    <g id="ytick_3">
     <g id="line2d_37">
      <g>
       <use xlink:href="#m2bd9403c9c" x="32.685756" y="53.236239" style="stroke: #000000; stroke-width: 0.5"/>
      </g>
     </g>
     <g id="line2d_38">
      <g>
       <use xlink:href="#m162dc69d27" x="227.933267" y="53.236239" style="stroke: #000000; stroke-width: 0.5"/>
      </g>
     </g>
     <g id="text_8">
      <!-- $\mathdefault{1.0}$ -->
      <g transform="translate(16.455677 56.695488) scale(0.1 -0.1)">
       <defs>
        <path id="CMR17-31" d="M 1702 4058 
C 1702 4192 1696 4192 1606 4192 
C 1357 3916 979 3827 621 3827 
C 602 3827 570 3827 563 3808 
C 557 3795 557 3782 557 3648 
C 755 3648 1088 3686 1344 3839 
L 1344 461 
C 1344 236 1331 160 781 160 
L 589 160 
L 589 0 
C 896 0 1216 0 1523 0 
C 1830 0 2150 0 2458 0 
L 2458 160 
L 2266 160 
C 1715 160 1702 230 1702 458 
L 1702 4058 
z
" transform="scale(0.015625)"/>
       </defs>
       <use xlink:href="#CMR17-31" transform="scale(0.996264)"/>
       <use xlink:href="#CMMI12-3a" transform="translate(45.690477 0) scale(0.996264)"/>
       <use xlink:href="#CMR17-30" transform="translate(72.787654 0) scale(0.996264)"/>
      </g>
     </g>
    </g>
    <g id="ytick_4">
     <g id="line2d_39">
      <defs>
       <path id="m05fc7793b2" d="M 0 0 
L 1.5 0 
" style="stroke: #000000; stroke-width: 0.5"/>
      </defs>
      <g>
       <use xlink:href="#m05fc7793b2" x="32.685756" y="130.174815" style="stroke: #000000; stroke-width: 0.5"/>
      </g>
     </g>
     <g id="line2d_40">
      <defs>
       <path id="m7fc6d57b2d" d="M 0 0 
L -1.5 0 
" style="stroke: #000000; stroke-width: 0.5"/>
      </defs>
      <g>
       <use xlink:href="#m7fc6d57b2d" x="227.933267" y="130.174815" style="stroke: #000000; stroke-width: 0.5"/>
      </g>
     </g>
    </g>
    <g id="ytick_5">
     <g id="line2d_41">
      <g>
       <use xlink:href="#m05fc7793b2" x="32.685756" y="121.626084" style="stroke: #000000; stroke-width: 0.5"/>
      </g>
     </g>
     <g id="line2d_42">
      <g>
       <use xlink:href="#m7fc6d57b2d" x="227.933267" y="121.626084" style="stroke: #000000; stroke-width: 0.5"/>
      </g>
     </g>
    </g>
    <g id="ytick_6">
     <g id="line2d_43">
      <g>
       <use xlink:href="#m05fc7793b2" x="32.685756" y="113.077353" style="stroke: #000000; stroke-width: 0.5"/>
      </g>
     </g>
     <g id="line2d_44">
      <g>
       <use xlink:href="#m7fc6d57b2d" x="227.933267" y="113.077353" style="stroke: #000000; stroke-width: 0.5"/>
      </g>
     </g>
    </g>
    <g id="ytick_7">
     <g id="line2d_45">
      <g>
       <use xlink:href="#m05fc7793b2" x="32.685756" y="104.528623" style="stroke: #000000; stroke-width: 0.5"/>
      </g>
     </g>
     <g id="line2d_46">
      <g>
       <use xlink:href="#m7fc6d57b2d" x="227.933267" y="104.528623" style="stroke: #000000; stroke-width: 0.5"/>
      </g>
     </g>
    </g>
    <g id="ytick_8">
     <g id="line2d_47">
      <g>
       <use xlink:href="#m05fc7793b2" x="32.685756" y="87.431161" style="stroke: #000000; stroke-width: 0.5"/>
      </g>
     </g>
     <g id="line2d_48">
      <g>
       <use xlink:href="#m7fc6d57b2d" x="227.933267" y="87.431161" style="stroke: #000000; stroke-width: 0.5"/>
      </g>
     </g>
    </g>
    <g id="ytick_9">
     <g id="line2d_49">
      <g>
       <use xlink:href="#m05fc7793b2" x="32.685756" y="78.882431" style="stroke: #000000; stroke-width: 0.5"/>
      </g>
     </g>
     <g id="line2d_50">
      <g>
       <use xlink:href="#m7fc6d57b2d" x="227.933267" y="78.882431" style="stroke: #000000; stroke-width: 0.5"/>
      </g>
     </g>
    </g>
    <g id="ytick_10">
     <g id="line2d_51">
      <g>
       <use xlink:href="#m05fc7793b2" x="32.685756" y="70.3337" style="stroke: #000000; stroke-width: 0.5"/>
      </g>
     </g>
     <g id="line2d_52">
      <g>
       <use xlink:href="#m7fc6d57b2d" x="227.933267" y="70.3337" style="stroke: #000000; stroke-width: 0.5"/>
      </g>
     </g>
    </g>
    <g id="ytick_11">
     <g id="line2d_53">
      <g>
       <use xlink:href="#m05fc7793b2" x="32.685756" y="61.784969" style="stroke: #000000; stroke-width: 0.5"/>
      </g>
     </g>
     <g id="line2d_54">
      <g>
       <use xlink:href="#m7fc6d57b2d" x="227.933267" y="61.784969" style="stroke: #000000; stroke-width: 0.5"/>
      </g>
     </g>
    </g>
    <g id="ytick_12">
     <g id="line2d_55">
      <g>
       <use xlink:href="#m05fc7793b2" x="32.685756" y="44.687508" style="stroke: #000000; stroke-width: 0.5"/>
      </g>
     </g>
     <g id="line2d_56">
      <g>
       <use xlink:href="#m7fc6d57b2d" x="227.933267" y="44.687508" style="stroke: #000000; stroke-width: 0.5"/>
      </g>
     </g>
    </g>
    <g id="ytick_13">
     <g id="line2d_57">
      <g>
       <use xlink:href="#m05fc7793b2" x="32.685756" y="36.138777" style="stroke: #000000; stroke-width: 0.5"/>
      </g>
     </g>
     <g id="line2d_58">
      <g>
       <use xlink:href="#m7fc6d57b2d" x="227.933267" y="36.138777" style="stroke: #000000; stroke-width: 0.5"/>
      </g>
     </g>
    </g>
    <g id="ytick_14">
     <g id="line2d_59">
      <g>
       <use xlink:href="#m05fc7793b2" x="32.685756" y="27.590047" style="stroke: #000000; stroke-width: 0.5"/>
      </g>
     </g>
     <g id="line2d_60">
      <g>
       <use xlink:href="#m7fc6d57b2d" x="227.933267" y="27.590047" style="stroke: #000000; stroke-width: 0.5"/>
      </g>
     </g>
    </g>
    <g id="ytick_15">
     <g id="line2d_61">
      <g>
       <use xlink:href="#m05fc7793b2" x="32.685756" y="19.041316" style="stroke: #000000; stroke-width: 0.5"/>
      </g>
     </g>
     <g id="line2d_62">
      <g>
       <use xlink:href="#m7fc6d57b2d" x="227.933267" y="19.041316" style="stroke: #000000; stroke-width: 0.5"/>
      </g>
     </g>
    </g>
    <g id="text_9">
     <!-- Scattering intensity -->
     <g transform="translate(10.518498 121.663356) rotate(-90) scale(0.1 -0.1)">
      <defs>
       <path id="CMR17-53" d="M 2803 4290 
C 2803 4404 2797 4411 2758 4411 
C 2720 4411 2707 4385 2682 4328 
L 2490 3907 
C 2246 4257 1875 4416 1472 4416 
C 819 4416 294 3901 294 3253 
C 294 3056 339 2776 557 2510 
C 794 2218 1018 2167 1530 2033 
C 1722 1982 2042 1899 2106 1874 
C 2470 1722 2662 1341 2662 985 
C 2662 527 2336 38 1779 38 
C 1094 38 454 419 410 1311 
C 403 1413 397 1419 352 1419 
C 301 1419 294 1413 294 1285 
L 294 -1 
C 294 -115 301 -122 339 -122 
C 384 -122 397 -90 486 108 
C 493 127 493 140 614 381 
C 934 -39 1472 -128 1779 -128 
C 2477 -128 2970 451 2970 1124 
C 2970 1454 2848 1708 2778 1823 
C 2509 2230 2221 2306 1914 2382 
C 1869 2402 1856 2402 1498 2490 
C 1152 2579 1005 2624 845 2796 
C 666 2992 602 3196 602 3399 
C 602 3812 934 4263 1478 4263 
C 2157 4263 2579 3786 2675 2993 
C 2694 2878 2701 2872 2746 2872 
C 2803 2872 2803 2891 2803 2999 
L 2803 4290 
z
" transform="scale(0.015625)"/>
       <path id="CMR17-63" d="M 2234 2240 
C 2112 2240 1933 2240 1933 2017 
C 1933 1838 2080 1787 2163 1787 
C 2208 1787 2394 1807 2394 2024 
C 2394 2467 1958 2803 1466 2803 
C 787 2803 211 2178 211 1363 
C 211 516 813 -64 1466 -64 
C 2259 -64 2458 677 2458 748 
C 2458 774 2451 793 2406 793 
C 2362 793 2355 787 2330 703 
C 2163 180 1798 51 1523 51 
C 1114 51 621 427 621 1369 
C 621 2338 1094 2688 1472 2688 
C 1722 2688 2093 2573 2234 2240 
z
" transform="scale(0.015625)"/>
       <path id="CMR17-61" d="M 2304 1653 
C 2304 2072 2304 2294 2035 2543 
C 1798 2752 1523 2816 1306 2816 
C 800 2816 435 2407 435 1971 
C 435 1728 627 1728 666 1728 
C 749 1728 896 1778 896 1954 
C 896 2112 774 2181 666 2181 
C 640 2181 608 2174 589 2168 
C 723 2592 1069 2714 1293 2714 
C 1613 2714 1965 2429 1965 1885 
L 1965 1600 
C 1587 1600 1133 1549 774 1357 
C 371 1133 256 813 256 570 
C 256 77 832 -64 1171 -64 
C 1523 -64 1850 139 1990 511 
C 2003 233 2182 -18 2464 -18 
C 2598 -18 2938 70 2938 567 
L 2938 920 
L 2822 920 
L 2822 562 
C 2822 178 2650 128 2566 128 
C 2304 128 2304 458 2304 738 
L 2304 1653 
z
M 1965 870 
C 1965 317 1568 38 1216 38 
C 896 38 646 275 646 570 
C 646 761 730 1100 1101 1305 
C 1408 1478 1760 1504 1965 1504 
L 1965 870 
z
" transform="scale(0.015625)"/>
       <path id="CMR17-74" d="M 966 2560 
L 1862 2560 
L 1862 2725 
L 966 2725 
L 966 3904 
L 851 3904 
C 838 3245 614 2668 70 2668 
L 70 2560 
L 627 2560 
L 627 771 
C 627 650 627 -64 1370 -64 
C 1747 -64 1965 306 1965 777 
L 1965 1140 
L 1850 1140 
L 1850 783 
C 1850 344 1677 51 1408 51 
C 1222 51 966 178 966 758 
L 966 2560 
z
" transform="scale(0.015625)"/>
       <path id="CMR17-69" d="M 992 3909 
C 992 4049 877 4170 730 4170 
C 589 4170 467 4056 467 3909 
C 467 3769 582 3648 730 3648 
C 870 3648 992 3763 992 3909 
z
M 243 2706 
L 243 2541 
C 602 2541 653 2502 653 2197 
L 653 427 
C 653 184 627 153 218 153 
L 218 -13 
C 371 0 646 0 806 0 
C 960 0 1222 0 1370 -13 
L 1370 153 
C 992 153 979 191 979 420 
L 979 2776 
L 243 2706 
z
" transform="scale(0.015625)"/>
       <path id="CMR17-73" d="M 1978 2697 
C 1978 2813 1971 2819 1933 2819 
C 1907 2819 1901 2813 1824 2717 
C 1805 2691 1747 2626 1728 2601 
C 1523 2819 1235 2819 1126 2819 
C 416 2819 160 2447 160 2076 
C 160 1498 813 1365 998 1325 
C 1402 1243 1542 1217 1677 1101 
C 1760 1025 1901 884 1901 654 
C 1901 384 1747 38 1158 38 
C 602 38 403 460 288 1021 
C 269 1110 269 1117 218 1117 
C 166 1117 160 1110 160 983 
L 160 63 
C 160 -51 166 -58 205 -58 
C 237 -58 243 -51 275 0 
C 314 57 410 211 448 276 
C 576 103 800 -64 1158 -64 
C 1792 -64 2131 283 2131 784 
C 2131 1112 1958 1285 1875 1362 
C 1683 1561 1459 1606 1190 1657 
C 838 1735 390 1825 390 2217 
C 390 2383 480 2737 1126 2737 
C 1811 2737 1850 2094 1862 1888 
C 1869 1856 1901 1849 1920 1849 
C 1978 1849 1978 1869 1978 1978 
L 1978 2697 
z
" transform="scale(0.015625)"/>
      </defs>
      <use xlink:href="#CMR17-53" transform="scale(0.996264)"/>
      <use xlink:href="#CMR17-63" transform="translate(50.89537 0) scale(0.996264)"/>
      <use xlink:href="#CMR17-61" transform="translate(91.38103 0) scale(0.996264)"/>
      <use xlink:href="#CMR17-74" transform="translate(137.071507 0) scale(0.996264)"/>
      <use xlink:href="#CMR17-74" transform="translate(172.352275 0) scale(0.996264)"/>
      <use xlink:href="#CMR17-65" transform="translate(207.633043 0) scale(0.996264)"/>
      <use xlink:href="#CMR17-72" transform="translate(248.118703 0) scale(0.996264)"/>
      <use xlink:href="#CMR17-69" transform="translate(283.399471 0) scale(0.996264)"/>
      <use xlink:href="#CMR17-6e" transform="translate(308.27053 0) scale(0.996264)"/>
      <use xlink:href="#CMR17-67" transform="translate(359.165899 0) scale(0.996264)"/>
      <use xlink:href="#CMR17-69" transform="translate(434.932343 0) scale(0.996264)"/>
      <use xlink:href="#CMR17-6e" transform="translate(459.803401 0) scale(0.996264)"/>
      <use xlink:href="#CMR17-74" transform="translate(508.096317 0) scale(0.996264)"/>
      <use xlink:href="#CMR17-65" transform="translate(543.377085 0) scale(0.996264)"/>
      <use xlink:href="#CMR17-6e" transform="translate(583.862746 0) scale(0.996264)"/>
      <use xlink:href="#CMR17-73" transform="translate(634.758115 0) scale(0.996264)"/>
      <use xlink:href="#CMR17-69" transform="translate(670.559453 0) scale(0.996264)"/>
      <use xlink:href="#CMR17-74" transform="translate(695.430511 0) scale(0.996264)"/>
      <use xlink:href="#CMR17-79" transform="translate(728.108825 0) scale(0.996264)"/>
     </g>
    </g>
    <g id="text_10">
     <!-- $\times\mathdefault{10^{−18}}\mathdefault{}$ -->
     <g transform="translate(32.685756 10.602655) scale(0.1 -0.1)">
      <defs>
       <path id="CMSY10-2" d="M 2490 1785 
L 1210 3059 
C 1133 3136 1120 3148 1069 3148 
C 1005 3148 941 3091 941 3020 
C 941 2976 954 2963 1024 2892 
L 2304 1606 
L 1024 320 
C 954 249 941 236 941 192 
C 941 121 1005 64 1069 64 
C 1120 64 1133 76 1210 153 
L 2483 1427 
L 3808 102 
C 3821 96 3866 64 3904 64 
C 3981 64 4032 121 4032 192 
C 4032 204 4032 230 4013 262 
C 4006 275 2989 1280 2669 1606 
L 3840 2777 
C 3872 2816 3968 2899 4000 2937 
C 4006 2950 4032 2976 4032 3020 
C 4032 3091 3981 3148 3904 3148 
C 3853 3148 3827 3123 3757 3052 
L 2490 1785 
z
" transform="scale(0.015625)"/>
       <path id="CMSY10-0" d="M 4218 1472 
C 4326 1472 4442 1472 4442 1600 
C 4442 1728 4326 1728 4218 1728 
L 755 1728 
C 646 1728 531 1728 531 1600 
C 531 1472 646 1472 755 1472 
L 4218 1472 
z
" transform="scale(0.015625)"/>
      </defs>
      <use xlink:href="#CMSY10-2" transform="scale(0.996264)"/>
      <use xlink:href="#CMR17-31" transform="translate(77.487468 0) scale(0.996264)"/>
      <use xlink:href="#CMR17-30" transform="translate(123.177945 0) scale(0.996264)"/>
      <use xlink:href="#CMSY10-0" transform="translate(168.868422 36.153639) scale(0.697382)"/>
      <use xlink:href="#CMR17-31" transform="translate(223.109415 36.153639) scale(0.697382)"/>
      <use xlink:href="#CMR17-38" transform="translate(255.092597 36.153639) scale(0.697382)"/>
     </g>
    </g>
   </g>
   <g id="line2d_63">
    <path d="M 41.560643 138.581209 
L 49.277935 138.180834 
L 54.620677 137.689566 
L 58.776142 137.075582 
L 62.33797 136.321377 
L 65.306159 135.487163 
L 68.274349 134.42582 
L 71.242538 133.098169 
L 73.61709 131.818358 
L 75.991642 130.32517 
L 78.366193 128.60279 
L 80.740745 126.638964 
L 83.115297 124.426203 
L 86.083486 121.308489 
L 89.051676 117.812383 
L 92.019866 113.969429 
L 95.581693 108.974736 
L 100.330796 101.883984 
L 108.048089 90.319099 
L 111.609917 85.445775 
L 114.578106 81.816444 
L 116.952658 79.2722 
L 119.32721 77.098301 
L 121.108124 75.734614 
L 122.889037 74.614449 
L 124.669951 73.747999 
L 126.450865 73.142366 
L 128.231779 72.801517 
L 130.012692 72.726319 
L 131.793606 72.914609 
L 133.57452 73.3613 
L 135.355434 74.05852 
L 137.136347 74.995802 
L 138.917261 76.160319 
L 141.291813 78.040407 
L 143.666364 80.257422 
L 146.040916 82.76662 
L 149.009106 86.240917 
L 152.570933 90.777169 
L 158.507312 98.795609 
L 165.03733 107.548447 
L 169.192795 112.745495 
L 172.754622 116.841596 
L 175.722812 119.958983 
L 178.691002 122.787152 
L 181.659191 125.318753 
L 184.627381 127.555822 
L 187.59557 129.508084 
L 190.56376 131.191247 
L 193.53195 132.625357 
L 196.500139 133.833236 
L 200.061967 135.018189 
L 203.623794 135.954427 
L 207.77926 136.786629 
L 212.528363 137.479722 
L 219.05838 138.275143 
L 219.05838 138.275143 
" clip-path="url(#p75e09f3ddc)" style="fill: none; stroke-dasharray: 3.7,1.6; stroke-dashoffset: 0; stroke: #0c5da5"/>
   </g>
   <g id="line2d_64">
    <path d="M 41.560643 138.594331 
L 70.648901 137.624899 
L 77.772556 137.040483 
L 83.708935 136.320437 
L 88.458038 135.538255 
L 93.207141 134.528703 
L 97.362607 133.431823 
L 101.518072 132.124492 
L 106.267176 130.389519 
L 112.797193 127.726712 
L 119.32721 125.128135 
L 122.889037 123.965721 
L 124.669951 123.544713 
L 126.450865 123.368327 
L 127.638141 123.502179 
L 128.825417 123.952684 
L 130.012692 124.819081 
L 131.199968 126.156445 
L 132.387244 127.932199 
L 136.542709 135.022049 
L 137.729985 136.453605 
L 138.917261 137.452702 
L 140.104537 138.076355 
L 141.291813 138.424611 
L 143.072727 138.645787 
L 146.634554 138.720924 
L 200.061967 138.723546 
L 219.05838 138.723546 
L 219.05838 138.723546 
" clip-path="url(#p75e09f3ddc)" style="fill: none; stroke: #00b945; stroke-linecap: square"/>
   </g>
   <g id="line2d_65">
    <path d="M 41.560643 138.723546 
L 179.28464 138.631205 
L 181.659191 138.407105 
L 184.033743 137.977731 
L 187.59557 137.271678 
L 189.376484 137.108574 
L 191.751036 137.140622 
L 196.500139 137.564945 
L 203.030156 138.075037 
L 210.153811 138.404835 
L 219.05838 138.640431 
L 219.05838 138.640431 
" clip-path="url(#p75e09f3ddc)" style="fill: none; stroke: #ff9500; stroke-linecap: square"/>
   </g>
   <g id="line2d_66">
    <path d="M 41.560643 138.451995 
L 51.058849 137.691183 
L 55.214315 137.168147 
L 58.776142 136.526837 
L 62.33797 135.647616 
L 65.306159 134.686024 
L 68.274349 133.471598 
L 70.648901 132.288234 
L 73.023452 130.89175 
L 75.398004 129.259987 
L 77.772556 127.372551 
L 80.147107 125.211907 
L 82.521659 122.764604 
L 84.896211 120.022542 
L 87.270762 116.984147 
L 90.238952 112.779237 
L 93.207141 108.151237 
L 96.768969 102.114612 
L 100.924434 94.580544 
L 111.016279 75.968011 
L 113.984469 71.015064 
L 116.35902 67.417142 
L 118.733572 64.227692 
L 120.514486 62.148361 
L 122.295399 60.373356 
L 124.076313 58.950583 
L 125.263589 58.242842 
L 126.450865 57.787147 
L 127.638141 57.66423 
L 128.231779 57.759137 
L 128.825417 57.976118 
L 129.419054 58.327253 
L 130.012692 58.821854 
L 131.199968 60.255723 
L 132.387244 62.243781 
L 134.168158 65.931654 
L 136.542709 70.95595 
L 137.729985 73.089482 
L 138.917261 74.889473 
L 140.698175 77.091782 
L 144.260002 80.826291 
L 148.415468 85.084608 
L 149.009106 85.503839 
L 149.602744 85.759616 
L 150.196382 85.772981 
L 150.79002 85.443423 
L 151.383657 84.650012 
L 151.977295 83.256693 
L 152.570933 81.122933 
L 153.164571 78.120291 
L 153.758209 74.154377 
L 154.351847 69.1902 
L 155.539123 56.570042 
L 157.913675 28.656463 
L 158.507312 23.751036 
L 159.10095 20.613864 
L 159.694588 19.560793 
L 160.288226 20.74428 
L 160.881864 24.132613 
L 161.475502 29.514159 
L 162.662778 44.700472 
L 165.03733 79.216029 
L 166.224605 92.572811 
L 167.411881 101.974934 
L 168.005519 105.356393 
L 168.599157 108.027419 
L 169.192795 110.127478 
L 170.380071 113.120545 
L 171.567347 115.154379 
L 172.754622 116.726979 
L 174.535536 118.727256 
L 177.503726 121.662642 
L 179.878277 123.705142 
L 181.659191 125.002311 
L 183.440105 126.073473 
L 185.814657 127.237387 
L 189.970122 129.244511 
L 197.093777 132.946665 
L 200.061967 134.165765 
L 203.030156 135.165395 
L 206.591984 136.115165 
L 210.153811 136.841292 
L 216.090191 137.76548 
L 219.05838 138.192028 
L 219.05838 138.192028 
" clip-path="url(#p75e09f3ddc)" style="fill: none; stroke: #000000; stroke-width: 2; stroke-linecap: square"/>
   </g>
   <g id="patch_3">
    <path d="M 32.685756 144.681683 
L 32.685756 13.602655 
" style="fill: none; stroke: #000000; stroke-width: 0.5; stroke-linejoin: miter; stroke-linecap: square"/>
   </g>
   <g id="patch_4">
    <path d="M 227.933267 144.681683 
L 227.933267 13.602655 
" style="fill: none; stroke: #000000; stroke-width: 0.5; stroke-linejoin: miter; stroke-linecap: square"/>
   </g>
   <g id="patch_5">
    <path d="M 32.685756 144.681683 
L 227.933267 144.681683 
" style="fill: none; stroke: #000000; stroke-width: 0.5; stroke-linejoin: miter; stroke-linecap: square"/>
   </g>
   <g id="patch_6">
    <path d="M 32.685756 13.602655 
L 227.933267 13.602655 
" style="fill: none; stroke: #000000; stroke-width: 0.5; stroke-linejoin: miter; stroke-linecap: square"/>
   </g>
   <g id="legend_1">
    <g id="line2d_67">
     <path d="M 41.685756 26.102655 
L 51.685756 26.102655 
L 61.685756 26.102655 
" style="fill: none; stroke-dasharray: 3.7,1.6; stroke-dashoffset: 0; stroke: #0c5da5"/>
    </g>
    <g id="text_11">
     <!-- free-free -->
     <g transform="translate(69.685756 29.602655) scale(0.1 -0.1)">
      <defs>
       <path id="CMR17-66" d="M 979 2560 
L 1709 2560 
L 1709 2725 
L 966 2725 
L 966 3494 
C 966 4022 1235 4352 1510 4352 
C 1594 4352 1690 4327 1754 4282 
C 1702 4269 1568 4225 1568 4067 
C 1568 3901 1696 3850 1786 3850 
C 1875 3850 2003 3901 2003 4067 
C 2003 4308 1773 4454 1517 4454 
C 1152 4454 653 4156 653 3481 
L 653 2725 
L 141 2725 
L 141 2560 
L 653 2560 
L 653 427 
C 653 184 627 153 218 153 
L 218 -13 
C 371 0 666 0 832 0 
C 1018 0 1344 0 1517 -13 
L 1517 153 
C 1056 153 979 153 979 439 
L 979 2560 
z
" transform="scale(0.015625)"/>
       <path id="CMR17-2d" d="M 1632 1216 
L 1632 1496 
L 26 1496 
L 26 1216 
L 1632 1216 
z
" transform="scale(0.015625)"/>
      </defs>
      <use xlink:href="#CMR17-66" transform="scale(0.996264)"/>
      <use xlink:href="#CMR17-72" transform="translate(27.473512 0) scale(0.996264)"/>
      <use xlink:href="#CMR17-65" transform="translate(62.75428 0) scale(0.996264)"/>
      <use xlink:href="#CMR17-65" transform="translate(103.239941 0) scale(0.996264)"/>
      <use xlink:href="#CMR17-2d" transform="translate(143.725601 0) scale(0.996264)"/>
      <use xlink:href="#CMR17-66" transform="translate(173.801567 0) scale(0.996264)"/>
      <use xlink:href="#CMR17-72" transform="translate(201.27508 0) scale(0.996264)"/>
      <use xlink:href="#CMR17-65" transform="translate(236.555848 0) scale(0.996264)"/>
      <use xlink:href="#CMR17-65" transform="translate(277.041508 0) scale(0.996264)"/>
     </g>
    </g>
    <g id="line2d_68">
     <path d="M 41.685756 40.039834 
L 51.685756 40.039834 
L 61.685756 40.039834 
" style="fill: none; stroke: #00b945; stroke-linecap: square"/>
    </g>
    <g id="text_12">
     <!-- bound-free -->
     <g transform="translate(69.685756 43.539834) scale(0.1 -0.1)">
      <defs>
       <path id="CMR17-62" d="M 960 4396 
L 198 4326 
L 198 4160 
C 576 4160 634 4122 634 3817 
L 634 -13 
L 749 -13 
L 934 441 
C 1120 141 1395 -64 1766 -64 
C 2406 -64 3053 500 3053 1370 
C 3053 2188 2477 2790 1830 2790 
C 1434 2790 1152 2579 960 2330 
L 960 4396 
z
M 973 2004 
C 973 2118 973 2138 1062 2272 
C 1312 2657 1670 2688 1792 2688 
C 1984 2688 2643 2585 2643 1376 
C 2643 108 1888 38 1734 38 
C 1536 38 1248 114 1043 486 
C 973 608 973 621 973 735 
L 973 2004 
z
" transform="scale(0.015625)"/>
       <path id="CMR17-6f" d="M 2758 1356 
C 2758 2176 2163 2816 1466 2816 
C 768 2816 173 2176 173 1356 
C 173 551 768 -64 1466 -64 
C 2163 -64 2758 551 2758 1356 
z
M 1466 51 
C 1165 51 909 230 762 480 
C 602 767 582 1126 582 1408 
C 582 1677 595 2010 762 2298 
C 890 2509 1139 2714 1466 2714 
C 1754 2714 1997 2554 2150 2330 
C 2349 2029 2349 1607 2349 1408 
C 2349 1158 2336 775 2163 467 
C 1984 173 1709 51 1466 51 
z
" transform="scale(0.015625)"/>
       <path id="CMR17-75" d="M 1882 2693 
L 1882 2528 
C 2259 2528 2317 2489 2317 2186 
L 2317 1032 
C 2317 500 2029 38 1555 38 
C 1030 38 986 348 986 678 
L 986 2763 
L 211 2693 
L 211 2528 
C 467 2528 640 2528 646 2274 
L 646 1058 
C 646 633 646 361 813 183 
C 896 101 1056 -64 1517 -64 
C 2061 -64 2272 377 2323 506 
L 2330 506 
L 2330 -63 
L 3091 -63 
L 3091 128 
C 2714 128 2656 166 2656 473 
L 2656 2763 
L 1882 2693 
z
" transform="scale(0.015625)"/>
       <path id="CMR17-64" d="M 1869 4326 
L 1869 4160 
C 2246 4160 2304 4122 2304 3820 
L 2304 2345 
C 2278 2377 2016 2790 1498 2790 
C 845 2790 211 2208 211 1364 
C 211 525 806 -64 1434 -64 
C 1978 -64 2259 337 2291 380 
L 2291 -63 
L 3066 -63 
L 3066 128 
C 2688 128 2630 166 2630 473 
L 2630 4396 
L 1869 4326 
z
M 2291 755 
C 2291 563 2176 390 2029 262 
C 1811 70 1594 38 1472 38 
C 1286 38 621 134 621 1356 
C 621 2612 1363 2688 1530 2688 
C 1824 2688 2061 2522 2208 2291 
C 2291 2157 2291 2138 2291 2023 
L 2291 755 
z
" transform="scale(0.015625)"/>
      </defs>
      <use xlink:href="#CMR17-62" transform="scale(0.996264)"/>
      <use xlink:href="#CMR17-6f" transform="translate(53.497809 0) scale(0.996264)"/>
      <use xlink:href="#CMR17-75" transform="translate(99.188286 0) scale(0.996264)"/>
      <use xlink:href="#CMR17-6e" transform="translate(150.083655 0) scale(0.996264)"/>
      <use xlink:href="#CMR17-64" transform="translate(200.979025 0) scale(0.996264)"/>
      <use xlink:href="#CMR17-2d" transform="translate(251.874395 0) scale(0.996264)"/>
      <use xlink:href="#CMR17-66" transform="translate(281.950361 0) scale(0.996264)"/>
      <use xlink:href="#CMR17-72" transform="translate(309.423874 0) scale(0.996264)"/>
      <use xlink:href="#CMR17-65" transform="translate(344.704642 0) scale(0.996264)"/>
      <use xlink:href="#CMR17-65" transform="translate(385.190302 0) scale(0.996264)"/>
     </g>
    </g>
    <g id="line2d_69">
     <path d="M 41.685756 53.977012 
L 51.685756 53.977012 
L 61.685756 53.977012 
" style="fill: none; stroke: #ff9500; stroke-linecap: square"/>
    </g>
    <g id="text_13">
     <!-- free-bound -->
     <g transform="translate(69.685756 57.477012) scale(0.1 -0.1)">
      <use xlink:href="#CMR17-66" transform="scale(0.996264)"/>
      <use xlink:href="#CMR17-72" transform="translate(27.473512 0) scale(0.996264)"/>
      <use xlink:href="#CMR17-65" transform="translate(62.75428 0) scale(0.996264)"/>
      <use xlink:href="#CMR17-65" transform="translate(103.239941 0) scale(0.996264)"/>
      <use xlink:href="#CMR17-2d" transform="translate(143.725601 0) scale(0.996264)"/>
      <use xlink:href="#CMR17-62" transform="translate(173.801567 0) scale(0.996264)"/>
      <use xlink:href="#CMR17-6f" transform="translate(227.299376 0) scale(0.996264)"/>
      <use xlink:href="#CMR17-75" transform="translate(272.989853 0) scale(0.996264)"/>
      <use xlink:href="#CMR17-6e" transform="translate(323.885223 0) scale(0.996264)"/>
      <use xlink:href="#CMR17-64" transform="translate(374.780593 0) scale(0.996264)"/>
     </g>
    </g>
    <g id="line2d_70">
     <path d="M 41.685756 67.91419 
L 51.685756 67.91419 
L 61.685756 67.91419 
" style="fill: none; stroke: #000000; stroke-width: 2; stroke-linecap: square"/>
    </g>
    <g id="text_14">
     <!-- full -->
     <g transform="translate(69.685756 71.41419) scale(0.1 -0.1)">
      <defs>
       <path id="CMR17-6c" d="M 979 4396 
L 218 4326 
L 218 4160 
C 595 4160 653 4122 653 3817 
L 653 426 
C 653 184 627 153 218 153 
L 218 -13 
C 371 0 653 0 813 0 
C 979 0 1261 0 1414 -13 
L 1414 153 
C 1005 153 979 178 979 426 
L 979 4396 
z
" transform="scale(0.015625)"/>
      </defs>
      <use xlink:href="#CMR17-66" transform="scale(0.996264)"/>
      <use xlink:href="#CMR17-75" transform="translate(27.473512 0) scale(0.996264)"/>
      <use xlink:href="#CMR17-6c" transform="translate(78.368882 0) scale(0.996264)"/>
      <use xlink:href="#CMR17-6c" transform="translate(103.239941 0) scale(0.996264)"/>
     </g>
    </g>
   </g>
  </g>
 </g>
 <defs>
  <clipPath id="p75e09f3ddc">
   <rect x="32.685756" y="13.602655" width="195.247511" height="131.079028"/>
  </clipPath>
 </defs>
</svg>
