<?xml version="1.0" encoding="utf-8" standalone="no"?>
<!DOCTYPE svg PUBLIC "-//W3C//DTD SVG 1.1//EN"
  "http://www.w3.org/Graphics/SVG/1.1/DTD/svg11.dtd">
<svg xmlns:xlink="http://www.w3.org/1999/xlink" width="345.6pt" height="345.6pt" viewBox="0 0 345.6 345.6" xmlns="http://www.w3.org/2000/svg" version="1.1">
 <metadata>
  <rdf:RDF xmlns:dc="http://purl.org/dc/elements/1.1/" xmlns:cc="http://creativecommons.org/ns#" xmlns:rdf="http://www.w3.org/1999/02/22-rdf-syntax-ns#">
   <cc:Work>
    <dc:type rdf:resource="http://purl.org/dc/dcmitype/StillImage"/>
    <dc:date>2026-04-11T14:00:41.780497</dc:date>
    <dc:format>image/svg+xml</dc:format>
    <dc:creator>
     <cc:Agent>
      <dc:title>Matplotlib v3.10.8, https://matplotlib.org/</dc:title>
     </cc:Agent>
    </dc:creator>
   </cc:Work>
  </rdf:RDF>
 </metadata>
 <defs>
  <style type="text/css">*{stroke-linejoin: round; stroke-linecap: butt}</style>
 </defs>
 <g id="figure_1">
  <g id="patch_1">
   <path d="M 0 345.6 
L 345.6 345.6 
L 345.6 0 
L 0 0 
z
" style="fill: #ffffff"/>
  </g>
  <g id="axes_1">
   <g id="patch_2">
    <path d="M 33.792719 147.259522 
L 175.515039 147.259522 
L 175.515039 17.90218 
L 33.792719 17.90218 
z
" style="fill: #ffffff"/>
   </g>
   <g id="matplotlib.axis_1">
    <g id="xtick_1">
     <g id="line2d_1">
      <defs>
       <path id="m8d554a0b49" d="M 0 0 
L 0 -3 
" style="stroke: #000000; stroke-width: 0.5"/>
      </defs>
      <g>
       <use xlink:href="#m8d554a0b49" x="33.792719" y="147.259522" style="stroke: #000000; stroke-width: 0.5"/>
      </g>
     </g>
     <g id="line2d_2">
      <defs>
       <path id="m767331724b" d="M 0 0 
L 0 3 
" style="stroke: #000000; stroke-width: 0.5"/>
      </defs>
      <g>
       <use xlink:href="#m767331724b" x="33.792719" y="17.90218" style="stroke: #000000; stroke-width: 0.5"/>
      </g>
     </g>
    </g>
    <g id="xtick_2">
     <g id="line2d_3">
      <g>
       <use xlink:href="#m8d554a0b49" x="90.481647" y="147.259522" style="stroke: #000000; stroke-width: 0.5"/>
      </g>
     </g>
     <g id="line2d_4">
      <g>
       <use xlink:href="#m767331724b" x="90.481647" y="17.90218" style="stroke: #000000; stroke-width: 0.5"/>
      </g>
     </g>
    </g>
    <g id="xtick_3">
     <g id="line2d_5">
      <g>
       <use xlink:href="#m8d554a0b49" x="147.170575" y="147.259522" style="stroke: #000000; stroke-width: 0.5"/>
      </g>
     </g>
     <g id="line2d_6">
      <g>
       <use xlink:href="#m767331724b" x="147.170575" y="17.90218" style="stroke: #000000; stroke-width: 0.5"/>
      </g>
     </g>
    </g>
    <g id="xtick_4">
     <g id="line2d_7">
      <defs>
       <path id="m749a775864" d="M 0 0 
L 0 -1.5 
" style="stroke: #000000; stroke-width: 0.5"/>
      </defs>
      <g>
       <use xlink:href="#m749a775864" x="47.964951" y="147.259522" style="stroke: #000000; stroke-width: 0.5"/>
      </g>
     </g>
     <g id="line2d_8">
      <defs>
       <path id="m401312c3b6" d="M 0 0 
L 0 1.5 
" style="stroke: #000000; stroke-width: 0.5"/>
      </defs>
      <g>
       <use xlink:href="#m401312c3b6" x="47.964951" y="17.90218" style="stroke: #000000; stroke-width: 0.5"/>
      </g>
     </g>
    </g>
    <g id="xtick_5">
     <g id="line2d_9">
      <g>
       <use xlink:href="#m749a775864" x="62.137183" y="147.259522" style="stroke: #000000; stroke-width: 0.5"/>
      </g>
     </g>
     <g id="line2d_10">
      <g>
       <use xlink:href="#m401312c3b6" x="62.137183" y="17.90218" style="stroke: #000000; stroke-width: 0.5"/>
      </g>
     </g>
    </g>
    <g id="xtick_6">
     <g id="line2d_11">
      <g>
       <use xlink:href="#m749a775864" x="76.309415" y="147.259522" style="stroke: #000000; stroke-width: 0.5"/>
      </g>
     </g>
     <g id="line2d_12">
      <g>
       <use xlink:href="#m401312c3b6" x="76.309415" y="17.90218" style="stroke: #000000; stroke-width: 0.5"/>
      </g>
     </g>
    </g>
    <g id="xtick_7">
     <g id="line2d_13">
      <g>
       <use xlink:href="#m749a775864" x="104.653879" y="147.259522" style="stroke: #000000; stroke-width: 0.5"/>
      </g>
     </g>
     <g id="line2d_14">
      <g>
       <use xlink:href="#m401312c3b6" x="104.653879" y="17.90218" style="stroke: #000000; stroke-width: 0.5"/>
      </g>
     </g>
    </g>
    <g id="xtick_8">
     <g id="line2d_15">
      <g>
       <use xlink:href="#m749a775864" x="118.826111" y="147.259522" style="stroke: #000000; stroke-width: 0.5"/>
      </g>
     </g>
     <g id="line2d_16">
      <g>
       <use xlink:href="#m401312c3b6" x="118.826111" y="17.90218" style="stroke: #000000; stroke-width: 0.5"/>
      </g>
     </g>
    </g>
    <g id="xtick_9">
     <g id="line2d_17">
      <g>
       <use xlink:href="#m749a775864" x="132.998343" y="147.259522" style="stroke: #000000; stroke-width: 0.5"/>
      </g>
     </g>
     <g id="line2d_18">
      <g>
       <use xlink:href="#m401312c3b6" x="132.998343" y="17.90218" style="stroke: #000000; stroke-width: 0.5"/>
      </g>
     </g>
    </g>
    <g id="xtick_10">
     <g id="line2d_19">
      <g>
       <use xlink:href="#m749a775864" x="161.342807" y="147.259522" style="stroke: #000000; stroke-width: 0.5"/>
      </g>
     </g>
     <g id="line2d_20">
      <g>
       <use xlink:href="#m401312c3b6" x="161.342807" y="17.90218" style="stroke: #000000; stroke-width: 0.5"/>
      </g>
     </g>
    </g>
    <g id="xtick_11">
     <g id="line2d_21">
      <g>
       <use xlink:href="#m749a775864" x="175.515039" y="147.259522" style="stroke: #000000; stroke-width: 0.5"/>
      </g>
     </g>
     <g id="line2d_22">
      <g>
       <use xlink:href="#m401312c3b6" x="175.515039" y="17.90218" style="stroke: #000000; stroke-width: 0.5"/>
      </g>
     </g>
    </g>
    <g id="text_1">
     <!-- $r/d_i$ -->
     <g transform="translate(95.775407 158.731502) scale(0.1 -0.1)">
      <defs>
       <path id="CMMI12-72" d="M 2490 2612 
C 2291 2574 2189 2433 2189 2293 
C 2189 2139 2310 2088 2400 2088 
C 2579 2088 2726 2242 2726 2433 
C 2726 2638 2528 2816 2208 2816 
C 1952 2816 1658 2701 1389 2312 
C 1344 2650 1088 2816 832 2816 
C 582 2816 454 2625 378 2484 
C 269 2254 173 1871 173 1839 
C 173 1814 198 1782 243 1782 
C 294 1782 301 1788 339 1935 
C 435 2318 557 2689 813 2689 
C 966 2689 1011 2580 1011 2395 
C 1011 2254 947 2005 902 1807 
L 723 1118 
C 698 996 627 709 595 594 
C 550 428 480 128 480 96 
C 480 6 550 -64 646 -64 
C 717 -64 838 -19 877 109 
C 896 160 1133 1124 1171 1271 
C 1203 1411 1242 1546 1274 1686 
C 1299 1775 1325 1878 1344 1961 
C 1363 2018 1536 2331 1696 2472 
C 1773 2542 1939 2689 2202 2689 
C 2304 2689 2406 2670 2490 2612 
z
" transform="scale(0.015625)"/>
       <path id="CMMI12-3d" d="M 2746 4562 
C 2746 4569 2784 4666 2784 4678 
C 2784 4755 2720 4800 2669 4800 
C 2637 4800 2579 4800 2528 4659 
L 384 -1363 
C 384 -1370 346 -1465 346 -1478 
C 346 -1555 410 -1600 461 -1600 
C 499 -1600 557 -1593 602 -1459 
L 2746 4562 
z
" transform="scale(0.015625)"/>
       <path id="CMMI12-64" d="M 3219 4257 
C 3226 4282 3238 4320 3238 4352 
C 3238 4416 3174 4416 3162 4416 
C 3155 4416 2842 4388 2810 4380 
C 2701 4373 2605 4358 2490 4358 
C 2330 4345 2285 4339 2285 4224 
C 2285 4160 2336 4160 2426 4160 
C 2739 4160 2746 4103 2746 4040 
C 2746 4002 2733 3952 2726 3933 
L 2336 2395 
C 2266 2561 2093 2816 1760 2816 
C 1037 2816 256 1884 256 939 
C 256 307 627 -64 1062 -64 
C 1414 -64 1715 211 1894 422 
C 1958 45 2259 -64 2451 -64 
C 2643 -64 2797 51 2912 281 
C 3014 498 3104 888 3104 913 
C 3104 945 3078 971 3040 971 
C 2982 971 2976 939 2950 843 
C 2854 466 2733 64 2470 64 
C 2285 64 2272 229 2272 357 
C 2272 382 2272 515 2317 694 
L 3219 4257 
z
M 1926 760 
C 1894 651 1894 639 1805 517 
C 1664 338 1382 64 1082 64 
C 819 64 672 300 672 677 
C 672 1028 870 1743 992 2012 
C 1210 2459 1510 2689 1760 2689 
C 2182 2689 2266 2165 2266 2114 
C 2266 2108 2246 2024 2240 2012 
L 1926 760 
z
" transform="scale(0.015625)"/>
       <path id="CMMI12-69" d="M 1811 913 
C 1811 945 1786 971 1747 971 
C 1690 971 1683 952 1651 843 
C 1485 262 1222 64 1011 64 
C 934 64 845 83 845 275 
C 845 447 922 639 992 830 
L 1440 2018 
C 1459 2069 1504 2184 1504 2305 
C 1504 2574 1312 2816 998 2816 
C 410 2816 173 1890 173 1839 
C 173 1814 198 1782 243 1782 
C 301 1782 307 1807 333 1896 
C 486 2428 730 2682 979 2682 
C 1037 2682 1146 2682 1146 2478 
C 1146 2312 1062 2101 1011 1961 
L 563 773 
C 525 671 486 568 486 453 
C 486 166 685 -64 992 -64 
C 1581 -64 1811 869 1811 913 
z
M 1760 4013 
C 1760 4109 1683 4224 1542 4224 
C 1395 4224 1229 4083 1229 3917 
C 1229 3758 1363 3707 1440 3707 
C 1613 3707 1760 3873 1760 4013 
z
" transform="scale(0.015625)"/>
      </defs>
      <use xlink:href="#CMMI12-72" transform="scale(0.996264)"/>
      <use xlink:href="#CMMI12-3d" transform="translate(46.670612 0) scale(0.996264)"/>
      <use xlink:href="#CMMI12-64" transform="translate(95.445531 0) scale(0.996264)"/>
      <use xlink:href="#CMMI12-69" transform="translate(146.134628 -14.943915) scale(0.697382)"/>
     </g>
    </g>
   </g>
   <g id="matplotlib.axis_2">
    <g id="ytick_1">
     <g id="line2d_23">
      <defs>
       <path id="mc8c678ff5f" d="M 0 0 
L 3 0 
" style="stroke: #000000; stroke-width: 0.5"/>
      </defs>
      <g>
       <use xlink:href="#mc8c678ff5f" x="33.792719" y="147.259522" style="stroke: #000000; stroke-width: 0.5"/>
      </g>
     </g>
     <g id="line2d_24">
      <defs>
       <path id="m6865f52adb" d="M 0 0 
L -3 0 
" style="stroke: #000000; stroke-width: 0.5"/>
      </defs>
      <g>
       <use xlink:href="#m6865f52adb" x="175.515039" y="147.259522" style="stroke: #000000; stroke-width: 0.5"/>
      </g>
     </g>
     <g id="text_2">
      <!-- $\mathdefault{0.0}$ -->
      <g transform="translate(17.56264 150.718771) scale(0.1 -0.1)">
       <defs>
        <path id="CMR17-30" d="M 2688 2025 
C 2688 2416 2682 3080 2413 3591 
C 2176 4039 1798 4198 1466 4198 
C 1158 4198 768 4058 525 3597 
C 269 3118 243 2524 243 2025 
C 243 1661 250 1106 448 619 
C 723 -39 1216 -128 1466 -128 
C 1760 -128 2208 -7 2470 600 
C 2662 1042 2688 1559 2688 2025 
z
M 1466 -26 
C 1056 -26 813 325 723 812 
C 653 1188 653 1738 653 2096 
C 653 2588 653 2997 736 3387 
C 858 3929 1216 4096 1466 4096 
C 1728 4096 2067 3923 2189 3400 
C 2272 3036 2278 2607 2278 2096 
C 2278 1680 2278 1169 2202 792 
C 2067 95 1690 -26 1466 -26 
z
" transform="scale(0.015625)"/>
        <path id="CMMI12-3a" d="M 1178 307 
C 1178 492 1024 619 870 619 
C 685 619 557 466 557 313 
C 557 128 710 0 864 0 
C 1050 0 1178 153 1178 307 
z
" transform="scale(0.015625)"/>
       </defs>
       <use xlink:href="#CMR17-30" transform="scale(0.996264)"/>
       <use xlink:href="#CMMI12-3a" transform="translate(45.690477 0) scale(0.996264)"/>
       <use xlink:href="#CMR17-30" transform="translate(72.787654 0) scale(0.996264)"/>
      </g>
     </g>
    </g>
    <g id="ytick_2">
     <g id="line2d_25">
      <g>
       <use xlink:href="#mc8c678ff5f" x="33.792719" y="111.326927" style="stroke: #000000; stroke-width: 0.5"/>
      </g>
     </g>
     <g id="line2d_26">
      <g>
       <use xlink:href="#m6865f52adb" x="175.515039" y="111.326927" style="stroke: #000000; stroke-width: 0.5"/>
      </g>
     </g>
     <g id="text_3">
      <!-- $\mathdefault{0.5}$ -->
      <g transform="translate(17.56264 114.786176) scale(0.1 -0.1)">
       <defs>
        <path id="CMR17-35" d="M 730 3692 
C 794 3666 1056 3584 1325 3584 
C 1920 3584 2246 3911 2432 4100 
C 2432 4157 2432 4192 2394 4192 
C 2387 4192 2374 4192 2323 4163 
C 2099 4058 1837 3973 1517 3973 
C 1325 3973 1037 3999 723 4139 
C 653 4171 640 4171 634 4171 
C 602 4171 595 4164 595 4037 
L 595 2203 
C 595 2089 595 2057 659 2057 
C 691 2057 704 2070 736 2114 
C 941 2401 1222 2522 1542 2522 
C 1766 2522 2246 2382 2246 1289 
C 2246 1085 2246 715 2054 421 
C 1894 159 1645 25 1370 25 
C 947 25 518 320 403 814 
C 429 807 480 795 506 795 
C 589 795 749 840 749 1038 
C 749 1210 627 1280 506 1280 
C 358 1280 262 1190 262 1011 
C 262 454 704 -128 1382 -128 
C 2042 -128 2669 440 2669 1264 
C 2669 2030 2170 2624 1549 2624 
C 1222 2624 947 2503 730 2274 
L 730 3692 
z
" transform="scale(0.015625)"/>
       </defs>
       <use xlink:href="#CMR17-30" transform="scale(0.996264)"/>
       <use xlink:href="#CMMI12-3a" transform="translate(45.690477 0) scale(0.996264)"/>
       <use xlink:href="#CMR17-35" transform="translate(72.787654 0) scale(0.996264)"/>
      </g>
     </g>
    </g>
    <g id="ytick_3">
     <g id="line2d_27">
      <g>
       <use xlink:href="#mc8c678ff5f" x="33.792719" y="75.394332" style="stroke: #000000; stroke-width: 0.5"/>
      </g>
     </g>
     <g id="line2d_28">
      <g>
       <use xlink:href="#m6865f52adb" x="175.515039" y="75.394332" style="stroke: #000000; stroke-width: 0.5"/>
      </g>
     </g>
     <g id="text_4">
      <!-- $\mathdefault{1.0}$ -->
      <g transform="translate(17.56264 78.853581) scale(0.1 -0.1)">
       <defs>
        <path id="CMR17-31" d="M 1702 4058 
C 1702 4192 1696 4192 1606 4192 
C 1357 3916 979 3827 621 3827 
C 602 3827 570 3827 563 3808 
C 557 3795 557 3782 557 3648 
C 755 3648 1088 3686 1344 3839 
L 1344 461 
C 1344 236 1331 160 781 160 
L 589 160 
L 589 0 
C 896 0 1216 0 1523 0 
C 1830 0 2150 0 2458 0 
L 2458 160 
L 2266 160 
C 1715 160 1702 230 1702 458 
L 1702 4058 
z
" transform="scale(0.015625)"/>
       </defs>
       <use xlink:href="#CMR17-31" transform="scale(0.996264)"/>
       <use xlink:href="#CMMI12-3a" transform="translate(45.690477 0) scale(0.996264)"/>
       <use xlink:href="#CMR17-30" transform="translate(72.787654 0) scale(0.996264)"/>
      </g>
     </g>
    </g>
    <g id="ytick_4">
     <g id="line2d_29">
      <g>
       <use xlink:href="#mc8c678ff5f" x="33.792719" y="39.461737" style="stroke: #000000; stroke-width: 0.5"/>
      </g>
     </g>
     <g id="line2d_30">
      <g>
       <use xlink:href="#m6865f52adb" x="175.515039" y="39.461737" style="stroke: #000000; stroke-width: 0.5"/>
      </g>
     </g>
     <g id="text_5">
      <!-- $\mathdefault{1.5}$ -->
      <g transform="translate(17.56264 42.920986) scale(0.1 -0.1)">
       <use xlink:href="#CMR17-31" transform="scale(0.996264)"/>
       <use xlink:href="#CMMI12-3a" transform="translate(45.690477 0) scale(0.996264)"/>
       <use xlink:href="#CMR17-35" transform="translate(72.787654 0) scale(0.996264)"/>
      </g>
     </g>
    </g>
    <g id="ytick_5">
     <g id="line2d_31">
      <defs>
       <path id="meb343c8f02" d="M 0 0 
L 1.5 0 
" style="stroke: #000000; stroke-width: 0.5"/>
      </defs>
      <g>
       <use xlink:href="#meb343c8f02" x="33.792719" y="140.073003" style="stroke: #000000; stroke-width: 0.5"/>
      </g>
     </g>
     <g id="line2d_32">
      <defs>
       <path id="mef7dd1dc73" d="M 0 0 
L -1.5 0 
" style="stroke: #000000; stroke-width: 0.5"/>
      </defs>
      <g>
       <use xlink:href="#mef7dd1dc73" x="175.515039" y="140.073003" style="stroke: #000000; stroke-width: 0.5"/>
      </g>
     </g>
    </g>
    <g id="ytick_6">
     <g id="line2d_33">
      <g>
       <use xlink:href="#meb343c8f02" x="33.792719" y="132.886484" style="stroke: #000000; stroke-width: 0.5"/>
      </g>
     </g>
     <g id="line2d_34">
      <g>
       <use xlink:href="#mef7dd1dc73" x="175.515039" y="132.886484" style="stroke: #000000; stroke-width: 0.5"/>
      </g>
     </g>
    </g>
    <g id="ytick_7">
     <g id="line2d_35">
      <g>
       <use xlink:href="#meb343c8f02" x="33.792719" y="125.699965" style="stroke: #000000; stroke-width: 0.5"/>
      </g>
     </g>
     <g id="line2d_36">
      <g>
       <use xlink:href="#mef7dd1dc73" x="175.515039" y="125.699965" style="stroke: #000000; stroke-width: 0.5"/>
      </g>
     </g>
    </g>
    <g id="ytick_8">
     <g id="line2d_37">
      <g>
       <use xlink:href="#meb343c8f02" x="33.792719" y="118.513446" style="stroke: #000000; stroke-width: 0.5"/>
      </g>
     </g>
     <g id="line2d_38">
      <g>
       <use xlink:href="#mef7dd1dc73" x="175.515039" y="118.513446" style="stroke: #000000; stroke-width: 0.5"/>
      </g>
     </g>
    </g>
    <g id="ytick_9">
     <g id="line2d_39">
      <g>
       <use xlink:href="#meb343c8f02" x="33.792719" y="104.140408" style="stroke: #000000; stroke-width: 0.5"/>
      </g>
     </g>
     <g id="line2d_40">
      <g>
       <use xlink:href="#mef7dd1dc73" x="175.515039" y="104.140408" style="stroke: #000000; stroke-width: 0.5"/>
      </g>
     </g>
    </g>
    <g id="ytick_10">
     <g id="line2d_41">
      <g>
       <use xlink:href="#meb343c8f02" x="33.792719" y="96.953889" style="stroke: #000000; stroke-width: 0.5"/>
      </g>
     </g>
     <g id="line2d_42">
      <g>
       <use xlink:href="#mef7dd1dc73" x="175.515039" y="96.953889" style="stroke: #000000; stroke-width: 0.5"/>
      </g>
     </g>
    </g>
    <g id="ytick_11">
     <g id="line2d_43">
      <g>
       <use xlink:href="#meb343c8f02" x="33.792719" y="89.76737" style="stroke: #000000; stroke-width: 0.5"/>
      </g>
     </g>
     <g id="line2d_44">
      <g>
       <use xlink:href="#mef7dd1dc73" x="175.515039" y="89.76737" style="stroke: #000000; stroke-width: 0.5"/>
      </g>
     </g>
    </g>
    <g id="ytick_12">
     <g id="line2d_45">
      <g>
       <use xlink:href="#meb343c8f02" x="33.792719" y="82.580851" style="stroke: #000000; stroke-width: 0.5"/>
      </g>
     </g>
     <g id="line2d_46">
      <g>
       <use xlink:href="#mef7dd1dc73" x="175.515039" y="82.580851" style="stroke: #000000; stroke-width: 0.5"/>
      </g>
     </g>
    </g>
    <g id="ytick_13">
     <g id="line2d_47">
      <g>
       <use xlink:href="#meb343c8f02" x="33.792719" y="68.207813" style="stroke: #000000; stroke-width: 0.5"/>
      </g>
     </g>
     <g id="line2d_48">
      <g>
       <use xlink:href="#mef7dd1dc73" x="175.515039" y="68.207813" style="stroke: #000000; stroke-width: 0.5"/>
      </g>
     </g>
    </g>
    <g id="ytick_14">
     <g id="line2d_49">
      <g>
       <use xlink:href="#meb343c8f02" x="33.792719" y="61.021294" style="stroke: #000000; stroke-width: 0.5"/>
      </g>
     </g>
     <g id="line2d_50">
      <g>
       <use xlink:href="#mef7dd1dc73" x="175.515039" y="61.021294" style="stroke: #000000; stroke-width: 0.5"/>
      </g>
     </g>
    </g>
    <g id="ytick_15">
     <g id="line2d_51">
      <g>
       <use xlink:href="#meb343c8f02" x="33.792719" y="53.834775" style="stroke: #000000; stroke-width: 0.5"/>
      </g>
     </g>
     <g id="line2d_52">
      <g>
       <use xlink:href="#mef7dd1dc73" x="175.515039" y="53.834775" style="stroke: #000000; stroke-width: 0.5"/>
      </g>
     </g>
    </g>
    <g id="ytick_16">
     <g id="line2d_53">
      <g>
       <use xlink:href="#meb343c8f02" x="33.792719" y="46.648256" style="stroke: #000000; stroke-width: 0.5"/>
      </g>
     </g>
     <g id="line2d_54">
      <g>
       <use xlink:href="#mef7dd1dc73" x="175.515039" y="46.648256" style="stroke: #000000; stroke-width: 0.5"/>
      </g>
     </g>
    </g>
    <g id="ytick_17">
     <g id="line2d_55">
      <g>
       <use xlink:href="#meb343c8f02" x="33.792719" y="32.275218" style="stroke: #000000; stroke-width: 0.5"/>
      </g>
     </g>
     <g id="line2d_56">
      <g>
       <use xlink:href="#mef7dd1dc73" x="175.515039" y="32.275218" style="stroke: #000000; stroke-width: 0.5"/>
      </g>
     </g>
    </g>
    <g id="ytick_18">
     <g id="line2d_57">
      <g>
       <use xlink:href="#meb343c8f02" x="33.792719" y="25.088699" style="stroke: #000000; stroke-width: 0.5"/>
      </g>
     </g>
     <g id="line2d_58">
      <g>
       <use xlink:href="#mef7dd1dc73" x="175.515039" y="25.088699" style="stroke: #000000; stroke-width: 0.5"/>
      </g>
     </g>
    </g>
    <g id="ytick_19">
     <g id="line2d_59">
      <g>
       <use xlink:href="#meb343c8f02" x="33.792719" y="17.90218" style="stroke: #000000; stroke-width: 0.5"/>
      </g>
     </g>
     <g id="line2d_60">
      <g>
       <use xlink:href="#mef7dd1dc73" x="175.515039" y="17.90218" style="stroke: #000000; stroke-width: 0.5"/>
      </g>
     </g>
    </g>
    <g id="text_6">
     <!-- $g(r)$ -->
     <g transform="translate(11.07198 91.395612) rotate(-90) scale(0.1 -0.1)">
      <defs>
       <path id="CMMI12-67" d="M 2163 811 
C 2138 709 2125 683 2042 588 
C 1779 249 1510 128 1312 128 
C 1101 128 902 294 902 734 
C 902 1073 1094 1788 1235 2076 
C 1421 2433 1709 2689 1978 2689 
C 2400 2689 2483 2165 2483 2127 
L 2464 2037 
L 2163 811 
z
M 2560 2395 
C 2477 2580 2298 2816 1978 2816 
C 1280 2816 486 1941 486 990 
C 486 326 890 0 1299 0 
C 1638 0 1939 268 2054 396 
L 1914 -171 
C 1824 -516 1786 -674 1555 -894 
C 1293 -1152 1050 -1152 909 -1152 
C 717 -1152 557 -1139 397 -1089 
C 602 -1033 653 -858 653 -789 
C 653 -689 576 -588 435 -588 
C 282 -588 115 -714 115 -922 
C 115 -1180 378 -1280 922 -1280 
C 1747 -1280 2176 -753 2259 -410 
L 2970 2435 
C 2989 2511 2989 2524 2989 2536 
C 2989 2625 2918 2695 2822 2695 
C 2669 2695 2579 2567 2560 2395 
z
" transform="scale(0.015625)"/>
       <path id="CMR17-28" d="M 1958 -1561 
C 1958 -1555 1958 -1542 1939 -1523 
C 1645 -1224 858 -407 858 1581 
C 858 3569 1632 4379 1946 4697 
C 1946 4704 1958 4717 1958 4736 
C 1958 4755 1939 4768 1914 4768 
C 1843 4768 1299 4296 986 3594 
C 666 2887 576 2199 576 1588 
C 576 1128 621 351 1005 -471 
C 1312 -1135 1837 -1600 1914 -1600 
C 1946 -1600 1958 -1587 1958 -1561 
z
" transform="scale(0.015625)"/>
       <path id="CMR17-29" d="M 1683 1581 
C 1683 2040 1638 2817 1254 3639 
C 947 4303 422 4768 346 4768 
C 326 4768 301 4761 301 4729 
C 301 4717 307 4710 314 4697 
C 621 4378 1402 3568 1402 1584 
C 1402 -407 627 -1217 314 -1537 
C 307 -1549 301 -1556 301 -1568 
C 301 -1600 326 -1600 346 -1600 
C 416 -1600 960 -1128 1274 -426 
C 1594 281 1683 969 1683 1581 
z
" transform="scale(0.015625)"/>
      </defs>
      <use xlink:href="#CMMI12-67" transform="scale(0.996264)"/>
      <use xlink:href="#CMR17-28" transform="translate(50.285489 0) scale(0.996264)"/>
      <use xlink:href="#CMMI12-72" transform="translate(85.566257 0) scale(0.996264)"/>
      <use xlink:href="#CMR17-29" transform="translate(132.236869 0) scale(0.996264)"/>
     </g>
    </g>
   </g>
   <g id="line2d_61">
    <path d="M 33.794687 147.259522 
L 37.609745 147.148884 
L 38.372757 146.878385 
L 39.135768 146.338447 
L 39.89878 145.476299 
L 40.661791 144.281983 
L 41.67914 142.213644 
L 42.823657 139.353627 
L 44.476849 134.550129 
L 52.234132 111.039616 
L 54.26883 105.946002 
L 56.303527 101.452615 
L 58.211056 97.765365 
L 60.118584 94.55031 
L 62.026113 91.7643 
L 63.933642 89.361818 
L 65.841171 87.298087 
L 67.875868 85.422595 
L 69.910565 83.837521 
L 72.072431 82.424708 
L 74.361466 81.185541 
L 76.904838 80.064993 
L 79.702546 79.084771 
L 82.754592 78.253609 
L 86.315313 77.524253 
L 90.384708 76.923975 
L 95.344282 76.426469 
L 101.575543 76.036531 
L 109.968669 75.7486 
L 122.685528 75.556951 
L 146.974728 75.452422 
L 175.587659 75.424084 
L 175.587659 75.424084 
" clip-path="url(#pbcfe4bd119)" style="fill: none; stroke-dasharray: 3.7,1.6; stroke-dashoffset: 0; stroke: #0c5da5"/>
   </g>
   <g id="line2d_62">
    <path d="M 33.794687 147.259522 
L 37.101071 147.167247 
L 37.736914 146.906404 
L 38.245588 146.481164 
L 38.881431 145.598369 
L 39.517274 144.285691 
L 40.280285 142.156831 
L 41.297634 138.524095 
L 42.696488 132.542367 
L 47.528895 111.089711 
L 49.182086 105.031915 
L 50.708109 100.213539 
L 52.234132 96.10095 
L 53.760155 92.626808 
L 55.286178 89.712899 
L 56.812201 87.280952 
L 58.338224 85.258127 
L 59.864247 83.579408 
L 61.517439 82.083744 
L 63.297799 80.780852 
L 65.205328 79.669723 
L 67.240025 78.740919 
L 69.52906 77.940255 
L 72.1996 77.25063 
L 75.378815 76.674837 
L 79.193872 76.220506 
L 84.153447 75.867964 
L 91.02055 75.619965 
L 102.084217 75.469331 
L 127.136428 75.40668 
L 175.587659 75.397716 
L 175.587659 75.397716 
" clip-path="url(#pbcfe4bd119)" style="fill: none; stroke-dasharray: 1,1.65; stroke-dashoffset: 0; stroke: #00b945"/>
   </g>
   <g id="patch_3">
    <path d="M 33.792719 147.259522 
L 33.792719 17.90218 
" style="fill: none; stroke: #000000; stroke-width: 0.5; stroke-linejoin: miter; stroke-linecap: square"/>
   </g>
   <g id="patch_4">
    <path d="M 175.515039 147.259522 
L 175.515039 17.90218 
" style="fill: none; stroke: #000000; stroke-width: 0.5; stroke-linejoin: miter; stroke-linecap: square"/>
   </g>
   <g id="patch_5">
    <path d="M 33.792719 147.259522 
L 175.515039 147.259522 
" style="fill: none; stroke: #000000; stroke-width: 0.5; stroke-linejoin: miter; stroke-linecap: square"/>
   </g>
   <g id="patch_6">
    <path d="M 33.792719 17.90218 
L 175.515039 17.90218 
" style="fill: none; stroke: #000000; stroke-width: 0.5; stroke-linejoin: miter; stroke-linecap: square"/>
   </g>
   <g id="text_7">
    <!-- $\Gamma =$ 1 -->
    <g transform="translate(89.906562 11.90218) scale(0.12 -0.12)">
     <defs>
      <path id="CMR17-0" d="M 3315 4352 
L 326 4352 
L 326 4186 
C 768 4186 838 4186 838 3898 
L 838 448 
C 838 160 768 160 326 160 
L 326 0 
C 512 0 870 0 1069 0 
C 1331 0 1638 0 1901 0 
L 1901 160 
L 1760 160 
C 1274 160 1261 224 1261 455 
L 1261 3936 
C 1261 4154 1274 4186 1530 4186 
L 2234 4186 
C 3206 4186 3258 3738 3354 2938 
L 3469 2938 
L 3315 4352 
z
" transform="scale(0.015625)"/>
      <path id="CMR17-3d" d="M 4115 2017 
C 4211 2017 4307 2017 4307 2125 
C 4307 2240 4198 2240 4090 2240 
L 512 2240 
C 403 2240 294 2240 294 2125 
C 294 2017 390 2017 486 2017 
L 4115 2017 
z
M 4090 896 
C 4198 896 4307 896 4307 1011 
C 4307 1119 4211 1119 4115 1119 
L 486 1119 
C 390 1119 294 1119 294 1011 
C 294 896 403 896 512 896 
L 4090 896 
z
" transform="scale(0.015625)"/>
     </defs>
     <use xlink:href="#CMR17-0" transform="scale(0.996264)"/>
     <use xlink:href="#CMR17-3d" transform="translate(85.055417 0) scale(0.996264)"/>
     <use xlink:href="#CMR17-31" transform="translate(186.846171 0) scale(0.996264)"/>
    </g>
   </g>
   <g id="legend_1">
    <g id="line2d_63">
     <path d="M 99.494603 30.40218 
L 109.494603 30.40218 
L 119.494603 30.40218 
" style="fill: none; stroke-dasharray: 3.7,1.6; stroke-dashoffset: 0; stroke: #0c5da5"/>
    </g>
    <g id="text_8">
     <!-- Coulomb -->
     <g transform="translate(127.494603 33.90218) scale(0.1 -0.1)">
      <defs>
       <path id="CMR17-43" d="M 3974 4289 
C 3974 4403 3968 4410 3930 4410 
C 3904 4410 3898 4403 3853 4327 
L 3571 3792 
C 3258 4187 2874 4416 2381 4416 
C 1286 4416 294 3456 294 2148 
C 294 826 1286 -128 2387 -128 
C 3366 -128 3974 730 3974 1461 
C 3974 1524 3974 1550 3917 1550 
C 3866 1550 3866 1531 3859 1474 
C 3808 585 3168 38 2477 38 
C 1824 38 781 495 781 2147 
C 781 3805 1843 4250 2464 4250 
C 3187 4250 3712 3628 3834 2745 
C 3846 2668 3846 2655 3904 2655 
C 3974 2655 3974 2668 3974 2783 
L 3974 4289 
z
" transform="scale(0.015625)"/>
       <path id="CMR17-6f" d="M 2758 1356 
C 2758 2176 2163 2816 1466 2816 
C 768 2816 173 2176 173 1356 
C 173 551 768 -64 1466 -64 
C 2163 -64 2758 551 2758 1356 
z
M 1466 51 
C 1165 51 909 230 762 480 
C 602 767 582 1126 582 1408 
C 582 1677 595 2010 762 2298 
C 890 2509 1139 2714 1466 2714 
C 1754 2714 1997 2554 2150 2330 
C 2349 2029 2349 1607 2349 1408 
C 2349 1158 2336 775 2163 467 
C 1984 173 1709 51 1466 51 
z
" transform="scale(0.015625)"/>
       <path id="CMR17-75" d="M 1882 2693 
L 1882 2528 
C 2259 2528 2317 2489 2317 2186 
L 2317 1032 
C 2317 500 2029 38 1555 38 
C 1030 38 986 348 986 678 
L 986 2763 
L 211 2693 
L 211 2528 
C 467 2528 640 2528 646 2274 
L 646 1058 
C 646 633 646 361 813 183 
C 896 101 1056 -64 1517 -64 
C 2061 -64 2272 377 2323 506 
L 2330 506 
L 2330 -63 
L 3091 -63 
L 3091 128 
C 2714 128 2656 166 2656 473 
L 2656 2763 
L 1882 2693 
z
" transform="scale(0.015625)"/>
       <path id="CMR17-6c" d="M 979 4396 
L 218 4326 
L 218 4160 
C 595 4160 653 4122 653 3817 
L 653 426 
C 653 184 627 153 218 153 
L 218 -13 
C 371 0 653 0 813 0 
C 979 0 1261 0 1414 -13 
L 1414 153 
C 1005 153 979 178 979 426 
L 979 4396 
z
" transform="scale(0.015625)"/>
       <path id="CMR17-6d" d="M 4326 1933 
C 4326 2252 4269 2790 3507 2790 
C 3072 2790 2771 2496 2656 2151 
L 2650 2151 
C 2573 2676 2195 2790 1837 2790 
C 1331 2790 1069 2400 973 2144 
L 966 2144 
L 966 2790 
L 211 2720 
L 211 2554 
C 589 2554 646 2515 646 2208 
L 646 428 
C 646 184 621 153 211 153 
L 211 -13 
C 365 0 646 0 813 0 
C 979 0 1267 0 1421 -13 
L 1421 153 
C 1011 153 986 178 986 428 
L 986 1658 
C 986 2247 1344 2688 1792 2688 
C 2266 2688 2317 2266 2317 1958 
L 2317 428 
C 2317 184 2291 153 1882 153 
L 1882 -13 
C 2035 0 2317 0 2483 0 
C 2650 0 2938 0 3091 -13 
L 3091 153 
C 2682 153 2656 178 2656 428 
L 2656 1658 
C 2656 2247 3014 2688 3462 2688 
C 3936 2688 3987 2266 3987 1958 
L 3987 428 
C 3987 184 3962 153 3552 153 
L 3552 -13 
C 3706 0 3987 0 4154 0 
C 4320 0 4608 0 4762 -13 
L 4762 153 
C 4352 153 4326 178 4326 428 
L 4326 1933 
z
" transform="scale(0.015625)"/>
       <path id="CMR17-62" d="M 960 4396 
L 198 4326 
L 198 4160 
C 576 4160 634 4122 634 3817 
L 634 -13 
L 749 -13 
L 934 441 
C 1120 141 1395 -64 1766 -64 
C 2406 -64 3053 500 3053 1370 
C 3053 2188 2477 2790 1830 2790 
C 1434 2790 1152 2579 960 2330 
L 960 4396 
z
M 973 2004 
C 973 2118 973 2138 1062 2272 
C 1312 2657 1670 2688 1792 2688 
C 1984 2688 2643 2585 2643 1376 
C 2643 108 1888 38 1734 38 
C 1536 38 1248 114 1043 486 
C 973 608 973 621 973 735 
L 973 2004 
z
" transform="scale(0.015625)"/>
      </defs>
      <use xlink:href="#CMR17-43" transform="scale(0.996264)"/>
      <use xlink:href="#CMR17-6f" transform="translate(66.509881 0) scale(0.996264)"/>
      <use xlink:href="#CMR17-75" transform="translate(112.200358 0) scale(0.996264)"/>
      <use xlink:href="#CMR17-6c" transform="translate(163.095727 0) scale(0.996264)"/>
      <use xlink:href="#CMR17-6f" transform="translate(187.966786 0) scale(0.996264)"/>
      <use xlink:href="#CMR17-6d" transform="translate(233.657263 0) scale(0.996264)"/>
      <use xlink:href="#CMR17-62" transform="translate(307.974399 0) scale(0.996264)"/>
     </g>
    </g>
    <g id="line2d_64">
     <path d="M 99.494603 44.339358 
L 109.494603 44.339358 
L 119.494603 44.339358 
" style="fill: none; stroke-dasharray: 1,1.65; stroke-dashoffset: 0; stroke: #00b945"/>
    </g>
    <g id="text_9">
     <!-- no $V_l$ -->
     <g transform="translate(127.494603 47.839358) scale(0.1 -0.1)">
      <defs>
       <path id="CMR17-6e" d="M 2656 1933 
C 2656 2259 2592 2790 1837 2790 
C 1331 2790 1069 2400 973 2144 
L 966 2144 
L 966 2790 
L 211 2720 
L 211 2554 
C 589 2554 646 2515 646 2208 
L 646 428 
C 646 184 621 153 211 153 
L 211 -13 
C 365 0 646 0 813 0 
C 979 0 1267 0 1421 -13 
L 1421 153 
C 1011 153 986 178 986 428 
L 986 1658 
C 986 2247 1344 2688 1792 2688 
C 2266 2688 2317 2266 2317 1958 
L 2317 428 
C 2317 184 2291 153 1882 153 
L 1882 -13 
C 2035 0 2317 0 2483 0 
C 2650 0 2938 0 3091 -13 
L 3091 153 
C 2682 153 2656 178 2656 428 
L 2656 1933 
z
" transform="scale(0.015625)"/>
       <path id="CMMI12-56" d="M 3962 3640 
C 4179 3984 4378 4136 4704 4162 
C 4768 4168 4819 4168 4819 4282 
C 4819 4308 4806 4346 4749 4346 
C 4634 4346 4358 4346 4243 4346 
C 4058 4346 3866 4346 3686 4346 
C 3635 4346 3571 4346 3571 4226 
C 3571 4168 3629 4162 3654 4162 
C 3891 4143 3917 4029 3917 3952 
C 3917 3857 3827 3710 3821 3704 
L 1811 540 
L 1363 3969 
C 1363 4160 1696 4160 1766 4160 
C 1862 4160 1920 4160 1920 4282 
C 1920 4346 1850 4346 1830 4346 
C 1722 4346 1594 4346 1485 4346 
L 1126 4346 
C 659 4346 467 4346 461 4346 
C 422 4346 346 4346 346 4230 
C 346 4160 390 4160 493 4160 
C 819 4160 838 4102 858 3944 
L 1370 24 
C 1389 -109 1389 -128 1478 -128 
C 1555 -128 1587 -109 1651 -8 
L 3962 3640 
z
" transform="scale(0.015625)"/>
       <path id="CMMI12-6c" d="M 1626 4257 
C 1632 4282 1645 4320 1645 4352 
C 1645 4416 1581 4416 1568 4416 
C 1562 4416 1331 4393 1216 4377 
C 1107 4377 1011 4358 896 4358 
C 742 4345 698 4339 698 4224 
C 698 4160 762 4160 826 4160 
C 1152 4160 1152 4102 1152 4039 
C 1152 4014 1152 4001 1120 3887 
L 326 731 
C 307 661 294 610 294 509 
C 294 191 531 -64 858 -64 
C 1069 -64 1210 76 1312 274 
C 1421 483 1510 884 1510 909 
C 1510 941 1485 967 1446 967 
C 1389 967 1382 935 1357 840 
C 1242 401 1126 64 870 64 
C 678 64 678 267 678 357 
C 678 382 678 515 723 694 
L 1626 4257 
z
" transform="scale(0.015625)"/>
      </defs>
      <use xlink:href="#CMR17-6e" transform="scale(0.996264)"/>
      <use xlink:href="#CMR17-6f" transform="translate(50.89537 0) scale(0.996264)"/>
      <use xlink:href="#CMMI12-56" transform="translate(126.661813 0) scale(0.996264)"/>
      <use xlink:href="#CMMI12-6c" transform="translate(183.531392 -14.943915) scale(0.697382)"/>
     </g>
    </g>
   </g>
  </g>
  <g id="axes_2">
   <g id="patch_7">
    <path d="M 200.27768 147.259522 
L 342 147.259522 
L 342 17.90218 
L 200.27768 17.90218 
z
" style="fill: #ffffff"/>
   </g>
   <g id="matplotlib.axis_3">
    <g id="xtick_12">
     <g id="line2d_65">
      <g>
       <use xlink:href="#m8d554a0b49" x="200.27768" y="147.259522" style="stroke: #000000; stroke-width: 0.5"/>
      </g>
     </g>
     <g id="line2d_66">
      <g>
       <use xlink:href="#m767331724b" x="200.27768" y="17.90218" style="stroke: #000000; stroke-width: 0.5"/>
      </g>
     </g>
    </g>
    <g id="xtick_13">
     <g id="line2d_67">
      <g>
       <use xlink:href="#m8d554a0b49" x="256.966608" y="147.259522" style="stroke: #000000; stroke-width: 0.5"/>
      </g>
     </g>
     <g id="line2d_68">
      <g>
       <use xlink:href="#m767331724b" x="256.966608" y="17.90218" style="stroke: #000000; stroke-width: 0.5"/>
      </g>
     </g>
    </g>
    <g id="xtick_14">
     <g id="line2d_69">
      <g>
       <use xlink:href="#m8d554a0b49" x="313.655536" y="147.259522" style="stroke: #000000; stroke-width: 0.5"/>
      </g>
     </g>
     <g id="line2d_70">
      <g>
       <use xlink:href="#m767331724b" x="313.655536" y="17.90218" style="stroke: #000000; stroke-width: 0.5"/>
      </g>
     </g>
    </g>
    <g id="xtick_15">
     <g id="line2d_71">
      <g>
       <use xlink:href="#m749a775864" x="214.449912" y="147.259522" style="stroke: #000000; stroke-width: 0.5"/>
      </g>
     </g>
     <g id="line2d_72">
      <g>
       <use xlink:href="#m401312c3b6" x="214.449912" y="17.90218" style="stroke: #000000; stroke-width: 0.5"/>
      </g>
     </g>
    </g>
    <g id="xtick_16">
     <g id="line2d_73">
      <g>
       <use xlink:href="#m749a775864" x="228.622144" y="147.259522" style="stroke: #000000; stroke-width: 0.5"/>
      </g>
     </g>
     <g id="line2d_74">
      <g>
       <use xlink:href="#m401312c3b6" x="228.622144" y="17.90218" style="stroke: #000000; stroke-width: 0.5"/>
      </g>
     </g>
    </g>
    <g id="xtick_17">
     <g id="line2d_75">
      <g>
       <use xlink:href="#m749a775864" x="242.794376" y="147.259522" style="stroke: #000000; stroke-width: 0.5"/>
      </g>
     </g>
     <g id="line2d_76">
      <g>
       <use xlink:href="#m401312c3b6" x="242.794376" y="17.90218" style="stroke: #000000; stroke-width: 0.5"/>
      </g>
     </g>
    </g>
    <g id="xtick_18">
     <g id="line2d_77">
      <g>
       <use xlink:href="#m749a775864" x="271.13884" y="147.259522" style="stroke: #000000; stroke-width: 0.5"/>
      </g>
     </g>
     <g id="line2d_78">
      <g>
       <use xlink:href="#m401312c3b6" x="271.13884" y="17.90218" style="stroke: #000000; stroke-width: 0.5"/>
      </g>
     </g>
    </g>
    <g id="xtick_19">
     <g id="line2d_79">
      <g>
       <use xlink:href="#m749a775864" x="285.311072" y="147.259522" style="stroke: #000000; stroke-width: 0.5"/>
      </g>
     </g>
     <g id="line2d_80">
      <g>
       <use xlink:href="#m401312c3b6" x="285.311072" y="17.90218" style="stroke: #000000; stroke-width: 0.5"/>
      </g>
     </g>
    </g>
    <g id="xtick_20">
     <g id="line2d_81">
      <g>
       <use xlink:href="#m749a775864" x="299.483304" y="147.259522" style="stroke: #000000; stroke-width: 0.5"/>
      </g>
     </g>
     <g id="line2d_82">
      <g>
       <use xlink:href="#m401312c3b6" x="299.483304" y="17.90218" style="stroke: #000000; stroke-width: 0.5"/>
      </g>
     </g>
    </g>
    <g id="xtick_21">
     <g id="line2d_83">
      <g>
       <use xlink:href="#m749a775864" x="327.827768" y="147.259522" style="stroke: #000000; stroke-width: 0.5"/>
      </g>
     </g>
     <g id="line2d_84">
      <g>
       <use xlink:href="#m401312c3b6" x="327.827768" y="17.90218" style="stroke: #000000; stroke-width: 0.5"/>
      </g>
     </g>
    </g>
    <g id="xtick_22">
     <g id="line2d_85">
      <g>
       <use xlink:href="#m749a775864" x="342" y="147.259522" style="stroke: #000000; stroke-width: 0.5"/>
      </g>
     </g>
     <g id="line2d_86">
      <g>
       <use xlink:href="#m401312c3b6" x="342" y="17.90218" style="stroke: #000000; stroke-width: 0.5"/>
      </g>
     </g>
    </g>
    <g id="text_10">
     <!-- $r/d_i$ -->
     <g transform="translate(262.260368 158.731502) scale(0.1 -0.1)">
      <use xlink:href="#CMMI12-72" transform="scale(0.996264)"/>
      <use xlink:href="#CMMI12-3d" transform="translate(46.670612 0) scale(0.996264)"/>
      <use xlink:href="#CMMI12-64" transform="translate(95.445531 0) scale(0.996264)"/>
      <use xlink:href="#CMMI12-69" transform="translate(146.134628 -14.943915) scale(0.697382)"/>
     </g>
    </g>
   </g>
   <g id="matplotlib.axis_4">
    <g id="ytick_20">
     <g id="line2d_87">
      <g>
       <use xlink:href="#mc8c678ff5f" x="200.27768" y="147.259522" style="stroke: #000000; stroke-width: 0.5"/>
      </g>
     </g>
     <g id="line2d_88">
      <g>
       <use xlink:href="#m6865f52adb" x="342" y="147.259522" style="stroke: #000000; stroke-width: 0.5"/>
      </g>
     </g>
    </g>
    <g id="ytick_21">
     <g id="line2d_89">
      <g>
       <use xlink:href="#mc8c678ff5f" x="200.27768" y="111.326927" style="stroke: #000000; stroke-width: 0.5"/>
      </g>
     </g>
     <g id="line2d_90">
      <g>
       <use xlink:href="#m6865f52adb" x="342" y="111.326927" style="stroke: #000000; stroke-width: 0.5"/>
      </g>
     </g>
    </g>
    <g id="ytick_22">
     <g id="line2d_91">
      <g>
       <use xlink:href="#mc8c678ff5f" x="200.27768" y="75.394332" style="stroke: #000000; stroke-width: 0.5"/>
      </g>
     </g>
     <g id="line2d_92">
      <g>
       <use xlink:href="#m6865f52adb" x="342" y="75.394332" style="stroke: #000000; stroke-width: 0.5"/>
      </g>
     </g>
    </g>
    <g id="ytick_23">
     <g id="line2d_93">
      <g>
       <use xlink:href="#mc8c678ff5f" x="200.27768" y="39.461737" style="stroke: #000000; stroke-width: 0.5"/>
      </g>
     </g>
     <g id="line2d_94">
      <g>
       <use xlink:href="#m6865f52adb" x="342" y="39.461737" style="stroke: #000000; stroke-width: 0.5"/>
      </g>
     </g>
    </g>
    <g id="ytick_24">
     <g id="line2d_95">
      <g>
       <use xlink:href="#meb343c8f02" x="200.27768" y="140.073003" style="stroke: #000000; stroke-width: 0.5"/>
      </g>
     </g>
     <g id="line2d_96">
      <g>
       <use xlink:href="#mef7dd1dc73" x="342" y="140.073003" style="stroke: #000000; stroke-width: 0.5"/>
      </g>
     </g>
    </g>
    <g id="ytick_25">
     <g id="line2d_97">
      <g>
       <use xlink:href="#meb343c8f02" x="200.27768" y="132.886484" style="stroke: #000000; stroke-width: 0.5"/>
      </g>
     </g>
     <g id="line2d_98">
      <g>
       <use xlink:href="#mef7dd1dc73" x="342" y="132.886484" style="stroke: #000000; stroke-width: 0.5"/>
      </g>
     </g>
    </g>
    <g id="ytick_26">
     <g id="line2d_99">
      <g>
       <use xlink:href="#meb343c8f02" x="200.27768" y="125.699965" style="stroke: #000000; stroke-width: 0.5"/>
      </g>
     </g>
     <g id="line2d_100">
      <g>
       <use xlink:href="#mef7dd1dc73" x="342" y="125.699965" style="stroke: #000000; stroke-width: 0.5"/>
      </g>
     </g>
    </g>
    <g id="ytick_27">
     <g id="line2d_101">
      <g>
       <use xlink:href="#meb343c8f02" x="200.27768" y="118.513446" style="stroke: #000000; stroke-width: 0.5"/>
      </g>
     </g>
     <g id="line2d_102">
      <g>
       <use xlink:href="#mef7dd1dc73" x="342" y="118.513446" style="stroke: #000000; stroke-width: 0.5"/>
      </g>
     </g>
    </g>
    <g id="ytick_28">
     <g id="line2d_103">
      <g>
       <use xlink:href="#meb343c8f02" x="200.27768" y="104.140408" style="stroke: #000000; stroke-width: 0.5"/>
      </g>
     </g>
     <g id="line2d_104">
      <g>
       <use xlink:href="#mef7dd1dc73" x="342" y="104.140408" style="stroke: #000000; stroke-width: 0.5"/>
      </g>
     </g>
    </g>
    <g id="ytick_29">
     <g id="line2d_105">
      <g>
       <use xlink:href="#meb343c8f02" x="200.27768" y="96.953889" style="stroke: #000000; stroke-width: 0.5"/>
      </g>
     </g>
     <g id="line2d_106">
      <g>
       <use xlink:href="#mef7dd1dc73" x="342" y="96.953889" style="stroke: #000000; stroke-width: 0.5"/>
      </g>
     </g>
    </g>
    <g id="ytick_30">
     <g id="line2d_107">
      <g>
       <use xlink:href="#meb343c8f02" x="200.27768" y="89.76737" style="stroke: #000000; stroke-width: 0.5"/>
      </g>
     </g>
     <g id="line2d_108">
      <g>
       <use xlink:href="#mef7dd1dc73" x="342" y="89.76737" style="stroke: #000000; stroke-width: 0.5"/>
      </g>
     </g>
    </g>
    <g id="ytick_31">
     <g id="line2d_109">
      <g>
       <use xlink:href="#meb343c8f02" x="200.27768" y="82.580851" style="stroke: #000000; stroke-width: 0.5"/>
      </g>
     </g>
     <g id="line2d_110">
      <g>
       <use xlink:href="#mef7dd1dc73" x="342" y="82.580851" style="stroke: #000000; stroke-width: 0.5"/>
      </g>
     </g>
    </g>
    <g id="ytick_32">
     <g id="line2d_111">
      <g>
       <use xlink:href="#meb343c8f02" x="200.27768" y="68.207813" style="stroke: #000000; stroke-width: 0.5"/>
      </g>
     </g>
     <g id="line2d_112">
      <g>
       <use xlink:href="#mef7dd1dc73" x="342" y="68.207813" style="stroke: #000000; stroke-width: 0.5"/>
      </g>
     </g>
    </g>
    <g id="ytick_33">
     <g id="line2d_113">
      <g>
       <use xlink:href="#meb343c8f02" x="200.27768" y="61.021294" style="stroke: #000000; stroke-width: 0.5"/>
      </g>
     </g>
     <g id="line2d_114">
      <g>
       <use xlink:href="#mef7dd1dc73" x="342" y="61.021294" style="stroke: #000000; stroke-width: 0.5"/>
      </g>
     </g>
    </g>
    <g id="ytick_34">
     <g id="line2d_115">
      <g>
       <use xlink:href="#meb343c8f02" x="200.27768" y="53.834775" style="stroke: #000000; stroke-width: 0.5"/>
      </g>
     </g>
     <g id="line2d_116">
      <g>
       <use xlink:href="#mef7dd1dc73" x="342" y="53.834775" style="stroke: #000000; stroke-width: 0.5"/>
      </g>
     </g>
    </g>
    <g id="ytick_35">
     <g id="line2d_117">
      <g>
       <use xlink:href="#meb343c8f02" x="200.27768" y="46.648256" style="stroke: #000000; stroke-width: 0.5"/>
      </g>
     </g>
     <g id="line2d_118">
      <g>
       <use xlink:href="#mef7dd1dc73" x="342" y="46.648256" style="stroke: #000000; stroke-width: 0.5"/>
      </g>
     </g>
    </g>
    <g id="ytick_36">
     <g id="line2d_119">
      <g>
       <use xlink:href="#meb343c8f02" x="200.27768" y="32.275218" style="stroke: #000000; stroke-width: 0.5"/>
      </g>
     </g>
     <g id="line2d_120">
      <g>
       <use xlink:href="#mef7dd1dc73" x="342" y="32.275218" style="stroke: #000000; stroke-width: 0.5"/>
      </g>
     </g>
    </g>
    <g id="ytick_37">
     <g id="line2d_121">
      <g>
       <use xlink:href="#meb343c8f02" x="200.27768" y="25.088699" style="stroke: #000000; stroke-width: 0.5"/>
      </g>
     </g>
     <g id="line2d_122">
      <g>
       <use xlink:href="#mef7dd1dc73" x="342" y="25.088699" style="stroke: #000000; stroke-width: 0.5"/>
      </g>
     </g>
    </g>
    <g id="ytick_38">
     <g id="line2d_123">
      <g>
       <use xlink:href="#meb343c8f02" x="200.27768" y="17.90218" style="stroke: #000000; stroke-width: 0.5"/>
      </g>
     </g>
     <g id="line2d_124">
      <g>
       <use xlink:href="#mef7dd1dc73" x="342" y="17.90218" style="stroke: #000000; stroke-width: 0.5"/>
      </g>
     </g>
    </g>
    <g id="text_11">
     <!-- $g(r)$ -->
     <g transform="translate(193.78702 91.395612) rotate(-90) scale(0.1 -0.1)">
      <use xlink:href="#CMMI12-67" transform="scale(0.996264)"/>
      <use xlink:href="#CMR17-28" transform="translate(50.285489 0) scale(0.996264)"/>
      <use xlink:href="#CMMI12-72" transform="translate(85.566257 0) scale(0.996264)"/>
      <use xlink:href="#CMR17-29" transform="translate(132.236869 0) scale(0.996264)"/>
     </g>
    </g>
   </g>
   <g id="line2d_125">
    <path d="M 200.297364 147.259522 
L 201.56905 147.259522 
L 202.840735 147.259522 
L 204.112421 147.259522 
L 205.384107 147.259522 
L 206.655793 147.259522 
L 207.927479 147.259522 
L 209.199165 147.259521 
L 210.47085 147.259517 
L 211.742536 147.259434 
L 213.014222 147.2586 
L 214.285908 147.253393 
L 215.557594 147.230786 
L 216.82928 147.15668 
L 218.100966 146.962063 
L 219.372651 146.53442 
L 220.644337 145.72175 
L 221.916023 144.352324 
L 223.187709 142.265164 
L 224.459395 139.343662 
L 225.731081 135.540602 
L 227.002766 130.891431 
L 228.274452 125.509827 
L 229.546138 119.573694 
L 230.817824 113.299744 
L 232.08951 106.920166 
L 233.361196 100.656816 
L 234.632881 94.705842 
L 235.904567 89.223291 
L 237.176253 84.322665 
L 238.447939 80.072068 
L 239.719625 76.500867 
L 240.991311 73.603179 
L 242.262997 71.347808 
L 243.534682 69.683128 
L 244.806368 68.546259 
L 246.078054 67.866666 
L 247.34974 67.572932 
L 248.621426 67.594371 
L 249.893112 67.86534 
L 251.164797 68.325206 
L 252.436483 68.920798 
L 253.708169 69.605359 
L 254.979855 70.339817 
L 256.251541 71.091279 
L 257.523227 71.833656 
L 258.794913 72.546055 
L 260.066598 73.213099 
L 261.338284 73.823411 
L 262.60997 74.369821 
L 263.881656 74.848024 
L 265.153342 75.25675 
L 266.425028 75.596623 
L 267.696713 75.87033 
L 268.968399 76.081654 
L 270.240085 76.235667 
L 271.511771 76.337908 
L 272.783457 76.394596 
L 274.055143 76.411936 
L 275.326828 76.396356 
L 276.598514 76.353922 
L 277.8702 76.290594 
L 279.141886 76.211744 
L 280.413572 76.122425 
L 281.685258 76.026984 
L 282.956944 75.929342 
L 284.228629 75.832682 
L 285.500315 75.739745 
L 286.772001 75.652569 
L 288.043687 75.572797 
L 289.315373 75.501457 
L 290.587059 75.439266 
L 291.858744 75.386442 
L 293.13043 75.342993 
L 294.402116 75.308554 
L 295.673802 75.282648 
L 296.945488 75.264542 
L 298.217174 75.253485 
L 299.488859 75.248565 
L 300.760545 75.248925 
L 302.032231 75.253624 
L 303.303917 75.261825 
L 304.575603 75.272663 
L 305.847289 75.285409 
L 307.118975 75.299336 
L 308.39066 75.313869 
L 309.662346 75.32845 
L 310.934032 75.342674 
L 312.205718 75.356154 
L 313.477404 75.368646 
L 314.74909 75.379923 
L 316.020775 75.389881 
L 317.292461 75.398421 
L 318.564147 75.405551 
L 319.835833 75.411271 
L 321.107519 75.415667 
L 322.379205 75.418806 
L 323.650891 75.420822 
L 324.922576 75.421818 
L 326.194262 75.42195 
L 327.465948 75.421336 
L 328.737634 75.42013 
L 330.00932 75.418446 
L 331.281006 75.416426 
L 332.552691 75.414164 
L 333.824377 75.411781 
L 335.096063 75.409348 
L 336.367749 75.406957 
L 337.639435 75.404654 
L 338.911121 75.402505 
L 340.182806 75.400531 
L 341.454492 75.398774 
L 342.726178 75.397235 
" clip-path="url(#pb16822a66a)" style="fill: none; stroke-dasharray: 3.7,1.6; stroke-dashoffset: 0; stroke: #0c5da5"/>
   </g>
   <g id="line2d_126">
    <path d="M 200.297364 147.259522 
L 201.56905 147.259522 
L 202.840735 147.259522 
L 204.112421 147.259522 
L 205.384107 147.259522 
L 206.655793 147.259522 
L 207.927479 147.259521 
L 209.199165 147.259505 
L 210.47085 147.259055 
L 211.742536 147.253904 
L 213.014222 147.22194 
L 214.285908 147.094512 
L 215.557594 146.728721 
L 216.82928 145.909869 
L 218.100966 144.396459 
L 219.372651 141.988905 
L 220.644337 138.588675 
L 221.916023 134.224596 
L 223.187709 129.042884 
L 224.459395 123.272259 
L 225.731081 117.179976 
L 227.002766 111.031609 
L 228.274452 105.061607 
L 229.546138 99.456389 
L 230.817824 94.348409 
L 232.08951 89.818186 
L 233.361196 85.901139 
L 234.632881 82.596618 
L 235.904567 79.877283 
L 237.176253 77.69771 
L 238.447939 76.001644 
L 239.719625 74.727754 
L 240.991311 73.813922 
L 242.262997 73.200268 
L 243.534682 72.831139 
L 244.806368 72.656278 
L 246.078054 72.631391 
L 247.34974 72.718269 
L 248.621426 72.88462 
L 249.893112 73.103689 
L 251.164797 73.35378 
L 252.436483 73.617698 
L 253.708169 73.882189 
L 254.979855 74.13738 
L 256.251541 74.376254 
L 257.523227 74.594157 
L 258.794913 74.78836 
L 260.066598 74.957662 
L 261.338284 75.10205 
L 262.60997 75.2224 
L 263.881656 75.320226 
L 265.153342 75.397472 
L 266.425028 75.456336 
L 267.696713 75.499132 
L 268.968399 75.528184 
L 270.240085 75.545742 
L 271.511771 75.553921 
L 272.783457 75.55466 
L 274.055143 75.549697 
L 275.326828 75.540556 
L 276.598514 75.528548 
L 277.8702 75.514771 
L 279.141886 75.500126 
L 280.413572 75.485332 
L 281.685258 75.470942 
L 282.956944 75.457364 
L 284.228629 75.444885 
L 285.500315 75.433681 
L 286.772001 75.423845 
L 288.043687 75.4154 
L 289.315373 75.408314 
L 290.587059 75.402517 
L 291.858744 75.397908 
L 293.13043 75.39437 
L 294.402116 75.391774 
L 295.673802 75.389991 
L 296.945488 75.388891 
L 298.217174 75.388353 
L 299.488859 75.388262 
L 300.760545 75.388515 
L 302.032231 75.389023 
L 303.303917 75.389706 
L 304.575603 75.390498 
L 305.847289 75.391344 
L 307.118975 75.392199 
L 308.39066 75.39303 
L 309.662346 75.393812 
L 310.934032 75.394526 
L 312.205718 75.395161 
L 313.477404 75.395711 
L 314.74909 75.396174 
L 316.020775 75.396553 
L 317.292461 75.396852 
L 318.564147 75.397077 
L 319.835833 75.397235 
L 321.107519 75.397334 
L 322.379205 75.397384 
L 323.650891 75.397391 
L 324.922576 75.397364 
L 326.194262 75.39731 
L 327.465948 75.397235 
L 328.737634 75.397146 
L 330.00932 75.397047 
L 331.281006 75.396944 
L 332.552691 75.396838 
L 333.824377 75.396734 
L 335.096063 75.396633 
L 336.367749 75.396537 
L 337.639435 75.396447 
L 338.911121 75.396363 
L 340.182806 75.396287 
L 341.454492 75.396218 
L 342.726178 75.396155 
" clip-path="url(#pb16822a66a)" style="fill: none; stroke-dasharray: 1,1.65; stroke-dashoffset: 0; stroke: #00b945"/>
   </g>
   <g id="patch_8">
    <path d="M 200.27768 147.259522 
L 200.27768 17.90218 
" style="fill: none; stroke: #000000; stroke-width: 0.5; stroke-linejoin: miter; stroke-linecap: square"/>
   </g>
   <g id="patch_9">
    <path d="M 342 147.259522 
L 342 17.90218 
" style="fill: none; stroke: #000000; stroke-width: 0.5; stroke-linejoin: miter; stroke-linecap: square"/>
   </g>
   <g id="patch_10">
    <path d="M 200.27768 147.259522 
L 342 147.259522 
" style="fill: none; stroke: #000000; stroke-width: 0.5; stroke-linejoin: miter; stroke-linecap: square"/>
   </g>
   <g id="patch_11">
    <path d="M 200.27768 17.90218 
L 342 17.90218 
" style="fill: none; stroke: #000000; stroke-width: 0.5; stroke-linejoin: miter; stroke-linecap: square"/>
   </g>
   <g id="text_12">
    <!-- $\Gamma =$ 10 -->
    <g transform="translate(253.465027 11.90218) scale(0.12 -0.12)">
     <use xlink:href="#CMR17-0" transform="scale(0.996264)"/>
     <use xlink:href="#CMR17-3d" transform="translate(85.055417 0) scale(0.996264)"/>
     <use xlink:href="#CMR17-31" transform="translate(186.846171 0) scale(0.996264)"/>
     <use xlink:href="#CMR17-30" transform="translate(232.536648 0) scale(0.996264)"/>
    </g>
   </g>
  </g>
  <g id="axes_3">
   <g id="patch_12">
    <path d="M 33.792719 315.681683 
L 175.515039 315.681683 
L 175.515039 186.324341 
L 33.792719 186.324341 
z
" style="fill: #ffffff"/>
   </g>
   <g id="matplotlib.axis_5">
    <g id="xtick_23">
     <g id="line2d_127">
      <g>
       <use xlink:href="#m8d554a0b49" x="33.792719" y="315.681683" style="stroke: #000000; stroke-width: 0.5"/>
      </g>
     </g>
     <g id="line2d_128">
      <g>
       <use xlink:href="#m767331724b" x="33.792719" y="186.324341" style="stroke: #000000; stroke-width: 0.5"/>
      </g>
     </g>
     <g id="text_13">
      <!-- $\mathdefault{0}$ -->
      <g transform="translate(31.302051 326.100182) scale(0.1 -0.1)">
       <use xlink:href="#CMR17-30" transform="scale(0.996264)"/>
      </g>
     </g>
    </g>
    <g id="xtick_24">
     <g id="line2d_129">
      <g>
       <use xlink:href="#m8d554a0b49" x="90.481647" y="315.681683" style="stroke: #000000; stroke-width: 0.5"/>
      </g>
     </g>
     <g id="line2d_130">
      <g>
       <use xlink:href="#m767331724b" x="90.481647" y="186.324341" style="stroke: #000000; stroke-width: 0.5"/>
      </g>
     </g>
     <g id="text_14">
      <!-- $\mathdefault{2}$ -->
      <g transform="translate(87.99098 326.100182) scale(0.1 -0.1)">
       <defs>
        <path id="CMR17-32" d="M 2669 989 
L 2554 989 
C 2490 536 2438 459 2413 420 
C 2381 369 1920 369 1830 369 
L 602 369 
C 832 619 1280 1072 1824 1597 
C 2214 1967 2669 2402 2669 3035 
C 2669 3790 2067 4224 1395 4224 
C 691 4224 262 3604 262 3030 
C 262 2780 448 2748 525 2748 
C 589 2748 781 2787 781 3010 
C 781 3207 614 3264 525 3264 
C 486 3264 448 3258 422 3245 
C 544 3790 915 4058 1306 4058 
C 1862 4058 2227 3617 2227 3035 
C 2227 2479 1901 2000 1536 1584 
L 262 146 
L 262 0 
L 2515 0 
L 2669 989 
z
" transform="scale(0.015625)"/>
       </defs>
       <use xlink:href="#CMR17-32" transform="scale(0.996264)"/>
      </g>
     </g>
    </g>
    <g id="xtick_25">
     <g id="line2d_131">
      <g>
       <use xlink:href="#m8d554a0b49" x="147.170575" y="315.681683" style="stroke: #000000; stroke-width: 0.5"/>
      </g>
     </g>
     <g id="line2d_132">
      <g>
       <use xlink:href="#m767331724b" x="147.170575" y="186.324341" style="stroke: #000000; stroke-width: 0.5"/>
      </g>
     </g>
     <g id="text_15">
      <!-- $\mathdefault{4}$ -->
      <g transform="translate(144.679908 326.100182) scale(0.1 -0.1)">
       <defs>
        <path id="CMR17-34" d="M 2150 4122 
C 2150 4256 2144 4256 2029 4256 
L 128 1254 
L 128 1088 
L 1779 1088 
L 1779 457 
C 1779 224 1766 160 1318 160 
L 1197 160 
L 1197 0 
C 1402 0 1747 0 1965 0 
C 2182 0 2528 0 2733 0 
L 2733 160 
L 2611 160 
C 2163 160 2150 224 2150 457 
L 2150 1088 
L 2803 1088 
L 2803 1254 
L 2150 1254 
L 2150 4122 
z
M 1798 3703 
L 1798 1254 
L 256 1254 
L 1798 3703 
z
" transform="scale(0.015625)"/>
       </defs>
       <use xlink:href="#CMR17-34" transform="scale(0.996264)"/>
      </g>
     </g>
    </g>
    <g id="xtick_26">
     <g id="line2d_133">
      <g>
       <use xlink:href="#m749a775864" x="47.964951" y="315.681683" style="stroke: #000000; stroke-width: 0.5"/>
      </g>
     </g>
     <g id="line2d_134">
      <g>
       <use xlink:href="#m401312c3b6" x="47.964951" y="186.324341" style="stroke: #000000; stroke-width: 0.5"/>
      </g>
     </g>
    </g>
    <g id="xtick_27">
     <g id="line2d_135">
      <g>
       <use xlink:href="#m749a775864" x="62.137183" y="315.681683" style="stroke: #000000; stroke-width: 0.5"/>
      </g>
     </g>
     <g id="line2d_136">
      <g>
       <use xlink:href="#m401312c3b6" x="62.137183" y="186.324341" style="stroke: #000000; stroke-width: 0.5"/>
      </g>
     </g>
    </g>
    <g id="xtick_28">
     <g id="line2d_137">
      <g>
       <use xlink:href="#m749a775864" x="76.309415" y="315.681683" style="stroke: #000000; stroke-width: 0.5"/>
      </g>
     </g>
     <g id="line2d_138">
      <g>
       <use xlink:href="#m401312c3b6" x="76.309415" y="186.324341" style="stroke: #000000; stroke-width: 0.5"/>
      </g>
     </g>
    </g>
    <g id="xtick_29">
     <g id="line2d_139">
      <g>
       <use xlink:href="#m749a775864" x="104.653879" y="315.681683" style="stroke: #000000; stroke-width: 0.5"/>
      </g>
     </g>
     <g id="line2d_140">
      <g>
       <use xlink:href="#m401312c3b6" x="104.653879" y="186.324341" style="stroke: #000000; stroke-width: 0.5"/>
      </g>
     </g>
    </g>
    <g id="xtick_30">
     <g id="line2d_141">
      <g>
       <use xlink:href="#m749a775864" x="118.826111" y="315.681683" style="stroke: #000000; stroke-width: 0.5"/>
      </g>
     </g>
     <g id="line2d_142">
      <g>
       <use xlink:href="#m401312c3b6" x="118.826111" y="186.324341" style="stroke: #000000; stroke-width: 0.5"/>
      </g>
     </g>
    </g>
    <g id="xtick_31">
     <g id="line2d_143">
      <g>
       <use xlink:href="#m749a775864" x="132.998343" y="315.681683" style="stroke: #000000; stroke-width: 0.5"/>
      </g>
     </g>
     <g id="line2d_144">
      <g>
       <use xlink:href="#m401312c3b6" x="132.998343" y="186.324341" style="stroke: #000000; stroke-width: 0.5"/>
      </g>
     </g>
    </g>
    <g id="xtick_32">
     <g id="line2d_145">
      <g>
       <use xlink:href="#m749a775864" x="161.342807" y="315.681683" style="stroke: #000000; stroke-width: 0.5"/>
      </g>
     </g>
     <g id="line2d_146">
      <g>
       <use xlink:href="#m401312c3b6" x="161.342807" y="186.324341" style="stroke: #000000; stroke-width: 0.5"/>
      </g>
     </g>
    </g>
    <g id="xtick_33">
     <g id="line2d_147">
      <g>
       <use xlink:href="#m749a775864" x="175.515039" y="315.681683" style="stroke: #000000; stroke-width: 0.5"/>
      </g>
     </g>
     <g id="line2d_148">
      <g>
       <use xlink:href="#m401312c3b6" x="175.515039" y="186.324341" style="stroke: #000000; stroke-width: 0.5"/>
      </g>
     </g>
    </g>
    <g id="text_16">
     <!-- $r/d_i$ -->
     <g transform="translate(95.775407 339.50934) scale(0.1 -0.1)">
      <use xlink:href="#CMMI12-72" transform="scale(0.996264)"/>
      <use xlink:href="#CMMI12-3d" transform="translate(46.670612 0) scale(0.996264)"/>
      <use xlink:href="#CMMI12-64" transform="translate(95.445531 0) scale(0.996264)"/>
      <use xlink:href="#CMMI12-69" transform="translate(146.134628 -14.943915) scale(0.697382)"/>
     </g>
    </g>
   </g>
   <g id="matplotlib.axis_6">
    <g id="ytick_39">
     <g id="line2d_149">
      <g>
       <use xlink:href="#mc8c678ff5f" x="33.792719" y="315.681683" style="stroke: #000000; stroke-width: 0.5"/>
      </g>
     </g>
     <g id="line2d_150">
      <g>
       <use xlink:href="#m6865f52adb" x="175.515039" y="315.681683" style="stroke: #000000; stroke-width: 0.5"/>
      </g>
     </g>
     <g id="text_17">
      <!-- $\mathdefault{0.0}$ -->
      <g transform="translate(17.56264 319.140932) scale(0.1 -0.1)">
       <use xlink:href="#CMR17-30" transform="scale(0.996264)"/>
       <use xlink:href="#CMMI12-3a" transform="translate(45.690477 0) scale(0.996264)"/>
       <use xlink:href="#CMR17-30" transform="translate(72.787654 0) scale(0.996264)"/>
      </g>
     </g>
    </g>
    <g id="ytick_40">
     <g id="line2d_151">
      <g>
       <use xlink:href="#mc8c678ff5f" x="33.792719" y="279.749088" style="stroke: #000000; stroke-width: 0.5"/>
      </g>
     </g>
     <g id="line2d_152">
      <g>
       <use xlink:href="#m6865f52adb" x="175.515039" y="279.749088" style="stroke: #000000; stroke-width: 0.5"/>
      </g>
     </g>
     <g id="text_18">
      <!-- $\mathdefault{0.5}$ -->
      <g transform="translate(17.56264 283.208337) scale(0.1 -0.1)">
       <use xlink:href="#CMR17-30" transform="scale(0.996264)"/>
       <use xlink:href="#CMMI12-3a" transform="translate(45.690477 0) scale(0.996264)"/>
       <use xlink:href="#CMR17-35" transform="translate(72.787654 0) scale(0.996264)"/>
      </g>
     </g>
    </g>
    <g id="ytick_41">
     <g id="line2d_153">
      <g>
       <use xlink:href="#mc8c678ff5f" x="33.792719" y="243.816493" style="stroke: #000000; stroke-width: 0.5"/>
      </g>
     </g>
     <g id="line2d_154">
      <g>
       <use xlink:href="#m6865f52adb" x="175.515039" y="243.816493" style="stroke: #000000; stroke-width: 0.5"/>
      </g>
     </g>
     <g id="text_19">
      <!-- $\mathdefault{1.0}$ -->
      <g transform="translate(17.56264 247.275743) scale(0.1 -0.1)">
       <use xlink:href="#CMR17-31" transform="scale(0.996264)"/>
       <use xlink:href="#CMMI12-3a" transform="translate(45.690477 0) scale(0.996264)"/>
       <use xlink:href="#CMR17-30" transform="translate(72.787654 0) scale(0.996264)"/>
      </g>
     </g>
    </g>
    <g id="ytick_42">
     <g id="line2d_155">
      <g>
       <use xlink:href="#mc8c678ff5f" x="33.792719" y="207.883898" style="stroke: #000000; stroke-width: 0.5"/>
      </g>
     </g>
     <g id="line2d_156">
      <g>
       <use xlink:href="#m6865f52adb" x="175.515039" y="207.883898" style="stroke: #000000; stroke-width: 0.5"/>
      </g>
     </g>
     <g id="text_20">
      <!-- $\mathdefault{1.5}$ -->
      <g transform="translate(17.56264 211.343148) scale(0.1 -0.1)">
       <use xlink:href="#CMR17-31" transform="scale(0.996264)"/>
       <use xlink:href="#CMMI12-3a" transform="translate(45.690477 0) scale(0.996264)"/>
       <use xlink:href="#CMR17-35" transform="translate(72.787654 0) scale(0.996264)"/>
      </g>
     </g>
    </g>
    <g id="ytick_43">
     <g id="line2d_157">
      <g>
       <use xlink:href="#meb343c8f02" x="33.792719" y="308.495164" style="stroke: #000000; stroke-width: 0.5"/>
      </g>
     </g>
     <g id="line2d_158">
      <g>
       <use xlink:href="#mef7dd1dc73" x="175.515039" y="308.495164" style="stroke: #000000; stroke-width: 0.5"/>
      </g>
     </g>
    </g>
    <g id="ytick_44">
     <g id="line2d_159">
      <g>
       <use xlink:href="#meb343c8f02" x="33.792719" y="301.308645" style="stroke: #000000; stroke-width: 0.5"/>
      </g>
     </g>
     <g id="line2d_160">
      <g>
       <use xlink:href="#mef7dd1dc73" x="175.515039" y="301.308645" style="stroke: #000000; stroke-width: 0.5"/>
      </g>
     </g>
    </g>
    <g id="ytick_45">
     <g id="line2d_161">
      <g>
       <use xlink:href="#meb343c8f02" x="33.792719" y="294.122126" style="stroke: #000000; stroke-width: 0.5"/>
      </g>
     </g>
     <g id="line2d_162">
      <g>
       <use xlink:href="#mef7dd1dc73" x="175.515039" y="294.122126" style="stroke: #000000; stroke-width: 0.5"/>
      </g>
     </g>
    </g>
    <g id="ytick_46">
     <g id="line2d_163">
      <g>
       <use xlink:href="#meb343c8f02" x="33.792719" y="286.935607" style="stroke: #000000; stroke-width: 0.5"/>
      </g>
     </g>
     <g id="line2d_164">
      <g>
       <use xlink:href="#mef7dd1dc73" x="175.515039" y="286.935607" style="stroke: #000000; stroke-width: 0.5"/>
      </g>
     </g>
    </g>
    <g id="ytick_47">
     <g id="line2d_165">
      <g>
       <use xlink:href="#meb343c8f02" x="33.792719" y="272.562569" style="stroke: #000000; stroke-width: 0.5"/>
      </g>
     </g>
     <g id="line2d_166">
      <g>
       <use xlink:href="#mef7dd1dc73" x="175.515039" y="272.562569" style="stroke: #000000; stroke-width: 0.5"/>
      </g>
     </g>
    </g>
    <g id="ytick_48">
     <g id="line2d_167">
      <g>
       <use xlink:href="#meb343c8f02" x="33.792719" y="265.37605" style="stroke: #000000; stroke-width: 0.5"/>
      </g>
     </g>
     <g id="line2d_168">
      <g>
       <use xlink:href="#mef7dd1dc73" x="175.515039" y="265.37605" style="stroke: #000000; stroke-width: 0.5"/>
      </g>
     </g>
    </g>
    <g id="ytick_49">
     <g id="line2d_169">
      <g>
       <use xlink:href="#meb343c8f02" x="33.792719" y="258.189531" style="stroke: #000000; stroke-width: 0.5"/>
      </g>
     </g>
     <g id="line2d_170">
      <g>
       <use xlink:href="#mef7dd1dc73" x="175.515039" y="258.189531" style="stroke: #000000; stroke-width: 0.5"/>
      </g>
     </g>
    </g>
    <g id="ytick_50">
     <g id="line2d_171">
      <g>
       <use xlink:href="#meb343c8f02" x="33.792719" y="251.003012" style="stroke: #000000; stroke-width: 0.5"/>
      </g>
     </g>
     <g id="line2d_172">
      <g>
       <use xlink:href="#mef7dd1dc73" x="175.515039" y="251.003012" style="stroke: #000000; stroke-width: 0.5"/>
      </g>
     </g>
    </g>
    <g id="ytick_51">
     <g id="line2d_173">
      <g>
       <use xlink:href="#meb343c8f02" x="33.792719" y="236.629974" style="stroke: #000000; stroke-width: 0.5"/>
      </g>
     </g>
     <g id="line2d_174">
      <g>
       <use xlink:href="#mef7dd1dc73" x="175.515039" y="236.629974" style="stroke: #000000; stroke-width: 0.5"/>
      </g>
     </g>
    </g>
    <g id="ytick_52">
     <g id="line2d_175">
      <g>
       <use xlink:href="#meb343c8f02" x="33.792719" y="229.443455" style="stroke: #000000; stroke-width: 0.5"/>
      </g>
     </g>
     <g id="line2d_176">
      <g>
       <use xlink:href="#mef7dd1dc73" x="175.515039" y="229.443455" style="stroke: #000000; stroke-width: 0.5"/>
      </g>
     </g>
    </g>
    <g id="ytick_53">
     <g id="line2d_177">
      <g>
       <use xlink:href="#meb343c8f02" x="33.792719" y="222.256936" style="stroke: #000000; stroke-width: 0.5"/>
      </g>
     </g>
     <g id="line2d_178">
      <g>
       <use xlink:href="#mef7dd1dc73" x="175.515039" y="222.256936" style="stroke: #000000; stroke-width: 0.5"/>
      </g>
     </g>
    </g>
    <g id="ytick_54">
     <g id="line2d_179">
      <g>
       <use xlink:href="#meb343c8f02" x="33.792719" y="215.070417" style="stroke: #000000; stroke-width: 0.5"/>
      </g>
     </g>
     <g id="line2d_180">
      <g>
       <use xlink:href="#mef7dd1dc73" x="175.515039" y="215.070417" style="stroke: #000000; stroke-width: 0.5"/>
      </g>
     </g>
    </g>
    <g id="ytick_55">
     <g id="line2d_181">
      <g>
       <use xlink:href="#meb343c8f02" x="33.792719" y="200.697379" style="stroke: #000000; stroke-width: 0.5"/>
      </g>
     </g>
     <g id="line2d_182">
      <g>
       <use xlink:href="#mef7dd1dc73" x="175.515039" y="200.697379" style="stroke: #000000; stroke-width: 0.5"/>
      </g>
     </g>
    </g>
    <g id="ytick_56">
     <g id="line2d_183">
      <g>
       <use xlink:href="#meb343c8f02" x="33.792719" y="193.51086" style="stroke: #000000; stroke-width: 0.5"/>
      </g>
     </g>
     <g id="line2d_184">
      <g>
       <use xlink:href="#mef7dd1dc73" x="175.515039" y="193.51086" style="stroke: #000000; stroke-width: 0.5"/>
      </g>
     </g>
    </g>
    <g id="ytick_57">
     <g id="line2d_185">
      <g>
       <use xlink:href="#meb343c8f02" x="33.792719" y="186.324341" style="stroke: #000000; stroke-width: 0.5"/>
      </g>
     </g>
     <g id="line2d_186">
      <g>
       <use xlink:href="#mef7dd1dc73" x="175.515039" y="186.324341" style="stroke: #000000; stroke-width: 0.5"/>
      </g>
     </g>
    </g>
    <g id="text_21">
     <!-- $g(r)$ -->
     <g transform="translate(11.07198 259.817773) rotate(-90) scale(0.1 -0.1)">
      <use xlink:href="#CMMI12-67" transform="scale(0.996264)"/>
      <use xlink:href="#CMR17-28" transform="translate(50.285489 0) scale(0.996264)"/>
      <use xlink:href="#CMMI12-72" transform="translate(85.566257 0) scale(0.996264)"/>
      <use xlink:href="#CMR17-29" transform="translate(132.236869 0) scale(0.996264)"/>
     </g>
    </g>
   </g>
   <g id="line2d_187">
    <path d="M 33.851771 315.681683 
L 57.693698 315.581838 
L 58.647375 315.433717 
L 59.601052 315.127225 
L 60.554729 314.552232 
L 61.508406 313.56426 
L 62.462083 311.995481 
L 63.41576 309.675727 
L 64.369437 306.459358 
L 65.323114 302.253376 
L 66.276792 297.038616 
L 67.230469 290.881498 
L 69.137823 276.404981 
L 72.952531 245.944047 
L 73.906208 239.497991 
L 74.859885 233.883444 
L 75.813562 229.187031 
L 76.767239 225.443577 
L 77.720916 222.640756 
L 78.674593 220.730768 
L 79.62827 219.63779 
L 80.581947 219.269693 
L 81.535624 219.524123 
L 82.489302 220.297364 
L 83.442979 221.48755 
L 84.396656 223.000165 
L 86.30401 226.657187 
L 92.026072 238.452198 
L 93.933426 241.724355 
L 95.84078 244.451103 
L 97.748135 246.596782 
L 99.655489 248.161203 
L 100.609166 248.732258 
L 101.562843 249.16871 
L 102.51652 249.476278 
L 103.470197 249.661824 
L 105.377551 249.697782 
L 107.284905 249.346361 
L 109.192259 248.687706 
L 112.05329 247.315908 
L 118.72903 243.835653 
L 120.636384 243.082797 
L 122.543738 242.51244 
L 124.451092 242.134833 
L 126.358446 241.943492 
L 128.2658 241.918807 
L 131.126832 242.130426 
L 134.94154 242.699486 
L 142.570956 243.930042 
L 146.385665 244.295044 
L 150.200373 244.433031 
L 154.968758 244.343456 
L 174.042299 243.604545 
L 175.949653 243.612693 
L 175.949653 243.612693 
" clip-path="url(#pac0fa15cce)" style="fill: none; stroke-dasharray: 3.7,1.6; stroke-dashoffset: 0; stroke: #0c5da5"/>
   </g>
   <g id="line2d_188">
    <path d="M 33.851771 315.681683 
L 53.87899 315.589839 
L 54.832667 315.435332 
L 55.786344 315.10478 
L 56.740021 314.478844 
L 57.693698 313.411988 
L 58.647375 311.752118 
L 59.601052 309.366634 
L 60.554729 306.168072 
L 61.508406 302.132701 
L 62.462083 297.307926 
L 64.369437 285.798872 
L 68.184146 260.717735 
L 70.0915 250.053744 
L 71.045177 245.600888 
L 71.998854 241.793649 
L 72.952531 238.637486 
L 73.906208 236.113325 
L 74.859885 234.183606 
L 75.813562 232.797976 
L 76.767239 231.898283 
L 77.720916 231.422705 
L 78.674593 231.308992 
L 79.62827 231.496856 
L 80.581947 231.929634 
L 81.535624 232.555331 
L 83.442979 234.203856 
L 91.072395 241.649817 
L 92.979749 243.042651 
L 94.887103 244.139678 
L 96.794457 244.940342 
L 98.701812 245.462774 
L 100.609166 245.738331 
L 102.51652 245.806931 
L 105.377551 245.619187 
L 109.192259 245.057695 
L 115.867999 244.001679 
L 119.682707 243.624784 
L 123.497415 243.455415 
L 128.2658 243.465879 
L 152.107727 243.886413 
L 175.949653 243.803342 
L 175.949653 243.803342 
" clip-path="url(#pac0fa15cce)" style="fill: none; stroke-dasharray: 1,1.65; stroke-dashoffset: 0; stroke: #00b945"/>
   </g>
   <g id="patch_13">
    <path d="M 33.792719 315.681683 
L 33.792719 186.324341 
" style="fill: none; stroke: #000000; stroke-width: 0.5; stroke-linejoin: miter; stroke-linecap: square"/>
   </g>
   <g id="patch_14">
    <path d="M 175.515039 315.681683 
L 175.515039 186.324341 
" style="fill: none; stroke: #000000; stroke-width: 0.5; stroke-linejoin: miter; stroke-linecap: square"/>
   </g>
   <g id="patch_15">
    <path d="M 33.792719 315.681683 
L 175.515039 315.681683 
" style="fill: none; stroke: #000000; stroke-width: 0.5; stroke-linejoin: miter; stroke-linecap: square"/>
   </g>
   <g id="patch_16">
    <path d="M 33.792719 186.324341 
L 175.515039 186.324341 
" style="fill: none; stroke: #000000; stroke-width: 0.5; stroke-linejoin: miter; stroke-linecap: square"/>
   </g>
   <g id="text_22">
    <!-- $\Gamma =$ 30 -->
    <g transform="translate(86.980067 180.324341) scale(0.12 -0.12)">
     <defs>
      <path id="CMR17-33" d="M 1414 2157 
C 1984 2157 2234 1662 2234 1090 
C 2234 320 1824 25 1453 25 
C 1114 25 563 194 390 693 
C 422 680 454 680 486 680 
C 640 680 755 782 755 948 
C 755 1133 614 1216 486 1216 
C 378 1216 211 1165 211 926 
C 211 335 787 -128 1466 -128 
C 2176 -128 2720 430 2720 1085 
C 2720 1707 2208 2157 1600 2227 
C 2086 2328 2554 2756 2554 3329 
C 2554 3820 2048 4179 1472 4179 
C 890 4179 378 3829 378 3329 
C 378 3110 544 3072 627 3072 
C 762 3072 877 3155 877 3321 
C 877 3486 762 3569 627 3569 
C 602 3569 570 3569 544 3557 
C 730 3959 1235 4032 1459 4032 
C 1683 4032 2106 3925 2106 3320 
C 2106 3143 2080 2828 1862 2550 
C 1670 2304 1453 2304 1242 2284 
C 1210 2284 1062 2269 1037 2269 
C 992 2263 966 2257 966 2208 
C 966 2163 973 2157 1101 2157 
L 1414 2157 
z
" transform="scale(0.015625)"/>
     </defs>
     <use xlink:href="#CMR17-0" transform="scale(0.996264)"/>
     <use xlink:href="#CMR17-3d" transform="translate(85.055417 0) scale(0.996264)"/>
     <use xlink:href="#CMR17-33" transform="translate(186.846171 0) scale(0.996264)"/>
     <use xlink:href="#CMR17-30" transform="translate(232.536648 0) scale(0.996264)"/>
    </g>
   </g>
  </g>
  <g id="axes_4">
   <g id="patch_17">
    <path d="M 200.27768 315.681683 
L 342 315.681683 
L 342 186.324341 
L 200.27768 186.324341 
z
" style="fill: #ffffff"/>
   </g>
   <g id="matplotlib.axis_7">
    <g id="xtick_34">
     <g id="line2d_189">
      <g>
       <use xlink:href="#m8d554a0b49" x="200.27768" y="315.681683" style="stroke: #000000; stroke-width: 0.5"/>
      </g>
     </g>
     <g id="line2d_190">
      <g>
       <use xlink:href="#m767331724b" x="200.27768" y="186.324341" style="stroke: #000000; stroke-width: 0.5"/>
      </g>
     </g>
     <g id="text_23">
      <!-- $\mathdefault{0}$ -->
      <g transform="translate(197.787012 326.100182) scale(0.1 -0.1)">
       <use xlink:href="#CMR17-30" transform="scale(0.996264)"/>
      </g>
     </g>
    </g>
    <g id="xtick_35">
     <g id="line2d_191">
      <g>
       <use xlink:href="#m8d554a0b49" x="256.966608" y="315.681683" style="stroke: #000000; stroke-width: 0.5"/>
      </g>
     </g>
     <g id="line2d_192">
      <g>
       <use xlink:href="#m767331724b" x="256.966608" y="186.324341" style="stroke: #000000; stroke-width: 0.5"/>
      </g>
     </g>
     <g id="text_24">
      <!-- $\mathdefault{2}$ -->
      <g transform="translate(254.47594 326.100182) scale(0.1 -0.1)">
       <use xlink:href="#CMR17-32" transform="scale(0.996264)"/>
      </g>
     </g>
    </g>
    <g id="xtick_36">
     <g id="line2d_193">
      <g>
       <use xlink:href="#m8d554a0b49" x="313.655536" y="315.681683" style="stroke: #000000; stroke-width: 0.5"/>
      </g>
     </g>
     <g id="line2d_194">
      <g>
       <use xlink:href="#m767331724b" x="313.655536" y="186.324341" style="stroke: #000000; stroke-width: 0.5"/>
      </g>
     </g>
     <g id="text_25">
      <!-- $\mathdefault{4}$ -->
      <g transform="translate(311.164868 326.100182) scale(0.1 -0.1)">
       <use xlink:href="#CMR17-34" transform="scale(0.996264)"/>
      </g>
     </g>
    </g>
    <g id="xtick_37">
     <g id="line2d_195">
      <g>
       <use xlink:href="#m749a775864" x="214.449912" y="315.681683" style="stroke: #000000; stroke-width: 0.5"/>
      </g>
     </g>
     <g id="line2d_196">
      <g>
       <use xlink:href="#m401312c3b6" x="214.449912" y="186.324341" style="stroke: #000000; stroke-width: 0.5"/>
      </g>
     </g>
    </g>
    <g id="xtick_38">
     <g id="line2d_197">
      <g>
       <use xlink:href="#m749a775864" x="228.622144" y="315.681683" style="stroke: #000000; stroke-width: 0.5"/>
      </g>
     </g>
     <g id="line2d_198">
      <g>
       <use xlink:href="#m401312c3b6" x="228.622144" y="186.324341" style="stroke: #000000; stroke-width: 0.5"/>
      </g>
     </g>
    </g>
    <g id="xtick_39">
     <g id="line2d_199">
      <g>
       <use xlink:href="#m749a775864" x="242.794376" y="315.681683" style="stroke: #000000; stroke-width: 0.5"/>
      </g>
     </g>
     <g id="line2d_200">
      <g>
       <use xlink:href="#m401312c3b6" x="242.794376" y="186.324341" style="stroke: #000000; stroke-width: 0.5"/>
      </g>
     </g>
    </g>
    <g id="xtick_40">
     <g id="line2d_201">
      <g>
       <use xlink:href="#m749a775864" x="271.13884" y="315.681683" style="stroke: #000000; stroke-width: 0.5"/>
      </g>
     </g>
     <g id="line2d_202">
      <g>
       <use xlink:href="#m401312c3b6" x="271.13884" y="186.324341" style="stroke: #000000; stroke-width: 0.5"/>
      </g>
     </g>
    </g>
    <g id="xtick_41">
     <g id="line2d_203">
      <g>
       <use xlink:href="#m749a775864" x="285.311072" y="315.681683" style="stroke: #000000; stroke-width: 0.5"/>
      </g>
     </g>
     <g id="line2d_204">
      <g>
       <use xlink:href="#m401312c3b6" x="285.311072" y="186.324341" style="stroke: #000000; stroke-width: 0.5"/>
      </g>
     </g>
    </g>
    <g id="xtick_42">
     <g id="line2d_205">
      <g>
       <use xlink:href="#m749a775864" x="299.483304" y="315.681683" style="stroke: #000000; stroke-width: 0.5"/>
      </g>
     </g>
     <g id="line2d_206">
      <g>
       <use xlink:href="#m401312c3b6" x="299.483304" y="186.324341" style="stroke: #000000; stroke-width: 0.5"/>
      </g>
     </g>
    </g>
    <g id="xtick_43">
     <g id="line2d_207">
      <g>
       <use xlink:href="#m749a775864" x="327.827768" y="315.681683" style="stroke: #000000; stroke-width: 0.5"/>
      </g>
     </g>
     <g id="line2d_208">
      <g>
       <use xlink:href="#m401312c3b6" x="327.827768" y="186.324341" style="stroke: #000000; stroke-width: 0.5"/>
      </g>
     </g>
    </g>
    <g id="xtick_44">
     <g id="line2d_209">
      <g>
       <use xlink:href="#m749a775864" x="342" y="315.681683" style="stroke: #000000; stroke-width: 0.5"/>
      </g>
     </g>
     <g id="line2d_210">
      <g>
       <use xlink:href="#m401312c3b6" x="342" y="186.324341" style="stroke: #000000; stroke-width: 0.5"/>
      </g>
     </g>
    </g>
    <g id="text_26">
     <!-- $r/d_i$ -->
     <g transform="translate(262.260368 339.50934) scale(0.1 -0.1)">
      <use xlink:href="#CMMI12-72" transform="scale(0.996264)"/>
      <use xlink:href="#CMMI12-3d" transform="translate(46.670612 0) scale(0.996264)"/>
      <use xlink:href="#CMMI12-64" transform="translate(95.445531 0) scale(0.996264)"/>
      <use xlink:href="#CMMI12-69" transform="translate(146.134628 -14.943915) scale(0.697382)"/>
     </g>
    </g>
   </g>
   <g id="matplotlib.axis_8">
    <g id="ytick_58">
     <g id="line2d_211">
      <g>
       <use xlink:href="#mc8c678ff5f" x="200.27768" y="315.681683" style="stroke: #000000; stroke-width: 0.5"/>
      </g>
     </g>
     <g id="line2d_212">
      <g>
       <use xlink:href="#m6865f52adb" x="342" y="315.681683" style="stroke: #000000; stroke-width: 0.5"/>
      </g>
     </g>
    </g>
    <g id="ytick_59">
     <g id="line2d_213">
      <g>
       <use xlink:href="#mc8c678ff5f" x="200.27768" y="279.749088" style="stroke: #000000; stroke-width: 0.5"/>
      </g>
     </g>
     <g id="line2d_214">
      <g>
       <use xlink:href="#m6865f52adb" x="342" y="279.749088" style="stroke: #000000; stroke-width: 0.5"/>
      </g>
     </g>
    </g>
    <g id="ytick_60">
     <g id="line2d_215">
      <g>
       <use xlink:href="#mc8c678ff5f" x="200.27768" y="243.816493" style="stroke: #000000; stroke-width: 0.5"/>
      </g>
     </g>
     <g id="line2d_216">
      <g>
       <use xlink:href="#m6865f52adb" x="342" y="243.816493" style="stroke: #000000; stroke-width: 0.5"/>
      </g>
     </g>
    </g>
    <g id="ytick_61">
     <g id="line2d_217">
      <g>
       <use xlink:href="#mc8c678ff5f" x="200.27768" y="207.883898" style="stroke: #000000; stroke-width: 0.5"/>
      </g>
     </g>
     <g id="line2d_218">
      <g>
       <use xlink:href="#m6865f52adb" x="342" y="207.883898" style="stroke: #000000; stroke-width: 0.5"/>
      </g>
     </g>
    </g>
    <g id="ytick_62">
     <g id="line2d_219">
      <g>
       <use xlink:href="#meb343c8f02" x="200.27768" y="308.495164" style="stroke: #000000; stroke-width: 0.5"/>
      </g>
     </g>
     <g id="line2d_220">
      <g>
       <use xlink:href="#mef7dd1dc73" x="342" y="308.495164" style="stroke: #000000; stroke-width: 0.5"/>
      </g>
     </g>
    </g>
    <g id="ytick_63">
     <g id="line2d_221">
      <g>
       <use xlink:href="#meb343c8f02" x="200.27768" y="301.308645" style="stroke: #000000; stroke-width: 0.5"/>
      </g>
     </g>
     <g id="line2d_222">
      <g>
       <use xlink:href="#mef7dd1dc73" x="342" y="301.308645" style="stroke: #000000; stroke-width: 0.5"/>
      </g>
     </g>
    </g>
    <g id="ytick_64">
     <g id="line2d_223">
      <g>
       <use xlink:href="#meb343c8f02" x="200.27768" y="294.122126" style="stroke: #000000; stroke-width: 0.5"/>
      </g>
     </g>
     <g id="line2d_224">
      <g>
       <use xlink:href="#mef7dd1dc73" x="342" y="294.122126" style="stroke: #000000; stroke-width: 0.5"/>
      </g>
     </g>
    </g>
    <g id="ytick_65">
     <g id="line2d_225">
      <g>
       <use xlink:href="#meb343c8f02" x="200.27768" y="286.935607" style="stroke: #000000; stroke-width: 0.5"/>
      </g>
     </g>
     <g id="line2d_226">
      <g>
       <use xlink:href="#mef7dd1dc73" x="342" y="286.935607" style="stroke: #000000; stroke-width: 0.5"/>
      </g>
     </g>
    </g>
    <g id="ytick_66">
     <g id="line2d_227">
      <g>
       <use xlink:href="#meb343c8f02" x="200.27768" y="272.562569" style="stroke: #000000; stroke-width: 0.5"/>
      </g>
     </g>
     <g id="line2d_228">
      <g>
       <use xlink:href="#mef7dd1dc73" x="342" y="272.562569" style="stroke: #000000; stroke-width: 0.5"/>
      </g>
     </g>
    </g>
    <g id="ytick_67">
     <g id="line2d_229">
      <g>
       <use xlink:href="#meb343c8f02" x="200.27768" y="265.37605" style="stroke: #000000; stroke-width: 0.5"/>
      </g>
     </g>
     <g id="line2d_230">
      <g>
       <use xlink:href="#mef7dd1dc73" x="342" y="265.37605" style="stroke: #000000; stroke-width: 0.5"/>
      </g>
     </g>
    </g>
    <g id="ytick_68">
     <g id="line2d_231">
      <g>
       <use xlink:href="#meb343c8f02" x="200.27768" y="258.189531" style="stroke: #000000; stroke-width: 0.5"/>
      </g>
     </g>
     <g id="line2d_232">
      <g>
       <use xlink:href="#mef7dd1dc73" x="342" y="258.189531" style="stroke: #000000; stroke-width: 0.5"/>
      </g>
     </g>
    </g>
    <g id="ytick_69">
     <g id="line2d_233">
      <g>
       <use xlink:href="#meb343c8f02" x="200.27768" y="251.003012" style="stroke: #000000; stroke-width: 0.5"/>
      </g>
     </g>
     <g id="line2d_234">
      <g>
       <use xlink:href="#mef7dd1dc73" x="342" y="251.003012" style="stroke: #000000; stroke-width: 0.5"/>
      </g>
     </g>
    </g>
    <g id="ytick_70">
     <g id="line2d_235">
      <g>
       <use xlink:href="#meb343c8f02" x="200.27768" y="236.629974" style="stroke: #000000; stroke-width: 0.5"/>
      </g>
     </g>
     <g id="line2d_236">
      <g>
       <use xlink:href="#mef7dd1dc73" x="342" y="236.629974" style="stroke: #000000; stroke-width: 0.5"/>
      </g>
     </g>
    </g>
    <g id="ytick_71">
     <g id="line2d_237">
      <g>
       <use xlink:href="#meb343c8f02" x="200.27768" y="229.443455" style="stroke: #000000; stroke-width: 0.5"/>
      </g>
     </g>
     <g id="line2d_238">
      <g>
       <use xlink:href="#mef7dd1dc73" x="342" y="229.443455" style="stroke: #000000; stroke-width: 0.5"/>
      </g>
     </g>
    </g>
    <g id="ytick_72">
     <g id="line2d_239">
      <g>
       <use xlink:href="#meb343c8f02" x="200.27768" y="222.256936" style="stroke: #000000; stroke-width: 0.5"/>
      </g>
     </g>
     <g id="line2d_240">
      <g>
       <use xlink:href="#mef7dd1dc73" x="342" y="222.256936" style="stroke: #000000; stroke-width: 0.5"/>
      </g>
     </g>
    </g>
    <g id="ytick_73">
     <g id="line2d_241">
      <g>
       <use xlink:href="#meb343c8f02" x="200.27768" y="215.070417" style="stroke: #000000; stroke-width: 0.5"/>
      </g>
     </g>
     <g id="line2d_242">
      <g>
       <use xlink:href="#mef7dd1dc73" x="342" y="215.070417" style="stroke: #000000; stroke-width: 0.5"/>
      </g>
     </g>
    </g>
    <g id="ytick_74">
     <g id="line2d_243">
      <g>
       <use xlink:href="#meb343c8f02" x="200.27768" y="200.697379" style="stroke: #000000; stroke-width: 0.5"/>
      </g>
     </g>
     <g id="line2d_244">
      <g>
       <use xlink:href="#mef7dd1dc73" x="342" y="200.697379" style="stroke: #000000; stroke-width: 0.5"/>
      </g>
     </g>
    </g>
    <g id="ytick_75">
     <g id="line2d_245">
      <g>
       <use xlink:href="#meb343c8f02" x="200.27768" y="193.51086" style="stroke: #000000; stroke-width: 0.5"/>
      </g>
     </g>
     <g id="line2d_246">
      <g>
       <use xlink:href="#mef7dd1dc73" x="342" y="193.51086" style="stroke: #000000; stroke-width: 0.5"/>
      </g>
     </g>
    </g>
    <g id="ytick_76">
     <g id="line2d_247">
      <g>
       <use xlink:href="#meb343c8f02" x="200.27768" y="186.324341" style="stroke: #000000; stroke-width: 0.5"/>
      </g>
     </g>
     <g id="line2d_248">
      <g>
       <use xlink:href="#mef7dd1dc73" x="342" y="186.324341" style="stroke: #000000; stroke-width: 0.5"/>
      </g>
     </g>
    </g>
    <g id="text_27">
     <!-- $g(r)$ -->
     <g transform="translate(193.78702 259.817773) rotate(-90) scale(0.1 -0.1)">
      <use xlink:href="#CMMI12-67" transform="scale(0.996264)"/>
      <use xlink:href="#CMR17-28" transform="translate(50.285489 0) scale(0.996264)"/>
      <use xlink:href="#CMMI12-72" transform="translate(85.566257 0) scale(0.996264)"/>
      <use xlink:href="#CMR17-29" transform="translate(132.236869 0) scale(0.996264)"/>
     </g>
    </g>
   </g>
   <g id="line2d_249">
    <path d="M 200.474521 315.681683 
L 202.063959 315.681683 
L 203.653396 315.681683 
L 205.242834 315.681683 
L 206.832271 315.681683 
L 208.421709 315.681683 
L 210.011146 315.681683 
L 211.600584 315.681683 
L 213.190021 315.681683 
L 214.779459 315.681683 
L 216.368896 315.681683 
L 217.958334 315.681683 
L 219.547771 315.681683 
L 221.137209 315.681683 
L 222.726646 315.681683 
L 224.316084 315.681683 
L 225.905521 315.681679 
L 227.494959 315.681497 
L 229.084396 315.677596 
L 230.673834 315.63236 
L 232.263271 315.319554 
L 233.852709 313.922503 
L 235.442146 309.61313 
L 237.031584 299.917209 
L 238.621021 283.257694 
L 240.210459 260.61731 
L 241.799896 235.632911 
L 243.389334 213.011106 
L 244.978771 196.436639 
L 246.568209 187.51661 
L 248.157646 185.808162 
L 249.747084 189.680693 
L 251.336521 197.105066 
L 252.925959 206.289619 
L 254.515396 215.875695 
L 256.104834 225.003635 
L 257.694271 233.18495 
L 259.283709 240.217299 
L 260.873146 246.054217 
L 262.462584 250.751313 
L 264.052022 254.396906 
L 265.641459 257.098349 
L 267.230897 258.951554 
L 268.820334 260.045917 
L 270.409772 260.45079 
L 271.999209 260.226419 
L 273.588647 259.417772 
L 275.178084 258.06849 
L 276.767522 256.22028 
L 278.356959 253.930344 
L 279.946397 251.274313 
L 281.535834 248.362364 
L 283.125272 245.335718 
L 284.714709 242.368798 
L 286.304147 239.647385 
L 287.893584 237.352231 
L 289.483022 235.626307 
L 291.072459 234.559666 
L 292.661897 234.172056 
L 294.251334 234.42121 
L 295.840772 235.210429 
L 297.430209 236.413939 
L 299.019647 237.892043 
L 300.609084 239.512918 
L 302.198522 241.159143 
L 303.787959 242.737585 
L 305.377397 244.176414 
L 306.966834 245.427116 
L 308.556272 246.457744 
L 310.145709 247.25272 
L 311.735147 247.806445 
L 313.324584 248.123647 
L 314.914022 248.214642 
L 316.503459 248.096744 
L 318.092897 247.790943 
L 319.682334 247.323947 
L 321.271772 246.725528 
L 322.861209 246.030426 
L 324.450647 245.275486 
L 326.040085 244.500674 
L 327.629522 243.74536 
L 329.21896 243.048221 
L 330.808397 242.442867 
L 332.397835 241.95738 
L 333.987272 241.61046 
L 335.57671 241.411983 
L 337.166147 241.360943 
L 338.755585 241.447839 
L 340.345022 241.654579 
L 341.93446 241.95819 
L 343.523897 242.331648 
" clip-path="url(#pc1054309e0)" style="fill: none; stroke-dasharray: 3.7,1.6; stroke-dashoffset: 0; stroke: #0c5da5"/>
   </g>
   <g id="line2d_250">
    <path d="M 200.474521 315.681683 
L 202.063959 315.681683 
L 203.653396 315.681683 
L 205.242834 315.681683 
L 206.832271 315.681683 
L 208.421709 315.681683 
L 210.011146 315.681683 
L 211.600584 315.681683 
L 213.190021 315.681683 
L 214.779459 315.681683 
L 216.368896 315.681683 
L 217.958334 315.681683 
L 219.547771 315.681683 
L 221.137209 315.681683 
L 222.726646 315.681667 
L 224.316084 315.681051 
L 225.905521 315.670617 
L 227.494959 315.576945 
L 229.084396 315.072544 
L 230.673834 313.278186 
L 232.263271 308.726918 
L 233.852709 299.982894 
L 235.442146 286.636549 
L 237.031584 269.84498 
L 238.621021 251.956276 
L 240.210459 235.553068 
L 241.799896 222.579193 
L 243.389334 213.948537 
L 244.978771 209.625 
L 246.568209 208.948649 
L 248.157646 210.989084 
L 249.747084 214.807709 
L 251.336521 219.603194 
L 252.925959 224.763626 
L 254.515396 229.861685 
L 256.104834 234.623294 
L 257.694271 238.889354 
L 259.283709 242.580641 
L 260.873146 245.669727 
L 262.462584 248.16044 
L 264.052022 250.073892 
L 265.641459 251.439812 
L 267.230897 252.291958 
L 268.820334 252.666616 
L 270.409772 252.603311 
L 271.999209 252.146852 
L 273.588647 251.349765 
L 275.178084 250.274153 
L 276.767522 248.992107 
L 278.356959 247.584067 
L 279.946397 246.134998 
L 281.535834 244.728793 
L 283.125272 243.441827 
L 284.714709 242.336857 
L 286.304147 241.45844 
L 287.893584 240.830645 
L 289.483022 240.457297 
L 291.072459 240.324434 
L 292.661897 240.404269 
L 294.251334 240.659821 
L 295.840772 241.049449 
L 297.430209 241.530758 
L 299.019647 242.06359 
L 300.609084 242.612056 
L 302.198522 243.145699 
L 303.787959 243.639979 
L 305.377397 244.076271 
L 306.966834 244.441556 
L 308.556272 244.727951 
L 310.145709 244.932165 
L 311.735147 245.05494 
L 313.324584 245.100485 
L 314.914022 245.07593 
L 316.503459 244.990753 
L 318.092897 244.856197 
L 319.682334 244.684654 
L 321.271772 244.489022 
L 322.861209 244.282058 
L 324.450647 244.075766 
L 326.040085 243.880829 
L 327.629522 243.706164 
L 329.21896 243.558594 
L 330.808397 243.442683 
L 332.397835 243.360723 
L 333.987272 243.312872 
L 335.57671 243.297405 
L 337.166147 243.311061 
L 338.755585 243.349428 
L 340.345022 243.407352 
L 341.93446 243.479323 
L 343.523897 243.559822 
" clip-path="url(#pc1054309e0)" style="fill: none; stroke-dasharray: 1,1.65; stroke-dashoffset: 0; stroke: #00b945"/>
   </g>
   <g id="patch_18">
    <path d="M 200.27768 315.681683 
L 200.27768 186.324341 
" style="fill: none; stroke: #000000; stroke-width: 0.5; stroke-linejoin: miter; stroke-linecap: square"/>
   </g>
   <g id="patch_19">
    <path d="M 342 315.681683 
L 342 186.324341 
" style="fill: none; stroke: #000000; stroke-width: 0.5; stroke-linejoin: miter; stroke-linecap: square"/>
   </g>
   <g id="patch_20">
    <path d="M 200.27768 315.681683 
L 342 315.681683 
" style="fill: none; stroke: #000000; stroke-width: 0.5; stroke-linejoin: miter; stroke-linecap: square"/>
   </g>
   <g id="patch_21">
    <path d="M 200.27768 186.324341 
L 342 186.324341 
" style="fill: none; stroke: #000000; stroke-width: 0.5; stroke-linejoin: miter; stroke-linecap: square"/>
   </g>
   <g id="text_28">
    <!-- $\Gamma =$ 100 -->
    <g transform="translate(250.538532 180.324341) scale(0.12 -0.12)">
     <use xlink:href="#CMR17-0" transform="scale(0.996264)"/>
     <use xlink:href="#CMR17-3d" transform="translate(85.055417 0) scale(0.996264)"/>
     <use xlink:href="#CMR17-31" transform="translate(186.846171 0) scale(0.996264)"/>
     <use xlink:href="#CMR17-30" transform="translate(232.536648 0) scale(0.996264)"/>
     <use xlink:href="#CMR17-30" transform="translate(278.227126 0) scale(0.996264)"/>
    </g>
   </g>
  </g>
 </g>
 <defs>
  <clipPath id="pbcfe4bd119">
   <rect x="33.792719" y="17.90218" width="141.72232" height="129.357342"/>
  </clipPath>
  <clipPath id="pb16822a66a">
   <rect x="200.27768" y="17.90218" width="141.72232" height="129.357342"/>
  </clipPath>
  <clipPath id="pac0fa15cce">
   <rect x="33.792719" y="186.324341" width="141.72232" height="129.357342"/>
  </clipPath>
  <clipPath id="pc1054309e0">
   <rect x="200.27768" y="186.324341" width="141.72232" height="129.357342"/>
  </clipPath>
 </defs>
</svg>
