<?xml version="1.0" encoding="utf-8" standalone="no"?>
<!DOCTYPE svg PUBLIC "-//W3C//DTD SVG 1.1//EN"
  "http://www.w3.org/Graphics/SVG/1.1/DTD/svg11.dtd">
<svg xmlns:xlink="http://www.w3.org/1999/xlink" width="229.851256pt" height="174.6pt" viewBox="0 0 229.851256 174.6" xmlns="http://www.w3.org/2000/svg" version="1.1">
 <metadata>
  <rdf:RDF xmlns:dc="http://purl.org/dc/elements/1.1/" xmlns:cc="http://creativecommons.org/ns#" xmlns:rdf="http://www.w3.org/1999/02/22-rdf-syntax-ns#">
   <cc:Work>
    <dc:type rdf:resource="http://purl.org/dc/dcmitype/StillImage"/>
    <dc:date>2026-04-30T08:47:36.700336</dc:date>
    <dc:format>image/svg+xml</dc:format>
    <dc:creator>
     <cc:Agent>
      <dc:title>Matplotlib v3.10.8, https://matplotlib.org/</dc:title>
     </cc:Agent>
    </dc:creator>
   </cc:Work>
  </rdf:RDF>
 </metadata>
 <defs>
  <style type="text/css">*{stroke-linejoin: round; stroke-linecap: butt}</style>
 </defs>
 <g id="figure_1">
  <g id="patch_1">
   <path d="M 0 174.6 
L 229.851256 174.6 
L 229.851256 0 
L 0 0 
z
" style="fill: #ffffff"/>
  </g>
  <g id="axes_1">
   <g id="patch_2">
    <path d="M 24.937012 143.473719 
L 226.251256 143.473719 
L 226.251256 30.986427 
L 24.937012 30.986427 
z
" style="fill: #ffffff"/>
   </g>
   <g id="matplotlib.axis_1">
    <g id="xtick_1">
     <g id="line2d_1">
      <defs>
       <path id="ma6131255cc" d="M 0 0 
L 0 -3 
" style="stroke: #000000; stroke-width: 0.5"/>
      </defs>
      <g>
       <use xlink:href="#ma6131255cc" x="34.087659" y="143.473719" style="stroke: #000000; stroke-width: 0.5"/>
      </g>
     </g>
     <g id="line2d_2">
      <defs>
       <path id="m11c008f16a" d="M 0 0 
L 0 3 
" style="stroke: #000000; stroke-width: 0.5"/>
      </defs>
      <g>
       <use xlink:href="#m11c008f16a" x="34.087659" y="30.986427" style="stroke: #000000; stroke-width: 0.5"/>
      </g>
     </g>
     <g id="text_1">
      <!-- $\mathdefault{0}$ -->
      <g transform="translate(31.596992 153.892218) scale(0.1 -0.1)">
       <defs>
        <path id="CMR17-30" d="M 2688 2025 
C 2688 2416 2682 3080 2413 3591 
C 2176 4039 1798 4198 1466 4198 
C 1158 4198 768 4058 525 3597 
C 269 3118 243 2524 243 2025 
C 243 1661 250 1106 448 619 
C 723 -39 1216 -128 1466 -128 
C 1760 -128 2208 -7 2470 600 
C 2662 1042 2688 1559 2688 2025 
z
M 1466 -26 
C 1056 -26 813 325 723 812 
C 653 1188 653 1738 653 2096 
C 653 2588 653 2997 736 3387 
C 858 3929 1216 4096 1466 4096 
C 1728 4096 2067 3923 2189 3400 
C 2272 3036 2278 2607 2278 2096 
C 2278 1680 2278 1169 2202 792 
C 2067 95 1690 -26 1466 -26 
z
" transform="scale(0.015625)"/>
       </defs>
       <use xlink:href="#CMR17-30" transform="scale(0.996264)"/>
      </g>
     </g>
    </g>
    <g id="xtick_2">
     <g id="line2d_3">
      <g>
       <use xlink:href="#ma6131255cc" x="70.690249" y="143.473719" style="stroke: #000000; stroke-width: 0.5"/>
      </g>
     </g>
     <g id="line2d_4">
      <g>
       <use xlink:href="#m11c008f16a" x="70.690249" y="30.986427" style="stroke: #000000; stroke-width: 0.5"/>
      </g>
     </g>
     <g id="text_2">
      <!-- $\mathdefault{2}$ -->
      <g transform="translate(68.199582 153.892218) scale(0.1 -0.1)">
       <defs>
        <path id="CMR17-32" d="M 2669 989 
L 2554 989 
C 2490 536 2438 459 2413 420 
C 2381 369 1920 369 1830 369 
L 602 369 
C 832 619 1280 1072 1824 1597 
C 2214 1967 2669 2402 2669 3035 
C 2669 3790 2067 4224 1395 4224 
C 691 4224 262 3604 262 3030 
C 262 2780 448 2748 525 2748 
C 589 2748 781 2787 781 3010 
C 781 3207 614 3264 525 3264 
C 486 3264 448 3258 422 3245 
C 544 3790 915 4058 1306 4058 
C 1862 4058 2227 3617 2227 3035 
C 2227 2479 1901 2000 1536 1584 
L 262 146 
L 262 0 
L 2515 0 
L 2669 989 
z
" transform="scale(0.015625)"/>
       </defs>
       <use xlink:href="#CMR17-32" transform="scale(0.996264)"/>
      </g>
     </g>
    </g>
    <g id="xtick_3">
     <g id="line2d_5">
      <g>
       <use xlink:href="#ma6131255cc" x="107.292839" y="143.473719" style="stroke: #000000; stroke-width: 0.5"/>
      </g>
     </g>
     <g id="line2d_6">
      <g>
       <use xlink:href="#m11c008f16a" x="107.292839" y="30.986427" style="stroke: #000000; stroke-width: 0.5"/>
      </g>
     </g>
     <g id="text_3">
      <!-- $\mathdefault{4}$ -->
      <g transform="translate(104.802172 153.892218) scale(0.1 -0.1)">
       <defs>
        <path id="CMR17-34" d="M 2150 4122 
C 2150 4256 2144 4256 2029 4256 
L 128 1254 
L 128 1088 
L 1779 1088 
L 1779 457 
C 1779 224 1766 160 1318 160 
L 1197 160 
L 1197 0 
C 1402 0 1747 0 1965 0 
C 2182 0 2528 0 2733 0 
L 2733 160 
L 2611 160 
C 2163 160 2150 224 2150 457 
L 2150 1088 
L 2803 1088 
L 2803 1254 
L 2150 1254 
L 2150 4122 
z
M 1798 3703 
L 1798 1254 
L 256 1254 
L 1798 3703 
z
" transform="scale(0.015625)"/>
       </defs>
       <use xlink:href="#CMR17-34" transform="scale(0.996264)"/>
      </g>
     </g>
    </g>
    <g id="xtick_4">
     <g id="line2d_7">
      <g>
       <use xlink:href="#ma6131255cc" x="143.895429" y="143.473719" style="stroke: #000000; stroke-width: 0.5"/>
      </g>
     </g>
     <g id="line2d_8">
      <g>
       <use xlink:href="#m11c008f16a" x="143.895429" y="30.986427" style="stroke: #000000; stroke-width: 0.5"/>
      </g>
     </g>
     <g id="text_4">
      <!-- $\mathdefault{6}$ -->
      <g transform="translate(141.404761 153.892218) scale(0.1 -0.1)">
       <defs>
        <path id="CMR17-36" d="M 678 2176 
C 678 3690 1395 4032 1811 4032 
C 1946 4032 2272 4009 2400 3776 
C 2298 3776 2106 3776 2106 3553 
C 2106 3381 2246 3323 2336 3323 
C 2394 3323 2566 3348 2566 3560 
C 2566 3954 2246 4179 1805 4179 
C 1043 4179 243 3390 243 1984 
C 243 253 966 -128 1478 -128 
C 2099 -128 2688 427 2688 1283 
C 2688 2081 2170 2662 1517 2662 
C 1126 2662 838 2407 678 1960 
L 678 2176 
z
M 1478 25 
C 691 25 691 1200 691 1436 
C 691 1896 909 2560 1504 2560 
C 1613 2560 1926 2560 2138 2120 
C 2253 1870 2253 1609 2253 1289 
C 2253 944 2253 690 2118 434 
C 1978 171 1773 25 1478 25 
z
" transform="scale(0.015625)"/>
       </defs>
       <use xlink:href="#CMR17-36" transform="scale(0.996264)"/>
      </g>
     </g>
    </g>
    <g id="xtick_5">
     <g id="line2d_9">
      <g>
       <use xlink:href="#ma6131255cc" x="180.498019" y="143.473719" style="stroke: #000000; stroke-width: 0.5"/>
      </g>
     </g>
     <g id="line2d_10">
      <g>
       <use xlink:href="#m11c008f16a" x="180.498019" y="30.986427" style="stroke: #000000; stroke-width: 0.5"/>
      </g>
     </g>
     <g id="text_5">
      <!-- $\mathdefault{8}$ -->
      <g transform="translate(178.007351 153.892218) scale(0.1 -0.1)">
       <defs>
        <path id="CMR17-38" d="M 1741 2264 
C 2144 2467 2554 2773 2554 3263 
C 2554 3841 1990 4179 1472 4179 
C 890 4179 378 3759 378 3180 
C 378 3021 416 2747 666 2505 
C 730 2442 998 2251 1171 2130 
C 883 1983 211 1634 211 934 
C 211 279 838 -128 1459 -128 
C 2144 -128 2720 362 2720 1010 
C 2720 1590 2330 1857 2074 2029 
L 1741 2264 
z
M 902 2822 
C 851 2854 595 3051 595 3351 
C 595 3739 998 4032 1459 4032 
C 1965 4032 2336 3676 2336 3262 
C 2336 2669 1670 2331 1638 2331 
C 1632 2331 1626 2331 1574 2370 
L 902 2822 
z
M 2080 1519 
C 2176 1449 2483 1240 2483 851 
C 2483 381 2010 25 1472 25 
C 890 25 448 438 448 940 
C 448 1443 838 1862 1280 2060 
L 2080 1519 
z
" transform="scale(0.015625)"/>
       </defs>
       <use xlink:href="#CMR17-38" transform="scale(0.996264)"/>
      </g>
     </g>
    </g>
    <g id="xtick_6">
     <g id="line2d_11">
      <g>
       <use xlink:href="#ma6131255cc" x="217.100609" y="143.473719" style="stroke: #000000; stroke-width: 0.5"/>
      </g>
     </g>
     <g id="line2d_12">
      <g>
       <use xlink:href="#m11c008f16a" x="217.100609" y="30.986427" style="stroke: #000000; stroke-width: 0.5"/>
      </g>
     </g>
     <g id="text_6">
      <!-- $\mathdefault{10}$ -->
      <g transform="translate(212.119274 153.892218) scale(0.1 -0.1)">
       <defs>
        <path id="CMR17-31" d="M 1702 4058 
C 1702 4192 1696 4192 1606 4192 
C 1357 3916 979 3827 621 3827 
C 602 3827 570 3827 563 3808 
C 557 3795 557 3782 557 3648 
C 755 3648 1088 3686 1344 3839 
L 1344 461 
C 1344 236 1331 160 781 160 
L 589 160 
L 589 0 
C 896 0 1216 0 1523 0 
C 1830 0 2150 0 2458 0 
L 2458 160 
L 2266 160 
C 1715 160 1702 230 1702 458 
L 1702 4058 
z
" transform="scale(0.015625)"/>
       </defs>
       <use xlink:href="#CMR17-31" transform="scale(0.996264)"/>
       <use xlink:href="#CMR17-30" transform="translate(45.690477 0) scale(0.996264)"/>
      </g>
     </g>
    </g>
    <g id="xtick_7">
     <g id="line2d_13">
      <defs>
       <path id="m2971c1e6df" d="M 0 0 
L 0 -1.5 
" style="stroke: #000000; stroke-width: 0.5"/>
      </defs>
      <g>
       <use xlink:href="#m2971c1e6df" x="24.937012" y="143.473719" style="stroke: #000000; stroke-width: 0.5"/>
      </g>
     </g>
     <g id="line2d_14">
      <defs>
       <path id="m38ddc3fd37" d="M 0 0 
L 0 1.5 
" style="stroke: #000000; stroke-width: 0.5"/>
      </defs>
      <g>
       <use xlink:href="#m38ddc3fd37" x="24.937012" y="30.986427" style="stroke: #000000; stroke-width: 0.5"/>
      </g>
     </g>
    </g>
    <g id="xtick_8">
     <g id="line2d_15">
      <g>
       <use xlink:href="#m2971c1e6df" x="43.238307" y="143.473719" style="stroke: #000000; stroke-width: 0.5"/>
      </g>
     </g>
     <g id="line2d_16">
      <g>
       <use xlink:href="#m38ddc3fd37" x="43.238307" y="30.986427" style="stroke: #000000; stroke-width: 0.5"/>
      </g>
     </g>
    </g>
    <g id="xtick_9">
     <g id="line2d_17">
      <g>
       <use xlink:href="#m2971c1e6df" x="52.388954" y="143.473719" style="stroke: #000000; stroke-width: 0.5"/>
      </g>
     </g>
     <g id="line2d_18">
      <g>
       <use xlink:href="#m38ddc3fd37" x="52.388954" y="30.986427" style="stroke: #000000; stroke-width: 0.5"/>
      </g>
     </g>
    </g>
    <g id="xtick_10">
     <g id="line2d_19">
      <g>
       <use xlink:href="#m2971c1e6df" x="61.539602" y="143.473719" style="stroke: #000000; stroke-width: 0.5"/>
      </g>
     </g>
     <g id="line2d_20">
      <g>
       <use xlink:href="#m38ddc3fd37" x="61.539602" y="30.986427" style="stroke: #000000; stroke-width: 0.5"/>
      </g>
     </g>
    </g>
    <g id="xtick_11">
     <g id="line2d_21">
      <g>
       <use xlink:href="#m2971c1e6df" x="79.840897" y="143.473719" style="stroke: #000000; stroke-width: 0.5"/>
      </g>
     </g>
     <g id="line2d_22">
      <g>
       <use xlink:href="#m38ddc3fd37" x="79.840897" y="30.986427" style="stroke: #000000; stroke-width: 0.5"/>
      </g>
     </g>
    </g>
    <g id="xtick_12">
     <g id="line2d_23">
      <g>
       <use xlink:href="#m2971c1e6df" x="88.991544" y="143.473719" style="stroke: #000000; stroke-width: 0.5"/>
      </g>
     </g>
     <g id="line2d_24">
      <g>
       <use xlink:href="#m38ddc3fd37" x="88.991544" y="30.986427" style="stroke: #000000; stroke-width: 0.5"/>
      </g>
     </g>
    </g>
    <g id="xtick_13">
     <g id="line2d_25">
      <g>
       <use xlink:href="#m2971c1e6df" x="98.142192" y="143.473719" style="stroke: #000000; stroke-width: 0.5"/>
      </g>
     </g>
     <g id="line2d_26">
      <g>
       <use xlink:href="#m38ddc3fd37" x="98.142192" y="30.986427" style="stroke: #000000; stroke-width: 0.5"/>
      </g>
     </g>
    </g>
    <g id="xtick_14">
     <g id="line2d_27">
      <g>
       <use xlink:href="#m2971c1e6df" x="116.443487" y="143.473719" style="stroke: #000000; stroke-width: 0.5"/>
      </g>
     </g>
     <g id="line2d_28">
      <g>
       <use xlink:href="#m38ddc3fd37" x="116.443487" y="30.986427" style="stroke: #000000; stroke-width: 0.5"/>
      </g>
     </g>
    </g>
    <g id="xtick_15">
     <g id="line2d_29">
      <g>
       <use xlink:href="#m2971c1e6df" x="125.594134" y="143.473719" style="stroke: #000000; stroke-width: 0.5"/>
      </g>
     </g>
     <g id="line2d_30">
      <g>
       <use xlink:href="#m38ddc3fd37" x="125.594134" y="30.986427" style="stroke: #000000; stroke-width: 0.5"/>
      </g>
     </g>
    </g>
    <g id="xtick_16">
     <g id="line2d_31">
      <g>
       <use xlink:href="#m2971c1e6df" x="134.744782" y="143.473719" style="stroke: #000000; stroke-width: 0.5"/>
      </g>
     </g>
     <g id="line2d_32">
      <g>
       <use xlink:href="#m38ddc3fd37" x="134.744782" y="30.986427" style="stroke: #000000; stroke-width: 0.5"/>
      </g>
     </g>
    </g>
    <g id="xtick_17">
     <g id="line2d_33">
      <g>
       <use xlink:href="#m2971c1e6df" x="153.046077" y="143.473719" style="stroke: #000000; stroke-width: 0.5"/>
      </g>
     </g>
     <g id="line2d_34">
      <g>
       <use xlink:href="#m38ddc3fd37" x="153.046077" y="30.986427" style="stroke: #000000; stroke-width: 0.5"/>
      </g>
     </g>
    </g>
    <g id="xtick_18">
     <g id="line2d_35">
      <g>
       <use xlink:href="#m2971c1e6df" x="162.196724" y="143.473719" style="stroke: #000000; stroke-width: 0.5"/>
      </g>
     </g>
     <g id="line2d_36">
      <g>
       <use xlink:href="#m38ddc3fd37" x="162.196724" y="30.986427" style="stroke: #000000; stroke-width: 0.5"/>
      </g>
     </g>
    </g>
    <g id="xtick_19">
     <g id="line2d_37">
      <g>
       <use xlink:href="#m2971c1e6df" x="171.347371" y="143.473719" style="stroke: #000000; stroke-width: 0.5"/>
      </g>
     </g>
     <g id="line2d_38">
      <g>
       <use xlink:href="#m38ddc3fd37" x="171.347371" y="30.986427" style="stroke: #000000; stroke-width: 0.5"/>
      </g>
     </g>
    </g>
    <g id="xtick_20">
     <g id="line2d_39">
      <g>
       <use xlink:href="#m2971c1e6df" x="189.648666" y="143.473719" style="stroke: #000000; stroke-width: 0.5"/>
      </g>
     </g>
     <g id="line2d_40">
      <g>
       <use xlink:href="#m38ddc3fd37" x="189.648666" y="30.986427" style="stroke: #000000; stroke-width: 0.5"/>
      </g>
     </g>
    </g>
    <g id="xtick_21">
     <g id="line2d_41">
      <g>
       <use xlink:href="#m2971c1e6df" x="198.799314" y="143.473719" style="stroke: #000000; stroke-width: 0.5"/>
      </g>
     </g>
     <g id="line2d_42">
      <g>
       <use xlink:href="#m38ddc3fd37" x="198.799314" y="30.986427" style="stroke: #000000; stroke-width: 0.5"/>
      </g>
     </g>
    </g>
    <g id="xtick_22">
     <g id="line2d_43">
      <g>
       <use xlink:href="#m2971c1e6df" x="207.949961" y="143.473719" style="stroke: #000000; stroke-width: 0.5"/>
      </g>
     </g>
     <g id="line2d_44">
      <g>
       <use xlink:href="#m38ddc3fd37" x="207.949961" y="30.986427" style="stroke: #000000; stroke-width: 0.5"/>
      </g>
     </g>
    </g>
    <g id="xtick_23">
     <g id="line2d_45">
      <g>
       <use xlink:href="#m2971c1e6df" x="226.251256" y="143.473719" style="stroke: #000000; stroke-width: 0.5"/>
      </g>
     </g>
     <g id="line2d_46">
      <g>
       <use xlink:href="#m38ddc3fd37" x="226.251256" y="30.986427" style="stroke: #000000; stroke-width: 0.5"/>
      </g>
     </g>
    </g>
    <g id="text_7">
     <!-- $k$ [1/$\AA$] -->
     <g transform="translate(109.698846 168.50934) scale(0.1 -0.1)">
      <defs>
       <path id="CMMI12-6b" d="M 1798 4257 
C 1805 4283 1818 4321 1818 4352 
C 1818 4416 1754 4416 1741 4416 
C 1734 4416 1504 4393 1389 4377 
C 1280 4377 1184 4358 1069 4358 
C 915 4345 870 4339 870 4224 
C 870 4160 934 4160 998 4160 
C 1325 4160 1325 4103 1325 4040 
C 1325 4015 1325 4002 1293 3888 
L 378 248 
C 352 152 352 140 352 101 
C 352 -38 461 -64 525 -64 
C 704 -64 742 77 794 275 
L 1094 1469 
C 1555 1418 1830 1226 1830 920 
C 1830 881 1830 856 1811 760 
C 1786 664 1786 588 1786 556 
C 1786 185 2029 -64 2355 -64 
C 2650 -64 2803 204 2854 294 
C 2989 530 3072 888 3072 913 
C 3072 945 3046 971 3008 971 
C 2950 971 2944 945 2918 843 
C 2829 511 2694 64 2368 64 
C 2240 64 2157 128 2157 370 
C 2157 492 2182 632 2208 728 
C 2234 843 2234 849 2234 926 
C 2234 1303 1894 1514 1306 1590 
C 1536 1731 1766 1980 1856 2076 
C 2221 2484 2470 2689 2765 2689 
C 2912 2689 2950 2650 2995 2612 
C 2758 2586 2669 2420 2669 2293 
C 2669 2139 2790 2088 2880 2088 
C 3053 2088 3206 2235 3206 2440 
C 3206 2625 3059 2816 2771 2816 
C 2419 2816 2131 2567 1677 2056 
C 1613 1980 1376 1737 1139 1648 
L 1798 4257 
z
" transform="scale(0.015625)"/>
       <path id="CMR17-5b" d="M 1504 -1600 
L 1504 -1377 
L 902 -1377 
L 902 4544 
L 1504 4544 
L 1504 4767 
L 678 4767 
L 678 -1600 
L 1504 -1600 
z
" transform="scale(0.015625)"/>
       <path id="CMR17-2f" d="M 2605 4545 
C 2637 4627 2637 4640 2637 4653 
C 2637 4729 2579 4768 2528 4768 
C 2451 4768 2426 4717 2400 4640 
L 326 -1377 
C 294 -1460 294 -1473 294 -1486 
C 294 -1562 352 -1600 403 -1600 
C 480 -1600 506 -1549 531 -1473 
L 2605 4545 
z
" transform="scale(0.015625)"/>
       <path id="CMR17-17" d="M 2771 3955 
C 2771 4275 2515 4518 2214 4518 
C 1914 4518 1658 4275 1658 3955 
C 1658 3635 1914 3392 2214 3392 
C 2515 3392 2771 3635 2771 3955 
z
M 2214 3494 
C 1946 3494 1773 3660 1773 3956 
C 1773 4256 1952 4416 2214 4416 
C 2483 4416 2656 4250 2656 3956 
C 2656 3654 2477 3494 2214 3494 
z
" transform="scale(0.015625)"/>
       <path id="CMMI12-41" d="M 1088 691 
C 864 314 646 186 339 186 
C 269 180 218 180 218 58 
C 218 24 250 0 294 0 
C 410 0 698 0 813 0 
C 998 0 1203 0 1382 0 
C 1421 0 1498 0 1498 122 
C 1498 180 1446 186 1408 186 
C 1261 186 1139 236 1139 388 
C 1139 476 1178 546 1261 685 
L 1747 1479 
L 3379 1479 
C 3386 1423 3386 1373 3392 1316 
C 3411 1152 3488 495 3488 376 
C 3488 186 3162 186 3059 186 
C 2989 186 2918 186 2918 70 
C 2918 0 2976 0 3014 0 
C 3123 0 3251 0 3360 0 
L 3725 0 
C 4115 0 4397 0 4403 0 
C 4448 0 4518 0 4518 122 
C 4518 186 4461 186 4365 186 
C 4013 186 4006 244 3987 434 
L 3597 4404 
C 3584 4531 3558 4544 3488 4544 
C 3424 4544 3386 4531 3328 4435 
L 1088 691 
z
M 1856 1664 
L 3142 3819 
L 3360 1664 
L 1856 1664 
z
" transform="scale(0.015625)"/>
       <path id="CMR17-5d" d="M 915 4767 
L 90 4767 
L 90 4544 
L 691 4544 
L 691 -1377 
L 90 -1377 
L 90 -1600 
L 915 -1600 
L 915 4767 
z
" transform="scale(0.015625)"/>
      </defs>
      <use xlink:href="#CMMI12-6b" transform="scale(0.996264)"/>
      <use xlink:href="#CMR17-5b" transform="translate(84.155167 0) scale(0.996264)"/>
      <use xlink:href="#CMR17-31" transform="translate(109.026226 0) scale(0.996264)"/>
      <use xlink:href="#CMR17-2f" transform="translate(154.716703 0) scale(0.996264)"/>
      <use xlink:href="#CMR17-17" transform="translate(200.40718 17.618744) scale(0.996264)"/>
      <use xlink:href="#CMMI12-41" transform="translate(200.40718 0) scale(0.996264)"/>
      <use xlink:href="#CMR17-5d" transform="translate(273.535065 0) scale(0.996264)"/>
     </g>
    </g>
   </g>
   <g id="matplotlib.axis_2">
    <g id="ytick_1">
     <g id="line2d_47">
      <defs>
       <path id="m8602931ef0" d="M 0 0 
L 3 0 
" style="stroke: #000000; stroke-width: 0.5"/>
      </defs>
      <g>
       <use xlink:href="#m8602931ef0" x="24.937012" y="137.87011" style="stroke: #000000; stroke-width: 0.5"/>
      </g>
     </g>
     <g id="line2d_48">
      <defs>
       <path id="m603f1d5307" d="M 0 0 
L -3 0 
" style="stroke: #000000; stroke-width: 0.5"/>
      </defs>
      <g>
       <use xlink:href="#m603f1d5307" x="226.251256" y="137.87011" style="stroke: #000000; stroke-width: 0.5"/>
      </g>
     </g>
     <g id="text_8">
      <!-- $\mathdefault{0}$ -->
      <g transform="translate(16.455677 141.329359) scale(0.1 -0.1)">
       <use xlink:href="#CMR17-30" transform="scale(0.996264)"/>
      </g>
     </g>
    </g>
    <g id="ytick_2">
     <g id="line2d_49">
      <g>
       <use xlink:href="#m8602931ef0" x="24.937012" y="103.946568" style="stroke: #000000; stroke-width: 0.5"/>
      </g>
     </g>
     <g id="line2d_50">
      <g>
       <use xlink:href="#m603f1d5307" x="226.251256" y="103.946568" style="stroke: #000000; stroke-width: 0.5"/>
      </g>
     </g>
     <g id="text_9">
      <!-- $\mathdefault{1}$ -->
      <g transform="translate(16.455677 107.405818) scale(0.1 -0.1)">
       <use xlink:href="#CMR17-31" transform="scale(0.996264)"/>
      </g>
     </g>
    </g>
    <g id="ytick_3">
     <g id="line2d_51">
      <g>
       <use xlink:href="#m8602931ef0" x="24.937012" y="70.023027" style="stroke: #000000; stroke-width: 0.5"/>
      </g>
     </g>
     <g id="line2d_52">
      <g>
       <use xlink:href="#m603f1d5307" x="226.251256" y="70.023027" style="stroke: #000000; stroke-width: 0.5"/>
      </g>
     </g>
     <g id="text_10">
      <!-- $\mathdefault{2}$ -->
      <g transform="translate(16.455677 73.482276) scale(0.1 -0.1)">
       <use xlink:href="#CMR17-32" transform="scale(0.996264)"/>
      </g>
     </g>
    </g>
    <g id="ytick_4">
     <g id="line2d_53">
      <g>
       <use xlink:href="#m8602931ef0" x="24.937012" y="36.099486" style="stroke: #000000; stroke-width: 0.5"/>
      </g>
     </g>
     <g id="line2d_54">
      <g>
       <use xlink:href="#m603f1d5307" x="226.251256" y="36.099486" style="stroke: #000000; stroke-width: 0.5"/>
      </g>
     </g>
     <g id="text_11">
      <!-- $\mathdefault{3}$ -->
      <g transform="translate(16.455677 39.558735) scale(0.1 -0.1)">
       <defs>
        <path id="CMR17-33" d="M 1414 2157 
C 1984 2157 2234 1662 2234 1090 
C 2234 320 1824 25 1453 25 
C 1114 25 563 194 390 693 
C 422 680 454 680 486 680 
C 640 680 755 782 755 948 
C 755 1133 614 1216 486 1216 
C 378 1216 211 1165 211 926 
C 211 335 787 -128 1466 -128 
C 2176 -128 2720 430 2720 1085 
C 2720 1707 2208 2157 1600 2227 
C 2086 2328 2554 2756 2554 3329 
C 2554 3820 2048 4179 1472 4179 
C 890 4179 378 3829 378 3329 
C 378 3110 544 3072 627 3072 
C 762 3072 877 3155 877 3321 
C 877 3486 762 3569 627 3569 
C 602 3569 570 3569 544 3557 
C 730 3959 1235 4032 1459 4032 
C 1683 4032 2106 3925 2106 3320 
C 2106 3143 2080 2828 1862 2550 
C 1670 2304 1453 2304 1242 2284 
C 1210 2284 1062 2269 1037 2269 
C 992 2263 966 2257 966 2208 
C 966 2163 973 2157 1101 2157 
L 1414 2157 
z
" transform="scale(0.015625)"/>
       </defs>
       <use xlink:href="#CMR17-33" transform="scale(0.996264)"/>
      </g>
     </g>
    </g>
    <g id="ytick_5">
     <g id="line2d_55">
      <defs>
       <path id="m61cbd17535" d="M 0 0 
L 1.5 0 
" style="stroke: #000000; stroke-width: 0.5"/>
      </defs>
      <g>
       <use xlink:href="#m61cbd17535" x="24.937012" y="131.085401" style="stroke: #000000; stroke-width: 0.5"/>
      </g>
     </g>
     <g id="line2d_56">
      <defs>
       <path id="m5681ad5999" d="M 0 0 
L -1.5 0 
" style="stroke: #000000; stroke-width: 0.5"/>
      </defs>
      <g>
       <use xlink:href="#m5681ad5999" x="226.251256" y="131.085401" style="stroke: #000000; stroke-width: 0.5"/>
      </g>
     </g>
    </g>
    <g id="ytick_6">
     <g id="line2d_57">
      <g>
       <use xlink:href="#m61cbd17535" x="24.937012" y="124.300693" style="stroke: #000000; stroke-width: 0.5"/>
      </g>
     </g>
     <g id="line2d_58">
      <g>
       <use xlink:href="#m5681ad5999" x="226.251256" y="124.300693" style="stroke: #000000; stroke-width: 0.5"/>
      </g>
     </g>
    </g>
    <g id="ytick_7">
     <g id="line2d_59">
      <g>
       <use xlink:href="#m61cbd17535" x="24.937012" y="117.515985" style="stroke: #000000; stroke-width: 0.5"/>
      </g>
     </g>
     <g id="line2d_60">
      <g>
       <use xlink:href="#m5681ad5999" x="226.251256" y="117.515985" style="stroke: #000000; stroke-width: 0.5"/>
      </g>
     </g>
    </g>
    <g id="ytick_8">
     <g id="line2d_61">
      <g>
       <use xlink:href="#m61cbd17535" x="24.937012" y="110.731277" style="stroke: #000000; stroke-width: 0.5"/>
      </g>
     </g>
     <g id="line2d_62">
      <g>
       <use xlink:href="#m5681ad5999" x="226.251256" y="110.731277" style="stroke: #000000; stroke-width: 0.5"/>
      </g>
     </g>
    </g>
    <g id="ytick_9">
     <g id="line2d_63">
      <g>
       <use xlink:href="#m61cbd17535" x="24.937012" y="97.16186" style="stroke: #000000; stroke-width: 0.5"/>
      </g>
     </g>
     <g id="line2d_64">
      <g>
       <use xlink:href="#m5681ad5999" x="226.251256" y="97.16186" style="stroke: #000000; stroke-width: 0.5"/>
      </g>
     </g>
    </g>
    <g id="ytick_10">
     <g id="line2d_65">
      <g>
       <use xlink:href="#m61cbd17535" x="24.937012" y="90.377152" style="stroke: #000000; stroke-width: 0.5"/>
      </g>
     </g>
     <g id="line2d_66">
      <g>
       <use xlink:href="#m5681ad5999" x="226.251256" y="90.377152" style="stroke: #000000; stroke-width: 0.5"/>
      </g>
     </g>
    </g>
    <g id="ytick_11">
     <g id="line2d_67">
      <g>
       <use xlink:href="#m61cbd17535" x="24.937012" y="83.592444" style="stroke: #000000; stroke-width: 0.5"/>
      </g>
     </g>
     <g id="line2d_68">
      <g>
       <use xlink:href="#m5681ad5999" x="226.251256" y="83.592444" style="stroke: #000000; stroke-width: 0.5"/>
      </g>
     </g>
    </g>
    <g id="ytick_12">
     <g id="line2d_69">
      <g>
       <use xlink:href="#m61cbd17535" x="24.937012" y="76.807735" style="stroke: #000000; stroke-width: 0.5"/>
      </g>
     </g>
     <g id="line2d_70">
      <g>
       <use xlink:href="#m5681ad5999" x="226.251256" y="76.807735" style="stroke: #000000; stroke-width: 0.5"/>
      </g>
     </g>
    </g>
    <g id="ytick_13">
     <g id="line2d_71">
      <g>
       <use xlink:href="#m61cbd17535" x="24.937012" y="63.238319" style="stroke: #000000; stroke-width: 0.5"/>
      </g>
     </g>
     <g id="line2d_72">
      <g>
       <use xlink:href="#m5681ad5999" x="226.251256" y="63.238319" style="stroke: #000000; stroke-width: 0.5"/>
      </g>
     </g>
    </g>
    <g id="ytick_14">
     <g id="line2d_73">
      <g>
       <use xlink:href="#m61cbd17535" x="24.937012" y="56.45361" style="stroke: #000000; stroke-width: 0.5"/>
      </g>
     </g>
     <g id="line2d_74">
      <g>
       <use xlink:href="#m5681ad5999" x="226.251256" y="56.45361" style="stroke: #000000; stroke-width: 0.5"/>
      </g>
     </g>
    </g>
    <g id="ytick_15">
     <g id="line2d_75">
      <g>
       <use xlink:href="#m61cbd17535" x="24.937012" y="49.668902" style="stroke: #000000; stroke-width: 0.5"/>
      </g>
     </g>
     <g id="line2d_76">
      <g>
       <use xlink:href="#m5681ad5999" x="226.251256" y="49.668902" style="stroke: #000000; stroke-width: 0.5"/>
      </g>
     </g>
    </g>
    <g id="ytick_16">
     <g id="line2d_77">
      <g>
       <use xlink:href="#m61cbd17535" x="24.937012" y="42.884194" style="stroke: #000000; stroke-width: 0.5"/>
      </g>
     </g>
     <g id="line2d_78">
      <g>
       <use xlink:href="#m5681ad5999" x="226.251256" y="42.884194" style="stroke: #000000; stroke-width: 0.5"/>
      </g>
     </g>
    </g>
    <g id="text_12">
     <!-- $f_i$ -->
     <g transform="translate(10.518498 91.078214) rotate(-90) scale(0.1 -0.1)">
      <defs>
       <path id="CMMI12-66" d="M 2854 2566 
C 2982 2566 3034 2566 3034 2688 
C 3034 2752 2982 2752 2867 2752 
L 2349 2752 
C 2470 3429 2560 3897 2611 4107 
C 2650 4265 2784 4416 2950 4416 
C 3085 4416 3219 4358 3283 4298 
C 3034 4272 2957 4082 2957 3969 
C 2957 3837 3053 3759 3174 3759 
C 3302 3759 3494 3870 3494 4119 
C 3494 4393 3226 4544 2944 4544 
C 2669 4544 2400 4334 2272 4078 
C 2157 3848 2093 3611 1946 2752 
L 1517 2752 
C 1395 2752 1331 2752 1331 2637 
C 1331 2566 1370 2566 1498 2566 
L 1907 2566 
C 1792 1976 1530 542 1382 -137 
C 1274 -689 1178 -1152 858 -1152 
C 838 -1152 653 -1152 538 -1031 
C 864 -1005 864 -726 864 -720 
C 864 -593 768 -517 646 -517 
C 518 -517 326 -625 326 -867 
C 326 -1140 608 -1280 858 -1280 
C 1510 -1280 1779 -118 1850 199 
C 1965 688 2278 2376 2310 2566 
L 2854 2566 
z
" transform="scale(0.015625)"/>
       <path id="CMMI12-69" d="M 1811 913 
C 1811 945 1786 971 1747 971 
C 1690 971 1683 952 1651 843 
C 1485 262 1222 64 1011 64 
C 934 64 845 83 845 275 
C 845 447 922 639 992 830 
L 1440 2018 
C 1459 2069 1504 2184 1504 2305 
C 1504 2574 1312 2816 998 2816 
C 410 2816 173 1890 173 1839 
C 173 1814 198 1782 243 1782 
C 301 1782 307 1807 333 1896 
C 486 2428 730 2682 979 2682 
C 1037 2682 1146 2682 1146 2478 
C 1146 2312 1062 2101 1011 1961 
L 563 773 
C 525 671 486 568 486 453 
C 486 166 685 -64 992 -64 
C 1581 -64 1811 869 1811 913 
z
M 1760 4013 
C 1760 4109 1683 4224 1542 4224 
C 1395 4224 1229 4083 1229 3917 
C 1229 3758 1363 3707 1440 3707 
C 1613 3707 1760 3873 1760 4013 
z
" transform="scale(0.015625)"/>
      </defs>
      <use xlink:href="#CMMI12-66" transform="scale(0.996264)"/>
      <use xlink:href="#CMMI12-69" transform="translate(48.083238 -14.943915) scale(0.697382)"/>
     </g>
    </g>
   </g>
   <g id="line2d_79">
    <path d="M 34.087659 36.099486 
L 35.936275 36.175155 
L 37.784891 36.401648 
L 39.633506 36.777427 
L 41.482122 37.299954 
L 43.330738 37.965717 
L 45.179353 38.770277 
L 47.027969 39.708322 
L 48.876585 40.773735 
L 50.7252 41.959659 
L 52.573816 43.258589 
L 54.422432 44.662448 
L 56.271047 46.162688 
L 58.119663 47.750375 
L 59.968279 49.416292 
L 61.816894 51.15103 
L 63.66551 52.945082 
L 65.514125 54.788933 
L 67.362741 56.673149 
L 69.211357 58.588455 
L 71.059972 60.525812 
L 72.908588 62.476484 
L 74.757204 64.432098 
L 76.605819 66.384698 
L 78.454435 68.326787 
L 80.303051 70.251368 
L 82.151666 72.151969 
L 84.000282 74.022664 
L 85.848898 75.858085 
L 87.697513 77.653432 
L 89.546129 79.404467 
L 91.394745 81.107512 
L 93.24336 82.759434 
L 95.091976 84.357631 
L 96.940592 85.900006 
L 98.789207 87.38495 
L 100.637823 88.81131 
L 102.486438 90.178358 
L 104.335054 91.485768 
L 106.18367 92.733576 
L 108.032285 93.922151 
L 109.880901 95.052164 
L 111.729517 96.124552 
L 113.578132 97.140492 
L 115.426748 98.101363 
L 117.275364 99.008724 
L 119.123979 99.864281 
L 120.972595 100.669863 
L 122.821211 101.427397 
L 124.669826 102.138884 
L 126.518442 102.806381 
L 128.367058 103.431976 
L 130.215673 104.017776 
L 132.064289 104.565888 
L 133.912905 105.078409 
L 135.76152 105.557408 
L 137.610136 106.004918 
L 139.458751 106.42293 
L 141.307367 106.81338 
L 143.155983 107.178144 
L 145.004598 107.519036 
L 146.853214 107.8378 
L 148.70183 108.136106 
L 150.550445 108.415552 
L 152.399061 108.677661 
L 154.247677 108.923878 
L 156.096292 109.155571 
L 157.944908 109.374034 
L 159.793524 109.580484 
L 161.642139 109.776066 
L 163.490755 109.961852 
L 165.339371 110.138843 
L 167.187986 110.307974 
L 169.036602 110.470114 
L 170.885218 110.626069 
L 172.733833 110.776584 
L 174.582449 110.92235 
L 176.431065 111.063998 
L 178.27968 111.202112 
L 180.128296 111.337224 
L 181.976911 111.46982 
L 183.825527 111.600345 
L 185.674143 111.729199 
L 187.522758 111.856746 
L 189.371374 111.983314 
L 191.21999 112.109196 
L 193.068605 112.234656 
L 194.917221 112.359926 
L 196.765837 112.485213 
L 198.614452 112.6107 
L 200.463068 112.736543 
L 202.311684 112.862882 
L 204.160299 112.989833 
L 206.008915 113.117496 
L 207.857531 113.245954 
L 209.706146 113.375277 
L 211.554762 113.505518 
L 213.403378 113.63672 
L 215.251993 113.768913 
L 217.100609 113.902119 
" clip-path="url(#p5e3adb2c85)" style="fill: none; stroke: #0c5da5; stroke-linecap: square"/>
   </g>
   <g id="line2d_80">
    <path d="M 34.087659 103.946568 
L 35.936275 103.948004 
L 37.784891 103.95231 
L 39.633506 103.959486 
L 41.482122 103.969527 
L 43.330738 103.982431 
L 45.179353 103.998193 
L 47.027969 104.016806 
L 48.876585 104.038264 
L 50.7252 104.062558 
L 52.573816 104.08968 
L 54.422432 104.119618 
L 56.271047 104.152362 
L 58.119663 104.187899 
L 59.968279 104.226216 
L 61.816894 104.267299 
L 63.66551 104.311132 
L 65.514125 104.357698 
L 67.362741 104.406981 
L 69.211357 104.458962 
L 71.059972 104.513622 
L 72.908588 104.57094 
L 74.757204 104.630896 
L 76.605819 104.693467 
L 78.454435 104.758631 
L 80.303051 104.826363 
L 82.151666 104.896639 
L 84.000282 104.969434 
L 85.848898 105.044722 
L 87.697513 105.122475 
L 89.546129 105.202665 
L 91.394745 105.285265 
L 93.24336 105.370244 
L 95.091976 105.457573 
L 96.940592 105.547221 
L 98.789207 105.639157 
L 100.637823 105.733349 
L 102.486438 105.829764 
L 104.335054 105.92837 
L 106.18367 106.029133 
L 108.032285 106.132017 
L 109.880901 106.23699 
L 111.729517 106.344015 
L 113.578132 106.453058 
L 115.426748 106.564081 
L 117.275364 106.677048 
L 119.123979 106.791923 
L 120.972595 106.908669 
L 122.821211 107.027247 
L 124.669826 107.14762 
L 126.518442 107.26975 
L 128.367058 107.393598 
L 130.215673 107.519126 
L 132.064289 107.646294 
L 133.912905 107.775065 
L 135.76152 107.905398 
L 137.610136 108.037254 
L 139.458751 108.170594 
L 141.307367 108.305379 
L 143.155983 108.441568 
L 145.004598 108.579122 
L 146.853214 108.718001 
L 148.70183 108.858166 
L 150.550445 108.999577 
L 152.399061 109.142195 
L 154.247677 109.285979 
L 156.096292 109.43089 
L 157.944908 109.576889 
L 159.793524 109.723938 
L 161.642139 109.871995 
L 163.490755 110.021024 
L 165.339371 110.170984 
L 167.187986 110.321838 
L 169.036602 110.473546 
L 170.885218 110.626072 
L 172.733833 110.779376 
L 174.582449 110.933422 
L 176.431065 111.088172 
L 178.27968 111.243589 
L 180.128296 111.399636 
L 181.976911 111.556278 
L 183.825527 111.713477 
L 185.674143 111.871198 
L 187.522758 112.029406 
L 189.371374 112.188065 
L 191.21999 112.347142 
L 193.068605 112.506602 
L 194.917221 112.666411 
L 196.765837 112.826535 
L 198.614452 112.986943 
L 200.463068 113.1476 
L 202.311684 113.308476 
L 204.160299 113.469538 
L 206.008915 113.630756 
L 207.857531 113.792098 
L 209.706146 113.953534 
L 211.554762 114.115035 
L 213.403378 114.276571 
L 215.251993 114.438113 
L 217.100609 114.599633 
" clip-path="url(#p5e3adb2c85)" style="fill: none; stroke-dasharray: 1,1; stroke-dashoffset: 0; stroke: #808080"/>
   </g>
   <g id="line2d_81">
    <path d="M 34.087659 103.946568 
L 35.936275 103.989869 
L 37.784891 104.119447 
L 39.633506 104.334333 
L 41.482122 104.632925 
L 43.330738 105.01301 
L 45.179353 105.471795 
L 47.027969 106.005938 
L 48.876585 106.611594 
L 50.7252 107.284463 
L 52.573816 108.019841 
L 54.422432 108.812681 
L 56.271047 109.657648 
L 58.119663 110.549181 
L 59.968279 111.481559 
L 61.816894 112.448959 
L 63.66551 113.445516 
L 65.514125 114.465384 
L 67.362741 115.502789 
L 69.211357 116.552083 
L 71.059972 117.607789 
L 72.908588 118.664644 
L 74.757204 119.71764 
L 76.605819 120.762049 
L 78.454435 121.793461 
L 80.303051 122.807793 
L 82.151666 123.801317 
L 84.000282 124.77066 
L 85.848898 125.71282 
L 87.697513 126.625161 
L 89.546129 127.505412 
L 91.394745 128.351659 
L 93.24336 129.16234 
L 95.091976 129.936225 
L 96.940592 130.672404 
L 98.789207 131.370271 
L 100.637823 132.0295 
L 102.486438 132.650028 
L 104.335054 133.232034 
L 106.18367 133.775912 
L 108.032285 134.282257 
L 109.880901 134.751835 
L 111.729517 135.185568 
L 113.578132 135.584507 
L 115.426748 135.949818 
L 117.275364 136.282758 
L 119.123979 136.58466 
L 120.972595 136.856914 
L 122.821211 137.100953 
L 124.669826 137.318236 
L 126.518442 137.510239 
L 128.367058 137.67844 
L 130.215673 137.824308 
L 132.064289 137.949296 
L 133.912905 138.054831 
L 135.76152 138.142308 
L 137.610136 138.213083 
L 139.458751 138.26847 
L 141.307367 138.309734 
L 143.155983 138.338088 
L 145.004598 138.354695 
L 146.853214 138.36066 
L 148.70183 138.357035 
L 150.550445 138.344811 
L 152.399061 138.324926 
L 154.247677 138.298259 
L 156.096292 138.265637 
L 157.944908 138.227828 
L 159.793524 138.18555 
L 161.642139 138.139468 
L 163.490755 138.090198 
L 165.339371 138.038306 
L 167.187986 137.984316 
L 169.036602 137.928704 
L 170.885218 137.871906 
L 172.733833 137.81432 
L 174.582449 137.756305 
L 176.431065 137.698184 
L 178.27968 137.64025 
L 180.128296 137.582761 
L 181.976911 137.525949 
L 183.825527 137.470019 
L 185.674143 137.415149 
L 187.522758 137.361496 
L 189.371374 137.309195 
L 191.21999 137.25836 
L 193.068605 137.209087 
L 194.917221 137.161459 
L 196.765837 137.115538 
L 198.614452 137.071376 
L 200.463068 137.029013 
L 202.311684 136.988474 
L 204.160299 136.949777 
L 206.008915 136.912929 
L 207.857531 136.877931 
L 209.706146 136.844773 
L 211.554762 136.813441 
L 213.403378 136.783915 
L 215.251993 136.75617 
L 217.100609 136.730175 
" clip-path="url(#p5e3adb2c85)" style="fill: none; stroke-dasharray: 5,1; stroke-dashoffset: 0; stroke: #808080"/>
   </g>
   <g id="line2d_82">
    <path d="M 34.087659 103.946568 
L 35.936275 103.977501 
L 37.784891 104.07011 
L 39.633506 104.223829 
L 41.482122 104.437722 
L 43.330738 104.710495 
L 45.179353 105.040508 
L 47.027969 105.425798 
L 48.876585 105.864096 
L 50.7252 106.352858 
L 52.573816 106.889287 
L 54.422432 107.470369 
L 56.271047 108.092898 
L 58.119663 108.753514 
L 59.968279 109.448736 
L 61.816894 110.174992 
L 63.66551 110.928654 
L 65.514125 111.70607 
L 67.362741 112.503598 
L 69.211357 113.317629 
L 71.059972 114.144621 
L 72.908588 114.981119 
L 74.757204 115.823782 
L 76.605819 116.669401 
L 78.454435 117.514915 
L 80.303051 118.357432 
L 82.151666 119.194233 
L 84.000282 120.022789 
L 85.848898 120.840762 
L 87.697513 121.646015 
L 89.546129 122.436609 
L 91.394745 123.210807 
L 93.24336 123.96707 
L 95.091976 124.704053 
L 96.940592 125.420601 
L 98.789207 126.115742 
L 100.637823 126.78868 
L 102.486438 127.438785 
L 104.335054 128.065584 
L 106.18367 128.66875 
L 108.032285 129.248096 
L 109.880901 129.803558 
L 111.729517 130.335189 
L 113.578132 130.843146 
L 115.426748 131.327683 
L 117.275364 131.789136 
L 119.123979 132.227916 
L 120.972595 132.644499 
L 122.821211 133.039416 
L 124.669826 133.413248 
L 126.518442 133.766611 
L 128.367058 134.100157 
L 130.215673 134.414561 
L 132.064289 134.710518 
L 133.912905 134.988733 
L 135.76152 135.249921 
L 137.610136 135.4948 
L 139.458751 135.724085 
L 141.307367 135.938487 
L 143.155983 136.138708 
L 145.004598 136.325439 
L 146.853214 136.499357 
L 148.70183 136.661124 
L 150.550445 136.811384 
L 152.399061 136.95076 
L 154.247677 137.079859 
L 156.096292 137.199263 
L 157.944908 137.309536 
L 159.793524 137.411216 
L 161.642139 137.504822 
L 163.490755 137.59085 
L 165.339371 137.669772 
L 167.187986 137.74204 
L 169.036602 137.808084 
L 170.885218 137.86831 
L 172.733833 137.923107 
L 174.582449 137.972842 
L 176.431065 138.017861 
L 178.27968 138.058492 
L 180.128296 138.095046 
L 181.976911 138.127813 
L 183.825527 138.157069 
L 185.674143 138.183071 
L 187.522758 138.206064 
L 189.371374 138.226273 
L 191.21999 138.243914 
L 193.068605 138.259186 
L 194.917221 138.272276 
L 196.765837 138.28336 
L 198.614452 138.2926 
L 200.463068 138.30015 
L 202.311684 138.306151 
L 204.160299 138.310737 
L 206.008915 138.31403 
L 207.857531 138.316145 
L 209.706146 138.31719 
L 211.554762 138.317262 
L 213.403378 138.316454 
L 215.251993 138.31485 
L 217.100609 138.31253 
" clip-path="url(#p5e3adb2c85)" style="fill: none; stroke-dasharray: 3,1,1,1,1,1; stroke-dashoffset: 0; stroke: #808080"/>
   </g>
   <g id="patch_3">
    <path d="M 24.937012 143.473719 
L 24.937012 30.986427 
" style="fill: none; stroke: #000000; stroke-width: 0.5; stroke-linejoin: miter; stroke-linecap: square"/>
   </g>
   <g id="patch_4">
    <path d="M 226.251256 143.473719 
L 226.251256 30.986427 
" style="fill: none; stroke: #000000; stroke-width: 0.5; stroke-linejoin: miter; stroke-linecap: square"/>
   </g>
   <g id="patch_5">
    <path d="M 24.937012 143.473719 
L 226.251256 143.473719 
" style="fill: none; stroke: #000000; stroke-width: 0.5; stroke-linejoin: miter; stroke-linecap: square"/>
   </g>
   <g id="patch_6">
    <path d="M 24.937012 30.986427 
L 226.251256 30.986427 
" style="fill: none; stroke: #000000; stroke-width: 0.5; stroke-linejoin: miter; stroke-linecap: square"/>
   </g>
   <g id="text_13">
    <!-- Atomic form factors for Carbon -->
    <g transform="translate(44.272161 11.90218) scale(0.12 -0.12)">
     <defs>
      <path id="CMR17-41" d="M 2323 4378 
C 2291 4461 2278 4480 2214 4480 
C 2150 4480 2138 4461 2106 4378 
L 749 566 
C 627 223 371 153 147 153 
L 147 -13 
C 262 0 518 0 640 0 
C 800 0 1056 0 1210 -13 
L 1210 153 
C 909 153 864 361 864 439 
C 864 497 877 530 890 569 
L 1229 1536 
L 2906 1536 
L 3290 442 
C 3322 365 3322 352 3322 327 
C 3322 153 3046 153 2925 153 
L 2925 0 
C 3110 0 3443 0 3642 0 
C 3808 0 4128 0 4282 -13 
L 4282 153 
C 3942 153 3827 153 3744 387 
L 2323 4378 
z
M 2067 3893 
L 2848 1702 
L 1286 1702 
L 2067 3893 
z
" transform="scale(0.015625)"/>
      <path id="CMR17-74" d="M 966 2560 
L 1862 2560 
L 1862 2725 
L 966 2725 
L 966 3904 
L 851 3904 
C 838 3245 614 2668 70 2668 
L 70 2560 
L 627 2560 
L 627 771 
C 627 650 627 -64 1370 -64 
C 1747 -64 1965 306 1965 777 
L 1965 1140 
L 1850 1140 
L 1850 783 
C 1850 344 1677 51 1408 51 
C 1222 51 966 178 966 758 
L 966 2560 
z
" transform="scale(0.015625)"/>
      <path id="CMR17-6f" d="M 2758 1356 
C 2758 2176 2163 2816 1466 2816 
C 768 2816 173 2176 173 1356 
C 173 551 768 -64 1466 -64 
C 2163 -64 2758 551 2758 1356 
z
M 1466 51 
C 1165 51 909 230 762 480 
C 602 767 582 1126 582 1408 
C 582 1677 595 2010 762 2298 
C 890 2509 1139 2714 1466 2714 
C 1754 2714 1997 2554 2150 2330 
C 2349 2029 2349 1607 2349 1408 
C 2349 1158 2336 775 2163 467 
C 1984 173 1709 51 1466 51 
z
" transform="scale(0.015625)"/>
      <path id="CMR17-6d" d="M 4326 1933 
C 4326 2252 4269 2790 3507 2790 
C 3072 2790 2771 2496 2656 2151 
L 2650 2151 
C 2573 2676 2195 2790 1837 2790 
C 1331 2790 1069 2400 973 2144 
L 966 2144 
L 966 2790 
L 211 2720 
L 211 2554 
C 589 2554 646 2515 646 2208 
L 646 428 
C 646 184 621 153 211 153 
L 211 -13 
C 365 0 646 0 813 0 
C 979 0 1267 0 1421 -13 
L 1421 153 
C 1011 153 986 178 986 428 
L 986 1658 
C 986 2247 1344 2688 1792 2688 
C 2266 2688 2317 2266 2317 1958 
L 2317 428 
C 2317 184 2291 153 1882 153 
L 1882 -13 
C 2035 0 2317 0 2483 0 
C 2650 0 2938 0 3091 -13 
L 3091 153 
C 2682 153 2656 178 2656 428 
L 2656 1658 
C 2656 2247 3014 2688 3462 2688 
C 3936 2688 3987 2266 3987 1958 
L 3987 428 
C 3987 184 3962 153 3552 153 
L 3552 -13 
C 3706 0 3987 0 4154 0 
C 4320 0 4608 0 4762 -13 
L 4762 153 
C 4352 153 4326 178 4326 428 
L 4326 1933 
z
" transform="scale(0.015625)"/>
      <path id="CMR17-69" d="M 992 3909 
C 992 4049 877 4170 730 4170 
C 589 4170 467 4056 467 3909 
C 467 3769 582 3648 730 3648 
C 870 3648 992 3763 992 3909 
z
M 243 2706 
L 243 2541 
C 602 2541 653 2502 653 2197 
L 653 427 
C 653 184 627 153 218 153 
L 218 -13 
C 371 0 646 0 806 0 
C 960 0 1222 0 1370 -13 
L 1370 153 
C 992 153 979 191 979 420 
L 979 2776 
L 243 2706 
z
" transform="scale(0.015625)"/>
      <path id="CMR17-63" d="M 2234 2240 
C 2112 2240 1933 2240 1933 2017 
C 1933 1838 2080 1787 2163 1787 
C 2208 1787 2394 1807 2394 2024 
C 2394 2467 1958 2803 1466 2803 
C 787 2803 211 2178 211 1363 
C 211 516 813 -64 1466 -64 
C 2259 -64 2458 677 2458 748 
C 2458 774 2451 793 2406 793 
C 2362 793 2355 787 2330 703 
C 2163 180 1798 51 1523 51 
C 1114 51 621 427 621 1369 
C 621 2338 1094 2688 1472 2688 
C 1722 2688 2093 2573 2234 2240 
z
" transform="scale(0.015625)"/>
      <path id="CMR17-66" d="M 979 2560 
L 1709 2560 
L 1709 2725 
L 966 2725 
L 966 3494 
C 966 4022 1235 4352 1510 4352 
C 1594 4352 1690 4327 1754 4282 
C 1702 4269 1568 4225 1568 4067 
C 1568 3901 1696 3850 1786 3850 
C 1875 3850 2003 3901 2003 4067 
C 2003 4308 1773 4454 1517 4454 
C 1152 4454 653 4156 653 3481 
L 653 2725 
L 141 2725 
L 141 2560 
L 653 2560 
L 653 427 
C 653 184 627 153 218 153 
L 218 -13 
C 371 0 666 0 832 0 
C 1018 0 1344 0 1517 -13 
L 1517 153 
C 1056 153 979 153 979 439 
L 979 2560 
z
" transform="scale(0.015625)"/>
      <path id="CMR17-72" d="M 960 1497 
C 960 2112 1222 2688 1702 2688 
C 1747 2688 1792 2682 1837 2662 
C 1837 2662 1696 2617 1696 2452 
C 1696 2298 1818 2234 1914 2234 
C 1990 2234 2131 2279 2131 2458 
C 2131 2663 1926 2790 1709 2790 
C 1222 2790 1011 2317 947 2093 
L 941 2093 
L 941 2790 
L 198 2720 
L 198 2554 
C 576 2554 634 2515 634 2208 
L 634 428 
C 634 184 608 153 198 153 
L 198 -13 
C 352 0 646 0 813 0 
C 998 0 1325 0 1498 -13 
L 1498 153 
C 1037 153 960 153 960 440 
L 960 1497 
z
" transform="scale(0.015625)"/>
      <path id="CMR17-61" d="M 2304 1653 
C 2304 2072 2304 2294 2035 2543 
C 1798 2752 1523 2816 1306 2816 
C 800 2816 435 2407 435 1971 
C 435 1728 627 1728 666 1728 
C 749 1728 896 1778 896 1954 
C 896 2112 774 2181 666 2181 
C 640 2181 608 2174 589 2168 
C 723 2592 1069 2714 1293 2714 
C 1613 2714 1965 2429 1965 1885 
L 1965 1600 
C 1587 1600 1133 1549 774 1357 
C 371 1133 256 813 256 570 
C 256 77 832 -64 1171 -64 
C 1523 -64 1850 139 1990 511 
C 2003 233 2182 -18 2464 -18 
C 2598 -18 2938 70 2938 567 
L 2938 920 
L 2822 920 
L 2822 562 
C 2822 178 2650 128 2566 128 
C 2304 128 2304 458 2304 738 
L 2304 1653 
z
M 1965 870 
C 1965 317 1568 38 1216 38 
C 896 38 646 275 646 570 
C 646 761 730 1100 1101 1305 
C 1408 1478 1760 1504 1965 1504 
L 1965 870 
z
" transform="scale(0.015625)"/>
      <path id="CMR17-73" d="M 1978 2697 
C 1978 2813 1971 2819 1933 2819 
C 1907 2819 1901 2813 1824 2717 
C 1805 2691 1747 2626 1728 2601 
C 1523 2819 1235 2819 1126 2819 
C 416 2819 160 2447 160 2076 
C 160 1498 813 1365 998 1325 
C 1402 1243 1542 1217 1677 1101 
C 1760 1025 1901 884 1901 654 
C 1901 384 1747 38 1158 38 
C 602 38 403 460 288 1021 
C 269 1110 269 1117 218 1117 
C 166 1117 160 1110 160 983 
L 160 63 
C 160 -51 166 -58 205 -58 
C 237 -58 243 -51 275 0 
C 314 57 410 211 448 276 
C 576 103 800 -64 1158 -64 
C 1792 -64 2131 283 2131 784 
C 2131 1112 1958 1285 1875 1362 
C 1683 1561 1459 1606 1190 1657 
C 838 1735 390 1825 390 2217 
C 390 2383 480 2737 1126 2737 
C 1811 2737 1850 2094 1862 1888 
C 1869 1856 1901 1849 1920 1849 
C 1978 1849 1978 1869 1978 1978 
L 1978 2697 
z
" transform="scale(0.015625)"/>
      <path id="CMR17-43" d="M 3974 4289 
C 3974 4403 3968 4410 3930 4410 
C 3904 4410 3898 4403 3853 4327 
L 3571 3792 
C 3258 4187 2874 4416 2381 4416 
C 1286 4416 294 3456 294 2148 
C 294 826 1286 -128 2387 -128 
C 3366 -128 3974 730 3974 1461 
C 3974 1524 3974 1550 3917 1550 
C 3866 1550 3866 1531 3859 1474 
C 3808 585 3168 38 2477 38 
C 1824 38 781 495 781 2147 
C 781 3805 1843 4250 2464 4250 
C 3187 4250 3712 3628 3834 2745 
C 3846 2668 3846 2655 3904 2655 
C 3974 2655 3974 2668 3974 2783 
L 3974 4289 
z
" transform="scale(0.015625)"/>
      <path id="CMR17-62" d="M 960 4396 
L 198 4326 
L 198 4160 
C 576 4160 634 4122 634 3817 
L 634 -13 
L 749 -13 
L 934 441 
C 1120 141 1395 -64 1766 -64 
C 2406 -64 3053 500 3053 1370 
C 3053 2188 2477 2790 1830 2790 
C 1434 2790 1152 2579 960 2330 
L 960 4396 
z
M 973 2004 
C 973 2118 973 2138 1062 2272 
C 1312 2657 1670 2688 1792 2688 
C 1984 2688 2643 2585 2643 1376 
C 2643 108 1888 38 1734 38 
C 1536 38 1248 114 1043 486 
C 973 608 973 621 973 735 
L 973 2004 
z
" transform="scale(0.015625)"/>
      <path id="CMR17-6e" d="M 2656 1933 
C 2656 2259 2592 2790 1837 2790 
C 1331 2790 1069 2400 973 2144 
L 966 2144 
L 966 2790 
L 211 2720 
L 211 2554 
C 589 2554 646 2515 646 2208 
L 646 428 
C 646 184 621 153 211 153 
L 211 -13 
C 365 0 646 0 813 0 
C 979 0 1267 0 1421 -13 
L 1421 153 
C 1011 153 986 178 986 428 
L 986 1658 
C 986 2247 1344 2688 1792 2688 
C 2266 2688 2317 2266 2317 1958 
L 2317 428 
C 2317 184 2291 153 1882 153 
L 1882 -13 
C 2035 0 2317 0 2483 0 
C 2650 0 2938 0 3091 -13 
L 3091 153 
C 2682 153 2656 178 2656 428 
L 2656 1933 
z
" transform="scale(0.015625)"/>
     </defs>
     <use xlink:href="#CMR17-41" transform="scale(0.996264)"/>
     <use xlink:href="#CMR17-74" transform="translate(66.469976 0) scale(0.996264)"/>
     <use xlink:href="#CMR17-6f" transform="translate(101.750744 0) scale(0.996264)"/>
     <use xlink:href="#CMR17-6d" transform="translate(147.441221 0) scale(0.996264)"/>
     <use xlink:href="#CMR17-69" transform="translate(224.360811 0) scale(0.996264)"/>
     <use xlink:href="#CMR17-63" transform="translate(249.231869 0) scale(0.996264)"/>
     <use xlink:href="#CMR17-66" transform="translate(319.793496 0) scale(0.996264)"/>
     <use xlink:href="#CMR17-6f" transform="translate(347.267008 0) scale(0.996264)"/>
     <use xlink:href="#CMR17-72" transform="translate(392.957485 0) scale(0.996264)"/>
     <use xlink:href="#CMR17-6d" transform="translate(428.238253 0) scale(0.996264)"/>
     <use xlink:href="#CMR17-66" transform="translate(535.233809 0) scale(0.996264)"/>
     <use xlink:href="#CMR17-61" transform="translate(562.707322 0) scale(0.996264)"/>
     <use xlink:href="#CMR17-63" transform="translate(608.397799 0) scale(0.996264)"/>
     <use xlink:href="#CMR17-74" transform="translate(648.883459 0) scale(0.996264)"/>
     <use xlink:href="#CMR17-6f" transform="translate(684.164227 0) scale(0.996264)"/>
     <use xlink:href="#CMR17-72" transform="translate(729.854704 0) scale(0.996264)"/>
     <use xlink:href="#CMR17-73" transform="translate(765.135472 0) scale(0.996264)"/>
     <use xlink:href="#CMR17-66" transform="translate(831.012776 0) scale(0.996264)"/>
     <use xlink:href="#CMR17-6f" transform="translate(858.486289 0) scale(0.996264)"/>
     <use xlink:href="#CMR17-72" transform="translate(904.176766 0) scale(0.996264)"/>
     <use xlink:href="#CMR17-43" transform="translate(969.5335 0) scale(0.996264)"/>
     <use xlink:href="#CMR17-61" transform="translate(1036.04338 0) scale(0.996264)"/>
     <use xlink:href="#CMR17-72" transform="translate(1081.733858 0) scale(0.996264)"/>
     <use xlink:href="#CMR17-62" transform="translate(1117.014625 0) scale(0.996264)"/>
     <use xlink:href="#CMR17-6f" transform="translate(1170.512434 0) scale(0.996264)"/>
     <use xlink:href="#CMR17-6e" transform="translate(1216.202911 0) scale(0.996264)"/>
    </g>
    <!-- (Pauling and Sherman) -->
    <g transform="translate(65.845892 24.986427) scale(0.12 -0.12)">
     <defs>
      <path id="CMR17-28" d="M 1958 -1561 
C 1958 -1555 1958 -1542 1939 -1523 
C 1645 -1224 858 -407 858 1581 
C 858 3569 1632 4379 1946 4697 
C 1946 4704 1958 4717 1958 4736 
C 1958 4755 1939 4768 1914 4768 
C 1843 4768 1299 4296 986 3594 
C 666 2887 576 2199 576 1588 
C 576 1128 621 351 1005 -471 
C 1312 -1135 1837 -1600 1914 -1600 
C 1946 -1600 1958 -1587 1958 -1561 
z
" transform="scale(0.015625)"/>
      <path id="CMR17-50" d="M 1267 2042 
L 2291 2042 
C 3117 2042 3718 2578 3718 3184 
C 3718 3791 3130 4352 2291 4352 
L 333 4352 
L 333 4186 
C 774 4186 845 4186 845 3899 
L 845 446 
C 845 160 774 160 333 160 
L 333 0 
C 518 0 858 0 1056 0 
C 1254 0 1594 0 1779 0 
L 1779 160 
C 1338 160 1267 160 1267 446 
L 1267 2042 
z
M 1254 2176 
L 1254 3938 
C 1254 4155 1267 4186 1523 4186 
L 2170 4186 
C 2995 4186 3232 3714 3232 3184 
C 3232 2604 2950 2176 2170 2176 
L 1254 2176 
z
" transform="scale(0.015625)"/>
      <path id="CMR17-75" d="M 1882 2693 
L 1882 2528 
C 2259 2528 2317 2489 2317 2186 
L 2317 1032 
C 2317 500 2029 38 1555 38 
C 1030 38 986 348 986 678 
L 986 2763 
L 211 2693 
L 211 2528 
C 467 2528 640 2528 646 2274 
L 646 1058 
C 646 633 646 361 813 183 
C 896 101 1056 -64 1517 -64 
C 2061 -64 2272 377 2323 506 
L 2330 506 
L 2330 -63 
L 3091 -63 
L 3091 128 
C 2714 128 2656 166 2656 473 
L 2656 2763 
L 1882 2693 
z
" transform="scale(0.015625)"/>
      <path id="CMR17-6c" d="M 979 4396 
L 218 4326 
L 218 4160 
C 595 4160 653 4122 653 3817 
L 653 426 
C 653 184 627 153 218 153 
L 218 -13 
C 371 0 653 0 813 0 
C 979 0 1261 0 1414 -13 
L 1414 153 
C 1005 153 979 178 979 426 
L 979 4396 
z
" transform="scale(0.015625)"/>
      <path id="CMR17-67" d="M 710 1164 
C 832 1068 1043 960 1299 960 
C 1805 960 2240 1357 2240 1888 
C 2240 2054 2189 2310 1997 2509 
C 2176 2692 2438 2752 2586 2752 
C 2611 2752 2650 2752 2682 2734 
C 2656 2728 2598 2703 2598 2605 
C 2598 2527 2656 2471 2739 2471 
C 2835 2471 2886 2533 2886 2614 
C 2886 2731 2790 2854 2586 2854 
C 2330 2854 2106 2738 1926 2580 
C 1734 2753 1504 2816 1299 2816 
C 794 2816 358 2419 358 1888 
C 358 1522 570 1292 634 1228 
C 442 1004 442 743 442 711 
C 442 545 506 302 723 168 
C 390 85 128 -169 128 -486 
C 128 -943 736 -1280 1466 -1280 
C 2170 -1280 2803 -956 2803 -479 
C 2803 384 1856 384 1363 384 
C 1216 384 954 384 922 391 
C 723 423 589 602 589 826 
C 589 883 589 1024 710 1164 
z
M 1299 1068 
C 736 1068 736 1760 736 1889 
C 736 2016 736 2708 1299 2708 
C 1862 2708 1862 2016 1862 1889 
C 1862 1760 1862 1068 1299 1068 
z
M 1466 -1171 
C 826 -1171 384 -835 384 -486 
C 384 -289 493 -105 634 -4 
C 794 104 858 104 1293 104 
C 1818 104 2547 104 2547 -486 
C 2547 -835 2106 -1171 1466 -1171 
z
" transform="scale(0.015625)"/>
      <path id="CMR17-64" d="M 1869 4326 
L 1869 4160 
C 2246 4160 2304 4122 2304 3820 
L 2304 2345 
C 2278 2377 2016 2790 1498 2790 
C 845 2790 211 2208 211 1364 
C 211 525 806 -64 1434 -64 
C 1978 -64 2259 337 2291 380 
L 2291 -63 
L 3066 -63 
L 3066 128 
C 2688 128 2630 166 2630 473 
L 2630 4396 
L 1869 4326 
z
M 2291 755 
C 2291 563 2176 390 2029 262 
C 1811 70 1594 38 1472 38 
C 1286 38 621 134 621 1356 
C 621 2612 1363 2688 1530 2688 
C 1824 2688 2061 2522 2208 2291 
C 2291 2157 2291 2138 2291 2023 
L 2291 755 
z
" transform="scale(0.015625)"/>
      <path id="CMR17-53" d="M 2803 4290 
C 2803 4404 2797 4411 2758 4411 
C 2720 4411 2707 4385 2682 4328 
L 2490 3907 
C 2246 4257 1875 4416 1472 4416 
C 819 4416 294 3901 294 3253 
C 294 3056 339 2776 557 2510 
C 794 2218 1018 2167 1530 2033 
C 1722 1982 2042 1899 2106 1874 
C 2470 1722 2662 1341 2662 985 
C 2662 527 2336 38 1779 38 
C 1094 38 454 419 410 1311 
C 403 1413 397 1419 352 1419 
C 301 1419 294 1413 294 1285 
L 294 -1 
C 294 -115 301 -122 339 -122 
C 384 -122 397 -90 486 108 
C 493 127 493 140 614 381 
C 934 -39 1472 -128 1779 -128 
C 2477 -128 2970 451 2970 1124 
C 2970 1454 2848 1708 2778 1823 
C 2509 2230 2221 2306 1914 2382 
C 1869 2402 1856 2402 1498 2490 
C 1152 2579 1005 2624 845 2796 
C 666 2992 602 3196 602 3399 
C 602 3812 934 4263 1478 4263 
C 2157 4263 2579 3786 2675 2993 
C 2694 2878 2701 2872 2746 2872 
C 2803 2872 2803 2891 2803 2999 
L 2803 4290 
z
" transform="scale(0.015625)"/>
      <path id="CMR17-68" d="M 2656 1933 
C 2656 2259 2592 2790 1837 2790 
C 1312 2790 1056 2368 979 2157 
L 973 2157 
L 973 4396 
L 211 4326 
L 211 4160 
C 589 4160 646 4122 646 3817 
L 646 426 
C 646 184 621 153 211 153 
L 211 -13 
C 365 0 646 0 813 0 
C 979 0 1267 0 1421 -13 
L 1421 153 
C 1011 153 986 178 986 428 
L 986 1658 
C 986 2247 1344 2688 1792 2688 
C 2266 2688 2317 2266 2317 1958 
L 2317 428 
C 2317 184 2291 153 1882 153 
L 1882 -13 
C 2035 0 2317 0 2483 0 
C 2650 0 2938 0 3091 -13 
L 3091 153 
C 2682 153 2656 178 2656 428 
L 2656 1933 
z
" transform="scale(0.015625)"/>
      <path id="CMR17-65" d="M 2438 1472 
C 2464 1498 2464 1511 2464 1576 
C 2464 2238 2118 2816 1389 2816 
C 710 2816 173 2169 173 1383 
C 173 551 781 -64 1459 -64 
C 2176 -64 2458 607 2458 740 
C 2458 784 2419 784 2406 784 
C 2362 784 2355 771 2330 696 
C 2189 265 1837 51 1504 51 
C 1229 51 954 203 781 480 
C 582 803 582 1176 582 1472 
L 2438 1472 
z
M 589 1568 
C 634 2505 1126 2714 1382 2714 
C 1818 2714 2112 2297 2118 1568 
L 589 1568 
z
" transform="scale(0.015625)"/>
      <path id="CMR17-29" d="M 1683 1581 
C 1683 2040 1638 2817 1254 3639 
C 947 4303 422 4768 346 4768 
C 326 4768 301 4761 301 4729 
C 301 4717 307 4710 314 4697 
C 621 4378 1402 3568 1402 1584 
C 1402 -407 627 -1217 314 -1537 
C 307 -1549 301 -1556 301 -1568 
C 301 -1600 326 -1600 346 -1600 
C 416 -1600 960 -1128 1274 -426 
C 1594 281 1683 969 1683 1581 
z
" transform="scale(0.015625)"/>
     </defs>
     <use xlink:href="#CMR17-28" transform="scale(0.996264)"/>
     <use xlink:href="#CMR17-50" transform="translate(35.280768 0) scale(0.996264)"/>
     <use xlink:href="#CMR17-61" transform="translate(95.264614 0) scale(0.996264)"/>
     <use xlink:href="#CMR17-75" transform="translate(140.955092 0) scale(0.996264)"/>
     <use xlink:href="#CMR17-6c" transform="translate(191.850461 0) scale(0.996264)"/>
     <use xlink:href="#CMR17-69" transform="translate(216.72152 0) scale(0.996264)"/>
     <use xlink:href="#CMR17-6e" transform="translate(241.592578 0) scale(0.996264)"/>
     <use xlink:href="#CMR17-67" transform="translate(292.487948 0) scale(0.996264)"/>
     <use xlink:href="#CMR17-61" transform="translate(368.254391 0) scale(0.996264)"/>
     <use xlink:href="#CMR17-6e" transform="translate(413.944869 0) scale(0.996264)"/>
     <use xlink:href="#CMR17-64" transform="translate(464.840238 0) scale(0.996264)"/>
     <use xlink:href="#CMR17-53" transform="translate(545.811575 0) scale(0.996264)"/>
     <use xlink:href="#CMR17-68" transform="translate(596.706944 0) scale(0.996264)"/>
     <use xlink:href="#CMR17-65" transform="translate(647.602314 0) scale(0.996264)"/>
     <use xlink:href="#CMR17-72" transform="translate(688.087975 0) scale(0.996264)"/>
     <use xlink:href="#CMR17-6d" transform="translate(723.368742 0) scale(0.996264)"/>
     <use xlink:href="#CMR17-61" transform="translate(800.288332 0) scale(0.996264)"/>
     <use xlink:href="#CMR17-6e" transform="translate(845.978809 0) scale(0.996264)"/>
     <use xlink:href="#CMR17-29" transform="translate(896.874179 0) scale(0.996264)"/>
    </g>
   </g>
   <g id="legend_1">
    <g id="line2d_83">
     <path d="M 120.425855 43.486427 
L 130.425855 43.486427 
L 140.425855 43.486427 
" style="fill: none; stroke: #0c5da5; stroke-linecap: square"/>
    </g>
    <g id="text_14">
     <!-- Full form factor -->
     <g transform="translate(148.425855 46.986427) scale(0.1 -0.1)">
      <defs>
       <path id="CMR17-46" d="M 3482 4325 
L 326 4325 
L 326 4160 
C 768 4160 838 4160 838 3874 
L 838 446 
C 838 160 768 160 326 160 
L 326 0 
C 512 0 870 0 1069 0 
C 1331 0 1638 0 1901 0 
L 1901 160 
L 1760 160 
C 1274 160 1261 223 1261 452 
L 1261 2075 
L 1837 2075 
C 2432 2075 2490 1865 2490 1332 
L 2605 1332 
L 2605 2987 
L 2490 2987 
C 2490 2450 2432 2240 1837 2240 
L 1261 2240 
L 1261 3911 
C 1261 4128 1274 4160 1530 4160 
L 2355 4160 
C 3322 4160 3430 3765 3520 2916 
L 3635 2916 
L 3482 4325 
z
" transform="scale(0.015625)"/>
      </defs>
      <use xlink:href="#CMR17-46" transform="scale(0.996264)"/>
      <use xlink:href="#CMR17-75" transform="translate(52.176591 0) scale(0.996264)"/>
      <use xlink:href="#CMR17-6c" transform="translate(103.071961 0) scale(0.996264)"/>
      <use xlink:href="#CMR17-6c" transform="translate(127.943019 0) scale(0.996264)"/>
      <use xlink:href="#CMR17-66" transform="translate(182.890044 0) scale(0.996264)"/>
      <use xlink:href="#CMR17-6f" transform="translate(210.363557 0) scale(0.996264)"/>
      <use xlink:href="#CMR17-72" transform="translate(256.054034 0) scale(0.996264)"/>
      <use xlink:href="#CMR17-6d" transform="translate(291.334802 0) scale(0.996264)"/>
      <use xlink:href="#CMR17-66" transform="translate(398.330358 0) scale(0.996264)"/>
      <use xlink:href="#CMR17-61" transform="translate(425.80387 0) scale(0.996264)"/>
      <use xlink:href="#CMR17-63" transform="translate(471.494347 0) scale(0.996264)"/>
      <use xlink:href="#CMR17-74" transform="translate(511.980008 0) scale(0.996264)"/>
      <use xlink:href="#CMR17-6f" transform="translate(547.260776 0) scale(0.996264)"/>
      <use xlink:href="#CMR17-72" transform="translate(592.951253 0) scale(0.996264)"/>
     </g>
    </g>
    <g id="line2d_84">
     <path d="M 120.425855 57.423605 
L 130.425855 57.423605 
L 140.425855 57.423605 
" style="fill: none; stroke-dasharray: 1,1; stroke-dashoffset: 0; stroke: #808080"/>
    </g>
    <g id="text_15">
     <!-- $1s$ electrons -->
     <g transform="translate(148.425855 60.923605) scale(0.1 -0.1)">
      <defs>
       <path id="CMMI12-73" d="M 1459 1280 
C 1568 1261 1741 1223 1779 1216 
C 1862 1192 2150 1090 2150 783 
C 2150 586 1971 70 1229 70 
C 1094 70 614 70 486 436 
C 742 404 870 603 870 745 
C 870 880 781 950 653 950 
C 512 950 326 841 326 552 
C 326 173 710 -64 1222 -64 
C 2195 -64 2483 651 2483 984 
C 2483 1079 2483 1258 2278 1462 
C 2118 1616 1965 1648 1619 1718 
C 1446 1756 1171 1814 1171 2101 
C 1171 2229 1286 2689 1894 2689 
C 2163 2689 2426 2589 2490 2368 
C 2208 2368 2195 2125 2195 2119 
C 2195 1984 2317 1946 2374 1946 
C 2464 1946 2643 2015 2643 2281 
C 2643 2545 2400 2816 1901 2816 
C 1062 2816 838 2160 838 1899 
C 838 1414 1312 1312 1459 1280 
z
" transform="scale(0.015625)"/>
      </defs>
      <use xlink:href="#CMR17-31" transform="scale(0.996264)"/>
      <use xlink:href="#CMMI12-73" transform="translate(45.690477 0) scale(0.996264)"/>
      <use xlink:href="#CMR17-65" transform="translate(121.716491 0) scale(0.996264)"/>
      <use xlink:href="#CMR17-6c" transform="translate(162.202151 0) scale(0.996264)"/>
      <use xlink:href="#CMR17-65" transform="translate(187.07321 0) scale(0.996264)"/>
      <use xlink:href="#CMR17-63" transform="translate(227.55887 0) scale(0.996264)"/>
      <use xlink:href="#CMR17-74" transform="translate(268.044531 0) scale(0.996264)"/>
      <use xlink:href="#CMR17-72" transform="translate(303.325299 0) scale(0.996264)"/>
      <use xlink:href="#CMR17-6f" transform="translate(338.606066 0) scale(0.996264)"/>
      <use xlink:href="#CMR17-6e" transform="translate(384.296544 0) scale(0.996264)"/>
      <use xlink:href="#CMR17-73" transform="translate(435.191913 0) scale(0.996264)"/>
     </g>
    </g>
    <g id="line2d_85">
     <path d="M 120.425855 71.360784 
L 130.425855 71.360784 
L 140.425855 71.360784 
" style="fill: none; stroke-dasharray: 5,1; stroke-dashoffset: 0; stroke: #808080"/>
    </g>
    <g id="text_16">
     <!-- $2s$ electrons -->
     <g transform="translate(148.425855 74.860784) scale(0.1 -0.1)">
      <use xlink:href="#CMR17-32" transform="scale(0.996264)"/>
      <use xlink:href="#CMMI12-73" transform="translate(45.690477 0) scale(0.996264)"/>
      <use xlink:href="#CMR17-65" transform="translate(121.716491 0) scale(0.996264)"/>
      <use xlink:href="#CMR17-6c" transform="translate(162.202151 0) scale(0.996264)"/>
      <use xlink:href="#CMR17-65" transform="translate(187.07321 0) scale(0.996264)"/>
      <use xlink:href="#CMR17-63" transform="translate(227.55887 0) scale(0.996264)"/>
      <use xlink:href="#CMR17-74" transform="translate(268.044531 0) scale(0.996264)"/>
      <use xlink:href="#CMR17-72" transform="translate(303.325299 0) scale(0.996264)"/>
      <use xlink:href="#CMR17-6f" transform="translate(338.606066 0) scale(0.996264)"/>
      <use xlink:href="#CMR17-6e" transform="translate(384.296544 0) scale(0.996264)"/>
      <use xlink:href="#CMR17-73" transform="translate(435.191913 0) scale(0.996264)"/>
     </g>
    </g>
    <g id="line2d_86">
     <path d="M 120.425855 85.297962 
L 130.425855 85.297962 
L 140.425855 85.297962 
" style="fill: none; stroke-dasharray: 3,1,1,1,1,1; stroke-dashoffset: 0; stroke: #808080"/>
    </g>
    <g id="text_17">
     <!-- $2p$ electrons -->
     <g transform="translate(148.425855 88.797962) scale(0.1 -0.1)">
      <defs>
       <path id="CMMI12-70" d="M 275 -789 
C 230 -980 205 -1031 -58 -1031 
C -134 -1031 -198 -1031 -198 -1152 
C -198 -1165 -192 -1216 -122 -1216 
C -38 -1216 51 -1216 134 -1216 
L 410 -1216 
C 544 -1216 870 -1216 1005 -1216 
C 1043 -1216 1120 -1216 1120 -1101 
C 1120 -1031 1075 -1031 966 -1031 
C 672 -1031 653 -987 653 -937 
C 653 -861 941 219 979 364 
C 1050 185 1222 -64 1555 -64 
C 2278 -64 3059 875 3059 1814 
C 3059 2401 2726 2816 2246 2816 
C 1837 2816 1491 2420 1421 2331 
C 1370 2650 1120 2816 864 2816 
C 678 2816 531 2727 410 2484 
C 294 2254 205 1865 205 1839 
C 205 1814 230 1782 275 1782 
C 326 1782 333 1788 371 1935 
C 467 2312 589 2689 845 2689 
C 992 2689 1043 2587 1043 2397 
C 1043 2245 1024 2181 998 2067 
L 275 -789 
z
M 1382 1993 
C 1427 2171 1606 2357 1709 2446 
C 1779 2510 1990 2689 2234 2689 
C 2515 2689 2643 2408 2643 2076 
C 2643 1769 2464 1047 2304 715 
C 2144 370 1850 64 1555 64 
C 1120 64 1050 613 1050 639 
C 1050 658 1062 709 1069 741 
L 1382 1993 
z
" transform="scale(0.015625)"/>
      </defs>
      <use xlink:href="#CMR17-32" transform="scale(0.996264)"/>
      <use xlink:href="#CMMI12-70" transform="translate(45.690477 0) scale(0.996264)"/>
      <use xlink:href="#CMR17-65" transform="translate(124.725957 0) scale(0.996264)"/>
      <use xlink:href="#CMR17-6c" transform="translate(165.211618 0) scale(0.996264)"/>
      <use xlink:href="#CMR17-65" transform="translate(190.082676 0) scale(0.996264)"/>
      <use xlink:href="#CMR17-63" transform="translate(230.568337 0) scale(0.996264)"/>
      <use xlink:href="#CMR17-74" transform="translate(271.053997 0) scale(0.996264)"/>
      <use xlink:href="#CMR17-72" transform="translate(306.334765 0) scale(0.996264)"/>
      <use xlink:href="#CMR17-6f" transform="translate(341.615533 0) scale(0.996264)"/>
      <use xlink:href="#CMR17-6e" transform="translate(387.30601 0) scale(0.996264)"/>
      <use xlink:href="#CMR17-73" transform="translate(438.20138 0) scale(0.996264)"/>
     </g>
    </g>
   </g>
  </g>
 </g>
 <defs>
  <clipPath id="p5e3adb2c85">
   <rect x="24.937012" y="30.986427" width="201.314244" height="112.487292"/>
  </clipPath>
 </defs>
</svg>
