<?xml version="1.0" encoding="utf-8" standalone="no"?>
<!DOCTYPE svg PUBLIC "-//W3C//DTD SVG 1.1//EN"
  "http://www.w3.org/Graphics/SVG/1.1/DTD/svg11.dtd">
<svg xmlns:xlink="http://www.w3.org/1999/xlink" width="237.6pt" height="174.6pt" viewBox="0 0 237.6 174.6" xmlns="http://www.w3.org/2000/svg" version="1.1">
 <metadata>
  <rdf:RDF xmlns:dc="http://purl.org/dc/elements/1.1/" xmlns:cc="http://creativecommons.org/ns#" xmlns:rdf="http://www.w3.org/1999/02/22-rdf-syntax-ns#">
   <cc:Work>
    <dc:type rdf:resource="http://purl.org/dc/dcmitype/StillImage"/>
    <dc:date>2026-04-13T04:55:47.347513</dc:date>
    <dc:format>image/svg+xml</dc:format>
    <dc:creator>
     <cc:Agent>
      <dc:title>Matplotlib v3.10.8, https://matplotlib.org/</dc:title>
     </cc:Agent>
    </dc:creator>
   </cc:Work>
  </rdf:RDF>
 </metadata>
 <defs>
  <style type="text/css">*{stroke-linejoin: round; stroke-linecap: butt}</style>
 </defs>
 <g id="figure_1">
  <g id="patch_1">
   <path d="M 0 174.6 
L 237.6 174.6 
L 237.6 0 
L 0 0 
z
" style="fill: #ffffff"/>
  </g>
  <g id="axes_1">
   <g id="patch_2">
    <path d="M 29.918347 143.473719 
L 234 143.473719 
L 234 3.6 
L 29.918347 3.6 
z
" style="fill: #ffffff"/>
   </g>
   <g id="matplotlib.axis_1">
    <g id="xtick_1">
     <g id="line2d_1">
      <defs>
       <path id="m4c26079666" d="M 0 0 
L 0 -3 
" style="stroke: #000000; stroke-width: 0.5"/>
      </defs>
      <g>
       <use xlink:href="#m4c26079666" x="39.194786" y="143.473719" style="stroke: #000000; stroke-width: 0.5"/>
      </g>
     </g>
     <g id="line2d_2">
      <defs>
       <path id="mb99688300b" d="M 0 0 
L 0 3 
" style="stroke: #000000; stroke-width: 0.5"/>
      </defs>
      <g>
       <use xlink:href="#mb99688300b" x="39.194786" y="3.6" style="stroke: #000000; stroke-width: 0.5"/>
      </g>
     </g>
     <g id="text_1">
      <!-- $\mathdefault{0}$ -->
      <g transform="translate(36.704118 153.892218) scale(0.1 -0.1)">
       <defs>
        <path id="CMR17-30" d="M 2688 2025 
C 2688 2416 2682 3080 2413 3591 
C 2176 4039 1798 4198 1466 4198 
C 1158 4198 768 4058 525 3597 
C 269 3118 243 2524 243 2025 
C 243 1661 250 1106 448 619 
C 723 -39 1216 -128 1466 -128 
C 1760 -128 2208 -7 2470 600 
C 2662 1042 2688 1559 2688 2025 
z
M 1466 -26 
C 1056 -26 813 325 723 812 
C 653 1188 653 1738 653 2096 
C 653 2588 653 2997 736 3387 
C 858 3929 1216 4096 1466 4096 
C 1728 4096 2067 3923 2189 3400 
C 2272 3036 2278 2607 2278 2096 
C 2278 1680 2278 1169 2202 792 
C 2067 95 1690 -26 1466 -26 
z
" transform="scale(0.015625)"/>
       </defs>
       <use xlink:href="#CMR17-30" transform="scale(0.996264)"/>
      </g>
     </g>
    </g>
    <g id="xtick_2">
     <g id="line2d_3">
      <g>
       <use xlink:href="#m4c26079666" x="88.407822" y="143.473719" style="stroke: #000000; stroke-width: 0.5"/>
      </g>
     </g>
     <g id="line2d_4">
      <g>
       <use xlink:href="#mb99688300b" x="88.407822" y="3.6" style="stroke: #000000; stroke-width: 0.5"/>
      </g>
     </g>
     <g id="text_2">
      <!-- $\mathdefault{5}$ -->
      <g transform="translate(85.917154 153.892218) scale(0.1 -0.1)">
       <defs>
        <path id="CMR17-35" d="M 730 3692 
C 794 3666 1056 3584 1325 3584 
C 1920 3584 2246 3911 2432 4100 
C 2432 4157 2432 4192 2394 4192 
C 2387 4192 2374 4192 2323 4163 
C 2099 4058 1837 3973 1517 3973 
C 1325 3973 1037 3999 723 4139 
C 653 4171 640 4171 634 4171 
C 602 4171 595 4164 595 4037 
L 595 2203 
C 595 2089 595 2057 659 2057 
C 691 2057 704 2070 736 2114 
C 941 2401 1222 2522 1542 2522 
C 1766 2522 2246 2382 2246 1289 
C 2246 1085 2246 715 2054 421 
C 1894 159 1645 25 1370 25 
C 947 25 518 320 403 814 
C 429 807 480 795 506 795 
C 589 795 749 840 749 1038 
C 749 1210 627 1280 506 1280 
C 358 1280 262 1190 262 1011 
C 262 454 704 -128 1382 -128 
C 2042 -128 2669 440 2669 1264 
C 2669 2030 2170 2624 1549 2624 
C 1222 2624 947 2503 730 2274 
L 730 3692 
z
" transform="scale(0.015625)"/>
       </defs>
       <use xlink:href="#CMR17-35" transform="scale(0.996264)"/>
      </g>
     </g>
    </g>
    <g id="xtick_3">
     <g id="line2d_5">
      <g>
       <use xlink:href="#m4c26079666" x="137.620858" y="143.473719" style="stroke: #000000; stroke-width: 0.5"/>
      </g>
     </g>
     <g id="line2d_6">
      <g>
       <use xlink:href="#mb99688300b" x="137.620858" y="3.6" style="stroke: #000000; stroke-width: 0.5"/>
      </g>
     </g>
     <g id="text_3">
      <!-- $\mathdefault{10}$ -->
      <g transform="translate(132.639523 153.892218) scale(0.1 -0.1)">
       <defs>
        <path id="CMR17-31" d="M 1702 4058 
C 1702 4192 1696 4192 1606 4192 
C 1357 3916 979 3827 621 3827 
C 602 3827 570 3827 563 3808 
C 557 3795 557 3782 557 3648 
C 755 3648 1088 3686 1344 3839 
L 1344 461 
C 1344 236 1331 160 781 160 
L 589 160 
L 589 0 
C 896 0 1216 0 1523 0 
C 1830 0 2150 0 2458 0 
L 2458 160 
L 2266 160 
C 1715 160 1702 230 1702 458 
L 1702 4058 
z
" transform="scale(0.015625)"/>
       </defs>
       <use xlink:href="#CMR17-31" transform="scale(0.996264)"/>
       <use xlink:href="#CMR17-30" transform="translate(45.690477 0) scale(0.996264)"/>
      </g>
     </g>
    </g>
    <g id="xtick_4">
     <g id="line2d_7">
      <g>
       <use xlink:href="#m4c26079666" x="186.833894" y="143.473719" style="stroke: #000000; stroke-width: 0.5"/>
      </g>
     </g>
     <g id="line2d_8">
      <g>
       <use xlink:href="#mb99688300b" x="186.833894" y="3.6" style="stroke: #000000; stroke-width: 0.5"/>
      </g>
     </g>
     <g id="text_4">
      <!-- $\mathdefault{15}$ -->
      <g transform="translate(181.852559 153.892218) scale(0.1 -0.1)">
       <use xlink:href="#CMR17-31" transform="scale(0.996264)"/>
       <use xlink:href="#CMR17-35" transform="translate(45.690477 0) scale(0.996264)"/>
      </g>
     </g>
    </g>
    <g id="xtick_5">
     <g id="line2d_9">
      <defs>
       <path id="m7ac4ce2419" d="M 0 0 
L 0 -1.5 
" style="stroke: #000000; stroke-width: 0.5"/>
      </defs>
      <g>
       <use xlink:href="#m7ac4ce2419" x="49.037393" y="143.473719" style="stroke: #000000; stroke-width: 0.5"/>
      </g>
     </g>
     <g id="line2d_10">
      <defs>
       <path id="m3773a0a57e" d="M 0 0 
L 0 1.5 
" style="stroke: #000000; stroke-width: 0.5"/>
      </defs>
      <g>
       <use xlink:href="#m3773a0a57e" x="49.037393" y="3.6" style="stroke: #000000; stroke-width: 0.5"/>
      </g>
     </g>
    </g>
    <g id="xtick_6">
     <g id="line2d_11">
      <g>
       <use xlink:href="#m7ac4ce2419" x="58.88" y="143.473719" style="stroke: #000000; stroke-width: 0.5"/>
      </g>
     </g>
     <g id="line2d_12">
      <g>
       <use xlink:href="#m3773a0a57e" x="58.88" y="3.6" style="stroke: #000000; stroke-width: 0.5"/>
      </g>
     </g>
    </g>
    <g id="xtick_7">
     <g id="line2d_13">
      <g>
       <use xlink:href="#m7ac4ce2419" x="68.722608" y="143.473719" style="stroke: #000000; stroke-width: 0.5"/>
      </g>
     </g>
     <g id="line2d_14">
      <g>
       <use xlink:href="#m3773a0a57e" x="68.722608" y="3.6" style="stroke: #000000; stroke-width: 0.5"/>
      </g>
     </g>
    </g>
    <g id="xtick_8">
     <g id="line2d_15">
      <g>
       <use xlink:href="#m7ac4ce2419" x="78.565215" y="143.473719" style="stroke: #000000; stroke-width: 0.5"/>
      </g>
     </g>
     <g id="line2d_16">
      <g>
       <use xlink:href="#m3773a0a57e" x="78.565215" y="3.6" style="stroke: #000000; stroke-width: 0.5"/>
      </g>
     </g>
    </g>
    <g id="xtick_9">
     <g id="line2d_17">
      <g>
       <use xlink:href="#m7ac4ce2419" x="98.250429" y="143.473719" style="stroke: #000000; stroke-width: 0.5"/>
      </g>
     </g>
     <g id="line2d_18">
      <g>
       <use xlink:href="#m3773a0a57e" x="98.250429" y="3.6" style="stroke: #000000; stroke-width: 0.5"/>
      </g>
     </g>
    </g>
    <g id="xtick_10">
     <g id="line2d_19">
      <g>
       <use xlink:href="#m7ac4ce2419" x="108.093037" y="143.473719" style="stroke: #000000; stroke-width: 0.5"/>
      </g>
     </g>
     <g id="line2d_20">
      <g>
       <use xlink:href="#m3773a0a57e" x="108.093037" y="3.6" style="stroke: #000000; stroke-width: 0.5"/>
      </g>
     </g>
    </g>
    <g id="xtick_11">
     <g id="line2d_21">
      <g>
       <use xlink:href="#m7ac4ce2419" x="117.935644" y="143.473719" style="stroke: #000000; stroke-width: 0.5"/>
      </g>
     </g>
     <g id="line2d_22">
      <g>
       <use xlink:href="#m3773a0a57e" x="117.935644" y="3.6" style="stroke: #000000; stroke-width: 0.5"/>
      </g>
     </g>
    </g>
    <g id="xtick_12">
     <g id="line2d_23">
      <g>
       <use xlink:href="#m7ac4ce2419" x="127.778251" y="143.473719" style="stroke: #000000; stroke-width: 0.5"/>
      </g>
     </g>
     <g id="line2d_24">
      <g>
       <use xlink:href="#m3773a0a57e" x="127.778251" y="3.6" style="stroke: #000000; stroke-width: 0.5"/>
      </g>
     </g>
    </g>
    <g id="xtick_13">
     <g id="line2d_25">
      <g>
       <use xlink:href="#m7ac4ce2419" x="147.463465" y="143.473719" style="stroke: #000000; stroke-width: 0.5"/>
      </g>
     </g>
     <g id="line2d_26">
      <g>
       <use xlink:href="#m3773a0a57e" x="147.463465" y="3.6" style="stroke: #000000; stroke-width: 0.5"/>
      </g>
     </g>
    </g>
    <g id="xtick_14">
     <g id="line2d_27">
      <g>
       <use xlink:href="#m7ac4ce2419" x="157.306073" y="143.473719" style="stroke: #000000; stroke-width: 0.5"/>
      </g>
     </g>
     <g id="line2d_28">
      <g>
       <use xlink:href="#m3773a0a57e" x="157.306073" y="3.6" style="stroke: #000000; stroke-width: 0.5"/>
      </g>
     </g>
    </g>
    <g id="xtick_15">
     <g id="line2d_29">
      <g>
       <use xlink:href="#m7ac4ce2419" x="167.14868" y="143.473719" style="stroke: #000000; stroke-width: 0.5"/>
      </g>
     </g>
     <g id="line2d_30">
      <g>
       <use xlink:href="#m3773a0a57e" x="167.14868" y="3.6" style="stroke: #000000; stroke-width: 0.5"/>
      </g>
     </g>
    </g>
    <g id="xtick_16">
     <g id="line2d_31">
      <g>
       <use xlink:href="#m7ac4ce2419" x="176.991287" y="143.473719" style="stroke: #000000; stroke-width: 0.5"/>
      </g>
     </g>
     <g id="line2d_32">
      <g>
       <use xlink:href="#m3773a0a57e" x="176.991287" y="3.6" style="stroke: #000000; stroke-width: 0.5"/>
      </g>
     </g>
    </g>
    <g id="xtick_17">
     <g id="line2d_33">
      <g>
       <use xlink:href="#m7ac4ce2419" x="196.676502" y="143.473719" style="stroke: #000000; stroke-width: 0.5"/>
      </g>
     </g>
     <g id="line2d_34">
      <g>
       <use xlink:href="#m3773a0a57e" x="196.676502" y="3.6" style="stroke: #000000; stroke-width: 0.5"/>
      </g>
     </g>
    </g>
    <g id="xtick_18">
     <g id="line2d_35">
      <g>
       <use xlink:href="#m7ac4ce2419" x="206.519109" y="143.473719" style="stroke: #000000; stroke-width: 0.5"/>
      </g>
     </g>
     <g id="line2d_36">
      <g>
       <use xlink:href="#m3773a0a57e" x="206.519109" y="3.6" style="stroke: #000000; stroke-width: 0.5"/>
      </g>
     </g>
    </g>
    <g id="xtick_19">
     <g id="line2d_37">
      <g>
       <use xlink:href="#m7ac4ce2419" x="216.361716" y="143.473719" style="stroke: #000000; stroke-width: 0.5"/>
      </g>
     </g>
     <g id="line2d_38">
      <g>
       <use xlink:href="#m3773a0a57e" x="216.361716" y="3.6" style="stroke: #000000; stroke-width: 0.5"/>
      </g>
     </g>
    </g>
    <g id="xtick_20">
     <g id="line2d_39">
      <g>
       <use xlink:href="#m7ac4ce2419" x="226.204323" y="143.473719" style="stroke: #000000; stroke-width: 0.5"/>
      </g>
     </g>
     <g id="line2d_40">
      <g>
       <use xlink:href="#m3773a0a57e" x="226.204323" y="3.6" style="stroke: #000000; stroke-width: 0.5"/>
      </g>
     </g>
    </g>
    <g id="text_5">
     <!-- $k$ [1/$\AA$] -->
     <g transform="translate(116.063886 168.50934) scale(0.1 -0.1)">
      <defs>
       <path id="CMMI12-6b" d="M 1798 4257 
C 1805 4283 1818 4321 1818 4352 
C 1818 4416 1754 4416 1741 4416 
C 1734 4416 1504 4393 1389 4377 
C 1280 4377 1184 4358 1069 4358 
C 915 4345 870 4339 870 4224 
C 870 4160 934 4160 998 4160 
C 1325 4160 1325 4103 1325 4040 
C 1325 4015 1325 4002 1293 3888 
L 378 248 
C 352 152 352 140 352 101 
C 352 -38 461 -64 525 -64 
C 704 -64 742 77 794 275 
L 1094 1469 
C 1555 1418 1830 1226 1830 920 
C 1830 881 1830 856 1811 760 
C 1786 664 1786 588 1786 556 
C 1786 185 2029 -64 2355 -64 
C 2650 -64 2803 204 2854 294 
C 2989 530 3072 888 3072 913 
C 3072 945 3046 971 3008 971 
C 2950 971 2944 945 2918 843 
C 2829 511 2694 64 2368 64 
C 2240 64 2157 128 2157 370 
C 2157 492 2182 632 2208 728 
C 2234 843 2234 849 2234 926 
C 2234 1303 1894 1514 1306 1590 
C 1536 1731 1766 1980 1856 2076 
C 2221 2484 2470 2689 2765 2689 
C 2912 2689 2950 2650 2995 2612 
C 2758 2586 2669 2420 2669 2293 
C 2669 2139 2790 2088 2880 2088 
C 3053 2088 3206 2235 3206 2440 
C 3206 2625 3059 2816 2771 2816 
C 2419 2816 2131 2567 1677 2056 
C 1613 1980 1376 1737 1139 1648 
L 1798 4257 
z
" transform="scale(0.015625)"/>
       <path id="CMR17-5b" d="M 1504 -1600 
L 1504 -1377 
L 902 -1377 
L 902 4544 
L 1504 4544 
L 1504 4767 
L 678 4767 
L 678 -1600 
L 1504 -1600 
z
" transform="scale(0.015625)"/>
       <path id="CMR17-2f" d="M 2605 4545 
C 2637 4627 2637 4640 2637 4653 
C 2637 4729 2579 4768 2528 4768 
C 2451 4768 2426 4717 2400 4640 
L 326 -1377 
C 294 -1460 294 -1473 294 -1486 
C 294 -1562 352 -1600 403 -1600 
C 480 -1600 506 -1549 531 -1473 
L 2605 4545 
z
" transform="scale(0.015625)"/>
       <path id="CMR17-17" d="M 2771 3955 
C 2771 4275 2515 4518 2214 4518 
C 1914 4518 1658 4275 1658 3955 
C 1658 3635 1914 3392 2214 3392 
C 2515 3392 2771 3635 2771 3955 
z
M 2214 3494 
C 1946 3494 1773 3660 1773 3956 
C 1773 4256 1952 4416 2214 4416 
C 2483 4416 2656 4250 2656 3956 
C 2656 3654 2477 3494 2214 3494 
z
" transform="scale(0.015625)"/>
       <path id="CMMI12-41" d="M 1088 691 
C 864 314 646 186 339 186 
C 269 180 218 180 218 58 
C 218 24 250 0 294 0 
C 410 0 698 0 813 0 
C 998 0 1203 0 1382 0 
C 1421 0 1498 0 1498 122 
C 1498 180 1446 186 1408 186 
C 1261 186 1139 236 1139 388 
C 1139 476 1178 546 1261 685 
L 1747 1479 
L 3379 1479 
C 3386 1423 3386 1373 3392 1316 
C 3411 1152 3488 495 3488 376 
C 3488 186 3162 186 3059 186 
C 2989 186 2918 186 2918 70 
C 2918 0 2976 0 3014 0 
C 3123 0 3251 0 3360 0 
L 3725 0 
C 4115 0 4397 0 4403 0 
C 4448 0 4518 0 4518 122 
C 4518 186 4461 186 4365 186 
C 4013 186 4006 244 3987 434 
L 3597 4404 
C 3584 4531 3558 4544 3488 4544 
C 3424 4544 3386 4531 3328 4435 
L 1088 691 
z
M 1856 1664 
L 3142 3819 
L 3360 1664 
L 1856 1664 
z
" transform="scale(0.015625)"/>
       <path id="CMR17-5d" d="M 915 4767 
L 90 4767 
L 90 4544 
L 691 4544 
L 691 -1377 
L 90 -1377 
L 90 -1600 
L 915 -1600 
L 915 4767 
z
" transform="scale(0.015625)"/>
      </defs>
      <use xlink:href="#CMMI12-6b" transform="scale(0.996264)"/>
      <use xlink:href="#CMR17-5b" transform="translate(84.155167 0) scale(0.996264)"/>
      <use xlink:href="#CMR17-31" transform="translate(109.026226 0) scale(0.996264)"/>
      <use xlink:href="#CMR17-2f" transform="translate(154.716703 0) scale(0.996264)"/>
      <use xlink:href="#CMR17-17" transform="translate(200.40718 17.618744) scale(0.996264)"/>
      <use xlink:href="#CMMI12-41" transform="translate(200.40718 0) scale(0.996264)"/>
      <use xlink:href="#CMR17-5d" transform="translate(273.535065 0) scale(0.996264)"/>
     </g>
    </g>
   </g>
   <g id="matplotlib.axis_2">
    <g id="ytick_1">
     <g id="line2d_41">
      <defs>
       <path id="m0302732f08" d="M 0 0 
L 3 0 
" style="stroke: #000000; stroke-width: 0.5"/>
      </defs>
      <g>
       <use xlink:href="#m0302732f08" x="29.918347" y="137.121099" style="stroke: #000000; stroke-width: 0.5"/>
      </g>
     </g>
     <g id="line2d_42">
      <defs>
       <path id="m795d857372" d="M 0 0 
L -3 0 
" style="stroke: #000000; stroke-width: 0.5"/>
      </defs>
      <g>
       <use xlink:href="#m795d857372" x="234" y="137.121099" style="stroke: #000000; stroke-width: 0.5"/>
      </g>
     </g>
     <g id="text_6">
      <!-- $\mathdefault{0}$ -->
      <g transform="translate(21.437012 140.580348) scale(0.1 -0.1)">
       <use xlink:href="#CMR17-30" transform="scale(0.996264)"/>
      </g>
     </g>
    </g>
    <g id="ytick_2">
     <g id="line2d_43">
      <g>
       <use xlink:href="#m0302732f08" x="29.918347" y="101.797987" style="stroke: #000000; stroke-width: 0.5"/>
      </g>
     </g>
     <g id="line2d_44">
      <g>
       <use xlink:href="#m795d857372" x="234" y="101.797987" style="stroke: #000000; stroke-width: 0.5"/>
      </g>
     </g>
     <g id="text_7">
      <!-- $\mathdefault{10}$ -->
      <g transform="translate(16.455677 105.257236) scale(0.1 -0.1)">
       <use xlink:href="#CMR17-31" transform="scale(0.996264)"/>
       <use xlink:href="#CMR17-30" transform="translate(45.690477 0) scale(0.996264)"/>
      </g>
     </g>
    </g>
    <g id="ytick_3">
     <g id="line2d_45">
      <g>
       <use xlink:href="#m0302732f08" x="29.918347" y="66.474875" style="stroke: #000000; stroke-width: 0.5"/>
      </g>
     </g>
     <g id="line2d_46">
      <g>
       <use xlink:href="#m795d857372" x="234" y="66.474875" style="stroke: #000000; stroke-width: 0.5"/>
      </g>
     </g>
     <g id="text_8">
      <!-- $\mathdefault{20}$ -->
      <g transform="translate(16.455677 69.934125) scale(0.1 -0.1)">
       <defs>
        <path id="CMR17-32" d="M 2669 989 
L 2554 989 
C 2490 536 2438 459 2413 420 
C 2381 369 1920 369 1830 369 
L 602 369 
C 832 619 1280 1072 1824 1597 
C 2214 1967 2669 2402 2669 3035 
C 2669 3790 2067 4224 1395 4224 
C 691 4224 262 3604 262 3030 
C 262 2780 448 2748 525 2748 
C 589 2748 781 2787 781 3010 
C 781 3207 614 3264 525 3264 
C 486 3264 448 3258 422 3245 
C 544 3790 915 4058 1306 4058 
C 1862 4058 2227 3617 2227 3035 
C 2227 2479 1901 2000 1536 1584 
L 262 146 
L 262 0 
L 2515 0 
L 2669 989 
z
" transform="scale(0.015625)"/>
       </defs>
       <use xlink:href="#CMR17-32" transform="scale(0.996264)"/>
       <use xlink:href="#CMR17-30" transform="translate(45.690477 0) scale(0.996264)"/>
      </g>
     </g>
    </g>
    <g id="ytick_4">
     <g id="line2d_47">
      <g>
       <use xlink:href="#m0302732f08" x="29.918347" y="31.151763" style="stroke: #000000; stroke-width: 0.5"/>
      </g>
     </g>
     <g id="line2d_48">
      <g>
       <use xlink:href="#m795d857372" x="234" y="31.151763" style="stroke: #000000; stroke-width: 0.5"/>
      </g>
     </g>
     <g id="text_9">
      <!-- $\mathdefault{30}$ -->
      <g transform="translate(16.455677 34.611013) scale(0.1 -0.1)">
       <defs>
        <path id="CMR17-33" d="M 1414 2157 
C 1984 2157 2234 1662 2234 1090 
C 2234 320 1824 25 1453 25 
C 1114 25 563 194 390 693 
C 422 680 454 680 486 680 
C 640 680 755 782 755 948 
C 755 1133 614 1216 486 1216 
C 378 1216 211 1165 211 926 
C 211 335 787 -128 1466 -128 
C 2176 -128 2720 430 2720 1085 
C 2720 1707 2208 2157 1600 2227 
C 2086 2328 2554 2756 2554 3329 
C 2554 3820 2048 4179 1472 4179 
C 890 4179 378 3829 378 3329 
C 378 3110 544 3072 627 3072 
C 762 3072 877 3155 877 3321 
C 877 3486 762 3569 627 3569 
C 602 3569 570 3569 544 3557 
C 730 3959 1235 4032 1459 4032 
C 1683 4032 2106 3925 2106 3320 
C 2106 3143 2080 2828 1862 2550 
C 1670 2304 1453 2304 1242 2284 
C 1210 2284 1062 2269 1037 2269 
C 992 2263 966 2257 966 2208 
C 966 2163 973 2157 1101 2157 
L 1414 2157 
z
" transform="scale(0.015625)"/>
       </defs>
       <use xlink:href="#CMR17-33" transform="scale(0.996264)"/>
       <use xlink:href="#CMR17-30" transform="translate(45.690477 0) scale(0.996264)"/>
      </g>
     </g>
    </g>
    <g id="ytick_5">
     <g id="line2d_49">
      <defs>
       <path id="mf493365cd8" d="M 0 0 
L 1.5 0 
" style="stroke: #000000; stroke-width: 0.5"/>
      </defs>
      <g>
       <use xlink:href="#mf493365cd8" x="29.918347" y="130.056477" style="stroke: #000000; stroke-width: 0.5"/>
      </g>
     </g>
     <g id="line2d_50">
      <defs>
       <path id="m2b3f88928f" d="M 0 0 
L -1.5 0 
" style="stroke: #000000; stroke-width: 0.5"/>
      </defs>
      <g>
       <use xlink:href="#m2b3f88928f" x="234" y="130.056477" style="stroke: #000000; stroke-width: 0.5"/>
      </g>
     </g>
    </g>
    <g id="ytick_6">
     <g id="line2d_51">
      <g>
       <use xlink:href="#mf493365cd8" x="29.918347" y="122.991854" style="stroke: #000000; stroke-width: 0.5"/>
      </g>
     </g>
     <g id="line2d_52">
      <g>
       <use xlink:href="#m2b3f88928f" x="234" y="122.991854" style="stroke: #000000; stroke-width: 0.5"/>
      </g>
     </g>
    </g>
    <g id="ytick_7">
     <g id="line2d_53">
      <g>
       <use xlink:href="#mf493365cd8" x="29.918347" y="115.927232" style="stroke: #000000; stroke-width: 0.5"/>
      </g>
     </g>
     <g id="line2d_54">
      <g>
       <use xlink:href="#m2b3f88928f" x="234" y="115.927232" style="stroke: #000000; stroke-width: 0.5"/>
      </g>
     </g>
    </g>
    <g id="ytick_8">
     <g id="line2d_55">
      <g>
       <use xlink:href="#mf493365cd8" x="29.918347" y="108.86261" style="stroke: #000000; stroke-width: 0.5"/>
      </g>
     </g>
     <g id="line2d_56">
      <g>
       <use xlink:href="#m2b3f88928f" x="234" y="108.86261" style="stroke: #000000; stroke-width: 0.5"/>
      </g>
     </g>
    </g>
    <g id="ytick_9">
     <g id="line2d_57">
      <g>
       <use xlink:href="#mf493365cd8" x="29.918347" y="94.733365" style="stroke: #000000; stroke-width: 0.5"/>
      </g>
     </g>
     <g id="line2d_58">
      <g>
       <use xlink:href="#m2b3f88928f" x="234" y="94.733365" style="stroke: #000000; stroke-width: 0.5"/>
      </g>
     </g>
    </g>
    <g id="ytick_10">
     <g id="line2d_59">
      <g>
       <use xlink:href="#mf493365cd8" x="29.918347" y="87.668743" style="stroke: #000000; stroke-width: 0.5"/>
      </g>
     </g>
     <g id="line2d_60">
      <g>
       <use xlink:href="#m2b3f88928f" x="234" y="87.668743" style="stroke: #000000; stroke-width: 0.5"/>
      </g>
     </g>
    </g>
    <g id="ytick_11">
     <g id="line2d_61">
      <g>
       <use xlink:href="#mf493365cd8" x="29.918347" y="80.60412" style="stroke: #000000; stroke-width: 0.5"/>
      </g>
     </g>
     <g id="line2d_62">
      <g>
       <use xlink:href="#m2b3f88928f" x="234" y="80.60412" style="stroke: #000000; stroke-width: 0.5"/>
      </g>
     </g>
    </g>
    <g id="ytick_12">
     <g id="line2d_63">
      <g>
       <use xlink:href="#mf493365cd8" x="29.918347" y="73.539498" style="stroke: #000000; stroke-width: 0.5"/>
      </g>
     </g>
     <g id="line2d_64">
      <g>
       <use xlink:href="#m2b3f88928f" x="234" y="73.539498" style="stroke: #000000; stroke-width: 0.5"/>
      </g>
     </g>
    </g>
    <g id="ytick_13">
     <g id="line2d_65">
      <g>
       <use xlink:href="#mf493365cd8" x="29.918347" y="59.410253" style="stroke: #000000; stroke-width: 0.5"/>
      </g>
     </g>
     <g id="line2d_66">
      <g>
       <use xlink:href="#m2b3f88928f" x="234" y="59.410253" style="stroke: #000000; stroke-width: 0.5"/>
      </g>
     </g>
    </g>
    <g id="ytick_14">
     <g id="line2d_67">
      <g>
       <use xlink:href="#mf493365cd8" x="29.918347" y="52.345631" style="stroke: #000000; stroke-width: 0.5"/>
      </g>
     </g>
     <g id="line2d_68">
      <g>
       <use xlink:href="#m2b3f88928f" x="234" y="52.345631" style="stroke: #000000; stroke-width: 0.5"/>
      </g>
     </g>
    </g>
    <g id="ytick_15">
     <g id="line2d_69">
      <g>
       <use xlink:href="#mf493365cd8" x="29.918347" y="45.281008" style="stroke: #000000; stroke-width: 0.5"/>
      </g>
     </g>
     <g id="line2d_70">
      <g>
       <use xlink:href="#m2b3f88928f" x="234" y="45.281008" style="stroke: #000000; stroke-width: 0.5"/>
      </g>
     </g>
    </g>
    <g id="ytick_16">
     <g id="line2d_71">
      <g>
       <use xlink:href="#mf493365cd8" x="29.918347" y="38.216386" style="stroke: #000000; stroke-width: 0.5"/>
      </g>
     </g>
     <g id="line2d_72">
      <g>
       <use xlink:href="#m2b3f88928f" x="234" y="38.216386" style="stroke: #000000; stroke-width: 0.5"/>
      </g>
     </g>
    </g>
    <g id="ytick_17">
     <g id="line2d_73">
      <g>
       <use xlink:href="#mf493365cd8" x="29.918347" y="24.087141" style="stroke: #000000; stroke-width: 0.5"/>
      </g>
     </g>
     <g id="line2d_74">
      <g>
       <use xlink:href="#m2b3f88928f" x="234" y="24.087141" style="stroke: #000000; stroke-width: 0.5"/>
      </g>
     </g>
    </g>
    <g id="ytick_18">
     <g id="line2d_75">
      <g>
       <use xlink:href="#mf493365cd8" x="29.918347" y="17.022519" style="stroke: #000000; stroke-width: 0.5"/>
      </g>
     </g>
     <g id="line2d_76">
      <g>
       <use xlink:href="#m2b3f88928f" x="234" y="17.022519" style="stroke: #000000; stroke-width: 0.5"/>
      </g>
     </g>
    </g>
    <g id="ytick_19">
     <g id="line2d_77">
      <g>
       <use xlink:href="#mf493365cd8" x="29.918347" y="9.957896" style="stroke: #000000; stroke-width: 0.5"/>
      </g>
     </g>
     <g id="line2d_78">
      <g>
       <use xlink:href="#m2b3f88928f" x="234" y="9.957896" style="stroke: #000000; stroke-width: 0.5"/>
      </g>
     </g>
    </g>
    <g id="text_10">
     <!-- $F$ -->
     <g transform="translate(10.518498 76.740126) rotate(-90) scale(0.1 -0.1)">
      <defs>
       <path id="CMMI12-46" d="M 1901 2055 
L 2515 2055 
C 3002 2055 3040 1946 3040 1761 
C 3040 1678 3027 1589 2995 1448 
C 2982 1423 2976 1391 2976 1378 
C 2976 1333 3002 1308 3046 1308 
C 3098 1308 3104 1333 3130 1435 
L 3501 2935 
C 3501 2961 3482 2999 3437 2999 
C 3379 2999 3373 2974 3347 2863 
C 3213 2376 3085 2240 2528 2240 
L 1946 2240 
L 2362 3926 
C 2419 4154 2432 4154 2694 4154 
L 3552 4154 
C 4352 4154 4467 3918 4467 3464 
C 4467 3426 4467 3285 4448 3119 
C 4442 3094 4429 3011 4429 2985 
C 4429 2934 4461 2915 4499 2915 
C 4544 2915 4570 2941 4582 3055 
L 4717 4174 
C 4717 4195 4730 4263 4730 4277 
C 4730 4352 4672 4352 4557 4352 
L 1523 4352 
C 1402 4352 1338 4352 1338 4229 
C 1338 4154 1382 4154 1491 4154 
C 1888 4154 1888 4113 1888 4050 
C 1888 4018 1882 3992 1862 3922 
L 998 473 
C 941 249 928 185 480 185 
C 358 185 294 185 294 70 
C 294 0 352 0 390 0 
C 512 0 640 0 762 0 
L 1594 0 
C 1734 0 1888 0 2029 0 
C 2086 0 2163 0 2163 115 
C 2163 185 2125 185 1984 185 
C 1478 185 1466 229 1466 324 
C 1466 356 1478 406 1491 449 
L 1901 2055 
z
" transform="scale(0.015625)"/>
      </defs>
      <use xlink:href="#CMMI12-46" transform="scale(0.996264)"/>
     </g>
    </g>
   </g>
   <g id="line2d_79">
    <path d="M 39.194786 133.588788 
L 43.84463 133.696633 
L 49.424443 134.068005 
L 60.584068 135.126029 
L 69.418772 135.839424 
L 78.253476 136.321984 
L 88.948117 136.666929 
L 103.827617 136.902386 
L 128.936775 137.045153 
L 190.314716 137.109569 
L 224.723561 137.115823 
L 224.723561 137.115823 
" clip-path="url(#p43f49e734c)" style="fill: none; stroke: #0c5da5; stroke-linecap: square"/>
   </g>
   <g id="line2d_80">
    <path d="M 39.194786 130.056477 
L 45.239583 130.168995 
L 51.749365 130.52323 
L 59.6541 131.200297 
L 74.068616 132.729033 
L 87.088179 134.00607 
L 97.78282 134.833022 
L 109.40743 135.49977 
L 122.426993 136.015735 
L 138.701447 136.42428 
L 160.09073 136.725139 
L 192.174653 136.935053 
L 224.723561 137.025414 
L 224.723561 137.025414 
" clip-path="url(#p43f49e734c)" style="fill: none; stroke: #0c5da5; stroke-linecap: square"/>
   </g>
   <g id="line2d_81">
    <path d="M 39.194786 126.524166 
L 41.519708 126.655118 
L 43.84463 127.023 
L 47.099521 127.805249 
L 54.074287 129.572987 
L 57.794162 130.21684 
L 61.979022 130.675441 
L 68.023819 131.062634 
L 86.623195 132.127365 
L 120.567056 134.304818 
L 136.84151 135.058451 
L 154.975901 135.667634 
L 176.365184 136.151108 
L 203.334279 136.524096 
L 224.723561 136.705275 
L 224.723561 136.705275 
" clip-path="url(#p43f49e734c)" style="fill: none; stroke: #0c5da5; stroke-linecap: square"/>
   </g>
   <g id="line2d_82">
    <path d="M 39.194786 122.991854 
L 41.519708 123.119627 
L 43.84463 123.490306 
L 46.634536 124.204219 
L 49.889427 125.288935 
L 58.724131 128.381575 
L 62.444006 129.363048 
L 66.163881 130.080096 
L 69.883756 130.566085 
L 74.5336 130.93782 
L 81.508366 131.233397 
L 104.757586 132.064917 
L 167.065496 134.854126 
L 190.314716 135.499193 
L 217.283811 136.014284 
L 224.723561 136.122749 
L 224.723561 136.122749 
" clip-path="url(#p43f49e734c)" style="fill: none; stroke: #0c5da5; stroke-linecap: square"/>
   </g>
   <g id="line2d_83">
    <path d="M 39.194786 119.459543 
L 41.519708 119.579844 
L 43.84463 119.932597 
L 46.169552 120.494404 
L 48.959458 121.393577 
L 52.679334 122.847181 
L 62.444006 126.810632 
L 66.163881 128.029817 
L 69.883756 129.009483 
L 73.603632 129.757255 
L 77.788491 130.359925 
L 82.438335 130.80162 
L 88.483132 131.14142 
L 98.712789 131.446353 
L 122.426993 132.116351 
L 155.440886 133.386971 
L 185.199887 134.413797 
L 213.098951 135.148418 
L 224.723561 135.393382 
L 224.723561 135.393382 
" clip-path="url(#p43f49e734c)" style="fill: none; stroke: #0c5da5; stroke-linecap: square"/>
   </g>
   <g id="line2d_84">
    <path d="M 39.194786 115.927232 
L 41.519708 116.035727 
L 43.84463 116.356069 
L 46.634536 116.998426 
L 49.424443 117.882208 
L 52.679334 119.145858 
L 57.794162 121.415464 
L 65.233912 124.712182 
L 69.418772 126.319396 
L 73.138647 127.530373 
L 76.858522 128.526639 
L 81.043382 129.405309 
L 85.228241 130.060615 
L 90.34307 130.619722 
L 96.387867 131.035504 
L 104.757586 131.355997 
L 122.891978 131.743411 
L 146.606182 132.349752 
L 224.723561 134.631755 
L 224.723561 134.631755 
" clip-path="url(#p43f49e734c)" style="fill: none; stroke: #0c5da5; stroke-linecap: square"/>
   </g>
   <g id="line2d_85">
    <path d="M 39.194786 112.394921 
L 41.519708 112.492308 
L 43.84463 112.781089 
L 46.634536 113.365891 
L 49.424443 114.183601 
L 52.679334 115.381275 
L 56.864193 117.19744 
L 73.138647 124.622256 
L 77.323507 126.143708 
L 81.508366 127.422922 
L 85.693226 128.46464 
L 89.878085 129.289333 
L 94.527929 129.986694 
L 100.107742 130.57971 
L 106.617524 131.027179 
L 114.987243 131.361827 
L 128.936775 131.658296 
L 165.205558 132.380573 
L 224.723561 133.926377 
L 224.723561 133.926377 
" clip-path="url(#p43f49e734c)" style="fill: none; stroke: #0c5da5; stroke-linecap: square"/>
   </g>
   <g id="line2d_86">
    <path d="M 39.194786 108.86261 
L 41.984692 108.988933 
L 44.774599 109.363118 
L 47.564505 109.971157 
L 50.354412 110.790824 
L 53.609302 111.97572 
L 57.329178 113.564894 
L 62.444006 116.005541 
L 74.068616 121.631516 
L 78.71846 123.605869 
L 83.368304 125.328041 
L 87.553163 126.647506 
L 91.738023 127.752531 
L 96.387867 128.747409 
L 101.502695 129.593505 
L 107.082508 130.271802 
L 113.59229 130.815854 
L 121.497025 131.229046 
L 132.191666 131.539721 
L 154.045933 131.886109 
L 187.524809 132.488958 
L 224.723561 133.329011 
L 224.723561 133.329011 
" clip-path="url(#p43f49e734c)" style="fill: none; stroke: #0c5da5; stroke-linecap: square"/>
   </g>
   <g id="line2d_87">
    <path d="M 39.194786 105.330298 
L 41.984692 105.444991 
L 44.774599 105.78566 
L 47.564505 106.342269 
L 50.819396 107.242801 
L 54.074287 108.380828 
L 57.794162 109.918901 
L 62.444006 112.097002 
L 71.27871 116.561831 
L 78.253476 119.960184 
L 83.368304 122.206925 
L 88.018148 124.012882 
L 92.667992 125.5753 
L 97.317836 126.895223 
L 101.96768 127.98668 
L 107.082508 128.950079 
L 112.662321 129.75806 
L 118.707118 130.400887 
L 125.681884 130.914033 
L 134.516588 131.322003 
L 146.606182 131.629514 
L 171.250355 131.968514 
L 208.914092 132.55917 
L 224.723561 132.862782 
L 224.723561 132.862782 
" clip-path="url(#p43f49e734c)" style="fill: none; stroke: #0c5da5; stroke-linecap: square"/>
   </g>
   <g id="line2d_88">
    <path d="M 39.194786 101.797987 
L 41.984692 101.902834 
L 44.774599 102.214864 
L 47.564505 102.726667 
L 50.819396 103.560049 
L 54.074287 104.623014 
L 57.794162 106.077961 
L 61.979022 107.956123 
L 67.558834 110.721312 
L 83.368304 118.712612 
L 88.483132 120.98824 
L 93.597961 123.013426 
L 98.247805 124.621069 
L 102.897649 126.006261 
L 108.012477 127.285333 
L 113.127305 128.330243 
L 118.707118 129.236067 
L 124.751915 129.985641 
L 131.726681 130.612103 
L 139.631416 131.092441 
L 149.861073 131.473117 
L 164.275589 131.760314 
L 224.723561 132.529221 
L 224.723561 132.529221 
" clip-path="url(#p43f49e734c)" style="fill: none; stroke: #0c5da5; stroke-linecap: square"/>
   </g>
   <g id="line2d_89">
    <path d="M 39.194786 98.265676 
L 41.054724 98.361973 
L 42.914661 98.644958 
L 45.239583 99.234539 
L 48.02949 100.217751 
L 51.749365 101.817127 
L 62.90899 106.783932 
L 86.15821 116.513995 
L 94.062945 119.773709 
L 100.107742 122.014489 
L 105.687555 123.83355 
L 111.267368 125.400486 
L 116.847181 126.722995 
L 122.426993 127.820285 
L 128.471791 128.783904 
L 134.981572 129.598248 
L 142.421323 130.297763 
L 150.791042 130.857605 
L 161.020699 131.31028 
L 174.505246 131.666566 
L 196.359513 131.984881 
L 224.723561 132.308381 
L 224.723561 132.308381 
" clip-path="url(#p43f49e734c)" style="fill: none; stroke: #0c5da5; stroke-linecap: square"/>
   </g>
   <g id="line2d_90">
    <path d="M 39.194786 94.733365 
L 41.054724 94.854324 
L 42.914661 95.210469 
L 44.774599 95.782307 
L 47.099521 96.753539 
L 49.889427 98.194244 
L 55.46924 101.43892 
L 59.6541 103.747238 
L 63.373975 105.532741 
L 67.09385 107.064859 
L 72.208678 108.893192 
L 86.623195 113.892155 
L 106.152539 121.01703 
L 112.197337 122.904058 
L 118.242134 124.554151 
L 124.286931 125.965204 
L 130.331728 127.151227 
L 136.84151 128.202366 
L 143.816276 129.103576 
L 151.721011 129.891637 
L 160.555714 130.54057 
L 170.785371 131.065212 
L 183.804934 131.496251 
L 201.939326 131.849647 
L 224.723561 132.132525 
L 224.723561 132.132525 
" clip-path="url(#p43f49e734c)" style="fill: none; stroke: #0c5da5; stroke-linecap: square"/>
   </g>
   <g id="line2d_91">
    <path d="M 39.194786 91.201054 
L 40.589739 91.286801 
L 42.449677 91.662099 
L 44.309614 92.31443 
L 46.169552 93.206605 
L 48.494474 94.584708 
L 51.749365 96.811518 
L 57.794162 101.009569 
L 61.049053 102.962821 
L 63.838959 104.39158 
L 67.09385 105.787414 
L 70.813725 107.101724 
L 75.928554 108.627338 
L 87.553163 112.007486 
L 95.457898 114.605266 
L 112.197337 120.204276 
L 119.172103 122.256709 
L 125.681884 123.943524 
L 132.191666 125.402229 
L 138.701447 126.642867 
L 145.676213 127.751653 
L 153.115964 128.713786 
L 161.485683 129.566497 
L 170.785371 130.283308 
L 181.480012 130.877927 
L 194.499575 131.367 
L 211.239014 131.760028 
L 224.723561 131.970053 
L 224.723561 131.970053 
" clip-path="url(#p43f49e734c)" style="fill: none; stroke: #0c5da5; stroke-linecap: square"/>
   </g>
   <g id="line2d_92">
    <path d="M 39.194786 87.668743 
L 40.589739 87.762357 
L 41.984692 88.040422 
L 43.84463 88.68321 
L 45.704568 89.605889 
L 47.564505 90.762933 
L 49.889427 92.455796 
L 54.074287 95.85 
L 58.259146 99.184599 
L 61.049053 101.163809 
L 63.838959 102.874446 
L 66.628866 104.306198 
L 69.418772 105.483555 
L 72.673663 106.597564 
L 76.858522 107.754157 
L 96.852851 112.874379 
L 106.152539 115.752705 
L 119.172103 119.755517 
L 126.611853 121.808333 
L 133.586619 123.514916 
L 140.561385 125.000873 
L 148.001135 126.351833 
L 155.90587 127.545532 
L 164.275589 128.57175 
L 173.110293 129.430791 
L 183.33995 130.191859 
L 194.96456 130.821612 
L 208.914092 131.34059 
L 224.723561 131.725403 
L 224.723561 131.725403 
" clip-path="url(#p43f49e734c)" style="fill: none; stroke: #0c5da5; stroke-linecap: square"/>
   </g>
   <g id="line2d_93">
    <path d="M 39.194786 84.136431 
L 40.589739 84.232838 
L 41.984692 84.51961 
L 43.379646 84.989513 
L 45.239583 85.880113 
L 47.099521 87.036626 
L 49.424443 88.782475 
L 52.214349 91.176429 
L 60.584068 98.588715 
L 63.373975 100.688179 
L 66.163881 102.486331 
L 68.953788 103.977255 
L 71.743694 105.186027 
L 74.5336 106.157696 
L 77.788491 107.064625 
L 82.438335 108.101419 
L 96.852851 111.135735 
L 103.362633 112.814636 
L 112.662321 115.47269 
L 127.541822 119.723776 
L 135.911541 121.856631 
L 143.351291 123.531336 
L 150.791042 124.99057 
L 158.695777 126.315372 
L 167.065496 127.487519 
L 175.900199 128.499419 
L 185.664872 129.390125 
L 196.359513 130.142015 
L 208.914092 130.793085 
L 223.793592 131.329718 
L 224.723561 131.356774 
L 224.723561 131.356774 
" clip-path="url(#p43f49e734c)" style="fill: none; stroke: #0c5da5; stroke-linecap: square"/>
   </g>
   <g id="line2d_94">
    <path d="M 39.194786 80.60412 
L 40.589739 80.700576 
L 41.984692 80.987853 
L 43.379646 81.459765 
L 45.239583 82.358289 
L 47.099521 83.533449 
L 49.424443 85.326438 
L 52.214349 87.825633 
L 57.329178 92.834988 
L 61.514037 96.778348 
L 64.303944 99.121324 
L 67.09385 101.161644 
L 69.418772 102.614753 
L 71.743694 103.847612 
L 74.5336 105.060268 
L 77.323507 106.023491 
L 80.578398 106.901463 
L 84.763257 107.770739 
L 93.132976 109.191228 
L 100.107742 110.485019 
L 106.617524 111.927164 
L 114.057274 113.814636 
L 141.956338 121.142689 
L 150.326057 122.978219 
L 158.695777 124.575463 
L 167.065496 125.94196 
L 175.900199 127.155088 
L 185.199887 128.207789 
L 195.429544 129.139421 
L 206.58917 129.933091 
L 219.608733 130.627752 
L 224.723561 130.846077 
L 224.723561 130.846077 
" clip-path="url(#p43f49e734c)" style="fill: none; stroke: #0c5da5; stroke-linecap: square"/>
   </g>
   <g id="line2d_95">
    <path d="M 39.194786 77.071809 
L 40.589739 77.166814 
L 41.984692 77.450066 
L 43.379646 77.916327 
L 45.239583 78.807474 
L 47.099521 79.979913 
L 48.959458 81.397086 
L 51.28438 83.447273 
L 54.539271 86.672546 
L 63.373975 95.692149 
L 66.163881 98.167872 
L 68.953788 100.338512 
L 71.27871 101.897082 
L 73.603632 103.229345 
L 76.393538 104.54769 
L 79.183444 105.595208 
L 81.973351 106.418166 
L 85.228241 107.161254 
L 89.878085 107.962382 
L 107.547493 110.71459 
L 114.057274 112.082534 
L 121.962009 113.981849 
L 149.861073 120.896138 
L 158.695777 122.741903 
L 167.53048 124.352849 
L 176.365184 125.735382 
L 185.664872 126.964064 
L 195.429544 128.033107 
L 206.124185 128.981813 
L 218.21378 129.823343 
L 224.723561 130.192366 
L 224.723561 130.192366 
" clip-path="url(#p43f49e734c)" style="fill: none; stroke: #0c5da5; stroke-linecap: square"/>
   </g>
   <g id="line2d_96">
    <path d="M 39.194786 73.539498 
L 40.589739 73.632245 
L 41.984692 73.908998 
L 43.379646 74.365332 
L 45.239583 75.240225 
L 47.099521 76.396886 
L 48.959458 77.80387 
L 51.28438 79.857595 
L 54.074287 82.646809 
L 58.724131 87.699793 
L 63.838959 93.183602 
L 67.09385 96.337981 
L 69.883756 98.733233 
L 72.673663 100.807645 
L 74.998585 102.28526 
L 77.323507 103.541786 
L 80.113413 104.779717 
L 82.903319 105.758679 
L 86.15821 106.632383 
L 89.878085 107.366885 
L 94.527929 108.039716 
L 111.732352 110.311321 
L 118.242134 111.511886 
L 125.681884 113.121916 
L 137.306494 115.908899 
L 152.650979 119.545223 
L 162.415652 121.619555 
L 171.71534 123.362984 
L 181.015028 124.874384 
L 190.7797 126.225564 
L 201.009357 127.40815 
L 212.168982 128.462861 
L 224.258577 129.373296 
L 224.723561 129.40411 
L 224.723561 129.40411 
" clip-path="url(#p43f49e734c)" style="fill: none; stroke: #0c5da5; stroke-linecap: square"/>
   </g>
   <g id="line2d_97">
    <path d="M 39.194786 70.007187 
L 40.589739 70.147513 
L 41.984692 70.561264 
L 43.379646 71.227625 
L 44.774599 72.114647 
L 46.634536 73.571854 
L 48.959458 75.692923 
L 54.539271 81.231944 
L 60.584068 87.061612 
L 67.558834 93.496765 
L 71.743694 97.073668 
L 74.998585 99.559664 
L 77.788491 101.424058 
L 80.578398 103.020927 
L 83.368304 104.35295 
L 86.15821 105.440255 
L 89.413101 106.441751 
L 92.667992 107.211875 
L 96.852851 107.957628 
L 102.432664 108.703441 
L 118.707118 110.747956 
L 126.146869 111.979911 
L 134.516588 113.607438 
L 146.606182 116.218894 
L 164.740574 120.116332 
L 175.435215 122.170211 
L 185.199887 123.824961 
L 194.96456 125.262152 
L 205.194216 126.545753 
L 215.888858 127.667932 
L 224.723561 128.445696 
L 224.723561 128.445696 
" clip-path="url(#p43f49e734c)" style="fill: none; stroke: #0c5da5; stroke-linecap: square"/>
   </g>
   <g id="line2d_98">
    <path d="M 39.194786 66.474875 
L 40.124755 66.551864 
L 41.519708 66.950838 
L 42.914661 67.669123 
L 44.309614 68.66838 
L 46.169552 70.348956 
L 48.494474 72.81375 
L 55.004256 79.951227 
L 57.794162 82.616991 
L 61.049053 85.424768 
L 69.883756 92.579043 
L 75.928554 97.354534 
L 79.648429 99.992776 
L 82.903319 101.997275 
L 85.693226 103.462234 
L 88.483132 104.695659 
L 91.738023 105.866846 
L 94.992914 106.792057 
L 98.712789 107.6129 
L 103.362633 108.390138 
L 109.872415 109.223855 
L 126.611853 111.267966 
L 134.981572 112.559961 
L 144.28126 114.224346 
L 158.695777 117.069225 
L 176.830168 120.603074 
L 188.454778 122.631135 
L 199.149419 124.273493 
L 209.84406 125.693381 
L 221.003686 126.948994 
L 224.723561 127.319861 
L 224.723561 127.319861 
" clip-path="url(#p43f49e734c)" style="fill: none; stroke: #0c5da5; stroke-linecap: square"/>
   </g>
   <g id="line2d_99">
    <path d="M 39.194786 62.942564 
L 40.589739 63.108952 
L 41.984692 63.599772 
L 43.379646 64.390819 
L 44.774599 65.444389 
L 46.634536 67.174347 
L 48.959458 69.680948 
L 56.399209 77.957544 
L 59.6541 81.101374 
L 63.838959 84.785745 
L 75.928554 94.967407 
L 79.648429 97.838064 
L 82.903319 100.084174 
L 85.693226 101.773165 
L 88.483132 103.234341 
L 91.273039 104.475174 
L 94.527929 105.66956 
L 97.78282 106.629683 
L 101.502695 107.496451 
L 106.152539 108.325596 
L 112.197337 109.140456 
L 125.681884 110.62806 
L 135.911541 111.901853 
L 145.211229 113.291366 
L 155.90587 115.121901 
L 197.754466 122.542816 
L 209.379076 124.234821 
L 221.003686 125.697051 
L 224.723561 126.117399 
L 224.723561 126.117399 
" clip-path="url(#p43f49e734c)" style="fill: none; stroke: #0c5da5; stroke-linecap: square"/>
   </g>
   <g id="line2d_100">
    <path d="M 39.194786 59.410253 
L 40.589739 59.569046 
L 41.984692 60.038188 
L 43.379646 60.79663 
L 44.774599 61.811417 
L 46.634536 63.489865 
L 48.959458 65.951031 
L 58.259146 76.289687 
L 61.979022 79.8677 
L 68.488803 85.708895 
L 78.253476 94.243063 
L 81.973351 97.182144 
L 85.228241 99.478545 
L 88.483132 101.479369 
L 91.273039 102.953883 
L 94.527929 104.407496 
L 97.78282 105.602683 
L 101.502695 106.700103 
L 105.222571 107.566704 
L 109.872415 108.407439 
L 115.452227 109.178175 
L 124.286931 110.137252 
L 140.561385 111.88967 
L 150.326057 113.185212 
L 161.020699 114.830391 
L 177.295153 117.594794 
L 198.21945 121.110328 
L 211.239014 123.068141 
L 223.328608 124.668227 
L 224.723561 124.838717 
L 224.723561 124.838717 
" clip-path="url(#p43f49e734c)" style="fill: none; stroke: #0c5da5; stroke-linecap: square"/>
   </g>
   <g id="line2d_101">
    <path d="M 39.194786 55.877942 
L 40.589739 56.028807 
L 41.984692 56.475114 
L 43.379646 57.198538 
L 44.774599 58.170259 
L 46.634536 59.787475 
L 48.959458 62.183085 
L 53.144318 66.956662 
L 57.329178 71.626094 
L 61.049053 75.427893 
L 66.163881 80.26885 
L 79.648429 92.607645 
L 83.368304 95.694709 
L 86.623195 98.131047 
L 89.878085 100.281011 
L 93.132976 102.134891 
L 96.387867 103.704229 
L 99.642758 105.014516 
L 102.897649 106.098464 
L 106.617524 107.104834 
L 110.802383 108.000344 
L 115.917212 108.843343 
L 122.426993 109.656714 
L 133.121635 110.713361 
L 148.001135 112.223793 
L 158.695777 113.551798 
L 170.320387 115.230474 
L 188.454778 118.116537 
L 209.379076 121.389287 
L 223.328608 123.340269 
L 224.723561 123.522069 
L 224.723561 123.522069 
" clip-path="url(#p43f49e734c)" style="fill: none; stroke: #0c5da5; stroke-linecap: square"/>
   </g>
   <g id="line2d_102">
    <path d="M 39.194786 52.345631 
L 40.589739 52.488671 
L 41.984692 52.912313 
L 43.379646 53.600559 
L 44.774599 54.528149 
L 46.634536 56.080195 
L 48.959458 58.399498 
L 52.214349 62.032897 
L 58.259146 68.809407 
L 62.444006 73.098554 
L 68.953788 79.362252 
L 81.973351 91.651961 
L 85.693226 94.814366 
L 88.948117 97.314757 
L 92.203007 99.533496 
L 95.457898 101.463442 
L 98.712789 103.115542 
L 101.96768 104.512596 
L 105.222571 105.683678 
L 108.942446 106.785315 
L 113.127305 107.776795 
L 117.777149 108.639018 
L 123.356962 109.434176 
L 130.796713 110.243049 
L 165.205558 113.653709 
L 177.295153 115.259516 
L 194.499575 117.803894 
L 220.073717 121.572728 
L 224.723561 122.207577 
L 224.723561 122.207577 
" clip-path="url(#p43f49e734c)" style="fill: none; stroke: #0c5da5; stroke-linecap: square"/>
   </g>
   <g id="line2d_103">
    <path d="M 39.194786 48.813319 
L 40.589739 48.948854 
L 41.984692 49.350665 
L 43.379646 50.004738 
L 44.774599 50.888866 
L 46.634536 52.375107 
L 48.959458 54.613096 
L 52.214349 58.16328 
L 59.6541 66.426374 
L 64.303944 71.16294 
L 81.973351 88.459164 
L 86.15821 92.266904 
L 89.878085 95.344579 
L 93.132976 97.753551 
L 96.387867 99.882201 
L 99.642758 101.734385 
L 102.897649 103.326418 
L 106.152539 104.682046 
L 109.872415 105.976746 
L 113.59229 107.039518 
L 117.777149 108.006715 
L 122.426993 108.856608 
L 128.006806 109.645168 
L 134.981572 110.397891 
L 146.606182 111.393071 
L 162.880636 112.8259 
L 174.505246 114.08308 
L 187.524809 115.729195 
L 207.054154 118.462745 
L 224.723561 120.93377 
L 224.723561 120.93377 
" clip-path="url(#p43f49e734c)" style="fill: none; stroke: #0c5da5; stroke-linecap: square"/>
   </g>
   <g id="line2d_104">
    <path d="M 39.194786 45.281008 
L 40.589739 45.409452 
L 41.984692 45.790576 
L 43.379646 46.412059 
L 44.774599 47.254311 
L 46.634536 48.675983 
L 48.494474 50.372928 
L 51.28438 53.267014 
L 63.838959 66.852155 
L 83.833288 86.859447 
L 88.018148 90.77521 
L 91.738023 93.95967 
L 94.992914 96.472971 
L 98.247805 98.715616 
L 101.502695 100.689063 
L 104.757586 102.406172 
L 108.012477 103.886917 
L 111.732352 105.320106 
L 115.452227 106.512279 
L 119.637087 107.609952 
L 124.286931 108.582262 
L 129.401759 109.417158 
L 135.446557 110.173573 
L 143.351291 110.925986 
L 163.345621 112.491649 
L 175.900199 113.636514 
L 188.454778 115.011731 
L 203.334279 116.878139 
L 224.723561 119.734748 
L 224.723561 119.734748 
" clip-path="url(#p43f49e734c)" style="fill: none; stroke: #0c5da5; stroke-linecap: square"/>
   </g>
   <g id="line2d_105">
    <path d="M 39.194786 41.748697 
L 40.589739 41.8705 
L 41.984692 42.232203 
L 43.379646 42.82293 
L 44.774599 43.625344 
L 46.634536 44.984719 
L 48.494474 46.615741 
L 51.28438 49.419629 
L 56.399209 55.030546 
L 61.979022 61.028031 
L 68.488803 67.626025 
L 77.788491 77.09475 
L 86.623195 86.103244 
L 90.808054 90.049579 
L 94.527929 93.257001 
L 97.78282 95.795569 
L 101.037711 98.072494 
L 104.292602 100.090459 
L 107.547493 101.861488 
L 110.802383 103.403426 
L 114.522259 104.911954 
L 118.242134 106.181213 
L 122.426993 107.36302 
L 127.076837 108.420561 
L 132.191666 109.334309 
L 137.771479 110.103717 
L 144.746245 110.833494 
L 154.975901 111.647485 
L 180.085059 113.561995 
L 192.639638 114.789833 
L 207.054154 116.432983 
L 224.723561 118.638212 
L 224.723561 118.638212 
" clip-path="url(#p43f49e734c)" style="fill: none; stroke: #0c5da5; stroke-linecap: square"/>
   </g>
   <g id="line2d_106">
    <path d="M 39.194786 38.216386 
L 40.589739 38.332 
L 41.984692 38.675564 
L 43.379646 39.237444 
L 44.774599 40.002245 
L 46.634536 41.302131 
L 48.494474 42.869025 
L 50.819396 45.106979 
L 54.539271 49.05311 
L 62.90899 58.037018 
L 71.743694 66.999784 
L 79.183444 74.719625 
L 88.483132 84.387763 
L 92.667992 88.425368 
L 96.387867 91.72794 
L 100.107742 94.717946 
L 103.362633 97.064957 
L 106.617524 99.162295 
L 109.872415 101.020038 
L 113.59229 102.869524 
L 117.312165 104.453258 
L 121.03204 105.80011 
L 125.2169 107.067799 
L 129.401759 108.110732 
L 134.051603 109.049613 
L 139.631416 109.931426 
L 146.141198 110.708314 
L 154.045933 111.412234 
L 167.53048 112.343699 
L 185.664872 113.641688 
L 198.684435 114.803956 
L 213.098951 116.320671 
L 224.723561 117.664402 
L 224.723561 117.664402 
" clip-path="url(#p43f49e734c)" style="fill: none; stroke: #0c5da5; stroke-linecap: square"/>
   </g>
   <g id="line2d_107">
    <path d="M 39.194786 34.684075 
L 40.589739 34.793935 
L 41.984692 35.120605 
L 43.379646 35.655522 
L 44.774599 36.384971 
L 46.634536 37.628413 
L 48.494474 39.133534 
L 50.819396 41.295546 
L 54.074287 44.647999 
L 66.163881 57.396901 
L 77.788491 69.326825 
L 92.667992 84.942384 
L 96.852851 88.889568 
L 100.572727 92.096538 
L 104.292602 94.993176 
L 108.012477 97.574248 
L 111.732352 99.848683 
L 115.452227 101.834502 
L 119.172103 103.554764 
L 122.891978 105.034707 
L 127.076837 106.444263 
L 131.261697 107.617521 
L 135.911541 108.684719 
L 141.026369 109.620298 
L 146.606182 110.414803 
L 153.115964 111.120267 
L 161.950667 111.831937 
L 178.690106 112.88854 
L 194.96456 114.016469 
L 208.449107 115.175371 
L 223.793592 116.725743 
L 224.723561 116.825774 
L 224.723561 116.825774 
" clip-path="url(#p43f49e734c)" style="fill: none; stroke: #0c5da5; stroke-linecap: square"/>
   </g>
   <g id="line2d_108">
    <path d="M 39.194786 31.151763 
L 40.124755 31.228424 
L 41.519708 31.624795 
L 42.914661 32.334543 
L 44.309614 33.313473 
L 46.169552 34.936838 
L 48.959458 37.744767 
L 53.144318 41.951218 
L 55.934224 44.44071 
L 60.119084 47.808914 
L 64.303944 51.244285 
L 67.558834 54.245801 
L 70.813725 57.584869 
L 74.998585 62.239656 
L 86.623195 75.378598 
L 91.273039 80.21811 
L 95.922883 84.720548 
L 100.107742 88.467463 
L 104.292602 91.911018 
L 108.012477 94.707189 
L 111.732352 97.248018 
L 115.452227 99.5321 
L 119.172103 101.563134 
L 122.891978 103.349819 
L 126.611853 104.905206 
L 130.796713 106.399132 
L 134.981572 107.64815 
L 139.631416 108.784019 
L 144.28126 109.693904 
L 149.861073 110.542926 
L 155.90587 111.232942 
L 163.345621 111.855655 
L 174.505246 112.537712 
L 200.544372 114.063468 
L 214.02892 115.115668 
L 224.723561 116.093138 
L 224.723561 116.093138 
" clip-path="url(#p43f49e734c)" style="fill: none; stroke: #0c5da5; stroke-linecap: square"/>
   </g>
   <g id="line2d_109">
    <path d="M 39.194786 27.619452 
L 40.124755 27.69838 
L 41.054724 27.933393 
L 42.449677 28.566215 
L 43.84463 29.506621 
L 45.239583 30.709974 
L 47.099521 32.628732 
L 49.889427 35.893494 
L 54.074287 40.823741 
L 56.864193 43.741653 
L 59.6541 46.28854 
L 62.90899 48.92488 
L 69.418772 54.10484 
L 72.673663 57.025689 
L 75.928554 60.233425 
L 80.578398 65.175601 
L 90.808054 76.194566 
L 95.457898 80.811364 
L 99.642758 84.661603 
L 103.827617 88.215077 
L 108.012477 91.475761 
L 112.197337 94.449381 
L 116.382196 97.140899 
L 120.567056 99.555325 
L 124.751915 101.699424 
L 128.936775 103.583044 
L 133.121635 105.219673 
L 137.306494 106.626276 
L 141.956338 107.943535 
L 146.606182 109.031194 
L 151.721011 109.999774 
L 157.300823 110.831448 
L 163.810605 111.571277 
L 171.71534 112.235533 
L 182.874965 112.930213 
L 213.563936 114.740649 
L 224.723561 115.591991 
L 224.723561 115.591991 
" clip-path="url(#p43f49e734c)" style="fill: none; stroke: #0c5da5; stroke-linecap: square"/>
   </g>
   <g id="line2d_110">
    <path d="M 39.194786 24.087141 
L 40.124755 24.168256 
L 41.054724 24.410073 
L 42.449677 25.063418 
L 43.84463 26.0404 
L 45.239583 27.30156 
L 47.099521 29.339475 
L 49.424443 32.272739 
L 55.934224 40.774319 
L 58.259146 43.399252 
L 60.584068 45.708202 
L 63.373975 48.115487 
L 67.09385 50.942951 
L 73.138647 55.494813 
L 76.393538 58.240775 
L 80.113413 61.701342 
L 84.763257 66.387222 
L 95.922883 77.792538 
L 100.572727 82.137765 
L 104.757586 85.744998 
L 108.942446 89.059228 
L 113.127305 92.090071 
L 117.312165 94.851196 
L 121.497025 97.355633 
L 125.681884 99.614669 
L 129.866744 101.638514 
L 134.051603 103.437472 
L 138.701447 105.186461 
L 143.351291 106.689904 
L 148.001135 107.968417 
L 153.115964 109.142226 
L 158.695777 110.181672 
L 164.740574 111.071828 
L 171.71534 111.860562 
L 180.085059 112.568194 
L 191.709669 113.30485 
L 224.723561 115.246439 
L 224.723561 115.246439 
" clip-path="url(#p43f49e734c)" style="fill: none; stroke: #0c5da5; stroke-linecap: square"/>
   </g>
   <g id="line2d_111">
    <path d="M 39.194786 20.55483 
L 40.124755 20.637493 
L 41.054724 20.884128 
L 42.449677 21.552005 
L 43.84463 22.554938 
L 45.239583 23.857341 
L 47.099521 25.981329 
L 49.424443 29.083963 
L 57.794162 40.842991 
L 60.119084 43.559059 
L 62.444006 45.922368 
L 64.768928 47.970225 
L 67.558834 50.116872 
L 72.673663 53.672232 
L 76.858522 56.700462 
L 80.113413 59.309684 
L 83.833288 62.590726 
L 88.483132 67.031491 
L 100.572727 78.783459 
L 105.222571 82.905421 
L 109.40743 86.32566 
L 113.59229 89.465016 
L 117.777149 92.333174 
L 121.962009 94.945819 
L 126.146869 97.319311 
L 130.796713 99.69395 
L 135.446557 101.809104 
L 140.096401 103.680453 
L 144.746245 105.323166 
L 149.861073 106.884899 
L 154.975901 108.211624 
L 160.555714 109.419569 
L 166.600511 110.483939 
L 173.110293 111.394332 
L 180.550043 112.200766 
L 189.384747 112.928647 
L 201.939326 113.719797 
L 224.723561 115.003064 
L 224.723561 115.003064 
" clip-path="url(#p43f49e734c)" style="fill: none; stroke: #0c5da5; stroke-linecap: square"/>
   </g>
   <g id="line2d_112">
    <path d="M 39.194786 17.022519 
L 40.124755 17.106036 
L 41.054724 17.355371 
L 42.449677 18.031746 
L 43.84463 19.050753 
L 45.239583 20.380157 
L 47.099521 22.563783 
L 48.959458 25.111623 
L 51.749365 29.343821 
L 56.864193 37.191549 
L 59.189115 40.389733 
L 61.514037 43.224329 
L 63.838959 45.678358 
L 66.163881 47.784111 
L 68.488803 49.608485 
L 71.743694 51.853707 
L 80.578398 57.75548 
L 84.298273 60.630848 
L 88.018148 63.798343 
L 93.132976 68.49022 
L 104.292602 78.853566 
L 108.942446 82.826121 
L 113.127305 86.133969 
L 117.312165 89.176764 
L 121.497025 91.960558 
L 125.681884 94.499564 
L 130.331728 97.053995 
L 134.981572 99.349154 
L 139.631416 101.404681 
L 144.746245 103.409275 
L 149.861073 105.164806 
L 154.975901 106.690541 
L 160.555714 108.115676 
L 166.135527 109.316478 
L 172.180324 110.395621 
L 178.690106 111.339137 
L 186.129856 112.193888 
L 194.96456 112.979192 
L 206.58917 113.773332 
L 224.723561 114.80155 
L 224.723561 114.80155 
" clip-path="url(#p43f49e734c)" style="fill: none; stroke: #0c5da5; stroke-linecap: square"/>
   </g>
   <g id="line2d_113">
    <path d="M 39.194786 13.490208 
L 40.124755 13.573973 
L 41.054724 13.824178 
L 41.984692 14.237578 
L 43.379646 15.151464 
L 44.774599 16.393945 
L 46.169552 17.93021 
L 48.02949 20.362468 
L 50.354412 23.859863 
L 54.539271 30.734097 
L 57.794162 35.94138 
L 60.119084 39.325829 
L 62.444006 42.334446 
L 64.768928 44.941763 
L 67.09385 47.168794 
L 69.418772 49.071296 
L 72.208678 51.035188 
L 76.393538 53.633325 
L 81.973351 57.100957 
L 85.693226 59.690381 
L 89.413101 62.567076 
L 93.597961 66.097398 
L 100.572727 72.342806 
L 108.012477 78.910843 
L 113.127305 83.107364 
L 117.777149 86.618111 
L 121.962009 89.516216 
L 126.611853 92.452087 
L 131.261697 95.106313 
L 135.911541 97.500855 
L 140.561385 99.657325 
L 145.676213 101.777593 
L 150.791042 103.655729 
L 156.370855 105.45154 
L 161.950667 107.005979 
L 167.995465 108.443689 
L 174.040262 109.653213 
L 180.550043 110.733911 
L 187.989794 111.732846 
L 196.359513 112.61859 
L 206.124185 113.422678 
L 219.608733 114.292981 
L 224.723561 114.586441 
L 224.723561 114.586441 
" clip-path="url(#p43f49e734c)" style="fill: none; stroke: #0c5da5; stroke-linecap: square"/>
   </g>
   <g id="line2d_114">
    <path d="M 39.194786 9.957896 
L 40.124755 10.041426 
L 41.054724 10.291036 
L 41.984692 10.70381 
L 43.379646 11.617918 
L 44.774599 12.86433 
L 46.169552 14.411436 
L 48.02949 16.875058 
L 50.354412 20.450395 
L 53.609302 25.985493 
L 58.259146 33.926344 
L 61.049053 38.229728 
L 63.373975 41.400047 
L 65.698897 44.155827 
L 68.023819 46.508689 
L 70.348741 48.50424 
L 72.673663 50.210876 
L 75.463569 51.990162 
L 80.578398 54.921789 
L 85.228241 57.682803 
L 88.948117 60.155797 
L 92.667992 62.902949 
L 96.852851 66.273131 
L 103.362633 71.846123 
L 111.732352 78.960614 
L 116.847181 83.008909 
L 121.497025 86.409112 
L 126.146869 89.524009 
L 130.796713 92.357707 
L 135.446557 94.925833 
L 140.096401 97.248625 
L 145.211229 99.544999 
L 150.326057 101.594846 
L 155.90587 103.575793 
L 161.485683 105.31449 
L 167.53048 106.95024 
L 173.575277 108.353553 
L 180.085059 109.633705 
L 187.059825 110.773833 
L 194.499575 111.767778 
L 202.869294 112.666168 
L 213.098951 113.531182 
L 224.723561 114.315039 
L 224.723561 114.315039 
" clip-path="url(#p43f49e734c)" style="fill: none; stroke: #0c5da5; stroke-linecap: square"/>
   </g>
   <g id="patch_3">
    <path d="M 29.918347 143.473719 
L 29.918347 3.6 
" style="fill: none; stroke: #000000; stroke-width: 0.5; stroke-linejoin: miter; stroke-linecap: square"/>
   </g>
   <g id="patch_4">
    <path d="M 234 143.473719 
L 234 3.6 
" style="fill: none; stroke: #000000; stroke-width: 0.5; stroke-linejoin: miter; stroke-linecap: square"/>
   </g>
   <g id="patch_5">
    <path d="M 29.918347 143.473719 
L 234 143.473719 
" style="fill: none; stroke: #000000; stroke-width: 0.5; stroke-linejoin: miter; stroke-linecap: square"/>
   </g>
   <g id="patch_6">
    <path d="M 29.918347 3.6 
L 234 3.6 
" style="fill: none; stroke: #000000; stroke-width: 0.5; stroke-linejoin: miter; stroke-linecap: square"/>
   </g>
  </g>
 </g>
 <defs>
  <clipPath id="p43f49e734c">
   <rect x="29.918347" y="3.6" width="204.081653" height="139.873719"/>
  </clipPath>
 </defs>
</svg>
