<?xml version="1.0" encoding="utf-8" standalone="no"?>
<!DOCTYPE svg PUBLIC "-//W3C//DTD SVG 1.1//EN"
  "http://www.w3.org/Graphics/SVG/1.1/DTD/svg11.dtd">
<svg xmlns:xlink="http://www.w3.org/1999/xlink" width="288.492719pt" height="345.121968pt" viewBox="0 0 288.492719 345.121968" xmlns="http://www.w3.org/2000/svg" version="1.1">
 <metadata>
  <rdf:RDF xmlns:dc="http://purl.org/dc/elements/1.1/" xmlns:cc="http://creativecommons.org/ns#" xmlns:rdf="http://www.w3.org/1999/02/22-rdf-syntax-ns#">
   <cc:Work>
    <dc:type rdf:resource="http://purl.org/dc/dcmitype/StillImage"/>
    <dc:date>2026-06-22T11:38:27.137972</dc:date>
    <dc:format>image/svg+xml</dc:format>
    <dc:creator>
     <cc:Agent>
      <dc:title>Matplotlib v3.10.8, https://matplotlib.org/</dc:title>
     </cc:Agent>
    </dc:creator>
   </cc:Work>
  </rdf:RDF>
 </metadata>
 <defs>
  <style type="text/css">*{stroke-linejoin: round; stroke-linecap: butt}</style>
 </defs>
 <g id="figure_1">
  <g id="patch_1">
   <path d="M -0 345.121968 
L 288.492719 345.121968 
L 288.492719 0 
L -0 0 
z
" style="fill: #ffffff"/>
  </g>
  <g id="axes_1">
   <g id="patch_2">
    <path d="M 33.792719 315.203651 
L 284.892719 315.203651 
L 284.892719 93.443651 
L 33.792719 93.443651 
z
" style="fill: #ffffff"/>
   </g>
   <g id="patch_3">
    <path d="M 161.625446 250.301172 
L 179.887265 250.301172 
L 179.887265 213.75285 
L 161.625446 213.75285 
L 161.625446 250.301172 
z
" clip-path="url(#pf336a977d5)" style="fill: none; stroke: #808080; stroke-linejoin: miter"/>
   </g>
   <g id="patch_4">
    <path d="M 128.525901 40.148322 
L 149.070446 40.148322 
L 149.070446 3.6 
L 128.525901 3.6 
L 128.525901 40.148322 
z
" clip-path="url(#pf336a977d5)" style="fill: none; stroke: #808080; stroke-linejoin: miter"/>
   </g>
   <g id="matplotlib.axis_1">
    <g id="xtick_1">
     <g id="line2d_1">
      <defs>
       <path id="m98f3084ef1" d="M 0 0 
L 0 -3 
" style="stroke: #000000; stroke-width: 0.5"/>
      </defs>
      <g>
       <use xlink:href="#m98f3084ef1" x="68.033628" y="315.203651" style="stroke: #000000; stroke-width: 0.5"/>
      </g>
     </g>
     <g id="line2d_2">
      <defs>
       <path id="mcd94ff7dcc" d="M 0 0 
L 0 3 
" style="stroke: #000000; stroke-width: 0.5"/>
      </defs>
      <g>
       <use xlink:href="#mcd94ff7dcc" x="68.033628" y="93.443651" style="stroke: #000000; stroke-width: 0.5"/>
      </g>
     </g>
     <g id="text_1">
      <!-- $\mathdefault{4600}$ -->
      <g transform="translate(58.070958 325.622149) scale(0.1 -0.1)">
       <defs>
        <path id="CMR17-34" d="M 2150 4122 
C 2150 4256 2144 4256 2029 4256 
L 128 1254 
L 128 1088 
L 1779 1088 
L 1779 457 
C 1779 224 1766 160 1318 160 
L 1197 160 
L 1197 0 
C 1402 0 1747 0 1965 0 
C 2182 0 2528 0 2733 0 
L 2733 160 
L 2611 160 
C 2163 160 2150 224 2150 457 
L 2150 1088 
L 2803 1088 
L 2803 1254 
L 2150 1254 
L 2150 4122 
z
M 1798 3703 
L 1798 1254 
L 256 1254 
L 1798 3703 
z
" transform="scale(0.015625)"/>
        <path id="CMR17-36" d="M 678 2176 
C 678 3690 1395 4032 1811 4032 
C 1946 4032 2272 4009 2400 3776 
C 2298 3776 2106 3776 2106 3553 
C 2106 3381 2246 3323 2336 3323 
C 2394 3323 2566 3348 2566 3560 
C 2566 3954 2246 4179 1805 4179 
C 1043 4179 243 3390 243 1984 
C 243 253 966 -128 1478 -128 
C 2099 -128 2688 427 2688 1283 
C 2688 2081 2170 2662 1517 2662 
C 1126 2662 838 2407 678 1960 
L 678 2176 
z
M 1478 25 
C 691 25 691 1200 691 1436 
C 691 1896 909 2560 1504 2560 
C 1613 2560 1926 2560 2138 2120 
C 2253 1870 2253 1609 2253 1289 
C 2253 944 2253 690 2118 434 
C 1978 171 1773 25 1478 25 
z
" transform="scale(0.015625)"/>
        <path id="CMR17-30" d="M 2688 2025 
C 2688 2416 2682 3080 2413 3591 
C 2176 4039 1798 4198 1466 4198 
C 1158 4198 768 4058 525 3597 
C 269 3118 243 2524 243 2025 
C 243 1661 250 1106 448 619 
C 723 -39 1216 -128 1466 -128 
C 1760 -128 2208 -7 2470 600 
C 2662 1042 2688 1559 2688 2025 
z
M 1466 -26 
C 1056 -26 813 325 723 812 
C 653 1188 653 1738 653 2096 
C 653 2588 653 2997 736 3387 
C 858 3929 1216 4096 1466 4096 
C 1728 4096 2067 3923 2189 3400 
C 2272 3036 2278 2607 2278 2096 
C 2278 1680 2278 1169 2202 792 
C 2067 95 1690 -26 1466 -26 
z
" transform="scale(0.015625)"/>
       </defs>
       <use xlink:href="#CMR17-34" transform="scale(0.996264)"/>
       <use xlink:href="#CMR17-36" transform="translate(45.690477 0) scale(0.996264)"/>
       <use xlink:href="#CMR17-30" transform="translate(91.380954 0) scale(0.996264)"/>
       <use xlink:href="#CMR17-30" transform="translate(137.071431 0) scale(0.996264)"/>
      </g>
     </g>
    </g>
    <g id="xtick_2">
     <g id="line2d_3">
      <g>
       <use xlink:href="#m98f3084ef1" x="113.688174" y="315.203651" style="stroke: #000000; stroke-width: 0.5"/>
      </g>
     </g>
     <g id="line2d_4">
      <g>
       <use xlink:href="#mcd94ff7dcc" x="113.688174" y="93.443651" style="stroke: #000000; stroke-width: 0.5"/>
      </g>
     </g>
     <g id="text_2">
      <!-- $\mathdefault{4800}$ -->
      <g transform="translate(103.725503 325.622149) scale(0.1 -0.1)">
       <defs>
        <path id="CMR17-38" d="M 1741 2264 
C 2144 2467 2554 2773 2554 3263 
C 2554 3841 1990 4179 1472 4179 
C 890 4179 378 3759 378 3180 
C 378 3021 416 2747 666 2505 
C 730 2442 998 2251 1171 2130 
C 883 1983 211 1634 211 934 
C 211 279 838 -128 1459 -128 
C 2144 -128 2720 362 2720 1010 
C 2720 1590 2330 1857 2074 2029 
L 1741 2264 
z
M 902 2822 
C 851 2854 595 3051 595 3351 
C 595 3739 998 4032 1459 4032 
C 1965 4032 2336 3676 2336 3262 
C 2336 2669 1670 2331 1638 2331 
C 1632 2331 1626 2331 1574 2370 
L 902 2822 
z
M 2080 1519 
C 2176 1449 2483 1240 2483 851 
C 2483 381 2010 25 1472 25 
C 890 25 448 438 448 940 
C 448 1443 838 1862 1280 2060 
L 2080 1519 
z
" transform="scale(0.015625)"/>
       </defs>
       <use xlink:href="#CMR17-34" transform="scale(0.996264)"/>
       <use xlink:href="#CMR17-38" transform="translate(45.690477 0) scale(0.996264)"/>
       <use xlink:href="#CMR17-30" transform="translate(91.380954 0) scale(0.996264)"/>
       <use xlink:href="#CMR17-30" transform="translate(137.071431 0) scale(0.996264)"/>
      </g>
     </g>
    </g>
    <g id="xtick_3">
     <g id="line2d_5">
      <g>
       <use xlink:href="#m98f3084ef1" x="159.342719" y="315.203651" style="stroke: #000000; stroke-width: 0.5"/>
      </g>
     </g>
     <g id="line2d_6">
      <g>
       <use xlink:href="#mcd94ff7dcc" x="159.342719" y="93.443651" style="stroke: #000000; stroke-width: 0.5"/>
      </g>
     </g>
     <g id="text_3">
      <!-- $\mathdefault{5000}$ -->
      <g transform="translate(149.380049 325.622149) scale(0.1 -0.1)">
       <defs>
        <path id="CMR17-35" d="M 730 3692 
C 794 3666 1056 3584 1325 3584 
C 1920 3584 2246 3911 2432 4100 
C 2432 4157 2432 4192 2394 4192 
C 2387 4192 2374 4192 2323 4163 
C 2099 4058 1837 3973 1517 3973 
C 1325 3973 1037 3999 723 4139 
C 653 4171 640 4171 634 4171 
C 602 4171 595 4164 595 4037 
L 595 2203 
C 595 2089 595 2057 659 2057 
C 691 2057 704 2070 736 2114 
C 941 2401 1222 2522 1542 2522 
C 1766 2522 2246 2382 2246 1289 
C 2246 1085 2246 715 2054 421 
C 1894 159 1645 25 1370 25 
C 947 25 518 320 403 814 
C 429 807 480 795 506 795 
C 589 795 749 840 749 1038 
C 749 1210 627 1280 506 1280 
C 358 1280 262 1190 262 1011 
C 262 454 704 -128 1382 -128 
C 2042 -128 2669 440 2669 1264 
C 2669 2030 2170 2624 1549 2624 
C 1222 2624 947 2503 730 2274 
L 730 3692 
z
" transform="scale(0.015625)"/>
       </defs>
       <use xlink:href="#CMR17-35" transform="scale(0.996264)"/>
       <use xlink:href="#CMR17-30" transform="translate(45.690477 0) scale(0.996264)"/>
       <use xlink:href="#CMR17-30" transform="translate(91.380954 0) scale(0.996264)"/>
       <use xlink:href="#CMR17-30" transform="translate(137.071431 0) scale(0.996264)"/>
      </g>
     </g>
    </g>
    <g id="xtick_4">
     <g id="line2d_7">
      <g>
       <use xlink:href="#m98f3084ef1" x="204.997265" y="315.203651" style="stroke: #000000; stroke-width: 0.5"/>
      </g>
     </g>
     <g id="line2d_8">
      <g>
       <use xlink:href="#mcd94ff7dcc" x="204.997265" y="93.443651" style="stroke: #000000; stroke-width: 0.5"/>
      </g>
     </g>
     <g id="text_4">
      <!-- $\mathdefault{5200}$ -->
      <g transform="translate(195.034594 325.622149) scale(0.1 -0.1)">
       <defs>
        <path id="CMR17-32" d="M 2669 989 
L 2554 989 
C 2490 536 2438 459 2413 420 
C 2381 369 1920 369 1830 369 
L 602 369 
C 832 619 1280 1072 1824 1597 
C 2214 1967 2669 2402 2669 3035 
C 2669 3790 2067 4224 1395 4224 
C 691 4224 262 3604 262 3030 
C 262 2780 448 2748 525 2748 
C 589 2748 781 2787 781 3010 
C 781 3207 614 3264 525 3264 
C 486 3264 448 3258 422 3245 
C 544 3790 915 4058 1306 4058 
C 1862 4058 2227 3617 2227 3035 
C 2227 2479 1901 2000 1536 1584 
L 262 146 
L 262 0 
L 2515 0 
L 2669 989 
z
" transform="scale(0.015625)"/>
       </defs>
       <use xlink:href="#CMR17-35" transform="scale(0.996264)"/>
       <use xlink:href="#CMR17-32" transform="translate(45.690477 0) scale(0.996264)"/>
       <use xlink:href="#CMR17-30" transform="translate(91.380954 0) scale(0.996264)"/>
       <use xlink:href="#CMR17-30" transform="translate(137.071431 0) scale(0.996264)"/>
      </g>
     </g>
    </g>
    <g id="xtick_5">
     <g id="line2d_9">
      <g>
       <use xlink:href="#m98f3084ef1" x="250.65181" y="315.203651" style="stroke: #000000; stroke-width: 0.5"/>
      </g>
     </g>
     <g id="line2d_10">
      <g>
       <use xlink:href="#mcd94ff7dcc" x="250.65181" y="93.443651" style="stroke: #000000; stroke-width: 0.5"/>
      </g>
     </g>
     <g id="text_5">
      <!-- $\mathdefault{5400}$ -->
      <g transform="translate(240.689139 325.622149) scale(0.1 -0.1)">
       <use xlink:href="#CMR17-35" transform="scale(0.996264)"/>
       <use xlink:href="#CMR17-34" transform="translate(45.690477 0) scale(0.996264)"/>
       <use xlink:href="#CMR17-30" transform="translate(91.380954 0) scale(0.996264)"/>
       <use xlink:href="#CMR17-30" transform="translate(137.071431 0) scale(0.996264)"/>
      </g>
     </g>
    </g>
    <g id="xtick_6">
     <g id="line2d_11">
      <defs>
       <path id="m593cd1bb00" d="M 0 0 
L 0 -1.5 
" style="stroke: #000000; stroke-width: 0.5"/>
      </defs>
      <g>
       <use xlink:href="#m593cd1bb00" x="33.792719" y="315.203651" style="stroke: #000000; stroke-width: 0.5"/>
      </g>
     </g>
     <g id="line2d_12">
      <defs>
       <path id="m7428fea55a" d="M 0 0 
L 0 1.5 
" style="stroke: #000000; stroke-width: 0.5"/>
      </defs>
      <g>
       <use xlink:href="#m7428fea55a" x="33.792719" y="93.443651" style="stroke: #000000; stroke-width: 0.5"/>
      </g>
     </g>
    </g>
    <g id="xtick_7">
     <g id="line2d_13">
      <g>
       <use xlink:href="#m593cd1bb00" x="45.206355" y="315.203651" style="stroke: #000000; stroke-width: 0.5"/>
      </g>
     </g>
     <g id="line2d_14">
      <g>
       <use xlink:href="#m7428fea55a" x="45.206355" y="93.443651" style="stroke: #000000; stroke-width: 0.5"/>
      </g>
     </g>
    </g>
    <g id="xtick_8">
     <g id="line2d_15">
      <g>
       <use xlink:href="#m593cd1bb00" x="56.619992" y="315.203651" style="stroke: #000000; stroke-width: 0.5"/>
      </g>
     </g>
     <g id="line2d_16">
      <g>
       <use xlink:href="#m7428fea55a" x="56.619992" y="93.443651" style="stroke: #000000; stroke-width: 0.5"/>
      </g>
     </g>
    </g>
    <g id="xtick_9">
     <g id="line2d_17">
      <g>
       <use xlink:href="#m593cd1bb00" x="79.447265" y="315.203651" style="stroke: #000000; stroke-width: 0.5"/>
      </g>
     </g>
     <g id="line2d_18">
      <g>
       <use xlink:href="#m7428fea55a" x="79.447265" y="93.443651" style="stroke: #000000; stroke-width: 0.5"/>
      </g>
     </g>
    </g>
    <g id="xtick_10">
     <g id="line2d_19">
      <g>
       <use xlink:href="#m593cd1bb00" x="90.860901" y="315.203651" style="stroke: #000000; stroke-width: 0.5"/>
      </g>
     </g>
     <g id="line2d_20">
      <g>
       <use xlink:href="#m7428fea55a" x="90.860901" y="93.443651" style="stroke: #000000; stroke-width: 0.5"/>
      </g>
     </g>
    </g>
    <g id="xtick_11">
     <g id="line2d_21">
      <g>
       <use xlink:href="#m593cd1bb00" x="102.274537" y="315.203651" style="stroke: #000000; stroke-width: 0.5"/>
      </g>
     </g>
     <g id="line2d_22">
      <g>
       <use xlink:href="#m7428fea55a" x="102.274537" y="93.443651" style="stroke: #000000; stroke-width: 0.5"/>
      </g>
     </g>
    </g>
    <g id="xtick_12">
     <g id="line2d_23">
      <g>
       <use xlink:href="#m593cd1bb00" x="125.10181" y="315.203651" style="stroke: #000000; stroke-width: 0.5"/>
      </g>
     </g>
     <g id="line2d_24">
      <g>
       <use xlink:href="#m7428fea55a" x="125.10181" y="93.443651" style="stroke: #000000; stroke-width: 0.5"/>
      </g>
     </g>
    </g>
    <g id="xtick_13">
     <g id="line2d_25">
      <g>
       <use xlink:href="#m593cd1bb00" x="136.515446" y="315.203651" style="stroke: #000000; stroke-width: 0.5"/>
      </g>
     </g>
     <g id="line2d_26">
      <g>
       <use xlink:href="#m7428fea55a" x="136.515446" y="93.443651" style="stroke: #000000; stroke-width: 0.5"/>
      </g>
     </g>
    </g>
    <g id="xtick_14">
     <g id="line2d_27">
      <g>
       <use xlink:href="#m593cd1bb00" x="147.929083" y="315.203651" style="stroke: #000000; stroke-width: 0.5"/>
      </g>
     </g>
     <g id="line2d_28">
      <g>
       <use xlink:href="#m7428fea55a" x="147.929083" y="93.443651" style="stroke: #000000; stroke-width: 0.5"/>
      </g>
     </g>
    </g>
    <g id="xtick_15">
     <g id="line2d_29">
      <g>
       <use xlink:href="#m593cd1bb00" x="170.756355" y="315.203651" style="stroke: #000000; stroke-width: 0.5"/>
      </g>
     </g>
     <g id="line2d_30">
      <g>
       <use xlink:href="#m7428fea55a" x="170.756355" y="93.443651" style="stroke: #000000; stroke-width: 0.5"/>
      </g>
     </g>
    </g>
    <g id="xtick_16">
     <g id="line2d_31">
      <g>
       <use xlink:href="#m593cd1bb00" x="182.169992" y="315.203651" style="stroke: #000000; stroke-width: 0.5"/>
      </g>
     </g>
     <g id="line2d_32">
      <g>
       <use xlink:href="#m7428fea55a" x="182.169992" y="93.443651" style="stroke: #000000; stroke-width: 0.5"/>
      </g>
     </g>
    </g>
    <g id="xtick_17">
     <g id="line2d_33">
      <g>
       <use xlink:href="#m593cd1bb00" x="193.583628" y="315.203651" style="stroke: #000000; stroke-width: 0.5"/>
      </g>
     </g>
     <g id="line2d_34">
      <g>
       <use xlink:href="#m7428fea55a" x="193.583628" y="93.443651" style="stroke: #000000; stroke-width: 0.5"/>
      </g>
     </g>
    </g>
    <g id="xtick_18">
     <g id="line2d_35">
      <g>
       <use xlink:href="#m593cd1bb00" x="216.410901" y="315.203651" style="stroke: #000000; stroke-width: 0.5"/>
      </g>
     </g>
     <g id="line2d_36">
      <g>
       <use xlink:href="#m7428fea55a" x="216.410901" y="93.443651" style="stroke: #000000; stroke-width: 0.5"/>
      </g>
     </g>
    </g>
    <g id="xtick_19">
     <g id="line2d_37">
      <g>
       <use xlink:href="#m593cd1bb00" x="227.824537" y="315.203651" style="stroke: #000000; stroke-width: 0.5"/>
      </g>
     </g>
     <g id="line2d_38">
      <g>
       <use xlink:href="#m7428fea55a" x="227.824537" y="93.443651" style="stroke: #000000; stroke-width: 0.5"/>
      </g>
     </g>
    </g>
    <g id="xtick_20">
     <g id="line2d_39">
      <g>
       <use xlink:href="#m593cd1bb00" x="239.238174" y="315.203651" style="stroke: #000000; stroke-width: 0.5"/>
      </g>
     </g>
     <g id="line2d_40">
      <g>
       <use xlink:href="#m7428fea55a" x="239.238174" y="93.443651" style="stroke: #000000; stroke-width: 0.5"/>
      </g>
     </g>
    </g>
    <g id="xtick_21">
     <g id="line2d_41">
      <g>
       <use xlink:href="#m593cd1bb00" x="262.065446" y="315.203651" style="stroke: #000000; stroke-width: 0.5"/>
      </g>
     </g>
     <g id="line2d_42">
      <g>
       <use xlink:href="#m7428fea55a" x="262.065446" y="93.443651" style="stroke: #000000; stroke-width: 0.5"/>
      </g>
     </g>
    </g>
    <g id="xtick_22">
     <g id="line2d_43">
      <g>
       <use xlink:href="#m593cd1bb00" x="273.479083" y="315.203651" style="stroke: #000000; stroke-width: 0.5"/>
      </g>
     </g>
     <g id="line2d_44">
      <g>
       <use xlink:href="#m7428fea55a" x="273.479083" y="93.443651" style="stroke: #000000; stroke-width: 0.5"/>
      </g>
     </g>
    </g>
    <g id="xtick_23">
     <g id="line2d_45">
      <g>
       <use xlink:href="#m593cd1bb00" x="284.892719" y="315.203651" style="stroke: #000000; stroke-width: 0.5"/>
      </g>
     </g>
     <g id="line2d_46">
      <g>
       <use xlink:href="#m7428fea55a" x="284.892719" y="93.443651" style="stroke: #000000; stroke-width: 0.5"/>
      </g>
     </g>
    </g>
    <g id="text_6">
     <!-- $E$ [eV] -->
     <g transform="translate(145.000666 339.031308) scale(0.1 -0.1)">
      <defs>
       <path id="CMMI12-45" d="M 4448 1489 
C 4454 1508 4474 1554 4474 1579 
C 4474 1611 4448 1643 4410 1643 
C 4384 1643 4371 1637 4352 1617 
C 4339 1611 4339 1598 4282 1469 
C 3904 570 3629 185 2605 185 
L 1670 185 
C 1581 185 1568 185 1530 192 
C 1459 198 1453 211 1453 262 
C 1453 307 1466 345 1478 403 
L 1920 2176 
L 2554 2176 
C 3053 2176 3091 2066 3091 1874 
C 3091 1810 3091 1752 3046 1560 
C 3034 1534 3027 1508 3027 1489 
C 3027 1444 3059 1425 3098 1425 
C 3155 1425 3162 1469 3187 1559 
L 3552 3042 
C 3552 3073 3526 3105 3488 3105 
C 3430 3105 3424 3080 3398 2990 
C 3270 2501 3142 2361 2573 2361 
L 1965 2361 
L 2362 3930 
C 2419 4154 2432 4154 2694 4154 
L 3610 4154 
C 4397 4154 4557 3943 4557 3458 
C 4557 3451 4557 3273 4531 3062 
C 4525 3036 4518 2998 4518 2985 
C 4518 2934 4550 2915 4589 2915 
C 4634 2915 4659 2941 4672 3055 
L 4806 4174 
C 4806 4195 4819 4263 4819 4277 
C 4819 4352 4762 4352 4646 4352 
L 1523 4352 
C 1402 4352 1338 4352 1338 4229 
C 1338 4154 1382 4154 1491 4154 
C 1888 4154 1888 4114 1888 4052 
C 1888 4020 1882 3994 1862 3924 
L 998 473 
C 941 249 928 185 480 185 
C 358 185 294 185 294 70 
C 294 0 333 0 461 0 
L 3674 0 
C 3814 0 3821 6 3866 110 
L 4448 1489 
z
" transform="scale(0.015625)"/>
       <path id="CMR17-5b" d="M 1504 -1600 
L 1504 -1377 
L 902 -1377 
L 902 4544 
L 1504 4544 
L 1504 4767 
L 678 4767 
L 678 -1600 
L 1504 -1600 
z
" transform="scale(0.015625)"/>
       <path id="CMR17-65" d="M 2438 1472 
C 2464 1498 2464 1511 2464 1576 
C 2464 2238 2118 2816 1389 2816 
C 710 2816 173 2169 173 1383 
C 173 551 781 -64 1459 -64 
C 2176 -64 2458 607 2458 740 
C 2458 784 2419 784 2406 784 
C 2362 784 2355 771 2330 696 
C 2189 265 1837 51 1504 51 
C 1229 51 954 203 781 480 
C 582 803 582 1176 582 1472 
L 2438 1472 
z
M 589 1568 
C 634 2505 1126 2714 1382 2714 
C 1818 2714 2112 2297 2118 1568 
L 589 1568 
z
" transform="scale(0.015625)"/>
       <path id="CMR17-56" d="M 3776 3745 
C 3834 3886 3936 4160 4365 4160 
L 4365 4332 
C 4218 4319 4051 4319 3891 4319 
C 3738 4319 3475 4319 3328 4332 
L 3328 4160 
C 3648 4160 3661 3936 3661 3898 
C 3661 3827 3642 3783 3622 3732 
L 2362 446 
L 1043 3886 
C 1024 3931 1011 3963 1011 3994 
C 1011 4160 1267 4160 1402 4160 
L 1402 4319 
C 1197 4319 896 4319 685 4319 
C 518 4319 218 4319 64 4332 
L 64 4160 
C 435 4160 506 4135 582 3931 
L 2106 -26 
C 2138 -115 2144 -128 2214 -128 
C 2285 -128 2291 -115 2323 -26 
L 3776 3745 
z
" transform="scale(0.015625)"/>
       <path id="CMR17-5d" d="M 915 4767 
L 90 4767 
L 90 4544 
L 691 4544 
L 691 -1377 
L 90 -1377 
L 90 -1600 
L 915 -1600 
L 915 4767 
z
" transform="scale(0.015625)"/>
      </defs>
      <use xlink:href="#CMMI12-45" transform="scale(0.996264)"/>
      <use xlink:href="#CMR17-5b" transform="translate(108.127603 0) scale(0.996264)"/>
      <use xlink:href="#CMR17-65" transform="translate(132.998661 0) scale(0.996264)"/>
      <use xlink:href="#CMR17-56" transform="translate(173.484321 0) scale(0.996264)"/>
      <use xlink:href="#CMR17-5d" transform="translate(242.556751 0) scale(0.996264)"/>
     </g>
    </g>
   </g>
   <g id="matplotlib.axis_2">
    <g id="ytick_1">
     <g id="line2d_47">
      <defs>
       <path id="m864baf66c3" d="M 0 0 
L 3 0 
" style="stroke: #000000; stroke-width: 0.5"/>
      </defs>
      <g>
       <use xlink:href="#m864baf66c3" x="33.792719" y="305.123654" style="stroke: #000000; stroke-width: 0.5"/>
      </g>
     </g>
     <g id="line2d_48">
      <defs>
       <path id="m6545597e7d" d="M 0 0 
L -3 0 
" style="stroke: #000000; stroke-width: 0.5"/>
      </defs>
      <g>
       <use xlink:href="#m6545597e7d" x="284.892719" y="305.123654" style="stroke: #000000; stroke-width: 0.5"/>
      </g>
     </g>
     <g id="text_7">
      <!-- $\mathdefault{0.0}$ -->
      <g transform="translate(17.56264 308.582903) scale(0.1 -0.1)">
       <defs>
        <path id="CMMI12-3a" d="M 1178 307 
C 1178 492 1024 619 870 619 
C 685 619 557 466 557 313 
C 557 128 710 0 864 0 
C 1050 0 1178 153 1178 307 
z
" transform="scale(0.015625)"/>
       </defs>
       <use xlink:href="#CMR17-30" transform="scale(0.996264)"/>
       <use xlink:href="#CMMI12-3a" transform="translate(45.690477 0) scale(0.996264)"/>
       <use xlink:href="#CMR17-30" transform="translate(72.787654 0) scale(0.996264)"/>
      </g>
     </g>
    </g>
    <g id="ytick_2">
     <g id="line2d_49">
      <g>
       <use xlink:href="#m864baf66c3" x="33.792719" y="268.575333" style="stroke: #000000; stroke-width: 0.5"/>
      </g>
     </g>
     <g id="line2d_50">
      <g>
       <use xlink:href="#m6545597e7d" x="284.892719" y="268.575333" style="stroke: #000000; stroke-width: 0.5"/>
      </g>
     </g>
     <g id="text_8">
      <!-- $\mathdefault{0.2}$ -->
      <g transform="translate(17.56264 272.034582) scale(0.1 -0.1)">
       <use xlink:href="#CMR17-30" transform="scale(0.996264)"/>
       <use xlink:href="#CMMI12-3a" transform="translate(45.690477 0) scale(0.996264)"/>
       <use xlink:href="#CMR17-32" transform="translate(72.787654 0) scale(0.996264)"/>
      </g>
     </g>
    </g>
    <g id="ytick_3">
     <g id="line2d_51">
      <g>
       <use xlink:href="#m864baf66c3" x="33.792719" y="232.027011" style="stroke: #000000; stroke-width: 0.5"/>
      </g>
     </g>
     <g id="line2d_52">
      <g>
       <use xlink:href="#m6545597e7d" x="284.892719" y="232.027011" style="stroke: #000000; stroke-width: 0.5"/>
      </g>
     </g>
     <g id="text_9">
      <!-- $\mathdefault{0.4}$ -->
      <g transform="translate(17.56264 235.48626) scale(0.1 -0.1)">
       <use xlink:href="#CMR17-30" transform="scale(0.996264)"/>
       <use xlink:href="#CMMI12-3a" transform="translate(45.690477 0) scale(0.996264)"/>
       <use xlink:href="#CMR17-34" transform="translate(72.787654 0) scale(0.996264)"/>
      </g>
     </g>
    </g>
    <g id="ytick_4">
     <g id="line2d_53">
      <g>
       <use xlink:href="#m864baf66c3" x="33.792719" y="195.478689" style="stroke: #000000; stroke-width: 0.5"/>
      </g>
     </g>
     <g id="line2d_54">
      <g>
       <use xlink:href="#m6545597e7d" x="284.892719" y="195.478689" style="stroke: #000000; stroke-width: 0.5"/>
      </g>
     </g>
     <g id="text_10">
      <!-- $\mathdefault{0.6}$ -->
      <g transform="translate(17.56264 198.937938) scale(0.1 -0.1)">
       <use xlink:href="#CMR17-30" transform="scale(0.996264)"/>
       <use xlink:href="#CMMI12-3a" transform="translate(45.690477 0) scale(0.996264)"/>
       <use xlink:href="#CMR17-36" transform="translate(72.787654 0) scale(0.996264)"/>
      </g>
     </g>
    </g>
    <g id="ytick_5">
     <g id="line2d_55">
      <g>
       <use xlink:href="#m864baf66c3" x="33.792719" y="158.930367" style="stroke: #000000; stroke-width: 0.5"/>
      </g>
     </g>
     <g id="line2d_56">
      <g>
       <use xlink:href="#m6545597e7d" x="284.892719" y="158.930367" style="stroke: #000000; stroke-width: 0.5"/>
      </g>
     </g>
     <g id="text_11">
      <!-- $\mathdefault{0.8}$ -->
      <g transform="translate(17.56264 162.389617) scale(0.1 -0.1)">
       <use xlink:href="#CMR17-30" transform="scale(0.996264)"/>
       <use xlink:href="#CMMI12-3a" transform="translate(45.690477 0) scale(0.996264)"/>
       <use xlink:href="#CMR17-38" transform="translate(72.787654 0) scale(0.996264)"/>
      </g>
     </g>
    </g>
    <g id="ytick_6">
     <g id="line2d_57">
      <g>
       <use xlink:href="#m864baf66c3" x="33.792719" y="122.382046" style="stroke: #000000; stroke-width: 0.5"/>
      </g>
     </g>
     <g id="line2d_58">
      <g>
       <use xlink:href="#m6545597e7d" x="284.892719" y="122.382046" style="stroke: #000000; stroke-width: 0.5"/>
      </g>
     </g>
     <g id="text_12">
      <!-- $\mathdefault{1.0}$ -->
      <g transform="translate(17.56264 125.841295) scale(0.1 -0.1)">
       <defs>
        <path id="CMR17-31" d="M 1702 4058 
C 1702 4192 1696 4192 1606 4192 
C 1357 3916 979 3827 621 3827 
C 602 3827 570 3827 563 3808 
C 557 3795 557 3782 557 3648 
C 755 3648 1088 3686 1344 3839 
L 1344 461 
C 1344 236 1331 160 781 160 
L 589 160 
L 589 0 
C 896 0 1216 0 1523 0 
C 1830 0 2150 0 2458 0 
L 2458 160 
L 2266 160 
C 1715 160 1702 230 1702 458 
L 1702 4058 
z
" transform="scale(0.015625)"/>
       </defs>
       <use xlink:href="#CMR17-31" transform="scale(0.996264)"/>
       <use xlink:href="#CMMI12-3a" transform="translate(45.690477 0) scale(0.996264)"/>
       <use xlink:href="#CMR17-30" transform="translate(72.787654 0) scale(0.996264)"/>
      </g>
     </g>
    </g>
    <g id="ytick_7">
     <g id="line2d_59">
      <defs>
       <path id="m947396bc0b" d="M 0 0 
L 1.5 0 
" style="stroke: #000000; stroke-width: 0.5"/>
      </defs>
      <g>
       <use xlink:href="#m947396bc0b" x="33.792719" y="314.260735" style="stroke: #000000; stroke-width: 0.5"/>
      </g>
     </g>
     <g id="line2d_60">
      <defs>
       <path id="m16edf2ee05" d="M 0 0 
L -1.5 0 
" style="stroke: #000000; stroke-width: 0.5"/>
      </defs>
      <g>
       <use xlink:href="#m16edf2ee05" x="284.892719" y="314.260735" style="stroke: #000000; stroke-width: 0.5"/>
      </g>
     </g>
    </g>
    <g id="ytick_8">
     <g id="line2d_61">
      <g>
       <use xlink:href="#m947396bc0b" x="33.792719" y="295.986574" style="stroke: #000000; stroke-width: 0.5"/>
      </g>
     </g>
     <g id="line2d_62">
      <g>
       <use xlink:href="#m16edf2ee05" x="284.892719" y="295.986574" style="stroke: #000000; stroke-width: 0.5"/>
      </g>
     </g>
    </g>
    <g id="ytick_9">
     <g id="line2d_63">
      <g>
       <use xlink:href="#m947396bc0b" x="33.792719" y="286.849493" style="stroke: #000000; stroke-width: 0.5"/>
      </g>
     </g>
     <g id="line2d_64">
      <g>
       <use xlink:href="#m16edf2ee05" x="284.892719" y="286.849493" style="stroke: #000000; stroke-width: 0.5"/>
      </g>
     </g>
    </g>
    <g id="ytick_10">
     <g id="line2d_65">
      <g>
       <use xlink:href="#m947396bc0b" x="33.792719" y="277.712413" style="stroke: #000000; stroke-width: 0.5"/>
      </g>
     </g>
     <g id="line2d_66">
      <g>
       <use xlink:href="#m16edf2ee05" x="284.892719" y="277.712413" style="stroke: #000000; stroke-width: 0.5"/>
      </g>
     </g>
    </g>
    <g id="ytick_11">
     <g id="line2d_67">
      <g>
       <use xlink:href="#m947396bc0b" x="33.792719" y="259.438252" style="stroke: #000000; stroke-width: 0.5"/>
      </g>
     </g>
     <g id="line2d_68">
      <g>
       <use xlink:href="#m16edf2ee05" x="284.892719" y="259.438252" style="stroke: #000000; stroke-width: 0.5"/>
      </g>
     </g>
    </g>
    <g id="ytick_12">
     <g id="line2d_69">
      <g>
       <use xlink:href="#m947396bc0b" x="33.792719" y="250.301172" style="stroke: #000000; stroke-width: 0.5"/>
      </g>
     </g>
     <g id="line2d_70">
      <g>
       <use xlink:href="#m16edf2ee05" x="284.892719" y="250.301172" style="stroke: #000000; stroke-width: 0.5"/>
      </g>
     </g>
    </g>
    <g id="ytick_13">
     <g id="line2d_71">
      <g>
       <use xlink:href="#m947396bc0b" x="33.792719" y="241.164091" style="stroke: #000000; stroke-width: 0.5"/>
      </g>
     </g>
     <g id="line2d_72">
      <g>
       <use xlink:href="#m16edf2ee05" x="284.892719" y="241.164091" style="stroke: #000000; stroke-width: 0.5"/>
      </g>
     </g>
    </g>
    <g id="ytick_14">
     <g id="line2d_73">
      <g>
       <use xlink:href="#m947396bc0b" x="33.792719" y="222.88993" style="stroke: #000000; stroke-width: 0.5"/>
      </g>
     </g>
     <g id="line2d_74">
      <g>
       <use xlink:href="#m16edf2ee05" x="284.892719" y="222.88993" style="stroke: #000000; stroke-width: 0.5"/>
      </g>
     </g>
    </g>
    <g id="ytick_15">
     <g id="line2d_75">
      <g>
       <use xlink:href="#m947396bc0b" x="33.792719" y="213.75285" style="stroke: #000000; stroke-width: 0.5"/>
      </g>
     </g>
     <g id="line2d_76">
      <g>
       <use xlink:href="#m16edf2ee05" x="284.892719" y="213.75285" style="stroke: #000000; stroke-width: 0.5"/>
      </g>
     </g>
    </g>
    <g id="ytick_16">
     <g id="line2d_77">
      <g>
       <use xlink:href="#m947396bc0b" x="33.792719" y="204.61577" style="stroke: #000000; stroke-width: 0.5"/>
      </g>
     </g>
     <g id="line2d_78">
      <g>
       <use xlink:href="#m16edf2ee05" x="284.892719" y="204.61577" style="stroke: #000000; stroke-width: 0.5"/>
      </g>
     </g>
    </g>
    <g id="ytick_17">
     <g id="line2d_79">
      <g>
       <use xlink:href="#m947396bc0b" x="33.792719" y="186.341609" style="stroke: #000000; stroke-width: 0.5"/>
      </g>
     </g>
     <g id="line2d_80">
      <g>
       <use xlink:href="#m16edf2ee05" x="284.892719" y="186.341609" style="stroke: #000000; stroke-width: 0.5"/>
      </g>
     </g>
    </g>
    <g id="ytick_18">
     <g id="line2d_81">
      <g>
       <use xlink:href="#m947396bc0b" x="33.792719" y="177.204528" style="stroke: #000000; stroke-width: 0.5"/>
      </g>
     </g>
     <g id="line2d_82">
      <g>
       <use xlink:href="#m16edf2ee05" x="284.892719" y="177.204528" style="stroke: #000000; stroke-width: 0.5"/>
      </g>
     </g>
    </g>
    <g id="ytick_19">
     <g id="line2d_83">
      <g>
       <use xlink:href="#m947396bc0b" x="33.792719" y="168.067448" style="stroke: #000000; stroke-width: 0.5"/>
      </g>
     </g>
     <g id="line2d_84">
      <g>
       <use xlink:href="#m16edf2ee05" x="284.892719" y="168.067448" style="stroke: #000000; stroke-width: 0.5"/>
      </g>
     </g>
    </g>
    <g id="ytick_20">
     <g id="line2d_85">
      <g>
       <use xlink:href="#m947396bc0b" x="33.792719" y="149.793287" style="stroke: #000000; stroke-width: 0.5"/>
      </g>
     </g>
     <g id="line2d_86">
      <g>
       <use xlink:href="#m16edf2ee05" x="284.892719" y="149.793287" style="stroke: #000000; stroke-width: 0.5"/>
      </g>
     </g>
    </g>
    <g id="ytick_21">
     <g id="line2d_87">
      <g>
       <use xlink:href="#m947396bc0b" x="33.792719" y="140.656206" style="stroke: #000000; stroke-width: 0.5"/>
      </g>
     </g>
     <g id="line2d_88">
      <g>
       <use xlink:href="#m16edf2ee05" x="284.892719" y="140.656206" style="stroke: #000000; stroke-width: 0.5"/>
      </g>
     </g>
    </g>
    <g id="ytick_22">
     <g id="line2d_89">
      <g>
       <use xlink:href="#m947396bc0b" x="33.792719" y="131.519126" style="stroke: #000000; stroke-width: 0.5"/>
      </g>
     </g>
     <g id="line2d_90">
      <g>
       <use xlink:href="#m16edf2ee05" x="284.892719" y="131.519126" style="stroke: #000000; stroke-width: 0.5"/>
      </g>
     </g>
    </g>
    <g id="ytick_23">
     <g id="line2d_91">
      <g>
       <use xlink:href="#m947396bc0b" x="33.792719" y="113.244965" style="stroke: #000000; stroke-width: 0.5"/>
      </g>
     </g>
     <g id="line2d_92">
      <g>
       <use xlink:href="#m16edf2ee05" x="284.892719" y="113.244965" style="stroke: #000000; stroke-width: 0.5"/>
      </g>
     </g>
    </g>
    <g id="ytick_24">
     <g id="line2d_93">
      <g>
       <use xlink:href="#m947396bc0b" x="33.792719" y="104.107885" style="stroke: #000000; stroke-width: 0.5"/>
      </g>
     </g>
     <g id="line2d_94">
      <g>
       <use xlink:href="#m16edf2ee05" x="284.892719" y="104.107885" style="stroke: #000000; stroke-width: 0.5"/>
      </g>
     </g>
    </g>
    <g id="ytick_25">
     <g id="line2d_95">
      <g>
       <use xlink:href="#m947396bc0b" x="33.792719" y="94.970804" style="stroke: #000000; stroke-width: 0.5"/>
      </g>
     </g>
     <g id="line2d_96">
      <g>
       <use xlink:href="#m16edf2ee05" x="284.892719" y="94.970804" style="stroke: #000000; stroke-width: 0.5"/>
      </g>
     </g>
    </g>
    <g id="text_13">
     <!-- $I$ [s] -->
     <g transform="translate(11.07198 213.296944) rotate(-90) scale(0.1 -0.1)">
      <defs>
       <path id="CMMI12-49" d="M 2355 3880 
C 2413 4103 2426 4167 2893 4167 
C 3034 4167 3085 4167 3085 4288 
C 3085 4352 3014 4352 2995 4352 
C 2880 4352 2739 4352 2624 4352 
L 1837 4352 
C 1709 4352 1562 4352 1434 4352 
C 1382 4352 1312 4352 1312 4231 
C 1312 4167 1363 4167 1491 4167 
C 1888 4167 1888 4116 1888 4046 
C 1888 4002 1875 3963 1862 3906 
L 998 472 
C 941 249 928 185 461 185 
C 320 185 262 185 262 64 
C 262 0 326 0 358 0 
C 474 0 614 0 730 0 
L 1517 0 
C 1645 0 1786 0 1914 0 
C 1965 0 2042 0 2042 115 
C 2042 185 2003 185 1862 185 
C 1466 185 1466 236 1466 312 
C 1466 325 1466 357 1491 459 
L 2355 3880 
z
" transform="scale(0.015625)"/>
       <path id="CMR17-73" d="M 1978 2697 
C 1978 2813 1971 2819 1933 2819 
C 1907 2819 1901 2813 1824 2717 
C 1805 2691 1747 2626 1728 2601 
C 1523 2819 1235 2819 1126 2819 
C 416 2819 160 2447 160 2076 
C 160 1498 813 1365 998 1325 
C 1402 1243 1542 1217 1677 1101 
C 1760 1025 1901 884 1901 654 
C 1901 384 1747 38 1158 38 
C 602 38 403 460 288 1021 
C 269 1110 269 1117 218 1117 
C 166 1117 160 1110 160 983 
L 160 63 
C 160 -51 166 -58 205 -58 
C 237 -58 243 -51 275 0 
C 314 57 410 211 448 276 
C 576 103 800 -64 1158 -64 
C 1792 -64 2131 283 2131 784 
C 2131 1112 1958 1285 1875 1362 
C 1683 1561 1459 1606 1190 1657 
C 838 1735 390 1825 390 2217 
C 390 2383 480 2737 1126 2737 
C 1811 2737 1850 2094 1862 1888 
C 1869 1856 1901 1849 1920 1849 
C 1978 1849 1978 1869 1978 1978 
L 1978 2697 
z
" transform="scale(0.015625)"/>
      </defs>
      <use xlink:href="#CMMI12-49" transform="scale(0.996264)"/>
      <use xlink:href="#CMR17-5b" transform="translate(80.93248 0) scale(0.996264)"/>
      <use xlink:href="#CMR17-73" transform="translate(105.803539 0) scale(0.996264)"/>
      <use xlink:href="#CMR17-5d" transform="translate(141.604876 0) scale(0.996264)"/>
     </g>
    </g>
    <g id="text_14">
     <!-- $\times\mathdefault{10^{−18}}\mathdefault{}$ -->
     <g transform="translate(33.792719 90.443651) scale(0.1 -0.1)">
      <defs>
       <path id="CMSY10-2" d="M 2490 1785 
L 1210 3059 
C 1133 3136 1120 3148 1069 3148 
C 1005 3148 941 3091 941 3020 
C 941 2976 954 2963 1024 2892 
L 2304 1606 
L 1024 320 
C 954 249 941 236 941 192 
C 941 121 1005 64 1069 64 
C 1120 64 1133 76 1210 153 
L 2483 1427 
L 3808 102 
C 3821 96 3866 64 3904 64 
C 3981 64 4032 121 4032 192 
C 4032 204 4032 230 4013 262 
C 4006 275 2989 1280 2669 1606 
L 3840 2777 
C 3872 2816 3968 2899 4000 2937 
C 4006 2950 4032 2976 4032 3020 
C 4032 3091 3981 3148 3904 3148 
C 3853 3148 3827 3123 3757 3052 
L 2490 1785 
z
" transform="scale(0.015625)"/>
       <path id="CMSY10-0" d="M 4218 1472 
C 4326 1472 4442 1472 4442 1600 
C 4442 1728 4326 1728 4218 1728 
L 755 1728 
C 646 1728 531 1728 531 1600 
C 531 1472 646 1472 755 1472 
L 4218 1472 
z
" transform="scale(0.015625)"/>
      </defs>
      <use xlink:href="#CMSY10-2" transform="scale(0.996264)"/>
      <use xlink:href="#CMR17-31" transform="translate(77.487468 0) scale(0.996264)"/>
      <use xlink:href="#CMR17-30" transform="translate(123.177945 0) scale(0.996264)"/>
      <use xlink:href="#CMSY10-0" transform="translate(168.868422 36.153639) scale(0.697382)"/>
      <use xlink:href="#CMR17-31" transform="translate(223.109415 36.153639) scale(0.697382)"/>
      <use xlink:href="#CMR17-38" transform="translate(255.092597 36.153639) scale(0.697382)"/>
     </g>
    </g>
   </g>
   <g id="line2d_97">
    <path d="M 45.206355 305.062919 
L 78.077628 304.873219 
L 94.96981 304.568787 
L 107.296537 304.12839 
L 118.253628 303.512738 
L 134.232719 302.574155 
L 139.711265 302.51466 
L 147.929083 302.488151 
L 150.21181 302.20869 
L 152.037992 301.748861 
L 153.407628 301.208233 
L 154.777265 300.454084 
L 156.146901 299.444837 
L 157.516537 298.142228 
L 158.886174 296.515829 
L 160.25581 294.548397 
L 161.625446 292.241616 
L 163.451628 288.687244 
L 165.734355 283.692403 
L 169.386719 275.672731 
L 170.756355 273.145113 
L 172.125992 271.124343 
L 173.039083 270.126316 
L 173.952174 269.445109 
L 174.865265 269.102973 
L 175.778355 269.111981 
L 176.691446 269.473318 
L 177.604537 270.177156 
L 178.517628 271.203135 
L 179.430719 272.521405 
L 180.800355 274.962452 
L 182.626537 278.842675 
L 188.561628 292.135527 
L 190.38781 295.41362 
L 191.757446 297.477235 
L 193.127083 299.201242 
L 194.496719 300.605727 
L 195.866355 301.72325 
L 197.235992 302.592968 
L 199.062174 303.437808 
L 200.888355 304.006545 
L 203.171083 304.447361 
L 205.910355 304.730283 
L 210.019265 304.907611 
L 219.150174 305.012644 
L 252.934537 305.114558 
L 273.479083 305.122636 
L 273.479083 305.122636 
" clip-path="url(#pf336a977d5)" style="fill: none; stroke-dasharray: 7.4,3.2; stroke-dashoffset: 0; stroke: #0c5da5; stroke-width: 2"/>
   </g>
   <g id="line2d_98">
    <path d="M 45.206355 289.2869 
L 50.684901 286.422582 
L 61.641992 280.572394 
L 64.83781 279.137341 
L 67.577083 278.124021 
L 70.316355 277.363587 
L 72.599083 276.950191 
L 74.88181 276.749711 
L 77.164537 276.762738 
L 79.447265 276.979023 
L 82.186537 277.478945 
L 84.92581 278.198603 
L 88.121628 279.253817 
L 92.230537 280.86547 
L 96.339446 282.719523 
L 100.904901 285.04943 
L 105.470355 287.381583 
L 107.296537 288.068954 
L 108.666174 288.350234 
L 109.579265 288.370126 
L 110.492355 288.212075 
L 111.405446 287.831725 
L 112.318537 287.178533 
L 113.231628 286.195871 
L 114.144719 284.821444 
L 115.05781 282.988089 
L 115.970901 280.625025 
L 116.883992 277.659645 
L 117.797083 274.01988 
L 118.710174 269.637192 
L 119.623265 264.450168 
L 120.992901 255.056121 
L 122.362537 243.646659 
L 123.732174 230.24339 
L 125.558355 209.600677 
L 127.841083 180.75601 
L 130.580355 146.001785 
L 131.949992 130.720186 
L 133.319628 118.157781 
L 134.232719 111.741533 
L 135.14581 107.152641 
L 135.602355 105.597378 
L 136.058901 104.556115 
L 136.515446 104.039584 
L 136.971992 104.054147 
L 137.428537 104.601689 
L 137.885083 105.679557 
L 138.341628 107.280587 
L 139.254719 112.00147 
L 140.16781 118.621568 
L 141.080901 126.937877 
L 142.450537 142.031044 
L 144.276719 165.482053 
L 148.842174 226.089117 
L 150.668355 246.383953 
L 152.037992 259.230925 
L 153.407628 269.964116 
L 154.777265 278.674269 
L 156.146901 285.55221 
L 157.059992 289.240539 
L 157.973083 292.303469 
L 158.886174 294.820434 
L 159.799265 296.86797 
L 160.712355 298.517636 
L 161.625446 299.834654 
L 162.538537 300.877173 
L 163.908174 302.035483 
L 165.27781 302.830524 
L 166.647446 303.371136 
L 168.473628 303.832543 
L 170.756355 304.166516 
L 174.408719 304.451068 
L 182.169992 304.778529 
L 193.127083 305.016681 
L 209.562719 305.110163 
L 273.479083 305.123651 
L 273.479083 305.123651 
" clip-path="url(#pf336a977d5)" style="fill: none; stroke: #0c5da5; stroke-width: 2; stroke-linecap: square"/>
   </g>
   <g id="line2d_99">
    <path d="M 45.206355 305.054143 
L 78.077628 304.856837 
L 94.96981 304.551362 
L 107.296537 304.117504 
L 118.710174 303.48798 
L 134.232719 302.600052 
L 140.16781 302.540355 
L 147.929083 302.505165 
L 150.21181 302.229666 
L 152.037992 301.774721 
L 153.407628 301.237718 
L 154.777265 300.485751 
L 156.146901 299.475369 
L 157.516537 298.165894 
L 158.886174 296.524074 
L 160.25581 294.529702 
L 161.625446 292.181786 
L 163.451628 288.547534 
L 165.734355 283.413882 
L 169.386719 275.130222 
L 170.756355 272.51811 
L 172.125992 270.437627 
L 173.039083 269.418655 
L 173.952174 268.734452 
L 174.865265 268.408887 
L 175.778355 268.45471 
L 176.691446 268.872746 
L 177.604537 269.651745 
L 178.517628 270.768909 
L 179.430719 272.191079 
L 180.800355 274.803008 
L 182.626537 278.915878 
L 187.648537 290.800262 
L 189.474719 294.403022 
L 190.844355 296.690217 
L 192.213992 298.609214 
L 193.583628 300.175507 
L 194.953265 301.421303 
L 196.322901 302.388366 
L 197.692537 303.122037 
L 199.518719 303.813506 
L 201.344901 304.262523 
L 203.627628 304.596946 
L 206.823446 304.82388 
L 212.758537 304.960038 
L 233.759628 305.081398 
L 273.479083 305.122792 
L 273.479083 305.122792 
" clip-path="url(#pf336a977d5)" style="fill: none; stroke-dasharray: 3.7,1.6; stroke-dashoffset: 0; stroke: #00b945"/>
   </g>
   <g id="line2d_100">
    <path d="M 45.206355 286.138109 
L 51.597992 282.556228 
L 58.902719 278.483178 
L 62.555083 276.704157 
L 65.294355 275.592509 
L 68.033628 274.735177 
L 70.316355 274.249932 
L 72.599083 273.994049 
L 74.88181 273.976509 
L 77.164537 274.194779 
L 79.447265 274.635131 
L 82.186537 275.423991 
L 84.92581 276.449608 
L 88.121628 277.877525 
L 92.230537 279.981021 
L 96.795992 282.576629 
L 103.644174 286.536924 
L 105.470355 287.335858 
L 106.839992 287.727196 
L 108.209628 287.846447 
L 109.122719 287.721566 
L 110.03581 287.388583 
L 110.948901 286.80338 
L 111.861992 285.916632 
L 112.775083 284.674084 
L 113.688174 283.017118 
L 114.601265 280.883662 
L 115.514355 278.209519 
L 116.427446 274.930141 
L 117.340537 270.982898 
L 118.253628 266.309859 
L 119.623265 257.833218 
L 120.992901 247.498729 
L 122.362537 235.281567 
L 123.732174 221.278803 
L 125.558355 200.281979 
L 131.036901 134.084253 
L 132.406537 121.043591 
L 133.319628 114.059643 
L 134.232719 108.707367 
L 135.14581 105.167647 
L 135.602355 104.120177 
L 136.058901 103.569891 
L 136.515446 103.523651 
L 136.971992 103.984297 
L 137.428537 104.950581 
L 137.885083 106.417156 
L 138.798174 110.809656 
L 139.711265 117.040347 
L 140.624355 124.931145 
L 141.993992 139.376338 
L 143.820174 162.075819 
L 148.842174 227.553526 
L 150.668355 247.354392 
L 152.037992 259.896377 
L 153.407628 270.390616 
L 154.777265 278.925479 
L 156.146901 285.683208 
L 157.059992 289.316419 
L 157.973083 292.34017 
L 158.886174 294.830593 
L 159.799265 296.861268 
L 160.712355 298.501212 
L 161.625446 299.813552 
L 162.538537 300.854772 
L 163.908174 302.014774 
L 165.27781 302.813385 
L 166.647446 303.357787 
L 168.473628 303.823301 
L 170.756355 304.160366 
L 174.408719 304.446628 
L 182.169992 304.775173 
L 193.127083 305.015758 
L 209.562719 305.11025 
L 273.479083 305.123651 
L 273.479083 305.123651 
" clip-path="url(#pf336a977d5)" style="fill: none; stroke: #00b945; stroke-linecap: square"/>
   </g>
   <g id="line2d_101">
    <path d="M 45.206355 305.045247 
L 78.077628 304.841325 
L 95.426355 304.523593 
L 107.753083 304.088162 
L 119.623265 303.437233 
L 134.232719 302.625572 
L 140.16781 302.561648 
L 147.929083 302.521884 
L 150.21181 302.250234 
L 152.037992 301.800037 
L 153.407628 301.266546 
L 154.777265 300.516645 
L 156.146901 299.505008 
L 157.516537 298.188518 
L 158.886174 296.53105 
L 160.25581 294.509353 
L 161.625446 292.119661 
L 163.451628 288.404126 
L 165.734355 283.128965 
L 169.386719 274.577037 
L 170.756355 271.880394 
L 172.125992 269.742016 
L 173.039083 268.704612 
L 173.952174 268.021087 
L 174.865265 267.716929 
L 175.778355 267.805481 
L 176.691446 268.287017 
L 177.604537 269.148567 
L 178.517628 270.364519 
L 179.430719 271.897974 
L 180.800355 274.690458 
L 182.626537 279.044115 
L 187.191992 290.344332 
L 189.018174 294.137652 
L 190.38781 296.539728 
L 191.757446 298.546286 
L 193.127083 300.173757 
L 194.496719 301.457679 
L 195.866355 302.444419 
L 197.235992 303.184235 
L 199.062174 303.870609 
L 200.888355 304.307107 
L 203.171083 304.624006 
L 206.366901 304.832144 
L 212.758537 304.960844 
L 236.498901 305.091608 
L 273.479083 305.122935 
L 273.479083 305.122935 
" clip-path="url(#pf336a977d5)" style="fill: none; stroke-dasharray: 3.7,1.6; stroke-dashoffset: 0; stroke: #ff9500"/>
   </g>
   <g id="line2d_102">
    <path d="M 45.206355 289.2869 
L 50.684901 286.422582 
L 61.641992 280.572394 
L 64.83781 279.137341 
L 67.577083 278.124021 
L 70.316355 277.363587 
L 72.599083 276.950191 
L 74.88181 276.749711 
L 77.164537 276.762738 
L 79.447265 276.979023 
L 82.186537 277.478945 
L 84.92581 278.198603 
L 88.121628 279.253817 
L 92.230537 280.86547 
L 96.339446 282.719523 
L 100.904901 285.04943 
L 105.470355 287.381583 
L 107.296537 288.068954 
L 108.666174 288.350234 
L 109.579265 288.370126 
L 110.492355 288.212075 
L 111.405446 287.831725 
L 112.318537 287.178533 
L 113.231628 286.195871 
L 114.144719 284.821444 
L 115.05781 282.988089 
L 115.970901 280.625025 
L 116.883992 277.659645 
L 117.797083 274.01988 
L 118.710174 269.637192 
L 119.623265 264.450168 
L 120.992901 255.056121 
L 122.362537 243.646659 
L 123.732174 230.24339 
L 125.558355 209.600677 
L 127.841083 180.75601 
L 130.580355 146.001785 
L 131.949992 130.720186 
L 133.319628 118.157781 
L 134.232719 111.741533 
L 135.14581 107.152641 
L 135.602355 105.597378 
L 136.058901 104.556115 
L 136.515446 104.039584 
L 136.971992 104.054147 
L 137.428537 104.601689 
L 137.885083 105.679557 
L 138.341628 107.280587 
L 139.254719 112.00147 
L 140.16781 118.621568 
L 141.080901 126.937877 
L 142.450537 142.031044 
L 144.276719 165.482053 
L 148.842174 226.089117 
L 150.668355 246.383953 
L 152.037992 259.230925 
L 153.407628 269.964116 
L 154.777265 278.674269 
L 156.146901 285.55221 
L 157.059992 289.240539 
L 157.973083 292.303469 
L 158.886174 294.820434 
L 159.799265 296.86797 
L 160.712355 298.517636 
L 161.625446 299.834654 
L 162.538537 300.877173 
L 163.908174 302.035483 
L 165.27781 302.830524 
L 166.647446 303.371136 
L 168.473628 303.832543 
L 170.756355 304.166516 
L 174.408719 304.451068 
L 182.169992 304.778529 
L 193.127083 305.016681 
L 209.562719 305.110163 
L 273.479083 305.123651 
L 273.479083 305.123651 
" clip-path="url(#pf336a977d5)" style="fill: none; stroke: #ff9500; stroke-linecap: square"/>
   </g>
   <g id="patch_5">
    <path d="M 33.792719 315.203651 
L 33.792719 93.443651 
" style="fill: none; stroke: #000000; stroke-width: 0.5; stroke-linejoin: miter; stroke-linecap: square"/>
   </g>
   <g id="patch_6">
    <path d="M 284.892719 315.203651 
L 284.892719 93.443651 
" style="fill: none; stroke: #000000; stroke-width: 0.5; stroke-linejoin: miter; stroke-linecap: square"/>
   </g>
   <g id="patch_7">
    <path d="M 33.792719 315.203651 
L 284.892719 315.203651 
" style="fill: none; stroke: #000000; stroke-width: 0.5; stroke-linejoin: miter; stroke-linecap: square"/>
   </g>
   <g id="patch_8">
    <path d="M 33.792719 93.443651 
L 284.892719 93.443651 
" style="fill: none; stroke: #000000; stroke-width: 0.5; stroke-linejoin: miter; stroke-linecap: square"/>
   </g>
   <g id="text_15">
    <!-- bound-free and free-bound scattering -->
    <g transform="translate(64.361694 77.440996) scale(0.12 -0.12)">
     <defs>
      <path id="CMR17-62" d="M 960 4396 
L 198 4326 
L 198 4160 
C 576 4160 634 4122 634 3817 
L 634 -13 
L 749 -13 
L 934 441 
C 1120 141 1395 -64 1766 -64 
C 2406 -64 3053 500 3053 1370 
C 3053 2188 2477 2790 1830 2790 
C 1434 2790 1152 2579 960 2330 
L 960 4396 
z
M 973 2004 
C 973 2118 973 2138 1062 2272 
C 1312 2657 1670 2688 1792 2688 
C 1984 2688 2643 2585 2643 1376 
C 2643 108 1888 38 1734 38 
C 1536 38 1248 114 1043 486 
C 973 608 973 621 973 735 
L 973 2004 
z
" transform="scale(0.015625)"/>
      <path id="CMR17-6f" d="M 2758 1356 
C 2758 2176 2163 2816 1466 2816 
C 768 2816 173 2176 173 1356 
C 173 551 768 -64 1466 -64 
C 2163 -64 2758 551 2758 1356 
z
M 1466 51 
C 1165 51 909 230 762 480 
C 602 767 582 1126 582 1408 
C 582 1677 595 2010 762 2298 
C 890 2509 1139 2714 1466 2714 
C 1754 2714 1997 2554 2150 2330 
C 2349 2029 2349 1607 2349 1408 
C 2349 1158 2336 775 2163 467 
C 1984 173 1709 51 1466 51 
z
" transform="scale(0.015625)"/>
      <path id="CMR17-75" d="M 1882 2693 
L 1882 2528 
C 2259 2528 2317 2489 2317 2186 
L 2317 1032 
C 2317 500 2029 38 1555 38 
C 1030 38 986 348 986 678 
L 986 2763 
L 211 2693 
L 211 2528 
C 467 2528 640 2528 646 2274 
L 646 1058 
C 646 633 646 361 813 183 
C 896 101 1056 -64 1517 -64 
C 2061 -64 2272 377 2323 506 
L 2330 506 
L 2330 -63 
L 3091 -63 
L 3091 128 
C 2714 128 2656 166 2656 473 
L 2656 2763 
L 1882 2693 
z
" transform="scale(0.015625)"/>
      <path id="CMR17-6e" d="M 2656 1933 
C 2656 2259 2592 2790 1837 2790 
C 1331 2790 1069 2400 973 2144 
L 966 2144 
L 966 2790 
L 211 2720 
L 211 2554 
C 589 2554 646 2515 646 2208 
L 646 428 
C 646 184 621 153 211 153 
L 211 -13 
C 365 0 646 0 813 0 
C 979 0 1267 0 1421 -13 
L 1421 153 
C 1011 153 986 178 986 428 
L 986 1658 
C 986 2247 1344 2688 1792 2688 
C 2266 2688 2317 2266 2317 1958 
L 2317 428 
C 2317 184 2291 153 1882 153 
L 1882 -13 
C 2035 0 2317 0 2483 0 
C 2650 0 2938 0 3091 -13 
L 3091 153 
C 2682 153 2656 178 2656 428 
L 2656 1933 
z
" transform="scale(0.015625)"/>
      <path id="CMR17-64" d="M 1869 4326 
L 1869 4160 
C 2246 4160 2304 4122 2304 3820 
L 2304 2345 
C 2278 2377 2016 2790 1498 2790 
C 845 2790 211 2208 211 1364 
C 211 525 806 -64 1434 -64 
C 1978 -64 2259 337 2291 380 
L 2291 -63 
L 3066 -63 
L 3066 128 
C 2688 128 2630 166 2630 473 
L 2630 4396 
L 1869 4326 
z
M 2291 755 
C 2291 563 2176 390 2029 262 
C 1811 70 1594 38 1472 38 
C 1286 38 621 134 621 1356 
C 621 2612 1363 2688 1530 2688 
C 1824 2688 2061 2522 2208 2291 
C 2291 2157 2291 2138 2291 2023 
L 2291 755 
z
" transform="scale(0.015625)"/>
      <path id="CMR17-2d" d="M 1632 1216 
L 1632 1496 
L 26 1496 
L 26 1216 
L 1632 1216 
z
" transform="scale(0.015625)"/>
      <path id="CMR17-66" d="M 979 2560 
L 1709 2560 
L 1709 2725 
L 966 2725 
L 966 3494 
C 966 4022 1235 4352 1510 4352 
C 1594 4352 1690 4327 1754 4282 
C 1702 4269 1568 4225 1568 4067 
C 1568 3901 1696 3850 1786 3850 
C 1875 3850 2003 3901 2003 4067 
C 2003 4308 1773 4454 1517 4454 
C 1152 4454 653 4156 653 3481 
L 653 2725 
L 141 2725 
L 141 2560 
L 653 2560 
L 653 427 
C 653 184 627 153 218 153 
L 218 -13 
C 371 0 666 0 832 0 
C 1018 0 1344 0 1517 -13 
L 1517 153 
C 1056 153 979 153 979 439 
L 979 2560 
z
" transform="scale(0.015625)"/>
      <path id="CMR17-72" d="M 960 1497 
C 960 2112 1222 2688 1702 2688 
C 1747 2688 1792 2682 1837 2662 
C 1837 2662 1696 2617 1696 2452 
C 1696 2298 1818 2234 1914 2234 
C 1990 2234 2131 2279 2131 2458 
C 2131 2663 1926 2790 1709 2790 
C 1222 2790 1011 2317 947 2093 
L 941 2093 
L 941 2790 
L 198 2720 
L 198 2554 
C 576 2554 634 2515 634 2208 
L 634 428 
C 634 184 608 153 198 153 
L 198 -13 
C 352 0 646 0 813 0 
C 998 0 1325 0 1498 -13 
L 1498 153 
C 1037 153 960 153 960 440 
L 960 1497 
z
" transform="scale(0.015625)"/>
      <path id="CMR17-61" d="M 2304 1653 
C 2304 2072 2304 2294 2035 2543 
C 1798 2752 1523 2816 1306 2816 
C 800 2816 435 2407 435 1971 
C 435 1728 627 1728 666 1728 
C 749 1728 896 1778 896 1954 
C 896 2112 774 2181 666 2181 
C 640 2181 608 2174 589 2168 
C 723 2592 1069 2714 1293 2714 
C 1613 2714 1965 2429 1965 1885 
L 1965 1600 
C 1587 1600 1133 1549 774 1357 
C 371 1133 256 813 256 570 
C 256 77 832 -64 1171 -64 
C 1523 -64 1850 139 1990 511 
C 2003 233 2182 -18 2464 -18 
C 2598 -18 2938 70 2938 567 
L 2938 920 
L 2822 920 
L 2822 562 
C 2822 178 2650 128 2566 128 
C 2304 128 2304 458 2304 738 
L 2304 1653 
z
M 1965 870 
C 1965 317 1568 38 1216 38 
C 896 38 646 275 646 570 
C 646 761 730 1100 1101 1305 
C 1408 1478 1760 1504 1965 1504 
L 1965 870 
z
" transform="scale(0.015625)"/>
      <path id="CMR17-63" d="M 2234 2240 
C 2112 2240 1933 2240 1933 2017 
C 1933 1838 2080 1787 2163 1787 
C 2208 1787 2394 1807 2394 2024 
C 2394 2467 1958 2803 1466 2803 
C 787 2803 211 2178 211 1363 
C 211 516 813 -64 1466 -64 
C 2259 -64 2458 677 2458 748 
C 2458 774 2451 793 2406 793 
C 2362 793 2355 787 2330 703 
C 2163 180 1798 51 1523 51 
C 1114 51 621 427 621 1369 
C 621 2338 1094 2688 1472 2688 
C 1722 2688 2093 2573 2234 2240 
z
" transform="scale(0.015625)"/>
      <path id="CMR17-74" d="M 966 2560 
L 1862 2560 
L 1862 2725 
L 966 2725 
L 966 3904 
L 851 3904 
C 838 3245 614 2668 70 2668 
L 70 2560 
L 627 2560 
L 627 771 
C 627 650 627 -64 1370 -64 
C 1747 -64 1965 306 1965 777 
L 1965 1140 
L 1850 1140 
L 1850 783 
C 1850 344 1677 51 1408 51 
C 1222 51 966 178 966 758 
L 966 2560 
z
" transform="scale(0.015625)"/>
      <path id="CMR17-69" d="M 992 3909 
C 992 4049 877 4170 730 4170 
C 589 4170 467 4056 467 3909 
C 467 3769 582 3648 730 3648 
C 870 3648 992 3763 992 3909 
z
M 243 2706 
L 243 2541 
C 602 2541 653 2502 653 2197 
L 653 427 
C 653 184 627 153 218 153 
L 218 -13 
C 371 0 646 0 806 0 
C 960 0 1222 0 1370 -13 
L 1370 153 
C 992 153 979 191 979 420 
L 979 2776 
L 243 2706 
z
" transform="scale(0.015625)"/>
      <path id="CMR17-67" d="M 710 1164 
C 832 1068 1043 960 1299 960 
C 1805 960 2240 1357 2240 1888 
C 2240 2054 2189 2310 1997 2509 
C 2176 2692 2438 2752 2586 2752 
C 2611 2752 2650 2752 2682 2734 
C 2656 2728 2598 2703 2598 2605 
C 2598 2527 2656 2471 2739 2471 
C 2835 2471 2886 2533 2886 2614 
C 2886 2731 2790 2854 2586 2854 
C 2330 2854 2106 2738 1926 2580 
C 1734 2753 1504 2816 1299 2816 
C 794 2816 358 2419 358 1888 
C 358 1522 570 1292 634 1228 
C 442 1004 442 743 442 711 
C 442 545 506 302 723 168 
C 390 85 128 -169 128 -486 
C 128 -943 736 -1280 1466 -1280 
C 2170 -1280 2803 -956 2803 -479 
C 2803 384 1856 384 1363 384 
C 1216 384 954 384 922 391 
C 723 423 589 602 589 826 
C 589 883 589 1024 710 1164 
z
M 1299 1068 
C 736 1068 736 1760 736 1889 
C 736 2016 736 2708 1299 2708 
C 1862 2708 1862 2016 1862 1889 
C 1862 1760 1862 1068 1299 1068 
z
M 1466 -1171 
C 826 -1171 384 -835 384 -486 
C 384 -289 493 -105 634 -4 
C 794 104 858 104 1293 104 
C 1818 104 2547 104 2547 -486 
C 2547 -835 2106 -1171 1466 -1171 
z
" transform="scale(0.015625)"/>
     </defs>
     <use xlink:href="#CMR17-62" transform="scale(0.996264)"/>
     <use xlink:href="#CMR17-6f" transform="translate(53.497809 0) scale(0.996264)"/>
     <use xlink:href="#CMR17-75" transform="translate(99.188286 0) scale(0.996264)"/>
     <use xlink:href="#CMR17-6e" transform="translate(150.083655 0) scale(0.996264)"/>
     <use xlink:href="#CMR17-64" transform="translate(200.979025 0) scale(0.996264)"/>
     <use xlink:href="#CMR17-2d" transform="translate(251.874395 0) scale(0.996264)"/>
     <use xlink:href="#CMR17-66" transform="translate(281.950361 0) scale(0.996264)"/>
     <use xlink:href="#CMR17-72" transform="translate(309.423874 0) scale(0.996264)"/>
     <use xlink:href="#CMR17-65" transform="translate(344.704642 0) scale(0.996264)"/>
     <use xlink:href="#CMR17-65" transform="translate(385.190302 0) scale(0.996264)"/>
     <use xlink:href="#CMR17-61" transform="translate(455.751929 0) scale(0.996264)"/>
     <use xlink:href="#CMR17-6e" transform="translate(501.442406 0) scale(0.996264)"/>
     <use xlink:href="#CMR17-64" transform="translate(552.337776 0) scale(0.996264)"/>
     <use xlink:href="#CMR17-66" transform="translate(633.309112 0) scale(0.996264)"/>
     <use xlink:href="#CMR17-72" transform="translate(660.782624 0) scale(0.996264)"/>
     <use xlink:href="#CMR17-65" transform="translate(696.063392 0) scale(0.996264)"/>
     <use xlink:href="#CMR17-65" transform="translate(736.549053 0) scale(0.996264)"/>
     <use xlink:href="#CMR17-2d" transform="translate(777.034713 0) scale(0.996264)"/>
     <use xlink:href="#CMR17-62" transform="translate(807.110679 0) scale(0.996264)"/>
     <use xlink:href="#CMR17-6f" transform="translate(860.608488 0) scale(0.996264)"/>
     <use xlink:href="#CMR17-75" transform="translate(906.298965 0) scale(0.996264)"/>
     <use xlink:href="#CMR17-6e" transform="translate(957.194335 0) scale(0.996264)"/>
     <use xlink:href="#CMR17-64" transform="translate(1008.089705 0) scale(0.996264)"/>
     <use xlink:href="#CMR17-73" transform="translate(1089.061041 0) scale(0.996264)"/>
     <use xlink:href="#CMR17-63" transform="translate(1124.862378 0) scale(0.996264)"/>
     <use xlink:href="#CMR17-61" transform="translate(1165.348039 0) scale(0.996264)"/>
     <use xlink:href="#CMR17-74" transform="translate(1211.038516 0) scale(0.996264)"/>
     <use xlink:href="#CMR17-74" transform="translate(1246.319284 0) scale(0.996264)"/>
     <use xlink:href="#CMR17-65" transform="translate(1281.600051 0) scale(0.996264)"/>
     <use xlink:href="#CMR17-72" transform="translate(1322.085712 0) scale(0.996264)"/>
     <use xlink:href="#CMR17-69" transform="translate(1357.36648 0) scale(0.996264)"/>
     <use xlink:href="#CMR17-6e" transform="translate(1382.237538 0) scale(0.996264)"/>
     <use xlink:href="#CMR17-67" transform="translate(1433.132908 0) scale(0.996264)"/>
    </g>
   </g>
   <g id="legend_1">
    <g id="line2d_103">
     <path d="M 181.647958 105.943651 
L 191.647958 105.943651 
L 201.647958 105.943651 
" style="fill: none; stroke-dasharray: 7.4,3.2; stroke-dashoffset: 0; stroke: #0c5da5; stroke-width: 2"/>
    </g>
    <g id="text_16">
     <!-- implemented -->
     <g transform="translate(209.647958 109.443651) scale(0.1 -0.1)">
      <defs>
       <path id="CMR17-6d" d="M 4326 1933 
C 4326 2252 4269 2790 3507 2790 
C 3072 2790 2771 2496 2656 2151 
L 2650 2151 
C 2573 2676 2195 2790 1837 2790 
C 1331 2790 1069 2400 973 2144 
L 966 2144 
L 966 2790 
L 211 2720 
L 211 2554 
C 589 2554 646 2515 646 2208 
L 646 428 
C 646 184 621 153 211 153 
L 211 -13 
C 365 0 646 0 813 0 
C 979 0 1267 0 1421 -13 
L 1421 153 
C 1011 153 986 178 986 428 
L 986 1658 
C 986 2247 1344 2688 1792 2688 
C 2266 2688 2317 2266 2317 1958 
L 2317 428 
C 2317 184 2291 153 1882 153 
L 1882 -13 
C 2035 0 2317 0 2483 0 
C 2650 0 2938 0 3091 -13 
L 3091 153 
C 2682 153 2656 178 2656 428 
L 2656 1658 
C 2656 2247 3014 2688 3462 2688 
C 3936 2688 3987 2266 3987 1958 
L 3987 428 
C 3987 184 3962 153 3552 153 
L 3552 -13 
C 3706 0 3987 0 4154 0 
C 4320 0 4608 0 4762 -13 
L 4762 153 
C 4352 153 4326 178 4326 428 
L 4326 1933 
z
" transform="scale(0.015625)"/>
       <path id="CMR17-70" d="M 1408 -1063 
C 998 -1063 973 -1037 973 -789 
L 973 402 
C 1158 134 1427 -38 1766 -38 
C 2406 -38 3053 523 3053 1388 
C 3053 2191 2496 2802 1837 2802 
C 1453 2802 1139 2592 960 2338 
L 960 2802 
L 198 2732 
L 198 2567 
C 576 2567 634 2528 634 2223 
L 634 -789 
C 634 -1031 608 -1063 198 -1063 
L 198 -1228 
C 352 -1216 634 -1216 800 -1216 
C 966 -1216 1254 -1216 1408 -1228 
L 1408 -1063 
z
M 973 2012 
C 973 2102 973 2235 1222 2471 
C 1254 2497 1472 2688 1792 2688 
C 2259 2688 2643 2108 2643 1382 
C 2643 656 2234 64 1728 64 
C 1498 64 1248 172 1056 472 
C 973 612 973 650 973 752 
L 973 2012 
z
" transform="scale(0.015625)"/>
       <path id="CMR17-6c" d="M 979 4396 
L 218 4326 
L 218 4160 
C 595 4160 653 4122 653 3817 
L 653 426 
C 653 184 627 153 218 153 
L 218 -13 
C 371 0 653 0 813 0 
C 979 0 1261 0 1414 -13 
L 1414 153 
C 1005 153 979 178 979 426 
L 979 4396 
z
" transform="scale(0.015625)"/>
      </defs>
      <use xlink:href="#CMR17-69" transform="scale(0.996264)"/>
      <use xlink:href="#CMR17-6d" transform="translate(24.871058 0) scale(0.996264)"/>
      <use xlink:href="#CMR17-70" transform="translate(101.790648 0) scale(0.996264)"/>
      <use xlink:href="#CMR17-6c" transform="translate(152.686018 0) scale(0.996264)"/>
      <use xlink:href="#CMR17-65" transform="translate(177.557077 0) scale(0.996264)"/>
      <use xlink:href="#CMR17-6d" transform="translate(218.042737 0) scale(0.996264)"/>
      <use xlink:href="#CMR17-65" transform="translate(294.962327 0) scale(0.996264)"/>
      <use xlink:href="#CMR17-6e" transform="translate(335.447987 0) scale(0.996264)"/>
      <use xlink:href="#CMR17-74" transform="translate(383.740903 0) scale(0.996264)"/>
      <use xlink:href="#CMR17-65" transform="translate(419.021671 0) scale(0.996264)"/>
      <use xlink:href="#CMR17-64" transform="translate(459.507332 0) scale(0.996264)"/>
     </g>
    </g>
    <g id="line2d_104">
     <path d="M 181.647958 119.880829 
L 191.647958 119.880829 
L 201.647958 119.880829 
" style="fill: none; stroke-dasharray: 3.7,1.6; stroke-dashoffset: 0; stroke: #00b945"/>
    </g>
    <g id="text_17">
     <!-- no $k$ dispersion -->
     <g transform="translate(209.647958 123.380829) scale(0.1 -0.1)">
      <defs>
       <path id="CMMI12-6b" d="M 1798 4257 
C 1805 4283 1818 4321 1818 4352 
C 1818 4416 1754 4416 1741 4416 
C 1734 4416 1504 4393 1389 4377 
C 1280 4377 1184 4358 1069 4358 
C 915 4345 870 4339 870 4224 
C 870 4160 934 4160 998 4160 
C 1325 4160 1325 4103 1325 4040 
C 1325 4015 1325 4002 1293 3888 
L 378 248 
C 352 152 352 140 352 101 
C 352 -38 461 -64 525 -64 
C 704 -64 742 77 794 275 
L 1094 1469 
C 1555 1418 1830 1226 1830 920 
C 1830 881 1830 856 1811 760 
C 1786 664 1786 588 1786 556 
C 1786 185 2029 -64 2355 -64 
C 2650 -64 2803 204 2854 294 
C 2989 530 3072 888 3072 913 
C 3072 945 3046 971 3008 971 
C 2950 971 2944 945 2918 843 
C 2829 511 2694 64 2368 64 
C 2240 64 2157 128 2157 370 
C 2157 492 2182 632 2208 728 
C 2234 843 2234 849 2234 926 
C 2234 1303 1894 1514 1306 1590 
C 1536 1731 1766 1980 1856 2076 
C 2221 2484 2470 2689 2765 2689 
C 2912 2689 2950 2650 2995 2612 
C 2758 2586 2669 2420 2669 2293 
C 2669 2139 2790 2088 2880 2088 
C 3053 2088 3206 2235 3206 2440 
C 3206 2625 3059 2816 2771 2816 
C 2419 2816 2131 2567 1677 2056 
C 1613 1980 1376 1737 1139 1648 
L 1798 4257 
z
" transform="scale(0.015625)"/>
      </defs>
      <use xlink:href="#CMR17-6e" transform="scale(0.996264)"/>
      <use xlink:href="#CMR17-6f" transform="translate(50.89537 0) scale(0.996264)"/>
      <use xlink:href="#CMMI12-6b" transform="translate(126.661813 0) scale(0.996264)"/>
      <use xlink:href="#CMR17-64" transform="translate(210.81698 0) scale(0.996264)"/>
      <use xlink:href="#CMR17-69" transform="translate(261.71235 0) scale(0.996264)"/>
      <use xlink:href="#CMR17-73" transform="translate(286.583409 0) scale(0.996264)"/>
      <use xlink:href="#CMR17-70" transform="translate(322.384746 0) scale(0.996264)"/>
      <use xlink:href="#CMR17-65" transform="translate(375.882555 0) scale(0.996264)"/>
      <use xlink:href="#CMR17-72" transform="translate(416.368215 0) scale(0.996264)"/>
      <use xlink:href="#CMR17-73" transform="translate(451.648983 0) scale(0.996264)"/>
      <use xlink:href="#CMR17-69" transform="translate(487.450321 0) scale(0.996264)"/>
      <use xlink:href="#CMR17-6f" transform="translate(512.321379 0) scale(0.996264)"/>
      <use xlink:href="#CMR17-6e" transform="translate(558.011856 0) scale(0.996264)"/>
     </g>
    </g>
    <g id="line2d_105">
     <path d="M 181.647958 133.818008 
L 191.647958 133.818008 
L 201.647958 133.818008 
" style="fill: none; stroke-dasharray: 3.7,1.6; stroke-dashoffset: 0; stroke: #ff9500"/>
    </g>
    <g id="text_18">
     <!-- naive flipping -->
     <g transform="translate(209.647958 137.318008) scale(0.1 -0.1)">
      <defs>
       <path id="CMR17-76" d="M 2502 2163 
C 2560 2304 2662 2560 3034 2560 
L 3034 2726 
C 2912 2726 2752 2726 2630 2726 
C 2496 2726 2285 2726 2157 2732 
L 2157 2566 
C 2317 2553 2406 2477 2406 2311 
C 2406 2253 2406 2240 2368 2151 
L 1664 377 
L 902 2286 
C 864 2369 864 2381 864 2407 
C 864 2560 1075 2560 1171 2560 
L 1171 2732 
C 1018 2726 736 2726 576 2726 
C 403 2726 205 2726 64 2732 
L 64 2560 
C 307 2560 442 2560 518 2362 
L 1446 44 
C 1485 -51 1491 -64 1549 -64 
C 1606 -64 1613 -51 1651 44 
L 2502 2163 
z
" transform="scale(0.015625)"/>
       <path id="CMR17-d" d="M 2554 4409 
C 2483 4396 2426 4384 2342 4365 
C 2157 4460 1914 4460 1850 4460 
C 1306 4460 634 4154 634 3472 
L 634 2725 
L 122 2725 
L 122 2560 
L 634 2560 
L 634 427 
C 634 184 608 153 198 153 
L 198 -13 
C 352 0 634 0 794 0 
C 960 0 1242 0 1395 -13 
L 1395 153 
C 986 153 960 178 960 427 
L 960 2560 
L 2227 2560 
L 2227 427 
C 2227 184 2202 153 1792 153 
L 1792 -13 
C 1946 0 2227 0 2387 0 
C 2554 0 2835 0 2989 -13 
L 2989 153 
C 2579 153 2554 178 2554 427 
L 2554 4409 
z
M 947 2725 
L 947 3469 
C 947 4028 1370 4352 1837 4352 
C 1869 4352 2221 4352 2221 4282 
C 2221 4275 2214 4269 2182 4237 
C 2125 4199 2099 4135 2099 4071 
C 2099 3981 2144 3905 2227 3873 
L 2227 2725 
L 947 2725 
z
" transform="scale(0.015625)"/>
      </defs>
      <use xlink:href="#CMR17-6e" transform="scale(0.996264)"/>
      <use xlink:href="#CMR17-61" transform="translate(50.89537 0) scale(0.996264)"/>
      <use xlink:href="#CMR17-69" transform="translate(96.585847 0) scale(0.996264)"/>
      <use xlink:href="#CMR17-76" transform="translate(121.456905 0) scale(0.996264)"/>
      <use xlink:href="#CMR17-65" transform="translate(167.147367 0) scale(0.996264)"/>
      <use xlink:href="#CMR17-d" transform="translate(237.708994 0) scale(0.996264)"/>
      <use xlink:href="#CMR17-69" transform="translate(287.451217 0) scale(0.996264)"/>
      <use xlink:href="#CMR17-70" transform="translate(312.322276 0) scale(0.996264)"/>
      <use xlink:href="#CMR17-70" transform="translate(363.217646 0) scale(0.996264)"/>
      <use xlink:href="#CMR17-69" transform="translate(414.113016 0) scale(0.996264)"/>
      <use xlink:href="#CMR17-6e" transform="translate(438.984074 0) scale(0.996264)"/>
      <use xlink:href="#CMR17-67" transform="translate(489.879444 0) scale(0.996264)"/>
     </g>
    </g>
   </g>
  </g>
  <g id="axes_2">
   <g id="patch_9">
    <path d="M 204.562719 237.587651 
L 279.892719 237.587651 
L 279.892719 171.059651 
L 204.562719 171.059651 
z
" style="fill: #ffffff"/>
   </g>
   <g id="patch_10">
    <path d="M 204.562719 171.059651 
L 161.625446 213.75285 
" style="fill: none; stroke: #808080; stroke-linejoin: miter"/>
   </g>
   <g id="patch_11">
    <path d="M 279.892719 237.587651 
L 179.887265 250.301172 
" style="fill: none; stroke: #808080; stroke-linejoin: miter"/>
   </g>
   <g id="matplotlib.axis_3"/>
   <g id="matplotlib.axis_4"/>
   <g id="line2d_106">
    <path d="M -1 335.15534 
L 33.186969 334.228016 
L 80.268219 332.932049 
L 99.100719 332.659595 
L 116.049969 332.637815 
L 144.298719 332.673702 
L 151.831719 332.434663 
L 157.481469 332.073614 
L 163.131219 331.49138 
L 168.780969 330.619946 
L 172.547469 329.841889 
L 176.313969 328.879748 
L 180.080469 327.711111 
L 183.846969 326.314723 
L 187.613469 324.671535 
L 191.379969 322.765905 
L 195.146469 320.586919 
L 198.912969 318.129774 
L 202.679469 315.397172 
L 206.445969 312.400634 
L 210.212469 309.161636 
L 215.862219 303.922206 
L 223.395219 296.483061 
L 230.928219 289.010667 
L 234.694719 285.461087 
L 238.461219 282.151721 
L 242.227719 279.169909 
L 245.994219 276.598964 
L 247.877469 275.491551 
L 249.760719 274.514322 
L 251.643969 273.674868 
L 253.527219 272.979844 
L 255.410469 272.434883 
L 257.293719 272.044514 
L 259.176969 271.812102 
L 261.060219 271.739796 
L 262.943469 271.8285 
L 264.826719 272.077852 
L 266.709969 272.486231 
L 268.593219 273.050775 
L 270.476469 273.76741 
L 272.359719 274.630914 
L 274.242969 275.634974 
L 278.009469 278.034588 
L 281.775969 280.897441 
L 285.542469 284.143724 
L 289.492719 287.86748 
L 289.492719 287.86748 
" clip-path="url(#p9b9283a01b)" style="fill: none; stroke-dasharray: 7.4,3.2; stroke-dashoffset: 0; stroke: #0c5da5; stroke-width: 2"/>
   </g>
   <g id="line2d_107">
    <path d="M -1 335.144801 
L 33.186969 334.241682 
L 82.151469 332.940154 
L 100.983969 332.692541 
L 119.816469 332.69485 
L 142.415469 332.731985 
L 149.948469 332.548389 
L 155.598219 332.251713 
L 161.247969 331.756513 
L 166.897719 330.996436 
L 170.664219 330.306178 
L 174.430719 329.442045 
L 178.197219 328.380431 
L 181.963719 327.098218 
L 185.730219 325.573761 
L 189.496719 323.788054 
L 193.263219 321.72605 
L 197.029719 319.378107 
L 200.796219 316.741495 
L 204.562719 313.82189 
L 208.329219 310.634764 
L 212.095719 307.206552 
L 217.745469 301.699118 
L 236.577969 282.783353 
L 240.344469 279.520455 
L 244.110969 276.644592 
L 247.877469 274.241539 
L 249.760719 273.241405 
L 251.643969 272.386729 
L 253.527219 271.684675 
L 255.410469 271.141293 
L 257.293719 270.761434 
L 259.176969 270.548674 
L 261.060219 270.505263 
L 262.943469 270.632084 
L 264.826719 270.928634 
L 266.709969 271.393026 
L 268.593219 272.022012 
L 270.476469 272.811018 
L 272.359719 273.75421 
L 274.242969 274.844563 
L 278.009469 277.433304 
L 281.775969 280.501198 
L 285.542469 283.960462 
L 289.492719 287.907075 
L 289.492719 287.907075 
" clip-path="url(#p9b9283a01b)" style="fill: none; stroke-dasharray: 3.7,1.6; stroke-dashoffset: 0; stroke: #00b945"/>
   </g>
   <g id="line2d_108">
    <path d="M -1 335.137577 
L 35.070219 334.204736 
L 82.151469 332.98555 
L 100.983969 332.737681 
L 119.816469 332.731536 
L 142.415469 332.760902 
L 149.948469 332.579778 
L 155.598219 332.287329 
L 161.247969 331.798086 
L 166.897719 331.044774 
L 170.664219 330.358652 
L 174.430719 329.497509 
L 178.197219 328.436777 
L 181.963719 327.15217 
L 185.730219 325.620676 
L 189.496719 323.821761 
L 193.263219 321.738747 
L 197.029719 319.360339 
L 200.796219 316.682244 
L 204.562719 313.708805 
L 208.329219 310.454546 
L 212.095719 306.945509 
L 217.745469 301.292133 
L 227.161719 291.326344 
L 232.811469 285.453318 
L 236.577969 281.776404 
L 240.344469 278.406593 
L 244.110969 275.442223 
L 245.994219 274.141217 
L 247.877469 272.975335 
L 249.760719 271.954328 
L 251.643969 271.086975 
L 253.527219 270.380964 
L 255.410469 269.842772 
L 257.293719 269.477565 
L 259.176969 269.28912 
L 261.060219 269.279761 
L 262.943469 269.45031 
L 264.826719 269.800074 
L 266.709969 270.326838 
L 268.593219 271.026897 
L 270.476469 271.895095 
L 272.359719 272.924893 
L 274.242969 274.108463 
L 278.009469 276.899773 
L 281.775969 280.18492 
L 285.542469 283.867355 
L 289.492719 288.044548 
L 289.492719 288.044548 
" clip-path="url(#p9b9283a01b)" style="fill: none; stroke-dasharray: 3.7,1.6; stroke-dashoffset: 0; stroke: #ff9500"/>
   </g>
   <g id="patch_12">
    <path d="M 204.562719 237.587651 
L 204.562719 171.059651 
" style="fill: none; stroke: #000000; stroke-width: 0.5; stroke-linejoin: miter; stroke-linecap: square"/>
   </g>
   <g id="patch_13">
    <path d="M 279.892719 237.587651 
L 279.892719 171.059651 
" style="fill: none; stroke: #000000; stroke-width: 0.5; stroke-linejoin: miter; stroke-linecap: square"/>
   </g>
   <g id="patch_14">
    <path d="M 204.562719 237.587651 
L 279.892719 237.587651 
" style="fill: none; stroke: #000000; stroke-width: 0.5; stroke-linejoin: miter; stroke-linecap: square"/>
   </g>
   <g id="patch_15">
    <path d="M 204.562719 171.059651 
L 279.892719 171.059651 
" style="fill: none; stroke: #000000; stroke-width: 0.5; stroke-linejoin: miter; stroke-linecap: square"/>
   </g>
  </g>
  <g id="axes_3">
   <g id="patch_16">
    <path d="M 38.792719 164.971651 
L 114.122719 164.971651 
L 114.122719 98.443651 
L 38.792719 98.443651 
z
" style="fill: #ffffff"/>
   </g>
   <g id="patch_17">
    <path d="M 114.122719 98.443651 
L 149.070446 3.6 
" style="fill: none; stroke: #808080; stroke-linejoin: miter"/>
   </g>
   <g id="patch_18">
    <path d="M 114.122719 164.971651 
L 149.070446 40.148322 
" style="fill: none; stroke: #808080; stroke-linejoin: miter"/>
   </g>
   <g id="matplotlib.axis_5"/>
   <g id="matplotlib.axis_6"/>
   <g id="line2d_109">
    <path d="M 48.327467 346.121968 
L 51.347719 329.83736 
L 53.021719 321.579211 
L 54.695719 313.936546 
L 56.369719 306.970328 
L 58.043719 300.737656 
L 59.717719 295.290991 
L 61.391719 290.677413 
L 63.065719 286.937945 
L 64.739719 284.106939 
L 66.413719 282.211554 
L 68.087719 281.271324 
L 69.761719 281.297834 
L 71.435719 282.29451 
L 73.109719 284.256527 
L 74.783719 287.170842 
L 76.457719 291.016347 
L 78.131719 295.764147 
L 79.805719 301.377946 
L 81.479719 307.814548 
L 83.153719 315.024448 
L 84.827719 322.952518 
L 86.501719 331.538754 
L 89.107447 346.121968 
L 89.107447 346.121968 
" clip-path="url(#p0b5737a338)" style="fill: none; stroke: #0c5da5; stroke-width: 2; stroke-linecap: square"/>
   </g>
   <g id="line2d_110">
    <path d="M 46.104075 346.121968 
L 47.999719 335.960888 
L 51.347719 319.56938 
L 53.021719 312.223295 
L 54.695719 305.519439 
L 56.369719 299.510588 
L 58.043719 294.245443 
L 59.717719 289.767974 
L 61.391719 286.116815 
L 63.065719 283.32471 
L 64.739719 281.418027 
L 66.413719 280.416355 
L 68.087719 280.332185 
L 69.761719 281.170688 
L 71.435719 282.92959 
L 73.109719 285.599161 
L 74.783719 289.162297 
L 76.457719 293.594719 
L 78.131719 298.865266 
L 79.805719 304.936289 
L 81.479719 311.764137 
L 83.153719 319.299713 
L 84.827719 327.489116 
L 88.266007 346.121968 
L 88.266007 346.121968 
" clip-path="url(#p0b5737a338)" style="fill: none; stroke: #00b945; stroke-linecap: square"/>
   </g>
   <g id="line2d_111">
    <path d="M 48.327467 346.121968 
L 51.347719 329.83736 
L 53.021719 321.579211 
L 54.695719 313.936546 
L 56.369719 306.970328 
L 58.043719 300.737656 
L 59.717719 295.290991 
L 61.391719 290.677413 
L 63.065719 286.937945 
L 64.739719 284.106939 
L 66.413719 282.211554 
L 68.087719 281.271324 
L 69.761719 281.297834 
L 71.435719 282.29451 
L 73.109719 284.256527 
L 74.783719 287.170842 
L 76.457719 291.016347 
L 78.131719 295.764147 
L 79.805719 301.377946 
L 81.479719 307.814548 
L 83.153719 315.024448 
L 84.827719 322.952518 
L 86.501719 331.538754 
L 89.107447 346.121968 
L 89.107447 346.121968 
" clip-path="url(#p0b5737a338)" style="fill: none; stroke: #ff9500; stroke-linecap: square"/>
   </g>
   <g id="patch_19">
    <path d="M 38.792719 164.971651 
L 38.792719 98.443651 
" style="fill: none; stroke: #000000; stroke-width: 0.5; stroke-linejoin: miter; stroke-linecap: square"/>
   </g>
   <g id="patch_20">
    <path d="M 114.122719 164.971651 
L 114.122719 98.443651 
" style="fill: none; stroke: #000000; stroke-width: 0.5; stroke-linejoin: miter; stroke-linecap: square"/>
   </g>
   <g id="patch_21">
    <path d="M 38.792719 164.971651 
L 114.122719 164.971651 
" style="fill: none; stroke: #000000; stroke-width: 0.5; stroke-linejoin: miter; stroke-linecap: square"/>
   </g>
   <g id="patch_22">
    <path d="M 38.792719 98.443651 
L 114.122719 98.443651 
" style="fill: none; stroke: #000000; stroke-width: 0.5; stroke-linejoin: miter; stroke-linecap: square"/>
   </g>
  </g>
 </g>
 <defs>
  <clipPath id="pf336a977d5">
   <rect x="33.792719" y="93.443651" width="251.1" height="221.76"/>
  </clipPath>
  <clipPath id="p9b9283a01b">
   <rect x="204.562719" y="171.059651" width="75.33" height="66.528"/>
  </clipPath>
  <clipPath id="p0b5737a338">
   <rect x="38.792719" y="98.443651" width="75.33" height="66.528"/>
  </clipPath>
 </defs>
</svg>
