<?xml version="1.0" encoding="utf-8" standalone="no"?>
<!DOCTYPE svg PUBLIC "-//W3C//DTD SVG 1.1//EN"
  "http://www.w3.org/Graphics/SVG/1.1/DTD/svg11.dtd">
<svg xmlns:xlink="http://www.w3.org/1999/xlink" width="237.6pt" height="188.90218pt" viewBox="0 0 237.6 188.90218" xmlns="http://www.w3.org/2000/svg" version="1.1">
 <metadata>
  <rdf:RDF xmlns:dc="http://purl.org/dc/elements/1.1/" xmlns:cc="http://creativecommons.org/ns#" xmlns:rdf="http://www.w3.org/1999/02/22-rdf-syntax-ns#">
   <cc:Work>
    <dc:type rdf:resource="http://purl.org/dc/dcmitype/StillImage"/>
    <dc:date>2026-04-27T12:44:11.804737</dc:date>
    <dc:format>image/svg+xml</dc:format>
    <dc:creator>
     <cc:Agent>
      <dc:title>Matplotlib v3.10.8, https://matplotlib.org/</dc:title>
     </cc:Agent>
    </dc:creator>
   </cc:Work>
  </rdf:RDF>
 </metadata>
 <defs>
  <style type="text/css">*{stroke-linejoin: round; stroke-linecap: butt}</style>
 </defs>
 <g id="figure_1">
  <g id="patch_1">
   <path d="M 0 188.90218 
L 237.6 188.90218 
L 237.6 0 
L 0 0 
z
" style="fill: #ffffff"/>
  </g>
  <g id="axes_1">
   <g id="patch_2">
    <path d="M 32.685756 158.983863 
L 234 158.983863 
L 234 17.90218 
L 32.685756 17.90218 
z
" style="fill: #ffffff"/>
   </g>
   <g id="matplotlib.axis_1">
    <g id="xtick_1">
     <g id="line2d_1">
      <defs>
       <path id="m833e39510e" d="M 0 0 
L 0 -3 
" style="stroke: #000000; stroke-width: 0.5"/>
      </defs>
      <g>
       <use xlink:href="#m833e39510e" x="41.836403" y="158.983863" style="stroke: #000000; stroke-width: 0.5"/>
      </g>
     </g>
     <g id="line2d_2">
      <defs>
       <path id="m25cacc1675" d="M 0 0 
L 0 3 
" style="stroke: #000000; stroke-width: 0.5"/>
      </defs>
      <g>
       <use xlink:href="#m25cacc1675" x="41.836403" y="17.90218" style="stroke: #000000; stroke-width: 0.5"/>
      </g>
     </g>
     <g id="text_1">
      <!-- $\mathdefault{0}$ -->
      <g transform="translate(39.345736 169.402361) scale(0.1 -0.1)">
       <defs>
        <path id="CMR17-30" d="M 2688 2025 
C 2688 2416 2682 3080 2413 3591 
C 2176 4039 1798 4198 1466 4198 
C 1158 4198 768 4058 525 3597 
C 269 3118 243 2524 243 2025 
C 243 1661 250 1106 448 619 
C 723 -39 1216 -128 1466 -128 
C 1760 -128 2208 -7 2470 600 
C 2662 1042 2688 1559 2688 2025 
z
M 1466 -26 
C 1056 -26 813 325 723 812 
C 653 1188 653 1738 653 2096 
C 653 2588 653 2997 736 3387 
C 858 3929 1216 4096 1466 4096 
C 1728 4096 2067 3923 2189 3400 
C 2272 3036 2278 2607 2278 2096 
C 2278 1680 2278 1169 2202 792 
C 2067 95 1690 -26 1466 -26 
z
" transform="scale(0.015625)"/>
       </defs>
       <use xlink:href="#CMR17-30" transform="scale(0.996264)"/>
      </g>
     </g>
    </g>
    <g id="xtick_2">
     <g id="line2d_3">
      <g>
       <use xlink:href="#m833e39510e" x="95.663741" y="158.983863" style="stroke: #000000; stroke-width: 0.5"/>
      </g>
     </g>
     <g id="line2d_4">
      <g>
       <use xlink:href="#m25cacc1675" x="95.663741" y="17.90218" style="stroke: #000000; stroke-width: 0.5"/>
      </g>
     </g>
     <g id="text_2">
      <!-- $\mathdefault{5}$ -->
      <g transform="translate(93.173074 169.402361) scale(0.1 -0.1)">
       <defs>
        <path id="CMR17-35" d="M 730 3692 
C 794 3666 1056 3584 1325 3584 
C 1920 3584 2246 3911 2432 4100 
C 2432 4157 2432 4192 2394 4192 
C 2387 4192 2374 4192 2323 4163 
C 2099 4058 1837 3973 1517 3973 
C 1325 3973 1037 3999 723 4139 
C 653 4171 640 4171 634 4171 
C 602 4171 595 4164 595 4037 
L 595 2203 
C 595 2089 595 2057 659 2057 
C 691 2057 704 2070 736 2114 
C 941 2401 1222 2522 1542 2522 
C 1766 2522 2246 2382 2246 1289 
C 2246 1085 2246 715 2054 421 
C 1894 159 1645 25 1370 25 
C 947 25 518 320 403 814 
C 429 807 480 795 506 795 
C 589 795 749 840 749 1038 
C 749 1210 627 1280 506 1280 
C 358 1280 262 1190 262 1011 
C 262 454 704 -128 1382 -128 
C 2042 -128 2669 440 2669 1264 
C 2669 2030 2170 2624 1549 2624 
C 1222 2624 947 2503 730 2274 
L 730 3692 
z
" transform="scale(0.015625)"/>
       </defs>
       <use xlink:href="#CMR17-35" transform="scale(0.996264)"/>
      </g>
     </g>
    </g>
    <g id="xtick_3">
     <g id="line2d_5">
      <g>
       <use xlink:href="#m833e39510e" x="149.491079" y="158.983863" style="stroke: #000000; stroke-width: 0.5"/>
      </g>
     </g>
     <g id="line2d_6">
      <g>
       <use xlink:href="#m25cacc1675" x="149.491079" y="17.90218" style="stroke: #000000; stroke-width: 0.5"/>
      </g>
     </g>
     <g id="text_3">
      <!-- $\mathdefault{10}$ -->
      <g transform="translate(144.509744 169.402361) scale(0.1 -0.1)">
       <defs>
        <path id="CMR17-31" d="M 1702 4058 
C 1702 4192 1696 4192 1606 4192 
C 1357 3916 979 3827 621 3827 
C 602 3827 570 3827 563 3808 
C 557 3795 557 3782 557 3648 
C 755 3648 1088 3686 1344 3839 
L 1344 461 
C 1344 236 1331 160 781 160 
L 589 160 
L 589 0 
C 896 0 1216 0 1523 0 
C 1830 0 2150 0 2458 0 
L 2458 160 
L 2266 160 
C 1715 160 1702 230 1702 458 
L 1702 4058 
z
" transform="scale(0.015625)"/>
       </defs>
       <use xlink:href="#CMR17-31" transform="scale(0.996264)"/>
       <use xlink:href="#CMR17-30" transform="translate(45.690477 0) scale(0.996264)"/>
      </g>
     </g>
    </g>
    <g id="xtick_4">
     <g id="line2d_7">
      <g>
       <use xlink:href="#m833e39510e" x="203.318417" y="158.983863" style="stroke: #000000; stroke-width: 0.5"/>
      </g>
     </g>
     <g id="line2d_8">
      <g>
       <use xlink:href="#m25cacc1675" x="203.318417" y="17.90218" style="stroke: #000000; stroke-width: 0.5"/>
      </g>
     </g>
     <g id="text_4">
      <!-- $\mathdefault{15}$ -->
      <g transform="translate(198.337082 169.402361) scale(0.1 -0.1)">
       <use xlink:href="#CMR17-31" transform="scale(0.996264)"/>
       <use xlink:href="#CMR17-35" transform="translate(45.690477 0) scale(0.996264)"/>
      </g>
     </g>
    </g>
    <g id="xtick_5">
     <g id="line2d_9">
      <defs>
       <path id="m7d65160779" d="M 0 0 
L 0 -1.5 
" style="stroke: #000000; stroke-width: 0.5"/>
      </defs>
      <g>
       <use xlink:href="#m7d65160779" x="52.601871" y="158.983863" style="stroke: #000000; stroke-width: 0.5"/>
      </g>
     </g>
     <g id="line2d_10">
      <defs>
       <path id="mf52842fff0" d="M 0 0 
L 0 1.5 
" style="stroke: #000000; stroke-width: 0.5"/>
      </defs>
      <g>
       <use xlink:href="#mf52842fff0" x="52.601871" y="17.90218" style="stroke: #000000; stroke-width: 0.5"/>
      </g>
     </g>
    </g>
    <g id="xtick_6">
     <g id="line2d_11">
      <g>
       <use xlink:href="#m7d65160779" x="63.367338" y="158.983863" style="stroke: #000000; stroke-width: 0.5"/>
      </g>
     </g>
     <g id="line2d_12">
      <g>
       <use xlink:href="#mf52842fff0" x="63.367338" y="17.90218" style="stroke: #000000; stroke-width: 0.5"/>
      </g>
     </g>
    </g>
    <g id="xtick_7">
     <g id="line2d_13">
      <g>
       <use xlink:href="#m7d65160779" x="74.132806" y="158.983863" style="stroke: #000000; stroke-width: 0.5"/>
      </g>
     </g>
     <g id="line2d_14">
      <g>
       <use xlink:href="#mf52842fff0" x="74.132806" y="17.90218" style="stroke: #000000; stroke-width: 0.5"/>
      </g>
     </g>
    </g>
    <g id="xtick_8">
     <g id="line2d_15">
      <g>
       <use xlink:href="#m7d65160779" x="84.898274" y="158.983863" style="stroke: #000000; stroke-width: 0.5"/>
      </g>
     </g>
     <g id="line2d_16">
      <g>
       <use xlink:href="#mf52842fff0" x="84.898274" y="17.90218" style="stroke: #000000; stroke-width: 0.5"/>
      </g>
     </g>
    </g>
    <g id="xtick_9">
     <g id="line2d_17">
      <g>
       <use xlink:href="#m7d65160779" x="106.429209" y="158.983863" style="stroke: #000000; stroke-width: 0.5"/>
      </g>
     </g>
     <g id="line2d_18">
      <g>
       <use xlink:href="#mf52842fff0" x="106.429209" y="17.90218" style="stroke: #000000; stroke-width: 0.5"/>
      </g>
     </g>
    </g>
    <g id="xtick_10">
     <g id="line2d_19">
      <g>
       <use xlink:href="#m7d65160779" x="117.194676" y="158.983863" style="stroke: #000000; stroke-width: 0.5"/>
      </g>
     </g>
     <g id="line2d_20">
      <g>
       <use xlink:href="#mf52842fff0" x="117.194676" y="17.90218" style="stroke: #000000; stroke-width: 0.5"/>
      </g>
     </g>
    </g>
    <g id="xtick_11">
     <g id="line2d_21">
      <g>
       <use xlink:href="#m7d65160779" x="127.960144" y="158.983863" style="stroke: #000000; stroke-width: 0.5"/>
      </g>
     </g>
     <g id="line2d_22">
      <g>
       <use xlink:href="#mf52842fff0" x="127.960144" y="17.90218" style="stroke: #000000; stroke-width: 0.5"/>
      </g>
     </g>
    </g>
    <g id="xtick_12">
     <g id="line2d_23">
      <g>
       <use xlink:href="#m7d65160779" x="138.725612" y="158.983863" style="stroke: #000000; stroke-width: 0.5"/>
      </g>
     </g>
     <g id="line2d_24">
      <g>
       <use xlink:href="#mf52842fff0" x="138.725612" y="17.90218" style="stroke: #000000; stroke-width: 0.5"/>
      </g>
     </g>
    </g>
    <g id="xtick_13">
     <g id="line2d_25">
      <g>
       <use xlink:href="#m7d65160779" x="160.256547" y="158.983863" style="stroke: #000000; stroke-width: 0.5"/>
      </g>
     </g>
     <g id="line2d_26">
      <g>
       <use xlink:href="#mf52842fff0" x="160.256547" y="17.90218" style="stroke: #000000; stroke-width: 0.5"/>
      </g>
     </g>
    </g>
    <g id="xtick_14">
     <g id="line2d_27">
      <g>
       <use xlink:href="#m7d65160779" x="171.022014" y="158.983863" style="stroke: #000000; stroke-width: 0.5"/>
      </g>
     </g>
     <g id="line2d_28">
      <g>
       <use xlink:href="#mf52842fff0" x="171.022014" y="17.90218" style="stroke: #000000; stroke-width: 0.5"/>
      </g>
     </g>
    </g>
    <g id="xtick_15">
     <g id="line2d_29">
      <g>
       <use xlink:href="#m7d65160779" x="181.787482" y="158.983863" style="stroke: #000000; stroke-width: 0.5"/>
      </g>
     </g>
     <g id="line2d_30">
      <g>
       <use xlink:href="#mf52842fff0" x="181.787482" y="17.90218" style="stroke: #000000; stroke-width: 0.5"/>
      </g>
     </g>
    </g>
    <g id="xtick_16">
     <g id="line2d_31">
      <g>
       <use xlink:href="#m7d65160779" x="192.55295" y="158.983863" style="stroke: #000000; stroke-width: 0.5"/>
      </g>
     </g>
     <g id="line2d_32">
      <g>
       <use xlink:href="#mf52842fff0" x="192.55295" y="17.90218" style="stroke: #000000; stroke-width: 0.5"/>
      </g>
     </g>
    </g>
    <g id="xtick_17">
     <g id="line2d_33">
      <g>
       <use xlink:href="#m7d65160779" x="214.083885" y="158.983863" style="stroke: #000000; stroke-width: 0.5"/>
      </g>
     </g>
     <g id="line2d_34">
      <g>
       <use xlink:href="#mf52842fff0" x="214.083885" y="17.90218" style="stroke: #000000; stroke-width: 0.5"/>
      </g>
     </g>
    </g>
    <g id="xtick_18">
     <g id="line2d_35">
      <g>
       <use xlink:href="#m7d65160779" x="224.849353" y="158.983863" style="stroke: #000000; stroke-width: 0.5"/>
      </g>
     </g>
     <g id="line2d_36">
      <g>
       <use xlink:href="#mf52842fff0" x="224.849353" y="17.90218" style="stroke: #000000; stroke-width: 0.5"/>
      </g>
     </g>
    </g>
    <g id="text_5">
     <!-- $k$ [1/angstrom] -->
     <g transform="translate(100.940005 182.81152) scale(0.1 -0.1)">
      <defs>
       <path id="CMMI12-6b" d="M 1798 4257 
C 1805 4283 1818 4321 1818 4352 
C 1818 4416 1754 4416 1741 4416 
C 1734 4416 1504 4393 1389 4377 
C 1280 4377 1184 4358 1069 4358 
C 915 4345 870 4339 870 4224 
C 870 4160 934 4160 998 4160 
C 1325 4160 1325 4103 1325 4040 
C 1325 4015 1325 4002 1293 3888 
L 378 248 
C 352 152 352 140 352 101 
C 352 -38 461 -64 525 -64 
C 704 -64 742 77 794 275 
L 1094 1469 
C 1555 1418 1830 1226 1830 920 
C 1830 881 1830 856 1811 760 
C 1786 664 1786 588 1786 556 
C 1786 185 2029 -64 2355 -64 
C 2650 -64 2803 204 2854 294 
C 2989 530 3072 888 3072 913 
C 3072 945 3046 971 3008 971 
C 2950 971 2944 945 2918 843 
C 2829 511 2694 64 2368 64 
C 2240 64 2157 128 2157 370 
C 2157 492 2182 632 2208 728 
C 2234 843 2234 849 2234 926 
C 2234 1303 1894 1514 1306 1590 
C 1536 1731 1766 1980 1856 2076 
C 2221 2484 2470 2689 2765 2689 
C 2912 2689 2950 2650 2995 2612 
C 2758 2586 2669 2420 2669 2293 
C 2669 2139 2790 2088 2880 2088 
C 3053 2088 3206 2235 3206 2440 
C 3206 2625 3059 2816 2771 2816 
C 2419 2816 2131 2567 1677 2056 
C 1613 1980 1376 1737 1139 1648 
L 1798 4257 
z
" transform="scale(0.015625)"/>
       <path id="CMR17-5b" d="M 1504 -1600 
L 1504 -1377 
L 902 -1377 
L 902 4544 
L 1504 4544 
L 1504 4767 
L 678 4767 
L 678 -1600 
L 1504 -1600 
z
" transform="scale(0.015625)"/>
       <path id="CMR17-2f" d="M 2605 4545 
C 2637 4627 2637 4640 2637 4653 
C 2637 4729 2579 4768 2528 4768 
C 2451 4768 2426 4717 2400 4640 
L 326 -1377 
C 294 -1460 294 -1473 294 -1486 
C 294 -1562 352 -1600 403 -1600 
C 480 -1600 506 -1549 531 -1473 
L 2605 4545 
z
" transform="scale(0.015625)"/>
       <path id="CMR17-61" d="M 2304 1653 
C 2304 2072 2304 2294 2035 2543 
C 1798 2752 1523 2816 1306 2816 
C 800 2816 435 2407 435 1971 
C 435 1728 627 1728 666 1728 
C 749 1728 896 1778 896 1954 
C 896 2112 774 2181 666 2181 
C 640 2181 608 2174 589 2168 
C 723 2592 1069 2714 1293 2714 
C 1613 2714 1965 2429 1965 1885 
L 1965 1600 
C 1587 1600 1133 1549 774 1357 
C 371 1133 256 813 256 570 
C 256 77 832 -64 1171 -64 
C 1523 -64 1850 139 1990 511 
C 2003 233 2182 -18 2464 -18 
C 2598 -18 2938 70 2938 567 
L 2938 920 
L 2822 920 
L 2822 562 
C 2822 178 2650 128 2566 128 
C 2304 128 2304 458 2304 738 
L 2304 1653 
z
M 1965 870 
C 1965 317 1568 38 1216 38 
C 896 38 646 275 646 570 
C 646 761 730 1100 1101 1305 
C 1408 1478 1760 1504 1965 1504 
L 1965 870 
z
" transform="scale(0.015625)"/>
       <path id="CMR17-6e" d="M 2656 1933 
C 2656 2259 2592 2790 1837 2790 
C 1331 2790 1069 2400 973 2144 
L 966 2144 
L 966 2790 
L 211 2720 
L 211 2554 
C 589 2554 646 2515 646 2208 
L 646 428 
C 646 184 621 153 211 153 
L 211 -13 
C 365 0 646 0 813 0 
C 979 0 1267 0 1421 -13 
L 1421 153 
C 1011 153 986 178 986 428 
L 986 1658 
C 986 2247 1344 2688 1792 2688 
C 2266 2688 2317 2266 2317 1958 
L 2317 428 
C 2317 184 2291 153 1882 153 
L 1882 -13 
C 2035 0 2317 0 2483 0 
C 2650 0 2938 0 3091 -13 
L 3091 153 
C 2682 153 2656 178 2656 428 
L 2656 1933 
z
" transform="scale(0.015625)"/>
       <path id="CMR17-67" d="M 710 1164 
C 832 1068 1043 960 1299 960 
C 1805 960 2240 1357 2240 1888 
C 2240 2054 2189 2310 1997 2509 
C 2176 2692 2438 2752 2586 2752 
C 2611 2752 2650 2752 2682 2734 
C 2656 2728 2598 2703 2598 2605 
C 2598 2527 2656 2471 2739 2471 
C 2835 2471 2886 2533 2886 2614 
C 2886 2731 2790 2854 2586 2854 
C 2330 2854 2106 2738 1926 2580 
C 1734 2753 1504 2816 1299 2816 
C 794 2816 358 2419 358 1888 
C 358 1522 570 1292 634 1228 
C 442 1004 442 743 442 711 
C 442 545 506 302 723 168 
C 390 85 128 -169 128 -486 
C 128 -943 736 -1280 1466 -1280 
C 2170 -1280 2803 -956 2803 -479 
C 2803 384 1856 384 1363 384 
C 1216 384 954 384 922 391 
C 723 423 589 602 589 826 
C 589 883 589 1024 710 1164 
z
M 1299 1068 
C 736 1068 736 1760 736 1889 
C 736 2016 736 2708 1299 2708 
C 1862 2708 1862 2016 1862 1889 
C 1862 1760 1862 1068 1299 1068 
z
M 1466 -1171 
C 826 -1171 384 -835 384 -486 
C 384 -289 493 -105 634 -4 
C 794 104 858 104 1293 104 
C 1818 104 2547 104 2547 -486 
C 2547 -835 2106 -1171 1466 -1171 
z
" transform="scale(0.015625)"/>
       <path id="CMR17-73" d="M 1978 2697 
C 1978 2813 1971 2819 1933 2819 
C 1907 2819 1901 2813 1824 2717 
C 1805 2691 1747 2626 1728 2601 
C 1523 2819 1235 2819 1126 2819 
C 416 2819 160 2447 160 2076 
C 160 1498 813 1365 998 1325 
C 1402 1243 1542 1217 1677 1101 
C 1760 1025 1901 884 1901 654 
C 1901 384 1747 38 1158 38 
C 602 38 403 460 288 1021 
C 269 1110 269 1117 218 1117 
C 166 1117 160 1110 160 983 
L 160 63 
C 160 -51 166 -58 205 -58 
C 237 -58 243 -51 275 0 
C 314 57 410 211 448 276 
C 576 103 800 -64 1158 -64 
C 1792 -64 2131 283 2131 784 
C 2131 1112 1958 1285 1875 1362 
C 1683 1561 1459 1606 1190 1657 
C 838 1735 390 1825 390 2217 
C 390 2383 480 2737 1126 2737 
C 1811 2737 1850 2094 1862 1888 
C 1869 1856 1901 1849 1920 1849 
C 1978 1849 1978 1869 1978 1978 
L 1978 2697 
z
" transform="scale(0.015625)"/>
       <path id="CMR17-74" d="M 966 2560 
L 1862 2560 
L 1862 2725 
L 966 2725 
L 966 3904 
L 851 3904 
C 838 3245 614 2668 70 2668 
L 70 2560 
L 627 2560 
L 627 771 
C 627 650 627 -64 1370 -64 
C 1747 -64 1965 306 1965 777 
L 1965 1140 
L 1850 1140 
L 1850 783 
C 1850 344 1677 51 1408 51 
C 1222 51 966 178 966 758 
L 966 2560 
z
" transform="scale(0.015625)"/>
       <path id="CMR17-72" d="M 960 1497 
C 960 2112 1222 2688 1702 2688 
C 1747 2688 1792 2682 1837 2662 
C 1837 2662 1696 2617 1696 2452 
C 1696 2298 1818 2234 1914 2234 
C 1990 2234 2131 2279 2131 2458 
C 2131 2663 1926 2790 1709 2790 
C 1222 2790 1011 2317 947 2093 
L 941 2093 
L 941 2790 
L 198 2720 
L 198 2554 
C 576 2554 634 2515 634 2208 
L 634 428 
C 634 184 608 153 198 153 
L 198 -13 
C 352 0 646 0 813 0 
C 998 0 1325 0 1498 -13 
L 1498 153 
C 1037 153 960 153 960 440 
L 960 1497 
z
" transform="scale(0.015625)"/>
       <path id="CMR17-6f" d="M 2758 1356 
C 2758 2176 2163 2816 1466 2816 
C 768 2816 173 2176 173 1356 
C 173 551 768 -64 1466 -64 
C 2163 -64 2758 551 2758 1356 
z
M 1466 51 
C 1165 51 909 230 762 480 
C 602 767 582 1126 582 1408 
C 582 1677 595 2010 762 2298 
C 890 2509 1139 2714 1466 2714 
C 1754 2714 1997 2554 2150 2330 
C 2349 2029 2349 1607 2349 1408 
C 2349 1158 2336 775 2163 467 
C 1984 173 1709 51 1466 51 
z
" transform="scale(0.015625)"/>
       <path id="CMR17-6d" d="M 4326 1933 
C 4326 2252 4269 2790 3507 2790 
C 3072 2790 2771 2496 2656 2151 
L 2650 2151 
C 2573 2676 2195 2790 1837 2790 
C 1331 2790 1069 2400 973 2144 
L 966 2144 
L 966 2790 
L 211 2720 
L 211 2554 
C 589 2554 646 2515 646 2208 
L 646 428 
C 646 184 621 153 211 153 
L 211 -13 
C 365 0 646 0 813 0 
C 979 0 1267 0 1421 -13 
L 1421 153 
C 1011 153 986 178 986 428 
L 986 1658 
C 986 2247 1344 2688 1792 2688 
C 2266 2688 2317 2266 2317 1958 
L 2317 428 
C 2317 184 2291 153 1882 153 
L 1882 -13 
C 2035 0 2317 0 2483 0 
C 2650 0 2938 0 3091 -13 
L 3091 153 
C 2682 153 2656 178 2656 428 
L 2656 1658 
C 2656 2247 3014 2688 3462 2688 
C 3936 2688 3987 2266 3987 1958 
L 3987 428 
C 3987 184 3962 153 3552 153 
L 3552 -13 
C 3706 0 3987 0 4154 0 
C 4320 0 4608 0 4762 -13 
L 4762 153 
C 4352 153 4326 178 4326 428 
L 4326 1933 
z
" transform="scale(0.015625)"/>
       <path id="CMR17-5d" d="M 915 4767 
L 90 4767 
L 90 4544 
L 691 4544 
L 691 -1377 
L 90 -1377 
L 90 -1600 
L 915 -1600 
L 915 4767 
z
" transform="scale(0.015625)"/>
      </defs>
      <use xlink:href="#CMMI12-6b" transform="scale(0.996264)"/>
      <use xlink:href="#CMR17-5b" transform="translate(84.155167 0) scale(0.996264)"/>
      <use xlink:href="#CMR17-31" transform="translate(109.026226 0) scale(0.996264)"/>
      <use xlink:href="#CMR17-2f" transform="translate(154.716703 0) scale(0.996264)"/>
      <use xlink:href="#CMR17-61" transform="translate(200.40718 0) scale(0.996264)"/>
      <use xlink:href="#CMR17-6e" transform="translate(246.097657 0) scale(0.996264)"/>
      <use xlink:href="#CMR17-67" transform="translate(296.993027 0) scale(0.996264)"/>
      <use xlink:href="#CMR17-73" transform="translate(342.683504 0) scale(0.996264)"/>
      <use xlink:href="#CMR17-74" transform="translate(378.484841 0) scale(0.996264)"/>
      <use xlink:href="#CMR17-72" transform="translate(413.765609 0) scale(0.996264)"/>
      <use xlink:href="#CMR17-6f" transform="translate(449.046377 0) scale(0.996264)"/>
      <use xlink:href="#CMR17-6d" transform="translate(494.736854 0) scale(0.996264)"/>
      <use xlink:href="#CMR17-5d" transform="translate(571.656444 0) scale(0.996264)"/>
     </g>
    </g>
   </g>
   <g id="matplotlib.axis_2">
    <g id="ytick_1">
     <g id="line2d_37">
      <defs>
       <path id="m5f022183ea" d="M 0 0 
L 3 0 
" style="stroke: #000000; stroke-width: 0.5"/>
      </defs>
      <g>
       <use xlink:href="#m5f022183ea" x="32.685756" y="148.611652" style="stroke: #000000; stroke-width: 0.5"/>
      </g>
     </g>
     <g id="line2d_38">
      <defs>
       <path id="m10549d2d92" d="M 0 0 
L -3 0 
" style="stroke: #000000; stroke-width: 0.5"/>
      </defs>
      <g>
       <use xlink:href="#m10549d2d92" x="234" y="148.611652" style="stroke: #000000; stroke-width: 0.5"/>
      </g>
     </g>
     <g id="text_6">
      <!-- $\mathdefault{0.2}$ -->
      <g transform="translate(16.455677 152.070901) scale(0.1 -0.1)">
       <defs>
        <path id="CMMI12-3a" d="M 1178 307 
C 1178 492 1024 619 870 619 
C 685 619 557 466 557 313 
C 557 128 710 0 864 0 
C 1050 0 1178 153 1178 307 
z
" transform="scale(0.015625)"/>
        <path id="CMR17-32" d="M 2669 989 
L 2554 989 
C 2490 536 2438 459 2413 420 
C 2381 369 1920 369 1830 369 
L 602 369 
C 832 619 1280 1072 1824 1597 
C 2214 1967 2669 2402 2669 3035 
C 2669 3790 2067 4224 1395 4224 
C 691 4224 262 3604 262 3030 
C 262 2780 448 2748 525 2748 
C 589 2748 781 2787 781 3010 
C 781 3207 614 3264 525 3264 
C 486 3264 448 3258 422 3245 
C 544 3790 915 4058 1306 4058 
C 1862 4058 2227 3617 2227 3035 
C 2227 2479 1901 2000 1536 1584 
L 262 146 
L 262 0 
L 2515 0 
L 2669 989 
z
" transform="scale(0.015625)"/>
       </defs>
       <use xlink:href="#CMR17-30" transform="scale(0.996264)"/>
       <use xlink:href="#CMMI12-3a" transform="translate(45.690477 0) scale(0.996264)"/>
       <use xlink:href="#CMR17-32" transform="translate(72.787654 0) scale(0.996264)"/>
      </g>
     </g>
    </g>
    <g id="ytick_2">
     <g id="line2d_39">
      <g>
       <use xlink:href="#m5f022183ea" x="32.685756" y="117.537485" style="stroke: #000000; stroke-width: 0.5"/>
      </g>
     </g>
     <g id="line2d_40">
      <g>
       <use xlink:href="#m10549d2d92" x="234" y="117.537485" style="stroke: #000000; stroke-width: 0.5"/>
      </g>
     </g>
     <g id="text_7">
      <!-- $\mathdefault{0.4}$ -->
      <g transform="translate(16.455677 120.996734) scale(0.1 -0.1)">
       <defs>
        <path id="CMR17-34" d="M 2150 4122 
C 2150 4256 2144 4256 2029 4256 
L 128 1254 
L 128 1088 
L 1779 1088 
L 1779 457 
C 1779 224 1766 160 1318 160 
L 1197 160 
L 1197 0 
C 1402 0 1747 0 1965 0 
C 2182 0 2528 0 2733 0 
L 2733 160 
L 2611 160 
C 2163 160 2150 224 2150 457 
L 2150 1088 
L 2803 1088 
L 2803 1254 
L 2150 1254 
L 2150 4122 
z
M 1798 3703 
L 1798 1254 
L 256 1254 
L 1798 3703 
z
" transform="scale(0.015625)"/>
       </defs>
       <use xlink:href="#CMR17-30" transform="scale(0.996264)"/>
       <use xlink:href="#CMMI12-3a" transform="translate(45.690477 0) scale(0.996264)"/>
       <use xlink:href="#CMR17-34" transform="translate(72.787654 0) scale(0.996264)"/>
      </g>
     </g>
    </g>
    <g id="ytick_3">
     <g id="line2d_41">
      <g>
       <use xlink:href="#m5f022183ea" x="32.685756" y="86.463318" style="stroke: #000000; stroke-width: 0.5"/>
      </g>
     </g>
     <g id="line2d_42">
      <g>
       <use xlink:href="#m10549d2d92" x="234" y="86.463318" style="stroke: #000000; stroke-width: 0.5"/>
      </g>
     </g>
     <g id="text_8">
      <!-- $\mathdefault{0.6}$ -->
      <g transform="translate(16.455677 89.922567) scale(0.1 -0.1)">
       <defs>
        <path id="CMR17-36" d="M 678 2176 
C 678 3690 1395 4032 1811 4032 
C 1946 4032 2272 4009 2400 3776 
C 2298 3776 2106 3776 2106 3553 
C 2106 3381 2246 3323 2336 3323 
C 2394 3323 2566 3348 2566 3560 
C 2566 3954 2246 4179 1805 4179 
C 1043 4179 243 3390 243 1984 
C 243 253 966 -128 1478 -128 
C 2099 -128 2688 427 2688 1283 
C 2688 2081 2170 2662 1517 2662 
C 1126 2662 838 2407 678 1960 
L 678 2176 
z
M 1478 25 
C 691 25 691 1200 691 1436 
C 691 1896 909 2560 1504 2560 
C 1613 2560 1926 2560 2138 2120 
C 2253 1870 2253 1609 2253 1289 
C 2253 944 2253 690 2118 434 
C 1978 171 1773 25 1478 25 
z
" transform="scale(0.015625)"/>
       </defs>
       <use xlink:href="#CMR17-30" transform="scale(0.996264)"/>
       <use xlink:href="#CMMI12-3a" transform="translate(45.690477 0) scale(0.996264)"/>
       <use xlink:href="#CMR17-36" transform="translate(72.787654 0) scale(0.996264)"/>
      </g>
     </g>
    </g>
    <g id="ytick_4">
     <g id="line2d_43">
      <g>
       <use xlink:href="#m5f022183ea" x="32.685756" y="55.389151" style="stroke: #000000; stroke-width: 0.5"/>
      </g>
     </g>
     <g id="line2d_44">
      <g>
       <use xlink:href="#m10549d2d92" x="234" y="55.389151" style="stroke: #000000; stroke-width: 0.5"/>
      </g>
     </g>
     <g id="text_9">
      <!-- $\mathdefault{0.8}$ -->
      <g transform="translate(16.455677 58.8484) scale(0.1 -0.1)">
       <defs>
        <path id="CMR17-38" d="M 1741 2264 
C 2144 2467 2554 2773 2554 3263 
C 2554 3841 1990 4179 1472 4179 
C 890 4179 378 3759 378 3180 
C 378 3021 416 2747 666 2505 
C 730 2442 998 2251 1171 2130 
C 883 1983 211 1634 211 934 
C 211 279 838 -128 1459 -128 
C 2144 -128 2720 362 2720 1010 
C 2720 1590 2330 1857 2074 2029 
L 1741 2264 
z
M 902 2822 
C 851 2854 595 3051 595 3351 
C 595 3739 998 4032 1459 4032 
C 1965 4032 2336 3676 2336 3262 
C 2336 2669 1670 2331 1638 2331 
C 1632 2331 1626 2331 1574 2370 
L 902 2822 
z
M 2080 1519 
C 2176 1449 2483 1240 2483 851 
C 2483 381 2010 25 1472 25 
C 890 25 448 438 448 940 
C 448 1443 838 1862 1280 2060 
L 2080 1519 
z
" transform="scale(0.015625)"/>
       </defs>
       <use xlink:href="#CMR17-30" transform="scale(0.996264)"/>
       <use xlink:href="#CMMI12-3a" transform="translate(45.690477 0) scale(0.996264)"/>
       <use xlink:href="#CMR17-38" transform="translate(72.787654 0) scale(0.996264)"/>
      </g>
     </g>
    </g>
    <g id="ytick_5">
     <g id="line2d_45">
      <g>
       <use xlink:href="#m5f022183ea" x="32.685756" y="24.314984" style="stroke: #000000; stroke-width: 0.5"/>
      </g>
     </g>
     <g id="line2d_46">
      <g>
       <use xlink:href="#m10549d2d92" x="234" y="24.314984" style="stroke: #000000; stroke-width: 0.5"/>
      </g>
     </g>
     <g id="text_10">
      <!-- $\mathdefault{1.0}$ -->
      <g transform="translate(16.455677 27.774233) scale(0.1 -0.1)">
       <use xlink:href="#CMR17-31" transform="scale(0.996264)"/>
       <use xlink:href="#CMMI12-3a" transform="translate(45.690477 0) scale(0.996264)"/>
       <use xlink:href="#CMR17-30" transform="translate(72.787654 0) scale(0.996264)"/>
      </g>
     </g>
    </g>
    <g id="ytick_6">
     <g id="line2d_47">
      <defs>
       <path id="m902f1d804c" d="M 0 0 
L 1.5 0 
" style="stroke: #000000; stroke-width: 0.5"/>
      </defs>
      <g>
       <use xlink:href="#m902f1d804c" x="32.685756" y="156.380194" style="stroke: #000000; stroke-width: 0.5"/>
      </g>
     </g>
     <g id="line2d_48">
      <defs>
       <path id="m8dee6abb37" d="M 0 0 
L -1.5 0 
" style="stroke: #000000; stroke-width: 0.5"/>
      </defs>
      <g>
       <use xlink:href="#m8dee6abb37" x="234" y="156.380194" style="stroke: #000000; stroke-width: 0.5"/>
      </g>
     </g>
    </g>
    <g id="ytick_7">
     <g id="line2d_49">
      <g>
       <use xlink:href="#m902f1d804c" x="32.685756" y="140.84311" style="stroke: #000000; stroke-width: 0.5"/>
      </g>
     </g>
     <g id="line2d_50">
      <g>
       <use xlink:href="#m8dee6abb37" x="234" y="140.84311" style="stroke: #000000; stroke-width: 0.5"/>
      </g>
     </g>
    </g>
    <g id="ytick_8">
     <g id="line2d_51">
      <g>
       <use xlink:href="#m902f1d804c" x="32.685756" y="133.074569" style="stroke: #000000; stroke-width: 0.5"/>
      </g>
     </g>
     <g id="line2d_52">
      <g>
       <use xlink:href="#m8dee6abb37" x="234" y="133.074569" style="stroke: #000000; stroke-width: 0.5"/>
      </g>
     </g>
    </g>
    <g id="ytick_9">
     <g id="line2d_53">
      <g>
       <use xlink:href="#m902f1d804c" x="32.685756" y="125.306027" style="stroke: #000000; stroke-width: 0.5"/>
      </g>
     </g>
     <g id="line2d_54">
      <g>
       <use xlink:href="#m8dee6abb37" x="234" y="125.306027" style="stroke: #000000; stroke-width: 0.5"/>
      </g>
     </g>
    </g>
    <g id="ytick_10">
     <g id="line2d_55">
      <g>
       <use xlink:href="#m902f1d804c" x="32.685756" y="109.768943" style="stroke: #000000; stroke-width: 0.5"/>
      </g>
     </g>
     <g id="line2d_56">
      <g>
       <use xlink:href="#m8dee6abb37" x="234" y="109.768943" style="stroke: #000000; stroke-width: 0.5"/>
      </g>
     </g>
    </g>
    <g id="ytick_11">
     <g id="line2d_57">
      <g>
       <use xlink:href="#m902f1d804c" x="32.685756" y="102.000401" style="stroke: #000000; stroke-width: 0.5"/>
      </g>
     </g>
     <g id="line2d_58">
      <g>
       <use xlink:href="#m8dee6abb37" x="234" y="102.000401" style="stroke: #000000; stroke-width: 0.5"/>
      </g>
     </g>
    </g>
    <g id="ytick_12">
     <g id="line2d_59">
      <g>
       <use xlink:href="#m902f1d804c" x="32.685756" y="94.23186" style="stroke: #000000; stroke-width: 0.5"/>
      </g>
     </g>
     <g id="line2d_60">
      <g>
       <use xlink:href="#m8dee6abb37" x="234" y="94.23186" style="stroke: #000000; stroke-width: 0.5"/>
      </g>
     </g>
    </g>
    <g id="ytick_13">
     <g id="line2d_61">
      <g>
       <use xlink:href="#m902f1d804c" x="32.685756" y="78.694776" style="stroke: #000000; stroke-width: 0.5"/>
      </g>
     </g>
     <g id="line2d_62">
      <g>
       <use xlink:href="#m8dee6abb37" x="234" y="78.694776" style="stroke: #000000; stroke-width: 0.5"/>
      </g>
     </g>
    </g>
    <g id="ytick_14">
     <g id="line2d_63">
      <g>
       <use xlink:href="#m902f1d804c" x="32.685756" y="70.926234" style="stroke: #000000; stroke-width: 0.5"/>
      </g>
     </g>
     <g id="line2d_64">
      <g>
       <use xlink:href="#m8dee6abb37" x="234" y="70.926234" style="stroke: #000000; stroke-width: 0.5"/>
      </g>
     </g>
    </g>
    <g id="ytick_15">
     <g id="line2d_65">
      <g>
       <use xlink:href="#m902f1d804c" x="32.685756" y="63.157692" style="stroke: #000000; stroke-width: 0.5"/>
      </g>
     </g>
     <g id="line2d_66">
      <g>
       <use xlink:href="#m8dee6abb37" x="234" y="63.157692" style="stroke: #000000; stroke-width: 0.5"/>
      </g>
     </g>
    </g>
    <g id="ytick_16">
     <g id="line2d_67">
      <g>
       <use xlink:href="#m902f1d804c" x="32.685756" y="47.620609" style="stroke: #000000; stroke-width: 0.5"/>
      </g>
     </g>
     <g id="line2d_68">
      <g>
       <use xlink:href="#m8dee6abb37" x="234" y="47.620609" style="stroke: #000000; stroke-width: 0.5"/>
      </g>
     </g>
    </g>
    <g id="ytick_17">
     <g id="line2d_69">
      <g>
       <use xlink:href="#m902f1d804c" x="32.685756" y="39.852067" style="stroke: #000000; stroke-width: 0.5"/>
      </g>
     </g>
     <g id="line2d_70">
      <g>
       <use xlink:href="#m8dee6abb37" x="234" y="39.852067" style="stroke: #000000; stroke-width: 0.5"/>
      </g>
     </g>
    </g>
    <g id="ytick_18">
     <g id="line2d_71">
      <g>
       <use xlink:href="#m902f1d804c" x="32.685756" y="32.083525" style="stroke: #000000; stroke-width: 0.5"/>
      </g>
     </g>
     <g id="line2d_72">
      <g>
       <use xlink:href="#m8dee6abb37" x="234" y="32.083525" style="stroke: #000000; stroke-width: 0.5"/>
      </g>
     </g>
    </g>
    <g id="text_11">
     <!-- $f_{1s}$ -->
     <g transform="translate(10.518498 94.747535) rotate(-90) scale(0.1 -0.1)">
      <defs>
       <path id="CMMI12-66" d="M 2854 2566 
C 2982 2566 3034 2566 3034 2688 
C 3034 2752 2982 2752 2867 2752 
L 2349 2752 
C 2470 3429 2560 3897 2611 4107 
C 2650 4265 2784 4416 2950 4416 
C 3085 4416 3219 4358 3283 4298 
C 3034 4272 2957 4082 2957 3969 
C 2957 3837 3053 3759 3174 3759 
C 3302 3759 3494 3870 3494 4119 
C 3494 4393 3226 4544 2944 4544 
C 2669 4544 2400 4334 2272 4078 
C 2157 3848 2093 3611 1946 2752 
L 1517 2752 
C 1395 2752 1331 2752 1331 2637 
C 1331 2566 1370 2566 1498 2566 
L 1907 2566 
C 1792 1976 1530 542 1382 -137 
C 1274 -689 1178 -1152 858 -1152 
C 838 -1152 653 -1152 538 -1031 
C 864 -1005 864 -726 864 -720 
C 864 -593 768 -517 646 -517 
C 518 -517 326 -625 326 -867 
C 326 -1140 608 -1280 858 -1280 
C 1510 -1280 1779 -118 1850 199 
C 1965 688 2278 2376 2310 2566 
L 2854 2566 
z
" transform="scale(0.015625)"/>
       <path id="CMMI12-73" d="M 1459 1280 
C 1568 1261 1741 1223 1779 1216 
C 1862 1192 2150 1090 2150 783 
C 2150 586 1971 70 1229 70 
C 1094 70 614 70 486 436 
C 742 404 870 603 870 745 
C 870 880 781 950 653 950 
C 512 950 326 841 326 552 
C 326 173 710 -64 1222 -64 
C 2195 -64 2483 651 2483 984 
C 2483 1079 2483 1258 2278 1462 
C 2118 1616 1965 1648 1619 1718 
C 1446 1756 1171 1814 1171 2101 
C 1171 2229 1286 2689 1894 2689 
C 2163 2689 2426 2589 2490 2368 
C 2208 2368 2195 2125 2195 2119 
C 2195 1984 2317 1946 2374 1946 
C 2464 1946 2643 2015 2643 2281 
C 2643 2545 2400 2816 1901 2816 
C 1062 2816 838 2160 838 1899 
C 838 1414 1312 1312 1459 1280 
z
" transform="scale(0.015625)"/>
      </defs>
      <use xlink:href="#CMMI12-66" transform="scale(0.996264)"/>
      <use xlink:href="#CMR17-31" transform="translate(48.083238 -14.943915) scale(0.697382)"/>
      <use xlink:href="#CMMI12-73" transform="translate(80.06642 -14.943915) scale(0.697382)"/>
     </g>
    </g>
   </g>
   <g id="line2d_73">
    <path d="M 41.836403 24.314984 
L 43.685019 24.359164 
L 45.533634 24.491591 
L 47.38225 24.711927 
L 49.230866 25.01961 
L 51.079481 25.413858 
L 52.928097 25.893673 
L 54.776713 26.457846 
L 56.625328 27.104967 
L 58.473944 27.833427 
L 60.32256 28.641431 
L 62.171175 29.527008 
L 64.019791 30.488019 
L 65.868407 31.522169 
L 67.717022 32.627021 
L 69.565638 33.800005 
L 71.414254 35.038432 
L 73.262869 36.339509 
L 75.111485 37.700349 
L 76.960101 39.117987 
L 78.808716 40.589394 
L 80.657332 42.111484 
L 82.505947 43.681138 
L 84.354563 45.295205 
L 86.203179 46.950523 
L 88.051794 48.643928 
L 89.90041 50.372264 
L 91.749026 52.132397 
L 93.597641 53.921224 
L 95.446257 55.735681 
L 97.294873 57.572757 
L 99.143488 59.429494 
L 100.992104 61.303006 
L 102.84072 63.190475 
L 104.689335 65.089164 
L 106.537951 66.996421 
L 108.386567 68.909682 
L 110.235182 70.826478 
L 112.083798 72.744437 
L 113.932414 74.661285 
L 115.781029 76.57485 
L 117.629645 78.483067 
L 119.47826 80.383971 
L 121.326876 82.275705 
L 123.175492 84.156515 
L 125.024107 86.024753 
L 126.872723 87.878873 
L 128.721339 89.717432 
L 130.569954 91.539088 
L 132.41857 93.342597 
L 134.267186 95.126813 
L 136.115801 96.89068 
L 137.964417 98.633238 
L 139.813033 100.353612 
L 141.661648 102.051013 
L 143.510264 103.724737 
L 145.35888 105.374154 
L 147.207495 106.998715 
L 149.056111 108.597939 
L 150.904727 110.171416 
L 152.753342 111.718802 
L 154.601958 113.239814 
L 156.450573 114.734229 
L 158.299189 116.201878 
L 160.147805 117.642647 
L 161.99642 119.056469 
L 163.845036 120.443323 
L 165.693652 121.803232 
L 167.542267 123.136259 
L 169.390883 124.442505 
L 171.239499 125.722102 
L 173.088114 126.975219 
L 174.93673 128.20205 
L 176.785346 129.402819 
L 178.633961 130.577771 
L 180.482577 131.727177 
L 182.331193 132.851327 
L 184.179808 133.950528 
L 186.028424 135.025104 
L 187.87704 136.075394 
L 189.725655 137.10175 
L 191.574271 138.104534 
L 193.422886 139.084119 
L 195.271502 140.040885 
L 197.120118 140.975219 
L 198.968733 141.887516 
L 200.817349 142.778173 
L 202.665965 143.647591 
L 204.51458 144.496174 
L 206.363196 145.324328 
L 208.211812 146.132459 
L 210.060427 146.920973 
L 211.909043 147.690275 
L 213.757659 148.44077 
L 215.606274 149.172858 
L 217.45489 149.886939 
L 219.303506 150.58341 
L 221.152121 151.262661 
L 223.000737 151.925083 
L 224.849353 152.571059 
" clip-path="url(#p286ec47bbc)" style="fill: none; stroke-dasharray: 1,1.65; stroke-dashoffset: 0; stroke: #0c5da5"/>
   </g>
   <g id="line2d_74">
    <path d="M 41.836403 24.314984 
L 43.685019 24.359055 
L 45.533634 24.491155 
L 47.38225 24.710948 
L 49.230866 25.017875 
L 51.079481 25.411158 
L 52.928097 25.889803 
L 54.776713 26.452608 
L 56.625328 27.098168 
L 58.473944 27.824883 
L 60.32256 28.630967 
L 62.171175 29.514458 
L 64.019791 30.473226 
L 65.868407 31.504989 
L 67.717022 32.607318 
L 69.565638 33.777656 
L 71.414254 35.013326 
L 73.262869 36.311548 
L 75.111485 37.669447 
L 76.960101 39.08407 
L 78.808716 40.5524 
L 80.657332 42.071366 
L 82.505947 43.637858 
L 84.354563 45.248739 
L 86.203179 46.90086 
L 88.051794 48.591067 
L 89.90041 50.316216 
L 91.749026 52.073183 
L 93.597641 53.858876 
L 95.446257 55.670241 
L 97.294873 57.504275 
L 99.143488 59.358031 
L 100.992104 61.228628 
L 102.84072 63.113258 
L 104.689335 65.00919 
L 106.537951 66.913778 
L 108.386567 68.824464 
L 110.235182 70.738784 
L 112.083798 72.65437 
L 113.932414 74.568951 
L 115.781029 76.480361 
L 117.629645 78.386535 
L 119.47826 80.28551 
L 121.326876 82.175432 
L 123.175492 84.054547 
L 125.024107 85.921207 
L 126.872723 87.773868 
L 128.721339 89.611086 
L 130.569954 91.431517 
L 132.41857 93.233917 
L 134.267186 95.017137 
L 136.115801 96.780122 
L 137.964417 98.521908 
L 139.813033 100.241618 
L 141.661648 101.938462 
L 143.510264 103.61173 
L 145.35888 105.260793 
L 147.207495 106.885096 
L 149.056111 108.484156 
L 150.904727 110.05756 
L 152.753342 111.60496 
L 154.601958 113.12607 
L 156.450573 114.620664 
L 158.299189 116.088569 
L 160.147805 117.529667 
L 161.99642 118.943889 
L 163.845036 120.331209 
L 165.693652 121.691647 
L 167.542267 123.025263 
L 169.390883 124.332154 
L 171.239499 125.61245 
L 173.088114 126.866315 
L 174.93673 128.093942 
L 176.785346 129.295548 
L 178.633961 130.47138 
L 180.482577 131.621703 
L 182.331193 132.746805 
L 184.179808 133.846989 
L 186.028424 134.922579 
L 187.87704 135.973909 
L 189.725655 137.001329 
L 191.574271 138.0052 
L 193.422886 138.98589 
L 195.271502 139.94378 
L 197.120118 140.879253 
L 198.968733 141.792703 
L 200.817349 142.684523 
L 202.665965 143.555115 
L 204.51458 144.404881 
L 206.363196 145.234223 
L 208.211812 146.043548 
L 210.060427 146.833258 
L 211.909043 147.603759 
L 213.757659 148.355453 
L 215.606274 149.088741 
L 217.45489 149.804019 
L 219.303506 150.501684 
L 221.152121 151.182127 
L 223.000737 151.845735 
L 224.849353 152.492892 
" clip-path="url(#p286ec47bbc)" style="fill: none; stroke-dasharray: 3.7,1.6; stroke-dashoffset: 0; stroke: #0c5da5"/>
   </g>
   <g id="line2d_75">
    <path d="M 41.836403 24.314984 
L 43.685019 24.359164 
L 45.533634 24.491591 
L 47.38225 24.711927 
L 49.230866 25.01961 
L 51.079481 25.413858 
L 52.928097 25.893673 
L 54.776713 26.457846 
L 56.625328 27.104967 
L 58.473944 27.833427 
L 60.32256 28.641431 
L 62.171175 29.527008 
L 64.019791 30.488019 
L 65.868407 31.522169 
L 67.717022 32.627021 
L 69.565638 33.800005 
L 71.414254 35.038432 
L 73.262869 36.339509 
L 75.111485 37.700349 
L 76.960101 39.117987 
L 78.808716 40.589394 
L 80.657332 42.111484 
L 82.505947 43.681138 
L 84.354563 45.295205 
L 86.203179 46.950523 
L 88.051794 48.643928 
L 89.90041 50.372264 
L 91.749026 52.132397 
L 93.597641 53.921224 
L 95.446257 55.735681 
L 97.294873 57.572757 
L 99.143488 59.429494 
L 100.992104 61.303006 
L 102.84072 63.190475 
L 104.689335 65.089164 
L 106.537951 66.996421 
L 108.386567 68.909682 
L 110.235182 70.826478 
L 112.083798 72.744437 
L 113.932414 74.661285 
L 115.781029 76.57485 
L 117.629645 78.483067 
L 119.47826 80.383971 
L 121.326876 82.275705 
L 123.175492 84.156515 
L 125.024107 86.024753 
L 126.872723 87.878873 
L 128.721339 89.717432 
L 130.569954 91.539088 
L 132.41857 93.342597 
L 134.267186 95.126813 
L 136.115801 96.89068 
L 137.964417 98.633238 
L 139.813033 100.353612 
L 141.661648 102.051013 
L 143.510264 103.724737 
L 145.35888 105.374154 
L 147.207495 106.998715 
L 149.056111 108.597939 
L 150.904727 110.171416 
L 152.753342 111.718802 
L 154.601958 113.239814 
L 156.450573 114.734229 
L 158.299189 116.201878 
L 160.147805 117.642647 
L 161.99642 119.056469 
L 163.845036 120.443323 
L 165.693652 121.803232 
L 167.542267 123.136259 
L 169.390883 124.442505 
L 171.239499 125.722102 
L 173.088114 126.975219 
L 174.93673 128.20205 
L 176.785346 129.402819 
L 178.633961 130.577771 
L 180.482577 131.727177 
L 182.331193 132.851327 
L 184.179808 133.950528 
L 186.028424 135.025104 
L 187.87704 136.075394 
L 189.725655 137.10175 
L 191.574271 138.104534 
L 193.422886 139.084119 
L 195.271502 140.040885 
L 197.120118 140.975219 
L 198.968733 141.887516 
L 200.817349 142.778173 
L 202.665965 143.647591 
L 204.51458 144.496174 
L 206.363196 145.324328 
L 208.211812 146.132459 
L 210.060427 146.920973 
L 211.909043 147.690275 
L 213.757659 148.44077 
L 215.606274 149.172858 
L 217.45489 149.886939 
L 219.303506 150.58341 
L 221.152121 151.262661 
L 223.000737 151.925083 
L 224.849353 152.571059 
" clip-path="url(#p286ec47bbc)" style="fill: none; stroke-dasharray: 2,3.3; stroke-dashoffset: 0; stroke: #00b945; stroke-width: 2"/>
   </g>
   <g id="line2d_76">
    <path d="M 41.836403 24.314984 
L 43.685019 24.359055 
L 45.533634 24.491155 
L 47.38225 24.710948 
L 49.230866 25.017875 
L 51.079481 25.411158 
L 52.928097 25.889803 
L 54.776713 26.452608 
L 56.625328 27.098168 
L 58.473944 27.824883 
L 60.32256 28.630967 
L 62.171175 29.514458 
L 64.019791 30.473226 
L 65.868407 31.504989 
L 67.717022 32.607318 
L 69.565638 33.777656 
L 71.414254 35.013326 
L 73.262869 36.311548 
L 75.111485 37.669447 
L 76.960101 39.08407 
L 78.808716 40.5524 
L 80.657332 42.071366 
L 82.505947 43.637858 
L 84.354563 45.248739 
L 86.203179 46.90086 
L 88.051794 48.591067 
L 89.90041 50.316216 
L 91.749026 52.073183 
L 93.597641 53.858876 
L 95.446257 55.670241 
L 97.294873 57.504275 
L 99.143488 59.358031 
L 100.992104 61.228628 
L 102.84072 63.113258 
L 104.689335 65.00919 
L 106.537951 66.913778 
L 108.386567 68.824464 
L 110.235182 70.738784 
L 112.083798 72.65437 
L 113.932414 74.568951 
L 115.781029 76.480361 
L 117.629645 78.386535 
L 119.47826 80.28551 
L 121.326876 82.175432 
L 123.175492 84.054547 
L 125.024107 85.921207 
L 126.872723 87.773868 
L 128.721339 89.611086 
L 130.569954 91.431517 
L 132.41857 93.233917 
L 134.267186 95.017137 
L 136.115801 96.780122 
L 137.964417 98.521908 
L 139.813033 100.241618 
L 141.661648 101.938462 
L 143.510264 103.61173 
L 145.35888 105.260793 
L 147.207495 106.885096 
L 149.056111 108.484156 
L 150.904727 110.05756 
L 152.753342 111.60496 
L 154.601958 113.12607 
L 156.450573 114.620664 
L 158.299189 116.088569 
L 160.147805 117.529667 
L 161.99642 118.943889 
L 163.845036 120.331209 
L 165.693652 121.691647 
L 167.542267 123.025263 
L 169.390883 124.332154 
L 171.239499 125.61245 
L 173.088114 126.866315 
L 174.93673 128.093942 
L 176.785346 129.295548 
L 178.633961 130.47138 
L 180.482577 131.621703 
L 182.331193 132.746805 
L 184.179808 133.846989 
L 186.028424 134.922579 
L 187.87704 135.973909 
L 189.725655 137.001329 
L 191.574271 138.0052 
L 193.422886 138.98589 
L 195.271502 139.94378 
L 197.120118 140.879253 
L 198.968733 141.792703 
L 200.817349 142.684523 
L 202.665965 143.555115 
L 204.51458 144.404881 
L 206.363196 145.234223 
L 208.211812 146.043548 
L 210.060427 146.833258 
L 211.909043 147.603759 
L 213.757659 148.355453 
L 215.606274 149.088741 
L 217.45489 149.804019 
L 219.303506 150.501684 
L 221.152121 151.182127 
L 223.000737 151.845735 
L 224.849353 152.492892 
" clip-path="url(#p286ec47bbc)" style="fill: none; stroke-dasharray: 7.4,3.2; stroke-dashoffset: 0; stroke: #00b945; stroke-width: 2"/>
   </g>
   <g id="line2d_77">
    <path d="M 41.836403 24.314984 
L 43.685019 24.357041 
L 45.533634 24.483109 
L 47.38225 24.692883 
L 49.230866 24.985853 
L 51.079481 25.361309 
L 52.928097 25.818347 
L 54.776713 26.355869 
L 56.625328 26.972595 
L 58.473944 27.667064 
L 60.32256 28.437643 
L 62.171175 29.282539 
L 64.019791 30.199803 
L 65.868407 31.187345 
L 67.717022 32.242939 
L 69.565638 33.364236 
L 71.414254 34.548778 
L 73.262869 35.794005 
L 75.111485 37.09727 
L 76.960101 38.455848 
L 78.808716 39.86695 
L 80.657332 41.327734 
L 82.505947 42.835316 
L 84.354563 44.386785 
L 86.203179 45.979208 
L 88.051794 47.609645 
L 89.90041 49.275159 
L 91.749026 50.972827 
L 93.597641 52.699746 
L 95.446257 54.453045 
L 97.294873 56.229892 
L 99.143488 58.027504 
L 100.992104 59.843151 
L 102.84072 61.674166 
L 104.689335 63.517946 
L 106.537951 65.371965 
L 108.386567 67.233772 
L 110.235182 69.100997 
L 112.083798 70.971358 
L 113.932414 72.842657 
L 115.781029 74.71279 
L 117.629645 76.579745 
L 119.47826 78.441602 
L 121.326876 80.296537 
L 123.175492 82.142822 
L 125.024107 83.978822 
L 126.872723 85.802998 
L 128.721339 87.613904 
L 130.569954 89.410188 
L 132.41857 91.190589 
L 134.267186 92.953935 
L 136.115801 94.699143 
L 137.964417 96.425214 
L 139.813033 98.131233 
L 141.661648 99.816367 
L 143.510264 101.479859 
L 145.35888 103.12103 
L 147.207495 104.73927 
L 149.056111 106.334043 
L 150.904727 107.904876 
L 152.753342 109.451361 
L 154.601958 110.973152 
L 156.450573 112.46996 
L 158.299189 113.94155 
L 160.147805 115.38774 
L 161.99642 116.808396 
L 163.845036 118.203431 
L 165.693652 119.572801 
L 167.542267 120.916503 
L 169.390883 122.234572 
L 171.239499 123.527077 
L 173.088114 124.794122 
L 174.93673 126.035841 
L 176.785346 127.252395 
L 178.633961 128.443972 
L 180.482577 129.610784 
L 182.331193 130.753064 
L 184.179808 131.871067 
L 186.028424 132.965063 
L 187.87704 134.03534 
L 189.725655 135.082201 
L 191.574271 136.10596 
L 193.422886 137.106946 
L 195.271502 138.085494 
L 197.120118 139.041951 
L 198.968733 139.976671 
L 200.817349 140.890011 
L 202.665965 141.782339 
L 204.51458 142.654022 
L 206.363196 143.505434 
L 208.211812 144.336948 
L 210.060427 145.148942 
L 211.909043 145.941792 
L 213.757659 146.715877 
L 215.606274 147.471572 
L 217.45489 148.209252 
L 219.303506 148.929293 
L 221.152121 149.632065 
L 223.000737 150.317937 
L 224.849353 150.987276 
" clip-path="url(#p286ec47bbc)" style="fill: none; stroke-dasharray: 2,3.3; stroke-dashoffset: 0; stroke: #ff9500; stroke-width: 2"/>
   </g>
   <g id="line2d_78">
    <path d="M 41.836403 24.314984 
L 43.685019 24.357062 
L 45.533634 24.483196 
L 47.38225 24.693077 
L 49.230866 24.986195 
L 51.079481 25.361838 
L 52.928097 25.819097 
L 54.776713 26.356873 
L 56.625328 26.973881 
L 58.473944 27.668654 
L 60.32256 28.439558 
L 62.171175 29.284791 
L 64.019791 30.202402 
L 65.868407 31.190292 
L 67.717022 32.246231 
L 69.565638 33.367864 
L 71.414254 34.552727 
L 73.262869 35.798254 
L 75.111485 37.101793 
L 76.960101 38.460613 
L 78.808716 39.87192 
L 80.657332 41.332867 
L 82.505947 42.840566 
L 84.354563 44.392101 
L 86.203179 45.984535 
L 88.051794 47.614926 
L 89.90041 49.280335 
L 91.749026 50.977834 
L 93.597641 52.70452 
L 95.446257 54.457521 
L 97.294873 56.234003 
L 99.143488 58.031184 
L 100.992104 59.846334 
L 102.84072 61.676786 
L 104.689335 63.51994 
L 106.537951 65.373269 
L 108.386567 67.234325 
L 110.235182 69.100742 
L 112.083798 70.970237 
L 113.932414 72.840619 
L 115.781029 74.709786 
L 117.629645 76.575727 
L 119.47826 78.436529 
L 121.326876 80.29037 
L 123.175492 82.135526 
L 125.024107 83.970367 
L 126.872723 85.793356 
L 128.721339 87.603054 
L 130.569954 89.39811 
L 132.41857 91.177269 
L 134.267186 92.939363 
L 136.115801 94.683312 
L 137.964417 96.408121 
L 139.813033 98.112879 
L 141.661648 99.796756 
L 143.510264 101.458999 
L 145.35888 103.098932 
L 147.207495 104.715949 
L 149.056111 106.309514 
L 150.904727 107.87916 
L 152.753342 109.42448 
L 154.601958 110.945131 
L 156.450573 112.440825 
L 158.299189 113.911329 
L 160.147805 115.356464 
L 161.99642 116.776098 
L 163.845036 118.170143 
L 165.693652 119.538559 
L 167.542267 120.881342 
L 169.390883 122.198528 
L 171.239499 123.490188 
L 173.088114 124.756426 
L 174.93673 125.997376 
L 176.785346 127.213199 
L 178.633961 128.404085 
L 180.482577 129.570244 
L 182.331193 130.71191 
L 184.179808 131.829337 
L 186.028424 132.922796 
L 187.87704 133.992574 
L 189.725655 135.038973 
L 191.574271 136.062308 
L 193.422886 137.062905 
L 195.271502 138.041101 
L 197.120118 138.997241 
L 198.968733 139.931676 
L 200.817349 140.844767 
L 202.665965 141.736877 
L 204.51458 142.608375 
L 206.363196 143.459632 
L 208.211812 144.291022 
L 210.060427 145.10292 
L 211.909043 145.895703 
L 213.757659 146.669746 
L 215.606274 147.425427 
L 217.45489 148.163118 
L 219.303506 148.883194 
L 221.152121 149.586024 
L 223.000737 150.271976 
L 224.849353 150.941417 
" clip-path="url(#p286ec47bbc)" style="fill: none; stroke-dasharray: 7.4,3.2; stroke-dashoffset: 0; stroke: #ff9500; stroke-width: 2"/>
   </g>
   <g id="line2d_79">
    <path d="M 41.836403 24.314984 
L 43.685019 24.355067 
L 45.533634 24.475224 
L 47.38225 24.675177 
L 49.230866 24.954462 
L 51.079481 25.312436 
L 52.928097 25.748274 
L 54.776713 26.26098 
L 56.625328 26.849388 
L 58.473944 27.512167 
L 60.32256 28.247832 
L 62.171175 29.054745 
L 64.019791 29.931129 
L 65.868407 30.875074 
L 67.717022 31.884544 
L 69.565638 32.957392 
L 71.414254 34.091363 
L 73.262869 35.284108 
L 75.111485 36.533195 
L 76.960101 37.836118 
L 78.808716 39.190306 
L 80.657332 40.593137 
L 82.505947 42.041945 
L 84.354563 43.534032 
L 86.203179 45.06668 
L 88.051794 46.637154 
L 89.90041 48.242721 
L 91.749026 49.880651 
L 93.597641 51.54823 
L 95.446257 53.242766 
L 97.294873 54.9616 
L 99.143488 56.702109 
L 100.992104 58.461716 
L 102.84072 60.237896 
L 104.689335 62.02818 
L 106.537951 63.830162 
L 108.386567 65.641502 
L 110.235182 67.459931 
L 112.083798 69.283256 
L 113.932414 71.10936 
L 115.781029 72.936208 
L 117.629645 74.761847 
L 119.47826 76.584407 
L 121.326876 78.402103 
L 123.175492 80.213239 
L 125.024107 82.016201 
L 126.872723 83.809465 
L 128.721339 85.591592 
L 130.569954 87.361227 
L 132.41857 89.117102 
L 134.267186 90.858029 
L 136.115801 92.582904 
L 137.964417 94.290704 
L 139.813033 95.98048 
L 141.661648 97.651365 
L 143.510264 99.30256 
L 145.35888 100.933343 
L 147.207495 102.543057 
L 149.056111 104.131115 
L 150.904727 105.696991 
L 152.753342 107.240224 
L 154.601958 108.760411 
L 156.450573 110.257203 
L 158.299189 111.730308 
L 160.147805 113.179483 
L 161.99642 114.604534 
L 163.845036 116.005313 
L 165.693652 117.381716 
L 167.542267 118.733678 
L 169.390883 120.061174 
L 171.239499 121.364214 
L 173.088114 122.642843 
L 174.93673 123.897136 
L 176.785346 125.127197 
L 178.633961 126.33316 
L 180.482577 127.515179 
L 182.331193 128.673437 
L 184.179808 129.808133 
L 186.028424 130.91949 
L 187.87704 132.007745 
L 189.725655 133.073153 
L 191.574271 134.115984 
L 193.422886 135.13652 
L 195.271502 136.135055 
L 197.120118 137.111894 
L 198.968733 138.067351 
L 200.817349 139.001747 
L 202.665965 139.915411 
L 204.51458 140.808677 
L 206.363196 141.681884 
L 208.211812 142.535376 
L 210.060427 143.369499 
L 211.909043 144.184601 
L 213.757659 144.981032 
L 215.606274 145.759143 
L 217.45489 146.519285 
L 219.303506 147.261809 
L 221.152121 147.987064 
L 223.000737 148.695399 
L 224.849353 149.387161 
" clip-path="url(#p286ec47bbc)" style="fill: none; stroke-dasharray: 2,3.3; stroke-dashoffset: 0; stroke: #ff2c00; stroke-width: 2"/>
   </g>
   <g id="line2d_80">
    <path d="M 41.836403 24.314984 
L 43.685019 24.35507 
L 45.533634 24.475238 
L 47.38225 24.675207 
L 49.230866 24.954515 
L 51.079481 25.312517 
L 52.928097 25.748391 
L 54.776713 26.261139 
L 56.625328 26.849594 
L 58.473944 27.512426 
L 60.32256 28.248149 
L 62.171175 29.055125 
L 64.019791 29.931578 
L 65.868407 30.875595 
L 67.717022 31.885143 
L 69.565638 32.958072 
L 71.414254 34.092128 
L 73.262869 35.284961 
L 75.111485 36.534139 
L 76.960101 37.837155 
L 78.808716 39.191439 
L 80.657332 40.594367 
L 82.505947 42.043274 
L 84.354563 43.535462 
L 86.203179 45.06821 
L 88.051794 46.638786 
L 89.90041 48.244454 
L 91.749026 49.882485 
L 93.597641 51.550164 
L 95.446257 53.2448 
L 97.294873 54.963732 
L 99.143488 56.704338 
L 100.992104 58.464041 
L 102.84072 60.240315 
L 104.689335 62.03069 
L 106.537951 63.83276 
L 108.386567 65.644186 
L 110.235182 67.462699 
L 112.083798 69.286105 
L 113.932414 71.112287 
L 115.781029 72.93921 
L 117.629645 74.76492 
L 119.47826 76.587548 
L 121.326876 78.405309 
L 123.175492 80.216505 
L 125.024107 82.019526 
L 126.872723 83.812844 
L 128.721339 85.595021 
L 130.569954 87.364704 
L 132.41857 89.120622 
L 134.267186 90.861589 
L 136.115801 92.586501 
L 137.964417 94.294333 
L 139.813033 95.984139 
L 141.661648 97.65505 
L 143.510264 99.306268 
L 145.35888 100.937071 
L 147.207495 102.546801 
L 149.056111 104.134872 
L 150.904727 105.700759 
L 152.753342 107.244 
L 154.601958 108.764191 
L 156.450573 110.260985 
L 158.299189 111.73409 
L 160.147805 113.183261 
L 161.99642 114.608307 
L 163.845036 116.009078 
L 165.693652 117.38547 
L 167.542267 118.73742 
L 169.390883 120.064902 
L 171.239499 121.367926 
L 173.088114 122.646537 
L 174.93673 123.90081 
L 176.785346 125.13085 
L 178.633961 126.336789 
L 180.482577 127.518785 
L 182.331193 128.677016 
L 184.179808 129.811686 
L 186.028424 130.923014 
L 187.87704 132.011239 
L 189.725655 133.076617 
L 191.574271 134.119417 
L 193.422886 135.13992 
L 195.271502 136.138423 
L 197.120118 137.115228 
L 198.968733 138.07065 
L 200.817349 139.005011 
L 202.665965 139.91864 
L 204.51458 140.81187 
L 206.363196 141.685041 
L 208.211812 142.538496 
L 210.060427 143.372581 
L 211.909043 144.187646 
L 213.757659 144.984039 
L 215.606274 145.762113 
L 217.45489 146.522217 
L 219.303506 147.264703 
L 221.152121 147.98992 
L 223.000737 148.698218 
L 224.849353 149.389941 
" clip-path="url(#p286ec47bbc)" style="fill: none; stroke-dasharray: 7.4,3.2; stroke-dashoffset: 0; stroke: #ff2c00; stroke-width: 2"/>
   </g>
   <g id="line2d_81">
    <path d="M 41.836403 24.314984 
L 43.685019 24.355067 
L 45.533634 24.475224 
L 47.38225 24.675177 
L 49.230866 24.954462 
L 51.079481 25.312436 
L 52.928097 25.748274 
L 54.776713 26.26098 
L 56.625328 26.849388 
L 58.473944 27.512167 
L 60.32256 28.247832 
L 62.171175 29.054745 
L 64.019791 29.931129 
L 65.868407 30.875074 
L 67.717022 31.884544 
L 69.565638 32.957392 
L 71.414254 34.091363 
L 73.262869 35.284108 
L 75.111485 36.533195 
L 76.960101 37.836118 
L 78.808716 39.190306 
L 80.657332 40.593137 
L 82.505947 42.041945 
L 84.354563 43.534032 
L 86.203179 45.06668 
L 88.051794 46.637154 
L 89.90041 48.242721 
L 91.749026 49.880651 
L 93.597641 51.54823 
L 95.446257 53.242766 
L 97.294873 54.9616 
L 99.143488 56.702109 
L 100.992104 58.461716 
L 102.84072 60.237896 
L 104.689335 62.02818 
L 106.537951 63.830162 
L 108.386567 65.641502 
L 110.235182 67.459931 
L 112.083798 69.283256 
L 113.932414 71.10936 
L 115.781029 72.936208 
L 117.629645 74.761847 
L 119.47826 76.584407 
L 121.326876 78.402103 
L 123.175492 80.213239 
L 125.024107 82.016201 
L 126.872723 83.809465 
L 128.721339 85.591592 
L 130.569954 87.361227 
L 132.41857 89.117102 
L 134.267186 90.858029 
L 136.115801 92.582904 
L 137.964417 94.290704 
L 139.813033 95.98048 
L 141.661648 97.651365 
L 143.510264 99.30256 
L 145.35888 100.933343 
L 147.207495 102.543057 
L 149.056111 104.131115 
L 150.904727 105.696991 
L 152.753342 107.240224 
L 154.601958 108.760411 
L 156.450573 110.257203 
L 158.299189 111.730308 
L 160.147805 113.179483 
L 161.99642 114.604534 
L 163.845036 116.005313 
L 165.693652 117.381716 
L 167.542267 118.733678 
L 169.390883 120.061174 
L 171.239499 121.364214 
L 173.088114 122.642843 
L 174.93673 123.897136 
L 176.785346 125.127197 
L 178.633961 126.33316 
L 180.482577 127.515179 
L 182.331193 128.673437 
L 184.179808 129.808133 
L 186.028424 130.91949 
L 187.87704 132.007745 
L 189.725655 133.073153 
L 191.574271 134.115984 
L 193.422886 135.13652 
L 195.271502 136.135055 
L 197.120118 137.111894 
L 198.968733 138.067351 
L 200.817349 139.001747 
L 202.665965 139.915411 
L 204.51458 140.808677 
L 206.363196 141.681884 
L 208.211812 142.535376 
L 210.060427 143.369499 
L 211.909043 144.184601 
L 213.757659 144.981032 
L 215.606274 145.759143 
L 217.45489 146.519285 
L 219.303506 147.261809 
L 221.152121 147.987064 
L 223.000737 148.695399 
L 224.849353 149.387161 
" clip-path="url(#p286ec47bbc)" style="fill: none; stroke-dasharray: 1,1.65; stroke-dashoffset: 0; stroke: #845b97"/>
   </g>
   <g id="line2d_82">
    <path d="M 41.836403 24.314984 
L 43.685019 24.35507 
L 45.533634 24.475238 
L 47.38225 24.675207 
L 49.230866 24.954515 
L 51.079481 25.312517 
L 52.928097 25.748391 
L 54.776713 26.261139 
L 56.625328 26.849594 
L 58.473944 27.512426 
L 60.32256 28.248149 
L 62.171175 29.055125 
L 64.019791 29.931578 
L 65.868407 30.875595 
L 67.717022 31.885143 
L 69.565638 32.958072 
L 71.414254 34.092128 
L 73.262869 35.284961 
L 75.111485 36.534139 
L 76.960101 37.837155 
L 78.808716 39.191439 
L 80.657332 40.594367 
L 82.505947 42.043274 
L 84.354563 43.535462 
L 86.203179 45.06821 
L 88.051794 46.638786 
L 89.90041 48.244454 
L 91.749026 49.882485 
L 93.597641 51.550164 
L 95.446257 53.2448 
L 97.294873 54.963732 
L 99.143488 56.704338 
L 100.992104 58.464041 
L 102.84072 60.240315 
L 104.689335 62.03069 
L 106.537951 63.83276 
L 108.386567 65.644186 
L 110.235182 67.462699 
L 112.083798 69.286105 
L 113.932414 71.112287 
L 115.781029 72.93921 
L 117.629645 74.76492 
L 119.47826 76.587548 
L 121.326876 78.405309 
L 123.175492 80.216505 
L 125.024107 82.019526 
L 126.872723 83.812844 
L 128.721339 85.595021 
L 130.569954 87.364704 
L 132.41857 89.120622 
L 134.267186 90.861589 
L 136.115801 92.586501 
L 137.964417 94.294333 
L 139.813033 95.984139 
L 141.661648 97.65505 
L 143.510264 99.306268 
L 145.35888 100.937071 
L 147.207495 102.546801 
L 149.056111 104.134872 
L 150.904727 105.700759 
L 152.753342 107.244 
L 154.601958 108.764191 
L 156.450573 110.260985 
L 158.299189 111.73409 
L 160.147805 113.183261 
L 161.99642 114.608307 
L 163.845036 116.009078 
L 165.693652 117.38547 
L 167.542267 118.73742 
L 169.390883 120.064902 
L 171.239499 121.367926 
L 173.088114 122.646537 
L 174.93673 123.90081 
L 176.785346 125.13085 
L 178.633961 126.336789 
L 180.482577 127.518785 
L 182.331193 128.677016 
L 184.179808 129.811686 
L 186.028424 130.923014 
L 187.87704 132.011239 
L 189.725655 133.076617 
L 191.574271 134.119417 
L 193.422886 135.13992 
L 195.271502 136.138423 
L 197.120118 137.115228 
L 198.968733 138.07065 
L 200.817349 139.005011 
L 202.665965 139.91864 
L 204.51458 140.81187 
L 206.363196 141.685041 
L 208.211812 142.538496 
L 210.060427 143.372581 
L 211.909043 144.187646 
L 213.757659 144.984039 
L 215.606274 145.762113 
L 217.45489 146.522217 
L 219.303506 147.264703 
L 221.152121 147.98992 
L 223.000737 148.698218 
L 224.849353 149.389941 
" clip-path="url(#p286ec47bbc)" style="fill: none; stroke-dasharray: 3.7,1.6; stroke-dashoffset: 0; stroke: #845b97"/>
   </g>
   <g id="patch_3">
    <path d="M 32.685756 158.983863 
L 32.685756 17.90218 
" style="fill: none; stroke: #000000; stroke-width: 0.5; stroke-linejoin: miter; stroke-linecap: square"/>
   </g>
   <g id="patch_4">
    <path d="M 234 158.983863 
L 234 17.90218 
" style="fill: none; stroke: #000000; stroke-width: 0.5; stroke-linejoin: miter; stroke-linecap: square"/>
   </g>
   <g id="patch_5">
    <path d="M 32.685756 158.983863 
L 234 158.983863 
" style="fill: none; stroke: #000000; stroke-width: 0.5; stroke-linejoin: miter; stroke-linecap: square"/>
   </g>
   <g id="patch_6">
    <path d="M 32.685756 17.90218 
L 234 17.90218 
" style="fill: none; stroke: #000000; stroke-width: 0.5; stroke-linejoin: miter; stroke-linecap: square"/>
   </g>
   <g id="text_12">
    <!-- $f_{1s}$ for beryllium -->
    <g transform="translate(90.853242 11.90218) scale(0.12 -0.12)">
     <defs>
      <path id="CMR17-66" d="M 979 2560 
L 1709 2560 
L 1709 2725 
L 966 2725 
L 966 3494 
C 966 4022 1235 4352 1510 4352 
C 1594 4352 1690 4327 1754 4282 
C 1702 4269 1568 4225 1568 4067 
C 1568 3901 1696 3850 1786 3850 
C 1875 3850 2003 3901 2003 4067 
C 2003 4308 1773 4454 1517 4454 
C 1152 4454 653 4156 653 3481 
L 653 2725 
L 141 2725 
L 141 2560 
L 653 2560 
L 653 427 
C 653 184 627 153 218 153 
L 218 -13 
C 371 0 666 0 832 0 
C 1018 0 1344 0 1517 -13 
L 1517 153 
C 1056 153 979 153 979 439 
L 979 2560 
z
" transform="scale(0.015625)"/>
      <path id="CMR17-62" d="M 960 4396 
L 198 4326 
L 198 4160 
C 576 4160 634 4122 634 3817 
L 634 -13 
L 749 -13 
L 934 441 
C 1120 141 1395 -64 1766 -64 
C 2406 -64 3053 500 3053 1370 
C 3053 2188 2477 2790 1830 2790 
C 1434 2790 1152 2579 960 2330 
L 960 4396 
z
M 973 2004 
C 973 2118 973 2138 1062 2272 
C 1312 2657 1670 2688 1792 2688 
C 1984 2688 2643 2585 2643 1376 
C 2643 108 1888 38 1734 38 
C 1536 38 1248 114 1043 486 
C 973 608 973 621 973 735 
L 973 2004 
z
" transform="scale(0.015625)"/>
      <path id="CMR17-65" d="M 2438 1472 
C 2464 1498 2464 1511 2464 1576 
C 2464 2238 2118 2816 1389 2816 
C 710 2816 173 2169 173 1383 
C 173 551 781 -64 1459 -64 
C 2176 -64 2458 607 2458 740 
C 2458 784 2419 784 2406 784 
C 2362 784 2355 771 2330 696 
C 2189 265 1837 51 1504 51 
C 1229 51 954 203 781 480 
C 582 803 582 1176 582 1472 
L 2438 1472 
z
M 589 1568 
C 634 2505 1126 2714 1382 2714 
C 1818 2714 2112 2297 2118 1568 
L 589 1568 
z
" transform="scale(0.015625)"/>
      <path id="CMR17-79" d="M 2496 2197 
C 2656 2586 2944 2586 3034 2586 
L 3034 2752 
C 2912 2752 2752 2752 2630 2752 
C 2496 2752 2285 2752 2157 2758 
L 2157 2592 
C 2400 2573 2406 2394 2406 2343 
C 2406 2280 2394 2248 2362 2171 
L 1664 449 
L 902 2306 
C 870 2382 870 2426 870 2433 
C 870 2573 1018 2586 1171 2586 
L 1171 2758 
C 1018 2752 742 2752 582 2752 
C 410 2752 205 2752 64 2758 
L 64 2586 
C 410 2586 448 2554 531 2350 
L 1485 15 
C 1197 -738 1030 -1178 627 -1178 
C 557 -1178 397 -1159 282 -1044 
C 429 -1031 493 -942 493 -833 
C 493 -725 416 -629 288 -629 
C 147 -629 77 -725 77 -840 
C 77 -1095 339 -1280 627 -1280 
C 998 -1280 1229 -922 1357 -604 
L 2496 2197 
z
" transform="scale(0.015625)"/>
      <path id="CMR17-6c" d="M 979 4396 
L 218 4326 
L 218 4160 
C 595 4160 653 4122 653 3817 
L 653 426 
C 653 184 627 153 218 153 
L 218 -13 
C 371 0 653 0 813 0 
C 979 0 1261 0 1414 -13 
L 1414 153 
C 1005 153 979 178 979 426 
L 979 4396 
z
" transform="scale(0.015625)"/>
      <path id="CMR17-69" d="M 992 3909 
C 992 4049 877 4170 730 4170 
C 589 4170 467 4056 467 3909 
C 467 3769 582 3648 730 3648 
C 870 3648 992 3763 992 3909 
z
M 243 2706 
L 243 2541 
C 602 2541 653 2502 653 2197 
L 653 427 
C 653 184 627 153 218 153 
L 218 -13 
C 371 0 646 0 806 0 
C 960 0 1222 0 1370 -13 
L 1370 153 
C 992 153 979 191 979 420 
L 979 2776 
L 243 2706 
z
" transform="scale(0.015625)"/>
      <path id="CMR17-75" d="M 1882 2693 
L 1882 2528 
C 2259 2528 2317 2489 2317 2186 
L 2317 1032 
C 2317 500 2029 38 1555 38 
C 1030 38 986 348 986 678 
L 986 2763 
L 211 2693 
L 211 2528 
C 467 2528 640 2528 646 2274 
L 646 1058 
C 646 633 646 361 813 183 
C 896 101 1056 -64 1517 -64 
C 2061 -64 2272 377 2323 506 
L 2330 506 
L 2330 -63 
L 3091 -63 
L 3091 128 
C 2714 128 2656 166 2656 473 
L 2656 2763 
L 1882 2693 
z
" transform="scale(0.015625)"/>
     </defs>
     <use xlink:href="#CMMI12-66" transform="scale(0.996264)"/>
     <use xlink:href="#CMR17-31" transform="translate(48.083238 -14.943915) scale(0.697382)"/>
     <use xlink:href="#CMMI12-73" transform="translate(80.06642 -14.943915) scale(0.697382)"/>
     <use xlink:href="#CMR17-66" transform="translate(142.805407 0) scale(0.996264)"/>
     <use xlink:href="#CMR17-6f" transform="translate(170.278919 0) scale(0.996264)"/>
     <use xlink:href="#CMR17-72" transform="translate(215.969396 0) scale(0.996264)"/>
     <use xlink:href="#CMR17-62" transform="translate(281.326131 0) scale(0.996264)"/>
     <use xlink:href="#CMR17-65" transform="translate(334.823939 0) scale(0.996264)"/>
     <use xlink:href="#CMR17-72" transform="translate(375.309599 0) scale(0.996264)"/>
     <use xlink:href="#CMR17-79" transform="translate(410.590367 0) scale(0.996264)"/>
     <use xlink:href="#CMR17-6c" transform="translate(458.883283 0) scale(0.996264)"/>
     <use xlink:href="#CMR17-6c" transform="translate(483.754342 0) scale(0.996264)"/>
     <use xlink:href="#CMR17-69" transform="translate(508.6254 0) scale(0.996264)"/>
     <use xlink:href="#CMR17-75" transform="translate(533.496459 0) scale(0.996264)"/>
     <use xlink:href="#CMR17-6d" transform="translate(584.391828 0) scale(0.996264)"/>
    </g>
   </g>
   <g id="legend_1">
    <g id="line2d_83">
     <path d="M 131.274091 30.40218 
L 141.274091 30.40218 
L 151.274091 30.40218 
" style="fill: none; stroke-dasharray: 1,1.65; stroke-dashoffset: 0; stroke: #0c5da5"/>
    </g>
    <g id="text_13">
     <!-- Pauling, Z=1.5 -->
     <g transform="translate(159.274091 33.90218) scale(0.1 -0.1)">
      <defs>
       <path id="CMR17-50" d="M 1267 2042 
L 2291 2042 
C 3117 2042 3718 2578 3718 3184 
C 3718 3791 3130 4352 2291 4352 
L 333 4352 
L 333 4186 
C 774 4186 845 4186 845 3899 
L 845 446 
C 845 160 774 160 333 160 
L 333 0 
C 518 0 858 0 1056 0 
C 1254 0 1594 0 1779 0 
L 1779 160 
C 1338 160 1267 160 1267 446 
L 1267 2042 
z
M 1254 2176 
L 1254 3938 
C 1254 4155 1267 4186 1523 4186 
L 2170 4186 
C 2995 4186 3232 3714 3232 3184 
C 3232 2604 2950 2176 2170 2176 
L 1254 2176 
z
" transform="scale(0.015625)"/>
       <path id="CMR17-2c" d="M 1011 102 
C 1024 45 1024 25 1024 -77 
C 1024 -463 896 -817 627 -1139 
C 595 -1170 595 -1183 595 -1197 
C 595 -1222 621 -1248 646 -1248 
C 685 -1248 1126 -799 1126 -87 
C 1126 124 1101 522 800 522 
C 659 522 538 427 538 261 
C 538 96 659 0 800 0 
C 877 0 960 32 1011 102 
z
" transform="scale(0.015625)"/>
       <path id="CMR17-5a" d="M 3302 4230 
C 3302 4352 3296 4352 3162 4352 
L 442 4352 
L 378 2948 
L 493 2948 
C 531 3675 723 4192 1760 4192 
L 2816 4192 
L 339 204 
C 294 134 294 127 294 83 
C 294 0 307 0 435 0 
L 3245 0 
L 3334 1666 
L 3219 1666 
C 3162 829 3117 178 1894 178 
L 781 178 
L 3302 4230 
z
" transform="scale(0.015625)"/>
       <path id="CMR17-3d" d="M 4115 2017 
C 4211 2017 4307 2017 4307 2125 
C 4307 2240 4198 2240 4090 2240 
L 512 2240 
C 403 2240 294 2240 294 2125 
C 294 2017 390 2017 486 2017 
L 4115 2017 
z
M 4090 896 
C 4198 896 4307 896 4307 1011 
C 4307 1119 4211 1119 4115 1119 
L 486 1119 
C 390 1119 294 1119 294 1011 
C 294 896 403 896 512 896 
L 4090 896 
z
" transform="scale(0.015625)"/>
       <path id="CMR17-2e" d="M 1062 261 
C 1062 420 934 522 800 522 
C 672 522 538 420 538 261 
C 538 102 666 0 800 0 
C 928 0 1062 102 1062 261 
z
" transform="scale(0.015625)"/>
      </defs>
      <use xlink:href="#CMR17-50" transform="scale(0.996264)"/>
      <use xlink:href="#CMR17-61" transform="translate(59.983847 0) scale(0.996264)"/>
      <use xlink:href="#CMR17-75" transform="translate(105.674324 0) scale(0.996264)"/>
      <use xlink:href="#CMR17-6c" transform="translate(156.569693 0) scale(0.996264)"/>
      <use xlink:href="#CMR17-69" transform="translate(181.440752 0) scale(0.996264)"/>
      <use xlink:href="#CMR17-6e" transform="translate(206.31181 0) scale(0.996264)"/>
      <use xlink:href="#CMR17-67" transform="translate(257.20718 0) scale(0.996264)"/>
      <use xlink:href="#CMR17-2c" transform="translate(302.897657 0) scale(0.996264)"/>
      <use xlink:href="#CMR17-5a" transform="translate(357.844682 0) scale(0.996264)"/>
      <use xlink:href="#CMR17-3d" transform="translate(413.944853 0) scale(0.996264)"/>
      <use xlink:href="#CMR17-31" transform="translate(485.659642 0) scale(0.996264)"/>
      <use xlink:href="#CMR17-2e" transform="translate(531.350119 0) scale(0.996264)"/>
      <use xlink:href="#CMR17-35" transform="translate(556.221177 0) scale(0.996264)"/>
     </g>
    </g>
    <g id="line2d_84">
     <path d="M 131.274091 44.339358 
L 141.274091 44.339358 
L 151.274091 44.339358 
" style="fill: none; stroke-dasharray: 3.7,1.6; stroke-dashoffset: 0; stroke: #0c5da5"/>
    </g>
    <g id="text_14">
     <!-- FFL -->
     <g transform="translate(159.274091 47.839358) scale(0.1 -0.1)">
      <defs>
       <path id="CMR17-46" d="M 3482 4325 
L 326 4325 
L 326 4160 
C 768 4160 838 4160 838 3874 
L 838 446 
C 838 160 768 160 326 160 
L 326 0 
C 512 0 870 0 1069 0 
C 1331 0 1638 0 1901 0 
L 1901 160 
L 1760 160 
C 1274 160 1261 223 1261 452 
L 1261 2075 
L 1837 2075 
C 2432 2075 2490 1865 2490 1332 
L 2605 1332 
L 2605 2987 
L 2490 2987 
C 2490 2450 2432 2240 1837 2240 
L 1261 2240 
L 1261 3911 
C 1261 4128 1274 4160 1530 4160 
L 2355 4160 
C 3322 4160 3430 3765 3520 2916 
L 3635 2916 
L 3482 4325 
z
" transform="scale(0.015625)"/>
       <path id="CMR17-4c" d="M 3469 1615 
L 3354 1615 
C 3302 983 3219 166 2125 166 
L 1530 166 
C 1274 166 1261 197 1261 414 
L 1261 3898 
C 1261 4129 1274 4192 1760 4192 
L 1901 4192 
L 1901 4352 
C 1638 4352 1331 4352 1069 4352 
C 870 4352 512 4352 326 4352 
L 326 4192 
C 768 4192 838 4192 838 3905 
L 838 452 
C 838 166 768 166 326 166 
L 326 0 
L 3315 0 
L 3469 1615 
z
" transform="scale(0.015625)"/>
      </defs>
      <use xlink:href="#CMR17-46" transform="scale(0.996264)"/>
      <use xlink:href="#CMR17-46" transform="translate(59.983847 0) scale(0.996264)"/>
      <use xlink:href="#CMR17-4c" transform="translate(119.967693 0) scale(0.996264)"/>
     </g>
    </g>
    <g id="line2d_85">
     <path d="M 131.274091 58.276536 
L 141.274091 58.276536 
L 151.274091 58.276536 
" style="fill: none; stroke-dasharray: 2,3.3; stroke-dashoffset: 0; stroke: #00b945; stroke-width: 2"/>
    </g>
    <g id="text_15">
     <!-- Z=2.0 -->
     <g transform="translate(159.274091 61.776536) scale(0.1 -0.1)">
      <use xlink:href="#CMR17-5a" transform="scale(0.996264)"/>
      <use xlink:href="#CMR17-3d" transform="translate(56.100171 0) scale(0.996264)"/>
      <use xlink:href="#CMR17-32" transform="translate(127.81496 0) scale(0.996264)"/>
      <use xlink:href="#CMR17-2e" transform="translate(173.505437 0) scale(0.996264)"/>
      <use xlink:href="#CMR17-30" transform="translate(198.376495 0) scale(0.996264)"/>
     </g>
    </g>
    <g id="line2d_86">
     <path d="M 131.274091 72.213715 
L 141.274091 72.213715 
L 151.274091 72.213715 
" style="fill: none; stroke-dasharray: 2,3.3; stroke-dashoffset: 0; stroke: #ff9500; stroke-width: 2"/>
    </g>
    <g id="text_16">
     <!-- Z=2.5 -->
     <g transform="translate(159.274091 75.713715) scale(0.1 -0.1)">
      <use xlink:href="#CMR17-5a" transform="scale(0.996264)"/>
      <use xlink:href="#CMR17-3d" transform="translate(56.100171 0) scale(0.996264)"/>
      <use xlink:href="#CMR17-32" transform="translate(127.81496 0) scale(0.996264)"/>
      <use xlink:href="#CMR17-2e" transform="translate(173.505437 0) scale(0.996264)"/>
      <use xlink:href="#CMR17-35" transform="translate(198.376495 0) scale(0.996264)"/>
     </g>
    </g>
    <g id="line2d_87">
     <path d="M 131.274091 86.150893 
L 141.274091 86.150893 
L 151.274091 86.150893 
" style="fill: none; stroke-dasharray: 2,3.3; stroke-dashoffset: 0; stroke: #ff2c00; stroke-width: 2"/>
    </g>
    <g id="text_17">
     <!-- Z=3.0 -->
     <g transform="translate(159.274091 89.650893) scale(0.1 -0.1)">
      <defs>
       <path id="CMR17-33" d="M 1414 2157 
C 1984 2157 2234 1662 2234 1090 
C 2234 320 1824 25 1453 25 
C 1114 25 563 194 390 693 
C 422 680 454 680 486 680 
C 640 680 755 782 755 948 
C 755 1133 614 1216 486 1216 
C 378 1216 211 1165 211 926 
C 211 335 787 -128 1466 -128 
C 2176 -128 2720 430 2720 1085 
C 2720 1707 2208 2157 1600 2227 
C 2086 2328 2554 2756 2554 3329 
C 2554 3820 2048 4179 1472 4179 
C 890 4179 378 3829 378 3329 
C 378 3110 544 3072 627 3072 
C 762 3072 877 3155 877 3321 
C 877 3486 762 3569 627 3569 
C 602 3569 570 3569 544 3557 
C 730 3959 1235 4032 1459 4032 
C 1683 4032 2106 3925 2106 3320 
C 2106 3143 2080 2828 1862 2550 
C 1670 2304 1453 2304 1242 2284 
C 1210 2284 1062 2269 1037 2269 
C 992 2263 966 2257 966 2208 
C 966 2163 973 2157 1101 2157 
L 1414 2157 
z
" transform="scale(0.015625)"/>
      </defs>
      <use xlink:href="#CMR17-5a" transform="scale(0.996264)"/>
      <use xlink:href="#CMR17-3d" transform="translate(56.100171 0) scale(0.996264)"/>
      <use xlink:href="#CMR17-33" transform="translate(127.81496 0) scale(0.996264)"/>
      <use xlink:href="#CMR17-2e" transform="translate(173.505437 0) scale(0.996264)"/>
      <use xlink:href="#CMR17-30" transform="translate(198.376495 0) scale(0.996264)"/>
     </g>
    </g>
    <g id="line2d_88">
     <path d="M 131.274091 100.088071 
L 141.274091 100.088071 
L 151.274091 100.088071 
" style="fill: none; stroke-dasharray: 1,1.65; stroke-dashoffset: 0; stroke: #845b97"/>
    </g>
    <g id="text_18">
     <!-- Z=3.5 -->
     <g transform="translate(159.274091 103.588071) scale(0.1 -0.1)">
      <use xlink:href="#CMR17-5a" transform="scale(0.996264)"/>
      <use xlink:href="#CMR17-3d" transform="translate(56.100171 0) scale(0.996264)"/>
      <use xlink:href="#CMR17-33" transform="translate(127.81496 0) scale(0.996264)"/>
      <use xlink:href="#CMR17-2e" transform="translate(173.505437 0) scale(0.996264)"/>
      <use xlink:href="#CMR17-35" transform="translate(198.376495 0) scale(0.996264)"/>
     </g>
    </g>
   </g>
  </g>
 </g>
 <defs>
  <clipPath id="p286ec47bbc">
   <rect x="32.685756" y="17.90218" width="201.314244" height="141.081683"/>
  </clipPath>
 </defs>
</svg>
