<?xml version="1.0" encoding="utf-8" standalone="no"?>
<!DOCTYPE svg PUBLIC "-//W3C//DTD SVG 1.1//EN"
  "http://www.w3.org/Graphics/SVG/1.1/DTD/svg11.dtd">
<svg xmlns:xlink="http://www.w3.org/1999/xlink" width="237.6pt" height="188.90218pt" viewBox="0 0 237.6 188.90218" xmlns="http://www.w3.org/2000/svg" version="1.1">
 <metadata>
  <rdf:RDF xmlns:dc="http://purl.org/dc/elements/1.1/" xmlns:cc="http://creativecommons.org/ns#" xmlns:rdf="http://www.w3.org/1999/02/22-rdf-syntax-ns#">
   <cc:Work>
    <dc:type rdf:resource="http://purl.org/dc/dcmitype/StillImage"/>
    <dc:date>2026-04-16T07:22:22.919182</dc:date>
    <dc:format>image/svg+xml</dc:format>
    <dc:creator>
     <cc:Agent>
      <dc:title>Matplotlib v3.10.8, https://matplotlib.org/</dc:title>
     </cc:Agent>
    </dc:creator>
   </cc:Work>
  </rdf:RDF>
 </metadata>
 <defs>
  <style type="text/css">*{stroke-linejoin: round; stroke-linecap: butt}</style>
 </defs>
 <g id="figure_1">
  <g id="patch_1">
   <path d="M 0 188.90218 
L 237.6 188.90218 
L 237.6 0 
L 0 0 
z
" style="fill: #ffffff"/>
  </g>
  <g id="axes_1">
   <g id="patch_2">
    <path d="M 32.685756 158.983863 
L 234 158.983863 
L 234 17.90218 
L 32.685756 17.90218 
z
" style="fill: #ffffff"/>
   </g>
   <g id="matplotlib.axis_1">
    <g id="xtick_1">
     <g id="line2d_1">
      <defs>
       <path id="mc65a069e0f" d="M 0 0 
L 0 -3 
" style="stroke: #000000; stroke-width: 0.5"/>
      </defs>
      <g>
       <use xlink:href="#mc65a069e0f" x="41.836403" y="158.983863" style="stroke: #000000; stroke-width: 0.5"/>
      </g>
     </g>
     <g id="line2d_2">
      <defs>
       <path id="m84ef185cf5" d="M 0 0 
L 0 3 
" style="stroke: #000000; stroke-width: 0.5"/>
      </defs>
      <g>
       <use xlink:href="#m84ef185cf5" x="41.836403" y="17.90218" style="stroke: #000000; stroke-width: 0.5"/>
      </g>
     </g>
     <g id="text_1">
      <!-- $\mathdefault{0}$ -->
      <g transform="translate(39.345736 169.402361) scale(0.1 -0.1)">
       <defs>
        <path id="CMR17-30" d="M 2688 2025 
C 2688 2416 2682 3080 2413 3591 
C 2176 4039 1798 4198 1466 4198 
C 1158 4198 768 4058 525 3597 
C 269 3118 243 2524 243 2025 
C 243 1661 250 1106 448 619 
C 723 -39 1216 -128 1466 -128 
C 1760 -128 2208 -7 2470 600 
C 2662 1042 2688 1559 2688 2025 
z
M 1466 -26 
C 1056 -26 813 325 723 812 
C 653 1188 653 1738 653 2096 
C 653 2588 653 2997 736 3387 
C 858 3929 1216 4096 1466 4096 
C 1728 4096 2067 3923 2189 3400 
C 2272 3036 2278 2607 2278 2096 
C 2278 1680 2278 1169 2202 792 
C 2067 95 1690 -26 1466 -26 
z
" transform="scale(0.015625)"/>
       </defs>
       <use xlink:href="#CMR17-30" transform="scale(0.996264)"/>
      </g>
     </g>
    </g>
    <g id="xtick_2">
     <g id="line2d_3">
      <g>
       <use xlink:href="#mc65a069e0f" x="95.663741" y="158.983863" style="stroke: #000000; stroke-width: 0.5"/>
      </g>
     </g>
     <g id="line2d_4">
      <g>
       <use xlink:href="#m84ef185cf5" x="95.663741" y="17.90218" style="stroke: #000000; stroke-width: 0.5"/>
      </g>
     </g>
     <g id="text_2">
      <!-- $\mathdefault{5}$ -->
      <g transform="translate(93.173074 169.402361) scale(0.1 -0.1)">
       <defs>
        <path id="CMR17-35" d="M 730 3692 
C 794 3666 1056 3584 1325 3584 
C 1920 3584 2246 3911 2432 4100 
C 2432 4157 2432 4192 2394 4192 
C 2387 4192 2374 4192 2323 4163 
C 2099 4058 1837 3973 1517 3973 
C 1325 3973 1037 3999 723 4139 
C 653 4171 640 4171 634 4171 
C 602 4171 595 4164 595 4037 
L 595 2203 
C 595 2089 595 2057 659 2057 
C 691 2057 704 2070 736 2114 
C 941 2401 1222 2522 1542 2522 
C 1766 2522 2246 2382 2246 1289 
C 2246 1085 2246 715 2054 421 
C 1894 159 1645 25 1370 25 
C 947 25 518 320 403 814 
C 429 807 480 795 506 795 
C 589 795 749 840 749 1038 
C 749 1210 627 1280 506 1280 
C 358 1280 262 1190 262 1011 
C 262 454 704 -128 1382 -128 
C 2042 -128 2669 440 2669 1264 
C 2669 2030 2170 2624 1549 2624 
C 1222 2624 947 2503 730 2274 
L 730 3692 
z
" transform="scale(0.015625)"/>
       </defs>
       <use xlink:href="#CMR17-35" transform="scale(0.996264)"/>
      </g>
     </g>
    </g>
    <g id="xtick_3">
     <g id="line2d_5">
      <g>
       <use xlink:href="#mc65a069e0f" x="149.491079" y="158.983863" style="stroke: #000000; stroke-width: 0.5"/>
      </g>
     </g>
     <g id="line2d_6">
      <g>
       <use xlink:href="#m84ef185cf5" x="149.491079" y="17.90218" style="stroke: #000000; stroke-width: 0.5"/>
      </g>
     </g>
     <g id="text_3">
      <!-- $\mathdefault{10}$ -->
      <g transform="translate(144.509744 169.402361) scale(0.1 -0.1)">
       <defs>
        <path id="CMR17-31" d="M 1702 4058 
C 1702 4192 1696 4192 1606 4192 
C 1357 3916 979 3827 621 3827 
C 602 3827 570 3827 563 3808 
C 557 3795 557 3782 557 3648 
C 755 3648 1088 3686 1344 3839 
L 1344 461 
C 1344 236 1331 160 781 160 
L 589 160 
L 589 0 
C 896 0 1216 0 1523 0 
C 1830 0 2150 0 2458 0 
L 2458 160 
L 2266 160 
C 1715 160 1702 230 1702 458 
L 1702 4058 
z
" transform="scale(0.015625)"/>
       </defs>
       <use xlink:href="#CMR17-31" transform="scale(0.996264)"/>
       <use xlink:href="#CMR17-30" transform="translate(45.690477 0) scale(0.996264)"/>
      </g>
     </g>
    </g>
    <g id="xtick_4">
     <g id="line2d_7">
      <g>
       <use xlink:href="#mc65a069e0f" x="203.318417" y="158.983863" style="stroke: #000000; stroke-width: 0.5"/>
      </g>
     </g>
     <g id="line2d_8">
      <g>
       <use xlink:href="#m84ef185cf5" x="203.318417" y="17.90218" style="stroke: #000000; stroke-width: 0.5"/>
      </g>
     </g>
     <g id="text_4">
      <!-- $\mathdefault{15}$ -->
      <g transform="translate(198.337082 169.402361) scale(0.1 -0.1)">
       <use xlink:href="#CMR17-31" transform="scale(0.996264)"/>
       <use xlink:href="#CMR17-35" transform="translate(45.690477 0) scale(0.996264)"/>
      </g>
     </g>
    </g>
    <g id="xtick_5">
     <g id="line2d_9">
      <defs>
       <path id="me8a7055f75" d="M 0 0 
L 0 -1.5 
" style="stroke: #000000; stroke-width: 0.5"/>
      </defs>
      <g>
       <use xlink:href="#me8a7055f75" x="52.601871" y="158.983863" style="stroke: #000000; stroke-width: 0.5"/>
      </g>
     </g>
     <g id="line2d_10">
      <defs>
       <path id="m99cdc58144" d="M 0 0 
L 0 1.5 
" style="stroke: #000000; stroke-width: 0.5"/>
      </defs>
      <g>
       <use xlink:href="#m99cdc58144" x="52.601871" y="17.90218" style="stroke: #000000; stroke-width: 0.5"/>
      </g>
     </g>
    </g>
    <g id="xtick_6">
     <g id="line2d_11">
      <g>
       <use xlink:href="#me8a7055f75" x="63.367338" y="158.983863" style="stroke: #000000; stroke-width: 0.5"/>
      </g>
     </g>
     <g id="line2d_12">
      <g>
       <use xlink:href="#m99cdc58144" x="63.367338" y="17.90218" style="stroke: #000000; stroke-width: 0.5"/>
      </g>
     </g>
    </g>
    <g id="xtick_7">
     <g id="line2d_13">
      <g>
       <use xlink:href="#me8a7055f75" x="74.132806" y="158.983863" style="stroke: #000000; stroke-width: 0.5"/>
      </g>
     </g>
     <g id="line2d_14">
      <g>
       <use xlink:href="#m99cdc58144" x="74.132806" y="17.90218" style="stroke: #000000; stroke-width: 0.5"/>
      </g>
     </g>
    </g>
    <g id="xtick_8">
     <g id="line2d_15">
      <g>
       <use xlink:href="#me8a7055f75" x="84.898274" y="158.983863" style="stroke: #000000; stroke-width: 0.5"/>
      </g>
     </g>
     <g id="line2d_16">
      <g>
       <use xlink:href="#m99cdc58144" x="84.898274" y="17.90218" style="stroke: #000000; stroke-width: 0.5"/>
      </g>
     </g>
    </g>
    <g id="xtick_9">
     <g id="line2d_17">
      <g>
       <use xlink:href="#me8a7055f75" x="106.429209" y="158.983863" style="stroke: #000000; stroke-width: 0.5"/>
      </g>
     </g>
     <g id="line2d_18">
      <g>
       <use xlink:href="#m99cdc58144" x="106.429209" y="17.90218" style="stroke: #000000; stroke-width: 0.5"/>
      </g>
     </g>
    </g>
    <g id="xtick_10">
     <g id="line2d_19">
      <g>
       <use xlink:href="#me8a7055f75" x="117.194676" y="158.983863" style="stroke: #000000; stroke-width: 0.5"/>
      </g>
     </g>
     <g id="line2d_20">
      <g>
       <use xlink:href="#m99cdc58144" x="117.194676" y="17.90218" style="stroke: #000000; stroke-width: 0.5"/>
      </g>
     </g>
    </g>
    <g id="xtick_11">
     <g id="line2d_21">
      <g>
       <use xlink:href="#me8a7055f75" x="127.960144" y="158.983863" style="stroke: #000000; stroke-width: 0.5"/>
      </g>
     </g>
     <g id="line2d_22">
      <g>
       <use xlink:href="#m99cdc58144" x="127.960144" y="17.90218" style="stroke: #000000; stroke-width: 0.5"/>
      </g>
     </g>
    </g>
    <g id="xtick_12">
     <g id="line2d_23">
      <g>
       <use xlink:href="#me8a7055f75" x="138.725612" y="158.983863" style="stroke: #000000; stroke-width: 0.5"/>
      </g>
     </g>
     <g id="line2d_24">
      <g>
       <use xlink:href="#m99cdc58144" x="138.725612" y="17.90218" style="stroke: #000000; stroke-width: 0.5"/>
      </g>
     </g>
    </g>
    <g id="xtick_13">
     <g id="line2d_25">
      <g>
       <use xlink:href="#me8a7055f75" x="160.256547" y="158.983863" style="stroke: #000000; stroke-width: 0.5"/>
      </g>
     </g>
     <g id="line2d_26">
      <g>
       <use xlink:href="#m99cdc58144" x="160.256547" y="17.90218" style="stroke: #000000; stroke-width: 0.5"/>
      </g>
     </g>
    </g>
    <g id="xtick_14">
     <g id="line2d_27">
      <g>
       <use xlink:href="#me8a7055f75" x="171.022014" y="158.983863" style="stroke: #000000; stroke-width: 0.5"/>
      </g>
     </g>
     <g id="line2d_28">
      <g>
       <use xlink:href="#m99cdc58144" x="171.022014" y="17.90218" style="stroke: #000000; stroke-width: 0.5"/>
      </g>
     </g>
    </g>
    <g id="xtick_15">
     <g id="line2d_29">
      <g>
       <use xlink:href="#me8a7055f75" x="181.787482" y="158.983863" style="stroke: #000000; stroke-width: 0.5"/>
      </g>
     </g>
     <g id="line2d_30">
      <g>
       <use xlink:href="#m99cdc58144" x="181.787482" y="17.90218" style="stroke: #000000; stroke-width: 0.5"/>
      </g>
     </g>
    </g>
    <g id="xtick_16">
     <g id="line2d_31">
      <g>
       <use xlink:href="#me8a7055f75" x="192.55295" y="158.983863" style="stroke: #000000; stroke-width: 0.5"/>
      </g>
     </g>
     <g id="line2d_32">
      <g>
       <use xlink:href="#m99cdc58144" x="192.55295" y="17.90218" style="stroke: #000000; stroke-width: 0.5"/>
      </g>
     </g>
    </g>
    <g id="xtick_17">
     <g id="line2d_33">
      <g>
       <use xlink:href="#me8a7055f75" x="214.083885" y="158.983863" style="stroke: #000000; stroke-width: 0.5"/>
      </g>
     </g>
     <g id="line2d_34">
      <g>
       <use xlink:href="#m99cdc58144" x="214.083885" y="17.90218" style="stroke: #000000; stroke-width: 0.5"/>
      </g>
     </g>
    </g>
    <g id="xtick_18">
     <g id="line2d_35">
      <g>
       <use xlink:href="#me8a7055f75" x="224.849353" y="158.983863" style="stroke: #000000; stroke-width: 0.5"/>
      </g>
     </g>
     <g id="line2d_36">
      <g>
       <use xlink:href="#m99cdc58144" x="224.849353" y="17.90218" style="stroke: #000000; stroke-width: 0.5"/>
      </g>
     </g>
    </g>
    <g id="text_5">
     <!-- $k$ [1/angstrom] -->
     <g transform="translate(100.940005 182.81152) scale(0.1 -0.1)">
      <defs>
       <path id="CMMI12-6b" d="M 1798 4257 
C 1805 4283 1818 4321 1818 4352 
C 1818 4416 1754 4416 1741 4416 
C 1734 4416 1504 4393 1389 4377 
C 1280 4377 1184 4358 1069 4358 
C 915 4345 870 4339 870 4224 
C 870 4160 934 4160 998 4160 
C 1325 4160 1325 4103 1325 4040 
C 1325 4015 1325 4002 1293 3888 
L 378 248 
C 352 152 352 140 352 101 
C 352 -38 461 -64 525 -64 
C 704 -64 742 77 794 275 
L 1094 1469 
C 1555 1418 1830 1226 1830 920 
C 1830 881 1830 856 1811 760 
C 1786 664 1786 588 1786 556 
C 1786 185 2029 -64 2355 -64 
C 2650 -64 2803 204 2854 294 
C 2989 530 3072 888 3072 913 
C 3072 945 3046 971 3008 971 
C 2950 971 2944 945 2918 843 
C 2829 511 2694 64 2368 64 
C 2240 64 2157 128 2157 370 
C 2157 492 2182 632 2208 728 
C 2234 843 2234 849 2234 926 
C 2234 1303 1894 1514 1306 1590 
C 1536 1731 1766 1980 1856 2076 
C 2221 2484 2470 2689 2765 2689 
C 2912 2689 2950 2650 2995 2612 
C 2758 2586 2669 2420 2669 2293 
C 2669 2139 2790 2088 2880 2088 
C 3053 2088 3206 2235 3206 2440 
C 3206 2625 3059 2816 2771 2816 
C 2419 2816 2131 2567 1677 2056 
C 1613 1980 1376 1737 1139 1648 
L 1798 4257 
z
" transform="scale(0.015625)"/>
       <path id="CMR17-5b" d="M 1504 -1600 
L 1504 -1377 
L 902 -1377 
L 902 4544 
L 1504 4544 
L 1504 4767 
L 678 4767 
L 678 -1600 
L 1504 -1600 
z
" transform="scale(0.015625)"/>
       <path id="CMR17-2f" d="M 2605 4545 
C 2637 4627 2637 4640 2637 4653 
C 2637 4729 2579 4768 2528 4768 
C 2451 4768 2426 4717 2400 4640 
L 326 -1377 
C 294 -1460 294 -1473 294 -1486 
C 294 -1562 352 -1600 403 -1600 
C 480 -1600 506 -1549 531 -1473 
L 2605 4545 
z
" transform="scale(0.015625)"/>
       <path id="CMR17-61" d="M 2304 1653 
C 2304 2072 2304 2294 2035 2543 
C 1798 2752 1523 2816 1306 2816 
C 800 2816 435 2407 435 1971 
C 435 1728 627 1728 666 1728 
C 749 1728 896 1778 896 1954 
C 896 2112 774 2181 666 2181 
C 640 2181 608 2174 589 2168 
C 723 2592 1069 2714 1293 2714 
C 1613 2714 1965 2429 1965 1885 
L 1965 1600 
C 1587 1600 1133 1549 774 1357 
C 371 1133 256 813 256 570 
C 256 77 832 -64 1171 -64 
C 1523 -64 1850 139 1990 511 
C 2003 233 2182 -18 2464 -18 
C 2598 -18 2938 70 2938 567 
L 2938 920 
L 2822 920 
L 2822 562 
C 2822 178 2650 128 2566 128 
C 2304 128 2304 458 2304 738 
L 2304 1653 
z
M 1965 870 
C 1965 317 1568 38 1216 38 
C 896 38 646 275 646 570 
C 646 761 730 1100 1101 1305 
C 1408 1478 1760 1504 1965 1504 
L 1965 870 
z
" transform="scale(0.015625)"/>
       <path id="CMR17-6e" d="M 2656 1933 
C 2656 2259 2592 2790 1837 2790 
C 1331 2790 1069 2400 973 2144 
L 966 2144 
L 966 2790 
L 211 2720 
L 211 2554 
C 589 2554 646 2515 646 2208 
L 646 428 
C 646 184 621 153 211 153 
L 211 -13 
C 365 0 646 0 813 0 
C 979 0 1267 0 1421 -13 
L 1421 153 
C 1011 153 986 178 986 428 
L 986 1658 
C 986 2247 1344 2688 1792 2688 
C 2266 2688 2317 2266 2317 1958 
L 2317 428 
C 2317 184 2291 153 1882 153 
L 1882 -13 
C 2035 0 2317 0 2483 0 
C 2650 0 2938 0 3091 -13 
L 3091 153 
C 2682 153 2656 178 2656 428 
L 2656 1933 
z
" transform="scale(0.015625)"/>
       <path id="CMR17-67" d="M 710 1164 
C 832 1068 1043 960 1299 960 
C 1805 960 2240 1357 2240 1888 
C 2240 2054 2189 2310 1997 2509 
C 2176 2692 2438 2752 2586 2752 
C 2611 2752 2650 2752 2682 2734 
C 2656 2728 2598 2703 2598 2605 
C 2598 2527 2656 2471 2739 2471 
C 2835 2471 2886 2533 2886 2614 
C 2886 2731 2790 2854 2586 2854 
C 2330 2854 2106 2738 1926 2580 
C 1734 2753 1504 2816 1299 2816 
C 794 2816 358 2419 358 1888 
C 358 1522 570 1292 634 1228 
C 442 1004 442 743 442 711 
C 442 545 506 302 723 168 
C 390 85 128 -169 128 -486 
C 128 -943 736 -1280 1466 -1280 
C 2170 -1280 2803 -956 2803 -479 
C 2803 384 1856 384 1363 384 
C 1216 384 954 384 922 391 
C 723 423 589 602 589 826 
C 589 883 589 1024 710 1164 
z
M 1299 1068 
C 736 1068 736 1760 736 1889 
C 736 2016 736 2708 1299 2708 
C 1862 2708 1862 2016 1862 1889 
C 1862 1760 1862 1068 1299 1068 
z
M 1466 -1171 
C 826 -1171 384 -835 384 -486 
C 384 -289 493 -105 634 -4 
C 794 104 858 104 1293 104 
C 1818 104 2547 104 2547 -486 
C 2547 -835 2106 -1171 1466 -1171 
z
" transform="scale(0.015625)"/>
       <path id="CMR17-73" d="M 1978 2697 
C 1978 2813 1971 2819 1933 2819 
C 1907 2819 1901 2813 1824 2717 
C 1805 2691 1747 2626 1728 2601 
C 1523 2819 1235 2819 1126 2819 
C 416 2819 160 2447 160 2076 
C 160 1498 813 1365 998 1325 
C 1402 1243 1542 1217 1677 1101 
C 1760 1025 1901 884 1901 654 
C 1901 384 1747 38 1158 38 
C 602 38 403 460 288 1021 
C 269 1110 269 1117 218 1117 
C 166 1117 160 1110 160 983 
L 160 63 
C 160 -51 166 -58 205 -58 
C 237 -58 243 -51 275 0 
C 314 57 410 211 448 276 
C 576 103 800 -64 1158 -64 
C 1792 -64 2131 283 2131 784 
C 2131 1112 1958 1285 1875 1362 
C 1683 1561 1459 1606 1190 1657 
C 838 1735 390 1825 390 2217 
C 390 2383 480 2737 1126 2737 
C 1811 2737 1850 2094 1862 1888 
C 1869 1856 1901 1849 1920 1849 
C 1978 1849 1978 1869 1978 1978 
L 1978 2697 
z
" transform="scale(0.015625)"/>
       <path id="CMR17-74" d="M 966 2560 
L 1862 2560 
L 1862 2725 
L 966 2725 
L 966 3904 
L 851 3904 
C 838 3245 614 2668 70 2668 
L 70 2560 
L 627 2560 
L 627 771 
C 627 650 627 -64 1370 -64 
C 1747 -64 1965 306 1965 777 
L 1965 1140 
L 1850 1140 
L 1850 783 
C 1850 344 1677 51 1408 51 
C 1222 51 966 178 966 758 
L 966 2560 
z
" transform="scale(0.015625)"/>
       <path id="CMR17-72" d="M 960 1497 
C 960 2112 1222 2688 1702 2688 
C 1747 2688 1792 2682 1837 2662 
C 1837 2662 1696 2617 1696 2452 
C 1696 2298 1818 2234 1914 2234 
C 1990 2234 2131 2279 2131 2458 
C 2131 2663 1926 2790 1709 2790 
C 1222 2790 1011 2317 947 2093 
L 941 2093 
L 941 2790 
L 198 2720 
L 198 2554 
C 576 2554 634 2515 634 2208 
L 634 428 
C 634 184 608 153 198 153 
L 198 -13 
C 352 0 646 0 813 0 
C 998 0 1325 0 1498 -13 
L 1498 153 
C 1037 153 960 153 960 440 
L 960 1497 
z
" transform="scale(0.015625)"/>
       <path id="CMR17-6f" d="M 2758 1356 
C 2758 2176 2163 2816 1466 2816 
C 768 2816 173 2176 173 1356 
C 173 551 768 -64 1466 -64 
C 2163 -64 2758 551 2758 1356 
z
M 1466 51 
C 1165 51 909 230 762 480 
C 602 767 582 1126 582 1408 
C 582 1677 595 2010 762 2298 
C 890 2509 1139 2714 1466 2714 
C 1754 2714 1997 2554 2150 2330 
C 2349 2029 2349 1607 2349 1408 
C 2349 1158 2336 775 2163 467 
C 1984 173 1709 51 1466 51 
z
" transform="scale(0.015625)"/>
       <path id="CMR17-6d" d="M 4326 1933 
C 4326 2252 4269 2790 3507 2790 
C 3072 2790 2771 2496 2656 2151 
L 2650 2151 
C 2573 2676 2195 2790 1837 2790 
C 1331 2790 1069 2400 973 2144 
L 966 2144 
L 966 2790 
L 211 2720 
L 211 2554 
C 589 2554 646 2515 646 2208 
L 646 428 
C 646 184 621 153 211 153 
L 211 -13 
C 365 0 646 0 813 0 
C 979 0 1267 0 1421 -13 
L 1421 153 
C 1011 153 986 178 986 428 
L 986 1658 
C 986 2247 1344 2688 1792 2688 
C 2266 2688 2317 2266 2317 1958 
L 2317 428 
C 2317 184 2291 153 1882 153 
L 1882 -13 
C 2035 0 2317 0 2483 0 
C 2650 0 2938 0 3091 -13 
L 3091 153 
C 2682 153 2656 178 2656 428 
L 2656 1658 
C 2656 2247 3014 2688 3462 2688 
C 3936 2688 3987 2266 3987 1958 
L 3987 428 
C 3987 184 3962 153 3552 153 
L 3552 -13 
C 3706 0 3987 0 4154 0 
C 4320 0 4608 0 4762 -13 
L 4762 153 
C 4352 153 4326 178 4326 428 
L 4326 1933 
z
" transform="scale(0.015625)"/>
       <path id="CMR17-5d" d="M 915 4767 
L 90 4767 
L 90 4544 
L 691 4544 
L 691 -1377 
L 90 -1377 
L 90 -1600 
L 915 -1600 
L 915 4767 
z
" transform="scale(0.015625)"/>
      </defs>
      <use xlink:href="#CMMI12-6b" transform="scale(0.996264)"/>
      <use xlink:href="#CMR17-5b" transform="translate(84.155167 0) scale(0.996264)"/>
      <use xlink:href="#CMR17-31" transform="translate(109.026226 0) scale(0.996264)"/>
      <use xlink:href="#CMR17-2f" transform="translate(154.716703 0) scale(0.996264)"/>
      <use xlink:href="#CMR17-61" transform="translate(200.40718 0) scale(0.996264)"/>
      <use xlink:href="#CMR17-6e" transform="translate(246.097657 0) scale(0.996264)"/>
      <use xlink:href="#CMR17-67" transform="translate(296.993027 0) scale(0.996264)"/>
      <use xlink:href="#CMR17-73" transform="translate(342.683504 0) scale(0.996264)"/>
      <use xlink:href="#CMR17-74" transform="translate(378.484841 0) scale(0.996264)"/>
      <use xlink:href="#CMR17-72" transform="translate(413.765609 0) scale(0.996264)"/>
      <use xlink:href="#CMR17-6f" transform="translate(449.046377 0) scale(0.996264)"/>
      <use xlink:href="#CMR17-6d" transform="translate(494.736854 0) scale(0.996264)"/>
      <use xlink:href="#CMR17-5d" transform="translate(571.656444 0) scale(0.996264)"/>
     </g>
    </g>
   </g>
   <g id="matplotlib.axis_2">
    <g id="ytick_1">
     <g id="line2d_37">
      <defs>
       <path id="m8751799ec4" d="M 0 0 
L 3 0 
" style="stroke: #000000; stroke-width: 0.5"/>
      </defs>
      <g>
       <use xlink:href="#m8751799ec4" x="32.685756" y="157.771596" style="stroke: #000000; stroke-width: 0.5"/>
      </g>
     </g>
     <g id="line2d_38">
      <defs>
       <path id="mb8a68cf8e1" d="M 0 0 
L -3 0 
" style="stroke: #000000; stroke-width: 0.5"/>
      </defs>
      <g>
       <use xlink:href="#mb8a68cf8e1" x="234" y="157.771596" style="stroke: #000000; stroke-width: 0.5"/>
      </g>
     </g>
     <g id="text_6">
      <!-- $\mathdefault{0.0}$ -->
      <g transform="translate(16.455677 161.230845) scale(0.1 -0.1)">
       <defs>
        <path id="CMMI12-3a" d="M 1178 307 
C 1178 492 1024 619 870 619 
C 685 619 557 466 557 313 
C 557 128 710 0 864 0 
C 1050 0 1178 153 1178 307 
z
" transform="scale(0.015625)"/>
       </defs>
       <use xlink:href="#CMR17-30" transform="scale(0.996264)"/>
       <use xlink:href="#CMMI12-3a" transform="translate(45.690477 0) scale(0.996264)"/>
       <use xlink:href="#CMR17-30" transform="translate(72.787654 0) scale(0.996264)"/>
      </g>
     </g>
    </g>
    <g id="ytick_2">
     <g id="line2d_39">
      <g>
       <use xlink:href="#m8751799ec4" x="32.685756" y="131.080273" style="stroke: #000000; stroke-width: 0.5"/>
      </g>
     </g>
     <g id="line2d_40">
      <g>
       <use xlink:href="#mb8a68cf8e1" x="234" y="131.080273" style="stroke: #000000; stroke-width: 0.5"/>
      </g>
     </g>
     <g id="text_7">
      <!-- $\mathdefault{0.2}$ -->
      <g transform="translate(16.455677 134.539522) scale(0.1 -0.1)">
       <defs>
        <path id="CMR17-32" d="M 2669 989 
L 2554 989 
C 2490 536 2438 459 2413 420 
C 2381 369 1920 369 1830 369 
L 602 369 
C 832 619 1280 1072 1824 1597 
C 2214 1967 2669 2402 2669 3035 
C 2669 3790 2067 4224 1395 4224 
C 691 4224 262 3604 262 3030 
C 262 2780 448 2748 525 2748 
C 589 2748 781 2787 781 3010 
C 781 3207 614 3264 525 3264 
C 486 3264 448 3258 422 3245 
C 544 3790 915 4058 1306 4058 
C 1862 4058 2227 3617 2227 3035 
C 2227 2479 1901 2000 1536 1584 
L 262 146 
L 262 0 
L 2515 0 
L 2669 989 
z
" transform="scale(0.015625)"/>
       </defs>
       <use xlink:href="#CMR17-30" transform="scale(0.996264)"/>
       <use xlink:href="#CMMI12-3a" transform="translate(45.690477 0) scale(0.996264)"/>
       <use xlink:href="#CMR17-32" transform="translate(72.787654 0) scale(0.996264)"/>
      </g>
     </g>
    </g>
    <g id="ytick_3">
     <g id="line2d_41">
      <g>
       <use xlink:href="#m8751799ec4" x="32.685756" y="104.388951" style="stroke: #000000; stroke-width: 0.5"/>
      </g>
     </g>
     <g id="line2d_42">
      <g>
       <use xlink:href="#mb8a68cf8e1" x="234" y="104.388951" style="stroke: #000000; stroke-width: 0.5"/>
      </g>
     </g>
     <g id="text_8">
      <!-- $\mathdefault{0.4}$ -->
      <g transform="translate(16.455677 107.8482) scale(0.1 -0.1)">
       <defs>
        <path id="CMR17-34" d="M 2150 4122 
C 2150 4256 2144 4256 2029 4256 
L 128 1254 
L 128 1088 
L 1779 1088 
L 1779 457 
C 1779 224 1766 160 1318 160 
L 1197 160 
L 1197 0 
C 1402 0 1747 0 1965 0 
C 2182 0 2528 0 2733 0 
L 2733 160 
L 2611 160 
C 2163 160 2150 224 2150 457 
L 2150 1088 
L 2803 1088 
L 2803 1254 
L 2150 1254 
L 2150 4122 
z
M 1798 3703 
L 1798 1254 
L 256 1254 
L 1798 3703 
z
" transform="scale(0.015625)"/>
       </defs>
       <use xlink:href="#CMR17-30" transform="scale(0.996264)"/>
       <use xlink:href="#CMMI12-3a" transform="translate(45.690477 0) scale(0.996264)"/>
       <use xlink:href="#CMR17-34" transform="translate(72.787654 0) scale(0.996264)"/>
      </g>
     </g>
    </g>
    <g id="ytick_4">
     <g id="line2d_43">
      <g>
       <use xlink:href="#m8751799ec4" x="32.685756" y="77.697628" style="stroke: #000000; stroke-width: 0.5"/>
      </g>
     </g>
     <g id="line2d_44">
      <g>
       <use xlink:href="#mb8a68cf8e1" x="234" y="77.697628" style="stroke: #000000; stroke-width: 0.5"/>
      </g>
     </g>
     <g id="text_9">
      <!-- $\mathdefault{0.6}$ -->
      <g transform="translate(16.455677 81.156878) scale(0.1 -0.1)">
       <defs>
        <path id="CMR17-36" d="M 678 2176 
C 678 3690 1395 4032 1811 4032 
C 1946 4032 2272 4009 2400 3776 
C 2298 3776 2106 3776 2106 3553 
C 2106 3381 2246 3323 2336 3323 
C 2394 3323 2566 3348 2566 3560 
C 2566 3954 2246 4179 1805 4179 
C 1043 4179 243 3390 243 1984 
C 243 253 966 -128 1478 -128 
C 2099 -128 2688 427 2688 1283 
C 2688 2081 2170 2662 1517 2662 
C 1126 2662 838 2407 678 1960 
L 678 2176 
z
M 1478 25 
C 691 25 691 1200 691 1436 
C 691 1896 909 2560 1504 2560 
C 1613 2560 1926 2560 2138 2120 
C 2253 1870 2253 1609 2253 1289 
C 2253 944 2253 690 2118 434 
C 1978 171 1773 25 1478 25 
z
" transform="scale(0.015625)"/>
       </defs>
       <use xlink:href="#CMR17-30" transform="scale(0.996264)"/>
       <use xlink:href="#CMMI12-3a" transform="translate(45.690477 0) scale(0.996264)"/>
       <use xlink:href="#CMR17-36" transform="translate(72.787654 0) scale(0.996264)"/>
      </g>
     </g>
    </g>
    <g id="ytick_5">
     <g id="line2d_45">
      <g>
       <use xlink:href="#m8751799ec4" x="32.685756" y="51.006306" style="stroke: #000000; stroke-width: 0.5"/>
      </g>
     </g>
     <g id="line2d_46">
      <g>
       <use xlink:href="#mb8a68cf8e1" x="234" y="51.006306" style="stroke: #000000; stroke-width: 0.5"/>
      </g>
     </g>
     <g id="text_10">
      <!-- $\mathdefault{0.8}$ -->
      <g transform="translate(16.455677 54.465555) scale(0.1 -0.1)">
       <defs>
        <path id="CMR17-38" d="M 1741 2264 
C 2144 2467 2554 2773 2554 3263 
C 2554 3841 1990 4179 1472 4179 
C 890 4179 378 3759 378 3180 
C 378 3021 416 2747 666 2505 
C 730 2442 998 2251 1171 2130 
C 883 1983 211 1634 211 934 
C 211 279 838 -128 1459 -128 
C 2144 -128 2720 362 2720 1010 
C 2720 1590 2330 1857 2074 2029 
L 1741 2264 
z
M 902 2822 
C 851 2854 595 3051 595 3351 
C 595 3739 998 4032 1459 4032 
C 1965 4032 2336 3676 2336 3262 
C 2336 2669 1670 2331 1638 2331 
C 1632 2331 1626 2331 1574 2370 
L 902 2822 
z
M 2080 1519 
C 2176 1449 2483 1240 2483 851 
C 2483 381 2010 25 1472 25 
C 890 25 448 438 448 940 
C 448 1443 838 1862 1280 2060 
L 2080 1519 
z
" transform="scale(0.015625)"/>
       </defs>
       <use xlink:href="#CMR17-30" transform="scale(0.996264)"/>
       <use xlink:href="#CMMI12-3a" transform="translate(45.690477 0) scale(0.996264)"/>
       <use xlink:href="#CMR17-38" transform="translate(72.787654 0) scale(0.996264)"/>
      </g>
     </g>
    </g>
    <g id="ytick_6">
     <g id="line2d_47">
      <g>
       <use xlink:href="#m8751799ec4" x="32.685756" y="24.314984" style="stroke: #000000; stroke-width: 0.5"/>
      </g>
     </g>
     <g id="line2d_48">
      <g>
       <use xlink:href="#mb8a68cf8e1" x="234" y="24.314984" style="stroke: #000000; stroke-width: 0.5"/>
      </g>
     </g>
     <g id="text_11">
      <!-- $\mathdefault{1.0}$ -->
      <g transform="translate(16.455677 27.774233) scale(0.1 -0.1)">
       <use xlink:href="#CMR17-31" transform="scale(0.996264)"/>
       <use xlink:href="#CMMI12-3a" transform="translate(45.690477 0) scale(0.996264)"/>
       <use xlink:href="#CMR17-30" transform="translate(72.787654 0) scale(0.996264)"/>
      </g>
     </g>
    </g>
    <g id="ytick_7">
     <g id="line2d_49">
      <defs>
       <path id="me95d335257" d="M 0 0 
L 1.5 0 
" style="stroke: #000000; stroke-width: 0.5"/>
      </defs>
      <g>
       <use xlink:href="#me95d335257" x="32.685756" y="151.098765" style="stroke: #000000; stroke-width: 0.5"/>
      </g>
     </g>
     <g id="line2d_50">
      <defs>
       <path id="mcbf4fc96f4" d="M 0 0 
L -1.5 0 
" style="stroke: #000000; stroke-width: 0.5"/>
      </defs>
      <g>
       <use xlink:href="#mcbf4fc96f4" x="234" y="151.098765" style="stroke: #000000; stroke-width: 0.5"/>
      </g>
     </g>
    </g>
    <g id="ytick_8">
     <g id="line2d_51">
      <g>
       <use xlink:href="#me95d335257" x="32.685756" y="144.425934" style="stroke: #000000; stroke-width: 0.5"/>
      </g>
     </g>
     <g id="line2d_52">
      <g>
       <use xlink:href="#mcbf4fc96f4" x="234" y="144.425934" style="stroke: #000000; stroke-width: 0.5"/>
      </g>
     </g>
    </g>
    <g id="ytick_9">
     <g id="line2d_53">
      <g>
       <use xlink:href="#me95d335257" x="32.685756" y="137.753104" style="stroke: #000000; stroke-width: 0.5"/>
      </g>
     </g>
     <g id="line2d_54">
      <g>
       <use xlink:href="#mcbf4fc96f4" x="234" y="137.753104" style="stroke: #000000; stroke-width: 0.5"/>
      </g>
     </g>
    </g>
    <g id="ytick_10">
     <g id="line2d_55">
      <g>
       <use xlink:href="#me95d335257" x="32.685756" y="124.407443" style="stroke: #000000; stroke-width: 0.5"/>
      </g>
     </g>
     <g id="line2d_56">
      <g>
       <use xlink:href="#mcbf4fc96f4" x="234" y="124.407443" style="stroke: #000000; stroke-width: 0.5"/>
      </g>
     </g>
    </g>
    <g id="ytick_11">
     <g id="line2d_57">
      <g>
       <use xlink:href="#me95d335257" x="32.685756" y="117.734612" style="stroke: #000000; stroke-width: 0.5"/>
      </g>
     </g>
     <g id="line2d_58">
      <g>
       <use xlink:href="#mcbf4fc96f4" x="234" y="117.734612" style="stroke: #000000; stroke-width: 0.5"/>
      </g>
     </g>
    </g>
    <g id="ytick_12">
     <g id="line2d_59">
      <g>
       <use xlink:href="#me95d335257" x="32.685756" y="111.061781" style="stroke: #000000; stroke-width: 0.5"/>
      </g>
     </g>
     <g id="line2d_60">
      <g>
       <use xlink:href="#mcbf4fc96f4" x="234" y="111.061781" style="stroke: #000000; stroke-width: 0.5"/>
      </g>
     </g>
    </g>
    <g id="ytick_13">
     <g id="line2d_61">
      <g>
       <use xlink:href="#me95d335257" x="32.685756" y="97.71612" style="stroke: #000000; stroke-width: 0.5"/>
      </g>
     </g>
     <g id="line2d_62">
      <g>
       <use xlink:href="#mcbf4fc96f4" x="234" y="97.71612" style="stroke: #000000; stroke-width: 0.5"/>
      </g>
     </g>
    </g>
    <g id="ytick_14">
     <g id="line2d_63">
      <g>
       <use xlink:href="#me95d335257" x="32.685756" y="91.04329" style="stroke: #000000; stroke-width: 0.5"/>
      </g>
     </g>
     <g id="line2d_64">
      <g>
       <use xlink:href="#mcbf4fc96f4" x="234" y="91.04329" style="stroke: #000000; stroke-width: 0.5"/>
      </g>
     </g>
    </g>
    <g id="ytick_15">
     <g id="line2d_65">
      <g>
       <use xlink:href="#me95d335257" x="32.685756" y="84.370459" style="stroke: #000000; stroke-width: 0.5"/>
      </g>
     </g>
     <g id="line2d_66">
      <g>
       <use xlink:href="#mcbf4fc96f4" x="234" y="84.370459" style="stroke: #000000; stroke-width: 0.5"/>
      </g>
     </g>
    </g>
    <g id="ytick_16">
     <g id="line2d_67">
      <g>
       <use xlink:href="#me95d335257" x="32.685756" y="71.024798" style="stroke: #000000; stroke-width: 0.5"/>
      </g>
     </g>
     <g id="line2d_68">
      <g>
       <use xlink:href="#mcbf4fc96f4" x="234" y="71.024798" style="stroke: #000000; stroke-width: 0.5"/>
      </g>
     </g>
    </g>
    <g id="ytick_17">
     <g id="line2d_69">
      <g>
       <use xlink:href="#me95d335257" x="32.685756" y="64.351967" style="stroke: #000000; stroke-width: 0.5"/>
      </g>
     </g>
     <g id="line2d_70">
      <g>
       <use xlink:href="#mcbf4fc96f4" x="234" y="64.351967" style="stroke: #000000; stroke-width: 0.5"/>
      </g>
     </g>
    </g>
    <g id="ytick_18">
     <g id="line2d_71">
      <g>
       <use xlink:href="#me95d335257" x="32.685756" y="57.679137" style="stroke: #000000; stroke-width: 0.5"/>
      </g>
     </g>
     <g id="line2d_72">
      <g>
       <use xlink:href="#mcbf4fc96f4" x="234" y="57.679137" style="stroke: #000000; stroke-width: 0.5"/>
      </g>
     </g>
    </g>
    <g id="ytick_19">
     <g id="line2d_73">
      <g>
       <use xlink:href="#me95d335257" x="32.685756" y="44.333475" style="stroke: #000000; stroke-width: 0.5"/>
      </g>
     </g>
     <g id="line2d_74">
      <g>
       <use xlink:href="#mcbf4fc96f4" x="234" y="44.333475" style="stroke: #000000; stroke-width: 0.5"/>
      </g>
     </g>
    </g>
    <g id="ytick_20">
     <g id="line2d_75">
      <g>
       <use xlink:href="#me95d335257" x="32.685756" y="37.660645" style="stroke: #000000; stroke-width: 0.5"/>
      </g>
     </g>
     <g id="line2d_76">
      <g>
       <use xlink:href="#mcbf4fc96f4" x="234" y="37.660645" style="stroke: #000000; stroke-width: 0.5"/>
      </g>
     </g>
    </g>
    <g id="ytick_21">
     <g id="line2d_77">
      <g>
       <use xlink:href="#me95d335257" x="32.685756" y="30.987814" style="stroke: #000000; stroke-width: 0.5"/>
      </g>
     </g>
     <g id="line2d_78">
      <g>
       <use xlink:href="#mcbf4fc96f4" x="234" y="30.987814" style="stroke: #000000; stroke-width: 0.5"/>
      </g>
     </g>
    </g>
    <g id="text_12">
     <!-- $f_{1s}$ -->
     <g transform="translate(10.518498 94.747535) rotate(-90) scale(0.1 -0.1)">
      <defs>
       <path id="CMMI12-66" d="M 2854 2566 
C 2982 2566 3034 2566 3034 2688 
C 3034 2752 2982 2752 2867 2752 
L 2349 2752 
C 2470 3429 2560 3897 2611 4107 
C 2650 4265 2784 4416 2950 4416 
C 3085 4416 3219 4358 3283 4298 
C 3034 4272 2957 4082 2957 3969 
C 2957 3837 3053 3759 3174 3759 
C 3302 3759 3494 3870 3494 4119 
C 3494 4393 3226 4544 2944 4544 
C 2669 4544 2400 4334 2272 4078 
C 2157 3848 2093 3611 1946 2752 
L 1517 2752 
C 1395 2752 1331 2752 1331 2637 
C 1331 2566 1370 2566 1498 2566 
L 1907 2566 
C 1792 1976 1530 542 1382 -137 
C 1274 -689 1178 -1152 858 -1152 
C 838 -1152 653 -1152 538 -1031 
C 864 -1005 864 -726 864 -720 
C 864 -593 768 -517 646 -517 
C 518 -517 326 -625 326 -867 
C 326 -1140 608 -1280 858 -1280 
C 1510 -1280 1779 -118 1850 199 
C 1965 688 2278 2376 2310 2566 
L 2854 2566 
z
" transform="scale(0.015625)"/>
       <path id="CMMI12-73" d="M 1459 1280 
C 1568 1261 1741 1223 1779 1216 
C 1862 1192 2150 1090 2150 783 
C 2150 586 1971 70 1229 70 
C 1094 70 614 70 486 436 
C 742 404 870 603 870 745 
C 870 880 781 950 653 950 
C 512 950 326 841 326 552 
C 326 173 710 -64 1222 -64 
C 2195 -64 2483 651 2483 984 
C 2483 1079 2483 1258 2278 1462 
C 2118 1616 1965 1648 1619 1718 
C 1446 1756 1171 1814 1171 2101 
C 1171 2229 1286 2689 1894 2689 
C 2163 2689 2426 2589 2490 2368 
C 2208 2368 2195 2125 2195 2119 
C 2195 1984 2317 1946 2374 1946 
C 2464 1946 2643 2015 2643 2281 
C 2643 2545 2400 2816 1901 2816 
C 1062 2816 838 2160 838 1899 
C 838 1414 1312 1312 1459 1280 
z
" transform="scale(0.015625)"/>
      </defs>
      <use xlink:href="#CMMI12-66" transform="scale(0.996264)"/>
      <use xlink:href="#CMR17-31" transform="translate(48.083238 -14.943915) scale(0.697382)"/>
      <use xlink:href="#CMMI12-73" transform="translate(80.06642 -14.943915) scale(0.697382)"/>
     </g>
    </g>
   </g>
   <g id="line2d_79">
    <path d="M 41.836403 24.314984 
L 43.685019 24.349416 
L 45.533634 24.452635 
L 47.38225 24.624399 
L 49.230866 24.864312 
L 51.079481 25.17182 
L 52.928097 25.546217 
L 54.776713 25.986644 
L 56.625328 26.492101 
L 58.473944 27.061444 
L 60.32256 27.693397 
L 62.171175 28.386554 
L 64.019791 29.139387 
L 65.868407 29.950256 
L 67.717022 30.817413 
L 69.565638 31.739011 
L 71.414254 32.713114 
L 73.262869 33.737704 
L 75.111485 34.810693 
L 76.960101 35.929926 
L 78.808716 37.093195 
L 80.657332 38.298248 
L 82.505947 39.542794 
L 84.354563 40.824516 
L 86.203179 42.141078 
L 88.051794 43.490133 
L 89.90041 44.86933 
L 91.749026 46.276326 
L 93.597641 47.708788 
L 95.446257 49.164404 
L 97.294873 50.64089 
L 99.143488 52.135993 
L 100.992104 53.647499 
L 102.84072 55.173239 
L 104.689335 56.711092 
L 106.537951 58.25899 
L 108.386567 59.814924 
L 110.235182 61.376945 
L 112.083798 62.943169 
L 113.932414 64.511778 
L 115.781029 66.081023 
L 117.629645 67.649227 
L 119.47826 69.214783 
L 121.326876 70.776158 
L 123.175492 72.331895 
L 125.024107 73.880609 
L 126.872723 75.42099 
L 128.721339 76.9518 
L 130.569954 78.471879 
L 132.41857 79.980134 
L 134.267186 81.475547 
L 136.115801 82.957169 
L 137.964417 84.424121 
L 139.813033 85.875589 
L 141.661648 87.310827 
L 143.510264 88.72915 
L 145.35888 90.129936 
L 147.207495 91.512623 
L 149.056111 92.876705 
L 150.904727 94.221732 
L 152.753342 95.547307 
L 154.601958 96.853083 
L 156.450573 98.138763 
L 158.299189 99.404093 
L 160.147805 100.648867 
L 161.99642 101.872917 
L 163.845036 103.076117 
L 165.693652 104.258377 
L 167.542267 105.419642 
L 169.390883 106.559889 
L 171.239499 107.679129 
L 173.088114 108.777398 
L 174.93673 109.854763 
L 176.785346 110.911312 
L 178.633961 111.94716 
L 180.482577 112.962442 
L 182.331193 113.957311 
L 184.179808 114.931941 
L 186.028424 115.886522 
L 187.87704 116.82126 
L 189.725655 117.736372 
L 191.574271 118.63209 
L 193.422886 119.508657 
L 195.271502 120.366326 
L 197.120118 121.205358 
L 198.968733 122.026023 
L 200.817349 122.828597 
L 202.665965 123.613363 
L 204.51458 124.380608 
L 206.363196 125.130623 
L 208.211812 125.863703 
L 210.060427 126.580145 
L 211.909043 127.280249 
L 213.757659 127.964316 
L 215.606274 128.632646 
L 217.45489 129.285542 
L 219.303506 129.923304 
L 221.152121 130.546233 
L 223.000737 131.154629 
L 224.849353 131.748788 
" clip-path="url(#pdda8663382)" style="fill: none; stroke: #0c5da5; stroke-linecap: square"/>
   </g>
   <g id="line2d_80">
    <path d="M 41.836403 24.314984 
L 43.685019 24.359679 
L 45.533634 24.49363 
L 47.38225 24.716433 
L 49.230866 25.027421 
L 51.079481 25.425663 
L 52.928097 25.909974 
L 54.776713 26.478922 
L 56.625328 27.130836 
L 58.473944 27.86382 
L 60.32256 28.675761 
L 62.171175 29.564344 
L 64.019791 30.527069 
L 65.868407 31.561261 
L 67.717022 32.66409 
L 69.565638 33.832587 
L 71.414254 35.063658 
L 73.262869 36.354106 
L 75.111485 37.700645 
L 76.960101 39.099916 
L 78.808716 40.54851 
L 80.657332 42.042977 
L 82.505947 43.579847 
L 84.354563 45.155646 
L 86.203179 46.766908 
L 88.051794 48.410193 
L 89.90041 50.082096 
L 91.749026 51.779264 
L 93.597641 53.498405 
L 95.446257 55.236297 
L 97.294873 56.989803 
L 99.143488 58.755876 
L 100.992104 60.531563 
L 102.84072 62.314021 
L 104.689335 64.100514 
L 106.537951 65.888421 
L 108.386567 67.675241 
L 110.235182 69.458592 
L 112.083798 71.236218 
L 113.932414 73.005985 
L 115.781029 74.765888 
L 117.629645 76.514041 
L 119.47826 78.248688 
L 121.326876 79.968192 
L 123.175492 81.671039 
L 125.024107 83.35583 
L 126.872723 85.021285 
L 128.721339 86.666234 
L 130.569954 88.289619 
L 132.41857 89.890484 
L 134.267186 91.467975 
L 136.115801 93.021338 
L 137.964417 94.549908 
L 139.813033 96.053111 
L 141.661648 97.530459 
L 143.510264 98.981541 
L 145.35888 100.406024 
L 147.207495 101.803645 
L 149.056111 103.174209 
L 150.904727 104.517584 
L 152.753342 105.833695 
L 154.601958 107.122525 
L 156.450573 108.384105 
L 158.299189 109.618514 
L 160.147805 110.825875 
L 161.99642 112.006351 
L 163.845036 113.16014 
L 165.693652 114.287475 
L 167.542267 115.388619 
L 169.390883 116.463861 
L 171.239499 117.513517 
L 173.088114 118.537922 
L 174.93673 119.537433 
L 176.785346 120.512424 
L 178.633961 121.463282 
L 180.482577 122.390408 
L 182.331193 123.294215 
L 184.179808 124.175124 
L 186.028424 125.033565 
L 187.87704 125.869971 
L 189.725655 126.684784 
L 191.574271 127.478445 
L 193.422886 128.2514 
L 195.271502 129.004094 
L 197.120118 129.736974 
L 198.968733 130.450484 
L 200.817349 131.145068 
L 202.665965 131.821165 
L 204.51458 132.479213 
L 206.363196 133.119644 
L 208.211812 133.742888 
L 210.060427 134.349367 
L 211.909043 134.939501 
L 213.757659 135.5137 
L 215.606274 136.072371 
L 217.45489 136.615914 
L 219.303506 137.144721 
L 221.152121 137.659177 
L 223.000737 138.159663 
L 224.849353 138.646548 
" clip-path="url(#pdda8663382)" style="fill: none; stroke: #00b945; stroke-linecap: square"/>
   </g>
   <g id="line2d_81">
    <path d="M 41.836403 24.314984 
L 43.685019 24.378656 
L 45.533634 24.5694 
L 47.38225 24.886398 
L 49.230866 25.328298 
L 51.079481 25.893224 
L 52.928097 26.578793 
L 54.776713 27.382142 
L 56.625328 28.299947 
L 58.473944 29.32846 
L 60.32256 30.463538 
L 62.171175 31.70068 
L 64.019791 33.035067 
L 65.868407 34.461599 
L 67.717022 35.97494 
L 69.565638 37.569558 
L 71.414254 39.239765 
L 73.262869 40.979761 
L 75.111485 42.783675 
L 76.960101 44.6456 
L 78.808716 46.559635 
L 80.657332 48.519917 
L 82.505947 50.520658 
L 84.354563 52.556171 
L 86.203179 54.620898 
L 88.051794 56.70944 
L 89.90041 58.816572 
L 91.749026 60.937268 
L 93.597641 63.066714 
L 95.446257 65.20032 
L 97.294873 67.333734 
L 99.143488 69.462848 
L 100.992104 71.583803 
L 102.84072 73.692994 
L 104.689335 75.78707 
L 106.537951 77.86293 
L 108.386567 79.917728 
L 110.235182 81.948858 
L 112.083798 83.953961 
L 113.932414 85.930906 
L 115.781029 87.87779 
L 117.629645 89.792927 
L 119.47826 91.674838 
L 121.326876 93.522244 
L 123.175492 95.334052 
L 125.024107 97.109346 
L 126.872723 98.847379 
L 128.721339 100.547558 
L 130.569954 102.209437 
L 132.41857 103.832706 
L 134.267186 105.417178 
L 136.115801 106.962784 
L 137.964417 108.469558 
L 139.813033 109.937634 
L 141.661648 111.367231 
L 143.510264 112.758647 
L 145.35888 114.112254 
L 147.207495 115.428484 
L 149.056111 116.707829 
L 150.904727 117.950828 
L 152.753342 119.158065 
L 154.601958 120.330161 
L 156.450573 121.467769 
L 158.299189 122.571569 
L 160.147805 123.642263 
L 161.99642 124.680573 
L 163.845036 125.687233 
L 165.693652 126.662988 
L 167.542267 127.608592 
L 169.390883 128.524799 
L 171.239499 129.41237 
L 173.088114 130.272062 
L 174.93673 131.104628 
L 176.785346 131.910819 
L 178.633961 132.691378 
L 180.482577 133.447039 
L 182.331193 134.178527 
L 184.179808 134.886558 
L 186.028424 135.571833 
L 187.87704 136.235044 
L 189.725655 136.876866 
L 191.574271 137.497964 
L 193.422886 138.098987 
L 195.271502 138.680568 
L 197.120118 139.243328 
L 198.968733 139.787869 
L 200.817349 140.31478 
L 202.665965 140.824635 
L 204.51458 141.317991 
L 206.363196 141.79539 
L 208.211812 142.25736 
L 210.060427 142.704412 
L 211.909043 143.137042 
L 213.757659 143.555733 
L 215.606274 143.960951 
L 217.45489 144.35315 
L 219.303506 144.732767 
L 221.152121 145.100228 
L 223.000737 145.455943 
L 224.849353 145.80031 
" clip-path="url(#pdda8663382)" style="fill: none; stroke: #ff9500; stroke-linecap: square"/>
   </g>
   <g id="line2d_82">
    <path d="M 41.836403 24.314984 
L 43.685019 24.425639 
L 45.533634 24.756781 
L 47.38225 25.30595 
L 49.230866 26.06909 
L 51.079481 27.040619 
L 52.928097 28.213514 
L 54.776713 29.579425 
L 56.625328 31.128804 
L 58.473944 32.85105 
L 60.32256 34.734664 
L 62.171175 36.767409 
L 64.019791 38.936482 
L 65.868407 41.228675 
L 67.717022 43.630539 
L 69.565638 46.128542 
L 71.414254 48.70921 
L 73.262869 51.359268 
L 75.111485 54.065758 
L 76.960101 56.816147 
L 78.808716 59.598423 
L 80.657332 62.401165 
L 82.505947 65.213612 
L 84.354563 68.025706 
L 86.203179 70.828126 
L 88.051794 73.612308 
L 89.90041 76.370457 
L 91.749026 79.095538 
L 93.597641 81.78127 
L 95.446257 84.422106 
L 97.294873 87.013204 
L 99.143488 89.550399 
L 100.992104 92.030167 
L 102.84072 94.449585 
L 104.689335 96.806291 
L 106.537951 99.098444 
L 108.386567 101.324681 
L 110.235182 103.484074 
L 112.083798 105.57609 
L 113.932414 107.600552 
L 115.781029 109.557599 
L 117.629645 111.447651 
L 119.47826 113.271374 
L 121.326876 115.029647 
L 123.175492 116.723535 
L 125.024107 118.354258 
L 126.872723 119.923169 
L 128.721339 121.431726 
L 130.569954 122.881477 
L 132.41857 124.274037 
L 134.267186 125.611072 
L 136.115801 126.894286 
L 137.964417 128.125402 
L 139.813033 129.306157 
L 141.661648 130.438288 
L 143.510264 131.523523 
L 145.35888 132.563576 
L 147.207495 133.560136 
L 149.056111 134.514864 
L 150.904727 135.429392 
L 152.753342 136.305311 
L 154.601958 137.144174 
L 156.450573 137.947494 
L 158.299189 138.716737 
L 160.147805 139.453326 
L 161.99642 140.158638 
L 163.845036 140.834002 
L 165.693652 141.480702 
L 167.542267 142.099974 
L 169.390883 142.693008 
L 171.239499 143.260949 
L 173.088114 143.804897 
L 174.93673 144.325907 
L 176.785346 144.824992 
L 178.633961 145.303123 
L 180.482577 145.761228 
L 182.331193 146.200199 
L 184.179808 146.620886 
L 186.028424 147.024104 
L 187.87704 147.410633 
L 189.725655 147.781215 
L 191.574271 148.136562 
L 193.422886 148.477354 
L 195.271502 148.804237 
L 197.120118 149.117832 
L 198.968733 149.418729 
L 200.817349 149.70749 
L 202.665965 149.984655 
L 204.51458 150.250736 
L 206.363196 150.506221 
L 208.211812 150.751579 
L 210.060427 150.987253 
L 211.909043 151.213668 
L 213.757659 151.431229 
L 215.606274 151.640322 
L 217.45489 151.841314 
L 219.303506 152.034557 
L 221.152121 152.220385 
L 223.000737 152.399118 
L 224.849353 152.571059 
" clip-path="url(#pdda8663382)" style="fill: none; stroke: #ff2c00; stroke-linecap: square"/>
   </g>
   <g id="patch_3">
    <path d="M 32.685756 158.983863 
L 32.685756 17.90218 
" style="fill: none; stroke: #000000; stroke-width: 0.5; stroke-linejoin: miter; stroke-linecap: square"/>
   </g>
   <g id="patch_4">
    <path d="M 234 158.983863 
L 234 17.90218 
" style="fill: none; stroke: #000000; stroke-width: 0.5; stroke-linejoin: miter; stroke-linecap: square"/>
   </g>
   <g id="patch_5">
    <path d="M 32.685756 158.983863 
L 234 158.983863 
" style="fill: none; stroke: #000000; stroke-width: 0.5; stroke-linejoin: miter; stroke-linecap: square"/>
   </g>
   <g id="patch_6">
    <path d="M 32.685756 17.90218 
L 234 17.90218 
" style="fill: none; stroke: #000000; stroke-width: 0.5; stroke-linejoin: miter; stroke-linecap: square"/>
   </g>
   <g id="text_13">
    <!-- $f_{1s}$ for beryllium ${3.5+}$ -->
    <g transform="translate(76.871099 11.90218) scale(0.12 -0.12)">
     <defs>
      <path id="CMR17-66" d="M 979 2560 
L 1709 2560 
L 1709 2725 
L 966 2725 
L 966 3494 
C 966 4022 1235 4352 1510 4352 
C 1594 4352 1690 4327 1754 4282 
C 1702 4269 1568 4225 1568 4067 
C 1568 3901 1696 3850 1786 3850 
C 1875 3850 2003 3901 2003 4067 
C 2003 4308 1773 4454 1517 4454 
C 1152 4454 653 4156 653 3481 
L 653 2725 
L 141 2725 
L 141 2560 
L 653 2560 
L 653 427 
C 653 184 627 153 218 153 
L 218 -13 
C 371 0 666 0 832 0 
C 1018 0 1344 0 1517 -13 
L 1517 153 
C 1056 153 979 153 979 439 
L 979 2560 
z
" transform="scale(0.015625)"/>
      <path id="CMR17-62" d="M 960 4396 
L 198 4326 
L 198 4160 
C 576 4160 634 4122 634 3817 
L 634 -13 
L 749 -13 
L 934 441 
C 1120 141 1395 -64 1766 -64 
C 2406 -64 3053 500 3053 1370 
C 3053 2188 2477 2790 1830 2790 
C 1434 2790 1152 2579 960 2330 
L 960 4396 
z
M 973 2004 
C 973 2118 973 2138 1062 2272 
C 1312 2657 1670 2688 1792 2688 
C 1984 2688 2643 2585 2643 1376 
C 2643 108 1888 38 1734 38 
C 1536 38 1248 114 1043 486 
C 973 608 973 621 973 735 
L 973 2004 
z
" transform="scale(0.015625)"/>
      <path id="CMR17-65" d="M 2438 1472 
C 2464 1498 2464 1511 2464 1576 
C 2464 2238 2118 2816 1389 2816 
C 710 2816 173 2169 173 1383 
C 173 551 781 -64 1459 -64 
C 2176 -64 2458 607 2458 740 
C 2458 784 2419 784 2406 784 
C 2362 784 2355 771 2330 696 
C 2189 265 1837 51 1504 51 
C 1229 51 954 203 781 480 
C 582 803 582 1176 582 1472 
L 2438 1472 
z
M 589 1568 
C 634 2505 1126 2714 1382 2714 
C 1818 2714 2112 2297 2118 1568 
L 589 1568 
z
" transform="scale(0.015625)"/>
      <path id="CMR17-79" d="M 2496 2197 
C 2656 2586 2944 2586 3034 2586 
L 3034 2752 
C 2912 2752 2752 2752 2630 2752 
C 2496 2752 2285 2752 2157 2758 
L 2157 2592 
C 2400 2573 2406 2394 2406 2343 
C 2406 2280 2394 2248 2362 2171 
L 1664 449 
L 902 2306 
C 870 2382 870 2426 870 2433 
C 870 2573 1018 2586 1171 2586 
L 1171 2758 
C 1018 2752 742 2752 582 2752 
C 410 2752 205 2752 64 2758 
L 64 2586 
C 410 2586 448 2554 531 2350 
L 1485 15 
C 1197 -738 1030 -1178 627 -1178 
C 557 -1178 397 -1159 282 -1044 
C 429 -1031 493 -942 493 -833 
C 493 -725 416 -629 288 -629 
C 147 -629 77 -725 77 -840 
C 77 -1095 339 -1280 627 -1280 
C 998 -1280 1229 -922 1357 -604 
L 2496 2197 
z
" transform="scale(0.015625)"/>
      <path id="CMR17-6c" d="M 979 4396 
L 218 4326 
L 218 4160 
C 595 4160 653 4122 653 3817 
L 653 426 
C 653 184 627 153 218 153 
L 218 -13 
C 371 0 653 0 813 0 
C 979 0 1261 0 1414 -13 
L 1414 153 
C 1005 153 979 178 979 426 
L 979 4396 
z
" transform="scale(0.015625)"/>
      <path id="CMR17-69" d="M 992 3909 
C 992 4049 877 4170 730 4170 
C 589 4170 467 4056 467 3909 
C 467 3769 582 3648 730 3648 
C 870 3648 992 3763 992 3909 
z
M 243 2706 
L 243 2541 
C 602 2541 653 2502 653 2197 
L 653 427 
C 653 184 627 153 218 153 
L 218 -13 
C 371 0 646 0 806 0 
C 960 0 1222 0 1370 -13 
L 1370 153 
C 992 153 979 191 979 420 
L 979 2776 
L 243 2706 
z
" transform="scale(0.015625)"/>
      <path id="CMR17-75" d="M 1882 2693 
L 1882 2528 
C 2259 2528 2317 2489 2317 2186 
L 2317 1032 
C 2317 500 2029 38 1555 38 
C 1030 38 986 348 986 678 
L 986 2763 
L 211 2693 
L 211 2528 
C 467 2528 640 2528 646 2274 
L 646 1058 
C 646 633 646 361 813 183 
C 896 101 1056 -64 1517 -64 
C 2061 -64 2272 377 2323 506 
L 2330 506 
L 2330 -63 
L 3091 -63 
L 3091 128 
C 2714 128 2656 166 2656 473 
L 2656 2763 
L 1882 2693 
z
" transform="scale(0.015625)"/>
      <path id="CMR17-33" d="M 1414 2157 
C 1984 2157 2234 1662 2234 1090 
C 2234 320 1824 25 1453 25 
C 1114 25 563 194 390 693 
C 422 680 454 680 486 680 
C 640 680 755 782 755 948 
C 755 1133 614 1216 486 1216 
C 378 1216 211 1165 211 926 
C 211 335 787 -128 1466 -128 
C 2176 -128 2720 430 2720 1085 
C 2720 1707 2208 2157 1600 2227 
C 2086 2328 2554 2756 2554 3329 
C 2554 3820 2048 4179 1472 4179 
C 890 4179 378 3829 378 3329 
C 378 3110 544 3072 627 3072 
C 762 3072 877 3155 877 3321 
C 877 3486 762 3569 627 3569 
C 602 3569 570 3569 544 3557 
C 730 3959 1235 4032 1459 4032 
C 1683 4032 2106 3925 2106 3320 
C 2106 3143 2080 2828 1862 2550 
C 1670 2304 1453 2304 1242 2284 
C 1210 2284 1062 2269 1037 2269 
C 992 2263 966 2257 966 2208 
C 966 2163 973 2157 1101 2157 
L 1414 2157 
z
" transform="scale(0.015625)"/>
      <path id="CMR17-2b" d="M 2413 1472 
L 4109 1472 
C 4198 1472 4307 1472 4307 1580 
C 4307 1695 4205 1695 4109 1695 
L 2413 1695 
L 2413 3386 
C 2413 3475 2413 3584 2304 3584 
C 2189 3584 2189 3482 2189 3386 
L 2189 1695 
L 493 1695 
C 403 1695 294 1695 294 1587 
C 294 1472 397 1472 493 1472 
L 2189 1472 
L 2189 -218 
C 2189 -307 2189 -416 2298 -416 
C 2413 -416 2413 -314 2413 -218 
L 2413 1472 
z
" transform="scale(0.015625)"/>
     </defs>
     <use xlink:href="#CMMI12-66" transform="scale(0.996264)"/>
     <use xlink:href="#CMR17-31" transform="translate(48.083238 -14.943915) scale(0.697382)"/>
     <use xlink:href="#CMMI12-73" transform="translate(80.06642 -14.943915) scale(0.697382)"/>
     <use xlink:href="#CMR17-66" transform="translate(142.805407 0) scale(0.996264)"/>
     <use xlink:href="#CMR17-6f" transform="translate(170.278919 0) scale(0.996264)"/>
     <use xlink:href="#CMR17-72" transform="translate(215.969396 0) scale(0.996264)"/>
     <use xlink:href="#CMR17-62" transform="translate(281.326131 0) scale(0.996264)"/>
     <use xlink:href="#CMR17-65" transform="translate(334.823939 0) scale(0.996264)"/>
     <use xlink:href="#CMR17-72" transform="translate(375.309599 0) scale(0.996264)"/>
     <use xlink:href="#CMR17-79" transform="translate(410.590367 0) scale(0.996264)"/>
     <use xlink:href="#CMR17-6c" transform="translate(458.883283 0) scale(0.996264)"/>
     <use xlink:href="#CMR17-6c" transform="translate(483.754342 0) scale(0.996264)"/>
     <use xlink:href="#CMR17-69" transform="translate(508.6254 0) scale(0.996264)"/>
     <use xlink:href="#CMR17-75" transform="translate(533.496459 0) scale(0.996264)"/>
     <use xlink:href="#CMR17-6d" transform="translate(584.391828 0) scale(0.996264)"/>
     <use xlink:href="#CMR17-33" transform="translate(691.387385 0) scale(0.996264)"/>
     <use xlink:href="#CMMI12-3a" transform="translate(737.077862 0) scale(0.996264)"/>
     <use xlink:href="#CMR17-35" transform="translate(764.175039 0) scale(0.996264)"/>
     <use xlink:href="#CMR17-2b" transform="translate(809.865516 0) scale(0.996264)"/>
    </g>
   </g>
   <g id="legend_1">
    <g id="line2d_83">
     <path d="M 137.777535 30.40218 
L 147.777535 30.40218 
L 157.777535 30.40218 
" style="fill: none; stroke: #0c5da5; stroke-linecap: square"/>
    </g>
    <g id="text_14">
     <!-- IPD = 0eV -->
     <g transform="translate(165.777535 33.90218) scale(0.1 -0.1)">
      <defs>
       <path id="CMR17-49" d="M 1261 3905 
C 1261 4192 1338 4192 1798 4192 
L 1798 4352 
C 1594 4352 1267 4352 1050 4352 
C 832 4352 506 4352 301 4352 
L 301 4192 
C 762 4192 838 4192 838 3905 
L 838 447 
C 838 160 762 160 301 160 
L 301 0 
C 506 0 832 0 1050 0 
C 1267 0 1594 0 1798 0 
L 1798 160 
C 1338 160 1261 160 1261 447 
L 1261 3905 
z
" transform="scale(0.015625)"/>
       <path id="CMR17-50" d="M 1267 2042 
L 2291 2042 
C 3117 2042 3718 2578 3718 3184 
C 3718 3791 3130 4352 2291 4352 
L 333 4352 
L 333 4186 
C 774 4186 845 4186 845 3899 
L 845 446 
C 845 160 774 160 333 160 
L 333 0 
C 518 0 858 0 1056 0 
C 1254 0 1594 0 1779 0 
L 1779 160 
C 1338 160 1267 160 1267 446 
L 1267 2042 
z
M 1254 2176 
L 1254 3938 
C 1254 4155 1267 4186 1523 4186 
L 2170 4186 
C 2995 4186 3232 3714 3232 3184 
C 3232 2604 2950 2176 2170 2176 
L 1254 2176 
z
" transform="scale(0.015625)"/>
       <path id="CMR17-44" d="M 333 4352 
L 333 4186 
C 774 4186 845 4186 845 3900 
L 845 452 
C 845 166 774 166 333 166 
L 333 0 
L 2368 0 
C 3398 0 4224 943 4224 2141 
C 4224 3346 3411 4352 2368 4352 
L 333 4352 
z
M 1523 166 
C 1267 166 1254 197 1254 414 
L 1254 3938 
C 1254 4155 1267 4186 1523 4186 
L 2240 4186 
C 2771 4186 3750 3874 3750 2141 
C 3750 1242 3488 879 3366 707 
C 3213 510 2848 166 2240 166 
L 1523 166 
z
" transform="scale(0.015625)"/>
       <path id="CMR17-3d" d="M 4115 2017 
C 4211 2017 4307 2017 4307 2125 
C 4307 2240 4198 2240 4090 2240 
L 512 2240 
C 403 2240 294 2240 294 2125 
C 294 2017 390 2017 486 2017 
L 4115 2017 
z
M 4090 896 
C 4198 896 4307 896 4307 1011 
C 4307 1119 4211 1119 4115 1119 
L 486 1119 
C 390 1119 294 1119 294 1011 
C 294 896 403 896 512 896 
L 4090 896 
z
" transform="scale(0.015625)"/>
       <path id="CMR17-56" d="M 3776 3745 
C 3834 3886 3936 4160 4365 4160 
L 4365 4332 
C 4218 4319 4051 4319 3891 4319 
C 3738 4319 3475 4319 3328 4332 
L 3328 4160 
C 3648 4160 3661 3936 3661 3898 
C 3661 3827 3642 3783 3622 3732 
L 2362 446 
L 1043 3886 
C 1024 3931 1011 3963 1011 3994 
C 1011 4160 1267 4160 1402 4160 
L 1402 4319 
C 1197 4319 896 4319 685 4319 
C 518 4319 218 4319 64 4332 
L 64 4160 
C 435 4160 506 4135 582 3931 
L 2106 -26 
C 2138 -115 2144 -128 2214 -128 
C 2285 -128 2291 -115 2323 -26 
L 3776 3745 
z
" transform="scale(0.015625)"/>
      </defs>
      <use xlink:href="#CMR17-49" transform="scale(0.996264)"/>
      <use xlink:href="#CMR17-50" transform="translate(32.638409 0) scale(0.996264)"/>
      <use xlink:href="#CMR17-44" transform="translate(95.22471 0) scale(0.996264)"/>
      <use xlink:href="#CMR17-3d" transform="translate(195.694232 0) scale(0.996264)"/>
      <use xlink:href="#CMR17-30" transform="translate(297.484987 0) scale(0.996264)"/>
      <use xlink:href="#CMR17-65" transform="translate(343.175464 0) scale(0.996264)"/>
      <use xlink:href="#CMR17-56" transform="translate(383.661124 0) scale(0.996264)"/>
     </g>
    </g>
    <g id="line2d_84">
     <path d="M 137.777535 44.339358 
L 147.777535 44.339358 
L 157.777535 44.339358 
" style="fill: none; stroke: #00b945; stroke-linecap: square"/>
    </g>
    <g id="text_15">
     <!-- IPD = 50eV -->
     <g transform="translate(165.777535 47.839358) scale(0.1 -0.1)">
      <use xlink:href="#CMR17-49" transform="scale(0.996264)"/>
      <use xlink:href="#CMR17-50" transform="translate(32.638409 0) scale(0.996264)"/>
      <use xlink:href="#CMR17-44" transform="translate(95.22471 0) scale(0.996264)"/>
      <use xlink:href="#CMR17-3d" transform="translate(195.694232 0) scale(0.996264)"/>
      <use xlink:href="#CMR17-35" transform="translate(297.484987 0) scale(0.996264)"/>
      <use xlink:href="#CMR17-30" transform="translate(343.175464 0) scale(0.996264)"/>
      <use xlink:href="#CMR17-65" transform="translate(388.865941 0) scale(0.996264)"/>
      <use xlink:href="#CMR17-56" transform="translate(429.351601 0) scale(0.996264)"/>
     </g>
    </g>
    <g id="line2d_85">
     <path d="M 137.777535 58.276536 
L 147.777535 58.276536 
L 157.777535 58.276536 
" style="fill: none; stroke: #ff9500; stroke-linecap: square"/>
    </g>
    <g id="text_16">
     <!-- IPD = 100eV -->
     <g transform="translate(165.777535 61.776536) scale(0.1 -0.1)">
      <use xlink:href="#CMR17-49" transform="scale(0.996264)"/>
      <use xlink:href="#CMR17-50" transform="translate(32.638409 0) scale(0.996264)"/>
      <use xlink:href="#CMR17-44" transform="translate(95.22471 0) scale(0.996264)"/>
      <use xlink:href="#CMR17-3d" transform="translate(195.694232 0) scale(0.996264)"/>
      <use xlink:href="#CMR17-31" transform="translate(297.484987 0) scale(0.996264)"/>
      <use xlink:href="#CMR17-30" transform="translate(343.175464 0) scale(0.996264)"/>
      <use xlink:href="#CMR17-30" transform="translate(388.865941 0) scale(0.996264)"/>
      <use xlink:href="#CMR17-65" transform="translate(434.556418 0) scale(0.996264)"/>
      <use xlink:href="#CMR17-56" transform="translate(475.042079 0) scale(0.996264)"/>
     </g>
    </g>
    <g id="line2d_86">
     <path d="M 137.777535 72.213715 
L 147.777535 72.213715 
L 157.777535 72.213715 
" style="fill: none; stroke: #ff2c00; stroke-linecap: square"/>
    </g>
    <g id="text_17">
     <!-- IPD = 150eV -->
     <g transform="translate(165.777535 75.713715) scale(0.1 -0.1)">
      <use xlink:href="#CMR17-49" transform="scale(0.996264)"/>
      <use xlink:href="#CMR17-50" transform="translate(32.638409 0) scale(0.996264)"/>
      <use xlink:href="#CMR17-44" transform="translate(95.22471 0) scale(0.996264)"/>
      <use xlink:href="#CMR17-3d" transform="translate(195.694232 0) scale(0.996264)"/>
      <use xlink:href="#CMR17-31" transform="translate(297.484987 0) scale(0.996264)"/>
      <use xlink:href="#CMR17-35" transform="translate(343.175464 0) scale(0.996264)"/>
      <use xlink:href="#CMR17-30" transform="translate(388.865941 0) scale(0.996264)"/>
      <use xlink:href="#CMR17-65" transform="translate(434.556418 0) scale(0.996264)"/>
      <use xlink:href="#CMR17-56" transform="translate(475.042079 0) scale(0.996264)"/>
     </g>
    </g>
   </g>
  </g>
 </g>
 <defs>
  <clipPath id="pdda8663382">
   <rect x="32.685756" y="17.90218" width="201.314244" height="141.081683"/>
  </clipPath>
 </defs>
</svg>
