<?xml version="1.0" encoding="utf-8" standalone="no"?>
<!DOCTYPE svg PUBLIC "-//W3C//DTD SVG 1.1//EN"
  "http://www.w3.org/Graphics/SVG/1.1/DTD/svg11.dtd">
<svg xmlns:xlink="http://www.w3.org/1999/xlink" width="237.6pt" height="174.6pt" viewBox="0 0 237.6 174.6" xmlns="http://www.w3.org/2000/svg" version="1.1">
 <metadata>
  <rdf:RDF xmlns:dc="http://purl.org/dc/elements/1.1/" xmlns:cc="http://creativecommons.org/ns#" xmlns:rdf="http://www.w3.org/1999/02/22-rdf-syntax-ns#">
   <cc:Work>
    <dc:type rdf:resource="http://purl.org/dc/dcmitype/StillImage"/>
    <dc:date>2026-06-22T11:36:21.642605</dc:date>
    <dc:format>image/svg+xml</dc:format>
    <dc:creator>
     <cc:Agent>
      <dc:title>Matplotlib v3.10.8, https://matplotlib.org/</dc:title>
     </cc:Agent>
    </dc:creator>
   </cc:Work>
  </rdf:RDF>
 </metadata>
 <defs>
  <style type="text/css">*{stroke-linejoin: round; stroke-linecap: butt}</style>
 </defs>
 <g id="figure_1">
  <g id="patch_1">
   <path d="M 0 174.6 
L 237.6 174.6 
L 237.6 0 
L 0 0 
z
" style="fill: #ffffff"/>
  </g>
  <g id="axes_1">
   <g id="patch_2">
    <path d="M 32.685756 144.681683 
L 234 144.681683 
L 234 3.6 
L 32.685756 3.6 
z
" style="fill: #ffffff"/>
   </g>
   <g id="PathCollection_1">
    <defs>
     <path id="mfce54ebeab" d="M 0 3 
C 0.795609 3 1.55874 2.683901 2.12132 2.12132 
C 2.683901 1.55874 3 0.795609 3 0 
C 3 -0.795609 2.683901 -1.55874 2.12132 -2.12132 
C 1.55874 -2.683901 0.795609 -3 0 -3 
C -0.795609 -3 -1.55874 -2.683901 -2.12132 -2.12132 
C -2.683901 -1.55874 -3 -0.795609 -3 0 
C -3 0.795609 -2.683901 1.55874 -2.12132 2.12132 
C -1.55874 2.683901 -0.795609 3 0 3 
z
" style="stroke: #000000"/>
    </defs>
    <g clip-path="url(#pc7b8332cd2)">
     <use xlink:href="#mfce54ebeab" x="79.185985" y="138.268879" style="stroke: #000000"/>
    </g>
   </g>
   <g id="PathCollection_2">
    <defs>
     <path id="m4bd9f68d91" d="M -3 3 
L 3 -3 
M -3 -3 
L 3 3 
" style="stroke: #000000"/>
    </defs>
    <g clip-path="url(#pc7b8332cd2)">
     <use xlink:href="#m4bd9f68d91" x="80.418906" y="138.268879" style="stroke: #000000"/>
    </g>
   </g>
   <g id="PathCollection_3">
    <g clip-path="url(#pc7b8332cd2)">
     <use xlink:href="#mfce54ebeab" x="79.185985" y="132.173819" style="stroke: #000000"/>
    </g>
   </g>
   <g id="PathCollection_4">
    <g clip-path="url(#pc7b8332cd2)">
     <use xlink:href="#m4bd9f68d91" x="80.064565" y="132.173819" style="stroke: #000000"/>
    </g>
   </g>
   <g id="PathCollection_5">
    <g clip-path="url(#pc7b8332cd2)">
     <use xlink:href="#mfce54ebeab" x="79.185985" y="125.669873" style="stroke: #000000"/>
    </g>
   </g>
   <g id="PathCollection_6">
    <g clip-path="url(#pc7b8332cd2)">
     <use xlink:href="#m4bd9f68d91" x="79.977322" y="125.669873" style="stroke: #000000"/>
    </g>
   </g>
   <g id="PathCollection_7">
    <g clip-path="url(#pc7b8332cd2)">
     <use xlink:href="#mfce54ebeab" x="79.185985" y="124.423309" style="stroke: #000000"/>
    </g>
   </g>
   <g id="PathCollection_8">
    <g clip-path="url(#pc7b8332cd2)">
     <use xlink:href="#m4bd9f68d91" x="79.965521" y="124.423309" style="stroke: #000000"/>
    </g>
   </g>
   <g id="matplotlib.axis_1">
    <g id="xtick_1">
     <g id="line2d_1">
      <defs>
       <path id="m86dc367493" d="M 0 0 
L 0 -3 
" style="stroke: #000000; stroke-width: 0.5"/>
      </defs>
      <g>
       <use xlink:href="#m86dc367493" x="41.836403" y="144.681683" style="stroke: #000000; stroke-width: 0.5"/>
      </g>
     </g>
     <g id="line2d_2">
      <defs>
       <path id="mc7d98547eb" d="M 0 0 
L 0 3 
" style="stroke: #000000; stroke-width: 0.5"/>
      </defs>
      <g>
       <use xlink:href="#mc7d98547eb" x="41.836403" y="3.6" style="stroke: #000000; stroke-width: 0.5"/>
      </g>
     </g>
     <g id="text_1">
      <!-- $\mathdefault{0}$ -->
      <g transform="translate(39.345735 155.100182) scale(0.1 -0.1)">
       <defs>
        <path id="CMR17-30" d="M 2688 2025 
C 2688 2416 2682 3080 2413 3591 
C 2176 4039 1798 4198 1466 4198 
C 1158 4198 768 4058 525 3597 
C 269 3118 243 2524 243 2025 
C 243 1661 250 1106 448 619 
C 723 -39 1216 -128 1466 -128 
C 1760 -128 2208 -7 2470 600 
C 2662 1042 2688 1559 2688 2025 
z
M 1466 -26 
C 1056 -26 813 325 723 812 
C 653 1188 653 1738 653 2096 
C 653 2588 653 2997 736 3387 
C 858 3929 1216 4096 1466 4096 
C 1728 4096 2067 3923 2189 3400 
C 2272 3036 2278 2607 2278 2096 
C 2278 1680 2278 1169 2202 792 
C 2067 95 1690 -26 1466 -26 
z
" transform="scale(0.015625)"/>
       </defs>
       <use xlink:href="#CMR17-30" transform="scale(0.996264)"/>
      </g>
     </g>
    </g>
    <g id="xtick_2">
     <g id="line2d_3">
      <g>
       <use xlink:href="#m86dc367493" x="102.84072" y="144.681683" style="stroke: #000000; stroke-width: 0.5"/>
      </g>
     </g>
     <g id="line2d_4">
      <g>
       <use xlink:href="#mc7d98547eb" x="102.84072" y="3.6" style="stroke: #000000; stroke-width: 0.5"/>
      </g>
     </g>
     <g id="text_2">
      <!-- $\mathdefault{20}$ -->
      <g transform="translate(97.859384 155.100182) scale(0.1 -0.1)">
       <defs>
        <path id="CMR17-32" d="M 2669 989 
L 2554 989 
C 2490 536 2438 459 2413 420 
C 2381 369 1920 369 1830 369 
L 602 369 
C 832 619 1280 1072 1824 1597 
C 2214 1967 2669 2402 2669 3035 
C 2669 3790 2067 4224 1395 4224 
C 691 4224 262 3604 262 3030 
C 262 2780 448 2748 525 2748 
C 589 2748 781 2787 781 3010 
C 781 3207 614 3264 525 3264 
C 486 3264 448 3258 422 3245 
C 544 3790 915 4058 1306 4058 
C 1862 4058 2227 3617 2227 3035 
C 2227 2479 1901 2000 1536 1584 
L 262 146 
L 262 0 
L 2515 0 
L 2669 989 
z
" transform="scale(0.015625)"/>
       </defs>
       <use xlink:href="#CMR17-32" transform="scale(0.996264)"/>
       <use xlink:href="#CMR17-30" transform="translate(45.690477 0) scale(0.996264)"/>
      </g>
     </g>
    </g>
    <g id="xtick_3">
     <g id="line2d_5">
      <g>
       <use xlink:href="#m86dc367493" x="163.845036" y="144.681683" style="stroke: #000000; stroke-width: 0.5"/>
      </g>
     </g>
     <g id="line2d_6">
      <g>
       <use xlink:href="#mc7d98547eb" x="163.845036" y="3.6" style="stroke: #000000; stroke-width: 0.5"/>
      </g>
     </g>
     <g id="text_3">
      <!-- $\mathdefault{40}$ -->
      <g transform="translate(158.863701 155.100182) scale(0.1 -0.1)">
       <defs>
        <path id="CMR17-34" d="M 2150 4122 
C 2150 4256 2144 4256 2029 4256 
L 128 1254 
L 128 1088 
L 1779 1088 
L 1779 457 
C 1779 224 1766 160 1318 160 
L 1197 160 
L 1197 0 
C 1402 0 1747 0 1965 0 
C 2182 0 2528 0 2733 0 
L 2733 160 
L 2611 160 
C 2163 160 2150 224 2150 457 
L 2150 1088 
L 2803 1088 
L 2803 1254 
L 2150 1254 
L 2150 4122 
z
M 1798 3703 
L 1798 1254 
L 256 1254 
L 1798 3703 
z
" transform="scale(0.015625)"/>
       </defs>
       <use xlink:href="#CMR17-34" transform="scale(0.996264)"/>
       <use xlink:href="#CMR17-30" transform="translate(45.690477 0) scale(0.996264)"/>
      </g>
     </g>
    </g>
    <g id="xtick_4">
     <g id="line2d_7">
      <g>
       <use xlink:href="#m86dc367493" x="224.849353" y="144.681683" style="stroke: #000000; stroke-width: 0.5"/>
      </g>
     </g>
     <g id="line2d_8">
      <g>
       <use xlink:href="#mc7d98547eb" x="224.849353" y="3.6" style="stroke: #000000; stroke-width: 0.5"/>
      </g>
     </g>
     <g id="text_4">
      <!-- $\mathdefault{60}$ -->
      <g transform="translate(219.868017 155.100182) scale(0.1 -0.1)">
       <defs>
        <path id="CMR17-36" d="M 678 2176 
C 678 3690 1395 4032 1811 4032 
C 1946 4032 2272 4009 2400 3776 
C 2298 3776 2106 3776 2106 3553 
C 2106 3381 2246 3323 2336 3323 
C 2394 3323 2566 3348 2566 3560 
C 2566 3954 2246 4179 1805 4179 
C 1043 4179 243 3390 243 1984 
C 243 253 966 -128 1478 -128 
C 2099 -128 2688 427 2688 1283 
C 2688 2081 2170 2662 1517 2662 
C 1126 2662 838 2407 678 1960 
L 678 2176 
z
M 1478 25 
C 691 25 691 1200 691 1436 
C 691 1896 909 2560 1504 2560 
C 1613 2560 1926 2560 2138 2120 
C 2253 1870 2253 1609 2253 1289 
C 2253 944 2253 690 2118 434 
C 1978 171 1773 25 1478 25 
z
" transform="scale(0.015625)"/>
       </defs>
       <use xlink:href="#CMR17-36" transform="scale(0.996264)"/>
       <use xlink:href="#CMR17-30" transform="translate(45.690477 0) scale(0.996264)"/>
      </g>
     </g>
    </g>
    <g id="xtick_5">
     <g id="line2d_9">
      <defs>
       <path id="md831080de3" d="M 0 0 
L 0 -1.5 
" style="stroke: #000000; stroke-width: 0.5"/>
      </defs>
      <g>
       <use xlink:href="#md831080de3" x="57.087482" y="144.681683" style="stroke: #000000; stroke-width: 0.5"/>
      </g>
     </g>
     <g id="line2d_10">
      <defs>
       <path id="m5ffd6ae6c6" d="M 0 0 
L 0 1.5 
" style="stroke: #000000; stroke-width: 0.5"/>
      </defs>
      <g>
       <use xlink:href="#m5ffd6ae6c6" x="57.087482" y="3.6" style="stroke: #000000; stroke-width: 0.5"/>
      </g>
     </g>
    </g>
    <g id="xtick_6">
     <g id="line2d_11">
      <g>
       <use xlink:href="#md831080de3" x="72.338561" y="144.681683" style="stroke: #000000; stroke-width: 0.5"/>
      </g>
     </g>
     <g id="line2d_12">
      <g>
       <use xlink:href="#m5ffd6ae6c6" x="72.338561" y="3.6" style="stroke: #000000; stroke-width: 0.5"/>
      </g>
     </g>
    </g>
    <g id="xtick_7">
     <g id="line2d_13">
      <g>
       <use xlink:href="#md831080de3" x="87.58964" y="144.681683" style="stroke: #000000; stroke-width: 0.5"/>
      </g>
     </g>
     <g id="line2d_14">
      <g>
       <use xlink:href="#m5ffd6ae6c6" x="87.58964" y="3.6" style="stroke: #000000; stroke-width: 0.5"/>
      </g>
     </g>
    </g>
    <g id="xtick_8">
     <g id="line2d_15">
      <g>
       <use xlink:href="#md831080de3" x="118.091799" y="144.681683" style="stroke: #000000; stroke-width: 0.5"/>
      </g>
     </g>
     <g id="line2d_16">
      <g>
       <use xlink:href="#m5ffd6ae6c6" x="118.091799" y="3.6" style="stroke: #000000; stroke-width: 0.5"/>
      </g>
     </g>
    </g>
    <g id="xtick_9">
     <g id="line2d_17">
      <g>
       <use xlink:href="#md831080de3" x="133.342878" y="144.681683" style="stroke: #000000; stroke-width: 0.5"/>
      </g>
     </g>
     <g id="line2d_18">
      <g>
       <use xlink:href="#m5ffd6ae6c6" x="133.342878" y="3.6" style="stroke: #000000; stroke-width: 0.5"/>
      </g>
     </g>
    </g>
    <g id="xtick_10">
     <g id="line2d_19">
      <g>
       <use xlink:href="#md831080de3" x="148.593957" y="144.681683" style="stroke: #000000; stroke-width: 0.5"/>
      </g>
     </g>
     <g id="line2d_20">
      <g>
       <use xlink:href="#m5ffd6ae6c6" x="148.593957" y="3.6" style="stroke: #000000; stroke-width: 0.5"/>
      </g>
     </g>
    </g>
    <g id="xtick_11">
     <g id="line2d_21">
      <g>
       <use xlink:href="#md831080de3" x="179.096115" y="144.681683" style="stroke: #000000; stroke-width: 0.5"/>
      </g>
     </g>
     <g id="line2d_22">
      <g>
       <use xlink:href="#m5ffd6ae6c6" x="179.096115" y="3.6" style="stroke: #000000; stroke-width: 0.5"/>
      </g>
     </g>
    </g>
    <g id="xtick_12">
     <g id="line2d_23">
      <g>
       <use xlink:href="#md831080de3" x="194.347194" y="144.681683" style="stroke: #000000; stroke-width: 0.5"/>
      </g>
     </g>
     <g id="line2d_24">
      <g>
       <use xlink:href="#m5ffd6ae6c6" x="194.347194" y="3.6" style="stroke: #000000; stroke-width: 0.5"/>
      </g>
     </g>
    </g>
    <g id="xtick_13">
     <g id="line2d_25">
      <g>
       <use xlink:href="#md831080de3" x="209.598273" y="144.681683" style="stroke: #000000; stroke-width: 0.5"/>
      </g>
     </g>
     <g id="line2d_26">
      <g>
       <use xlink:href="#m5ffd6ae6c6" x="209.598273" y="3.6" style="stroke: #000000; stroke-width: 0.5"/>
      </g>
     </g>
    </g>
    <g id="text_5">
     <!-- $\tau$ [1/keV] -->
     <g transform="translate(112.751653 168.50934) scale(0.1 -0.1)">
      <defs>
       <path id="CMMI12-1c" d="M 1837 2408 
L 2899 2408 
C 2982 2408 3194 2408 3194 2612 
C 3194 2752 3072 2752 2957 2752 
L 1197 2752 
C 1050 2752 832 2752 538 2440 
C 371 2255 166 1917 166 1879 
C 166 1841 198 1828 237 1828 
C 282 1828 288 1847 320 1885 
C 653 2408 986 2408 1146 2408 
L 1677 2408 
L 1011 223 
C 979 127 979 114 979 95 
C 979 25 1024 -64 1152 -64 
C 1350 -64 1382 108 1402 203 
L 1837 2408 
z
" transform="scale(0.015625)"/>
       <path id="CMR17-5b" d="M 1504 -1600 
L 1504 -1377 
L 902 -1377 
L 902 4544 
L 1504 4544 
L 1504 4767 
L 678 4767 
L 678 -1600 
L 1504 -1600 
z
" transform="scale(0.015625)"/>
       <path id="CMR17-31" d="M 1702 4058 
C 1702 4192 1696 4192 1606 4192 
C 1357 3916 979 3827 621 3827 
C 602 3827 570 3827 563 3808 
C 557 3795 557 3782 557 3648 
C 755 3648 1088 3686 1344 3839 
L 1344 461 
C 1344 236 1331 160 781 160 
L 589 160 
L 589 0 
C 896 0 1216 0 1523 0 
C 1830 0 2150 0 2458 0 
L 2458 160 
L 2266 160 
C 1715 160 1702 230 1702 458 
L 1702 4058 
z
" transform="scale(0.015625)"/>
       <path id="CMR17-2f" d="M 2605 4545 
C 2637 4627 2637 4640 2637 4653 
C 2637 4729 2579 4768 2528 4768 
C 2451 4768 2426 4717 2400 4640 
L 326 -1377 
C 294 -1460 294 -1473 294 -1486 
C 294 -1562 352 -1600 403 -1600 
C 480 -1600 506 -1549 531 -1473 
L 2605 4545 
z
" transform="scale(0.015625)"/>
       <path id="CMR17-6b" d="M 1670 1673 
C 1664 1686 1632 1724 1632 1743 
C 1632 1756 2086 2171 2144 2222 
C 2509 2528 2739 2560 2906 2560 
L 2906 2733 
C 2867 2733 2854 2733 2848 2720 
L 2534 2720 
C 2355 2720 2080 2720 1907 2733 
L 1907 2566 
C 1997 2559 2061 2508 2061 2419 
C 2061 2291 1933 2170 1926 2170 
L 960 1289 
L 960 4396 
L 198 4326 
L 198 4160 
C 576 4160 634 4122 634 3817 
L 634 426 
C 634 184 608 153 198 153 
L 198 -13 
C 352 0 634 0 794 0 
C 954 0 1235 0 1389 -13 
L 1389 153 
C 979 153 954 178 954 428 
L 954 1130 
L 1395 1532 
L 2042 574 
C 2118 459 2182 369 2182 286 
C 2182 172 2067 153 1990 153 
L 1990 -13 
C 2144 0 2419 0 2579 0 
C 2694 0 2931 0 3040 0 
L 3040 153 
C 2739 153 2669 210 2477 491 
L 1670 1673 
z
" transform="scale(0.015625)"/>
       <path id="CMR17-65" d="M 2438 1472 
C 2464 1498 2464 1511 2464 1576 
C 2464 2238 2118 2816 1389 2816 
C 710 2816 173 2169 173 1383 
C 173 551 781 -64 1459 -64 
C 2176 -64 2458 607 2458 740 
C 2458 784 2419 784 2406 784 
C 2362 784 2355 771 2330 696 
C 2189 265 1837 51 1504 51 
C 1229 51 954 203 781 480 
C 582 803 582 1176 582 1472 
L 2438 1472 
z
M 589 1568 
C 634 2505 1126 2714 1382 2714 
C 1818 2714 2112 2297 2118 1568 
L 589 1568 
z
" transform="scale(0.015625)"/>
       <path id="CMR17-56" d="M 3776 3745 
C 3834 3886 3936 4160 4365 4160 
L 4365 4332 
C 4218 4319 4051 4319 3891 4319 
C 3738 4319 3475 4319 3328 4332 
L 3328 4160 
C 3648 4160 3661 3936 3661 3898 
C 3661 3827 3642 3783 3622 3732 
L 2362 446 
L 1043 3886 
C 1024 3931 1011 3963 1011 3994 
C 1011 4160 1267 4160 1402 4160 
L 1402 4319 
C 1197 4319 896 4319 685 4319 
C 518 4319 218 4319 64 4332 
L 64 4160 
C 435 4160 506 4135 582 3931 
L 2106 -26 
C 2138 -115 2144 -128 2214 -128 
C 2285 -128 2291 -115 2323 -26 
L 3776 3745 
z
" transform="scale(0.015625)"/>
       <path id="CMR17-5d" d="M 915 4767 
L 90 4767 
L 90 4544 
L 691 4544 
L 691 -1377 
L 90 -1377 
L 90 -1600 
L 915 -1600 
L 915 4767 
z
" transform="scale(0.015625)"/>
      </defs>
      <use xlink:href="#CMMI12-1c" transform="scale(0.996264)"/>
      <use xlink:href="#CMR17-5b" transform="translate(83.567132 0) scale(0.996264)"/>
      <use xlink:href="#CMR17-31" transform="translate(108.43819 0) scale(0.996264)"/>
      <use xlink:href="#CMR17-2f" transform="translate(154.128667 0) scale(0.996264)"/>
      <use xlink:href="#CMR17-6b" transform="translate(199.819144 0) scale(0.996264)"/>
      <use xlink:href="#CMR17-65" transform="translate(245.509606 0) scale(0.996264)"/>
      <use xlink:href="#CMR17-56" transform="translate(285.995267 0) scale(0.996264)"/>
      <use xlink:href="#CMR17-5d" transform="translate(355.067697 0) scale(0.996264)"/>
     </g>
    </g>
   </g>
   <g id="matplotlib.axis_2">
    <g id="ytick_1">
     <g id="line2d_27">
      <defs>
       <path id="md5e353b619" d="M 0 0 
L 3 0 
" style="stroke: #000000; stroke-width: 0.5"/>
      </defs>
      <g>
       <use xlink:href="#md5e353b619" x="32.685756" y="132.959494" style="stroke: #000000; stroke-width: 0.5"/>
      </g>
     </g>
     <g id="line2d_28">
      <defs>
       <path id="mf3e1151ac0" d="M 0 0 
L -3 0 
" style="stroke: #000000; stroke-width: 0.5"/>
      </defs>
      <g>
       <use xlink:href="#mf3e1151ac0" x="234" y="132.959494" style="stroke: #000000; stroke-width: 0.5"/>
      </g>
     </g>
     <g id="text_6">
      <!-- $\mathdefault{1.5}$ -->
      <g transform="translate(16.455677 136.418743) scale(0.1 -0.1)">
       <defs>
        <path id="CMMI12-3a" d="M 1178 307 
C 1178 492 1024 619 870 619 
C 685 619 557 466 557 313 
C 557 128 710 0 864 0 
C 1050 0 1178 153 1178 307 
z
" transform="scale(0.015625)"/>
        <path id="CMR17-35" d="M 730 3692 
C 794 3666 1056 3584 1325 3584 
C 1920 3584 2246 3911 2432 4100 
C 2432 4157 2432 4192 2394 4192 
C 2387 4192 2374 4192 2323 4163 
C 2099 4058 1837 3973 1517 3973 
C 1325 3973 1037 3999 723 4139 
C 653 4171 640 4171 634 4171 
C 602 4171 595 4164 595 4037 
L 595 2203 
C 595 2089 595 2057 659 2057 
C 691 2057 704 2070 736 2114 
C 941 2401 1222 2522 1542 2522 
C 1766 2522 2246 2382 2246 1289 
C 2246 1085 2246 715 2054 421 
C 1894 159 1645 25 1370 25 
C 947 25 518 320 403 814 
C 429 807 480 795 506 795 
C 589 795 749 840 749 1038 
C 749 1210 627 1280 506 1280 
C 358 1280 262 1190 262 1011 
C 262 454 704 -128 1382 -128 
C 2042 -128 2669 440 2669 1264 
C 2669 2030 2170 2624 1549 2624 
C 1222 2624 947 2503 730 2274 
L 730 3692 
z
" transform="scale(0.015625)"/>
       </defs>
       <use xlink:href="#CMR17-31" transform="scale(0.996264)"/>
       <use xlink:href="#CMMI12-3a" transform="translate(45.690477 0) scale(0.996264)"/>
       <use xlink:href="#CMR17-35" transform="translate(72.787654 0) scale(0.996264)"/>
      </g>
     </g>
    </g>
    <g id="ytick_2">
     <g id="line2d_29">
      <g>
       <use xlink:href="#md5e353b619" x="32.685756" y="106.363955" style="stroke: #000000; stroke-width: 0.5"/>
      </g>
     </g>
     <g id="line2d_30">
      <g>
       <use xlink:href="#mf3e1151ac0" x="234" y="106.363955" style="stroke: #000000; stroke-width: 0.5"/>
      </g>
     </g>
     <g id="text_7">
      <!-- $\mathdefault{2.0}$ -->
      <g transform="translate(16.455677 109.823204) scale(0.1 -0.1)">
       <use xlink:href="#CMR17-32" transform="scale(0.996264)"/>
       <use xlink:href="#CMMI12-3a" transform="translate(45.690477 0) scale(0.996264)"/>
       <use xlink:href="#CMR17-30" transform="translate(72.787654 0) scale(0.996264)"/>
      </g>
     </g>
    </g>
    <g id="ytick_3">
     <g id="line2d_31">
      <g>
       <use xlink:href="#md5e353b619" x="32.685756" y="79.768416" style="stroke: #000000; stroke-width: 0.5"/>
      </g>
     </g>
     <g id="line2d_32">
      <g>
       <use xlink:href="#mf3e1151ac0" x="234" y="79.768416" style="stroke: #000000; stroke-width: 0.5"/>
      </g>
     </g>
     <g id="text_8">
      <!-- $\mathdefault{2.5}$ -->
      <g transform="translate(16.455677 83.227666) scale(0.1 -0.1)">
       <use xlink:href="#CMR17-32" transform="scale(0.996264)"/>
       <use xlink:href="#CMMI12-3a" transform="translate(45.690477 0) scale(0.996264)"/>
       <use xlink:href="#CMR17-35" transform="translate(72.787654 0) scale(0.996264)"/>
      </g>
     </g>
    </g>
    <g id="ytick_4">
     <g id="line2d_33">
      <g>
       <use xlink:href="#md5e353b619" x="32.685756" y="53.172878" style="stroke: #000000; stroke-width: 0.5"/>
      </g>
     </g>
     <g id="line2d_34">
      <g>
       <use xlink:href="#mf3e1151ac0" x="234" y="53.172878" style="stroke: #000000; stroke-width: 0.5"/>
      </g>
     </g>
     <g id="text_9">
      <!-- $\mathdefault{3.0}$ -->
      <g transform="translate(16.455677 56.632127) scale(0.1 -0.1)">
       <defs>
        <path id="CMR17-33" d="M 1414 2157 
C 1984 2157 2234 1662 2234 1090 
C 2234 320 1824 25 1453 25 
C 1114 25 563 194 390 693 
C 422 680 454 680 486 680 
C 640 680 755 782 755 948 
C 755 1133 614 1216 486 1216 
C 378 1216 211 1165 211 926 
C 211 335 787 -128 1466 -128 
C 2176 -128 2720 430 2720 1085 
C 2720 1707 2208 2157 1600 2227 
C 2086 2328 2554 2756 2554 3329 
C 2554 3820 2048 4179 1472 4179 
C 890 4179 378 3829 378 3329 
C 378 3110 544 3072 627 3072 
C 762 3072 877 3155 877 3321 
C 877 3486 762 3569 627 3569 
C 602 3569 570 3569 544 3557 
C 730 3959 1235 4032 1459 4032 
C 1683 4032 2106 3925 2106 3320 
C 2106 3143 2080 2828 1862 2550 
C 1670 2304 1453 2304 1242 2284 
C 1210 2284 1062 2269 1037 2269 
C 992 2263 966 2257 966 2208 
C 966 2163 973 2157 1101 2157 
L 1414 2157 
z
" transform="scale(0.015625)"/>
       </defs>
       <use xlink:href="#CMR17-33" transform="scale(0.996264)"/>
       <use xlink:href="#CMMI12-3a" transform="translate(45.690477 0) scale(0.996264)"/>
       <use xlink:href="#CMR17-30" transform="translate(72.787654 0) scale(0.996264)"/>
      </g>
     </g>
    </g>
    <g id="ytick_5">
     <g id="line2d_35">
      <g>
       <use xlink:href="#md5e353b619" x="32.685756" y="26.577339" style="stroke: #000000; stroke-width: 0.5"/>
      </g>
     </g>
     <g id="line2d_36">
      <g>
       <use xlink:href="#mf3e1151ac0" x="234" y="26.577339" style="stroke: #000000; stroke-width: 0.5"/>
      </g>
     </g>
     <g id="text_10">
      <!-- $\mathdefault{3.5}$ -->
      <g transform="translate(16.455677 30.036589) scale(0.1 -0.1)">
       <use xlink:href="#CMR17-33" transform="scale(0.996264)"/>
       <use xlink:href="#CMMI12-3a" transform="translate(45.690477 0) scale(0.996264)"/>
       <use xlink:href="#CMR17-35" transform="translate(72.787654 0) scale(0.996264)"/>
      </g>
     </g>
    </g>
    <g id="ytick_6">
     <g id="line2d_37">
      <defs>
       <path id="m8581b6a8f9" d="M 0 0 
L 1.5 0 
" style="stroke: #000000; stroke-width: 0.5"/>
      </defs>
      <g>
       <use xlink:href="#m8581b6a8f9" x="32.685756" y="143.597709" style="stroke: #000000; stroke-width: 0.5"/>
      </g>
     </g>
     <g id="line2d_38">
      <defs>
       <path id="m3bcdc239ff" d="M 0 0 
L -1.5 0 
" style="stroke: #000000; stroke-width: 0.5"/>
      </defs>
      <g>
       <use xlink:href="#m3bcdc239ff" x="234" y="143.597709" style="stroke: #000000; stroke-width: 0.5"/>
      </g>
     </g>
    </g>
    <g id="ytick_7">
     <g id="line2d_39">
      <g>
       <use xlink:href="#m8581b6a8f9" x="32.685756" y="138.278601" style="stroke: #000000; stroke-width: 0.5"/>
      </g>
     </g>
     <g id="line2d_40">
      <g>
       <use xlink:href="#m3bcdc239ff" x="234" y="138.278601" style="stroke: #000000; stroke-width: 0.5"/>
      </g>
     </g>
    </g>
    <g id="ytick_8">
     <g id="line2d_41">
      <g>
       <use xlink:href="#m8581b6a8f9" x="32.685756" y="127.640386" style="stroke: #000000; stroke-width: 0.5"/>
      </g>
     </g>
     <g id="line2d_42">
      <g>
       <use xlink:href="#m3bcdc239ff" x="234" y="127.640386" style="stroke: #000000; stroke-width: 0.5"/>
      </g>
     </g>
    </g>
    <g id="ytick_9">
     <g id="line2d_43">
      <g>
       <use xlink:href="#m8581b6a8f9" x="32.685756" y="122.321278" style="stroke: #000000; stroke-width: 0.5"/>
      </g>
     </g>
     <g id="line2d_44">
      <g>
       <use xlink:href="#m3bcdc239ff" x="234" y="122.321278" style="stroke: #000000; stroke-width: 0.5"/>
      </g>
     </g>
    </g>
    <g id="ytick_10">
     <g id="line2d_45">
      <g>
       <use xlink:href="#m8581b6a8f9" x="32.685756" y="117.00217" style="stroke: #000000; stroke-width: 0.5"/>
      </g>
     </g>
     <g id="line2d_46">
      <g>
       <use xlink:href="#m3bcdc239ff" x="234" y="117.00217" style="stroke: #000000; stroke-width: 0.5"/>
      </g>
     </g>
    </g>
    <g id="ytick_11">
     <g id="line2d_47">
      <g>
       <use xlink:href="#m8581b6a8f9" x="32.685756" y="111.683063" style="stroke: #000000; stroke-width: 0.5"/>
      </g>
     </g>
     <g id="line2d_48">
      <g>
       <use xlink:href="#m3bcdc239ff" x="234" y="111.683063" style="stroke: #000000; stroke-width: 0.5"/>
      </g>
     </g>
    </g>
    <g id="ytick_12">
     <g id="line2d_49">
      <g>
       <use xlink:href="#m8581b6a8f9" x="32.685756" y="101.044847" style="stroke: #000000; stroke-width: 0.5"/>
      </g>
     </g>
     <g id="line2d_50">
      <g>
       <use xlink:href="#m3bcdc239ff" x="234" y="101.044847" style="stroke: #000000; stroke-width: 0.5"/>
      </g>
     </g>
    </g>
    <g id="ytick_13">
     <g id="line2d_51">
      <g>
       <use xlink:href="#m8581b6a8f9" x="32.685756" y="95.72574" style="stroke: #000000; stroke-width: 0.5"/>
      </g>
     </g>
     <g id="line2d_52">
      <g>
       <use xlink:href="#m3bcdc239ff" x="234" y="95.72574" style="stroke: #000000; stroke-width: 0.5"/>
      </g>
     </g>
    </g>
    <g id="ytick_14">
     <g id="line2d_53">
      <g>
       <use xlink:href="#m8581b6a8f9" x="32.685756" y="90.406632" style="stroke: #000000; stroke-width: 0.5"/>
      </g>
     </g>
     <g id="line2d_54">
      <g>
       <use xlink:href="#m3bcdc239ff" x="234" y="90.406632" style="stroke: #000000; stroke-width: 0.5"/>
      </g>
     </g>
    </g>
    <g id="ytick_15">
     <g id="line2d_55">
      <g>
       <use xlink:href="#m8581b6a8f9" x="32.685756" y="85.087524" style="stroke: #000000; stroke-width: 0.5"/>
      </g>
     </g>
     <g id="line2d_56">
      <g>
       <use xlink:href="#m3bcdc239ff" x="234" y="85.087524" style="stroke: #000000; stroke-width: 0.5"/>
      </g>
     </g>
    </g>
    <g id="ytick_16">
     <g id="line2d_57">
      <g>
       <use xlink:href="#m8581b6a8f9" x="32.685756" y="74.449309" style="stroke: #000000; stroke-width: 0.5"/>
      </g>
     </g>
     <g id="line2d_58">
      <g>
       <use xlink:href="#m3bcdc239ff" x="234" y="74.449309" style="stroke: #000000; stroke-width: 0.5"/>
      </g>
     </g>
    </g>
    <g id="ytick_17">
     <g id="line2d_59">
      <g>
       <use xlink:href="#m8581b6a8f9" x="32.685756" y="69.130201" style="stroke: #000000; stroke-width: 0.5"/>
      </g>
     </g>
     <g id="line2d_60">
      <g>
       <use xlink:href="#m3bcdc239ff" x="234" y="69.130201" style="stroke: #000000; stroke-width: 0.5"/>
      </g>
     </g>
    </g>
    <g id="ytick_18">
     <g id="line2d_61">
      <g>
       <use xlink:href="#m8581b6a8f9" x="32.685756" y="63.811093" style="stroke: #000000; stroke-width: 0.5"/>
      </g>
     </g>
     <g id="line2d_62">
      <g>
       <use xlink:href="#m3bcdc239ff" x="234" y="63.811093" style="stroke: #000000; stroke-width: 0.5"/>
      </g>
     </g>
    </g>
    <g id="ytick_19">
     <g id="line2d_63">
      <g>
       <use xlink:href="#m8581b6a8f9" x="32.685756" y="58.491986" style="stroke: #000000; stroke-width: 0.5"/>
      </g>
     </g>
     <g id="line2d_64">
      <g>
       <use xlink:href="#m3bcdc239ff" x="234" y="58.491986" style="stroke: #000000; stroke-width: 0.5"/>
      </g>
     </g>
    </g>
    <g id="ytick_20">
     <g id="line2d_65">
      <g>
       <use xlink:href="#m8581b6a8f9" x="32.685756" y="47.85377" style="stroke: #000000; stroke-width: 0.5"/>
      </g>
     </g>
     <g id="line2d_66">
      <g>
       <use xlink:href="#m3bcdc239ff" x="234" y="47.85377" style="stroke: #000000; stroke-width: 0.5"/>
      </g>
     </g>
    </g>
    <g id="ytick_21">
     <g id="line2d_67">
      <g>
       <use xlink:href="#m8581b6a8f9" x="32.685756" y="42.534662" style="stroke: #000000; stroke-width: 0.5"/>
      </g>
     </g>
     <g id="line2d_68">
      <g>
       <use xlink:href="#m3bcdc239ff" x="234" y="42.534662" style="stroke: #000000; stroke-width: 0.5"/>
      </g>
     </g>
    </g>
    <g id="ytick_22">
     <g id="line2d_69">
      <g>
       <use xlink:href="#m8581b6a8f9" x="32.685756" y="37.215555" style="stroke: #000000; stroke-width: 0.5"/>
      </g>
     </g>
     <g id="line2d_70">
      <g>
       <use xlink:href="#m3bcdc239ff" x="234" y="37.215555" style="stroke: #000000; stroke-width: 0.5"/>
      </g>
     </g>
    </g>
    <g id="ytick_23">
     <g id="line2d_71">
      <g>
       <use xlink:href="#m8581b6a8f9" x="32.685756" y="31.896447" style="stroke: #000000; stroke-width: 0.5"/>
      </g>
     </g>
     <g id="line2d_72">
      <g>
       <use xlink:href="#m3bcdc239ff" x="234" y="31.896447" style="stroke: #000000; stroke-width: 0.5"/>
      </g>
     </g>
    </g>
    <g id="ytick_24">
     <g id="line2d_73">
      <g>
       <use xlink:href="#m8581b6a8f9" x="32.685756" y="21.258232" style="stroke: #000000; stroke-width: 0.5"/>
      </g>
     </g>
     <g id="line2d_74">
      <g>
       <use xlink:href="#m3bcdc239ff" x="234" y="21.258232" style="stroke: #000000; stroke-width: 0.5"/>
      </g>
     </g>
    </g>
    <g id="ytick_25">
     <g id="line2d_75">
      <g>
       <use xlink:href="#m8581b6a8f9" x="32.685756" y="15.939124" style="stroke: #000000; stroke-width: 0.5"/>
      </g>
     </g>
     <g id="line2d_76">
      <g>
       <use xlink:href="#m3bcdc239ff" x="234" y="15.939124" style="stroke: #000000; stroke-width: 0.5"/>
      </g>
     </g>
    </g>
    <g id="ytick_26">
     <g id="line2d_77">
      <g>
       <use xlink:href="#m8581b6a8f9" x="32.685756" y="10.620016" style="stroke: #000000; stroke-width: 0.5"/>
      </g>
     </g>
     <g id="line2d_78">
      <g>
       <use xlink:href="#m3bcdc239ff" x="234" y="10.620016" style="stroke: #000000; stroke-width: 0.5"/>
      </g>
     </g>
    </g>
    <g id="ytick_27">
     <g id="line2d_79">
      <g>
       <use xlink:href="#m8581b6a8f9" x="32.685756" y="5.300908" style="stroke: #000000; stroke-width: 0.5"/>
      </g>
     </g>
     <g id="line2d_80">
      <g>
       <use xlink:href="#m3bcdc239ff" x="234" y="5.300908" style="stroke: #000000; stroke-width: 0.5"/>
      </g>
     </g>
    </g>
    <g id="text_11">
     <!-- $\mathcal{L}$ -->
     <g transform="translate(10.518498 77.576581) rotate(-90) scale(0.1 -0.1)">
      <defs>
       <path id="CMSY10-4c" d="M 1152 610 
C 1498 1151 1606 1562 1690 1903 
C 1914 2790 2157 3562 2554 4005 
C 2630 4090 2682 4147 2886 4147 
C 3328 4147 3341 3704 3341 3613 
C 3341 3498 3309 3407 3309 3375 
C 3309 3330 3347 3330 3354 3330 
C 3456 3330 3629 3401 3789 3517 
C 3904 3607 3962 3671 3962 3934 
C 3962 4281 3782 4544 3424 4544 
C 3219 4544 2656 4493 2029 3856 
C 1517 3329 1216 2172 1094 1690 
C 979 1248 928 1048 736 662 
C 691 586 525 303 435 219 
C 262 59 198 -57 198 -89 
C 198 -102 211 -128 256 -128 
C 282 -128 416 -102 582 5 
C 691 68 704 80 851 231 
C 1171 231 1395 173 1798 58 
C 2125 -32 2451 -128 2778 -128 
C 3296 -128 3821 264 4026 546 
C 4154 719 4192 880 4192 899 
C 4192 944 4154 944 4147 944 
C 4045 944 3891 874 3782 796 
C 3610 687 3597 649 3558 539 
C 3526 436 3488 385 3462 346 
C 3411 269 3405 269 3309 269 
C 3002 269 2682 366 2259 481 
C 2080 532 1728 636 1408 636 
C 1325 636 1235 629 1152 610 
z
" transform="scale(0.015625)"/>
      </defs>
      <use xlink:href="#CMSY10-4c" transform="scale(0.996264)"/>
     </g>
    </g>
   </g>
   <g id="line2d_81">
    <path d="M 41.836403 138.194903 
L 45.571361 138.208581 
L 49.306319 138.220854 
L 53.041278 138.231727 
L 56.776236 138.241203 
L 60.511194 138.249285 
L 64.246152 138.255977 
L 67.98111 138.261281 
L 71.716068 138.265198 
L 75.451027 138.267731 
L 79.185985 138.268879 
L 82.920943 138.268644 
L 86.655901 138.267026 
L 90.390859 138.264023 
L 94.125817 138.259635 
L 97.860775 138.253861 
L 101.595734 138.246698 
L 105.330692 138.238144 
L 109.06565 138.228196 
L 112.800608 138.21685 
L 116.535566 138.204104 
L 120.270524 138.189952 
L 124.005482 138.174389 
L 127.740441 138.15741 
L 131.475399 138.13901 
L 135.210357 138.119181 
L 138.945315 138.097917 
L 142.680273 138.075211 
L 146.415231 138.051055 
L 150.15019 138.02544 
L 153.885148 137.998357 
L 157.620106 137.969797 
L 161.355064 137.939751 
L 165.090022 137.908207 
L 168.82498 137.875155 
L 172.559938 137.840583 
L 176.294897 137.804479 
L 180.029855 137.76683 
L 183.764813 137.727624 
L 187.499771 137.686847 
L 191.234729 137.644484 
L 194.969687 137.600521 
L 198.704645 137.554942 
L 202.439604 137.507731 
L 206.174562 137.458873 
L 209.90952 137.408348 
L 213.644478 137.356141 
L 217.379436 137.302232 
L 221.114394 137.246603 
L 224.849353 137.189235 
" clip-path="url(#pc7b8332cd2)" style="fill: none; stroke-dasharray: 3.7,1.6; stroke-dashoffset: 0; stroke: #0c5da5"/>
   </g>
   <g id="line2d_82">
    <path d="M 41.836403 138.194903 
L 45.571361 138.208581 
L 49.306319 138.220854 
L 53.041278 138.231727 
L 56.776236 138.241203 
L 60.511194 138.249285 
L 64.246152 138.255977 
L 67.98111 138.261281 
L 71.716068 138.265198 
L 75.451027 138.267731 
L 79.185985 138.268879 
L 82.920943 138.268644 
L 86.655901 138.267026 
L 90.390859 138.264023 
L 94.125817 138.259635 
L 97.860775 138.253861 
L 101.595734 138.246698 
L 105.330692 138.238144 
L 109.06565 138.228196 
L 112.800608 138.21685 
L 116.535566 138.204104 
L 120.270524 138.189952 
L 124.005482 138.174389 
L 127.740441 138.15741 
L 131.475399 138.13901 
L 135.210357 138.119181 
L 138.945315 138.097917 
L 142.680273 138.075211 
L 146.415231 138.051055 
L 150.15019 138.02544 
L 153.885148 137.998357 
L 157.620106 137.969797 
L 161.355064 137.939751 
L 165.090022 137.908207 
L 168.82498 137.875155 
L 172.559938 137.840583 
L 176.294897 137.804479 
L 180.029855 137.76683 
L 183.764813 137.727624 
L 187.499771 137.686847 
L 191.234729 137.644484 
L 194.969687 137.600521 
L 198.704645 137.554942 
L 202.439604 137.507731 
L 206.174562 137.458873 
L 209.90952 137.408348 
L 213.644478 137.356141 
L 217.379436 137.302232 
L 221.114394 137.246603 
L 224.849353 137.189235 
" clip-path="url(#pc7b8332cd2)" style="fill: none; stroke: #0c5da5; stroke-opacity: 0.5; stroke-linecap: square"/>
   </g>
   <g id="line2d_83">
    <path d="M 41.836403 131.659878 
L 45.571361 131.756387 
L 49.306319 131.842617 
L 53.041278 131.918687 
L 56.776236 131.984702 
L 60.511194 132.040755 
L 64.246152 132.086922 
L 67.98111 132.123269 
L 71.716068 132.149845 
L 75.451027 132.166687 
L 79.185985 132.173819 
L 82.920943 132.171251 
L 86.655901 132.15898 
L 90.390859 132.136988 
L 94.125817 132.105247 
L 97.860775 132.063712 
L 101.595734 132.012326 
L 105.330692 131.951019 
L 109.06565 131.879706 
L 112.800608 131.798289 
L 116.535566 131.706655 
L 120.270524 131.604678 
L 124.005482 131.492217 
L 127.740441 131.369116 
L 131.475399 131.235205 
L 135.210357 131.090296 
L 138.945315 130.93419 
L 142.680273 130.766669 
L 146.415231 130.587499 
L 150.15019 130.39643 
L 153.885148 130.193195 
L 157.620106 129.977509 
L 161.355064 129.74907 
L 165.090022 129.507556 
L 168.82498 129.252627 
L 172.559938 128.983923 
L 176.294897 128.701065 
L 180.029855 128.403652 
L 183.764813 128.091262 
L 187.499771 127.763449 
L 191.234729 127.419748 
L 194.969687 127.059665 
L 198.704645 126.682686 
L 202.439604 126.28827 
L 206.174562 125.875848 
L 209.90952 125.444826 
L 213.644478 124.99458 
L 217.379436 124.524457 
L 221.114394 124.033775 
L 224.849353 123.521818 
" clip-path="url(#pc7b8332cd2)" style="fill: none; stroke-dasharray: 3.7,1.6; stroke-dashoffset: 0; stroke: #00b945"/>
   </g>
   <g id="line2d_84">
    <path d="M 41.836403 131.659878 
L 45.571361 131.756387 
L 49.306319 131.842617 
L 53.041278 131.918687 
L 56.776236 131.984702 
L 60.511194 132.040755 
L 64.246152 132.086922 
L 67.98111 132.123269 
L 71.716068 132.149845 
L 75.451027 132.166687 
L 79.185985 132.173819 
L 82.920943 132.171251 
L 86.655901 132.15898 
L 90.390859 132.136988 
L 94.125817 132.105247 
L 97.860775 132.063712 
L 101.595734 132.012326 
L 105.330692 131.951019 
L 109.06565 131.879706 
L 112.800608 131.798289 
L 116.535566 131.706655 
L 120.270524 131.604678 
L 124.005482 131.492217 
L 127.740441 131.369116 
L 131.475399 131.235205 
L 135.210357 131.090296 
L 138.945315 130.93419 
L 142.680273 130.766669 
L 146.415231 130.587499 
L 150.15019 130.39643 
L 153.885148 130.193195 
L 157.620106 129.977509 
L 161.355064 129.74907 
L 165.090022 129.507556 
L 168.82498 129.252627 
L 172.559938 128.983923 
L 176.294897 128.701065 
L 180.029855 128.403652 
L 183.764813 128.091262 
L 187.499771 127.763449 
L 191.234729 127.419748 
L 194.969687 127.059665 
L 198.704645 126.682686 
L 202.439604 126.28827 
L 206.174562 125.875848 
L 209.90952 125.444826 
L 213.644478 124.99458 
L 217.379436 124.524457 
L 221.114394 124.033775 
L 224.849353 123.521818 
" clip-path="url(#pc7b8332cd2)" style="fill: none; stroke: #00b945; stroke-opacity: 0.5; stroke-linecap: square"/>
   </g>
   <g id="line2d_85">
    <path d="M 41.836403 123.412222 
L 45.571361 123.846736 
L 49.306319 124.231052 
L 53.041278 124.566991 
L 56.776236 124.85614 
L 60.511194 125.099862 
L 64.246152 125.2993 
L 67.98111 125.45539 
L 71.716068 125.568861 
L 75.451027 125.640244 
L 79.185985 125.669873 
L 82.920943 125.657885 
L 86.655901 125.604226 
L 90.390859 125.508647 
L 94.125817 125.370702 
L 97.860775 125.189748 
L 101.595734 124.96494 
L 105.330692 124.695224 
L 109.06565 124.379334 
L 112.800608 124.01578 
L 116.535566 123.602845 
L 120.270524 123.138567 
L 124.005482 122.620735 
L 127.740441 122.046868 
L 131.475399 121.414205 
L 135.210357 120.719685 
L 138.945315 119.95993 
L 142.680273 119.131224 
L 146.415231 118.229488 
L 150.15019 117.250255 
L 153.885148 116.188644 
L 157.620106 115.039328 
L 161.355064 113.796499 
L 165.090022 112.453834 
L 168.82498 111.004452 
L 172.559938 109.440872 
L 176.294897 107.754965 
L 180.029855 105.9379 
L 183.764813 103.980087 
L 187.499771 101.871117 
L 191.234729 99.599693 
L 194.969687 97.153555 
L 198.704645 94.5194 
L 202.439604 91.682795 
L 206.174562 88.628081 
L 209.90952 85.338267 
L 213.644478 81.794921 
L 217.379436 77.978039 
L 221.114394 73.86592 
L 224.849353 69.43501 
" clip-path="url(#pc7b8332cd2)" style="fill: none; stroke-dasharray: 3.7,1.6; stroke-dashoffset: 0; stroke: #ff9500"/>
   </g>
   <g id="line2d_86">
    <path d="M 41.836403 123.412222 
L 45.571361 123.846736 
L 49.306319 124.231052 
L 53.041278 124.566991 
L 56.776236 124.85614 
L 60.511194 125.099862 
L 64.246152 125.2993 
L 67.98111 125.45539 
L 71.716068 125.568861 
L 75.451027 125.640244 
L 79.185985 125.669873 
L 82.920943 125.657885 
L 86.655901 125.604226 
L 90.390859 125.508647 
L 94.125817 125.370702 
L 97.860775 125.189748 
L 101.595734 124.96494 
L 105.330692 124.695224 
L 109.06565 124.379334 
L 112.800608 124.01578 
L 116.535566 123.602845 
L 120.270524 123.138567 
L 124.005482 122.620735 
L 127.740441 122.046868 
L 131.475399 121.414205 
L 135.210357 120.719685 
L 138.945315 119.95993 
L 142.680273 119.131224 
L 146.415231 118.229488 
L 150.15019 117.250255 
L 153.885148 116.188644 
L 157.620106 115.039328 
L 161.355064 113.796499 
L 165.090022 112.453834 
L 168.82498 111.004452 
L 172.559938 109.440872 
L 176.294897 107.754965 
L 180.029855 105.9379 
L 183.764813 103.980087 
L 187.499771 101.871117 
L 191.234729 99.599693 
L 194.969687 97.153555 
L 198.704645 94.5194 
L 202.439604 91.682795 
L 206.174562 88.628081 
L 209.90952 85.338267 
L 213.644478 81.794921 
L 217.379436 77.978039 
L 221.114394 73.86592 
L 224.849353 69.43501 
" clip-path="url(#pc7b8332cd2)" style="fill: none; stroke: #ff9500; stroke-opacity: 0.5; stroke-linecap: square"/>
   </g>
   <g id="line2d_87">
    <path d="M 41.836403 121.201839 
L 45.571361 121.833216 
L 49.306319 122.387224 
L 53.041278 122.868058 
L 56.776236 123.279331 
L 60.511194 123.624106 
L 64.246152 123.904936 
L 67.98111 124.123889 
L 71.716068 124.282569 
L 75.451027 124.382133 
L 79.185985 124.423309 
L 82.920943 124.406394 
L 86.655901 124.331267 
L 90.390859 124.197381 
L 94.125817 124.00376 
L 97.860775 123.74899 
L 101.595734 123.431198 
L 105.330692 123.04804 
L 109.06565 122.596668 
L 112.800608 122.073706 
L 116.535566 121.475208 
L 120.270524 120.796617 
L 124.005482 120.032713 
L 127.740441 119.177561 
L 131.475399 118.224435 
L 135.210357 117.16575 
L 138.945315 115.992973 
L 142.680273 114.696527 
L 146.415231 113.265675 
L 150.15019 111.688402 
L 153.885148 109.951269 
L 157.620106 108.039255 
L 161.355064 105.935575 
L 165.090022 103.621481 
L 168.82498 101.07603 
L 172.559938 98.275825 
L 176.294897 95.194725 
L 180.029855 91.803519 
L 183.764813 88.069551 
L 187.499771 83.956306 
L 191.234729 79.422937 
L 194.969687 74.423731 
L 198.704645 68.907513 
L 202.439604 62.816962 
L 206.174562 56.087846 
L 209.90952 48.64816 
L 213.644478 40.417139 
L 217.379436 31.304157 
L 221.114394 21.20747 
L 224.849353 10.012804 
" clip-path="url(#pc7b8332cd2)" style="fill: none; stroke-dasharray: 3.7,1.6; stroke-dashoffset: 0; stroke: #ff2c00"/>
   </g>
   <g id="line2d_88">
    <path d="M 41.836403 121.201839 
L 45.571361 121.833216 
L 49.306319 122.387224 
L 53.041278 122.868058 
L 56.776236 123.279331 
L 60.511194 123.624106 
L 64.246152 123.904936 
L 67.98111 124.123889 
L 71.716068 124.282569 
L 75.451027 124.382133 
L 79.185985 124.423309 
L 82.920943 124.406394 
L 86.655901 124.331267 
L 90.390859 124.197381 
L 94.125817 124.00376 
L 97.860775 123.74899 
L 101.595734 123.431198 
L 105.330692 123.04804 
L 109.06565 122.596668 
L 112.800608 122.073706 
L 116.535566 121.475208 
L 120.270524 120.796617 
L 124.005482 120.032713 
L 127.740441 119.177561 
L 131.475399 118.224435 
L 135.210357 117.16575 
L 138.945315 115.992973 
L 142.680273 114.696527 
L 146.415231 113.265675 
L 150.15019 111.688402 
L 153.885148 109.951269 
L 157.620106 108.039255 
L 161.355064 105.935575 
L 165.090022 103.621481 
L 168.82498 101.07603 
L 172.559938 98.275825 
L 176.294897 95.194725 
L 180.029855 91.803519 
L 183.764813 88.069551 
L 187.499771 83.956306 
L 191.234729 79.422937 
L 194.969687 74.423731 
L 198.704645 68.907513 
L 202.439604 62.816962 
L 206.174562 56.087846 
L 209.90952 48.64816 
L 213.644478 40.417139 
L 217.379436 31.304157 
L 221.114394 21.20747 
L 224.849353 10.012804 
" clip-path="url(#pc7b8332cd2)" style="fill: none; stroke: #ff2c00; stroke-opacity: 0.5; stroke-linecap: square"/>
   </g>
   <g id="patch_3">
    <path d="M 32.685756 144.681683 
L 32.685756 3.6 
" style="fill: none; stroke: #000000; stroke-width: 0.5; stroke-linejoin: miter; stroke-linecap: square"/>
   </g>
   <g id="patch_4">
    <path d="M 234 144.681683 
L 234 3.6 
" style="fill: none; stroke: #000000; stroke-width: 0.5; stroke-linejoin: miter; stroke-linecap: square"/>
   </g>
   <g id="patch_5">
    <path d="M 32.685756 144.681683 
L 234 144.681683 
" style="fill: none; stroke: #000000; stroke-width: 0.5; stroke-linejoin: miter; stroke-linecap: square"/>
   </g>
   <g id="patch_6">
    <path d="M 32.685756 3.6 
L 234 3.6 
" style="fill: none; stroke: #000000; stroke-width: 0.5; stroke-linejoin: miter; stroke-linecap: square"/>
   </g>
   <g id="legend_1">
    <g id="line2d_89">
     <path d="M 41.685756 16.1 
L 51.685756 16.1 
L 61.685756 16.1 
" style="fill: none; stroke-dasharray: 3.7,1.6; stroke-dashoffset: 0; stroke: #0c5da5"/>
    </g>
    <g id="text_12">
     <!-- grid -->
     <g transform="translate(69.685756 19.6) scale(0.1 -0.1)">
      <defs>
       <path id="CMR17-67" d="M 710 1164 
C 832 1068 1043 960 1299 960 
C 1805 960 2240 1357 2240 1888 
C 2240 2054 2189 2310 1997 2509 
C 2176 2692 2438 2752 2586 2752 
C 2611 2752 2650 2752 2682 2734 
C 2656 2728 2598 2703 2598 2605 
C 2598 2527 2656 2471 2739 2471 
C 2835 2471 2886 2533 2886 2614 
C 2886 2731 2790 2854 2586 2854 
C 2330 2854 2106 2738 1926 2580 
C 1734 2753 1504 2816 1299 2816 
C 794 2816 358 2419 358 1888 
C 358 1522 570 1292 634 1228 
C 442 1004 442 743 442 711 
C 442 545 506 302 723 168 
C 390 85 128 -169 128 -486 
C 128 -943 736 -1280 1466 -1280 
C 2170 -1280 2803 -956 2803 -479 
C 2803 384 1856 384 1363 384 
C 1216 384 954 384 922 391 
C 723 423 589 602 589 826 
C 589 883 589 1024 710 1164 
z
M 1299 1068 
C 736 1068 736 1760 736 1889 
C 736 2016 736 2708 1299 2708 
C 1862 2708 1862 2016 1862 1889 
C 1862 1760 1862 1068 1299 1068 
z
M 1466 -1171 
C 826 -1171 384 -835 384 -486 
C 384 -289 493 -105 634 -4 
C 794 104 858 104 1293 104 
C 1818 104 2547 104 2547 -486 
C 2547 -835 2106 -1171 1466 -1171 
z
" transform="scale(0.015625)"/>
       <path id="CMR17-72" d="M 960 1497 
C 960 2112 1222 2688 1702 2688 
C 1747 2688 1792 2682 1837 2662 
C 1837 2662 1696 2617 1696 2452 
C 1696 2298 1818 2234 1914 2234 
C 1990 2234 2131 2279 2131 2458 
C 2131 2663 1926 2790 1709 2790 
C 1222 2790 1011 2317 947 2093 
L 941 2093 
L 941 2790 
L 198 2720 
L 198 2554 
C 576 2554 634 2515 634 2208 
L 634 428 
C 634 184 608 153 198 153 
L 198 -13 
C 352 0 646 0 813 0 
C 998 0 1325 0 1498 -13 
L 1498 153 
C 1037 153 960 153 960 440 
L 960 1497 
z
" transform="scale(0.015625)"/>
       <path id="CMR17-69" d="M 992 3909 
C 992 4049 877 4170 730 4170 
C 589 4170 467 4056 467 3909 
C 467 3769 582 3648 730 3648 
C 870 3648 992 3763 992 3909 
z
M 243 2706 
L 243 2541 
C 602 2541 653 2502 653 2197 
L 653 427 
C 653 184 627 153 218 153 
L 218 -13 
C 371 0 646 0 806 0 
C 960 0 1222 0 1370 -13 
L 1370 153 
C 992 153 979 191 979 420 
L 979 2776 
L 243 2706 
z
" transform="scale(0.015625)"/>
       <path id="CMR17-64" d="M 1869 4326 
L 1869 4160 
C 2246 4160 2304 4122 2304 3820 
L 2304 2345 
C 2278 2377 2016 2790 1498 2790 
C 845 2790 211 2208 211 1364 
C 211 525 806 -64 1434 -64 
C 1978 -64 2259 337 2291 380 
L 2291 -63 
L 3066 -63 
L 3066 128 
C 2688 128 2630 166 2630 473 
L 2630 4396 
L 1869 4326 
z
M 2291 755 
C 2291 563 2176 390 2029 262 
C 1811 70 1594 38 1472 38 
C 1286 38 621 134 621 1356 
C 621 2612 1363 2688 1530 2688 
C 1824 2688 2061 2522 2208 2291 
C 2291 2157 2291 2138 2291 2023 
L 2291 755 
z
" transform="scale(0.015625)"/>
      </defs>
      <use xlink:href="#CMR17-67" transform="scale(0.996264)"/>
      <use xlink:href="#CMR17-72" transform="translate(45.690477 0) scale(0.996264)"/>
      <use xlink:href="#CMR17-69" transform="translate(80.971245 0) scale(0.996264)"/>
      <use xlink:href="#CMR17-64" transform="translate(105.842303 0) scale(0.996264)"/>
     </g>
    </g>
    <g id="line2d_90">
     <path d="M 41.685756 30.037178 
L 51.685756 30.037178 
L 61.685756 30.037178 
" style="fill: none; stroke: #0c5da5; stroke-opacity: 0.5; stroke-linecap: square"/>
    </g>
    <g id="text_13">
     <!-- auto -->
     <g transform="translate(69.685756 33.537178) scale(0.1 -0.1)">
      <defs>
       <path id="CMR17-61" d="M 2304 1653 
C 2304 2072 2304 2294 2035 2543 
C 1798 2752 1523 2816 1306 2816 
C 800 2816 435 2407 435 1971 
C 435 1728 627 1728 666 1728 
C 749 1728 896 1778 896 1954 
C 896 2112 774 2181 666 2181 
C 640 2181 608 2174 589 2168 
C 723 2592 1069 2714 1293 2714 
C 1613 2714 1965 2429 1965 1885 
L 1965 1600 
C 1587 1600 1133 1549 774 1357 
C 371 1133 256 813 256 570 
C 256 77 832 -64 1171 -64 
C 1523 -64 1850 139 1990 511 
C 2003 233 2182 -18 2464 -18 
C 2598 -18 2938 70 2938 567 
L 2938 920 
L 2822 920 
L 2822 562 
C 2822 178 2650 128 2566 128 
C 2304 128 2304 458 2304 738 
L 2304 1653 
z
M 1965 870 
C 1965 317 1568 38 1216 38 
C 896 38 646 275 646 570 
C 646 761 730 1100 1101 1305 
C 1408 1478 1760 1504 1965 1504 
L 1965 870 
z
" transform="scale(0.015625)"/>
       <path id="CMR17-75" d="M 1882 2693 
L 1882 2528 
C 2259 2528 2317 2489 2317 2186 
L 2317 1032 
C 2317 500 2029 38 1555 38 
C 1030 38 986 348 986 678 
L 986 2763 
L 211 2693 
L 211 2528 
C 467 2528 640 2528 646 2274 
L 646 1058 
C 646 633 646 361 813 183 
C 896 101 1056 -64 1517 -64 
C 2061 -64 2272 377 2323 506 
L 2330 506 
L 2330 -63 
L 3091 -63 
L 3091 128 
C 2714 128 2656 166 2656 473 
L 2656 2763 
L 1882 2693 
z
" transform="scale(0.015625)"/>
       <path id="CMR17-74" d="M 966 2560 
L 1862 2560 
L 1862 2725 
L 966 2725 
L 966 3904 
L 851 3904 
C 838 3245 614 2668 70 2668 
L 70 2560 
L 627 2560 
L 627 771 
C 627 650 627 -64 1370 -64 
C 1747 -64 1965 306 1965 777 
L 1965 1140 
L 1850 1140 
L 1850 783 
C 1850 344 1677 51 1408 51 
C 1222 51 966 178 966 758 
L 966 2560 
z
" transform="scale(0.015625)"/>
       <path id="CMR17-6f" d="M 2758 1356 
C 2758 2176 2163 2816 1466 2816 
C 768 2816 173 2176 173 1356 
C 173 551 768 -64 1466 -64 
C 2163 -64 2758 551 2758 1356 
z
M 1466 51 
C 1165 51 909 230 762 480 
C 602 767 582 1126 582 1408 
C 582 1677 595 2010 762 2298 
C 890 2509 1139 2714 1466 2714 
C 1754 2714 1997 2554 2150 2330 
C 2349 2029 2349 1607 2349 1408 
C 2349 1158 2336 775 2163 467 
C 1984 173 1709 51 1466 51 
z
" transform="scale(0.015625)"/>
      </defs>
      <use xlink:href="#CMR17-61" transform="scale(0.996264)"/>
      <use xlink:href="#CMR17-75" transform="translate(45.690477 0) scale(0.996264)"/>
      <use xlink:href="#CMR17-74" transform="translate(96.585847 0) scale(0.996264)"/>
      <use xlink:href="#CMR17-6f" transform="translate(131.866615 0) scale(0.996264)"/>
     </g>
    </g>
    <g id="PathCollection_9">
     <g>
      <use xlink:href="#mfce54ebeab" x="51.685756" y="44.849357" style="stroke: #000000"/>
     </g>
    </g>
    <g id="text_14">
     <!-- minimum grid -->
     <g transform="translate(69.685756 47.474357) scale(0.1 -0.1)">
      <defs>
       <path id="CMR17-6d" d="M 4326 1933 
C 4326 2252 4269 2790 3507 2790 
C 3072 2790 2771 2496 2656 2151 
L 2650 2151 
C 2573 2676 2195 2790 1837 2790 
C 1331 2790 1069 2400 973 2144 
L 966 2144 
L 966 2790 
L 211 2720 
L 211 2554 
C 589 2554 646 2515 646 2208 
L 646 428 
C 646 184 621 153 211 153 
L 211 -13 
C 365 0 646 0 813 0 
C 979 0 1267 0 1421 -13 
L 1421 153 
C 1011 153 986 178 986 428 
L 986 1658 
C 986 2247 1344 2688 1792 2688 
C 2266 2688 2317 2266 2317 1958 
L 2317 428 
C 2317 184 2291 153 1882 153 
L 1882 -13 
C 2035 0 2317 0 2483 0 
C 2650 0 2938 0 3091 -13 
L 3091 153 
C 2682 153 2656 178 2656 428 
L 2656 1658 
C 2656 2247 3014 2688 3462 2688 
C 3936 2688 3987 2266 3987 1958 
L 3987 428 
C 3987 184 3962 153 3552 153 
L 3552 -13 
C 3706 0 3987 0 4154 0 
C 4320 0 4608 0 4762 -13 
L 4762 153 
C 4352 153 4326 178 4326 428 
L 4326 1933 
z
" transform="scale(0.015625)"/>
       <path id="CMR17-6e" d="M 2656 1933 
C 2656 2259 2592 2790 1837 2790 
C 1331 2790 1069 2400 973 2144 
L 966 2144 
L 966 2790 
L 211 2720 
L 211 2554 
C 589 2554 646 2515 646 2208 
L 646 428 
C 646 184 621 153 211 153 
L 211 -13 
C 365 0 646 0 813 0 
C 979 0 1267 0 1421 -13 
L 1421 153 
C 1011 153 986 178 986 428 
L 986 1658 
C 986 2247 1344 2688 1792 2688 
C 2266 2688 2317 2266 2317 1958 
L 2317 428 
C 2317 184 2291 153 1882 153 
L 1882 -13 
C 2035 0 2317 0 2483 0 
C 2650 0 2938 0 3091 -13 
L 3091 153 
C 2682 153 2656 178 2656 428 
L 2656 1933 
z
" transform="scale(0.015625)"/>
      </defs>
      <use xlink:href="#CMR17-6d" transform="scale(0.996264)"/>
      <use xlink:href="#CMR17-69" transform="translate(76.91959 0) scale(0.996264)"/>
      <use xlink:href="#CMR17-6e" transform="translate(101.790648 0) scale(0.996264)"/>
      <use xlink:href="#CMR17-69" transform="translate(152.686018 0) scale(0.996264)"/>
      <use xlink:href="#CMR17-6d" transform="translate(177.557077 0) scale(0.996264)"/>
      <use xlink:href="#CMR17-75" transform="translate(251.874213 0) scale(0.996264)"/>
      <use xlink:href="#CMR17-6d" transform="translate(302.769582 0) scale(0.996264)"/>
      <use xlink:href="#CMR17-67" transform="translate(409.765139 0) scale(0.996264)"/>
      <use xlink:href="#CMR17-72" transform="translate(455.455616 0) scale(0.996264)"/>
      <use xlink:href="#CMR17-69" transform="translate(490.736383 0) scale(0.996264)"/>
      <use xlink:href="#CMR17-64" transform="translate(515.607442 0) scale(0.996264)"/>
     </g>
    </g>
    <g id="PathCollection_10">
     <g>
      <use xlink:href="#m4bd9f68d91" x="51.685756" y="58.786535" style="stroke: #000000"/>
     </g>
    </g>
    <g id="text_15">
     <!-- minumum auto -->
     <g transform="translate(69.685756 61.411535) scale(0.1 -0.1)">
      <use xlink:href="#CMR17-6d" transform="scale(0.996264)"/>
      <use xlink:href="#CMR17-69" transform="translate(76.91959 0) scale(0.996264)"/>
      <use xlink:href="#CMR17-6e" transform="translate(101.790648 0) scale(0.996264)"/>
      <use xlink:href="#CMR17-75" transform="translate(150.083564 0) scale(0.996264)"/>
      <use xlink:href="#CMR17-6d" transform="translate(200.978934 0) scale(0.996264)"/>
      <use xlink:href="#CMR17-75" transform="translate(275.29607 0) scale(0.996264)"/>
      <use xlink:href="#CMR17-6d" transform="translate(326.19144 0) scale(0.996264)"/>
      <use xlink:href="#CMR17-61" transform="translate(433.186996 0) scale(0.996264)"/>
      <use xlink:href="#CMR17-75" transform="translate(478.877473 0) scale(0.996264)"/>
      <use xlink:href="#CMR17-74" transform="translate(529.772843 0) scale(0.996264)"/>
      <use xlink:href="#CMR17-6f" transform="translate(565.053611 0) scale(0.996264)"/>
     </g>
    </g>
   </g>
  </g>
 </g>
 <defs>
  <clipPath id="pc7b8332cd2">
   <rect x="32.685756" y="3.6" width="201.314244" height="141.081683"/>
  </clipPath>
 </defs>
</svg>
