<?xml version="1.0" encoding="utf-8" standalone="no"?>
<!DOCTYPE svg PUBLIC "-//W3C//DTD SVG 1.1//EN"
  "http://www.w3.org/Graphics/SVG/1.1/DTD/svg11.dtd">
<svg xmlns:xlink="http://www.w3.org/1999/xlink" width="237.6pt" height="174.6pt" viewBox="0 0 237.6 174.6" xmlns="http://www.w3.org/2000/svg" version="1.1">
 <metadata>
  <rdf:RDF xmlns:dc="http://purl.org/dc/elements/1.1/" xmlns:cc="http://creativecommons.org/ns#" xmlns:rdf="http://www.w3.org/1999/02/22-rdf-syntax-ns#">
   <cc:Work>
    <dc:type rdf:resource="http://purl.org/dc/dcmitype/StillImage"/>
    <dc:date>2026-08-06T11:41:37.120283</dc:date>
    <dc:format>image/svg+xml</dc:format>
    <dc:creator>
     <cc:Agent>
      <dc:title>Matplotlib v3.11.1, https://matplotlib.org/</dc:title>
     </cc:Agent>
    </dc:creator>
   </cc:Work>
  </rdf:RDF>
 </metadata>
 <defs>
  <style type="text/css">*{stroke-linejoin: round; stroke-linecap: butt}</style>
 </defs>
 <g id="figure_1">
  <g id="patch_1">
   <path d="M 0 174.6 
L 237.6 174.6 
L 237.6 0 
L 0 0 
z
" style="fill: #ffffff"/>
  </g>
  <g id="axes_1">
   <g id="patch_2">
    <path d="M 31.025311 144.681683 
L 234 144.681683 
L 234 7.059249 
L 31.025311 7.059249 
z
" style="fill: #ffffff"/>
   </g>
   <g id="matplotlib.axis_1">
    <g id="xtick_1">
     <g id="line2d_1">
      <defs>
       <path id="m2d1f31060e" d="M 0 0 
L 0 -3 
" style="stroke: #000000; stroke-width: 0.5"/>
      </defs>
      <g>
       <use xlink:href="#m2d1f31060e" x="47.701679" y="144.681683" style="stroke: #000000; stroke-width: 0.5"/>
      </g>
     </g>
     <g id="line2d_2">
      <defs>
       <path id="md17b10f378" d="M 0 0 
L 0 3 
" style="stroke: #000000; stroke-width: 0.5"/>
      </defs>
      <g>
       <use xlink:href="#md17b10f378" x="47.701679" y="7.059249" style="stroke: #000000; stroke-width: 0.5"/>
      </g>
     </g>
     <g id="text_1">
      <!-- $\mathdefault{0}$ -->
      <g transform="translate(45.211011 155.100182) scale(0.1 -0.1)">
       <defs>
        <path id="CMR17-32" d="M 2688 2038 
C 2688 2430 2681 3099 2412 3613 
C 2176 4063 1798 4224 1465 4224 
C 1158 4224 768 4082 524 3620 
C 268 3137 243 2539 243 2038 
C 243 1671 249 1112 448 623 
C 723 -39 1216 -128 1465 -128 
C 1760 -128 2208 -7 2470 604 
C 2662 1048 2688 1568 2688 2038 
z
M 1465 -26 
C 1056 -26 812 328 723 816 
C 652 1196 652 1749 652 2109 
C 652 2604 652 3015 736 3407 
C 857 3954 1216 4121 1465 4121 
C 1728 4121 2067 3947 2188 3420 
C 2272 3054 2278 2623 2278 2109 
C 2278 1691 2278 1176 2201 797 
C 2067 96 1689 -26 1465 -26 
z
" transform="scale(0.015625)"/>
       </defs>
       <use xlink:href="#CMR17-32" transform="scale(0.996264)"/>
      </g>
     </g>
    </g>
    <g id="xtick_2">
     <g id="line2d_3">
      <g>
       <use xlink:href="#m2d1f31060e" x="94.558572" y="144.681683" style="stroke: #000000; stroke-width: 0.5"/>
      </g>
     </g>
     <g id="line2d_4">
      <g>
       <use xlink:href="#md17b10f378" x="94.558572" y="7.059249" style="stroke: #000000; stroke-width: 0.5"/>
      </g>
     </g>
     <g id="text_2">
      <!-- $\mathdefault{50}$ -->
      <g transform="translate(89.577237 155.100182) scale(0.1 -0.1)">
       <defs>
        <path id="CMR17-37" d="M 729 3750 
C 793 3724 1056 3641 1324 3641 
C 1920 3641 2246 3961 2432 4140 
C 2432 4191 2432 4224 2393 4224 
C 2387 4224 2374 4224 2323 4198 
C 2099 4102 1836 4032 1516 4032 
C 1324 4032 1036 4055 723 4191 
C 652 4224 640 4224 633 4224 
C 601 4224 595 4217 595 4090 
L 595 2231 
C 595 2113 595 2080 659 2080 
C 691 2080 704 2093 736 2139 
C 940 2435 1222 2560 1542 2560 
C 1766 2560 2246 2415 2246 1293 
C 2246 1087 2246 716 2054 422 
C 1894 159 1644 25 1369 25 
C 947 25 518 319 403 812 
C 428 806 480 793 505 793 
C 588 793 748 838 748 1036 
C 748 1209 627 1280 505 1280 
C 358 1280 262 1190 262 1011 
C 262 454 704 -128 1382 -128 
C 2041 -128 2668 441 2668 1267 
C 2668 2054 2169 2662 1548 2662 
C 1222 2662 947 2540 729 2304 
L 729 3750 
z
" transform="scale(0.015625)"/>
       </defs>
       <use xlink:href="#CMR17-37" transform="scale(0.996264)"/>
       <use xlink:href="#CMR17-32" transform="translate(45.690477 0) scale(0.996264)"/>
      </g>
     </g>
    </g>
    <g id="xtick_3">
     <g id="line2d_5">
      <g>
       <use xlink:href="#m2d1f31060e" x="141.415465" y="144.681683" style="stroke: #000000; stroke-width: 0.5"/>
      </g>
     </g>
     <g id="line2d_6">
      <g>
       <use xlink:href="#md17b10f378" x="141.415465" y="7.059249" style="stroke: #000000; stroke-width: 0.5"/>
      </g>
     </g>
     <g id="text_3">
      <!-- $\mathdefault{100}$ -->
      <g transform="translate(133.943462 155.100182) scale(0.1 -0.1)">
       <defs>
        <path id="CMR17-33" d="M 1702 4083 
C 1702 4217 1696 4224 1606 4224 
C 1356 3927 979 3833 620 3820 
C 601 3820 569 3820 563 3808 
C 556 3795 556 3782 556 3648 
C 755 3648 1088 3686 1344 3839 
L 1344 467 
C 1344 243 1331 166 780 166 
L 588 166 
L 588 0 
C 896 6 1216 12 1523 12 
C 1830 12 2150 6 2457 0 
L 2457 166 
L 2265 166 
C 1715 166 1702 236 1702 467 
L 1702 4083 
z
" transform="scale(0.015625)"/>
       </defs>
       <use xlink:href="#CMR17-33" transform="scale(0.996264)"/>
       <use xlink:href="#CMR17-32" transform="translate(45.690477 0) scale(0.996264)"/>
       <use xlink:href="#CMR17-32" transform="translate(91.380954 0) scale(0.996264)"/>
      </g>
     </g>
    </g>
    <g id="xtick_4">
     <g id="line2d_7">
      <g>
       <use xlink:href="#m2d1f31060e" x="188.272358" y="144.681683" style="stroke: #000000; stroke-width: 0.5"/>
      </g>
     </g>
     <g id="line2d_8">
      <g>
       <use xlink:href="#md17b10f378" x="188.272358" y="7.059249" style="stroke: #000000; stroke-width: 0.5"/>
      </g>
     </g>
     <g id="text_4">
      <!-- $\mathdefault{150}$ -->
      <g transform="translate(180.800355 155.100182) scale(0.1 -0.1)">
       <use xlink:href="#CMR17-33" transform="scale(0.996264)"/>
       <use xlink:href="#CMR17-37" transform="translate(45.690477 0) scale(0.996264)"/>
       <use xlink:href="#CMR17-32" transform="translate(91.380954 0) scale(0.996264)"/>
      </g>
     </g>
    </g>
    <g id="xtick_5">
     <g id="line2d_9">
      <defs>
       <path id="ma252499c83" d="M 0 0 
L 0 -1.5 
" style="stroke: #000000; stroke-width: 0.5"/>
      </defs>
      <g>
       <use xlink:href="#ma252499c83" x="38.3303" y="144.681683" style="stroke: #000000; stroke-width: 0.5"/>
      </g>
     </g>
     <g id="line2d_10">
      <defs>
       <path id="ma3b4e839a5" d="M 0 0 
L 0 1.5 
" style="stroke: #000000; stroke-width: 0.5"/>
      </defs>
      <g>
       <use xlink:href="#ma3b4e839a5" x="38.3303" y="7.059249" style="stroke: #000000; stroke-width: 0.5"/>
      </g>
     </g>
    </g>
    <g id="xtick_6">
     <g id="line2d_11">
      <g>
       <use xlink:href="#ma252499c83" x="57.073057" y="144.681683" style="stroke: #000000; stroke-width: 0.5"/>
      </g>
     </g>
     <g id="line2d_12">
      <g>
       <use xlink:href="#ma3b4e839a5" x="57.073057" y="7.059249" style="stroke: #000000; stroke-width: 0.5"/>
      </g>
     </g>
    </g>
    <g id="xtick_7">
     <g id="line2d_13">
      <g>
       <use xlink:href="#ma252499c83" x="66.444436" y="144.681683" style="stroke: #000000; stroke-width: 0.5"/>
      </g>
     </g>
     <g id="line2d_14">
      <g>
       <use xlink:href="#ma3b4e839a5" x="66.444436" y="7.059249" style="stroke: #000000; stroke-width: 0.5"/>
      </g>
     </g>
    </g>
    <g id="xtick_8">
     <g id="line2d_15">
      <g>
       <use xlink:href="#ma252499c83" x="75.815815" y="144.681683" style="stroke: #000000; stroke-width: 0.5"/>
      </g>
     </g>
     <g id="line2d_16">
      <g>
       <use xlink:href="#ma3b4e839a5" x="75.815815" y="7.059249" style="stroke: #000000; stroke-width: 0.5"/>
      </g>
     </g>
    </g>
    <g id="xtick_9">
     <g id="line2d_17">
      <g>
       <use xlink:href="#ma252499c83" x="85.187193" y="144.681683" style="stroke: #000000; stroke-width: 0.5"/>
      </g>
     </g>
     <g id="line2d_18">
      <g>
       <use xlink:href="#ma3b4e839a5" x="85.187193" y="7.059249" style="stroke: #000000; stroke-width: 0.5"/>
      </g>
     </g>
    </g>
    <g id="xtick_10">
     <g id="line2d_19">
      <g>
       <use xlink:href="#ma252499c83" x="103.929951" y="144.681683" style="stroke: #000000; stroke-width: 0.5"/>
      </g>
     </g>
     <g id="line2d_20">
      <g>
       <use xlink:href="#ma3b4e839a5" x="103.929951" y="7.059249" style="stroke: #000000; stroke-width: 0.5"/>
      </g>
     </g>
    </g>
    <g id="xtick_11">
     <g id="line2d_21">
      <g>
       <use xlink:href="#ma252499c83" x="113.301329" y="144.681683" style="stroke: #000000; stroke-width: 0.5"/>
      </g>
     </g>
     <g id="line2d_22">
      <g>
       <use xlink:href="#ma3b4e839a5" x="113.301329" y="7.059249" style="stroke: #000000; stroke-width: 0.5"/>
      </g>
     </g>
    </g>
    <g id="xtick_12">
     <g id="line2d_23">
      <g>
       <use xlink:href="#ma252499c83" x="122.672708" y="144.681683" style="stroke: #000000; stroke-width: 0.5"/>
      </g>
     </g>
     <g id="line2d_24">
      <g>
       <use xlink:href="#ma3b4e839a5" x="122.672708" y="7.059249" style="stroke: #000000; stroke-width: 0.5"/>
      </g>
     </g>
    </g>
    <g id="xtick_13">
     <g id="line2d_25">
      <g>
       <use xlink:href="#ma252499c83" x="132.044086" y="144.681683" style="stroke: #000000; stroke-width: 0.5"/>
      </g>
     </g>
     <g id="line2d_26">
      <g>
       <use xlink:href="#ma3b4e839a5" x="132.044086" y="7.059249" style="stroke: #000000; stroke-width: 0.5"/>
      </g>
     </g>
    </g>
    <g id="xtick_14">
     <g id="line2d_27">
      <g>
       <use xlink:href="#ma252499c83" x="150.786844" y="144.681683" style="stroke: #000000; stroke-width: 0.5"/>
      </g>
     </g>
     <g id="line2d_28">
      <g>
       <use xlink:href="#ma3b4e839a5" x="150.786844" y="7.059249" style="stroke: #000000; stroke-width: 0.5"/>
      </g>
     </g>
    </g>
    <g id="xtick_15">
     <g id="line2d_29">
      <g>
       <use xlink:href="#ma252499c83" x="160.158222" y="144.681683" style="stroke: #000000; stroke-width: 0.5"/>
      </g>
     </g>
     <g id="line2d_30">
      <g>
       <use xlink:href="#ma3b4e839a5" x="160.158222" y="7.059249" style="stroke: #000000; stroke-width: 0.5"/>
      </g>
     </g>
    </g>
    <g id="xtick_16">
     <g id="line2d_31">
      <g>
       <use xlink:href="#ma252499c83" x="169.529601" y="144.681683" style="stroke: #000000; stroke-width: 0.5"/>
      </g>
     </g>
     <g id="line2d_32">
      <g>
       <use xlink:href="#ma3b4e839a5" x="169.529601" y="7.059249" style="stroke: #000000; stroke-width: 0.5"/>
      </g>
     </g>
    </g>
    <g id="xtick_17">
     <g id="line2d_33">
      <g>
       <use xlink:href="#ma252499c83" x="178.900979" y="144.681683" style="stroke: #000000; stroke-width: 0.5"/>
      </g>
     </g>
     <g id="line2d_34">
      <g>
       <use xlink:href="#ma3b4e839a5" x="178.900979" y="7.059249" style="stroke: #000000; stroke-width: 0.5"/>
      </g>
     </g>
    </g>
    <g id="xtick_18">
     <g id="line2d_35">
      <g>
       <use xlink:href="#ma252499c83" x="197.643737" y="144.681683" style="stroke: #000000; stroke-width: 0.5"/>
      </g>
     </g>
     <g id="line2d_36">
      <g>
       <use xlink:href="#ma3b4e839a5" x="197.643737" y="7.059249" style="stroke: #000000; stroke-width: 0.5"/>
      </g>
     </g>
    </g>
    <g id="xtick_19">
     <g id="line2d_37">
      <g>
       <use xlink:href="#ma252499c83" x="207.015115" y="144.681683" style="stroke: #000000; stroke-width: 0.5"/>
      </g>
     </g>
     <g id="line2d_38">
      <g>
       <use xlink:href="#ma3b4e839a5" x="207.015115" y="7.059249" style="stroke: #000000; stroke-width: 0.5"/>
      </g>
     </g>
    </g>
    <g id="xtick_20">
     <g id="line2d_39">
      <g>
       <use xlink:href="#ma252499c83" x="216.386494" y="144.681683" style="stroke: #000000; stroke-width: 0.5"/>
      </g>
     </g>
     <g id="line2d_40">
      <g>
       <use xlink:href="#ma3b4e839a5" x="216.386494" y="7.059249" style="stroke: #000000; stroke-width: 0.5"/>
      </g>
     </g>
    </g>
    <g id="xtick_21">
     <g id="line2d_41">
      <g>
       <use xlink:href="#ma252499c83" x="225.757873" y="144.681683" style="stroke: #000000; stroke-width: 0.5"/>
      </g>
     </g>
     <g id="line2d_42">
      <g>
       <use xlink:href="#ma3b4e839a5" x="225.757873" y="7.059249" style="stroke: #000000; stroke-width: 0.5"/>
      </g>
     </g>
    </g>
    <g id="text_5">
     <!-- $x$ [eV] -->
     <g transform="translate(119.287933 168.50934) scale(0.1 -0.1)">
      <defs>
       <path id="CMMI12-79" d="M 3033 2624 
C 2828 2585 2752 2431 2752 2310 
C 2752 2156 2873 2105 2963 2105 
C 3155 2105 3289 2271 3289 2444 
C 3289 2694 2982 2816 2713 2816 
C 2323 2816 2105 2451 2048 2329 
C 1900 2790 1504 2816 1388 2816 
C 736 2816 390 1993 390 1849 
C 390 1823 416 1790 460 1790 
C 512 1790 524 1829 537 1855 
C 755 2572 1184 2687 1369 2687 
C 1657 2687 1715 2438 1715 2284 
C 1715 2143 1676 1993 1600 1678 
L 1382 778 
C 1286 390 1100 64 761 64 
C 729 64 569 64 435 126 
C 665 166 716 358 716 435 
C 716 563 620 640 499 640 
C 345 640 179 505 179 300 
C 179 57 480 -64 755 -64 
C 1062 -64 1280 153 1414 415 
C 1516 64 1836 -64 2073 -64 
C 2726 -64 3072 751 3072 896 
C 3072 929 3046 955 3008 955 
C 2950 955 2944 922 2924 870 
C 2752 300 2380 64 2092 64 
C 1868 64 1747 204 1747 467 
C 1747 607 1772 712 1875 1146 
L 2099 2039 
C 2195 2425 2412 2687 2707 2687 
C 2720 2687 2899 2687 3033 2624 
z
" transform="scale(0.015625)"/>
       <path id="CMR17-5d" d="M 1504 -1600 
L 1504 -1376 
L 902 -1376 
L 902 4575 
L 1504 4575 
L 1504 4800 
L 678 4800 
L 678 -1600 
L 1504 -1600 
z
" transform="scale(0.015625)"/>
       <path id="CMR17-67" d="M 2438 1503 
C 2464 1529 2464 1542 2464 1606 
C 2464 2251 2118 2816 1388 2816 
C 710 2816 172 2175 172 1394 
C 172 554 780 -64 1459 -64 
C 2176 -64 2457 619 2457 755 
C 2457 800 2419 800 2406 800 
C 2361 800 2355 787 2329 709 
C 2188 270 1836 51 1504 51 
C 1228 51 953 206 780 490 
C 582 819 582 1200 582 1503 
L 2438 1503 
z
M 588 1600 
C 633 2511 1126 2713 1382 2713 
C 1817 2713 2112 2308 2118 1600 
L 588 1600 
z
" transform="scale(0.015625)"/>
       <path id="CMR17-58" d="M 3776 3762 
C 3833 3903 3936 4179 4365 4185 
L 4365 4352 
C 4217 4339 4051 4339 3891 4339 
C 3737 4339 3475 4339 3328 4352 
L 3328 4185 
C 3648 4166 3661 3942 3661 3903 
C 3661 3833 3641 3788 3622 3737 
L 2361 448 
L 1043 3903 
C 1024 3948 1011 3980 1011 4012 
C 1011 4185 1267 4185 1401 4185 
L 1401 4352 
C 1196 4339 896 4339 684 4339 
C 518 4339 217 4339 64 4352 
L 64 4185 
C 435 4185 505 4160 582 3955 
L 2105 -26 
C 2137 -116 2144 -128 2214 -128 
C 2284 -128 2291 -116 2323 -26 
L 3776 3762 
z
" transform="scale(0.015625)"/>
       <path id="CMR17-5f" d="M 915 4800 
L 89 4800 
L 89 4575 
L 691 4575 
L 691 -1376 
L 89 -1376 
L 89 -1600 
L 915 -1600 
L 915 4800 
z
" transform="scale(0.015625)"/>
      </defs>
      <use xlink:href="#CMMI12-79" transform="scale(0.996264)"/>
      <use xlink:href="#CMR17-5d" transform="translate(85.510026 0) scale(0.996264)"/>
      <use xlink:href="#CMR17-67" transform="translate(110.381084 0) scale(0.996264)"/>
      <use xlink:href="#CMR17-58" transform="translate(150.866745 0) scale(0.996264)"/>
      <use xlink:href="#CMR17-5f" transform="translate(219.939175 0) scale(0.996264)"/>
     </g>
    </g>
   </g>
   <g id="matplotlib.axis_2">
    <g id="ytick_1">
     <g id="line2d_43">
      <defs>
       <path id="m4f398deea0" d="M 0 0 
L 3 0 
" style="stroke: #000000; stroke-width: 0.5"/>
      </defs>
      <g>
       <use xlink:href="#m4f398deea0" x="31.025311" y="144.681683" style="stroke: #000000; stroke-width: 0.5"/>
      </g>
     </g>
     <g id="line2d_44">
      <defs>
       <path id="mdf44ca676d" d="M 0 0 
L -3 0 
" style="stroke: #000000; stroke-width: 0.5"/>
      </defs>
      <g>
       <use xlink:href="#mdf44ca676d" x="234" y="144.681683" style="stroke: #000000; stroke-width: 0.5"/>
      </g>
     </g>
     <g id="text_6">
      <!-- $\mathdefault{36}$ -->
      <g transform="translate(17.56264 148.140932) scale(0.1 -0.1)">
       <defs>
        <path id="CMR17-35" d="M 1414 2176 
C 1984 2176 2233 1673 2233 1094 
C 2233 322 1824 25 1452 25 
C 1113 25 563 193 390 691 
C 422 678 454 678 486 678 
C 640 678 755 780 755 947 
C 755 1132 614 1216 486 1216 
C 377 1216 211 1164 211 927 
C 211 335 787 -128 1465 -128 
C 2176 -128 2720 432 2720 1087 
C 2720 1718 2208 2176 1600 2246 
C 2086 2347 2553 2776 2553 3353 
C 2553 3856 2048 4224 1472 4224 
C 889 4224 377 3862 377 3347 
C 377 3123 544 3084 627 3084 
C 761 3084 876 3167 876 3334 
C 876 3500 761 3584 627 3584 
C 601 3584 569 3584 544 3571 
C 729 3999 1235 4076 1459 4076 
C 1683 4076 2105 3966 2105 3347 
C 2105 3167 2080 2851 1862 2574 
C 1670 2329 1452 2316 1241 2297 
C 1209 2297 1062 2284 1036 2284 
C 992 2278 966 2272 966 2227 
C 966 2182 972 2176 1100 2176 
L 1414 2176 
z
" transform="scale(0.015625)"/>
        <path id="CMR17-38" d="M 678 2198 
C 678 3712 1395 4076 1811 4076 
C 1945 4076 2272 4049 2400 3782 
C 2297 3782 2105 3782 2105 3558 
C 2105 3385 2246 3328 2336 3328 
C 2393 3328 2566 3353 2566 3571 
C 2566 3987 2246 4224 1804 4224 
C 1043 4224 243 3411 243 2011 
C 243 257 966 -128 1478 -128 
C 2099 -128 2688 431 2688 1295 
C 2688 2101 2169 2688 1516 2688 
C 1126 2688 838 2430 678 1979 
L 678 2198 
z
M 1478 25 
C 691 25 691 1212 691 1450 
C 691 1914 908 2585 1504 2585 
C 1612 2585 1926 2585 2137 2140 
C 2252 1889 2252 1624 2252 1302 
C 2252 954 2252 696 2118 438 
C 1977 173 1772 25 1478 25 
z
" transform="scale(0.015625)"/>
       </defs>
       <use xlink:href="#CMR17-35" transform="scale(0.996264)"/>
       <use xlink:href="#CMR17-38" transform="translate(45.690477 0) scale(0.996264)"/>
      </g>
     </g>
    </g>
    <g id="ytick_2">
     <g id="line2d_45">
      <g>
       <use xlink:href="#m4f398deea0" x="31.025311" y="117.157196" style="stroke: #000000; stroke-width: 0.5"/>
      </g>
     </g>
     <g id="line2d_46">
      <g>
       <use xlink:href="#mdf44ca676d" x="234" y="117.157196" style="stroke: #000000; stroke-width: 0.5"/>
      </g>
     </g>
     <g id="text_7">
      <!-- $\mathdefault{37}$ -->
      <g transform="translate(17.56264 120.616446) scale(0.1 -0.1)">
       <defs>
        <path id="CMR17-39" d="M 2886 3955 
L 2886 4096 
L 1382 4096 
C 633 4096 620 4166 595 4288 
L 480 4288 
L 294 3104 
L 409 3104 
C 428 3226 473 3552 550 3673 
C 588 3724 1062 3724 1171 3724 
L 2579 3724 
L 1868 2670 
C 1395 1961 1068 1003 1068 166 
C 1068 89 1068 -128 1299 -128 
C 1529 -128 1529 89 1529 172 
L 1529 466 
C 1529 1514 1708 2204 2003 2644 
L 2886 3955 
z
" transform="scale(0.015625)"/>
       </defs>
       <use xlink:href="#CMR17-35" transform="scale(0.996264)"/>
       <use xlink:href="#CMR17-39" transform="translate(45.690477 0) scale(0.996264)"/>
      </g>
     </g>
    </g>
    <g id="ytick_3">
     <g id="line2d_47">
      <g>
       <use xlink:href="#m4f398deea0" x="31.025311" y="89.63271" style="stroke: #000000; stroke-width: 0.5"/>
      </g>
     </g>
     <g id="line2d_48">
      <g>
       <use xlink:href="#mdf44ca676d" x="234" y="89.63271" style="stroke: #000000; stroke-width: 0.5"/>
      </g>
     </g>
     <g id="text_8">
      <!-- $\mathdefault{38}$ -->
      <g transform="translate(17.56264 93.091959) scale(0.1 -0.1)">
       <defs>
        <path id="CMR17-3a" d="M 1740 2289 
C 2144 2494 2553 2803 2553 3298 
C 2553 3884 1990 4224 1472 4224 
C 889 4224 377 3800 377 3215 
C 377 3054 416 2777 665 2533 
C 729 2469 998 2276 1171 2154 
C 883 2006 211 1652 211 945 
C 211 282 838 -128 1459 -128 
C 2144 -128 2720 366 2720 1022 
C 2720 1607 2329 1877 2073 2051 
L 1740 2289 
z
M 902 2855 
C 851 2887 595 3086 595 3388 
C 595 3781 998 4076 1459 4076 
C 1964 4076 2336 3716 2336 3298 
C 2336 2700 1670 2359 1638 2359 
C 1632 2359 1625 2359 1574 2398 
L 902 2855 
z
M 2080 1536 
C 2176 1466 2483 1253 2483 861 
C 2483 385 2009 25 1472 25 
C 889 25 448 443 448 951 
C 448 1459 838 1884 1280 2083 
L 2080 1536 
z
" transform="scale(0.015625)"/>
       </defs>
       <use xlink:href="#CMR17-35" transform="scale(0.996264)"/>
       <use xlink:href="#CMR17-3a" transform="translate(45.690477 0) scale(0.996264)"/>
      </g>
     </g>
    </g>
    <g id="ytick_4">
     <g id="line2d_49">
      <g>
       <use xlink:href="#m4f398deea0" x="31.025311" y="62.108223" style="stroke: #000000; stroke-width: 0.5"/>
      </g>
     </g>
     <g id="line2d_50">
      <g>
       <use xlink:href="#mdf44ca676d" x="234" y="62.108223" style="stroke: #000000; stroke-width: 0.5"/>
      </g>
     </g>
     <g id="text_9">
      <!-- $\mathdefault{39}$ -->
      <g transform="translate(17.56264 65.567472) scale(0.1 -0.1)">
       <defs>
        <path id="CMR17-3b" d="M 2252 1871 
C 2252 448 1670 25 1190 25 
C 1043 25 684 43 537 281 
C 704 256 825 345 825 505 
C 825 678 684 736 595 736 
C 537 736 364 710 364 492 
C 364 68 742 -128 1203 -128 
C 1939 -128 2688 665 2688 2090 
C 2688 3857 1971 4224 1484 4224 
C 851 4224 243 3664 243 2800 
C 243 2000 761 1408 1414 1408 
C 1952 1408 2188 1910 2252 2122 
L 2252 1871 
z
M 1427 1510 
C 1254 1510 1011 1542 812 1929 
C 678 2181 678 2477 678 2793 
C 678 3174 678 3438 857 3722 
C 947 3857 1113 4076 1484 4076 
C 2240 4076 2240 2909 2240 2651 
C 2240 2193 2035 1510 1427 1510 
z
" transform="scale(0.015625)"/>
       </defs>
       <use xlink:href="#CMR17-35" transform="scale(0.996264)"/>
       <use xlink:href="#CMR17-3b" transform="translate(45.690477 0) scale(0.996264)"/>
      </g>
     </g>
    </g>
    <g id="ytick_5">
     <g id="line2d_51">
      <g>
       <use xlink:href="#m4f398deea0" x="31.025311" y="34.583736" style="stroke: #000000; stroke-width: 0.5"/>
      </g>
     </g>
     <g id="line2d_52">
      <g>
       <use xlink:href="#mdf44ca676d" x="234" y="34.583736" style="stroke: #000000; stroke-width: 0.5"/>
      </g>
     </g>
     <g id="text_10">
      <!-- $\mathdefault{40}$ -->
      <g transform="translate(17.56264 38.042985) scale(0.1 -0.1)">
       <defs>
        <path id="CMR17-36" d="M 2150 4147 
C 2150 4281 2144 4288 2028 4288 
L 128 1254 
L 128 1088 
L 1779 1088 
L 1779 460 
C 1779 230 1766 166 1318 166 
L 1196 166 
L 1196 0 
C 1401 12 1747 12 1964 12 
C 2182 12 2528 12 2732 0 
L 2732 166 
L 2611 166 
C 2163 166 2150 230 2150 460 
L 2150 1088 
L 2803 1088 
L 2803 1254 
L 2150 1254 
L 2150 4147 
z
M 1798 3723 
L 1798 1254 
L 256 1254 
L 1798 3723 
z
" transform="scale(0.015625)"/>
       </defs>
       <use xlink:href="#CMR17-36" transform="scale(0.996264)"/>
       <use xlink:href="#CMR17-32" transform="translate(45.690477 0) scale(0.996264)"/>
      </g>
     </g>
    </g>
    <g id="ytick_6">
     <g id="line2d_53">
      <g>
       <use xlink:href="#m4f398deea0" x="31.025311" y="7.059249" style="stroke: #000000; stroke-width: 0.5"/>
      </g>
     </g>
     <g id="line2d_54">
      <g>
       <use xlink:href="#mdf44ca676d" x="234" y="7.059249" style="stroke: #000000; stroke-width: 0.5"/>
      </g>
     </g>
     <g id="text_11">
      <!-- $\mathdefault{41}$ -->
      <g transform="translate(17.56264 10.518498) scale(0.1 -0.1)">
       <use xlink:href="#CMR17-36" transform="scale(0.996264)"/>
       <use xlink:href="#CMR17-33" transform="translate(45.690477 0) scale(0.996264)"/>
      </g>
     </g>
    </g>
    <g id="ytick_7">
     <g id="line2d_55">
      <defs>
       <path id="ma6941b801e" d="M 0 0 
L 1.5 0 
" style="stroke: #000000; stroke-width: 0.5"/>
      </defs>
      <g>
       <use xlink:href="#ma6941b801e" x="31.025311" y="139.176786" style="stroke: #000000; stroke-width: 0.5"/>
      </g>
     </g>
     <g id="line2d_56">
      <defs>
       <path id="mb56605202f" d="M 0 0 
L -1.5 0 
" style="stroke: #000000; stroke-width: 0.5"/>
      </defs>
      <g>
       <use xlink:href="#mb56605202f" x="234" y="139.176786" style="stroke: #000000; stroke-width: 0.5"/>
      </g>
     </g>
    </g>
    <g id="ytick_8">
     <g id="line2d_57">
      <g>
       <use xlink:href="#ma6941b801e" x="31.025311" y="133.671888" style="stroke: #000000; stroke-width: 0.5"/>
      </g>
     </g>
     <g id="line2d_58">
      <g>
       <use xlink:href="#mb56605202f" x="234" y="133.671888" style="stroke: #000000; stroke-width: 0.5"/>
      </g>
     </g>
    </g>
    <g id="ytick_9">
     <g id="line2d_59">
      <g>
       <use xlink:href="#ma6941b801e" x="31.025311" y="128.166991" style="stroke: #000000; stroke-width: 0.5"/>
      </g>
     </g>
     <g id="line2d_60">
      <g>
       <use xlink:href="#mb56605202f" x="234" y="128.166991" style="stroke: #000000; stroke-width: 0.5"/>
      </g>
     </g>
    </g>
    <g id="ytick_10">
     <g id="line2d_61">
      <g>
       <use xlink:href="#ma6941b801e" x="31.025311" y="122.662094" style="stroke: #000000; stroke-width: 0.5"/>
      </g>
     </g>
     <g id="line2d_62">
      <g>
       <use xlink:href="#mb56605202f" x="234" y="122.662094" style="stroke: #000000; stroke-width: 0.5"/>
      </g>
     </g>
    </g>
    <g id="ytick_11">
     <g id="line2d_63">
      <g>
       <use xlink:href="#ma6941b801e" x="31.025311" y="111.652299" style="stroke: #000000; stroke-width: 0.5"/>
      </g>
     </g>
     <g id="line2d_64">
      <g>
       <use xlink:href="#mb56605202f" x="234" y="111.652299" style="stroke: #000000; stroke-width: 0.5"/>
      </g>
     </g>
    </g>
    <g id="ytick_12">
     <g id="line2d_65">
      <g>
       <use xlink:href="#ma6941b801e" x="31.025311" y="106.147402" style="stroke: #000000; stroke-width: 0.5"/>
      </g>
     </g>
     <g id="line2d_66">
      <g>
       <use xlink:href="#mb56605202f" x="234" y="106.147402" style="stroke: #000000; stroke-width: 0.5"/>
      </g>
     </g>
    </g>
    <g id="ytick_13">
     <g id="line2d_67">
      <g>
       <use xlink:href="#ma6941b801e" x="31.025311" y="100.642504" style="stroke: #000000; stroke-width: 0.5"/>
      </g>
     </g>
     <g id="line2d_68">
      <g>
       <use xlink:href="#mb56605202f" x="234" y="100.642504" style="stroke: #000000; stroke-width: 0.5"/>
      </g>
     </g>
    </g>
    <g id="ytick_14">
     <g id="line2d_69">
      <g>
       <use xlink:href="#ma6941b801e" x="31.025311" y="95.137607" style="stroke: #000000; stroke-width: 0.5"/>
      </g>
     </g>
     <g id="line2d_70">
      <g>
       <use xlink:href="#mb56605202f" x="234" y="95.137607" style="stroke: #000000; stroke-width: 0.5"/>
      </g>
     </g>
    </g>
    <g id="ytick_15">
     <g id="line2d_71">
      <g>
       <use xlink:href="#ma6941b801e" x="31.025311" y="84.127812" style="stroke: #000000; stroke-width: 0.5"/>
      </g>
     </g>
     <g id="line2d_72">
      <g>
       <use xlink:href="#mb56605202f" x="234" y="84.127812" style="stroke: #000000; stroke-width: 0.5"/>
      </g>
     </g>
    </g>
    <g id="ytick_16">
     <g id="line2d_73">
      <g>
       <use xlink:href="#ma6941b801e" x="31.025311" y="78.622915" style="stroke: #000000; stroke-width: 0.5"/>
      </g>
     </g>
     <g id="line2d_74">
      <g>
       <use xlink:href="#mb56605202f" x="234" y="78.622915" style="stroke: #000000; stroke-width: 0.5"/>
      </g>
     </g>
    </g>
    <g id="ytick_17">
     <g id="line2d_75">
      <g>
       <use xlink:href="#ma6941b801e" x="31.025311" y="73.118018" style="stroke: #000000; stroke-width: 0.5"/>
      </g>
     </g>
     <g id="line2d_76">
      <g>
       <use xlink:href="#mb56605202f" x="234" y="73.118018" style="stroke: #000000; stroke-width: 0.5"/>
      </g>
     </g>
    </g>
    <g id="ytick_18">
     <g id="line2d_77">
      <g>
       <use xlink:href="#ma6941b801e" x="31.025311" y="67.61312" style="stroke: #000000; stroke-width: 0.5"/>
      </g>
     </g>
     <g id="line2d_78">
      <g>
       <use xlink:href="#mb56605202f" x="234" y="67.61312" style="stroke: #000000; stroke-width: 0.5"/>
      </g>
     </g>
    </g>
    <g id="ytick_19">
     <g id="line2d_79">
      <g>
       <use xlink:href="#ma6941b801e" x="31.025311" y="56.603325" style="stroke: #000000; stroke-width: 0.5"/>
      </g>
     </g>
     <g id="line2d_80">
      <g>
       <use xlink:href="#mb56605202f" x="234" y="56.603325" style="stroke: #000000; stroke-width: 0.5"/>
      </g>
     </g>
    </g>
    <g id="ytick_20">
     <g id="line2d_81">
      <g>
       <use xlink:href="#ma6941b801e" x="31.025311" y="51.098428" style="stroke: #000000; stroke-width: 0.5"/>
      </g>
     </g>
     <g id="line2d_82">
      <g>
       <use xlink:href="#mb56605202f" x="234" y="51.098428" style="stroke: #000000; stroke-width: 0.5"/>
      </g>
     </g>
    </g>
    <g id="ytick_21">
     <g id="line2d_83">
      <g>
       <use xlink:href="#ma6941b801e" x="31.025311" y="45.593531" style="stroke: #000000; stroke-width: 0.5"/>
      </g>
     </g>
     <g id="line2d_84">
      <g>
       <use xlink:href="#mb56605202f" x="234" y="45.593531" style="stroke: #000000; stroke-width: 0.5"/>
      </g>
     </g>
    </g>
    <g id="ytick_22">
     <g id="line2d_85">
      <g>
       <use xlink:href="#ma6941b801e" x="31.025311" y="40.088633" style="stroke: #000000; stroke-width: 0.5"/>
      </g>
     </g>
     <g id="line2d_86">
      <g>
       <use xlink:href="#mb56605202f" x="234" y="40.088633" style="stroke: #000000; stroke-width: 0.5"/>
      </g>
     </g>
    </g>
    <g id="ytick_23">
     <g id="line2d_87">
      <g>
       <use xlink:href="#ma6941b801e" x="31.025311" y="29.078839" style="stroke: #000000; stroke-width: 0.5"/>
      </g>
     </g>
     <g id="line2d_88">
      <g>
       <use xlink:href="#mb56605202f" x="234" y="29.078839" style="stroke: #000000; stroke-width: 0.5"/>
      </g>
     </g>
    </g>
    <g id="ytick_24">
     <g id="line2d_89">
      <g>
       <use xlink:href="#ma6941b801e" x="31.025311" y="23.573941" style="stroke: #000000; stroke-width: 0.5"/>
      </g>
     </g>
     <g id="line2d_90">
      <g>
       <use xlink:href="#mb56605202f" x="234" y="23.573941" style="stroke: #000000; stroke-width: 0.5"/>
      </g>
     </g>
    </g>
    <g id="ytick_25">
     <g id="line2d_91">
      <g>
       <use xlink:href="#ma6941b801e" x="31.025311" y="18.069044" style="stroke: #000000; stroke-width: 0.5"/>
      </g>
     </g>
     <g id="line2d_92">
      <g>
       <use xlink:href="#mb56605202f" x="234" y="18.069044" style="stroke: #000000; stroke-width: 0.5"/>
      </g>
     </g>
    </g>
    <g id="ytick_26">
     <g id="line2d_93">
      <g>
       <use xlink:href="#ma6941b801e" x="31.025311" y="12.564147" style="stroke: #000000; stroke-width: 0.5"/>
      </g>
     </g>
     <g id="line2d_94">
      <g>
       <use xlink:href="#mb56605202f" x="234" y="12.564147" style="stroke: #000000; stroke-width: 0.5"/>
      </g>
     </g>
    </g>
    <g id="text_12">
     <!-- $k_B T$ [eV] -->
     <g transform="translate(11.07198 95.872979) rotate(-90) scale(0.1 -0.1)">
      <defs>
       <path id="CMMI12-6c" d="M 1798 4255 
C 1804 4281 1817 4319 1817 4351 
C 1817 4416 1753 4416 1740 4416 
C 1734 4416 1504 4396 1388 4383 
C 1280 4377 1184 4364 1068 4358 
C 915 4345 870 4339 870 4223 
C 870 4159 934 4159 998 4159 
C 1324 4159 1324 4103 1324 4040 
C 1324 4014 1324 4002 1292 3888 
L 377 250 
C 352 153 352 141 352 102 
C 352 -39 460 -64 524 -64 
C 704 -64 742 76 793 275 
L 1094 1476 
C 1555 1425 1830 1232 1830 924 
C 1830 885 1830 860 1811 763 
C 1785 667 1785 590 1785 558 
C 1785 185 2028 -64 2355 -64 
C 2649 -64 2803 205 2854 295 
C 2988 532 3072 892 3072 917 
C 3072 949 3046 975 3008 975 
C 2950 975 2944 949 2918 847 
C 2828 513 2694 64 2368 64 
C 2240 64 2156 128 2156 372 
C 2156 494 2182 635 2208 731 
C 2233 847 2233 853 2233 930 
C 2233 1309 1894 1521 1305 1598 
C 1536 1739 1766 1989 1856 2086 
C 2220 2495 2470 2687 2764 2687 
C 2912 2687 2950 2655 2995 2624 
C 2758 2598 2668 2431 2668 2303 
C 2668 2150 2790 2099 2880 2099 
C 3052 2099 3206 2246 3206 2451 
C 3206 2634 3059 2816 2771 2816 
C 2419 2816 2131 2579 1676 2067 
C 1612 1989 1376 1746 1139 1656 
L 1798 4255 
z
" transform="scale(0.015625)"/>
       <path id="CMMI12-43" d="M 2342 3915 
C 2400 4153 2425 4166 2675 4166 
L 3507 4166 
C 4230 4166 4230 3547 4230 3489 
C 4230 2967 3712 2304 2867 2304 
L 1945 2304 
L 2342 3915 
z
M 3424 2252 
C 4121 2381 4755 2871 4755 3463 
C 4755 3966 4313 4352 3590 4352 
L 1536 4352 
C 1414 4352 1356 4352 1356 4230 
C 1356 4166 1414 4166 1510 4166 
C 1900 4166 1900 4114 1900 4043 
C 1900 4031 1900 3992 1875 3895 
L 1011 469 
C 953 248 940 185 492 185 
C 371 185 307 185 307 70 
C 307 0 345 0 473 0 
L 2668 0 
C 3648 0 4403 733 4403 1369 
C 4403 1886 3942 2201 3424 2252 
z
M 2515 185 
L 1651 185 
C 1561 185 1548 185 1510 191 
C 1440 198 1433 210 1433 261 
C 1433 305 1446 343 1459 399 
L 1907 2176 
L 3110 2176 
C 3865 2176 3865 1483 3865 1432 
C 3865 828 3309 185 2515 185 
z
" transform="scale(0.015625)"/>
       <path id="CMMI12-55" d="M 2668 3886 
C 2707 4038 2720 4096 2816 4121 
C 2867 4134 3078 4134 3212 4134 
C 3853 4134 4153 4109 4153 3612 
C 4153 3516 4128 3274 4089 3038 
L 4083 2962 
C 4083 2937 4109 2898 4147 2898 
C 4211 2898 4211 2930 4230 3032 
L 4416 4159 
C 4429 4217 4429 4230 4429 4249 
C 4429 4319 4390 4319 4262 4319 
L 761 4319 
C 614 4319 608 4313 569 4198 
L 179 3051 
C 172 3038 153 2968 153 2962 
C 153 2930 179 2898 217 2898 
C 268 2898 281 2924 307 3007 
C 576 3777 710 4134 1561 4134 
L 1990 4134 
C 2144 4134 2208 4134 2208 4064 
C 2208 4045 2208 4032 2176 3917 
L 1318 497 
C 1254 249 1241 185 563 185 
C 403 185 358 185 358 64 
C 358 0 428 0 460 0 
C 620 0 787 12 947 12 
L 1945 12 
C 2105 12 2278 0 2438 0 
C 2508 0 2572 0 2572 121 
C 2572 185 2528 185 2361 185 
C 1785 185 1785 242 1785 338 
C 1785 344 1785 389 1811 491 
L 2668 3886 
z
" transform="scale(0.015625)"/>
      </defs>
      <use xlink:href="#CMMI12-6c" transform="scale(0.996264)"/>
      <use xlink:href="#CMMI12-43" transform="translate(50.735189 -14.943915) scale(0.697382)"/>
      <use xlink:href="#CMMI12-55" transform="translate(106.627947 0) scale(0.996264)"/>
      <use xlink:href="#CMR17-5d" transform="translate(207.427545 0) scale(0.996264)"/>
      <use xlink:href="#CMR17-67" transform="translate(232.298604 0) scale(0.996264)"/>
      <use xlink:href="#CMR17-58" transform="translate(272.784264 0) scale(0.996264)"/>
      <use xlink:href="#CMR17-5f" transform="translate(341.856694 0) scale(0.996264)"/>
     </g>
    </g>
   </g>
   <g id="line2d_95">
    <path d="M 54.130939 175.6 
L 55.485661 109.66547 
L 58.909083 72.175246 
L 62.332505 52.383483 
L 65.755927 52.383483 
L 69.179349 42.208733 
L 72.602771 42.208733 
L 76.026193 42.208733 
L 79.449615 42.208733 
L 82.873037 42.208733 
L 86.296459 42.208733 
L 89.719881 31.84102 
L 93.143302 31.84102 
L 96.566724 31.84102 
L 99.990146 31.84102 
L 103.413568 31.84102 
L 106.83699 31.84102 
L 110.260412 31.84102 
L 113.683834 31.84102 
L 117.107256 31.84102 
L 120.530678 31.84102 
L 123.9541 31.84102 
L 127.377522 31.84102 
L 130.800944 31.84102 
L 134.224366 31.84102 
L 137.647788 31.84102 
L 141.07121 31.84102 
L 144.494632 31.84102 
L 147.918054 31.84102 
L 151.341476 31.84102 
L 154.764898 31.84102 
L 158.18832 31.84102 
L 161.611742 31.84102 
L 165.035164 31.84102 
L 168.458586 31.84102 
L 171.882008 31.84102 
L 175.30543 31.84102 
L 178.728852 31.84102 
L 182.152274 31.84102 
L 185.575696 31.84102 
L 188.999118 31.84102 
L 192.42254 31.84102 
L 195.845962 31.84102 
L 199.269384 31.84102 
L 202.692806 31.84102 
L 206.116228 31.84102 
L 209.53965 31.84102 
L 212.963072 31.84102 
L 216.386494 31.84102 
" clip-path="url(#pb5aa215528)" style="fill: none; stroke: #0c5da5; stroke-linecap: square"/>
   </g>
   <g id="line2d_96">
    <path d="M 54.16275 175.6 
L 55.485661 111.582811 
L 58.909083 71.606516 
L 62.332505 56.160696 
L 65.755927 48.617093 
L 69.179349 44.380921 
L 72.602771 41.762341 
L 76.026193 40.03454 
L 79.449615 38.830929 
L 82.873037 37.961056 
L 86.296459 37.310136 
L 89.719881 36.81072 
L 93.143302 36.419825 
L 96.566724 36.106407 
L 99.990146 35.853824 
L 103.413568 35.645308 
L 106.83699 35.479282 
L 110.260412 35.348583 
L 113.683834 35.221021 
L 117.107256 35.114632 
L 120.530678 35.02588 
L 123.9541 34.951887 
L 127.377522 34.8891 
L 130.800944 34.836855 
L 134.224366 34.792421 
L 137.647788 34.755497 
L 141.07121 34.724281 
L 144.494632 34.69838 
L 147.918054 34.676772 
L 151.341476 34.658845 
L 154.764898 34.644169 
L 158.18832 34.631993 
L 161.611742 34.622193 
L 165.035164 34.614154 
L 168.458586 34.607752 
L 171.882008 34.602582 
L 175.30543 34.598495 
L 178.728852 34.595259 
L 182.152274 34.592708 
L 185.575696 34.590731 
L 188.999118 34.589175 
L 192.42254 34.587987 
L 195.845962 34.58706 
L 199.269384 34.586356 
L 202.692806 34.585812 
L 206.116228 34.585397 
L 209.53965 34.585078 
L 212.963072 34.584831 
L 216.386494 34.584642 
" clip-path="url(#pb5aa215528)" style="fill: none; stroke: #00b945; stroke-linecap: square"/>
   </g>
   <g id="LineCollection_1">
    <path d="M 40.251433 34.583736 
L 224.773878 34.583736 
" clip-path="url(#pb5aa215528)" style="fill: none; stroke-dasharray: 3.7,1.6; stroke-dashoffset: 0; stroke: #808080"/>
   </g>
   <g id="patch_3">
    <path d="M 31.025311 144.681683 
L 31.025311 7.059249 
" style="fill: none; stroke: #000000; stroke-width: 0.5; stroke-linejoin: miter; stroke-linecap: square"/>
   </g>
   <g id="patch_4">
    <path d="M 234 144.681683 
L 234 7.059249 
" style="fill: none; stroke: #000000; stroke-width: 0.5; stroke-linejoin: miter; stroke-linecap: square"/>
   </g>
   <g id="patch_5">
    <path d="M 31.025311 144.681683 
L 234 144.681683 
" style="fill: none; stroke: #000000; stroke-width: 0.5; stroke-linejoin: miter; stroke-linecap: square"/>
   </g>
   <g id="patch_6">
    <path d="M 31.025311 7.059249 
L 234 7.059249 
" style="fill: none; stroke: #000000; stroke-width: 0.5; stroke-linejoin: miter; stroke-linecap: square"/>
   </g>
   <g id="legend_1">
    <g id="line2d_97">
     <path d="M 177.628141 116.307327 
L 187.628141 116.307327 
L 197.628141 116.307327 
" style="fill: none; stroke: #0c5da5; stroke-linecap: square"/>
    </g>
    <g id="text_13">
     <!-- grid -->
     <g transform="translate(205.628141 119.807327) scale(0.1 -0.1)">
      <defs>
       <path id="CMR17-69" d="M 710 1165 
C 832 1068 1043 960 1299 960 
C 1804 960 2240 1359 2240 1895 
C 2240 2063 2188 2321 1996 2521 
C 2176 2713 2438 2777 2585 2777 
C 2611 2777 2649 2777 2681 2758 
C 2656 2751 2598 2726 2598 2623 
C 2598 2540 2656 2483 2739 2483 
C 2835 2483 2886 2547 2886 2630 
C 2886 2751 2790 2880 2585 2880 
C 2329 2880 2105 2758 1926 2591 
C 1734 2764 1504 2828 1299 2828 
C 793 2828 358 2431 358 1895 
C 358 1527 569 1294 633 1230 
C 441 1004 441 742 441 710 
C 441 544 505 300 723 166 
C 390 82 128 -184 128 -517 
C 128 -996 736 -1344 1465 -1344 
C 2169 -1344 2803 -1009 2803 -510 
C 2803 384 1856 384 1363 384 
C 1216 384 953 384 921 390 
C 723 422 588 601 588 825 
C 588 883 588 1024 710 1165 
z
M 1299 1068 
C 736 1068 736 1766 736 1895 
C 736 2024 736 2719 1299 2719 
C 1862 2719 1862 2024 1862 1895 
C 1862 1766 1862 1068 1299 1068 
z
M 1465 -1236 
C 825 -1236 384 -883 384 -517 
C 384 -311 492 -118 633 -11 
C 793 102 857 102 1292 102 
C 1817 102 2547 102 2547 -517 
C 2547 -883 2105 -1236 1465 -1236 
z
" transform="scale(0.015625)"/>
       <path id="CMR17-74" d="M 960 1517 
C 960 2134 1222 2713 1702 2713 
C 1747 2713 1792 2707 1836 2687 
C 1836 2687 1696 2642 1696 2475 
C 1696 2321 1817 2257 1913 2257 
C 1990 2257 2131 2302 2131 2482 
C 2131 2687 1926 2816 1708 2816 
C 1222 2816 1011 2340 947 2115 
L 940 2115 
L 940 2816 
L 198 2745 
L 198 2578 
C 576 2578 633 2540 633 2231 
L 633 443 
C 633 198 608 166 198 166 
L 198 0 
C 352 12 646 12 812 12 
C 998 12 1324 12 1497 0 
L 1497 166 
C 1036 166 960 166 960 455 
L 960 1517 
z
" transform="scale(0.015625)"/>
       <path id="CMR17-6b" d="M 992 3961 
C 992 4102 876 4224 729 4224 
C 588 4224 467 4108 467 3961 
C 467 3820 582 3699 729 3699 
C 870 3699 992 3814 992 3961 
z
M 243 2745 
L 243 2579 
C 601 2579 652 2540 652 2231 
L 652 443 
C 652 198 627 166 217 166 
L 217 0 
C 371 12 646 12 806 12 
C 960 12 1222 12 1369 0 
L 1369 166 
C 992 166 979 205 979 436 
L 979 2816 
L 243 2745 
z
" transform="scale(0.015625)"/>
       <path id="CMR17-66" d="M 1868 4345 
L 1868 4179 
C 2246 4179 2304 4141 2304 3843 
L 2304 2371 
C 2278 2403 2016 2816 1497 2816 
C 844 2816 211 2228 211 1376 
C 211 529 806 -64 1433 -64 
C 1977 -64 2259 361 2291 406 
L 2291 -64 
L 3065 -13 
L 3065 154 
C 2688 154 2630 193 2630 503 
L 2630 4416 
L 1868 4345 
z
M 2291 762 
C 2291 568 2176 393 2028 264 
C 1811 70 1593 38 1472 38 
C 1286 38 620 135 620 1369 
C 620 2636 1363 2713 1529 2713 
C 1824 2713 2060 2545 2208 2313 
C 2291 2177 2291 2157 2291 2041 
L 2291 762 
z
" transform="scale(0.015625)"/>
      </defs>
      <use xlink:href="#CMR17-69" transform="scale(0.996264)"/>
      <use xlink:href="#CMR17-74" transform="translate(45.690477 0) scale(0.996264)"/>
      <use xlink:href="#CMR17-6b" transform="translate(80.971245 0) scale(0.996264)"/>
      <use xlink:href="#CMR17-66" transform="translate(105.842303 0) scale(0.996264)"/>
     </g>
    </g>
    <g id="line2d_98">
     <path d="M 177.628141 130.244505 
L 187.628141 130.244505 
L 197.628141 130.244505 
" style="fill: none; stroke: #00b945; stroke-linecap: square"/>
    </g>
    <g id="text_14">
     <!-- auto -->
     <g transform="translate(205.628141 133.744505) scale(0.1 -0.1)">
      <defs>
       <path id="CMR17-63" d="M 2304 1656 
C 2304 2048 2304 2275 2035 2534 
C 1798 2751 1523 2816 1305 2816 
C 800 2816 435 2408 435 1977 
C 435 1740 627 1728 665 1728 
C 748 1728 896 1779 896 1958 
C 896 2118 774 2188 665 2188 
C 640 2188 608 2182 588 2176 
C 723 2594 1068 2713 1292 2713 
C 1612 2713 1964 2421 1964 1875 
L 1964 1632 
C 1587 1619 1132 1568 774 1373 
C 371 1147 256 822 256 576 
C 256 77 832 -64 1171 -64 
C 1523 -64 1849 135 1990 505 
C 2003 219 2182 -39 2464 -39 
C 2598 -39 2937 51 2937 563 
L 2937 926 
L 2822 926 
L 2822 557 
C 2822 161 2649 109 2566 109 
C 2304 109 2304 446 2304 732 
L 2304 1656 
z
M 1964 887 
C 1964 323 1568 38 1216 38 
C 896 38 646 278 646 576 
C 646 771 729 1114 1100 1322 
C 1408 1497 1760 1523 1964 1536 
L 1964 887 
z
" transform="scale(0.015625)"/>
       <path id="CMR17-77" d="M 1881 2745 
L 1881 2579 
C 2259 2579 2316 2540 2316 2229 
L 2316 1053 
C 2316 510 2028 38 1555 38 
C 1030 38 985 355 985 691 
L 985 2816 
L 211 2745 
L 211 2579 
C 467 2579 640 2579 646 2320 
L 646 1079 
C 646 646 646 368 812 187 
C 896 103 1056 -64 1516 -64 
C 2060 -64 2272 400 2323 536 
L 2329 536 
L 2329 -64 
L 3091 -13 
L 3091 154 
C 2713 154 2656 193 2656 503 
L 2656 2816 
L 1881 2745 
z
" transform="scale(0.015625)"/>
       <path id="CMR17-76" d="M 966 2585 
L 1862 2585 
L 1862 2752 
L 966 2752 
L 966 3968 
L 851 3968 
C 838 3292 614 2700 70 2687 
L 70 2585 
L 627 2585 
L 627 778 
C 627 655 627 -64 1369 -64 
C 1747 -64 1964 308 1964 784 
L 1964 1151 
L 1849 1151 
L 1849 790 
C 1849 347 1676 51 1408 51 
C 1222 51 966 179 966 765 
L 966 2585 
z
" transform="scale(0.015625)"/>
       <path id="CMR17-71" d="M 2758 1356 
C 2758 2176 2163 2816 1465 2816 
C 768 2816 172 2176 172 1356 
C 172 550 768 -64 1465 -64 
C 2163 -64 2758 550 2758 1356 
z
M 1465 51 
C 1164 51 908 230 761 480 
C 601 768 582 1126 582 1408 
C 582 1676 595 2009 761 2297 
C 889 2508 1139 2713 1465 2713 
C 1753 2713 1996 2553 2150 2329 
C 2348 2028 2348 1606 2348 1408 
C 2348 1158 2336 774 2163 467 
C 1984 172 1708 51 1465 51 
z
" transform="scale(0.015625)"/>
      </defs>
      <use xlink:href="#CMR17-63" transform="scale(0.996264)"/>
      <use xlink:href="#CMR17-77" transform="translate(45.690477 0) scale(0.996264)"/>
      <use xlink:href="#CMR17-76" transform="translate(96.585847 0) scale(0.996264)"/>
      <use xlink:href="#CMR17-71" transform="translate(131.866615 0) scale(0.996264)"/>
     </g>
    </g>
   </g>
  </g>
 </g>
 <defs>
  <clipPath id="pb5aa215528">
   <rect x="31.025311" y="7.059249" width="202.974689" height="137.622434"/>
  </clipPath>
 </defs>
</svg>
