<?xml version="1.0" encoding="utf-8" standalone="no"?>
<!DOCTYPE svg PUBLIC "-//W3C//DTD SVG 1.1//EN"
  "http://www.w3.org/Graphics/SVG/1.1/DTD/svg11.dtd">
<svg xmlns:xlink="http://www.w3.org/1999/xlink" width="293.474054pt" height="279.583152pt" viewBox="0 0 293.474054 279.583152" xmlns="http://www.w3.org/2000/svg" version="1.1">
 <metadata>
  <rdf:RDF xmlns:dc="http://purl.org/dc/elements/1.1/" xmlns:cc="http://creativecommons.org/ns#" xmlns:rdf="http://www.w3.org/1999/02/22-rdf-syntax-ns#">
   <cc:Work>
    <dc:type rdf:resource="http://purl.org/dc/dcmitype/StillImage"/>
    <dc:date>2026-04-13T04:56:46.421331</dc:date>
    <dc:format>image/svg+xml</dc:format>
    <dc:creator>
     <cc:Agent>
      <dc:title>Matplotlib v3.10.8, https://matplotlib.org/</dc:title>
     </cc:Agent>
    </dc:creator>
   </cc:Work>
  </rdf:RDF>
 </metadata>
 <defs>
  <style type="text/css">*{stroke-linejoin: round; stroke-linecap: butt}</style>
 </defs>
 <g id="figure_1">
  <g id="patch_1">
   <path d="M -0 279.583152 
L 293.474054 279.583152 
L 293.474054 0 
L -0 0 
z
" style="fill: #ffffff"/>
  </g>
  <g id="axes_1">
   <g id="patch_2">
    <path d="M 38.774054 249.664835 
L 289.874054 249.664835 
L 289.874054 27.904835 
L 38.774054 27.904835 
z
" style="fill: #ffffff"/>
   </g>
   <g id="patch_3">
    <path d="M 166.606782 204.183647 
L 184.8686 204.183647 
L 184.8686 180.582855 
L 166.606782 180.582855 
L 166.606782 204.183647 
z
" clip-path="url(#p26c09332fa)" style="fill: none; stroke: #808080; stroke-linejoin: miter"/>
   </g>
   <g id="patch_4">
    <path d="M 133.507236 68.479093 
L 154.051782 68.479093 
L 154.051782 44.878301 
L 133.507236 44.878301 
L 133.507236 68.479093 
z
" clip-path="url(#p26c09332fa)" style="fill: none; stroke: #808080; stroke-linejoin: miter"/>
   </g>
   <g id="matplotlib.axis_1">
    <g id="xtick_1">
     <g id="line2d_1">
      <defs>
       <path id="m9af0dcd5de" d="M 0 0 
L 0 -3 
" style="stroke: #000000; stroke-width: 0.5"/>
      </defs>
      <g>
       <use xlink:href="#m9af0dcd5de" x="73.014963" y="249.664835" style="stroke: #000000; stroke-width: 0.5"/>
      </g>
     </g>
     <g id="line2d_2">
      <defs>
       <path id="m871e2f62ae" d="M 0 0 
L 0 3 
" style="stroke: #000000; stroke-width: 0.5"/>
      </defs>
      <g>
       <use xlink:href="#m871e2f62ae" x="73.014963" y="27.904835" style="stroke: #000000; stroke-width: 0.5"/>
      </g>
     </g>
     <g id="text_1">
      <!-- $\mathdefault{4600}$ -->
      <g transform="translate(63.052293 260.083334) scale(0.1 -0.1)">
       <defs>
        <path id="CMR17-34" d="M 2150 4122 
C 2150 4256 2144 4256 2029 4256 
L 128 1254 
L 128 1088 
L 1779 1088 
L 1779 457 
C 1779 224 1766 160 1318 160 
L 1197 160 
L 1197 0 
C 1402 0 1747 0 1965 0 
C 2182 0 2528 0 2733 0 
L 2733 160 
L 2611 160 
C 2163 160 2150 224 2150 457 
L 2150 1088 
L 2803 1088 
L 2803 1254 
L 2150 1254 
L 2150 4122 
z
M 1798 3703 
L 1798 1254 
L 256 1254 
L 1798 3703 
z
" transform="scale(0.015625)"/>
        <path id="CMR17-36" d="M 678 2176 
C 678 3690 1395 4032 1811 4032 
C 1946 4032 2272 4009 2400 3776 
C 2298 3776 2106 3776 2106 3553 
C 2106 3381 2246 3323 2336 3323 
C 2394 3323 2566 3348 2566 3560 
C 2566 3954 2246 4179 1805 4179 
C 1043 4179 243 3390 243 1984 
C 243 253 966 -128 1478 -128 
C 2099 -128 2688 427 2688 1283 
C 2688 2081 2170 2662 1517 2662 
C 1126 2662 838 2407 678 1960 
L 678 2176 
z
M 1478 25 
C 691 25 691 1200 691 1436 
C 691 1896 909 2560 1504 2560 
C 1613 2560 1926 2560 2138 2120 
C 2253 1870 2253 1609 2253 1289 
C 2253 944 2253 690 2118 434 
C 1978 171 1773 25 1478 25 
z
" transform="scale(0.015625)"/>
        <path id="CMR17-30" d="M 2688 2025 
C 2688 2416 2682 3080 2413 3591 
C 2176 4039 1798 4198 1466 4198 
C 1158 4198 768 4058 525 3597 
C 269 3118 243 2524 243 2025 
C 243 1661 250 1106 448 619 
C 723 -39 1216 -128 1466 -128 
C 1760 -128 2208 -7 2470 600 
C 2662 1042 2688 1559 2688 2025 
z
M 1466 -26 
C 1056 -26 813 325 723 812 
C 653 1188 653 1738 653 2096 
C 653 2588 653 2997 736 3387 
C 858 3929 1216 4096 1466 4096 
C 1728 4096 2067 3923 2189 3400 
C 2272 3036 2278 2607 2278 2096 
C 2278 1680 2278 1169 2202 792 
C 2067 95 1690 -26 1466 -26 
z
" transform="scale(0.015625)"/>
       </defs>
       <use xlink:href="#CMR17-34" transform="scale(0.996264)"/>
       <use xlink:href="#CMR17-36" transform="translate(45.690477 0) scale(0.996264)"/>
       <use xlink:href="#CMR17-30" transform="translate(91.380954 0) scale(0.996264)"/>
       <use xlink:href="#CMR17-30" transform="translate(137.071431 0) scale(0.996264)"/>
      </g>
     </g>
    </g>
    <g id="xtick_2">
     <g id="line2d_3">
      <g>
       <use xlink:href="#m9af0dcd5de" x="118.669509" y="249.664835" style="stroke: #000000; stroke-width: 0.5"/>
      </g>
     </g>
     <g id="line2d_4">
      <g>
       <use xlink:href="#m871e2f62ae" x="118.669509" y="27.904835" style="stroke: #000000; stroke-width: 0.5"/>
      </g>
     </g>
     <g id="text_2">
      <!-- $\mathdefault{4800}$ -->
      <g transform="translate(108.706838 260.083334) scale(0.1 -0.1)">
       <defs>
        <path id="CMR17-38" d="M 1741 2264 
C 2144 2467 2554 2773 2554 3263 
C 2554 3841 1990 4179 1472 4179 
C 890 4179 378 3759 378 3180 
C 378 3021 416 2747 666 2505 
C 730 2442 998 2251 1171 2130 
C 883 1983 211 1634 211 934 
C 211 279 838 -128 1459 -128 
C 2144 -128 2720 362 2720 1010 
C 2720 1590 2330 1857 2074 2029 
L 1741 2264 
z
M 902 2822 
C 851 2854 595 3051 595 3351 
C 595 3739 998 4032 1459 4032 
C 1965 4032 2336 3676 2336 3262 
C 2336 2669 1670 2331 1638 2331 
C 1632 2331 1626 2331 1574 2370 
L 902 2822 
z
M 2080 1519 
C 2176 1449 2483 1240 2483 851 
C 2483 381 2010 25 1472 25 
C 890 25 448 438 448 940 
C 448 1443 838 1862 1280 2060 
L 2080 1519 
z
" transform="scale(0.015625)"/>
       </defs>
       <use xlink:href="#CMR17-34" transform="scale(0.996264)"/>
       <use xlink:href="#CMR17-38" transform="translate(45.690477 0) scale(0.996264)"/>
       <use xlink:href="#CMR17-30" transform="translate(91.380954 0) scale(0.996264)"/>
       <use xlink:href="#CMR17-30" transform="translate(137.071431 0) scale(0.996264)"/>
      </g>
     </g>
    </g>
    <g id="xtick_3">
     <g id="line2d_5">
      <g>
       <use xlink:href="#m9af0dcd5de" x="164.324054" y="249.664835" style="stroke: #000000; stroke-width: 0.5"/>
      </g>
     </g>
     <g id="line2d_6">
      <g>
       <use xlink:href="#m871e2f62ae" x="164.324054" y="27.904835" style="stroke: #000000; stroke-width: 0.5"/>
      </g>
     </g>
     <g id="text_3">
      <!-- $\mathdefault{5000}$ -->
      <g transform="translate(154.361384 260.083334) scale(0.1 -0.1)">
       <defs>
        <path id="CMR17-35" d="M 730 3692 
C 794 3666 1056 3584 1325 3584 
C 1920 3584 2246 3911 2432 4100 
C 2432 4157 2432 4192 2394 4192 
C 2387 4192 2374 4192 2323 4163 
C 2099 4058 1837 3973 1517 3973 
C 1325 3973 1037 3999 723 4139 
C 653 4171 640 4171 634 4171 
C 602 4171 595 4164 595 4037 
L 595 2203 
C 595 2089 595 2057 659 2057 
C 691 2057 704 2070 736 2114 
C 941 2401 1222 2522 1542 2522 
C 1766 2522 2246 2382 2246 1289 
C 2246 1085 2246 715 2054 421 
C 1894 159 1645 25 1370 25 
C 947 25 518 320 403 814 
C 429 807 480 795 506 795 
C 589 795 749 840 749 1038 
C 749 1210 627 1280 506 1280 
C 358 1280 262 1190 262 1011 
C 262 454 704 -128 1382 -128 
C 2042 -128 2669 440 2669 1264 
C 2669 2030 2170 2624 1549 2624 
C 1222 2624 947 2503 730 2274 
L 730 3692 
z
" transform="scale(0.015625)"/>
       </defs>
       <use xlink:href="#CMR17-35" transform="scale(0.996264)"/>
       <use xlink:href="#CMR17-30" transform="translate(45.690477 0) scale(0.996264)"/>
       <use xlink:href="#CMR17-30" transform="translate(91.380954 0) scale(0.996264)"/>
       <use xlink:href="#CMR17-30" transform="translate(137.071431 0) scale(0.996264)"/>
      </g>
     </g>
    </g>
    <g id="xtick_4">
     <g id="line2d_7">
      <g>
       <use xlink:href="#m9af0dcd5de" x="209.9786" y="249.664835" style="stroke: #000000; stroke-width: 0.5"/>
      </g>
     </g>
     <g id="line2d_8">
      <g>
       <use xlink:href="#m871e2f62ae" x="209.9786" y="27.904835" style="stroke: #000000; stroke-width: 0.5"/>
      </g>
     </g>
     <g id="text_4">
      <!-- $\mathdefault{5200}$ -->
      <g transform="translate(200.015929 260.083334) scale(0.1 -0.1)">
       <defs>
        <path id="CMR17-32" d="M 2669 989 
L 2554 989 
C 2490 536 2438 459 2413 420 
C 2381 369 1920 369 1830 369 
L 602 369 
C 832 619 1280 1072 1824 1597 
C 2214 1967 2669 2402 2669 3035 
C 2669 3790 2067 4224 1395 4224 
C 691 4224 262 3604 262 3030 
C 262 2780 448 2748 525 2748 
C 589 2748 781 2787 781 3010 
C 781 3207 614 3264 525 3264 
C 486 3264 448 3258 422 3245 
C 544 3790 915 4058 1306 4058 
C 1862 4058 2227 3617 2227 3035 
C 2227 2479 1901 2000 1536 1584 
L 262 146 
L 262 0 
L 2515 0 
L 2669 989 
z
" transform="scale(0.015625)"/>
       </defs>
       <use xlink:href="#CMR17-35" transform="scale(0.996264)"/>
       <use xlink:href="#CMR17-32" transform="translate(45.690477 0) scale(0.996264)"/>
       <use xlink:href="#CMR17-30" transform="translate(91.380954 0) scale(0.996264)"/>
       <use xlink:href="#CMR17-30" transform="translate(137.071431 0) scale(0.996264)"/>
      </g>
     </g>
    </g>
    <g id="xtick_5">
     <g id="line2d_9">
      <g>
       <use xlink:href="#m9af0dcd5de" x="255.633145" y="249.664835" style="stroke: #000000; stroke-width: 0.5"/>
      </g>
     </g>
     <g id="line2d_10">
      <g>
       <use xlink:href="#m871e2f62ae" x="255.633145" y="27.904835" style="stroke: #000000; stroke-width: 0.5"/>
      </g>
     </g>
     <g id="text_5">
      <!-- $\mathdefault{5400}$ -->
      <g transform="translate(245.670475 260.083334) scale(0.1 -0.1)">
       <use xlink:href="#CMR17-35" transform="scale(0.996264)"/>
       <use xlink:href="#CMR17-34" transform="translate(45.690477 0) scale(0.996264)"/>
       <use xlink:href="#CMR17-30" transform="translate(91.380954 0) scale(0.996264)"/>
       <use xlink:href="#CMR17-30" transform="translate(137.071431 0) scale(0.996264)"/>
      </g>
     </g>
    </g>
    <g id="xtick_6">
     <g id="line2d_11">
      <defs>
       <path id="mbbd565b4f2" d="M 0 0 
L 0 -1.5 
" style="stroke: #000000; stroke-width: 0.5"/>
      </defs>
      <g>
       <use xlink:href="#mbbd565b4f2" x="38.774054" y="249.664835" style="stroke: #000000; stroke-width: 0.5"/>
      </g>
     </g>
     <g id="line2d_12">
      <defs>
       <path id="md8c75b16bd" d="M 0 0 
L 0 1.5 
" style="stroke: #000000; stroke-width: 0.5"/>
      </defs>
      <g>
       <use xlink:href="#md8c75b16bd" x="38.774054" y="27.904835" style="stroke: #000000; stroke-width: 0.5"/>
      </g>
     </g>
    </g>
    <g id="xtick_7">
     <g id="line2d_13">
      <g>
       <use xlink:href="#mbbd565b4f2" x="50.187691" y="249.664835" style="stroke: #000000; stroke-width: 0.5"/>
      </g>
     </g>
     <g id="line2d_14">
      <g>
       <use xlink:href="#md8c75b16bd" x="50.187691" y="27.904835" style="stroke: #000000; stroke-width: 0.5"/>
      </g>
     </g>
    </g>
    <g id="xtick_8">
     <g id="line2d_15">
      <g>
       <use xlink:href="#mbbd565b4f2" x="61.601327" y="249.664835" style="stroke: #000000; stroke-width: 0.5"/>
      </g>
     </g>
     <g id="line2d_16">
      <g>
       <use xlink:href="#md8c75b16bd" x="61.601327" y="27.904835" style="stroke: #000000; stroke-width: 0.5"/>
      </g>
     </g>
    </g>
    <g id="xtick_9">
     <g id="line2d_17">
      <g>
       <use xlink:href="#mbbd565b4f2" x="84.4286" y="249.664835" style="stroke: #000000; stroke-width: 0.5"/>
      </g>
     </g>
     <g id="line2d_18">
      <g>
       <use xlink:href="#md8c75b16bd" x="84.4286" y="27.904835" style="stroke: #000000; stroke-width: 0.5"/>
      </g>
     </g>
    </g>
    <g id="xtick_10">
     <g id="line2d_19">
      <g>
       <use xlink:href="#mbbd565b4f2" x="95.842236" y="249.664835" style="stroke: #000000; stroke-width: 0.5"/>
      </g>
     </g>
     <g id="line2d_20">
      <g>
       <use xlink:href="#md8c75b16bd" x="95.842236" y="27.904835" style="stroke: #000000; stroke-width: 0.5"/>
      </g>
     </g>
    </g>
    <g id="xtick_11">
     <g id="line2d_21">
      <g>
       <use xlink:href="#mbbd565b4f2" x="107.255873" y="249.664835" style="stroke: #000000; stroke-width: 0.5"/>
      </g>
     </g>
     <g id="line2d_22">
      <g>
       <use xlink:href="#md8c75b16bd" x="107.255873" y="27.904835" style="stroke: #000000; stroke-width: 0.5"/>
      </g>
     </g>
    </g>
    <g id="xtick_12">
     <g id="line2d_23">
      <g>
       <use xlink:href="#mbbd565b4f2" x="130.083145" y="249.664835" style="stroke: #000000; stroke-width: 0.5"/>
      </g>
     </g>
     <g id="line2d_24">
      <g>
       <use xlink:href="#md8c75b16bd" x="130.083145" y="27.904835" style="stroke: #000000; stroke-width: 0.5"/>
      </g>
     </g>
    </g>
    <g id="xtick_13">
     <g id="line2d_25">
      <g>
       <use xlink:href="#mbbd565b4f2" x="141.496782" y="249.664835" style="stroke: #000000; stroke-width: 0.5"/>
      </g>
     </g>
     <g id="line2d_26">
      <g>
       <use xlink:href="#md8c75b16bd" x="141.496782" y="27.904835" style="stroke: #000000; stroke-width: 0.5"/>
      </g>
     </g>
    </g>
    <g id="xtick_14">
     <g id="line2d_27">
      <g>
       <use xlink:href="#mbbd565b4f2" x="152.910418" y="249.664835" style="stroke: #000000; stroke-width: 0.5"/>
      </g>
     </g>
     <g id="line2d_28">
      <g>
       <use xlink:href="#md8c75b16bd" x="152.910418" y="27.904835" style="stroke: #000000; stroke-width: 0.5"/>
      </g>
     </g>
    </g>
    <g id="xtick_15">
     <g id="line2d_29">
      <g>
       <use xlink:href="#mbbd565b4f2" x="175.737691" y="249.664835" style="stroke: #000000; stroke-width: 0.5"/>
      </g>
     </g>
     <g id="line2d_30">
      <g>
       <use xlink:href="#md8c75b16bd" x="175.737691" y="27.904835" style="stroke: #000000; stroke-width: 0.5"/>
      </g>
     </g>
    </g>
    <g id="xtick_16">
     <g id="line2d_31">
      <g>
       <use xlink:href="#mbbd565b4f2" x="187.151327" y="249.664835" style="stroke: #000000; stroke-width: 0.5"/>
      </g>
     </g>
     <g id="line2d_32">
      <g>
       <use xlink:href="#md8c75b16bd" x="187.151327" y="27.904835" style="stroke: #000000; stroke-width: 0.5"/>
      </g>
     </g>
    </g>
    <g id="xtick_17">
     <g id="line2d_33">
      <g>
       <use xlink:href="#mbbd565b4f2" x="198.564963" y="249.664835" style="stroke: #000000; stroke-width: 0.5"/>
      </g>
     </g>
     <g id="line2d_34">
      <g>
       <use xlink:href="#md8c75b16bd" x="198.564963" y="27.904835" style="stroke: #000000; stroke-width: 0.5"/>
      </g>
     </g>
    </g>
    <g id="xtick_18">
     <g id="line2d_35">
      <g>
       <use xlink:href="#mbbd565b4f2" x="221.392236" y="249.664835" style="stroke: #000000; stroke-width: 0.5"/>
      </g>
     </g>
     <g id="line2d_36">
      <g>
       <use xlink:href="#md8c75b16bd" x="221.392236" y="27.904835" style="stroke: #000000; stroke-width: 0.5"/>
      </g>
     </g>
    </g>
    <g id="xtick_19">
     <g id="line2d_37">
      <g>
       <use xlink:href="#mbbd565b4f2" x="232.805873" y="249.664835" style="stroke: #000000; stroke-width: 0.5"/>
      </g>
     </g>
     <g id="line2d_38">
      <g>
       <use xlink:href="#md8c75b16bd" x="232.805873" y="27.904835" style="stroke: #000000; stroke-width: 0.5"/>
      </g>
     </g>
    </g>
    <g id="xtick_20">
     <g id="line2d_39">
      <g>
       <use xlink:href="#mbbd565b4f2" x="244.219509" y="249.664835" style="stroke: #000000; stroke-width: 0.5"/>
      </g>
     </g>
     <g id="line2d_40">
      <g>
       <use xlink:href="#md8c75b16bd" x="244.219509" y="27.904835" style="stroke: #000000; stroke-width: 0.5"/>
      </g>
     </g>
    </g>
    <g id="xtick_21">
     <g id="line2d_41">
      <g>
       <use xlink:href="#mbbd565b4f2" x="267.046782" y="249.664835" style="stroke: #000000; stroke-width: 0.5"/>
      </g>
     </g>
     <g id="line2d_42">
      <g>
       <use xlink:href="#md8c75b16bd" x="267.046782" y="27.904835" style="stroke: #000000; stroke-width: 0.5"/>
      </g>
     </g>
    </g>
    <g id="xtick_22">
     <g id="line2d_43">
      <g>
       <use xlink:href="#mbbd565b4f2" x="278.460418" y="249.664835" style="stroke: #000000; stroke-width: 0.5"/>
      </g>
     </g>
     <g id="line2d_44">
      <g>
       <use xlink:href="#md8c75b16bd" x="278.460418" y="27.904835" style="stroke: #000000; stroke-width: 0.5"/>
      </g>
     </g>
    </g>
    <g id="xtick_23">
     <g id="line2d_45">
      <g>
       <use xlink:href="#mbbd565b4f2" x="289.874054" y="249.664835" style="stroke: #000000; stroke-width: 0.5"/>
      </g>
     </g>
     <g id="line2d_46">
      <g>
       <use xlink:href="#md8c75b16bd" x="289.874054" y="27.904835" style="stroke: #000000; stroke-width: 0.5"/>
      </g>
     </g>
    </g>
    <g id="text_6">
     <!-- $E$ [eV] -->
     <g transform="translate(149.982001 273.492492) scale(0.1 -0.1)">
      <defs>
       <path id="CMMI12-45" d="M 4448 1489 
C 4454 1508 4474 1554 4474 1579 
C 4474 1611 4448 1643 4410 1643 
C 4384 1643 4371 1637 4352 1617 
C 4339 1611 4339 1598 4282 1469 
C 3904 570 3629 185 2605 185 
L 1670 185 
C 1581 185 1568 185 1530 192 
C 1459 198 1453 211 1453 262 
C 1453 307 1466 345 1478 403 
L 1920 2176 
L 2554 2176 
C 3053 2176 3091 2066 3091 1874 
C 3091 1810 3091 1752 3046 1560 
C 3034 1534 3027 1508 3027 1489 
C 3027 1444 3059 1425 3098 1425 
C 3155 1425 3162 1469 3187 1559 
L 3552 3042 
C 3552 3073 3526 3105 3488 3105 
C 3430 3105 3424 3080 3398 2990 
C 3270 2501 3142 2361 2573 2361 
L 1965 2361 
L 2362 3930 
C 2419 4154 2432 4154 2694 4154 
L 3610 4154 
C 4397 4154 4557 3943 4557 3458 
C 4557 3451 4557 3273 4531 3062 
C 4525 3036 4518 2998 4518 2985 
C 4518 2934 4550 2915 4589 2915 
C 4634 2915 4659 2941 4672 3055 
L 4806 4174 
C 4806 4195 4819 4263 4819 4277 
C 4819 4352 4762 4352 4646 4352 
L 1523 4352 
C 1402 4352 1338 4352 1338 4229 
C 1338 4154 1382 4154 1491 4154 
C 1888 4154 1888 4114 1888 4052 
C 1888 4020 1882 3994 1862 3924 
L 998 473 
C 941 249 928 185 480 185 
C 358 185 294 185 294 70 
C 294 0 333 0 461 0 
L 3674 0 
C 3814 0 3821 6 3866 110 
L 4448 1489 
z
" transform="scale(0.015625)"/>
       <path id="CMR17-5b" d="M 1504 -1600 
L 1504 -1377 
L 902 -1377 
L 902 4544 
L 1504 4544 
L 1504 4767 
L 678 4767 
L 678 -1600 
L 1504 -1600 
z
" transform="scale(0.015625)"/>
       <path id="CMR17-65" d="M 2438 1472 
C 2464 1498 2464 1511 2464 1576 
C 2464 2238 2118 2816 1389 2816 
C 710 2816 173 2169 173 1383 
C 173 551 781 -64 1459 -64 
C 2176 -64 2458 607 2458 740 
C 2458 784 2419 784 2406 784 
C 2362 784 2355 771 2330 696 
C 2189 265 1837 51 1504 51 
C 1229 51 954 203 781 480 
C 582 803 582 1176 582 1472 
L 2438 1472 
z
M 589 1568 
C 634 2505 1126 2714 1382 2714 
C 1818 2714 2112 2297 2118 1568 
L 589 1568 
z
" transform="scale(0.015625)"/>
       <path id="CMR17-56" d="M 3776 3745 
C 3834 3886 3936 4160 4365 4160 
L 4365 4332 
C 4218 4319 4051 4319 3891 4319 
C 3738 4319 3475 4319 3328 4332 
L 3328 4160 
C 3648 4160 3661 3936 3661 3898 
C 3661 3827 3642 3783 3622 3732 
L 2362 446 
L 1043 3886 
C 1024 3931 1011 3963 1011 3994 
C 1011 4160 1267 4160 1402 4160 
L 1402 4319 
C 1197 4319 896 4319 685 4319 
C 518 4319 218 4319 64 4332 
L 64 4160 
C 435 4160 506 4135 582 3931 
L 2106 -26 
C 2138 -115 2144 -128 2214 -128 
C 2285 -128 2291 -115 2323 -26 
L 3776 3745 
z
" transform="scale(0.015625)"/>
       <path id="CMR17-5d" d="M 915 4767 
L 90 4767 
L 90 4544 
L 691 4544 
L 691 -1377 
L 90 -1377 
L 90 -1600 
L 915 -1600 
L 915 4767 
z
" transform="scale(0.015625)"/>
      </defs>
      <use xlink:href="#CMMI12-45" transform="scale(0.996264)"/>
      <use xlink:href="#CMR17-5b" transform="translate(108.127603 0) scale(0.996264)"/>
      <use xlink:href="#CMR17-65" transform="translate(132.998661 0) scale(0.996264)"/>
      <use xlink:href="#CMR17-56" transform="translate(173.484321 0) scale(0.996264)"/>
      <use xlink:href="#CMR17-5d" transform="translate(242.556751 0) scale(0.996264)"/>
     </g>
    </g>
   </g>
   <g id="matplotlib.axis_2">
    <g id="ytick_1">
     <g id="line2d_47">
      <defs>
       <path id="m0bebe1fdfc" d="M 0 0 
L 3 0 
" style="stroke: #000000; stroke-width: 0.5"/>
      </defs>
      <g>
       <use xlink:href="#m0bebe1fdfc" x="38.774054" y="239.584835" style="stroke: #000000; stroke-width: 0.5"/>
      </g>
     </g>
     <g id="line2d_48">
      <defs>
       <path id="m7cba7ed652" d="M 0 0 
L -3 0 
" style="stroke: #000000; stroke-width: 0.5"/>
      </defs>
      <g>
       <use xlink:href="#m7cba7ed652" x="289.874054" y="239.584835" style="stroke: #000000; stroke-width: 0.5"/>
      </g>
     </g>
     <g id="text_7">
      <!-- $\mathdefault{0.00}$ -->
      <g transform="translate(17.56264 243.044084) scale(0.1 -0.1)">
       <defs>
        <path id="CMMI12-3a" d="M 1178 307 
C 1178 492 1024 619 870 619 
C 685 619 557 466 557 313 
C 557 128 710 0 864 0 
C 1050 0 1178 153 1178 307 
z
" transform="scale(0.015625)"/>
       </defs>
       <use xlink:href="#CMR17-30" transform="scale(0.996264)"/>
       <use xlink:href="#CMMI12-3a" transform="translate(45.690477 0) scale(0.996264)"/>
       <use xlink:href="#CMR17-30" transform="translate(72.787654 0) scale(0.996264)"/>
       <use xlink:href="#CMR17-30" transform="translate(118.478131 0) scale(0.996264)"/>
      </g>
     </g>
    </g>
    <g id="ytick_2">
     <g id="line2d_49">
      <g>
       <use xlink:href="#m0bebe1fdfc" x="38.774054" y="210.083845" style="stroke: #000000; stroke-width: 0.5"/>
      </g>
     </g>
     <g id="line2d_50">
      <g>
       <use xlink:href="#m7cba7ed652" x="289.874054" y="210.083845" style="stroke: #000000; stroke-width: 0.5"/>
      </g>
     </g>
     <g id="text_8">
      <!-- $\mathdefault{0.25}$ -->
      <g transform="translate(17.56264 213.543094) scale(0.1 -0.1)">
       <use xlink:href="#CMR17-30" transform="scale(0.996264)"/>
       <use xlink:href="#CMMI12-3a" transform="translate(45.690477 0) scale(0.996264)"/>
       <use xlink:href="#CMR17-32" transform="translate(72.787654 0) scale(0.996264)"/>
       <use xlink:href="#CMR17-35" transform="translate(118.478131 0) scale(0.996264)"/>
      </g>
     </g>
    </g>
    <g id="ytick_3">
     <g id="line2d_51">
      <g>
       <use xlink:href="#m0bebe1fdfc" x="38.774054" y="180.582855" style="stroke: #000000; stroke-width: 0.5"/>
      </g>
     </g>
     <g id="line2d_52">
      <g>
       <use xlink:href="#m7cba7ed652" x="289.874054" y="180.582855" style="stroke: #000000; stroke-width: 0.5"/>
      </g>
     </g>
     <g id="text_9">
      <!-- $\mathdefault{0.50}$ -->
      <g transform="translate(17.56264 184.042104) scale(0.1 -0.1)">
       <use xlink:href="#CMR17-30" transform="scale(0.996264)"/>
       <use xlink:href="#CMMI12-3a" transform="translate(45.690477 0) scale(0.996264)"/>
       <use xlink:href="#CMR17-35" transform="translate(72.787654 0) scale(0.996264)"/>
       <use xlink:href="#CMR17-30" transform="translate(118.478131 0) scale(0.996264)"/>
      </g>
     </g>
    </g>
    <g id="ytick_4">
     <g id="line2d_53">
      <g>
       <use xlink:href="#m0bebe1fdfc" x="38.774054" y="151.081865" style="stroke: #000000; stroke-width: 0.5"/>
      </g>
     </g>
     <g id="line2d_54">
      <g>
       <use xlink:href="#m7cba7ed652" x="289.874054" y="151.081865" style="stroke: #000000; stroke-width: 0.5"/>
      </g>
     </g>
     <g id="text_10">
      <!-- $\mathdefault{0.75}$ -->
      <g transform="translate(17.56264 154.541114) scale(0.1 -0.1)">
       <defs>
        <path id="CMR17-37" d="M 2886 3941 
L 2886 4081 
L 1382 4081 
C 634 4081 621 4165 595 4288 
L 480 4288 
L 294 3094 
L 410 3094 
C 429 3215 474 3540 550 3661 
C 589 3712 1062 3712 1171 3712 
L 2579 3712 
L 1869 2661 
C 1395 1954 1069 999 1069 165 
C 1069 89 1069 -128 1299 -128 
C 1530 -128 1530 89 1530 171 
L 1530 465 
C 1530 1508 1709 2196 2003 2636 
L 2886 3941 
z
" transform="scale(0.015625)"/>
       </defs>
       <use xlink:href="#CMR17-30" transform="scale(0.996264)"/>
       <use xlink:href="#CMMI12-3a" transform="translate(45.690477 0) scale(0.996264)"/>
       <use xlink:href="#CMR17-37" transform="translate(72.787654 0) scale(0.996264)"/>
       <use xlink:href="#CMR17-35" transform="translate(118.478131 0) scale(0.996264)"/>
      </g>
     </g>
    </g>
    <g id="ytick_5">
     <g id="line2d_55">
      <g>
       <use xlink:href="#m0bebe1fdfc" x="38.774054" y="121.580875" style="stroke: #000000; stroke-width: 0.5"/>
      </g>
     </g>
     <g id="line2d_56">
      <g>
       <use xlink:href="#m7cba7ed652" x="289.874054" y="121.580875" style="stroke: #000000; stroke-width: 0.5"/>
      </g>
     </g>
     <g id="text_11">
      <!-- $\mathdefault{1.00}$ -->
      <g transform="translate(17.56264 125.040124) scale(0.1 -0.1)">
       <defs>
        <path id="CMR17-31" d="M 1702 4058 
C 1702 4192 1696 4192 1606 4192 
C 1357 3916 979 3827 621 3827 
C 602 3827 570 3827 563 3808 
C 557 3795 557 3782 557 3648 
C 755 3648 1088 3686 1344 3839 
L 1344 461 
C 1344 236 1331 160 781 160 
L 589 160 
L 589 0 
C 896 0 1216 0 1523 0 
C 1830 0 2150 0 2458 0 
L 2458 160 
L 2266 160 
C 1715 160 1702 230 1702 458 
L 1702 4058 
z
" transform="scale(0.015625)"/>
       </defs>
       <use xlink:href="#CMR17-31" transform="scale(0.996264)"/>
       <use xlink:href="#CMMI12-3a" transform="translate(45.690477 0) scale(0.996264)"/>
       <use xlink:href="#CMR17-30" transform="translate(72.787654 0) scale(0.996264)"/>
       <use xlink:href="#CMR17-30" transform="translate(118.478131 0) scale(0.996264)"/>
      </g>
     </g>
    </g>
    <g id="ytick_6">
     <g id="line2d_57">
      <g>
       <use xlink:href="#m0bebe1fdfc" x="38.774054" y="92.079885" style="stroke: #000000; stroke-width: 0.5"/>
      </g>
     </g>
     <g id="line2d_58">
      <g>
       <use xlink:href="#m7cba7ed652" x="289.874054" y="92.079885" style="stroke: #000000; stroke-width: 0.5"/>
      </g>
     </g>
     <g id="text_12">
      <!-- $\mathdefault{1.25}$ -->
      <g transform="translate(17.56264 95.539134) scale(0.1 -0.1)">
       <use xlink:href="#CMR17-31" transform="scale(0.996264)"/>
       <use xlink:href="#CMMI12-3a" transform="translate(45.690477 0) scale(0.996264)"/>
       <use xlink:href="#CMR17-32" transform="translate(72.787654 0) scale(0.996264)"/>
       <use xlink:href="#CMR17-35" transform="translate(118.478131 0) scale(0.996264)"/>
      </g>
     </g>
    </g>
    <g id="ytick_7">
     <g id="line2d_59">
      <g>
       <use xlink:href="#m0bebe1fdfc" x="38.774054" y="62.578895" style="stroke: #000000; stroke-width: 0.5"/>
      </g>
     </g>
     <g id="line2d_60">
      <g>
       <use xlink:href="#m7cba7ed652" x="289.874054" y="62.578895" style="stroke: #000000; stroke-width: 0.5"/>
      </g>
     </g>
     <g id="text_13">
      <!-- $\mathdefault{1.50}$ -->
      <g transform="translate(17.56264 66.038144) scale(0.1 -0.1)">
       <use xlink:href="#CMR17-31" transform="scale(0.996264)"/>
       <use xlink:href="#CMMI12-3a" transform="translate(45.690477 0) scale(0.996264)"/>
       <use xlink:href="#CMR17-35" transform="translate(72.787654 0) scale(0.996264)"/>
       <use xlink:href="#CMR17-30" transform="translate(118.478131 0) scale(0.996264)"/>
      </g>
     </g>
    </g>
    <g id="ytick_8">
     <g id="line2d_61">
      <g>
       <use xlink:href="#m0bebe1fdfc" x="38.774054" y="33.077905" style="stroke: #000000; stroke-width: 0.5"/>
      </g>
     </g>
     <g id="line2d_62">
      <g>
       <use xlink:href="#m7cba7ed652" x="289.874054" y="33.077905" style="stroke: #000000; stroke-width: 0.5"/>
      </g>
     </g>
     <g id="text_14">
      <!-- $\mathdefault{1.75}$ -->
      <g transform="translate(17.56264 36.537154) scale(0.1 -0.1)">
       <use xlink:href="#CMR17-31" transform="scale(0.996264)"/>
       <use xlink:href="#CMMI12-3a" transform="translate(45.690477 0) scale(0.996264)"/>
       <use xlink:href="#CMR17-37" transform="translate(72.787654 0) scale(0.996264)"/>
       <use xlink:href="#CMR17-35" transform="translate(118.478131 0) scale(0.996264)"/>
      </g>
     </g>
    </g>
    <g id="ytick_9">
     <g id="line2d_63">
      <defs>
       <path id="me5e6a904d3" d="M 0 0 
L 1.5 0 
" style="stroke: #000000; stroke-width: 0.5"/>
      </defs>
      <g>
       <use xlink:href="#me5e6a904d3" x="38.774054" y="245.485033" style="stroke: #000000; stroke-width: 0.5"/>
      </g>
     </g>
     <g id="line2d_64">
      <defs>
       <path id="m12f5e70ba1" d="M 0 0 
L -1.5 0 
" style="stroke: #000000; stroke-width: 0.5"/>
      </defs>
      <g>
       <use xlink:href="#m12f5e70ba1" x="289.874054" y="245.485033" style="stroke: #000000; stroke-width: 0.5"/>
      </g>
     </g>
    </g>
    <g id="ytick_10">
     <g id="line2d_65">
      <g>
       <use xlink:href="#me5e6a904d3" x="38.774054" y="233.684637" style="stroke: #000000; stroke-width: 0.5"/>
      </g>
     </g>
     <g id="line2d_66">
      <g>
       <use xlink:href="#m12f5e70ba1" x="289.874054" y="233.684637" style="stroke: #000000; stroke-width: 0.5"/>
      </g>
     </g>
    </g>
    <g id="ytick_11">
     <g id="line2d_67">
      <g>
       <use xlink:href="#me5e6a904d3" x="38.774054" y="227.784439" style="stroke: #000000; stroke-width: 0.5"/>
      </g>
     </g>
     <g id="line2d_68">
      <g>
       <use xlink:href="#m12f5e70ba1" x="289.874054" y="227.784439" style="stroke: #000000; stroke-width: 0.5"/>
      </g>
     </g>
    </g>
    <g id="ytick_12">
     <g id="line2d_69">
      <g>
       <use xlink:href="#me5e6a904d3" x="38.774054" y="221.884241" style="stroke: #000000; stroke-width: 0.5"/>
      </g>
     </g>
     <g id="line2d_70">
      <g>
       <use xlink:href="#m12f5e70ba1" x="289.874054" y="221.884241" style="stroke: #000000; stroke-width: 0.5"/>
      </g>
     </g>
    </g>
    <g id="ytick_13">
     <g id="line2d_71">
      <g>
       <use xlink:href="#me5e6a904d3" x="38.774054" y="215.984043" style="stroke: #000000; stroke-width: 0.5"/>
      </g>
     </g>
     <g id="line2d_72">
      <g>
       <use xlink:href="#m12f5e70ba1" x="289.874054" y="215.984043" style="stroke: #000000; stroke-width: 0.5"/>
      </g>
     </g>
    </g>
    <g id="ytick_14">
     <g id="line2d_73">
      <g>
       <use xlink:href="#me5e6a904d3" x="38.774054" y="204.183647" style="stroke: #000000; stroke-width: 0.5"/>
      </g>
     </g>
     <g id="line2d_74">
      <g>
       <use xlink:href="#m12f5e70ba1" x="289.874054" y="204.183647" style="stroke: #000000; stroke-width: 0.5"/>
      </g>
     </g>
    </g>
    <g id="ytick_15">
     <g id="line2d_75">
      <g>
       <use xlink:href="#me5e6a904d3" x="38.774054" y="198.283449" style="stroke: #000000; stroke-width: 0.5"/>
      </g>
     </g>
     <g id="line2d_76">
      <g>
       <use xlink:href="#m12f5e70ba1" x="289.874054" y="198.283449" style="stroke: #000000; stroke-width: 0.5"/>
      </g>
     </g>
    </g>
    <g id="ytick_16">
     <g id="line2d_77">
      <g>
       <use xlink:href="#me5e6a904d3" x="38.774054" y="192.383251" style="stroke: #000000; stroke-width: 0.5"/>
      </g>
     </g>
     <g id="line2d_78">
      <g>
       <use xlink:href="#m12f5e70ba1" x="289.874054" y="192.383251" style="stroke: #000000; stroke-width: 0.5"/>
      </g>
     </g>
    </g>
    <g id="ytick_17">
     <g id="line2d_79">
      <g>
       <use xlink:href="#me5e6a904d3" x="38.774054" y="186.483053" style="stroke: #000000; stroke-width: 0.5"/>
      </g>
     </g>
     <g id="line2d_80">
      <g>
       <use xlink:href="#m12f5e70ba1" x="289.874054" y="186.483053" style="stroke: #000000; stroke-width: 0.5"/>
      </g>
     </g>
    </g>
    <g id="ytick_18">
     <g id="line2d_81">
      <g>
       <use xlink:href="#me5e6a904d3" x="38.774054" y="174.682657" style="stroke: #000000; stroke-width: 0.5"/>
      </g>
     </g>
     <g id="line2d_82">
      <g>
       <use xlink:href="#m12f5e70ba1" x="289.874054" y="174.682657" style="stroke: #000000; stroke-width: 0.5"/>
      </g>
     </g>
    </g>
    <g id="ytick_19">
     <g id="line2d_83">
      <g>
       <use xlink:href="#me5e6a904d3" x="38.774054" y="168.782459" style="stroke: #000000; stroke-width: 0.5"/>
      </g>
     </g>
     <g id="line2d_84">
      <g>
       <use xlink:href="#m12f5e70ba1" x="289.874054" y="168.782459" style="stroke: #000000; stroke-width: 0.5"/>
      </g>
     </g>
    </g>
    <g id="ytick_20">
     <g id="line2d_85">
      <g>
       <use xlink:href="#me5e6a904d3" x="38.774054" y="162.882261" style="stroke: #000000; stroke-width: 0.5"/>
      </g>
     </g>
     <g id="line2d_86">
      <g>
       <use xlink:href="#m12f5e70ba1" x="289.874054" y="162.882261" style="stroke: #000000; stroke-width: 0.5"/>
      </g>
     </g>
    </g>
    <g id="ytick_21">
     <g id="line2d_87">
      <g>
       <use xlink:href="#me5e6a904d3" x="38.774054" y="156.982063" style="stroke: #000000; stroke-width: 0.5"/>
      </g>
     </g>
     <g id="line2d_88">
      <g>
       <use xlink:href="#m12f5e70ba1" x="289.874054" y="156.982063" style="stroke: #000000; stroke-width: 0.5"/>
      </g>
     </g>
    </g>
    <g id="ytick_22">
     <g id="line2d_89">
      <g>
       <use xlink:href="#me5e6a904d3" x="38.774054" y="145.181667" style="stroke: #000000; stroke-width: 0.5"/>
      </g>
     </g>
     <g id="line2d_90">
      <g>
       <use xlink:href="#m12f5e70ba1" x="289.874054" y="145.181667" style="stroke: #000000; stroke-width: 0.5"/>
      </g>
     </g>
    </g>
    <g id="ytick_23">
     <g id="line2d_91">
      <g>
       <use xlink:href="#me5e6a904d3" x="38.774054" y="139.281469" style="stroke: #000000; stroke-width: 0.5"/>
      </g>
     </g>
     <g id="line2d_92">
      <g>
       <use xlink:href="#m12f5e70ba1" x="289.874054" y="139.281469" style="stroke: #000000; stroke-width: 0.5"/>
      </g>
     </g>
    </g>
    <g id="ytick_24">
     <g id="line2d_93">
      <g>
       <use xlink:href="#me5e6a904d3" x="38.774054" y="133.381271" style="stroke: #000000; stroke-width: 0.5"/>
      </g>
     </g>
     <g id="line2d_94">
      <g>
       <use xlink:href="#m12f5e70ba1" x="289.874054" y="133.381271" style="stroke: #000000; stroke-width: 0.5"/>
      </g>
     </g>
    </g>
    <g id="ytick_25">
     <g id="line2d_95">
      <g>
       <use xlink:href="#me5e6a904d3" x="38.774054" y="127.481073" style="stroke: #000000; stroke-width: 0.5"/>
      </g>
     </g>
     <g id="line2d_96">
      <g>
       <use xlink:href="#m12f5e70ba1" x="289.874054" y="127.481073" style="stroke: #000000; stroke-width: 0.5"/>
      </g>
     </g>
    </g>
    <g id="ytick_26">
     <g id="line2d_97">
      <g>
       <use xlink:href="#me5e6a904d3" x="38.774054" y="115.680677" style="stroke: #000000; stroke-width: 0.5"/>
      </g>
     </g>
     <g id="line2d_98">
      <g>
       <use xlink:href="#m12f5e70ba1" x="289.874054" y="115.680677" style="stroke: #000000; stroke-width: 0.5"/>
      </g>
     </g>
    </g>
    <g id="ytick_27">
     <g id="line2d_99">
      <g>
       <use xlink:href="#me5e6a904d3" x="38.774054" y="109.780479" style="stroke: #000000; stroke-width: 0.5"/>
      </g>
     </g>
     <g id="line2d_100">
      <g>
       <use xlink:href="#m12f5e70ba1" x="289.874054" y="109.780479" style="stroke: #000000; stroke-width: 0.5"/>
      </g>
     </g>
    </g>
    <g id="ytick_28">
     <g id="line2d_101">
      <g>
       <use xlink:href="#me5e6a904d3" x="38.774054" y="103.880281" style="stroke: #000000; stroke-width: 0.5"/>
      </g>
     </g>
     <g id="line2d_102">
      <g>
       <use xlink:href="#m12f5e70ba1" x="289.874054" y="103.880281" style="stroke: #000000; stroke-width: 0.5"/>
      </g>
     </g>
    </g>
    <g id="ytick_29">
     <g id="line2d_103">
      <g>
       <use xlink:href="#me5e6a904d3" x="38.774054" y="97.980083" style="stroke: #000000; stroke-width: 0.5"/>
      </g>
     </g>
     <g id="line2d_104">
      <g>
       <use xlink:href="#m12f5e70ba1" x="289.874054" y="97.980083" style="stroke: #000000; stroke-width: 0.5"/>
      </g>
     </g>
    </g>
    <g id="ytick_30">
     <g id="line2d_105">
      <g>
       <use xlink:href="#me5e6a904d3" x="38.774054" y="86.179687" style="stroke: #000000; stroke-width: 0.5"/>
      </g>
     </g>
     <g id="line2d_106">
      <g>
       <use xlink:href="#m12f5e70ba1" x="289.874054" y="86.179687" style="stroke: #000000; stroke-width: 0.5"/>
      </g>
     </g>
    </g>
    <g id="ytick_31">
     <g id="line2d_107">
      <g>
       <use xlink:href="#me5e6a904d3" x="38.774054" y="80.279489" style="stroke: #000000; stroke-width: 0.5"/>
      </g>
     </g>
     <g id="line2d_108">
      <g>
       <use xlink:href="#m12f5e70ba1" x="289.874054" y="80.279489" style="stroke: #000000; stroke-width: 0.5"/>
      </g>
     </g>
    </g>
    <g id="ytick_32">
     <g id="line2d_109">
      <g>
       <use xlink:href="#me5e6a904d3" x="38.774054" y="74.379291" style="stroke: #000000; stroke-width: 0.5"/>
      </g>
     </g>
     <g id="line2d_110">
      <g>
       <use xlink:href="#m12f5e70ba1" x="289.874054" y="74.379291" style="stroke: #000000; stroke-width: 0.5"/>
      </g>
     </g>
    </g>
    <g id="ytick_33">
     <g id="line2d_111">
      <g>
       <use xlink:href="#me5e6a904d3" x="38.774054" y="68.479093" style="stroke: #000000; stroke-width: 0.5"/>
      </g>
     </g>
     <g id="line2d_112">
      <g>
       <use xlink:href="#m12f5e70ba1" x="289.874054" y="68.479093" style="stroke: #000000; stroke-width: 0.5"/>
      </g>
     </g>
    </g>
    <g id="ytick_34">
     <g id="line2d_113">
      <g>
       <use xlink:href="#me5e6a904d3" x="38.774054" y="56.678697" style="stroke: #000000; stroke-width: 0.5"/>
      </g>
     </g>
     <g id="line2d_114">
      <g>
       <use xlink:href="#m12f5e70ba1" x="289.874054" y="56.678697" style="stroke: #000000; stroke-width: 0.5"/>
      </g>
     </g>
    </g>
    <g id="ytick_35">
     <g id="line2d_115">
      <g>
       <use xlink:href="#me5e6a904d3" x="38.774054" y="50.778499" style="stroke: #000000; stroke-width: 0.5"/>
      </g>
     </g>
     <g id="line2d_116">
      <g>
       <use xlink:href="#m12f5e70ba1" x="289.874054" y="50.778499" style="stroke: #000000; stroke-width: 0.5"/>
      </g>
     </g>
    </g>
    <g id="ytick_36">
     <g id="line2d_117">
      <g>
       <use xlink:href="#me5e6a904d3" x="38.774054" y="44.878301" style="stroke: #000000; stroke-width: 0.5"/>
      </g>
     </g>
     <g id="line2d_118">
      <g>
       <use xlink:href="#m12f5e70ba1" x="289.874054" y="44.878301" style="stroke: #000000; stroke-width: 0.5"/>
      </g>
     </g>
    </g>
    <g id="ytick_37">
     <g id="line2d_119">
      <g>
       <use xlink:href="#me5e6a904d3" x="38.774054" y="38.978103" style="stroke: #000000; stroke-width: 0.5"/>
      </g>
     </g>
     <g id="line2d_120">
      <g>
       <use xlink:href="#m12f5e70ba1" x="289.874054" y="38.978103" style="stroke: #000000; stroke-width: 0.5"/>
      </g>
     </g>
    </g>
    <g id="text_15">
     <!-- $I$ [s] -->
     <g transform="translate(11.07198 147.758128) rotate(-90) scale(0.1 -0.1)">
      <defs>
       <path id="CMMI12-49" d="M 2355 3880 
C 2413 4103 2426 4167 2893 4167 
C 3034 4167 3085 4167 3085 4288 
C 3085 4352 3014 4352 2995 4352 
C 2880 4352 2739 4352 2624 4352 
L 1837 4352 
C 1709 4352 1562 4352 1434 4352 
C 1382 4352 1312 4352 1312 4231 
C 1312 4167 1363 4167 1491 4167 
C 1888 4167 1888 4116 1888 4046 
C 1888 4002 1875 3963 1862 3906 
L 998 472 
C 941 249 928 185 461 185 
C 320 185 262 185 262 64 
C 262 0 326 0 358 0 
C 474 0 614 0 730 0 
L 1517 0 
C 1645 0 1786 0 1914 0 
C 1965 0 2042 0 2042 115 
C 2042 185 2003 185 1862 185 
C 1466 185 1466 236 1466 312 
C 1466 325 1466 357 1491 459 
L 2355 3880 
z
" transform="scale(0.015625)"/>
       <path id="CMR17-73" d="M 1978 2697 
C 1978 2813 1971 2819 1933 2819 
C 1907 2819 1901 2813 1824 2717 
C 1805 2691 1747 2626 1728 2601 
C 1523 2819 1235 2819 1126 2819 
C 416 2819 160 2447 160 2076 
C 160 1498 813 1365 998 1325 
C 1402 1243 1542 1217 1677 1101 
C 1760 1025 1901 884 1901 654 
C 1901 384 1747 38 1158 38 
C 602 38 403 460 288 1021 
C 269 1110 269 1117 218 1117 
C 166 1117 160 1110 160 983 
L 160 63 
C 160 -51 166 -58 205 -58 
C 237 -58 243 -51 275 0 
C 314 57 410 211 448 276 
C 576 103 800 -64 1158 -64 
C 1792 -64 2131 283 2131 784 
C 2131 1112 1958 1285 1875 1362 
C 1683 1561 1459 1606 1190 1657 
C 838 1735 390 1825 390 2217 
C 390 2383 480 2737 1126 2737 
C 1811 2737 1850 2094 1862 1888 
C 1869 1856 1901 1849 1920 1849 
C 1978 1849 1978 1869 1978 1978 
L 1978 2697 
z
" transform="scale(0.015625)"/>
      </defs>
      <use xlink:href="#CMMI12-49" transform="scale(0.996264)"/>
      <use xlink:href="#CMR17-5b" transform="translate(80.93248 0) scale(0.996264)"/>
      <use xlink:href="#CMR17-73" transform="translate(105.803539 0) scale(0.996264)"/>
      <use xlink:href="#CMR17-5d" transform="translate(141.604876 0) scale(0.996264)"/>
     </g>
    </g>
    <g id="text_16">
     <!-- $\times\mathdefault{10^{−18}}\mathdefault{}$ -->
     <g transform="translate(38.774054 24.904835) scale(0.1 -0.1)">
      <defs>
       <path id="CMSY10-2" d="M 2490 1785 
L 1210 3059 
C 1133 3136 1120 3148 1069 3148 
C 1005 3148 941 3091 941 3020 
C 941 2976 954 2963 1024 2892 
L 2304 1606 
L 1024 320 
C 954 249 941 236 941 192 
C 941 121 1005 64 1069 64 
C 1120 64 1133 76 1210 153 
L 2483 1427 
L 3808 102 
C 3821 96 3866 64 3904 64 
C 3981 64 4032 121 4032 192 
C 4032 204 4032 230 4013 262 
C 4006 275 2989 1280 2669 1606 
L 3840 2777 
C 3872 2816 3968 2899 4000 2937 
C 4006 2950 4032 2976 4032 3020 
C 4032 3091 3981 3148 3904 3148 
C 3853 3148 3827 3123 3757 3052 
L 2490 1785 
z
" transform="scale(0.015625)"/>
       <path id="CMSY10-0" d="M 4218 1472 
C 4326 1472 4442 1472 4442 1600 
C 4442 1728 4326 1728 4218 1728 
L 755 1728 
C 646 1728 531 1728 531 1600 
C 531 1472 646 1472 755 1472 
L 4218 1472 
z
" transform="scale(0.015625)"/>
      </defs>
      <use xlink:href="#CMSY10-2" transform="scale(0.996264)"/>
      <use xlink:href="#CMR17-31" transform="translate(77.487468 0) scale(0.996264)"/>
      <use xlink:href="#CMR17-30" transform="translate(123.177945 0) scale(0.996264)"/>
      <use xlink:href="#CMSY10-0" transform="translate(168.868422 36.153639) scale(0.697382)"/>
      <use xlink:href="#CMR17-31" transform="translate(223.109415 36.153639) scale(0.697382)"/>
      <use xlink:href="#CMR17-38" transform="translate(255.092597 36.153639) scale(0.697382)"/>
     </g>
    </g>
   </g>
   <g id="line2d_121">
    <path d="M 50.187691 239.584835 
L 178.933509 239.584142 
L 179.390054 194.15927 
L 180.303145 195.670476 
L 181.672782 198.485839 
L 183.042418 201.832919 
L 185.325145 208.153862 
L 189.434054 219.746473 
L 191.260236 224.24594 
L 193.086418 228.09138 
L 194.456054 230.511666 
L 195.825691 232.540021 
L 197.195327 234.201573 
L 198.564963 235.533472 
L 199.9346 236.579302 
L 201.304236 237.384482 
L 203.130418 238.15891 
L 204.9566 238.675471 
L 207.239327 239.072385 
L 210.435145 239.350697 
L 215.457145 239.499074 
L 228.696963 239.563275 
L 278.460418 239.584139 
L 278.460418 239.584139 
" clip-path="url(#p26c09332fa)" style="fill: none; stroke-dasharray: 7.4,3.2; stroke-dashoffset: 0; stroke: #0c5da5; stroke-width: 2"/>
   </g>
   <g id="line2d_122">
    <path d="M 50.187691 228.750731 
L 54.2966 227.001962 
L 57.948963 225.210051 
L 61.601327 223.164588 
L 65.253691 220.83483 
L 68.449509 218.537966 
L 71.645327 215.977484 
L 74.841145 213.132831 
L 78.036963 209.985779 
L 81.232782 206.522837 
L 81.689327 236.463724 
L 88.537509 235.362058 
L 99.038054 233.6483 
L 103.146963 233.245001 
L 106.799327 233.110729 
L 112.277873 232.942647 
L 114.104054 232.599781 
L 115.473691 232.09069 
L 116.386782 231.575659 
L 117.299873 230.877594 
L 118.212963 229.954212 
L 119.126054 228.758035 
L 120.039145 227.236619 
L 120.952236 225.33305 
L 121.865327 222.986792 
L 122.778418 220.134912 
L 123.691509 216.713759 
L 124.6046 212.661108 
L 125.974236 205.272713 
L 127.343873 196.171906 
L 128.713509 185.260203 
L 130.083145 172.532693 
L 131.909327 152.962241 
L 134.192054 125.377696 
L 137.844418 80.293872 
L 139.214054 65.593502 
L 140.583691 53.384174 
L 141.496782 46.995066 
L 142.409873 42.217587 
L 142.866418 40.476986 
L 143.322963 39.185872 
L 143.779509 38.353267 
L 144.236054 37.984835 
L 144.6926 38.082814 
L 145.149145 38.645987 
L 145.605691 39.669713 
L 146.062236 41.145986 
L 146.975327 45.40804 
L 147.888418 51.306038 
L 148.801509 58.671071 
L 149.258054 62.84391 
L 149.7146 239.582138 
L 168.889509 239.584835 
L 278.460418 239.584835 
L 278.460418 239.584835 
" clip-path="url(#p26c09332fa)" style="fill: none; stroke: #0c5da5; stroke-width: 2; stroke-linecap: square"/>
   </g>
   <g id="line2d_123">
    <path d="M 50.187691 239.584835 
L 178.933509 239.584128 
L 179.390054 193.265465 
L 180.303145 194.843048 
L 181.672782 197.792361 
L 183.042418 201.304797 
L 185.325145 207.93359 
L 188.977509 218.748185 
L 190.803691 223.532126 
L 192.629873 227.626949 
L 193.999509 230.200695 
L 195.369145 232.350883 
L 196.738782 234.103679 
L 198.108418 235.499537 
L 199.478054 236.586624 
L 200.847691 237.415362 
L 202.673873 238.201877 
L 204.500054 238.717113 
L 206.782782 239.103983 
L 209.9786 239.366242 
L 215.0006 239.499972 
L 230.523145 239.56685 
L 278.460418 239.584246 
L 278.460418 239.584246 
" clip-path="url(#p26c09332fa)" style="fill: none; stroke-dasharray: 3.7,1.6; stroke-dashoffset: 0; stroke: #00b945"/>
   </g>
   <g id="line2d_124">
    <path d="M 50.187691 226.60084 
L 54.2966 224.696727 
L 57.948963 222.768372 
L 61.601327 220.591436 
L 65.253691 218.139429 
L 68.906054 215.385721 
L 72.101873 212.708722 
L 75.297691 209.766256 
L 78.493509 206.546792 
L 81.232782 203.562521 
L 81.689327 236.043924 
L 99.951145 233.482848 
L 104.060054 233.288385 
L 110.908236 233.060621 
L 112.734418 232.699944 
L 114.104054 232.192893 
L 115.473691 231.383858 
L 116.386782 230.622232 
L 117.299873 229.638258 
L 118.212963 228.38886 
L 119.126054 226.826836 
L 120.039145 224.90132 
L 120.952236 222.558517 
L 121.865327 219.74275 
L 122.778418 216.397865 
L 124.148054 210.269355 
L 125.517691 202.660045 
L 126.887327 193.440299 
L 128.256963 182.54194 
L 129.6266 169.983288 
L 131.452782 150.896691 
L 133.735509 124.291527 
L 137.387873 81.144679 
L 138.757509 67.057984 
L 140.127145 55.283129 
L 141.040236 49.054429 
L 141.953327 44.320173 
L 142.866418 41.209382 
L 143.322963 40.291563 
L 143.779509 39.80839 
L 144.236054 39.763297 
L 144.6926 40.156643 
L 145.149145 40.985715 
L 145.605691 42.244754 
L 146.518782 46.014966 
L 147.431873 51.363978 
L 148.344963 58.147939 
L 149.258054 66.191807 
L 149.7146 239.58219 
L 168.889509 239.584835 
L 278.460418 239.584835 
L 278.460418 239.584835 
" clip-path="url(#p26c09332fa)" style="fill: none; stroke: #00b945; stroke-linecap: square"/>
   </g>
   <g id="line2d_125">
    <path d="M 50.187691 239.584835 
L 178.933509 239.584115 
L 179.390054 192.371124 
L 180.303145 194.021693 
L 181.672782 197.116062 
L 183.042418 200.805291 
L 185.325145 207.757987 
L 188.977509 219.013526 
L 190.803691 223.93074 
L 192.173327 227.127417 
L 193.542963 229.86505 
L 194.9126 232.145424 
L 196.282236 233.995515 
L 197.651873 235.459251 
L 199.021509 236.589781 
L 200.391145 237.44303 
L 201.760782 238.072881 
L 203.586963 238.648377 
L 205.869691 239.074229 
L 208.608963 239.329834 
L 213.174418 239.481096 
L 225.501145 239.555032 
L 273.894963 239.583969 
L 278.460418 239.584343 
L 278.460418 239.584343 
" clip-path="url(#p26c09332fa)" style="fill: none; stroke-dasharray: 3.7,1.6; stroke-dashoffset: 0; stroke: #ff9500"/>
   </g>
   <g id="line2d_126">
    <path d="M 50.187691 228.750731 
L 54.2966 227.001962 
L 57.948963 225.210051 
L 61.601327 223.164588 
L 65.253691 220.83483 
L 68.449509 218.537966 
L 71.645327 215.977484 
L 74.841145 213.132831 
L 78.036963 209.985779 
L 81.232782 206.522837 
L 81.689327 236.463724 
L 88.537509 235.362058 
L 99.038054 233.6483 
L 103.146963 233.245001 
L 106.799327 233.110729 
L 112.277873 232.942647 
L 114.104054 232.599781 
L 115.473691 232.09069 
L 116.386782 231.575659 
L 117.299873 230.877594 
L 118.212963 229.954212 
L 119.126054 228.758035 
L 120.039145 227.236619 
L 120.952236 225.33305 
L 121.865327 222.986792 
L 122.778418 220.134912 
L 123.691509 216.713759 
L 124.6046 212.661108 
L 125.974236 205.272713 
L 127.343873 196.171906 
L 128.713509 185.260203 
L 130.083145 172.532693 
L 131.909327 152.962241 
L 134.192054 125.377696 
L 137.844418 80.293872 
L 139.214054 65.593502 
L 140.583691 53.384174 
L 141.496782 46.995066 
L 142.409873 42.217587 
L 142.866418 40.476986 
L 143.322963 39.185872 
L 143.779509 38.353267 
L 144.236054 37.984835 
L 144.6926 38.082814 
L 145.149145 38.645987 
L 145.605691 39.669713 
L 146.062236 41.145986 
L 146.975327 45.40804 
L 147.888418 51.306038 
L 148.801509 58.671071 
L 149.258054 62.84391 
L 149.7146 239.582138 
L 168.889509 239.584835 
L 278.460418 239.584835 
L 278.460418 239.584835 
" clip-path="url(#p26c09332fa)" style="fill: none; stroke: #ff9500; stroke-linecap: square"/>
   </g>
   <g id="patch_5">
    <path d="M 38.774054 249.664835 
L 38.774054 27.904835 
" style="fill: none; stroke: #000000; stroke-width: 0.5; stroke-linejoin: miter; stroke-linecap: square"/>
   </g>
   <g id="patch_6">
    <path d="M 289.874054 249.664835 
L 289.874054 27.904835 
" style="fill: none; stroke: #000000; stroke-width: 0.5; stroke-linejoin: miter; stroke-linecap: square"/>
   </g>
   <g id="patch_7">
    <path d="M 38.774054 249.664835 
L 289.874054 249.664835 
" style="fill: none; stroke: #000000; stroke-width: 0.5; stroke-linejoin: miter; stroke-linecap: square"/>
   </g>
   <g id="patch_8">
    <path d="M 38.774054 27.904835 
L 289.874054 27.904835 
" style="fill: none; stroke: #000000; stroke-width: 0.5; stroke-linejoin: miter; stroke-linecap: square"/>
   </g>
   <g id="text_17">
    <!-- bound-free and free-bound scattering -->
    <g transform="translate(69.343029 11.90218) scale(0.12 -0.12)">
     <defs>
      <path id="CMR17-62" d="M 960 4396 
L 198 4326 
L 198 4160 
C 576 4160 634 4122 634 3817 
L 634 -13 
L 749 -13 
L 934 441 
C 1120 141 1395 -64 1766 -64 
C 2406 -64 3053 500 3053 1370 
C 3053 2188 2477 2790 1830 2790 
C 1434 2790 1152 2579 960 2330 
L 960 4396 
z
M 973 2004 
C 973 2118 973 2138 1062 2272 
C 1312 2657 1670 2688 1792 2688 
C 1984 2688 2643 2585 2643 1376 
C 2643 108 1888 38 1734 38 
C 1536 38 1248 114 1043 486 
C 973 608 973 621 973 735 
L 973 2004 
z
" transform="scale(0.015625)"/>
      <path id="CMR17-6f" d="M 2758 1356 
C 2758 2176 2163 2816 1466 2816 
C 768 2816 173 2176 173 1356 
C 173 551 768 -64 1466 -64 
C 2163 -64 2758 551 2758 1356 
z
M 1466 51 
C 1165 51 909 230 762 480 
C 602 767 582 1126 582 1408 
C 582 1677 595 2010 762 2298 
C 890 2509 1139 2714 1466 2714 
C 1754 2714 1997 2554 2150 2330 
C 2349 2029 2349 1607 2349 1408 
C 2349 1158 2336 775 2163 467 
C 1984 173 1709 51 1466 51 
z
" transform="scale(0.015625)"/>
      <path id="CMR17-75" d="M 1882 2693 
L 1882 2528 
C 2259 2528 2317 2489 2317 2186 
L 2317 1032 
C 2317 500 2029 38 1555 38 
C 1030 38 986 348 986 678 
L 986 2763 
L 211 2693 
L 211 2528 
C 467 2528 640 2528 646 2274 
L 646 1058 
C 646 633 646 361 813 183 
C 896 101 1056 -64 1517 -64 
C 2061 -64 2272 377 2323 506 
L 2330 506 
L 2330 -63 
L 3091 -63 
L 3091 128 
C 2714 128 2656 166 2656 473 
L 2656 2763 
L 1882 2693 
z
" transform="scale(0.015625)"/>
      <path id="CMR17-6e" d="M 2656 1933 
C 2656 2259 2592 2790 1837 2790 
C 1331 2790 1069 2400 973 2144 
L 966 2144 
L 966 2790 
L 211 2720 
L 211 2554 
C 589 2554 646 2515 646 2208 
L 646 428 
C 646 184 621 153 211 153 
L 211 -13 
C 365 0 646 0 813 0 
C 979 0 1267 0 1421 -13 
L 1421 153 
C 1011 153 986 178 986 428 
L 986 1658 
C 986 2247 1344 2688 1792 2688 
C 2266 2688 2317 2266 2317 1958 
L 2317 428 
C 2317 184 2291 153 1882 153 
L 1882 -13 
C 2035 0 2317 0 2483 0 
C 2650 0 2938 0 3091 -13 
L 3091 153 
C 2682 153 2656 178 2656 428 
L 2656 1933 
z
" transform="scale(0.015625)"/>
      <path id="CMR17-64" d="M 1869 4326 
L 1869 4160 
C 2246 4160 2304 4122 2304 3820 
L 2304 2345 
C 2278 2377 2016 2790 1498 2790 
C 845 2790 211 2208 211 1364 
C 211 525 806 -64 1434 -64 
C 1978 -64 2259 337 2291 380 
L 2291 -63 
L 3066 -63 
L 3066 128 
C 2688 128 2630 166 2630 473 
L 2630 4396 
L 1869 4326 
z
M 2291 755 
C 2291 563 2176 390 2029 262 
C 1811 70 1594 38 1472 38 
C 1286 38 621 134 621 1356 
C 621 2612 1363 2688 1530 2688 
C 1824 2688 2061 2522 2208 2291 
C 2291 2157 2291 2138 2291 2023 
L 2291 755 
z
" transform="scale(0.015625)"/>
      <path id="CMR17-2d" d="M 1632 1216 
L 1632 1496 
L 26 1496 
L 26 1216 
L 1632 1216 
z
" transform="scale(0.015625)"/>
      <path id="CMR17-66" d="M 979 2560 
L 1709 2560 
L 1709 2725 
L 966 2725 
L 966 3494 
C 966 4022 1235 4352 1510 4352 
C 1594 4352 1690 4327 1754 4282 
C 1702 4269 1568 4225 1568 4067 
C 1568 3901 1696 3850 1786 3850 
C 1875 3850 2003 3901 2003 4067 
C 2003 4308 1773 4454 1517 4454 
C 1152 4454 653 4156 653 3481 
L 653 2725 
L 141 2725 
L 141 2560 
L 653 2560 
L 653 427 
C 653 184 627 153 218 153 
L 218 -13 
C 371 0 666 0 832 0 
C 1018 0 1344 0 1517 -13 
L 1517 153 
C 1056 153 979 153 979 439 
L 979 2560 
z
" transform="scale(0.015625)"/>
      <path id="CMR17-72" d="M 960 1497 
C 960 2112 1222 2688 1702 2688 
C 1747 2688 1792 2682 1837 2662 
C 1837 2662 1696 2617 1696 2452 
C 1696 2298 1818 2234 1914 2234 
C 1990 2234 2131 2279 2131 2458 
C 2131 2663 1926 2790 1709 2790 
C 1222 2790 1011 2317 947 2093 
L 941 2093 
L 941 2790 
L 198 2720 
L 198 2554 
C 576 2554 634 2515 634 2208 
L 634 428 
C 634 184 608 153 198 153 
L 198 -13 
C 352 0 646 0 813 0 
C 998 0 1325 0 1498 -13 
L 1498 153 
C 1037 153 960 153 960 440 
L 960 1497 
z
" transform="scale(0.015625)"/>
      <path id="CMR17-61" d="M 2304 1653 
C 2304 2072 2304 2294 2035 2543 
C 1798 2752 1523 2816 1306 2816 
C 800 2816 435 2407 435 1971 
C 435 1728 627 1728 666 1728 
C 749 1728 896 1778 896 1954 
C 896 2112 774 2181 666 2181 
C 640 2181 608 2174 589 2168 
C 723 2592 1069 2714 1293 2714 
C 1613 2714 1965 2429 1965 1885 
L 1965 1600 
C 1587 1600 1133 1549 774 1357 
C 371 1133 256 813 256 570 
C 256 77 832 -64 1171 -64 
C 1523 -64 1850 139 1990 511 
C 2003 233 2182 -18 2464 -18 
C 2598 -18 2938 70 2938 567 
L 2938 920 
L 2822 920 
L 2822 562 
C 2822 178 2650 128 2566 128 
C 2304 128 2304 458 2304 738 
L 2304 1653 
z
M 1965 870 
C 1965 317 1568 38 1216 38 
C 896 38 646 275 646 570 
C 646 761 730 1100 1101 1305 
C 1408 1478 1760 1504 1965 1504 
L 1965 870 
z
" transform="scale(0.015625)"/>
      <path id="CMR17-63" d="M 2234 2240 
C 2112 2240 1933 2240 1933 2017 
C 1933 1838 2080 1787 2163 1787 
C 2208 1787 2394 1807 2394 2024 
C 2394 2467 1958 2803 1466 2803 
C 787 2803 211 2178 211 1363 
C 211 516 813 -64 1466 -64 
C 2259 -64 2458 677 2458 748 
C 2458 774 2451 793 2406 793 
C 2362 793 2355 787 2330 703 
C 2163 180 1798 51 1523 51 
C 1114 51 621 427 621 1369 
C 621 2338 1094 2688 1472 2688 
C 1722 2688 2093 2573 2234 2240 
z
" transform="scale(0.015625)"/>
      <path id="CMR17-74" d="M 966 2560 
L 1862 2560 
L 1862 2725 
L 966 2725 
L 966 3904 
L 851 3904 
C 838 3245 614 2668 70 2668 
L 70 2560 
L 627 2560 
L 627 771 
C 627 650 627 -64 1370 -64 
C 1747 -64 1965 306 1965 777 
L 1965 1140 
L 1850 1140 
L 1850 783 
C 1850 344 1677 51 1408 51 
C 1222 51 966 178 966 758 
L 966 2560 
z
" transform="scale(0.015625)"/>
      <path id="CMR17-69" d="M 992 3909 
C 992 4049 877 4170 730 4170 
C 589 4170 467 4056 467 3909 
C 467 3769 582 3648 730 3648 
C 870 3648 992 3763 992 3909 
z
M 243 2706 
L 243 2541 
C 602 2541 653 2502 653 2197 
L 653 427 
C 653 184 627 153 218 153 
L 218 -13 
C 371 0 646 0 806 0 
C 960 0 1222 0 1370 -13 
L 1370 153 
C 992 153 979 191 979 420 
L 979 2776 
L 243 2706 
z
" transform="scale(0.015625)"/>
      <path id="CMR17-67" d="M 710 1164 
C 832 1068 1043 960 1299 960 
C 1805 960 2240 1357 2240 1888 
C 2240 2054 2189 2310 1997 2509 
C 2176 2692 2438 2752 2586 2752 
C 2611 2752 2650 2752 2682 2734 
C 2656 2728 2598 2703 2598 2605 
C 2598 2527 2656 2471 2739 2471 
C 2835 2471 2886 2533 2886 2614 
C 2886 2731 2790 2854 2586 2854 
C 2330 2854 2106 2738 1926 2580 
C 1734 2753 1504 2816 1299 2816 
C 794 2816 358 2419 358 1888 
C 358 1522 570 1292 634 1228 
C 442 1004 442 743 442 711 
C 442 545 506 302 723 168 
C 390 85 128 -169 128 -486 
C 128 -943 736 -1280 1466 -1280 
C 2170 -1280 2803 -956 2803 -479 
C 2803 384 1856 384 1363 384 
C 1216 384 954 384 922 391 
C 723 423 589 602 589 826 
C 589 883 589 1024 710 1164 
z
M 1299 1068 
C 736 1068 736 1760 736 1889 
C 736 2016 736 2708 1299 2708 
C 1862 2708 1862 2016 1862 1889 
C 1862 1760 1862 1068 1299 1068 
z
M 1466 -1171 
C 826 -1171 384 -835 384 -486 
C 384 -289 493 -105 634 -4 
C 794 104 858 104 1293 104 
C 1818 104 2547 104 2547 -486 
C 2547 -835 2106 -1171 1466 -1171 
z
" transform="scale(0.015625)"/>
     </defs>
     <use xlink:href="#CMR17-62" transform="scale(0.996264)"/>
     <use xlink:href="#CMR17-6f" transform="translate(53.497809 0) scale(0.996264)"/>
     <use xlink:href="#CMR17-75" transform="translate(99.188286 0) scale(0.996264)"/>
     <use xlink:href="#CMR17-6e" transform="translate(150.083655 0) scale(0.996264)"/>
     <use xlink:href="#CMR17-64" transform="translate(200.979025 0) scale(0.996264)"/>
     <use xlink:href="#CMR17-2d" transform="translate(251.874395 0) scale(0.996264)"/>
     <use xlink:href="#CMR17-66" transform="translate(281.950361 0) scale(0.996264)"/>
     <use xlink:href="#CMR17-72" transform="translate(309.423874 0) scale(0.996264)"/>
     <use xlink:href="#CMR17-65" transform="translate(344.704642 0) scale(0.996264)"/>
     <use xlink:href="#CMR17-65" transform="translate(385.190302 0) scale(0.996264)"/>
     <use xlink:href="#CMR17-61" transform="translate(455.751929 0) scale(0.996264)"/>
     <use xlink:href="#CMR17-6e" transform="translate(501.442406 0) scale(0.996264)"/>
     <use xlink:href="#CMR17-64" transform="translate(552.337776 0) scale(0.996264)"/>
     <use xlink:href="#CMR17-66" transform="translate(633.309112 0) scale(0.996264)"/>
     <use xlink:href="#CMR17-72" transform="translate(660.782624 0) scale(0.996264)"/>
     <use xlink:href="#CMR17-65" transform="translate(696.063392 0) scale(0.996264)"/>
     <use xlink:href="#CMR17-65" transform="translate(736.549053 0) scale(0.996264)"/>
     <use xlink:href="#CMR17-2d" transform="translate(777.034713 0) scale(0.996264)"/>
     <use xlink:href="#CMR17-62" transform="translate(807.110679 0) scale(0.996264)"/>
     <use xlink:href="#CMR17-6f" transform="translate(860.608488 0) scale(0.996264)"/>
     <use xlink:href="#CMR17-75" transform="translate(906.298965 0) scale(0.996264)"/>
     <use xlink:href="#CMR17-6e" transform="translate(957.194335 0) scale(0.996264)"/>
     <use xlink:href="#CMR17-64" transform="translate(1008.089705 0) scale(0.996264)"/>
     <use xlink:href="#CMR17-73" transform="translate(1089.061041 0) scale(0.996264)"/>
     <use xlink:href="#CMR17-63" transform="translate(1124.862378 0) scale(0.996264)"/>
     <use xlink:href="#CMR17-61" transform="translate(1165.348039 0) scale(0.996264)"/>
     <use xlink:href="#CMR17-74" transform="translate(1211.038516 0) scale(0.996264)"/>
     <use xlink:href="#CMR17-74" transform="translate(1246.319284 0) scale(0.996264)"/>
     <use xlink:href="#CMR17-65" transform="translate(1281.600051 0) scale(0.996264)"/>
     <use xlink:href="#CMR17-72" transform="translate(1322.085712 0) scale(0.996264)"/>
     <use xlink:href="#CMR17-69" transform="translate(1357.36648 0) scale(0.996264)"/>
     <use xlink:href="#CMR17-6e" transform="translate(1382.237538 0) scale(0.996264)"/>
     <use xlink:href="#CMR17-67" transform="translate(1433.132908 0) scale(0.996264)"/>
    </g>
   </g>
   <g id="legend_1">
    <g id="line2d_127">
     <path d="M 186.629293 40.404835 
L 196.629293 40.404835 
L 206.629293 40.404835 
" style="fill: none; stroke-dasharray: 7.4,3.2; stroke-dashoffset: 0; stroke: #0c5da5; stroke-width: 2"/>
    </g>
    <g id="text_18">
     <!-- implemented -->
     <g transform="translate(214.629293 43.904835) scale(0.1 -0.1)">
      <defs>
       <path id="CMR17-6d" d="M 4326 1933 
C 4326 2252 4269 2790 3507 2790 
C 3072 2790 2771 2496 2656 2151 
L 2650 2151 
C 2573 2676 2195 2790 1837 2790 
C 1331 2790 1069 2400 973 2144 
L 966 2144 
L 966 2790 
L 211 2720 
L 211 2554 
C 589 2554 646 2515 646 2208 
L 646 428 
C 646 184 621 153 211 153 
L 211 -13 
C 365 0 646 0 813 0 
C 979 0 1267 0 1421 -13 
L 1421 153 
C 1011 153 986 178 986 428 
L 986 1658 
C 986 2247 1344 2688 1792 2688 
C 2266 2688 2317 2266 2317 1958 
L 2317 428 
C 2317 184 2291 153 1882 153 
L 1882 -13 
C 2035 0 2317 0 2483 0 
C 2650 0 2938 0 3091 -13 
L 3091 153 
C 2682 153 2656 178 2656 428 
L 2656 1658 
C 2656 2247 3014 2688 3462 2688 
C 3936 2688 3987 2266 3987 1958 
L 3987 428 
C 3987 184 3962 153 3552 153 
L 3552 -13 
C 3706 0 3987 0 4154 0 
C 4320 0 4608 0 4762 -13 
L 4762 153 
C 4352 153 4326 178 4326 428 
L 4326 1933 
z
" transform="scale(0.015625)"/>
       <path id="CMR17-70" d="M 1408 -1063 
C 998 -1063 973 -1037 973 -789 
L 973 402 
C 1158 134 1427 -38 1766 -38 
C 2406 -38 3053 523 3053 1388 
C 3053 2191 2496 2802 1837 2802 
C 1453 2802 1139 2592 960 2338 
L 960 2802 
L 198 2732 
L 198 2567 
C 576 2567 634 2528 634 2223 
L 634 -789 
C 634 -1031 608 -1063 198 -1063 
L 198 -1228 
C 352 -1216 634 -1216 800 -1216 
C 966 -1216 1254 -1216 1408 -1228 
L 1408 -1063 
z
M 973 2012 
C 973 2102 973 2235 1222 2471 
C 1254 2497 1472 2688 1792 2688 
C 2259 2688 2643 2108 2643 1382 
C 2643 656 2234 64 1728 64 
C 1498 64 1248 172 1056 472 
C 973 612 973 650 973 752 
L 973 2012 
z
" transform="scale(0.015625)"/>
       <path id="CMR17-6c" d="M 979 4396 
L 218 4326 
L 218 4160 
C 595 4160 653 4122 653 3817 
L 653 426 
C 653 184 627 153 218 153 
L 218 -13 
C 371 0 653 0 813 0 
C 979 0 1261 0 1414 -13 
L 1414 153 
C 1005 153 979 178 979 426 
L 979 4396 
z
" transform="scale(0.015625)"/>
      </defs>
      <use xlink:href="#CMR17-69" transform="scale(0.996264)"/>
      <use xlink:href="#CMR17-6d" transform="translate(24.871058 0) scale(0.996264)"/>
      <use xlink:href="#CMR17-70" transform="translate(101.790648 0) scale(0.996264)"/>
      <use xlink:href="#CMR17-6c" transform="translate(152.686018 0) scale(0.996264)"/>
      <use xlink:href="#CMR17-65" transform="translate(177.557077 0) scale(0.996264)"/>
      <use xlink:href="#CMR17-6d" transform="translate(218.042737 0) scale(0.996264)"/>
      <use xlink:href="#CMR17-65" transform="translate(294.962327 0) scale(0.996264)"/>
      <use xlink:href="#CMR17-6e" transform="translate(335.447987 0) scale(0.996264)"/>
      <use xlink:href="#CMR17-74" transform="translate(383.740903 0) scale(0.996264)"/>
      <use xlink:href="#CMR17-65" transform="translate(419.021671 0) scale(0.996264)"/>
      <use xlink:href="#CMR17-64" transform="translate(459.507332 0) scale(0.996264)"/>
     </g>
    </g>
    <g id="line2d_128">
     <path d="M 186.629293 54.342014 
L 196.629293 54.342014 
L 206.629293 54.342014 
" style="fill: none; stroke-dasharray: 3.7,1.6; stroke-dashoffset: 0; stroke: #00b945"/>
    </g>
    <g id="text_19">
     <!-- no $k$ dispersion -->
     <g transform="translate(214.629293 57.842014) scale(0.1 -0.1)">
      <defs>
       <path id="CMMI12-6b" d="M 1798 4257 
C 1805 4283 1818 4321 1818 4352 
C 1818 4416 1754 4416 1741 4416 
C 1734 4416 1504 4393 1389 4377 
C 1280 4377 1184 4358 1069 4358 
C 915 4345 870 4339 870 4224 
C 870 4160 934 4160 998 4160 
C 1325 4160 1325 4103 1325 4040 
C 1325 4015 1325 4002 1293 3888 
L 378 248 
C 352 152 352 140 352 101 
C 352 -38 461 -64 525 -64 
C 704 -64 742 77 794 275 
L 1094 1469 
C 1555 1418 1830 1226 1830 920 
C 1830 881 1830 856 1811 760 
C 1786 664 1786 588 1786 556 
C 1786 185 2029 -64 2355 -64 
C 2650 -64 2803 204 2854 294 
C 2989 530 3072 888 3072 913 
C 3072 945 3046 971 3008 971 
C 2950 971 2944 945 2918 843 
C 2829 511 2694 64 2368 64 
C 2240 64 2157 128 2157 370 
C 2157 492 2182 632 2208 728 
C 2234 843 2234 849 2234 926 
C 2234 1303 1894 1514 1306 1590 
C 1536 1731 1766 1980 1856 2076 
C 2221 2484 2470 2689 2765 2689 
C 2912 2689 2950 2650 2995 2612 
C 2758 2586 2669 2420 2669 2293 
C 2669 2139 2790 2088 2880 2088 
C 3053 2088 3206 2235 3206 2440 
C 3206 2625 3059 2816 2771 2816 
C 2419 2816 2131 2567 1677 2056 
C 1613 1980 1376 1737 1139 1648 
L 1798 4257 
z
" transform="scale(0.015625)"/>
      </defs>
      <use xlink:href="#CMR17-6e" transform="scale(0.996264)"/>
      <use xlink:href="#CMR17-6f" transform="translate(50.89537 0) scale(0.996264)"/>
      <use xlink:href="#CMMI12-6b" transform="translate(126.661813 0) scale(0.996264)"/>
      <use xlink:href="#CMR17-64" transform="translate(210.81698 0) scale(0.996264)"/>
      <use xlink:href="#CMR17-69" transform="translate(261.71235 0) scale(0.996264)"/>
      <use xlink:href="#CMR17-73" transform="translate(286.583409 0) scale(0.996264)"/>
      <use xlink:href="#CMR17-70" transform="translate(322.384746 0) scale(0.996264)"/>
      <use xlink:href="#CMR17-65" transform="translate(375.882555 0) scale(0.996264)"/>
      <use xlink:href="#CMR17-72" transform="translate(416.368215 0) scale(0.996264)"/>
      <use xlink:href="#CMR17-73" transform="translate(451.648983 0) scale(0.996264)"/>
      <use xlink:href="#CMR17-69" transform="translate(487.450321 0) scale(0.996264)"/>
      <use xlink:href="#CMR17-6f" transform="translate(512.321379 0) scale(0.996264)"/>
      <use xlink:href="#CMR17-6e" transform="translate(558.011856 0) scale(0.996264)"/>
     </g>
    </g>
    <g id="line2d_129">
     <path d="M 186.629293 68.279192 
L 196.629293 68.279192 
L 206.629293 68.279192 
" style="fill: none; stroke-dasharray: 3.7,1.6; stroke-dashoffset: 0; stroke: #ff9500"/>
    </g>
    <g id="text_20">
     <!-- naive flipping -->
     <g transform="translate(214.629293 71.779192) scale(0.1 -0.1)">
      <defs>
       <path id="CMR17-76" d="M 2502 2163 
C 2560 2304 2662 2560 3034 2560 
L 3034 2726 
C 2912 2726 2752 2726 2630 2726 
C 2496 2726 2285 2726 2157 2732 
L 2157 2566 
C 2317 2553 2406 2477 2406 2311 
C 2406 2253 2406 2240 2368 2151 
L 1664 377 
L 902 2286 
C 864 2369 864 2381 864 2407 
C 864 2560 1075 2560 1171 2560 
L 1171 2732 
C 1018 2726 736 2726 576 2726 
C 403 2726 205 2726 64 2732 
L 64 2560 
C 307 2560 442 2560 518 2362 
L 1446 44 
C 1485 -51 1491 -64 1549 -64 
C 1606 -64 1613 -51 1651 44 
L 2502 2163 
z
" transform="scale(0.015625)"/>
       <path id="CMR17-d" d="M 2554 4409 
C 2483 4396 2426 4384 2342 4365 
C 2157 4460 1914 4460 1850 4460 
C 1306 4460 634 4154 634 3472 
L 634 2725 
L 122 2725 
L 122 2560 
L 634 2560 
L 634 427 
C 634 184 608 153 198 153 
L 198 -13 
C 352 0 634 0 794 0 
C 960 0 1242 0 1395 -13 
L 1395 153 
C 986 153 960 178 960 427 
L 960 2560 
L 2227 2560 
L 2227 427 
C 2227 184 2202 153 1792 153 
L 1792 -13 
C 1946 0 2227 0 2387 0 
C 2554 0 2835 0 2989 -13 
L 2989 153 
C 2579 153 2554 178 2554 427 
L 2554 4409 
z
M 947 2725 
L 947 3469 
C 947 4028 1370 4352 1837 4352 
C 1869 4352 2221 4352 2221 4282 
C 2221 4275 2214 4269 2182 4237 
C 2125 4199 2099 4135 2099 4071 
C 2099 3981 2144 3905 2227 3873 
L 2227 2725 
L 947 2725 
z
" transform="scale(0.015625)"/>
      </defs>
      <use xlink:href="#CMR17-6e" transform="scale(0.996264)"/>
      <use xlink:href="#CMR17-61" transform="translate(50.89537 0) scale(0.996264)"/>
      <use xlink:href="#CMR17-69" transform="translate(96.585847 0) scale(0.996264)"/>
      <use xlink:href="#CMR17-76" transform="translate(121.456905 0) scale(0.996264)"/>
      <use xlink:href="#CMR17-65" transform="translate(167.147367 0) scale(0.996264)"/>
      <use xlink:href="#CMR17-d" transform="translate(237.708994 0) scale(0.996264)"/>
      <use xlink:href="#CMR17-69" transform="translate(287.451217 0) scale(0.996264)"/>
      <use xlink:href="#CMR17-70" transform="translate(312.322276 0) scale(0.996264)"/>
      <use xlink:href="#CMR17-70" transform="translate(363.217646 0) scale(0.996264)"/>
      <use xlink:href="#CMR17-69" transform="translate(414.113016 0) scale(0.996264)"/>
      <use xlink:href="#CMR17-6e" transform="translate(438.984074 0) scale(0.996264)"/>
      <use xlink:href="#CMR17-67" transform="translate(489.879444 0) scale(0.996264)"/>
     </g>
    </g>
   </g>
  </g>
  <g id="axes_2">
   <g id="patch_9">
    <path d="M 209.544054 172.048835 
L 284.874054 172.048835 
L 284.874054 105.520835 
L 209.544054 105.520835 
z
" style="fill: #ffffff"/>
   </g>
   <g id="patch_10">
    <path d="M 209.544054 105.520835 
L 166.606782 180.582855 
" style="fill: none; stroke: #808080; stroke-linejoin: miter"/>
   </g>
   <g id="patch_11">
    <path d="M 284.874054 172.048835 
L 184.8686 204.183647 
" style="fill: none; stroke: #808080; stroke-linejoin: miter"/>
   </g>
   <g id="matplotlib.axis_3"/>
   <g id="matplotlib.axis_4"/>
   <g id="line2d_130">
    <path d="M -1 271.840835 
L 260.391804 271.838881 
L 262.275054 143.791234 
L 264.158304 145.808711 
L 266.041554 148.051154 
L 267.924804 150.504266 
L 271.691304 155.987348 
L 275.457804 162.137865 
L 279.224304 168.823483 
L 284.874054 179.549567 
L 294.474054 198.488648 
L 294.474054 198.488648 
" clip-path="url(#pc575573be8)" style="fill: none; stroke-dasharray: 7.4,3.2; stroke-dashoffset: 0; stroke: #0c5da5; stroke-width: 2"/>
   </g>
   <g id="line2d_131">
    <path d="M -1 271.840835 
L 260.391804 271.838843 
L 262.275054 141.271697 
L 264.158304 143.375636 
L 266.041554 145.718727 
L 267.924804 148.285783 
L 271.691304 154.032513 
L 275.457804 160.486192 
L 279.224304 167.50332 
L 284.874054 178.753175 
L 294.474054 198.550159 
L 294.474054 198.550159 
" clip-path="url(#pc575573be8)" style="fill: none; stroke-dasharray: 3.7,1.6; stroke-dashoffset: 0; stroke: #00b945"/>
   </g>
   <g id="line2d_132">
    <path d="M -1 271.840835 
L 260.391804 271.838804 
L 262.275054 138.75065 
L 264.158304 140.950071 
L 266.041554 143.403421 
L 267.924804 146.094524 
L 269.808054 149.007747 
L 273.574554 155.431421 
L 277.341054 162.525625 
L 281.107554 170.129162 
L 286.757304 182.124499 
L 294.474054 198.75728 
L 294.474054 198.75728 
" clip-path="url(#pc575573be8)" style="fill: none; stroke-dasharray: 3.7,1.6; stroke-dashoffset: 0; stroke: #ff9500"/>
   </g>
   <g id="patch_12">
    <path d="M 209.544054 172.048835 
L 209.544054 105.520835 
" style="fill: none; stroke: #000000; stroke-width: 0.5; stroke-linejoin: miter; stroke-linecap: square"/>
   </g>
   <g id="patch_13">
    <path d="M 284.874054 172.048835 
L 284.874054 105.520835 
" style="fill: none; stroke: #000000; stroke-width: 0.5; stroke-linejoin: miter; stroke-linecap: square"/>
   </g>
   <g id="patch_14">
    <path d="M 209.544054 172.048835 
L 284.874054 172.048835 
" style="fill: none; stroke: #000000; stroke-width: 0.5; stroke-linejoin: miter; stroke-linecap: square"/>
   </g>
   <g id="patch_15">
    <path d="M 209.544054 105.520835 
L 284.874054 105.520835 
" style="fill: none; stroke: #000000; stroke-width: 0.5; stroke-linejoin: miter; stroke-linecap: square"/>
   </g>
  </g>
  <g id="axes_3">
   <g id="patch_16">
    <path d="M 43.774054 99.432835 
L 119.104054 99.432835 
L 119.104054 32.904835 
L 43.774054 32.904835 
z
" style="fill: #ffffff"/>
   </g>
   <g id="patch_17">
    <path d="M 119.104054 32.904835 
L 154.051782 44.878301 
" style="fill: none; stroke: #808080; stroke-linejoin: miter"/>
   </g>
   <g id="patch_18">
    <path d="M 119.104054 99.432835 
L 154.051782 68.479093 
" style="fill: none; stroke: #808080; stroke-linejoin: miter"/>
   </g>
   <g id="matplotlib.axis_5"/>
   <g id="matplotlib.axis_6"/>
   <g id="line2d_133">
    <path d="M 44.116983 280.583152 
L 49.633054 227.332524 
L 56.329054 163.120251 
L 59.677054 132.73738 
L 63.025054 104.442815 
L 66.373054 78.93698 
L 68.047054 67.439049 
L 69.721054 56.881943 
L 71.395054 47.337556 
L 73.069054 38.871758 
L 74.743054 31.543598 
L 76.417054 25.40458 
L 78.091054 20.49802 
L 79.765054 16.858512 
L 81.439054 14.511491 
L 83.113054 13.472924 
L 84.787054 13.749114 
L 86.461054 15.336638 
L 88.135054 18.222408 
L 89.809054 22.383856 
L 91.483054 27.789249 
L 93.157054 34.398111 
L 94.831054 42.161754 
L 96.505054 51.023908 
L 98.179054 60.921436 
L 99.853054 71.785114 
L 101.527054 83.547884 
L 102.189105 280.583152 
L 102.189105 280.583152 
" clip-path="url(#p7137878563)" style="fill: none; stroke: #0c5da5; stroke-width: 2; stroke-linecap: square"/>
   </g>
   <g id="line2d_134">
    <path d="M 42.019334 280.583152 
L 47.959054 225.606698 
L 54.655054 164.187146 
L 58.003054 135.135708 
L 61.351054 108.040826 
L 64.699054 83.538883 
L 66.373054 72.451257 
L 68.047054 62.234885 
L 69.721054 52.956286 
L 71.395054 44.676875 
L 73.069054 37.452249 
L 74.743054 31.331535 
L 76.417054 26.356803 
L 78.091054 22.562562 
L 79.765054 19.975331 
L 81.439054 18.613323 
L 83.113054 18.486209 
L 84.787054 19.595009 
L 86.461054 21.932068 
L 88.135054 25.48116 
L 89.809054 30.217684 
L 91.483054 36.108966 
L 93.157054 43.11466 
L 94.831054 51.187236 
L 96.505054 60.272546 
L 98.179054 70.310464 
L 99.853054 81.235585 
L 101.527054 92.985232 
L 102.169565 280.583152 
L 102.169565 280.583152 
" clip-path="url(#p7137878563)" style="fill: none; stroke: #00b945; stroke-linecap: square"/>
   </g>
   <g id="line2d_135">
    <path d="M 44.116983 280.583152 
L 49.633054 227.332524 
L 56.329054 163.120251 
L 59.677054 132.73738 
L 63.025054 104.442815 
L 66.373054 78.93698 
L 68.047054 67.439049 
L 69.721054 56.881943 
L 71.395054 47.337556 
L 73.069054 38.871758 
L 74.743054 31.543598 
L 76.417054 25.40458 
L 78.091054 20.49802 
L 79.765054 16.858512 
L 81.439054 14.511491 
L 83.113054 13.472924 
L 84.787054 13.749114 
L 86.461054 15.336638 
L 88.135054 18.222408 
L 89.809054 22.383856 
L 91.483054 27.789249 
L 93.157054 34.398111 
L 94.831054 42.161754 
L 96.505054 51.023908 
L 98.179054 60.921436 
L 99.853054 71.785114 
L 101.527054 83.547884 
L 102.189105 280.583152 
L 102.189105 280.583152 
" clip-path="url(#p7137878563)" style="fill: none; stroke: #ff9500; stroke-linecap: square"/>
   </g>
   <g id="patch_19">
    <path d="M 43.774054 99.432835 
L 43.774054 32.904835 
" style="fill: none; stroke: #000000; stroke-width: 0.5; stroke-linejoin: miter; stroke-linecap: square"/>
   </g>
   <g id="patch_20">
    <path d="M 119.104054 99.432835 
L 119.104054 32.904835 
" style="fill: none; stroke: #000000; stroke-width: 0.5; stroke-linejoin: miter; stroke-linecap: square"/>
   </g>
   <g id="patch_21">
    <path d="M 43.774054 99.432835 
L 119.104054 99.432835 
" style="fill: none; stroke: #000000; stroke-width: 0.5; stroke-linejoin: miter; stroke-linecap: square"/>
   </g>
   <g id="patch_22">
    <path d="M 43.774054 32.904835 
L 119.104054 32.904835 
" style="fill: none; stroke: #000000; stroke-width: 0.5; stroke-linejoin: miter; stroke-linecap: square"/>
   </g>
  </g>
 </g>
 <defs>
  <clipPath id="p26c09332fa">
   <rect x="38.774054" y="27.904835" width="251.1" height="221.76"/>
  </clipPath>
  <clipPath id="pc575573be8">
   <rect x="209.544054" y="105.520835" width="75.33" height="66.528"/>
  </clipPath>
  <clipPath id="p7137878563">
   <rect x="43.774054" y="32.904835" width="75.33" height="66.528"/>
  </clipPath>
 </defs>
</svg>
