<?xml version="1.0" encoding="utf-8" standalone="no"?>
<!DOCTYPE svg PUBLIC "-//W3C//DTD SVG 1.1//EN"
  "http://www.w3.org/Graphics/SVG/1.1/DTD/svg11.dtd">
<svg xmlns:xlink="http://www.w3.org/1999/xlink" width="460.8pt" height="345.6pt" viewBox="0 0 460.8 345.6" xmlns="http://www.w3.org/2000/svg" version="1.1">
 <metadata>
  <rdf:RDF xmlns:dc="http://purl.org/dc/elements/1.1/" xmlns:cc="http://creativecommons.org/ns#" xmlns:rdf="http://www.w3.org/1999/02/22-rdf-syntax-ns#">
   <cc:Work>
    <dc:type rdf:resource="http://purl.org/dc/dcmitype/StillImage"/>
    <dc:date>2026-04-16T08:04:24.273517</dc:date>
    <dc:format>image/svg+xml</dc:format>
    <dc:creator>
     <cc:Agent>
      <dc:title>Matplotlib v3.10.8, https://matplotlib.org/</dc:title>
     </cc:Agent>
    </dc:creator>
   </cc:Work>
  </rdf:RDF>
 </metadata>
 <defs>
  <style type="text/css">*{stroke-linejoin: round; stroke-linecap: butt}</style>
 </defs>
 <g id="figure_1">
  <g id="patch_1">
   <path d="M 0 345.6 
L 460.8 345.6 
L 460.8 0 
L 0 0 
z
" style="fill: #ffffff"/>
  </g>
  <g id="axes_1">
   <g id="patch_2">
    <path d="M 57.6 162.432 
L 414.72 162.432 
L 414.72 41.472 
L 57.6 41.472 
z
" style="fill: #ffffff"/>
   </g>
   <g id="patch_3">
    <path d="M 186.571773 155.9933 
L 292.529523 155.9933 
L 292.529523 147.528637 
L 186.571773 147.528637 
L 186.571773 155.9933 
z
" clip-path="url(#pee9bc3efe3)" style="fill: none; stroke: #808080; stroke-linejoin: miter"/>
   </g>
   <g id="matplotlib.axis_1">
    <g id="xtick_1">
     <g id="line2d_1">
      <defs>
       <path id="m53f5d09622" d="M 0 0 
L 0 3.5 
" style="stroke: #000000; stroke-width: 0.8"/>
      </defs>
      <g>
       <use xlink:href="#m53f5d09622" x="59.422473" y="162.432" style="stroke: #000000; stroke-width: 0.8"/>
      </g>
     </g>
    </g>
    <g id="xtick_2">
     <g id="line2d_2">
      <g>
       <use xlink:href="#m53f5d09622" x="101.805573" y="162.432" style="stroke: #000000; stroke-width: 0.8"/>
      </g>
     </g>
    </g>
    <g id="xtick_3">
     <g id="line2d_3">
      <g>
       <use xlink:href="#m53f5d09622" x="144.188673" y="162.432" style="stroke: #000000; stroke-width: 0.8"/>
      </g>
     </g>
    </g>
    <g id="xtick_4">
     <g id="line2d_4">
      <g>
       <use xlink:href="#m53f5d09622" x="186.571773" y="162.432" style="stroke: #000000; stroke-width: 0.8"/>
      </g>
     </g>
    </g>
    <g id="xtick_5">
     <g id="line2d_5">
      <g>
       <use xlink:href="#m53f5d09622" x="228.954873" y="162.432" style="stroke: #000000; stroke-width: 0.8"/>
      </g>
     </g>
    </g>
    <g id="xtick_6">
     <g id="line2d_6">
      <g>
       <use xlink:href="#m53f5d09622" x="271.337973" y="162.432" style="stroke: #000000; stroke-width: 0.8"/>
      </g>
     </g>
    </g>
    <g id="xtick_7">
     <g id="line2d_7">
      <g>
       <use xlink:href="#m53f5d09622" x="313.721073" y="162.432" style="stroke: #000000; stroke-width: 0.8"/>
      </g>
     </g>
    </g>
    <g id="xtick_8">
     <g id="line2d_8">
      <g>
       <use xlink:href="#m53f5d09622" x="356.104173" y="162.432" style="stroke: #000000; stroke-width: 0.8"/>
      </g>
     </g>
    </g>
    <g id="xtick_9">
     <g id="line2d_9">
      <g>
       <use xlink:href="#m53f5d09622" x="398.487273" y="162.432" style="stroke: #000000; stroke-width: 0.8"/>
      </g>
     </g>
    </g>
   </g>
   <g id="matplotlib.axis_2">
    <g id="ytick_1">
     <g id="line2d_10">
      <defs>
       <path id="mc765ec052e" d="M 0 0 
L -3.5 0 
" style="stroke: #000000; stroke-width: 0.8"/>
      </defs>
      <g>
       <use xlink:href="#mc765ec052e" x="57.6" y="156.933818" style="stroke: #000000; stroke-width: 0.8"/>
      </g>
     </g>
     <g id="text_1">
      <!-- 0 -->
      <g transform="translate(44.2375 160.733037) scale(0.1 -0.1)">
       <defs>
        <path id="DejaVuSans-30" d="M 2034 4250 
Q 1547 4250 1301 3770 
Q 1056 3291 1056 2328 
Q 1056 1369 1301 889 
Q 1547 409 2034 409 
Q 2525 409 2770 889 
Q 3016 1369 3016 2328 
Q 3016 3291 2770 3770 
Q 2525 4250 2034 4250 
z
M 2034 4750 
Q 2819 4750 3233 4129 
Q 3647 3509 3647 2328 
Q 3647 1150 3233 529 
Q 2819 -91 2034 -91 
Q 1250 -91 836 529 
Q 422 1150 422 2328 
Q 422 3509 836 4129 
Q 1250 4750 2034 4750 
z
" transform="scale(0.015625)"/>
       </defs>
       <use xlink:href="#DejaVuSans-30"/>
      </g>
     </g>
    </g>
    <g id="ytick_2">
     <g id="line2d_11">
      <g>
       <use xlink:href="#mc765ec052e" x="57.6" y="125.583213" style="stroke: #000000; stroke-width: 0.8"/>
      </g>
     </g>
     <g id="text_2">
      <!-- 1 -->
      <g transform="translate(44.2375 129.382432) scale(0.1 -0.1)">
       <defs>
        <path id="DejaVuSans-31" d="M 794 531 
L 1825 531 
L 1825 4091 
L 703 3866 
L 703 4441 
L 1819 4666 
L 2450 4666 
L 2450 531 
L 3481 531 
L 3481 0 
L 794 0 
L 794 531 
z
" transform="scale(0.015625)"/>
       </defs>
       <use xlink:href="#DejaVuSans-31"/>
      </g>
     </g>
    </g>
    <g id="ytick_3">
     <g id="line2d_12">
      <g>
       <use xlink:href="#mc765ec052e" x="57.6" y="94.232608" style="stroke: #000000; stroke-width: 0.8"/>
      </g>
     </g>
     <g id="text_3">
      <!-- 2 -->
      <g transform="translate(44.2375 98.031826) scale(0.1 -0.1)">
       <defs>
        <path id="DejaVuSans-32" d="M 1228 531 
L 3431 531 
L 3431 0 
L 469 0 
L 469 531 
Q 828 903 1448 1529 
Q 2069 2156 2228 2338 
Q 2531 2678 2651 2914 
Q 2772 3150 2772 3378 
Q 2772 3750 2511 3984 
Q 2250 4219 1831 4219 
Q 1534 4219 1204 4116 
Q 875 4013 500 3803 
L 500 4441 
Q 881 4594 1212 4672 
Q 1544 4750 1819 4750 
Q 2544 4750 2975 4387 
Q 3406 4025 3406 3419 
Q 3406 3131 3298 2873 
Q 3191 2616 2906 2266 
Q 2828 2175 2409 1742 
Q 1991 1309 1228 531 
z
" transform="scale(0.015625)"/>
       </defs>
       <use xlink:href="#DejaVuSans-32"/>
      </g>
     </g>
    </g>
    <g id="ytick_4">
     <g id="line2d_13">
      <g>
       <use xlink:href="#mc765ec052e" x="57.6" y="62.882003" style="stroke: #000000; stroke-width: 0.8"/>
      </g>
     </g>
     <g id="text_4">
      <!-- 3 -->
      <g transform="translate(44.2375 66.681221) scale(0.1 -0.1)">
       <defs>
        <path id="DejaVuSans-33" d="M 2597 2516 
Q 3050 2419 3304 2112 
Q 3559 1806 3559 1356 
Q 3559 666 3084 287 
Q 2609 -91 1734 -91 
Q 1441 -91 1130 -33 
Q 819 25 488 141 
L 488 750 
Q 750 597 1062 519 
Q 1375 441 1716 441 
Q 2309 441 2620 675 
Q 2931 909 2931 1356 
Q 2931 1769 2642 2001 
Q 2353 2234 1838 2234 
L 1294 2234 
L 1294 2753 
L 1863 2753 
Q 2328 2753 2575 2939 
Q 2822 3125 2822 3475 
Q 2822 3834 2567 4026 
Q 2313 4219 1838 4219 
Q 1578 4219 1281 4162 
Q 984 4106 628 3988 
L 628 4550 
Q 988 4650 1302 4700 
Q 1616 4750 1894 4750 
Q 2613 4750 3031 4423 
Q 3450 4097 3450 3541 
Q 3450 3153 3228 2886 
Q 3006 2619 2597 2516 
z
" transform="scale(0.015625)"/>
       </defs>
       <use xlink:href="#DejaVuSans-33"/>
      </g>
     </g>
    </g>
    <g id="text_5">
     <!-- $S_{ee}^{tot}$ or -->
     <g transform="translate(14.941875 117.252) rotate(-90) scale(0.1 -0.1)">
      <defs>
       <path id="DejaVuSans-Oblique-53" d="M 3859 4513 
L 3738 3897 
Q 3422 4066 3111 4152 
Q 2800 4238 2509 4238 
Q 1944 4238 1609 3991 
Q 1275 3744 1275 3334 
Q 1275 3109 1398 2989 
Q 1522 2869 2034 2731 
L 2413 2638 
Q 3053 2472 3303 2217 
Q 3553 1963 3553 1503 
Q 3553 797 2998 353 
Q 2444 -91 1538 -91 
Q 1166 -91 791 -17 
Q 416 56 38 206 
L 166 856 
Q 513 641 861 531 
Q 1209 422 1556 422 
Q 2147 422 2503 684 
Q 2859 947 2859 1369 
Q 2859 1650 2717 1795 
Q 2575 1941 2106 2059 
L 1728 2156 
Q 1081 2325 845 2545 
Q 609 2766 609 3163 
Q 609 3859 1145 4304 
Q 1681 4750 2541 4750 
Q 2875 4750 3203 4690 
Q 3531 4631 3859 4513 
z
" transform="scale(0.015625)"/>
       <path id="DejaVuSans-Oblique-74" d="M 2706 3500 
L 2619 3053 
L 1472 3053 
L 1100 1153 
Q 1081 1047 1072 975 
Q 1063 903 1063 863 
Q 1063 663 1183 572 
Q 1303 481 1569 481 
L 2150 481 
L 2053 0 
L 1503 0 
Q 991 0 739 200 
Q 488 400 488 806 
Q 488 878 497 964 
Q 506 1050 525 1153 
L 897 3053 
L 409 3053 
L 500 3500 
L 978 3500 
L 1172 4494 
L 1747 4494 
L 1556 3500 
L 2706 3500 
z
" transform="scale(0.015625)"/>
       <path id="DejaVuSans-Oblique-6f" d="M 1625 -91 
Q 1009 -91 651 289 
Q 294 669 294 1325 
Q 294 1706 417 2101 
Q 541 2497 738 2766 
Q 1047 3184 1428 3384 
Q 1809 3584 2291 3584 
Q 2888 3584 3255 3212 
Q 3622 2841 3622 2241 
Q 3622 1825 3500 1412 
Q 3378 1000 3181 728 
Q 2875 309 2494 109 
Q 2113 -91 1625 -91 
z
M 891 1344 
Q 891 869 1089 633 
Q 1288 397 1691 397 
Q 2269 397 2648 901 
Q 3028 1406 3028 2181 
Q 3028 2634 2825 2865 
Q 2622 3097 2228 3097 
Q 1903 3097 1650 2945 
Q 1397 2794 1197 2484 
Q 1050 2253 970 1956 
Q 891 1659 891 1344 
z
" transform="scale(0.015625)"/>
       <path id="DejaVuSans-Oblique-65" d="M 3078 2063 
Q 3088 2113 3092 2166 
Q 3097 2219 3097 2272 
Q 3097 2653 2873 2875 
Q 2650 3097 2266 3097 
Q 1838 3097 1509 2826 
Q 1181 2556 1013 2059 
L 3078 2063 
z
M 3578 1613 
L 903 1613 
Q 884 1494 878 1425 
Q 872 1356 872 1306 
Q 872 872 1139 634 
Q 1406 397 1894 397 
Q 2269 397 2603 481 
Q 2938 566 3225 728 
L 3116 159 
Q 2806 34 2476 -28 
Q 2147 -91 1806 -91 
Q 1078 -91 686 257 
Q 294 606 294 1247 
Q 294 1794 489 2264 
Q 684 2734 1063 3103 
Q 1306 3334 1642 3459 
Q 1978 3584 2356 3584 
Q 2950 3584 3301 3228 
Q 3653 2872 3653 2272 
Q 3653 2128 3634 1964 
Q 3616 1800 3578 1613 
z
" transform="scale(0.015625)"/>
       <path id="DejaVuSans-20" transform="scale(0.015625)"/>
       <path id="DejaVuSans-6f" d="M 1959 3097 
Q 1497 3097 1228 2736 
Q 959 2375 959 1747 
Q 959 1119 1226 758 
Q 1494 397 1959 397 
Q 2419 397 2687 759 
Q 2956 1122 2956 1747 
Q 2956 2369 2687 2733 
Q 2419 3097 1959 3097 
z
M 1959 3584 
Q 2709 3584 3137 3096 
Q 3566 2609 3566 1747 
Q 3566 888 3137 398 
Q 2709 -91 1959 -91 
Q 1206 -91 779 398 
Q 353 888 353 1747 
Q 353 2609 779 3096 
Q 1206 3584 1959 3584 
z
" transform="scale(0.015625)"/>
       <path id="DejaVuSans-72" d="M 2631 2963 
Q 2534 3019 2420 3045 
Q 2306 3072 2169 3072 
Q 1681 3072 1420 2755 
Q 1159 2438 1159 1844 
L 1159 0 
L 581 0 
L 581 3500 
L 1159 3500 
L 1159 2956 
Q 1341 3275 1631 3429 
Q 1922 3584 2338 3584 
Q 2397 3584 2469 3576 
Q 2541 3569 2628 3553 
L 2631 2963 
z
" transform="scale(0.015625)"/>
      </defs>
      <use xlink:href="#DejaVuSans-Oblique-53" transform="translate(0 0.565625)"/>
      <use xlink:href="#DejaVuSans-Oblique-74" transform="translate(70.677083 38.846875) scale(0.7)"/>
      <use xlink:href="#DejaVuSans-Oblique-6f" transform="translate(98.123372 38.846875) scale(0.7)"/>
      <use xlink:href="#DejaVuSans-Oblique-74" transform="translate(140.950521 38.846875) scale(0.7)"/>
      <use xlink:href="#DejaVuSans-Oblique-65" transform="translate(63.476562 -26.778125) scale(0.7)"/>
      <use xlink:href="#DejaVuSans-Oblique-65" transform="translate(106.542969 -26.778125) scale(0.7)"/>
      <use xlink:href="#DejaVuSans-20" transform="translate(171.131185 0.565625)"/>
      <use xlink:href="#DejaVuSans-6f" transform="translate(202.918294 0.565625)"/>
      <use xlink:href="#DejaVuSans-72" transform="translate(264.099935 0.565625)"/>
     </g>
     <!--  class. diff. crosssection or -->
     <g transform="translate(26.96 167.702781) rotate(-90) scale(0.1 -0.1)">
      <defs>
       <path id="DejaVuSans-63" d="M 3122 3366 
L 3122 2828 
Q 2878 2963 2633 3030 
Q 2388 3097 2138 3097 
Q 1578 3097 1268 2742 
Q 959 2388 959 1747 
Q 959 1106 1268 751 
Q 1578 397 2138 397 
Q 2388 397 2633 464 
Q 2878 531 3122 666 
L 3122 134 
Q 2881 22 2623 -34 
Q 2366 -91 2075 -91 
Q 1284 -91 818 406 
Q 353 903 353 1747 
Q 353 2603 823 3093 
Q 1294 3584 2113 3584 
Q 2378 3584 2631 3529 
Q 2884 3475 3122 3366 
z
" transform="scale(0.015625)"/>
       <path id="DejaVuSans-6c" d="M 603 4863 
L 1178 4863 
L 1178 0 
L 603 0 
L 603 4863 
z
" transform="scale(0.015625)"/>
       <path id="DejaVuSans-61" d="M 2194 1759 
Q 1497 1759 1228 1600 
Q 959 1441 959 1056 
Q 959 750 1161 570 
Q 1363 391 1709 391 
Q 2188 391 2477 730 
Q 2766 1069 2766 1631 
L 2766 1759 
L 2194 1759 
z
M 3341 1997 
L 3341 0 
L 2766 0 
L 2766 531 
Q 2569 213 2275 61 
Q 1981 -91 1556 -91 
Q 1019 -91 701 211 
Q 384 513 384 1019 
Q 384 1609 779 1909 
Q 1175 2209 1959 2209 
L 2766 2209 
L 2766 2266 
Q 2766 2663 2505 2880 
Q 2244 3097 1772 3097 
Q 1472 3097 1187 3025 
Q 903 2953 641 2809 
L 641 3341 
Q 956 3463 1253 3523 
Q 1550 3584 1831 3584 
Q 2591 3584 2966 3190 
Q 3341 2797 3341 1997 
z
" transform="scale(0.015625)"/>
       <path id="DejaVuSans-73" d="M 2834 3397 
L 2834 2853 
Q 2591 2978 2328 3040 
Q 2066 3103 1784 3103 
Q 1356 3103 1142 2972 
Q 928 2841 928 2578 
Q 928 2378 1081 2264 
Q 1234 2150 1697 2047 
L 1894 2003 
Q 2506 1872 2764 1633 
Q 3022 1394 3022 966 
Q 3022 478 2636 193 
Q 2250 -91 1575 -91 
Q 1294 -91 989 -36 
Q 684 19 347 128 
L 347 722 
Q 666 556 975 473 
Q 1284 391 1588 391 
Q 1994 391 2212 530 
Q 2431 669 2431 922 
Q 2431 1156 2273 1281 
Q 2116 1406 1581 1522 
L 1381 1569 
Q 847 1681 609 1914 
Q 372 2147 372 2553 
Q 372 3047 722 3315 
Q 1072 3584 1716 3584 
Q 2034 3584 2315 3537 
Q 2597 3491 2834 3397 
z
" transform="scale(0.015625)"/>
       <path id="DejaVuSans-2e" d="M 684 794 
L 1344 794 
L 1344 0 
L 684 0 
L 684 794 
z
" transform="scale(0.015625)"/>
       <path id="DejaVuSans-64" d="M 2906 2969 
L 2906 4863 
L 3481 4863 
L 3481 0 
L 2906 0 
L 2906 525 
Q 2725 213 2448 61 
Q 2172 -91 1784 -91 
Q 1150 -91 751 415 
Q 353 922 353 1747 
Q 353 2572 751 3078 
Q 1150 3584 1784 3584 
Q 2172 3584 2448 3432 
Q 2725 3281 2906 2969 
z
M 947 1747 
Q 947 1113 1208 752 
Q 1469 391 1925 391 
Q 2381 391 2643 752 
Q 2906 1113 2906 1747 
Q 2906 2381 2643 2742 
Q 2381 3103 1925 3103 
Q 1469 3103 1208 2742 
Q 947 2381 947 1747 
z
" transform="scale(0.015625)"/>
       <path id="DejaVuSans-69" d="M 603 3500 
L 1178 3500 
L 1178 0 
L 603 0 
L 603 3500 
z
M 603 4863 
L 1178 4863 
L 1178 4134 
L 603 4134 
L 603 4863 
z
" transform="scale(0.015625)"/>
       <path id="DejaVuSans-66" d="M 2375 4863 
L 2375 4384 
L 1825 4384 
Q 1516 4384 1395 4259 
Q 1275 4134 1275 3809 
L 1275 3500 
L 2222 3500 
L 2222 3053 
L 1275 3053 
L 1275 0 
L 697 0 
L 697 3053 
L 147 3053 
L 147 3500 
L 697 3500 
L 697 3744 
Q 697 4328 969 4595 
Q 1241 4863 1831 4863 
L 2375 4863 
z
" transform="scale(0.015625)"/>
       <path id="DejaVuSans-65" d="M 3597 1894 
L 3597 1613 
L 953 1613 
Q 991 1019 1311 708 
Q 1631 397 2203 397 
Q 2534 397 2845 478 
Q 3156 559 3463 722 
L 3463 178 
Q 3153 47 2828 -22 
Q 2503 -91 2169 -91 
Q 1331 -91 842 396 
Q 353 884 353 1716 
Q 353 2575 817 3079 
Q 1281 3584 2069 3584 
Q 2775 3584 3186 3129 
Q 3597 2675 3597 1894 
z
M 3022 2063 
Q 3016 2534 2758 2815 
Q 2500 3097 2075 3097 
Q 1594 3097 1305 2825 
Q 1016 2553 972 2059 
L 3022 2063 
z
" transform="scale(0.015625)"/>
       <path id="DejaVuSans-74" d="M 1172 4494 
L 1172 3500 
L 2356 3500 
L 2356 3053 
L 1172 3053 
L 1172 1153 
Q 1172 725 1289 603 
Q 1406 481 1766 481 
L 2356 481 
L 2356 0 
L 1766 0 
Q 1100 0 847 248 
Q 594 497 594 1153 
L 594 3053 
L 172 3053 
L 172 3500 
L 594 3500 
L 594 4494 
L 1172 4494 
z
" transform="scale(0.015625)"/>
       <path id="DejaVuSans-6e" d="M 3513 2113 
L 3513 0 
L 2938 0 
L 2938 2094 
Q 2938 2591 2744 2837 
Q 2550 3084 2163 3084 
Q 1697 3084 1428 2787 
Q 1159 2491 1159 1978 
L 1159 0 
L 581 0 
L 581 3500 
L 1159 3500 
L 1159 2956 
Q 1366 3272 1645 3428 
Q 1925 3584 2291 3584 
Q 2894 3584 3203 3211 
Q 3513 2838 3513 2113 
z
" transform="scale(0.015625)"/>
      </defs>
      <use xlink:href="#DejaVuSans-20"/>
      <use xlink:href="#DejaVuSans-63" transform="translate(31.787109 0)"/>
      <use xlink:href="#DejaVuSans-6c" transform="translate(86.767578 0)"/>
      <use xlink:href="#DejaVuSans-61" transform="translate(114.550781 0)"/>
      <use xlink:href="#DejaVuSans-73" transform="translate(175.830078 0)"/>
      <use xlink:href="#DejaVuSans-73" transform="translate(227.929688 0)"/>
      <use xlink:href="#DejaVuSans-2e" transform="translate(280.029297 0)"/>
      <use xlink:href="#DejaVuSans-20" transform="translate(311.816406 0)"/>
      <use xlink:href="#DejaVuSans-64" transform="translate(343.603516 0)"/>
      <use xlink:href="#DejaVuSans-69" transform="translate(407.080078 0)"/>
      <use xlink:href="#DejaVuSans-66" transform="translate(434.863281 0)"/>
      <use xlink:href="#DejaVuSans-66" transform="translate(470.068359 0)"/>
      <use xlink:href="#DejaVuSans-2e" transform="translate(498.023438 0)"/>
      <use xlink:href="#DejaVuSans-20" transform="translate(529.810547 0)"/>
      <use xlink:href="#DejaVuSans-63" transform="translate(561.597656 0)"/>
      <use xlink:href="#DejaVuSans-72" transform="translate(616.578125 0)"/>
      <use xlink:href="#DejaVuSans-6f" transform="translate(655.441406 0)"/>
      <use xlink:href="#DejaVuSans-73" transform="translate(716.623047 0)"/>
      <use xlink:href="#DejaVuSans-73" transform="translate(768.722656 0)"/>
      <use xlink:href="#DejaVuSans-73" transform="translate(820.822266 0)"/>
      <use xlink:href="#DejaVuSans-65" transform="translate(872.921875 0)"/>
      <use xlink:href="#DejaVuSans-63" transform="translate(934.445312 0)"/>
      <use xlink:href="#DejaVuSans-74" transform="translate(989.425781 0)"/>
      <use xlink:href="#DejaVuSans-69" transform="translate(1028.634766 0)"/>
      <use xlink:href="#DejaVuSans-6f" transform="translate(1056.417969 0)"/>
      <use xlink:href="#DejaVuSans-6e" transform="translate(1117.599609 0)"/>
      <use xlink:href="#DejaVuSans-20" transform="translate(1180.978516 0)"/>
      <use xlink:href="#DejaVuSans-6f" transform="translate(1212.765625 0)"/>
      <use xlink:href="#DejaVuSans-72" transform="translate(1273.947266 0)"/>
     </g>
     <!--  quantum diff. crosssection [s] -->
     <g transform="translate(38.157812 177.668406) rotate(-90) scale(0.1 -0.1)">
      <defs>
       <path id="DejaVuSans-71" d="M 947 1747 
Q 947 1113 1208 752 
Q 1469 391 1925 391 
Q 2381 391 2643 752 
Q 2906 1113 2906 1747 
Q 2906 2381 2643 2742 
Q 2381 3103 1925 3103 
Q 1469 3103 1208 2742 
Q 947 2381 947 1747 
z
M 2906 525 
Q 2725 213 2448 61 
Q 2172 -91 1784 -91 
Q 1150 -91 751 415 
Q 353 922 353 1747 
Q 353 2572 751 3078 
Q 1150 3584 1784 3584 
Q 2172 3584 2448 3432 
Q 2725 3281 2906 2969 
L 2906 3500 
L 3481 3500 
L 3481 -1331 
L 2906 -1331 
L 2906 525 
z
" transform="scale(0.015625)"/>
       <path id="DejaVuSans-75" d="M 544 1381 
L 544 3500 
L 1119 3500 
L 1119 1403 
Q 1119 906 1312 657 
Q 1506 409 1894 409 
Q 2359 409 2629 706 
Q 2900 1003 2900 1516 
L 2900 3500 
L 3475 3500 
L 3475 0 
L 2900 0 
L 2900 538 
Q 2691 219 2414 64 
Q 2138 -91 1772 -91 
Q 1169 -91 856 284 
Q 544 659 544 1381 
z
M 1991 3584 
L 1991 3584 
z
" transform="scale(0.015625)"/>
       <path id="DejaVuSans-6d" d="M 3328 2828 
Q 3544 3216 3844 3400 
Q 4144 3584 4550 3584 
Q 5097 3584 5394 3201 
Q 5691 2819 5691 2113 
L 5691 0 
L 5113 0 
L 5113 2094 
Q 5113 2597 4934 2840 
Q 4756 3084 4391 3084 
Q 3944 3084 3684 2787 
Q 3425 2491 3425 1978 
L 3425 0 
L 2847 0 
L 2847 2094 
Q 2847 2600 2669 2842 
Q 2491 3084 2119 3084 
Q 1678 3084 1418 2786 
Q 1159 2488 1159 1978 
L 1159 0 
L 581 0 
L 581 3500 
L 1159 3500 
L 1159 2956 
Q 1356 3278 1631 3431 
Q 1906 3584 2284 3584 
Q 2666 3584 2933 3390 
Q 3200 3197 3328 2828 
z
" transform="scale(0.015625)"/>
       <path id="DejaVuSans-5b" d="M 550 4863 
L 1875 4863 
L 1875 4416 
L 1125 4416 
L 1125 -397 
L 1875 -397 
L 1875 -844 
L 550 -844 
L 550 4863 
z
" transform="scale(0.015625)"/>
       <path id="DejaVuSans-5d" d="M 1947 4863 
L 1947 -844 
L 622 -844 
L 622 -397 
L 1369 -397 
L 1369 4416 
L 622 4416 
L 622 4863 
L 1947 4863 
z
" transform="scale(0.015625)"/>
      </defs>
      <use xlink:href="#DejaVuSans-20"/>
      <use xlink:href="#DejaVuSans-71" transform="translate(31.787109 0)"/>
      <use xlink:href="#DejaVuSans-75" transform="translate(95.263672 0)"/>
      <use xlink:href="#DejaVuSans-61" transform="translate(158.642578 0)"/>
      <use xlink:href="#DejaVuSans-6e" transform="translate(219.921875 0)"/>
      <use xlink:href="#DejaVuSans-74" transform="translate(283.300781 0)"/>
      <use xlink:href="#DejaVuSans-75" transform="translate(322.509766 0)"/>
      <use xlink:href="#DejaVuSans-6d" transform="translate(385.888672 0)"/>
      <use xlink:href="#DejaVuSans-20" transform="translate(483.300781 0)"/>
      <use xlink:href="#DejaVuSans-64" transform="translate(515.087891 0)"/>
      <use xlink:href="#DejaVuSans-69" transform="translate(578.564453 0)"/>
      <use xlink:href="#DejaVuSans-66" transform="translate(606.347656 0)"/>
      <use xlink:href="#DejaVuSans-66" transform="translate(641.552734 0)"/>
      <use xlink:href="#DejaVuSans-2e" transform="translate(669.507812 0)"/>
      <use xlink:href="#DejaVuSans-20" transform="translate(701.294922 0)"/>
      <use xlink:href="#DejaVuSans-63" transform="translate(733.082031 0)"/>
      <use xlink:href="#DejaVuSans-72" transform="translate(788.0625 0)"/>
      <use xlink:href="#DejaVuSans-6f" transform="translate(826.925781 0)"/>
      <use xlink:href="#DejaVuSans-73" transform="translate(888.107422 0)"/>
      <use xlink:href="#DejaVuSans-73" transform="translate(940.207031 0)"/>
      <use xlink:href="#DejaVuSans-73" transform="translate(992.306641 0)"/>
      <use xlink:href="#DejaVuSans-65" transform="translate(1044.40625 0)"/>
      <use xlink:href="#DejaVuSans-63" transform="translate(1105.929688 0)"/>
      <use xlink:href="#DejaVuSans-74" transform="translate(1160.910156 0)"/>
      <use xlink:href="#DejaVuSans-69" transform="translate(1200.119141 0)"/>
      <use xlink:href="#DejaVuSans-6f" transform="translate(1227.902344 0)"/>
      <use xlink:href="#DejaVuSans-6e" transform="translate(1289.083984 0)"/>
      <use xlink:href="#DejaVuSans-20" transform="translate(1352.462891 0)"/>
      <use xlink:href="#DejaVuSans-5b" transform="translate(1384.25 0)"/>
      <use xlink:href="#DejaVuSans-73" transform="translate(1423.263672 0)"/>
      <use xlink:href="#DejaVuSans-5d" transform="translate(1475.363281 0)"/>
     </g>
    </g>
    <g id="text_6">
     <!-- 1e−17 -->
     <g transform="translate(57.6 38.472) scale(0.1 -0.1)">
      <defs>
       <path id="DejaVuSans-2212" d="M 678 2272 
L 4684 2272 
L 4684 1741 
L 678 1741 
L 678 2272 
z
" transform="scale(0.015625)"/>
       <path id="DejaVuSans-37" d="M 525 4666 
L 3525 4666 
L 3525 4397 
L 1831 0 
L 1172 0 
L 2766 4134 
L 525 4134 
L 525 4666 
z
" transform="scale(0.015625)"/>
      </defs>
      <use xlink:href="#DejaVuSans-31"/>
      <use xlink:href="#DejaVuSans-65" transform="translate(63.623047 0)"/>
      <use xlink:href="#DejaVuSans-2212" transform="translate(125.146484 0)"/>
      <use xlink:href="#DejaVuSans-31" transform="translate(208.935547 0)"/>
      <use xlink:href="#DejaVuSans-37" transform="translate(272.558594 0)"/>
     </g>
    </g>
   </g>
   <g id="line2d_14">
    <path d="M 73.832727 156.76165 
L 75.784558 156.661782 
L 167.520612 155.992775 
L 183.13526 155.74951 
L 187.689532 155.488183 
L 191.593194 155.046697 
L 195.496856 154.361475 
L 200.701738 153.187802 
L 209.810282 151.108263 
L 215.665775 150.030541 
L 220.870658 149.30147 
L 226.07554 148.798187 
L 231.280423 148.522329 
L 236.485305 148.472385 
L 241.690188 148.645339 
L 246.89507 149.037091 
L 252.099953 149.642023 
L 257.955445 150.565932 
L 263.810938 151.720656 
L 279.425586 154.9966 
L 283.329248 155.452944 
L 287.88352 155.735537 
L 289.835351 155.836172 
L 290.485961 155.959092 
L 293.088402 156.869415 
L 295.690844 156.919658 
L 327.570749 156.933818 
L 352.293941 156.919663 
L 352.944551 156.701129 
L 353.595161 154.665749 
L 354.245772 143.825669 
L 354.896382 112.014666 
L 355.546992 65.664082 
L 356.197602 46.975754 
L 356.848213 78.386308 
L 357.498823 123.664584 
L 358.149433 148.578591 
L 358.800044 155.689651 
L 359.450654 156.823967 
L 360.751875 156.93364 
L 398.487273 156.933818 
L 398.487273 156.933818 
" clip-path="url(#pee9bc3efe3)" style="fill: none; stroke: #1f77b4; stroke-width: 1.5; stroke-linecap: square"/>
   </g>
   <g id="line2d_15">
    <path d="M 73.832727 156.77483 
L 75.784558 156.682463 
L 164.918171 156.064642 
L 183.13526 155.805065 
L 188.340142 155.49937 
L 192.243804 155.037165 
L 196.147466 154.344211 
L 202.653569 152.896391 
L 210.460893 151.211305 
L 216.316385 150.192882 
L 221.521268 149.507452 
L 226.72615 149.038381 
L 231.931033 148.787669 
L 237.135915 148.754582 
L 242.340798 148.937016 
L 247.54568 149.331789 
L 252.750563 149.934098 
L 258.606056 150.848864 
L 264.461549 151.986906 
L 278.774975 154.940657 
L 282.678637 155.423268 
L 287.232909 155.730353 
L 290.485961 155.976437 
L 293.088402 156.870516 
L 295.690844 156.91989 
L 327.570749 156.933818 
L 352.293941 156.919678 
L 352.944551 156.701328 
L 353.595161 154.667293 
L 354.245772 143.832276 
L 354.896382 112.029379 
L 355.546992 65.677873 
L 356.197602 46.972968 
L 356.848213 78.370459 
L 357.498823 123.652 
L 358.149433 148.573957 
L 358.800044 155.688741 
L 359.450654 156.823867 
L 360.751875 156.933639 
L 398.487273 156.933818 
L 398.487273 156.933818 
" clip-path="url(#pee9bc3efe3)" style="fill: none; stroke: #ff7f0e; stroke-width: 1.5; stroke-linecap: square"/>
   </g>
   <g id="line2d_16">
    <path d="M 73.832727 156.787001 
L 75.784558 156.701572 
L 162.96634 156.126895 
L 183.78587 155.834473 
L 188.340142 155.564634 
L 192.243804 155.12145 
L 196.147466 154.456548 
L 202.653569 153.064411 
L 210.460893 151.437334 
L 216.316385 150.448433 
L 221.521268 149.778505 
L 226.72615 149.31541 
L 231.931033 149.061995 
L 237.135915 149.018477 
L 242.340798 149.183737 
L 247.54568 149.5556 
L 252.750563 150.130296 
L 258.606056 151.009758 
L 265.112159 152.24326 
L 278.774975 154.982457 
L 282.678637 155.453348 
L 287.232909 155.752831 
L 290.485961 155.993475 
L 293.088402 156.871598 
L 295.690844 156.920118 
L 328.221359 156.933818 
L 352.293941 156.919693 
L 352.944551 156.701528 
L 353.595161 154.668835 
L 354.245772 143.838879 
L 354.896382 112.044088 
L 355.546992 65.691663 
L 356.197602 46.970182 
L 356.848213 78.354606 
L 357.498823 123.639412 
L 358.149433 148.56932 
L 358.800044 155.687831 
L 359.450654 156.823768 
L 360.751875 156.933639 
L 398.487273 156.933818 
L 398.487273 156.933818 
" clip-path="url(#pee9bc3efe3)" style="fill: none; stroke: #2ca02c; stroke-width: 1.5; stroke-linecap: square"/>
   </g>
   <g id="patch_4">
    <path d="M 57.6 162.432 
L 57.6 41.472 
" style="fill: none; stroke: #000000; stroke-width: 0.8; stroke-linejoin: miter; stroke-linecap: square"/>
   </g>
   <g id="patch_5">
    <path d="M 414.72 162.432 
L 414.72 41.472 
" style="fill: none; stroke: #000000; stroke-width: 0.8; stroke-linejoin: miter; stroke-linecap: square"/>
   </g>
   <g id="patch_6">
    <path d="M 57.6 162.432 
L 414.72 162.432 
" style="fill: none; stroke: #000000; stroke-width: 0.8; stroke-linejoin: miter; stroke-linecap: square"/>
   </g>
   <g id="patch_7">
    <path d="M 57.6 41.472 
L 414.72 41.472 
" style="fill: none; stroke: #000000; stroke-width: 0.8; stroke-linejoin: miter; stroke-linecap: square"/>
   </g>
  </g>
  <g id="axes_2">
   <g id="patch_8">
    <path d="M 57.6 307.584 
L 414.72 307.584 
L 414.72 186.624 
L 57.6 186.624 
z
" style="fill: #ffffff"/>
   </g>
   <g id="matplotlib.axis_3">
    <g id="xtick_10">
     <g id="line2d_17">
      <g>
       <use xlink:href="#m53f5d09622" x="59.422473" y="307.584" style="stroke: #000000; stroke-width: 0.8"/>
      </g>
     </g>
     <g id="text_7">
      <!-- 8000 -->
      <g transform="translate(46.697473 322.182437) scale(0.1 -0.1)">
       <defs>
        <path id="DejaVuSans-38" d="M 2034 2216 
Q 1584 2216 1326 1975 
Q 1069 1734 1069 1313 
Q 1069 891 1326 650 
Q 1584 409 2034 409 
Q 2484 409 2743 651 
Q 3003 894 3003 1313 
Q 3003 1734 2745 1975 
Q 2488 2216 2034 2216 
z
M 1403 2484 
Q 997 2584 770 2862 
Q 544 3141 544 3541 
Q 544 4100 942 4425 
Q 1341 4750 2034 4750 
Q 2731 4750 3128 4425 
Q 3525 4100 3525 3541 
Q 3525 3141 3298 2862 
Q 3072 2584 2669 2484 
Q 3125 2378 3379 2068 
Q 3634 1759 3634 1313 
Q 3634 634 3220 271 
Q 2806 -91 2034 -91 
Q 1263 -91 848 271 
Q 434 634 434 1313 
Q 434 1759 690 2068 
Q 947 2378 1403 2484 
z
M 1172 3481 
Q 1172 3119 1398 2916 
Q 1625 2713 2034 2713 
Q 2441 2713 2670 2916 
Q 2900 3119 2900 3481 
Q 2900 3844 2670 4047 
Q 2441 4250 2034 4250 
Q 1625 4250 1398 4047 
Q 1172 3844 1172 3481 
z
" transform="scale(0.015625)"/>
       </defs>
       <use xlink:href="#DejaVuSans-38"/>
       <use xlink:href="#DejaVuSans-30" transform="translate(63.623047 0)"/>
       <use xlink:href="#DejaVuSans-30" transform="translate(127.246094 0)"/>
       <use xlink:href="#DejaVuSans-30" transform="translate(190.869141 0)"/>
      </g>
     </g>
    </g>
    <g id="xtick_11">
     <g id="line2d_18">
      <g>
       <use xlink:href="#m53f5d09622" x="101.805573" y="307.584" style="stroke: #000000; stroke-width: 0.8"/>
      </g>
     </g>
     <g id="text_8">
      <!-- 8100 -->
      <g transform="translate(89.080573 322.182437) scale(0.1 -0.1)">
       <use xlink:href="#DejaVuSans-38"/>
       <use xlink:href="#DejaVuSans-31" transform="translate(63.623047 0)"/>
       <use xlink:href="#DejaVuSans-30" transform="translate(127.246094 0)"/>
       <use xlink:href="#DejaVuSans-30" transform="translate(190.869141 0)"/>
      </g>
     </g>
    </g>
    <g id="xtick_12">
     <g id="line2d_19">
      <g>
       <use xlink:href="#m53f5d09622" x="144.188673" y="307.584" style="stroke: #000000; stroke-width: 0.8"/>
      </g>
     </g>
     <g id="text_9">
      <!-- 8200 -->
      <g transform="translate(131.463673 322.182437) scale(0.1 -0.1)">
       <use xlink:href="#DejaVuSans-38"/>
       <use xlink:href="#DejaVuSans-32" transform="translate(63.623047 0)"/>
       <use xlink:href="#DejaVuSans-30" transform="translate(127.246094 0)"/>
       <use xlink:href="#DejaVuSans-30" transform="translate(190.869141 0)"/>
      </g>
     </g>
    </g>
    <g id="xtick_13">
     <g id="line2d_20">
      <g>
       <use xlink:href="#m53f5d09622" x="186.571773" y="307.584" style="stroke: #000000; stroke-width: 0.8"/>
      </g>
     </g>
     <g id="text_10">
      <!-- 8300 -->
      <g transform="translate(173.846773 322.182437) scale(0.1 -0.1)">
       <use xlink:href="#DejaVuSans-38"/>
       <use xlink:href="#DejaVuSans-33" transform="translate(63.623047 0)"/>
       <use xlink:href="#DejaVuSans-30" transform="translate(127.246094 0)"/>
       <use xlink:href="#DejaVuSans-30" transform="translate(190.869141 0)"/>
      </g>
     </g>
    </g>
    <g id="xtick_14">
     <g id="line2d_21">
      <g>
       <use xlink:href="#m53f5d09622" x="228.954873" y="307.584" style="stroke: #000000; stroke-width: 0.8"/>
      </g>
     </g>
     <g id="text_11">
      <!-- 8400 -->
      <g transform="translate(216.229873 322.182437) scale(0.1 -0.1)">
       <defs>
        <path id="DejaVuSans-34" d="M 2419 4116 
L 825 1625 
L 2419 1625 
L 2419 4116 
z
M 2253 4666 
L 3047 4666 
L 3047 1625 
L 3713 1625 
L 3713 1100 
L 3047 1100 
L 3047 0 
L 2419 0 
L 2419 1100 
L 313 1100 
L 313 1709 
L 2253 4666 
z
" transform="scale(0.015625)"/>
       </defs>
       <use xlink:href="#DejaVuSans-38"/>
       <use xlink:href="#DejaVuSans-34" transform="translate(63.623047 0)"/>
       <use xlink:href="#DejaVuSans-30" transform="translate(127.246094 0)"/>
       <use xlink:href="#DejaVuSans-30" transform="translate(190.869141 0)"/>
      </g>
     </g>
    </g>
    <g id="xtick_15">
     <g id="line2d_22">
      <g>
       <use xlink:href="#m53f5d09622" x="271.337973" y="307.584" style="stroke: #000000; stroke-width: 0.8"/>
      </g>
     </g>
     <g id="text_12">
      <!-- 8500 -->
      <g transform="translate(258.612973 322.182437) scale(0.1 -0.1)">
       <defs>
        <path id="DejaVuSans-35" d="M 691 4666 
L 3169 4666 
L 3169 4134 
L 1269 4134 
L 1269 2991 
Q 1406 3038 1543 3061 
Q 1681 3084 1819 3084 
Q 2600 3084 3056 2656 
Q 3513 2228 3513 1497 
Q 3513 744 3044 326 
Q 2575 -91 1722 -91 
Q 1428 -91 1123 -41 
Q 819 9 494 109 
L 494 744 
Q 775 591 1075 516 
Q 1375 441 1709 441 
Q 2250 441 2565 725 
Q 2881 1009 2881 1497 
Q 2881 1984 2565 2268 
Q 2250 2553 1709 2553 
Q 1456 2553 1204 2497 
Q 953 2441 691 2322 
L 691 4666 
z
" transform="scale(0.015625)"/>
       </defs>
       <use xlink:href="#DejaVuSans-38"/>
       <use xlink:href="#DejaVuSans-35" transform="translate(63.623047 0)"/>
       <use xlink:href="#DejaVuSans-30" transform="translate(127.246094 0)"/>
       <use xlink:href="#DejaVuSans-30" transform="translate(190.869141 0)"/>
      </g>
     </g>
    </g>
    <g id="xtick_16">
     <g id="line2d_23">
      <g>
       <use xlink:href="#m53f5d09622" x="313.721073" y="307.584" style="stroke: #000000; stroke-width: 0.8"/>
      </g>
     </g>
     <g id="text_13">
      <!-- 8600 -->
      <g transform="translate(300.996073 322.182437) scale(0.1 -0.1)">
       <defs>
        <path id="DejaVuSans-36" d="M 2113 2584 
Q 1688 2584 1439 2293 
Q 1191 2003 1191 1497 
Q 1191 994 1439 701 
Q 1688 409 2113 409 
Q 2538 409 2786 701 
Q 3034 994 3034 1497 
Q 3034 2003 2786 2293 
Q 2538 2584 2113 2584 
z
M 3366 4563 
L 3366 3988 
Q 3128 4100 2886 4159 
Q 2644 4219 2406 4219 
Q 1781 4219 1451 3797 
Q 1122 3375 1075 2522 
Q 1259 2794 1537 2939 
Q 1816 3084 2150 3084 
Q 2853 3084 3261 2657 
Q 3669 2231 3669 1497 
Q 3669 778 3244 343 
Q 2819 -91 2113 -91 
Q 1303 -91 875 529 
Q 447 1150 447 2328 
Q 447 3434 972 4092 
Q 1497 4750 2381 4750 
Q 2619 4750 2861 4703 
Q 3103 4656 3366 4563 
z
" transform="scale(0.015625)"/>
       </defs>
       <use xlink:href="#DejaVuSans-38"/>
       <use xlink:href="#DejaVuSans-36" transform="translate(63.623047 0)"/>
       <use xlink:href="#DejaVuSans-30" transform="translate(127.246094 0)"/>
       <use xlink:href="#DejaVuSans-30" transform="translate(190.869141 0)"/>
      </g>
     </g>
    </g>
    <g id="xtick_17">
     <g id="line2d_24">
      <g>
       <use xlink:href="#m53f5d09622" x="356.104173" y="307.584" style="stroke: #000000; stroke-width: 0.8"/>
      </g>
     </g>
     <g id="text_14">
      <!-- 8700 -->
      <g transform="translate(343.379173 322.182437) scale(0.1 -0.1)">
       <use xlink:href="#DejaVuSans-38"/>
       <use xlink:href="#DejaVuSans-37" transform="translate(63.623047 0)"/>
       <use xlink:href="#DejaVuSans-30" transform="translate(127.246094 0)"/>
       <use xlink:href="#DejaVuSans-30" transform="translate(190.869141 0)"/>
      </g>
     </g>
    </g>
    <g id="xtick_18">
     <g id="line2d_25">
      <g>
       <use xlink:href="#m53f5d09622" x="398.487273" y="307.584" style="stroke: #000000; stroke-width: 0.8"/>
      </g>
     </g>
     <g id="text_15">
      <!-- 8800 -->
      <g transform="translate(385.762273 322.182437) scale(0.1 -0.1)">
       <use xlink:href="#DejaVuSans-38"/>
       <use xlink:href="#DejaVuSans-38" transform="translate(63.623047 0)"/>
       <use xlink:href="#DejaVuSans-30" transform="translate(127.246094 0)"/>
       <use xlink:href="#DejaVuSans-30" transform="translate(190.869141 0)"/>
      </g>
     </g>
    </g>
    <g id="text_16">
     <!-- Probed Energy [eV] -->
     <g transform="translate(187.7225 335.860562) scale(0.1 -0.1)">
      <defs>
       <path id="DejaVuSans-50" d="M 1259 4147 
L 1259 2394 
L 2053 2394 
Q 2494 2394 2734 2622 
Q 2975 2850 2975 3272 
Q 2975 3691 2734 3919 
Q 2494 4147 2053 4147 
L 1259 4147 
z
M 628 4666 
L 2053 4666 
Q 2838 4666 3239 4311 
Q 3641 3956 3641 3272 
Q 3641 2581 3239 2228 
Q 2838 1875 2053 1875 
L 1259 1875 
L 1259 0 
L 628 0 
L 628 4666 
z
" transform="scale(0.015625)"/>
       <path id="DejaVuSans-62" d="M 3116 1747 
Q 3116 2381 2855 2742 
Q 2594 3103 2138 3103 
Q 1681 3103 1420 2742 
Q 1159 2381 1159 1747 
Q 1159 1113 1420 752 
Q 1681 391 2138 391 
Q 2594 391 2855 752 
Q 3116 1113 3116 1747 
z
M 1159 2969 
Q 1341 3281 1617 3432 
Q 1894 3584 2278 3584 
Q 2916 3584 3314 3078 
Q 3713 2572 3713 1747 
Q 3713 922 3314 415 
Q 2916 -91 2278 -91 
Q 1894 -91 1617 61 
Q 1341 213 1159 525 
L 1159 0 
L 581 0 
L 581 4863 
L 1159 4863 
L 1159 2969 
z
" transform="scale(0.015625)"/>
       <path id="DejaVuSans-45" d="M 628 4666 
L 3578 4666 
L 3578 4134 
L 1259 4134 
L 1259 2753 
L 3481 2753 
L 3481 2222 
L 1259 2222 
L 1259 531 
L 3634 531 
L 3634 0 
L 628 0 
L 628 4666 
z
" transform="scale(0.015625)"/>
       <path id="DejaVuSans-67" d="M 2906 1791 
Q 2906 2416 2648 2759 
Q 2391 3103 1925 3103 
Q 1463 3103 1205 2759 
Q 947 2416 947 1791 
Q 947 1169 1205 825 
Q 1463 481 1925 481 
Q 2391 481 2648 825 
Q 2906 1169 2906 1791 
z
M 3481 434 
Q 3481 -459 3084 -895 
Q 2688 -1331 1869 -1331 
Q 1566 -1331 1297 -1286 
Q 1028 -1241 775 -1147 
L 775 -588 
Q 1028 -725 1275 -790 
Q 1522 -856 1778 -856 
Q 2344 -856 2625 -561 
Q 2906 -266 2906 331 
L 2906 616 
Q 2728 306 2450 153 
Q 2172 0 1784 0 
Q 1141 0 747 490 
Q 353 981 353 1791 
Q 353 2603 747 3093 
Q 1141 3584 1784 3584 
Q 2172 3584 2450 3431 
Q 2728 3278 2906 2969 
L 2906 3500 
L 3481 3500 
L 3481 434 
z
" transform="scale(0.015625)"/>
       <path id="DejaVuSans-79" d="M 2059 -325 
Q 1816 -950 1584 -1140 
Q 1353 -1331 966 -1331 
L 506 -1331 
L 506 -850 
L 844 -850 
Q 1081 -850 1212 -737 
Q 1344 -625 1503 -206 
L 1606 56 
L 191 3500 
L 800 3500 
L 1894 763 
L 2988 3500 
L 3597 3500 
L 2059 -325 
z
" transform="scale(0.015625)"/>
       <path id="DejaVuSans-56" d="M 1831 0 
L 50 4666 
L 709 4666 
L 2188 738 
L 3669 4666 
L 4325 4666 
L 2547 0 
L 1831 0 
z
" transform="scale(0.015625)"/>
      </defs>
      <use xlink:href="#DejaVuSans-50"/>
      <use xlink:href="#DejaVuSans-72" transform="translate(58.552734 0)"/>
      <use xlink:href="#DejaVuSans-6f" transform="translate(97.416016 0)"/>
      <use xlink:href="#DejaVuSans-62" transform="translate(158.597656 0)"/>
      <use xlink:href="#DejaVuSans-65" transform="translate(222.074219 0)"/>
      <use xlink:href="#DejaVuSans-64" transform="translate(283.597656 0)"/>
      <use xlink:href="#DejaVuSans-20" transform="translate(347.074219 0)"/>
      <use xlink:href="#DejaVuSans-45" transform="translate(378.861328 0)"/>
      <use xlink:href="#DejaVuSans-6e" transform="translate(442.044922 0)"/>
      <use xlink:href="#DejaVuSans-65" transform="translate(505.423828 0)"/>
      <use xlink:href="#DejaVuSans-72" transform="translate(566.947266 0)"/>
      <use xlink:href="#DejaVuSans-67" transform="translate(606.310547 0)"/>
      <use xlink:href="#DejaVuSans-79" transform="translate(669.787109 0)"/>
      <use xlink:href="#DejaVuSans-20" transform="translate(728.966797 0)"/>
      <use xlink:href="#DejaVuSans-5b" transform="translate(760.753906 0)"/>
      <use xlink:href="#DejaVuSans-65" transform="translate(799.767578 0)"/>
      <use xlink:href="#DejaVuSans-56" transform="translate(861.291016 0)"/>
      <use xlink:href="#DejaVuSans-5d" transform="translate(929.699219 0)"/>
     </g>
    </g>
   </g>
   <g id="matplotlib.axis_4">
    <g id="ytick_5">
     <g id="line2d_26">
      <g>
       <use xlink:href="#mc765ec052e" x="57.6" y="303.865178" style="stroke: #000000; stroke-width: 0.8"/>
      </g>
     </g>
     <g id="text_17">
      <!-- 0.85 -->
      <g transform="translate(28.334375 307.664397) scale(0.1 -0.1)">
       <use xlink:href="#DejaVuSans-30"/>
       <use xlink:href="#DejaVuSans-2e" transform="translate(63.623047 0)"/>
       <use xlink:href="#DejaVuSans-38" transform="translate(95.410156 0)"/>
       <use xlink:href="#DejaVuSans-35" transform="translate(159.033203 0)"/>
      </g>
     </g>
    </g>
    <g id="ytick_6">
     <g id="line2d_27">
      <g>
       <use xlink:href="#mc765ec052e" x="57.6" y="271.592017" style="stroke: #000000; stroke-width: 0.8"/>
      </g>
     </g>
     <g id="text_18">
      <!-- 0.90 -->
      <g transform="translate(28.334375 275.391236) scale(0.1 -0.1)">
       <defs>
        <path id="DejaVuSans-39" d="M 703 97 
L 703 672 
Q 941 559 1184 500 
Q 1428 441 1663 441 
Q 2288 441 2617 861 
Q 2947 1281 2994 2138 
Q 2813 1869 2534 1725 
Q 2256 1581 1919 1581 
Q 1219 1581 811 2004 
Q 403 2428 403 3163 
Q 403 3881 828 4315 
Q 1253 4750 1959 4750 
Q 2769 4750 3195 4129 
Q 3622 3509 3622 2328 
Q 3622 1225 3098 567 
Q 2575 -91 1691 -91 
Q 1453 -91 1209 -44 
Q 966 3 703 97 
z
M 1959 2075 
Q 2384 2075 2632 2365 
Q 2881 2656 2881 3163 
Q 2881 3666 2632 3958 
Q 2384 4250 1959 4250 
Q 1534 4250 1286 3958 
Q 1038 3666 1038 3163 
Q 1038 2656 1286 2365 
Q 1534 2075 1959 2075 
z
" transform="scale(0.015625)"/>
       </defs>
       <use xlink:href="#DejaVuSans-30"/>
       <use xlink:href="#DejaVuSans-2e" transform="translate(63.623047 0)"/>
       <use xlink:href="#DejaVuSans-39" transform="translate(95.410156 0)"/>
       <use xlink:href="#DejaVuSans-30" transform="translate(159.033203 0)"/>
      </g>
     </g>
    </g>
    <g id="ytick_7">
     <g id="line2d_28">
      <g>
       <use xlink:href="#mc765ec052e" x="57.6" y="239.318856" style="stroke: #000000; stroke-width: 0.8"/>
      </g>
     </g>
     <g id="text_19">
      <!-- 0.95 -->
      <g transform="translate(28.334375 243.118074) scale(0.1 -0.1)">
       <use xlink:href="#DejaVuSans-30"/>
       <use xlink:href="#DejaVuSans-2e" transform="translate(63.623047 0)"/>
       <use xlink:href="#DejaVuSans-39" transform="translate(95.410156 0)"/>
       <use xlink:href="#DejaVuSans-35" transform="translate(159.033203 0)"/>
      </g>
     </g>
    </g>
    <g id="ytick_8">
     <g id="line2d_29">
      <g>
       <use xlink:href="#mc765ec052e" x="57.6" y="207.045694" style="stroke: #000000; stroke-width: 0.8"/>
      </g>
     </g>
     <g id="text_20">
      <!-- 1.00 -->
      <g transform="translate(28.334375 210.844913) scale(0.1 -0.1)">
       <use xlink:href="#DejaVuSans-31"/>
       <use xlink:href="#DejaVuSans-2e" transform="translate(63.623047 0)"/>
       <use xlink:href="#DejaVuSans-30" transform="translate(95.410156 0)"/>
       <use xlink:href="#DejaVuSans-30" transform="translate(159.033203 0)"/>
      </g>
     </g>
    </g>
    <g id="text_21">
     <!-- FRC -->
     <g transform="translate(22.254688 256.695406) rotate(-90) scale(0.1 -0.1)">
      <defs>
       <path id="DejaVuSans-46" d="M 628 4666 
L 3309 4666 
L 3309 4134 
L 1259 4134 
L 1259 2759 
L 3109 2759 
L 3109 2228 
L 1259 2228 
L 1259 0 
L 628 0 
L 628 4666 
z
" transform="scale(0.015625)"/>
       <path id="DejaVuSans-52" d="M 2841 2188 
Q 3044 2119 3236 1894 
Q 3428 1669 3622 1275 
L 4263 0 
L 3584 0 
L 2988 1197 
Q 2756 1666 2539 1819 
Q 2322 1972 1947 1972 
L 1259 1972 
L 1259 0 
L 628 0 
L 628 4666 
L 2053 4666 
Q 2853 4666 3247 4331 
Q 3641 3997 3641 3322 
Q 3641 2881 3436 2590 
Q 3231 2300 2841 2188 
z
M 1259 4147 
L 1259 2491 
L 2053 2491 
Q 2509 2491 2742 2702 
Q 2975 2913 2975 3322 
Q 2975 3731 2742 3939 
Q 2509 4147 2053 4147 
L 1259 4147 
z
" transform="scale(0.015625)"/>
       <path id="DejaVuSans-43" d="M 4122 4306 
L 4122 3641 
Q 3803 3938 3442 4084 
Q 3081 4231 2675 4231 
Q 1875 4231 1450 3742 
Q 1025 3253 1025 2328 
Q 1025 1406 1450 917 
Q 1875 428 2675 428 
Q 3081 428 3442 575 
Q 3803 722 4122 1019 
L 4122 359 
Q 3791 134 3420 21 
Q 3050 -91 2638 -91 
Q 1578 -91 968 557 
Q 359 1206 359 2328 
Q 359 3453 968 4101 
Q 1578 4750 2638 4750 
Q 3056 4750 3426 4639 
Q 3797 4528 4122 4306 
z
" transform="scale(0.015625)"/>
      </defs>
      <use xlink:href="#DejaVuSans-46"/>
      <use xlink:href="#DejaVuSans-52" transform="translate(57.519531 0)"/>
      <use xlink:href="#DejaVuSans-43" transform="translate(122.001953 0)"/>
     </g>
    </g>
   </g>
   <g id="line2d_30">
    <path d="M 73.832727 207.045694 
L 398.487273 207.045694 
L 398.487273 207.045694 
" clip-path="url(#pfbf66d3670)" style="fill: none; stroke: #1f77b4; stroke-width: 1.5; stroke-linecap: square"/>
   </g>
   <g id="line2d_31">
    <path d="M 73.832727 256.457017 
L 398.487273 199.626577 
L 398.487273 199.626577 
" clip-path="url(#pfbf66d3670)" style="fill: none; stroke: #ff7f0e; stroke-width: 1.5; stroke-linecap: square"/>
   </g>
   <g id="line2d_32">
    <path d="M 73.832727 302.085818 
L 123.279111 285.983866 
L 172.725495 269.649775 
L 222.171878 253.083546 
L 271.618262 236.285179 
L 321.064646 219.254674 
L 371.16164 201.763343 
L 398.487273 192.122182 
L 398.487273 192.122182 
" clip-path="url(#pfbf66d3670)" style="fill: none; stroke: #2ca02c; stroke-width: 1.5; stroke-linecap: square"/>
   </g>
   <g id="patch_9">
    <path d="M 57.6 307.584 
L 57.6 186.624 
" style="fill: none; stroke: #000000; stroke-width: 0.8; stroke-linejoin: miter; stroke-linecap: square"/>
   </g>
   <g id="patch_10">
    <path d="M 414.72 307.584 
L 414.72 186.624 
" style="fill: none; stroke: #000000; stroke-width: 0.8; stroke-linejoin: miter; stroke-linecap: square"/>
   </g>
   <g id="patch_11">
    <path d="M 57.6 307.584 
L 414.72 307.584 
" style="fill: none; stroke: #000000; stroke-width: 0.8; stroke-linejoin: miter; stroke-linecap: square"/>
   </g>
   <g id="patch_12">
    <path d="M 57.6 186.624 
L 414.72 186.624 
" style="fill: none; stroke: #000000; stroke-width: 0.8; stroke-linejoin: miter; stroke-linecap: square"/>
   </g>
   <g id="legend_1">
    <g id="patch_13">
     <path d="M 289.604375 302.584 
L 407.72 302.584 
Q 409.72 302.584 409.72 300.584 
L 409.72 256.71525 
Q 409.72 254.71525 407.72 254.71525 
L 289.604375 254.71525 
Q 287.604375 254.71525 287.604375 256.71525 
L 287.604375 300.584 
Q 287.604375 302.584 289.604375 302.584 
z
" style="fill: #ffffff; opacity: 0.8; stroke: #cccccc; stroke-linejoin: miter"/>
    </g>
    <g id="line2d_33">
     <path d="M 291.604375 262.813687 
L 301.604375 262.813687 
L 311.604375 262.813687 
" style="fill: none; stroke: #1f77b4; stroke-width: 1.5; stroke-linecap: square"/>
    </g>
    <g id="text_22">
     <!-- frc_exponent = 0 -->
     <g transform="translate(319.604375 266.313687) scale(0.1 -0.1)">
      <defs>
       <path id="DejaVuSans-5f" d="M 3263 -1063 
L 3263 -1509 
L -63 -1509 
L -63 -1063 
L 3263 -1063 
z
" transform="scale(0.015625)"/>
       <path id="DejaVuSans-78" d="M 3513 3500 
L 2247 1797 
L 3578 0 
L 2900 0 
L 1881 1375 
L 863 0 
L 184 0 
L 1544 1831 
L 300 3500 
L 978 3500 
L 1906 2253 
L 2834 3500 
L 3513 3500 
z
" transform="scale(0.015625)"/>
       <path id="DejaVuSans-70" d="M 1159 525 
L 1159 -1331 
L 581 -1331 
L 581 3500 
L 1159 3500 
L 1159 2969 
Q 1341 3281 1617 3432 
Q 1894 3584 2278 3584 
Q 2916 3584 3314 3078 
Q 3713 2572 3713 1747 
Q 3713 922 3314 415 
Q 2916 -91 2278 -91 
Q 1894 -91 1617 61 
Q 1341 213 1159 525 
z
M 3116 1747 
Q 3116 2381 2855 2742 
Q 2594 3103 2138 3103 
Q 1681 3103 1420 2742 
Q 1159 2381 1159 1747 
Q 1159 1113 1420 752 
Q 1681 391 2138 391 
Q 2594 391 2855 752 
Q 3116 1113 3116 1747 
z
" transform="scale(0.015625)"/>
       <path id="DejaVuSans-3d" d="M 678 2906 
L 4684 2906 
L 4684 2381 
L 678 2381 
L 678 2906 
z
M 678 1631 
L 4684 1631 
L 4684 1100 
L 678 1100 
L 678 1631 
z
" transform="scale(0.015625)"/>
      </defs>
      <use xlink:href="#DejaVuSans-66"/>
      <use xlink:href="#DejaVuSans-72" transform="translate(35.205078 0)"/>
      <use xlink:href="#DejaVuSans-63" transform="translate(74.068359 0)"/>
      <use xlink:href="#DejaVuSans-5f" transform="translate(129.048828 0)"/>
      <use xlink:href="#DejaVuSans-65" transform="translate(179.048828 0)"/>
      <use xlink:href="#DejaVuSans-78" transform="translate(238.822266 0)"/>
      <use xlink:href="#DejaVuSans-70" transform="translate(298.001953 0)"/>
      <use xlink:href="#DejaVuSans-6f" transform="translate(361.478516 0)"/>
      <use xlink:href="#DejaVuSans-6e" transform="translate(422.660156 0)"/>
      <use xlink:href="#DejaVuSans-65" transform="translate(486.039062 0)"/>
      <use xlink:href="#DejaVuSans-6e" transform="translate(547.5625 0)"/>
      <use xlink:href="#DejaVuSans-74" transform="translate(610.941406 0)"/>
      <use xlink:href="#DejaVuSans-20" transform="translate(650.150391 0)"/>
      <use xlink:href="#DejaVuSans-3d" transform="translate(681.9375 0)"/>
      <use xlink:href="#DejaVuSans-20" transform="translate(765.726562 0)"/>
      <use xlink:href="#DejaVuSans-30" transform="translate(797.513672 0)"/>
     </g>
    </g>
    <g id="line2d_34">
     <path d="M 291.604375 277.769937 
L 301.604375 277.769937 
L 311.604375 277.769937 
" style="fill: none; stroke: #ff7f0e; stroke-width: 1.5; stroke-linecap: square"/>
    </g>
    <g id="text_23">
     <!-- frc_exponent = 1 -->
     <g transform="translate(319.604375 281.269937) scale(0.1 -0.1)">
      <use xlink:href="#DejaVuSans-66"/>
      <use xlink:href="#DejaVuSans-72" transform="translate(35.205078 0)"/>
      <use xlink:href="#DejaVuSans-63" transform="translate(74.068359 0)"/>
      <use xlink:href="#DejaVuSans-5f" transform="translate(129.048828 0)"/>
      <use xlink:href="#DejaVuSans-65" transform="translate(179.048828 0)"/>
      <use xlink:href="#DejaVuSans-78" transform="translate(238.822266 0)"/>
      <use xlink:href="#DejaVuSans-70" transform="translate(298.001953 0)"/>
      <use xlink:href="#DejaVuSans-6f" transform="translate(361.478516 0)"/>
      <use xlink:href="#DejaVuSans-6e" transform="translate(422.660156 0)"/>
      <use xlink:href="#DejaVuSans-65" transform="translate(486.039062 0)"/>
      <use xlink:href="#DejaVuSans-6e" transform="translate(547.5625 0)"/>
      <use xlink:href="#DejaVuSans-74" transform="translate(610.941406 0)"/>
      <use xlink:href="#DejaVuSans-20" transform="translate(650.150391 0)"/>
      <use xlink:href="#DejaVuSans-3d" transform="translate(681.9375 0)"/>
      <use xlink:href="#DejaVuSans-20" transform="translate(765.726562 0)"/>
      <use xlink:href="#DejaVuSans-31" transform="translate(797.513672 0)"/>
     </g>
    </g>
    <g id="line2d_35">
     <path d="M 291.604375 292.726187 
L 301.604375 292.726187 
L 311.604375 292.726187 
" style="fill: none; stroke: #2ca02c; stroke-width: 1.5; stroke-linecap: square"/>
    </g>
    <g id="text_24">
     <!-- frc_exponent = 2 -->
     <g transform="translate(319.604375 296.226187) scale(0.1 -0.1)">
      <use xlink:href="#DejaVuSans-66"/>
      <use xlink:href="#DejaVuSans-72" transform="translate(35.205078 0)"/>
      <use xlink:href="#DejaVuSans-63" transform="translate(74.068359 0)"/>
      <use xlink:href="#DejaVuSans-5f" transform="translate(129.048828 0)"/>
      <use xlink:href="#DejaVuSans-65" transform="translate(179.048828 0)"/>
      <use xlink:href="#DejaVuSans-78" transform="translate(238.822266 0)"/>
      <use xlink:href="#DejaVuSans-70" transform="translate(298.001953 0)"/>
      <use xlink:href="#DejaVuSans-6f" transform="translate(361.478516 0)"/>
      <use xlink:href="#DejaVuSans-6e" transform="translate(422.660156 0)"/>
      <use xlink:href="#DejaVuSans-65" transform="translate(486.039062 0)"/>
      <use xlink:href="#DejaVuSans-6e" transform="translate(547.5625 0)"/>
      <use xlink:href="#DejaVuSans-74" transform="translate(610.941406 0)"/>
      <use xlink:href="#DejaVuSans-20" transform="translate(650.150391 0)"/>
      <use xlink:href="#DejaVuSans-3d" transform="translate(681.9375 0)"/>
      <use xlink:href="#DejaVuSans-20" transform="translate(765.726562 0)"/>
      <use xlink:href="#DejaVuSans-32" transform="translate(797.513672 0)"/>
     </g>
    </g>
   </g>
  </g>
  <g id="axes_3">
   <g id="patch_14">
    <path d="M 62.6 131.144 
L 241.16 131.144 
L 241.16 46.472 
L 62.6 46.472 
z
" style="fill: #ffffff"/>
   </g>
   <g id="patch_15">
    <path d="M 62.6 131.144 
L 186.571773 155.9933 
" style="fill: none; stroke: #808080; stroke-linejoin: miter"/>
   </g>
   <g id="patch_16">
    <path d="M 241.16 46.472 
L 292.529523 147.528637 
" style="fill: none; stroke: #808080; stroke-linejoin: miter"/>
   </g>
   <g id="matplotlib.axis_5"/>
   <g id="matplotlib.axis_6"/>
   <g id="line2d_36">
    <path d="M -1 132.859025 
L 41.459069 130.487014 
L 49.133928 129.864785 
L 53.519562 129.311701 
L 56.808787 128.705369 
L 60.098013 127.839586 
L 62.29083 127.064885 
L 64.483647 126.091317 
L 66.676464 124.885255 
L 68.869281 123.418969 
L 71.062098 121.675131 
L 73.254915 119.650367 
L 75.447732 117.35677 
L 78.736957 113.473501 
L 82.026183 109.179459 
L 87.508225 101.525503 
L 95.183085 90.780287 
L 99.568719 85.010778 
L 103.954353 79.662295 
L 107.243578 75.968085 
L 110.532804 72.565705 
L 113.822029 69.466645 
L 117.111255 66.678388 
L 120.40048 64.205644 
L 123.689706 62.051205 
L 126.978931 60.216519 
L 130.268157 58.702085 
L 133.557382 57.507722 
L 136.846608 56.632754 
L 140.135833 56.076128 
L 143.425059 55.836506 
L 146.714284 55.912311 
L 150.00351 56.30176 
L 153.292735 57.002879 
L 156.581961 58.013489 
L 159.871186 59.331181 
L 163.160412 60.953255 
L 166.449637 62.876635 
L 169.738863 65.097723 
L 173.028088 67.612196 
L 176.317314 70.414689 
L 179.606539 73.498332 
L 182.895765 76.854053 
L 186.18499 80.469548 
L 190.570624 85.663891 
L 194.956258 91.228068 
L 200.438301 98.551681 
L 209.209569 110.309469 
L 212.498794 114.3679 
L 215.78802 118.027367 
L 217.980837 120.187339 
L 220.173654 122.096035 
L 222.366471 123.743923 
L 224.559288 125.134977 
L 226.752105 126.285289 
L 228.944922 127.219995 
L 231.137739 127.969415 
L 234.426964 128.819952 
L 235.523373 129.088491 
L 236.619781 129.572249 
L 237.716189 130.801813 
L 238.812598 133.261412 
L 239.909006 136.382031 
L 241.005415 138.783884 
L 242.101823 139.907777 
L 243.198232 140.247668 
L 246.487457 140.410357 
L 256.355134 140.530147 
L 290.343797 140.551991 
L 340.778588 140.546893 
L 341.874997 140.41041 
L 342.971405 138.224411 
L 344.067814 117.864516 
L 345.200164 -1 
M 351.487616 -1 
L 351.742673 56.974694 
L 352.839082 128.1066 
L 353.93549 139.45316 
L 355.031899 140.494474 
L 358.321124 140.552 
L 419.72 140.552 
L 419.72 140.552 
" clip-path="url(#pcec6cb9f61)" style="fill: none; stroke: #1f77b4; stroke-width: 1.5; stroke-linecap: square"/>
   </g>
   <g id="line2d_37">
    <path d="M -1 133.291461 
L 40.36266 131.05389 
L 48.03752 130.484342 
L 52.423154 129.999612 
L 55.712379 129.478625 
L 59.001604 128.740168 
L 61.194421 128.07909 
L 63.387238 127.244613 
L 65.580055 126.203224 
L 67.772872 124.924851 
L 69.965689 123.387204 
L 72.158506 121.579782 
L 74.351323 119.506426 
L 76.54414 117.18558 
L 79.833366 113.310401 
L 84.219 107.626045 
L 98.47231 88.593509 
L 102.857944 83.309719 
L 106.14717 79.637795 
L 109.436395 76.23765 
L 112.725621 73.122437 
L 116.014846 70.300964 
L 119.304072 67.779043 
L 122.593297 65.560405 
L 125.882523 63.647335 
L 129.171748 62.041091 
L 132.460974 60.742203 
L 135.750199 59.75067 
L 139.039425 59.066095 
L 142.32865 58.687772 
L 145.617876 58.614754 
L 148.907101 58.845882 
L 152.196327 59.379804 
L 155.485552 60.214974 
L 158.774778 61.349626 
L 162.064003 62.781734 
L 165.353229 64.508931 
L 168.642454 66.52839 
L 171.93168 68.836649 
L 175.220905 71.42934 
L 178.510131 74.300791 
L 181.799356 77.443431 
L 185.088582 80.846903 
L 189.474216 85.764812 
L 193.85985 91.06805 
L 199.341892 98.108082 
L 209.209569 110.986392 
L 212.498794 114.940123 
L 215.78802 118.507693 
L 217.980837 120.614418 
L 220.173654 122.476574 
L 222.366471 124.084552 
L 224.559288 125.441975 
L 226.752105 126.564346 
L 228.944922 127.476065 
L 231.137739 128.206651 
L 234.426964 129.034941 
L 235.523373 129.296536 
L 236.619781 129.769577 
L 237.716189 130.975324 
L 238.812598 133.389866 
L 239.909006 136.454766 
L 241.005415 138.814413 
L 242.101823 139.918786 
L 243.198232 140.252815 
L 246.487457 140.412678 
L 256.355134 140.53047 
L 290.343797 140.551991 
L 340.778588 140.546899 
L 341.874997 140.410557 
L 342.971405 138.226406 
L 344.067814 117.879953 
L 345.200401 -1 
M 351.487901 -1 
L 351.742673 56.928336 
L 352.839082 128.097501 
L 353.93549 139.452163 
L 355.031899 140.494412 
L 358.321124 140.552 
L 419.72 140.552 
L 419.72 140.552 
" clip-path="url(#pcec6cb9f61)" style="fill: none; stroke: #ff7f0e; stroke-width: 1.5; stroke-linecap: square"/>
   </g>
   <g id="line2d_38">
    <path d="M -1 133.69959 
L 40.36266 131.524575 
L 49.133928 130.869066 
L 53.519562 130.352848 
L 56.808787 129.790728 
L 60.098013 128.991435 
L 62.29083 128.277849 
L 64.483647 127.382101 
L 66.676464 126.27314 
L 68.869281 124.925203 
L 71.062098 123.321947 
L 73.254915 121.459727 
L 75.447732 119.349028 
L 78.736957 115.77188 
L 82.026183 111.810527 
L 87.508225 104.732533 
L 95.183085 94.75245 
L 99.568719 89.368158 
L 103.954353 84.35674 
L 107.243578 80.881642 
L 110.532804 77.668913 
L 113.822029 74.73008 
L 117.111255 72.072999 
L 120.40048 69.702987 
L 123.689706 67.623598 
L 126.978931 65.837151 
L 130.268157 64.345085 
L 133.557382 63.148211 
L 136.846608 62.246875 
L 140.135833 61.641075 
L 143.425059 61.330533 
L 146.714284 61.314747 
L 150.00351 61.593015 
L 153.292735 62.164449 
L 156.581961 63.027963 
L 159.871186 64.182245 
L 163.160412 65.625702 
L 166.449637 67.356375 
L 169.738863 69.371803 
L 173.028088 71.668824 
L 176.317314 74.243275 
L 179.606539 77.08955 
L 182.895765 80.199925 
L 186.18499 83.563577 
L 190.570624 88.414946 
L 194.956258 93.632359 
L 200.438301 100.526672 
L 209.209569 111.648164 
L 212.498794 115.49984 
L 215.78802 118.977776 
L 217.980837 121.032541 
L 220.173654 122.849266 
L 222.366471 124.418279 
L 224.559288 125.742859 
L 226.752105 126.837945 
L 228.944922 127.727217 
L 231.137739 128.439413 
L 234.426964 129.24599 
L 235.523373 129.500806 
L 236.619781 129.963359 
L 237.716189 131.145746 
L 238.812598 133.516056 
L 239.909006 136.526233 
L 241.005415 138.844415 
L 242.101823 139.929608 
L 243.198232 140.257876 
L 246.487457 140.414961 
L 256.355134 140.530789 
L 290.343797 140.551991 
L 340.778588 140.546905 
L 341.874997 140.410703 
L 342.971405 138.228399 
L 344.067814 117.89538 
L 345.200638 -1 
M 351.488187 -1 
L 351.742673 56.881952 
L 352.839082 128.088395 
L 353.93549 139.451165 
L 355.031899 140.494349 
L 358.321124 140.552 
L 419.72 140.552 
L 419.72 140.552 
" clip-path="url(#pcec6cb9f61)" style="fill: none; stroke: #2ca02c; stroke-width: 1.5; stroke-linecap: square"/>
   </g>
   <g id="patch_17">
    <path d="M 62.6 131.144 
L 62.6 46.472 
" style="fill: none; stroke: #000000; stroke-width: 0.8; stroke-linejoin: miter; stroke-linecap: square"/>
   </g>
   <g id="patch_18">
    <path d="M 241.16 131.144 
L 241.16 46.472 
" style="fill: none; stroke: #000000; stroke-width: 0.8; stroke-linejoin: miter; stroke-linecap: square"/>
   </g>
   <g id="patch_19">
    <path d="M 62.6 131.144 
L 241.16 131.144 
" style="fill: none; stroke: #000000; stroke-width: 0.8; stroke-linejoin: miter; stroke-linecap: square"/>
   </g>
   <g id="patch_20">
    <path d="M 62.6 46.472 
L 241.16 46.472 
" style="fill: none; stroke: #000000; stroke-width: 0.8; stroke-linejoin: miter; stroke-linecap: square"/>
   </g>
  </g>
 </g>
 <defs>
  <clipPath id="pee9bc3efe3">
   <rect x="57.6" y="41.472" width="357.12" height="120.96"/>
  </clipPath>
  <clipPath id="pfbf66d3670">
   <rect x="57.6" y="186.624" width="357.12" height="120.96"/>
  </clipPath>
  <clipPath id="pcec6cb9f61">
   <rect x="62.6" y="46.472" width="178.56" height="84.672"/>
  </clipPath>
 </defs>
</svg>
