<?xml version="1.0" encoding="utf-8" standalone="no"?>
<!DOCTYPE svg PUBLIC "-//W3C//DTD SVG 1.1//EN"
  "http://www.w3.org/Graphics/SVG/1.1/DTD/svg11.dtd">
<svg xmlns:xlink="http://www.w3.org/1999/xlink" width="441.450011pt" height="182.867301pt" viewBox="0 0 441.450011 182.867301" xmlns="http://www.w3.org/2000/svg" version="1.1">
 <metadata>
  <rdf:RDF xmlns:dc="http://purl.org/dc/elements/1.1/" xmlns:cc="http://creativecommons.org/ns#" xmlns:rdf="http://www.w3.org/1999/02/22-rdf-syntax-ns#">
   <cc:Work>
    <dc:type rdf:resource="http://purl.org/dc/dcmitype/StillImage"/>
    <dc:date>2026-04-11T14:00:12.887187</dc:date>
    <dc:format>image/svg+xml</dc:format>
    <dc:creator>
     <cc:Agent>
      <dc:title>Matplotlib v3.10.8, https://matplotlib.org/</dc:title>
     </cc:Agent>
    </dc:creator>
   </cc:Work>
  </rdf:RDF>
 </metadata>
 <defs>
  <style type="text/css">*{stroke-linejoin: round; stroke-linecap: butt}</style>
 </defs>
 <g id="figure_1">
  <g id="patch_1">
   <path d="M 0 182.867301 
L 441.450011 182.867301 
L 441.450011 0 
L 0 0 
z
" style="fill: #ffffff"/>
  </g>
  <g id="axes_1">
   <g id="patch_2">
    <path d="M 34.430358 152.589249 
L 229.730358 152.589249 
L 229.730358 7.059249 
L 34.430358 7.059249 
z
" style="fill: #ffffff"/>
   </g>
   <g id="matplotlib.axis_1">
    <g id="xtick_1">
     <g id="line2d_1">
      <defs>
       <path id="m2263113d60" d="M 0 0 
L 0 -3 
" style="stroke: #000000; stroke-width: 0.5"/>
      </defs>
      <g>
       <use xlink:href="#m2263113d60" x="58.103085" y="152.589249" style="stroke: #000000; stroke-width: 0.5"/>
      </g>
     </g>
     <g id="line2d_2">
      <defs>
       <path id="mbb5d0be337" d="M 0 0 
L 0 3 
" style="stroke: #000000; stroke-width: 0.5"/>
      </defs>
      <g>
       <use xlink:href="#mbb5d0be337" x="58.103085" y="7.059249" style="stroke: #000000; stroke-width: 0.5"/>
      </g>
     </g>
     <g id="text_1">
      <!-- $\mathdefault{−5.0}$ -->
      <g transform="translate(47.863674 163.007748) scale(0.1 -0.1)">
       <defs>
        <path id="CMSY10-0" d="M 4218 1472 
C 4326 1472 4442 1472 4442 1600 
C 4442 1728 4326 1728 4218 1728 
L 755 1728 
C 646 1728 531 1728 531 1600 
C 531 1472 646 1472 755 1472 
L 4218 1472 
z
" transform="scale(0.015625)"/>
        <path id="CMR17-35" d="M 730 3692 
C 794 3666 1056 3584 1325 3584 
C 1920 3584 2246 3911 2432 4100 
C 2432 4157 2432 4192 2394 4192 
C 2387 4192 2374 4192 2323 4163 
C 2099 4058 1837 3973 1517 3973 
C 1325 3973 1037 3999 723 4139 
C 653 4171 640 4171 634 4171 
C 602 4171 595 4164 595 4037 
L 595 2203 
C 595 2089 595 2057 659 2057 
C 691 2057 704 2070 736 2114 
C 941 2401 1222 2522 1542 2522 
C 1766 2522 2246 2382 2246 1289 
C 2246 1085 2246 715 2054 421 
C 1894 159 1645 25 1370 25 
C 947 25 518 320 403 814 
C 429 807 480 795 506 795 
C 589 795 749 840 749 1038 
C 749 1210 627 1280 506 1280 
C 358 1280 262 1190 262 1011 
C 262 454 704 -128 1382 -128 
C 2042 -128 2669 440 2669 1264 
C 2669 2030 2170 2624 1549 2624 
C 1222 2624 947 2503 730 2274 
L 730 3692 
z
" transform="scale(0.015625)"/>
        <path id="CMMI12-3a" d="M 1178 307 
C 1178 492 1024 619 870 619 
C 685 619 557 466 557 313 
C 557 128 710 0 864 0 
C 1050 0 1178 153 1178 307 
z
" transform="scale(0.015625)"/>
        <path id="CMR17-30" d="M 2688 2025 
C 2688 2416 2682 3080 2413 3591 
C 2176 4039 1798 4198 1466 4198 
C 1158 4198 768 4058 525 3597 
C 269 3118 243 2524 243 2025 
C 243 1661 250 1106 448 619 
C 723 -39 1216 -128 1466 -128 
C 1760 -128 2208 -7 2470 600 
C 2662 1042 2688 1559 2688 2025 
z
M 1466 -26 
C 1056 -26 813 325 723 812 
C 653 1188 653 1738 653 2096 
C 653 2588 653 2997 736 3387 
C 858 3929 1216 4096 1466 4096 
C 1728 4096 2067 3923 2189 3400 
C 2272 3036 2278 2607 2278 2096 
C 2278 1680 2278 1169 2202 792 
C 2067 95 1690 -26 1466 -26 
z
" transform="scale(0.015625)"/>
       </defs>
       <use xlink:href="#CMSY10-0" transform="scale(0.996264)"/>
       <use xlink:href="#CMR17-35" transform="translate(77.487468 0) scale(0.996264)"/>
       <use xlink:href="#CMMI12-3a" transform="translate(123.177945 0) scale(0.996264)"/>
       <use xlink:href="#CMR17-30" transform="translate(150.275122 0) scale(0.996264)"/>
      </g>
     </g>
    </g>
    <g id="xtick_2">
     <g id="line2d_3">
      <g>
       <use xlink:href="#m2263113d60" x="95.091721" y="152.589249" style="stroke: #000000; stroke-width: 0.5"/>
      </g>
     </g>
     <g id="line2d_4">
      <g>
       <use xlink:href="#mbb5d0be337" x="95.091721" y="7.059249" style="stroke: #000000; stroke-width: 0.5"/>
      </g>
     </g>
     <g id="text_2">
      <!-- $\mathdefault{−2.5}$ -->
      <g transform="translate(84.85231 163.007748) scale(0.1 -0.1)">
       <defs>
        <path id="CMR17-32" d="M 2669 989 
L 2554 989 
C 2490 536 2438 459 2413 420 
C 2381 369 1920 369 1830 369 
L 602 369 
C 832 619 1280 1072 1824 1597 
C 2214 1967 2669 2402 2669 3035 
C 2669 3790 2067 4224 1395 4224 
C 691 4224 262 3604 262 3030 
C 262 2780 448 2748 525 2748 
C 589 2748 781 2787 781 3010 
C 781 3207 614 3264 525 3264 
C 486 3264 448 3258 422 3245 
C 544 3790 915 4058 1306 4058 
C 1862 4058 2227 3617 2227 3035 
C 2227 2479 1901 2000 1536 1584 
L 262 146 
L 262 0 
L 2515 0 
L 2669 989 
z
" transform="scale(0.015625)"/>
       </defs>
       <use xlink:href="#CMSY10-0" transform="scale(0.996264)"/>
       <use xlink:href="#CMR17-32" transform="translate(77.487468 0) scale(0.996264)"/>
       <use xlink:href="#CMMI12-3a" transform="translate(123.177945 0) scale(0.996264)"/>
       <use xlink:href="#CMR17-35" transform="translate(150.275122 0) scale(0.996264)"/>
      </g>
     </g>
    </g>
    <g id="xtick_3">
     <g id="line2d_5">
      <g>
       <use xlink:href="#m2263113d60" x="132.080358" y="152.589249" style="stroke: #000000; stroke-width: 0.5"/>
      </g>
     </g>
     <g id="line2d_6">
      <g>
       <use xlink:href="#mbb5d0be337" x="132.080358" y="7.059249" style="stroke: #000000; stroke-width: 0.5"/>
      </g>
     </g>
     <g id="text_3">
      <!-- $\mathdefault{0.0}$ -->
      <g transform="translate(125.715318 163.007748) scale(0.1 -0.1)">
       <use xlink:href="#CMR17-30" transform="scale(0.996264)"/>
       <use xlink:href="#CMMI12-3a" transform="translate(45.690477 0) scale(0.996264)"/>
       <use xlink:href="#CMR17-30" transform="translate(72.787654 0) scale(0.996264)"/>
      </g>
     </g>
    </g>
    <g id="xtick_4">
     <g id="line2d_7">
      <g>
       <use xlink:href="#m2263113d60" x="169.068994" y="152.589249" style="stroke: #000000; stroke-width: 0.5"/>
      </g>
     </g>
     <g id="line2d_8">
      <g>
       <use xlink:href="#mbb5d0be337" x="169.068994" y="7.059249" style="stroke: #000000; stroke-width: 0.5"/>
      </g>
     </g>
     <g id="text_4">
      <!-- $\mathdefault{2.5}$ -->
      <g transform="translate(162.703955 163.007748) scale(0.1 -0.1)">
       <use xlink:href="#CMR17-32" transform="scale(0.996264)"/>
       <use xlink:href="#CMMI12-3a" transform="translate(45.690477 0) scale(0.996264)"/>
       <use xlink:href="#CMR17-35" transform="translate(72.787654 0) scale(0.996264)"/>
      </g>
     </g>
    </g>
    <g id="xtick_5">
     <g id="line2d_9">
      <g>
       <use xlink:href="#m2263113d60" x="206.057631" y="152.589249" style="stroke: #000000; stroke-width: 0.5"/>
      </g>
     </g>
     <g id="line2d_10">
      <g>
       <use xlink:href="#mbb5d0be337" x="206.057631" y="7.059249" style="stroke: #000000; stroke-width: 0.5"/>
      </g>
     </g>
     <g id="text_5">
      <!-- $\mathdefault{5.0}$ -->
      <g transform="translate(199.692591 163.007748) scale(0.1 -0.1)">
       <use xlink:href="#CMR17-35" transform="scale(0.996264)"/>
       <use xlink:href="#CMMI12-3a" transform="translate(45.690477 0) scale(0.996264)"/>
       <use xlink:href="#CMR17-30" transform="translate(72.787654 0) scale(0.996264)"/>
      </g>
     </g>
    </g>
    <g id="xtick_6">
     <g id="line2d_11">
      <defs>
       <path id="m9fa90f180b" d="M 0 0 
L 0 -1.5 
" style="stroke: #000000; stroke-width: 0.5"/>
      </defs>
      <g>
       <use xlink:href="#m9fa90f180b" x="35.909903" y="152.589249" style="stroke: #000000; stroke-width: 0.5"/>
      </g>
     </g>
     <g id="line2d_12">
      <defs>
       <path id="me5bba9ace3" d="M 0 0 
L 0 1.5 
" style="stroke: #000000; stroke-width: 0.5"/>
      </defs>
      <g>
       <use xlink:href="#me5bba9ace3" x="35.909903" y="7.059249" style="stroke: #000000; stroke-width: 0.5"/>
      </g>
     </g>
    </g>
    <g id="xtick_7">
     <g id="line2d_13">
      <g>
       <use xlink:href="#m9fa90f180b" x="43.307631" y="152.589249" style="stroke: #000000; stroke-width: 0.5"/>
      </g>
     </g>
     <g id="line2d_14">
      <g>
       <use xlink:href="#me5bba9ace3" x="43.307631" y="7.059249" style="stroke: #000000; stroke-width: 0.5"/>
      </g>
     </g>
    </g>
    <g id="xtick_8">
     <g id="line2d_15">
      <g>
       <use xlink:href="#m9fa90f180b" x="50.705358" y="152.589249" style="stroke: #000000; stroke-width: 0.5"/>
      </g>
     </g>
     <g id="line2d_16">
      <g>
       <use xlink:href="#me5bba9ace3" x="50.705358" y="7.059249" style="stroke: #000000; stroke-width: 0.5"/>
      </g>
     </g>
    </g>
    <g id="xtick_9">
     <g id="line2d_17">
      <g>
       <use xlink:href="#m9fa90f180b" x="65.500812" y="152.589249" style="stroke: #000000; stroke-width: 0.5"/>
      </g>
     </g>
     <g id="line2d_18">
      <g>
       <use xlink:href="#me5bba9ace3" x="65.500812" y="7.059249" style="stroke: #000000; stroke-width: 0.5"/>
      </g>
     </g>
    </g>
    <g id="xtick_10">
     <g id="line2d_19">
      <g>
       <use xlink:href="#m9fa90f180b" x="72.89854" y="152.589249" style="stroke: #000000; stroke-width: 0.5"/>
      </g>
     </g>
     <g id="line2d_20">
      <g>
       <use xlink:href="#me5bba9ace3" x="72.89854" y="7.059249" style="stroke: #000000; stroke-width: 0.5"/>
      </g>
     </g>
    </g>
    <g id="xtick_11">
     <g id="line2d_21">
      <g>
       <use xlink:href="#m9fa90f180b" x="80.296267" y="152.589249" style="stroke: #000000; stroke-width: 0.5"/>
      </g>
     </g>
     <g id="line2d_22">
      <g>
       <use xlink:href="#me5bba9ace3" x="80.296267" y="7.059249" style="stroke: #000000; stroke-width: 0.5"/>
      </g>
     </g>
    </g>
    <g id="xtick_12">
     <g id="line2d_23">
      <g>
       <use xlink:href="#m9fa90f180b" x="87.693994" y="152.589249" style="stroke: #000000; stroke-width: 0.5"/>
      </g>
     </g>
     <g id="line2d_24">
      <g>
       <use xlink:href="#me5bba9ace3" x="87.693994" y="7.059249" style="stroke: #000000; stroke-width: 0.5"/>
      </g>
     </g>
    </g>
    <g id="xtick_13">
     <g id="line2d_25">
      <g>
       <use xlink:href="#m9fa90f180b" x="102.489449" y="152.589249" style="stroke: #000000; stroke-width: 0.5"/>
      </g>
     </g>
     <g id="line2d_26">
      <g>
       <use xlink:href="#me5bba9ace3" x="102.489449" y="7.059249" style="stroke: #000000; stroke-width: 0.5"/>
      </g>
     </g>
    </g>
    <g id="xtick_14">
     <g id="line2d_27">
      <g>
       <use xlink:href="#m9fa90f180b" x="109.887176" y="152.589249" style="stroke: #000000; stroke-width: 0.5"/>
      </g>
     </g>
     <g id="line2d_28">
      <g>
       <use xlink:href="#me5bba9ace3" x="109.887176" y="7.059249" style="stroke: #000000; stroke-width: 0.5"/>
      </g>
     </g>
    </g>
    <g id="xtick_15">
     <g id="line2d_29">
      <g>
       <use xlink:href="#m9fa90f180b" x="117.284903" y="152.589249" style="stroke: #000000; stroke-width: 0.5"/>
      </g>
     </g>
     <g id="line2d_30">
      <g>
       <use xlink:href="#me5bba9ace3" x="117.284903" y="7.059249" style="stroke: #000000; stroke-width: 0.5"/>
      </g>
     </g>
    </g>
    <g id="xtick_16">
     <g id="line2d_31">
      <g>
       <use xlink:href="#m9fa90f180b" x="124.682631" y="152.589249" style="stroke: #000000; stroke-width: 0.5"/>
      </g>
     </g>
     <g id="line2d_32">
      <g>
       <use xlink:href="#me5bba9ace3" x="124.682631" y="7.059249" style="stroke: #000000; stroke-width: 0.5"/>
      </g>
     </g>
    </g>
    <g id="xtick_17">
     <g id="line2d_33">
      <g>
       <use xlink:href="#m9fa90f180b" x="139.478085" y="152.589249" style="stroke: #000000; stroke-width: 0.5"/>
      </g>
     </g>
     <g id="line2d_34">
      <g>
       <use xlink:href="#me5bba9ace3" x="139.478085" y="7.059249" style="stroke: #000000; stroke-width: 0.5"/>
      </g>
     </g>
    </g>
    <g id="xtick_18">
     <g id="line2d_35">
      <g>
       <use xlink:href="#m9fa90f180b" x="146.875812" y="152.589249" style="stroke: #000000; stroke-width: 0.5"/>
      </g>
     </g>
     <g id="line2d_36">
      <g>
       <use xlink:href="#me5bba9ace3" x="146.875812" y="7.059249" style="stroke: #000000; stroke-width: 0.5"/>
      </g>
     </g>
    </g>
    <g id="xtick_19">
     <g id="line2d_37">
      <g>
       <use xlink:href="#m9fa90f180b" x="154.27354" y="152.589249" style="stroke: #000000; stroke-width: 0.5"/>
      </g>
     </g>
     <g id="line2d_38">
      <g>
       <use xlink:href="#me5bba9ace3" x="154.27354" y="7.059249" style="stroke: #000000; stroke-width: 0.5"/>
      </g>
     </g>
    </g>
    <g id="xtick_20">
     <g id="line2d_39">
      <g>
       <use xlink:href="#m9fa90f180b" x="161.671267" y="152.589249" style="stroke: #000000; stroke-width: 0.5"/>
      </g>
     </g>
     <g id="line2d_40">
      <g>
       <use xlink:href="#me5bba9ace3" x="161.671267" y="7.059249" style="stroke: #000000; stroke-width: 0.5"/>
      </g>
     </g>
    </g>
    <g id="xtick_21">
     <g id="line2d_41">
      <g>
       <use xlink:href="#m9fa90f180b" x="176.466721" y="152.589249" style="stroke: #000000; stroke-width: 0.5"/>
      </g>
     </g>
     <g id="line2d_42">
      <g>
       <use xlink:href="#me5bba9ace3" x="176.466721" y="7.059249" style="stroke: #000000; stroke-width: 0.5"/>
      </g>
     </g>
    </g>
    <g id="xtick_22">
     <g id="line2d_43">
      <g>
       <use xlink:href="#m9fa90f180b" x="183.864449" y="152.589249" style="stroke: #000000; stroke-width: 0.5"/>
      </g>
     </g>
     <g id="line2d_44">
      <g>
       <use xlink:href="#me5bba9ace3" x="183.864449" y="7.059249" style="stroke: #000000; stroke-width: 0.5"/>
      </g>
     </g>
    </g>
    <g id="xtick_23">
     <g id="line2d_45">
      <g>
       <use xlink:href="#m9fa90f180b" x="191.262176" y="152.589249" style="stroke: #000000; stroke-width: 0.5"/>
      </g>
     </g>
     <g id="line2d_46">
      <g>
       <use xlink:href="#me5bba9ace3" x="191.262176" y="7.059249" style="stroke: #000000; stroke-width: 0.5"/>
      </g>
     </g>
    </g>
    <g id="xtick_24">
     <g id="line2d_47">
      <g>
       <use xlink:href="#m9fa90f180b" x="198.659903" y="152.589249" style="stroke: #000000; stroke-width: 0.5"/>
      </g>
     </g>
     <g id="line2d_48">
      <g>
       <use xlink:href="#me5bba9ace3" x="198.659903" y="7.059249" style="stroke: #000000; stroke-width: 0.5"/>
      </g>
     </g>
    </g>
    <g id="xtick_25">
     <g id="line2d_49">
      <g>
       <use xlink:href="#m9fa90f180b" x="213.455358" y="152.589249" style="stroke: #000000; stroke-width: 0.5"/>
      </g>
     </g>
     <g id="line2d_50">
      <g>
       <use xlink:href="#me5bba9ace3" x="213.455358" y="7.059249" style="stroke: #000000; stroke-width: 0.5"/>
      </g>
     </g>
    </g>
    <g id="xtick_26">
     <g id="line2d_51">
      <g>
       <use xlink:href="#m9fa90f180b" x="220.853085" y="152.589249" style="stroke: #000000; stroke-width: 0.5"/>
      </g>
     </g>
     <g id="line2d_52">
      <g>
       <use xlink:href="#me5bba9ace3" x="220.853085" y="7.059249" style="stroke: #000000; stroke-width: 0.5"/>
      </g>
     </g>
    </g>
    <g id="xtick_27">
     <g id="line2d_53">
      <g>
       <use xlink:href="#m9fa90f180b" x="228.250812" y="152.589249" style="stroke: #000000; stroke-width: 0.5"/>
      </g>
     </g>
     <g id="line2d_54">
      <g>
       <use xlink:href="#me5bba9ace3" x="228.250812" y="7.059249" style="stroke: #000000; stroke-width: 0.5"/>
      </g>
     </g>
    </g>
    <g id="text_6">
     <!-- $\omega/\omega_{pl}$ -->
     <g transform="translate(119.896479 176.416906) scale(0.1 -0.1)">
      <defs>
       <path id="CMMI12-21" d="M 3802 2395 
C 3802 2580 3750 2816 3526 2816 
C 3398 2816 3251 2657 3251 2529 
C 3251 2472 3277 2434 3328 2376 
C 3424 2268 3546 2096 3546 1797 
C 3546 1567 3405 1204 3302 1007 
C 3123 656 2829 357 2496 357 
C 2093 357 1939 615 1869 975 
C 1939 1143 2086 1560 2086 1728 
C 2086 1798 2061 1856 1978 1856 
C 1933 1856 1882 1831 1850 1779 
C 1760 1638 1677 1129 1683 994 
C 1562 756 1216 357 806 357 
C 378 357 262 733 262 1096 
C 262 1758 678 2338 794 2497 
C 858 2593 902 2657 902 2669 
C 902 2714 877 2784 819 2784 
C 717 2784 685 2701 634 2625 
C 307 2121 77 1414 77 803 
C 77 408 224 -64 704 -64 
C 1235 -64 1568 391 1702 634 
C 1754 275 1946 -64 2413 -64 
C 2899 -64 3206 363 3437 879 
C 3603 1249 3802 2045 3802 2395 
z
" transform="scale(0.015625)"/>
       <path id="CMMI12-3d" d="M 2746 4562 
C 2746 4569 2784 4666 2784 4678 
C 2784 4755 2720 4800 2669 4800 
C 2637 4800 2579 4800 2528 4659 
L 384 -1363 
C 384 -1370 346 -1465 346 -1478 
C 346 -1555 410 -1600 461 -1600 
C 499 -1600 557 -1593 602 -1459 
L 2746 4562 
z
" transform="scale(0.015625)"/>
       <path id="CMMI12-70" d="M 275 -789 
C 230 -980 205 -1031 -58 -1031 
C -134 -1031 -198 -1031 -198 -1152 
C -198 -1165 -192 -1216 -122 -1216 
C -38 -1216 51 -1216 134 -1216 
L 410 -1216 
C 544 -1216 870 -1216 1005 -1216 
C 1043 -1216 1120 -1216 1120 -1101 
C 1120 -1031 1075 -1031 966 -1031 
C 672 -1031 653 -987 653 -937 
C 653 -861 941 219 979 364 
C 1050 185 1222 -64 1555 -64 
C 2278 -64 3059 875 3059 1814 
C 3059 2401 2726 2816 2246 2816 
C 1837 2816 1491 2420 1421 2331 
C 1370 2650 1120 2816 864 2816 
C 678 2816 531 2727 410 2484 
C 294 2254 205 1865 205 1839 
C 205 1814 230 1782 275 1782 
C 326 1782 333 1788 371 1935 
C 467 2312 589 2689 845 2689 
C 992 2689 1043 2587 1043 2397 
C 1043 2245 1024 2181 998 2067 
L 275 -789 
z
M 1382 1993 
C 1427 2171 1606 2357 1709 2446 
C 1779 2510 1990 2689 2234 2689 
C 2515 2689 2643 2408 2643 2076 
C 2643 1769 2464 1047 2304 715 
C 2144 370 1850 64 1555 64 
C 1120 64 1050 613 1050 639 
C 1050 658 1062 709 1069 741 
L 1382 1993 
z
" transform="scale(0.015625)"/>
       <path id="CMMI12-6c" d="M 1626 4257 
C 1632 4282 1645 4320 1645 4352 
C 1645 4416 1581 4416 1568 4416 
C 1562 4416 1331 4393 1216 4377 
C 1107 4377 1011 4358 896 4358 
C 742 4345 698 4339 698 4224 
C 698 4160 762 4160 826 4160 
C 1152 4160 1152 4102 1152 4039 
C 1152 4014 1152 4001 1120 3887 
L 326 731 
C 307 661 294 610 294 509 
C 294 191 531 -64 858 -64 
C 1069 -64 1210 76 1312 274 
C 1421 483 1510 884 1510 909 
C 1510 941 1485 967 1446 967 
C 1389 967 1382 935 1357 840 
C 1242 401 1126 64 870 64 
C 678 64 678 267 678 357 
C 678 382 678 515 723 694 
L 1626 4257 
z
" transform="scale(0.015625)"/>
      </defs>
      <use xlink:href="#CMMI12-21" transform="scale(0.996264)"/>
      <use xlink:href="#CMMI12-3d" transform="translate(64.318346 0) scale(0.996264)"/>
      <use xlink:href="#CMMI12-21" transform="translate(113.093265 0) scale(0.996264)"/>
      <use xlink:href="#CMMI12-70" transform="translate(173.837018 -14.943915) scale(0.697382)"/>
      <use xlink:href="#CMMI12-6c" transform="translate(208.108524 -14.943915) scale(0.697382)"/>
     </g>
    </g>
   </g>
   <g id="matplotlib.axis_2">
    <g id="ytick_1">
     <g id="line2d_55">
      <defs>
       <path id="m8e4c0b5844" d="M 0 0 
L 3 0 
" style="stroke: #000000; stroke-width: 0.5"/>
      </defs>
      <g>
       <use xlink:href="#m8e4c0b5844" x="34.430358" y="152.105761" style="stroke: #000000; stroke-width: 0.5"/>
      </g>
     </g>
     <g id="line2d_56">
      <defs>
       <path id="mc58460e1f2" d="M 0 0 
L -3 0 
" style="stroke: #000000; stroke-width: 0.5"/>
      </defs>
      <g>
       <use xlink:href="#mc58460e1f2" x="229.730358" y="152.105761" style="stroke: #000000; stroke-width: 0.5"/>
      </g>
     </g>
     <g id="text_7">
      <!-- $\mathdefault{0.0}$ -->
      <g transform="translate(18.200279 155.56501) scale(0.1 -0.1)">
       <use xlink:href="#CMR17-30" transform="scale(0.996264)"/>
       <use xlink:href="#CMMI12-3a" transform="translate(45.690477 0) scale(0.996264)"/>
       <use xlink:href="#CMR17-30" transform="translate(72.787654 0) scale(0.996264)"/>
      </g>
     </g>
    </g>
    <g id="ytick_2">
     <g id="line2d_57">
      <g>
       <use xlink:href="#m8e4c0b5844" x="34.430358" y="127.931342" style="stroke: #000000; stroke-width: 0.5"/>
      </g>
     </g>
     <g id="line2d_58">
      <g>
       <use xlink:href="#mc58460e1f2" x="229.730358" y="127.931342" style="stroke: #000000; stroke-width: 0.5"/>
      </g>
     </g>
     <g id="text_8">
      <!-- $\mathdefault{0.5}$ -->
      <g transform="translate(18.200279 131.390591) scale(0.1 -0.1)">
       <use xlink:href="#CMR17-30" transform="scale(0.996264)"/>
       <use xlink:href="#CMMI12-3a" transform="translate(45.690477 0) scale(0.996264)"/>
       <use xlink:href="#CMR17-35" transform="translate(72.787654 0) scale(0.996264)"/>
      </g>
     </g>
    </g>
    <g id="ytick_3">
     <g id="line2d_59">
      <g>
       <use xlink:href="#m8e4c0b5844" x="34.430358" y="103.756924" style="stroke: #000000; stroke-width: 0.5"/>
      </g>
     </g>
     <g id="line2d_60">
      <g>
       <use xlink:href="#mc58460e1f2" x="229.730358" y="103.756924" style="stroke: #000000; stroke-width: 0.5"/>
      </g>
     </g>
     <g id="text_9">
      <!-- $\mathdefault{1.0}$ -->
      <g transform="translate(18.200279 107.216173) scale(0.1 -0.1)">
       <defs>
        <path id="CMR17-31" d="M 1702 4058 
C 1702 4192 1696 4192 1606 4192 
C 1357 3916 979 3827 621 3827 
C 602 3827 570 3827 563 3808 
C 557 3795 557 3782 557 3648 
C 755 3648 1088 3686 1344 3839 
L 1344 461 
C 1344 236 1331 160 781 160 
L 589 160 
L 589 0 
C 896 0 1216 0 1523 0 
C 1830 0 2150 0 2458 0 
L 2458 160 
L 2266 160 
C 1715 160 1702 230 1702 458 
L 1702 4058 
z
" transform="scale(0.015625)"/>
       </defs>
       <use xlink:href="#CMR17-31" transform="scale(0.996264)"/>
       <use xlink:href="#CMMI12-3a" transform="translate(45.690477 0) scale(0.996264)"/>
       <use xlink:href="#CMR17-30" transform="translate(72.787654 0) scale(0.996264)"/>
      </g>
     </g>
    </g>
    <g id="ytick_4">
     <g id="line2d_61">
      <g>
       <use xlink:href="#m8e4c0b5844" x="34.430358" y="79.582505" style="stroke: #000000; stroke-width: 0.5"/>
      </g>
     </g>
     <g id="line2d_62">
      <g>
       <use xlink:href="#mc58460e1f2" x="229.730358" y="79.582505" style="stroke: #000000; stroke-width: 0.5"/>
      </g>
     </g>
     <g id="text_10">
      <!-- $\mathdefault{1.5}$ -->
      <g transform="translate(18.200279 83.041754) scale(0.1 -0.1)">
       <use xlink:href="#CMR17-31" transform="scale(0.996264)"/>
       <use xlink:href="#CMMI12-3a" transform="translate(45.690477 0) scale(0.996264)"/>
       <use xlink:href="#CMR17-35" transform="translate(72.787654 0) scale(0.996264)"/>
      </g>
     </g>
    </g>
    <g id="ytick_5">
     <g id="line2d_63">
      <g>
       <use xlink:href="#m8e4c0b5844" x="34.430358" y="55.408086" style="stroke: #000000; stroke-width: 0.5"/>
      </g>
     </g>
     <g id="line2d_64">
      <g>
       <use xlink:href="#mc58460e1f2" x="229.730358" y="55.408086" style="stroke: #000000; stroke-width: 0.5"/>
      </g>
     </g>
     <g id="text_11">
      <!-- $\mathdefault{2.0}$ -->
      <g transform="translate(18.200279 58.867336) scale(0.1 -0.1)">
       <use xlink:href="#CMR17-32" transform="scale(0.996264)"/>
       <use xlink:href="#CMMI12-3a" transform="translate(45.690477 0) scale(0.996264)"/>
       <use xlink:href="#CMR17-30" transform="translate(72.787654 0) scale(0.996264)"/>
      </g>
     </g>
    </g>
    <g id="ytick_6">
     <g id="line2d_65">
      <g>
       <use xlink:href="#m8e4c0b5844" x="34.430358" y="31.233668" style="stroke: #000000; stroke-width: 0.5"/>
      </g>
     </g>
     <g id="line2d_66">
      <g>
       <use xlink:href="#mc58460e1f2" x="229.730358" y="31.233668" style="stroke: #000000; stroke-width: 0.5"/>
      </g>
     </g>
     <g id="text_12">
      <!-- $\mathdefault{2.5}$ -->
      <g transform="translate(18.200279 34.692917) scale(0.1 -0.1)">
       <use xlink:href="#CMR17-32" transform="scale(0.996264)"/>
       <use xlink:href="#CMMI12-3a" transform="translate(45.690477 0) scale(0.996264)"/>
       <use xlink:href="#CMR17-35" transform="translate(72.787654 0) scale(0.996264)"/>
      </g>
     </g>
    </g>
    <g id="ytick_7">
     <g id="line2d_67">
      <g>
       <use xlink:href="#m8e4c0b5844" x="34.430358" y="7.059249" style="stroke: #000000; stroke-width: 0.5"/>
      </g>
     </g>
     <g id="line2d_68">
      <g>
       <use xlink:href="#mc58460e1f2" x="229.730358" y="7.059249" style="stroke: #000000; stroke-width: 0.5"/>
      </g>
     </g>
     <g id="text_13">
      <!-- $\mathdefault{3.0}$ -->
      <g transform="translate(18.200279 10.518498) scale(0.1 -0.1)">
       <defs>
        <path id="CMR17-33" d="M 1414 2157 
C 1984 2157 2234 1662 2234 1090 
C 2234 320 1824 25 1453 25 
C 1114 25 563 194 390 693 
C 422 680 454 680 486 680 
C 640 680 755 782 755 948 
C 755 1133 614 1216 486 1216 
C 378 1216 211 1165 211 926 
C 211 335 787 -128 1466 -128 
C 2176 -128 2720 430 2720 1085 
C 2720 1707 2208 2157 1600 2227 
C 2086 2328 2554 2756 2554 3329 
C 2554 3820 2048 4179 1472 4179 
C 890 4179 378 3829 378 3329 
C 378 3110 544 3072 627 3072 
C 762 3072 877 3155 877 3321 
C 877 3486 762 3569 627 3569 
C 602 3569 570 3569 544 3557 
C 730 3959 1235 4032 1459 4032 
C 1683 4032 2106 3925 2106 3320 
C 2106 3143 2080 2828 1862 2550 
C 1670 2304 1453 2304 1242 2284 
C 1210 2284 1062 2269 1037 2269 
C 992 2263 966 2257 966 2208 
C 966 2163 973 2157 1101 2157 
L 1414 2157 
z
" transform="scale(0.015625)"/>
       </defs>
       <use xlink:href="#CMR17-33" transform="scale(0.996264)"/>
       <use xlink:href="#CMMI12-3a" transform="translate(45.690477 0) scale(0.996264)"/>
       <use xlink:href="#CMR17-30" transform="translate(72.787654 0) scale(0.996264)"/>
      </g>
     </g>
    </g>
    <g id="ytick_8">
     <g id="line2d_69">
      <defs>
       <path id="mceb0722bd9" d="M 0 0 
L 1.5 0 
" style="stroke: #000000; stroke-width: 0.5"/>
      </defs>
      <g>
       <use xlink:href="#mceb0722bd9" x="34.430358" y="147.270877" style="stroke: #000000; stroke-width: 0.5"/>
      </g>
     </g>
     <g id="line2d_70">
      <defs>
       <path id="m50871c6627" d="M 0 0 
L -1.5 0 
" style="stroke: #000000; stroke-width: 0.5"/>
      </defs>
      <g>
       <use xlink:href="#m50871c6627" x="229.730358" y="147.270877" style="stroke: #000000; stroke-width: 0.5"/>
      </g>
     </g>
    </g>
    <g id="ytick_9">
     <g id="line2d_71">
      <g>
       <use xlink:href="#mceb0722bd9" x="34.430358" y="142.435993" style="stroke: #000000; stroke-width: 0.5"/>
      </g>
     </g>
     <g id="line2d_72">
      <g>
       <use xlink:href="#m50871c6627" x="229.730358" y="142.435993" style="stroke: #000000; stroke-width: 0.5"/>
      </g>
     </g>
    </g>
    <g id="ytick_10">
     <g id="line2d_73">
      <g>
       <use xlink:href="#mceb0722bd9" x="34.430358" y="137.60111" style="stroke: #000000; stroke-width: 0.5"/>
      </g>
     </g>
     <g id="line2d_74">
      <g>
       <use xlink:href="#m50871c6627" x="229.730358" y="137.60111" style="stroke: #000000; stroke-width: 0.5"/>
      </g>
     </g>
    </g>
    <g id="ytick_11">
     <g id="line2d_75">
      <g>
       <use xlink:href="#mceb0722bd9" x="34.430358" y="132.766226" style="stroke: #000000; stroke-width: 0.5"/>
      </g>
     </g>
     <g id="line2d_76">
      <g>
       <use xlink:href="#m50871c6627" x="229.730358" y="132.766226" style="stroke: #000000; stroke-width: 0.5"/>
      </g>
     </g>
    </g>
    <g id="ytick_12">
     <g id="line2d_77">
      <g>
       <use xlink:href="#mceb0722bd9" x="34.430358" y="123.096458" style="stroke: #000000; stroke-width: 0.5"/>
      </g>
     </g>
     <g id="line2d_78">
      <g>
       <use xlink:href="#m50871c6627" x="229.730358" y="123.096458" style="stroke: #000000; stroke-width: 0.5"/>
      </g>
     </g>
    </g>
    <g id="ytick_13">
     <g id="line2d_79">
      <g>
       <use xlink:href="#mceb0722bd9" x="34.430358" y="118.261575" style="stroke: #000000; stroke-width: 0.5"/>
      </g>
     </g>
     <g id="line2d_80">
      <g>
       <use xlink:href="#m50871c6627" x="229.730358" y="118.261575" style="stroke: #000000; stroke-width: 0.5"/>
      </g>
     </g>
    </g>
    <g id="ytick_14">
     <g id="line2d_81">
      <g>
       <use xlink:href="#mceb0722bd9" x="34.430358" y="113.426691" style="stroke: #000000; stroke-width: 0.5"/>
      </g>
     </g>
     <g id="line2d_82">
      <g>
       <use xlink:href="#m50871c6627" x="229.730358" y="113.426691" style="stroke: #000000; stroke-width: 0.5"/>
      </g>
     </g>
    </g>
    <g id="ytick_15">
     <g id="line2d_83">
      <g>
       <use xlink:href="#mceb0722bd9" x="34.430358" y="108.591807" style="stroke: #000000; stroke-width: 0.5"/>
      </g>
     </g>
     <g id="line2d_84">
      <g>
       <use xlink:href="#m50871c6627" x="229.730358" y="108.591807" style="stroke: #000000; stroke-width: 0.5"/>
      </g>
     </g>
    </g>
    <g id="ytick_16">
     <g id="line2d_85">
      <g>
       <use xlink:href="#mceb0722bd9" x="34.430358" y="98.92204" style="stroke: #000000; stroke-width: 0.5"/>
      </g>
     </g>
     <g id="line2d_86">
      <g>
       <use xlink:href="#m50871c6627" x="229.730358" y="98.92204" style="stroke: #000000; stroke-width: 0.5"/>
      </g>
     </g>
    </g>
    <g id="ytick_17">
     <g id="line2d_87">
      <g>
       <use xlink:href="#mceb0722bd9" x="34.430358" y="94.087156" style="stroke: #000000; stroke-width: 0.5"/>
      </g>
     </g>
     <g id="line2d_88">
      <g>
       <use xlink:href="#m50871c6627" x="229.730358" y="94.087156" style="stroke: #000000; stroke-width: 0.5"/>
      </g>
     </g>
    </g>
    <g id="ytick_18">
     <g id="line2d_89">
      <g>
       <use xlink:href="#mceb0722bd9" x="34.430358" y="89.252272" style="stroke: #000000; stroke-width: 0.5"/>
      </g>
     </g>
     <g id="line2d_90">
      <g>
       <use xlink:href="#m50871c6627" x="229.730358" y="89.252272" style="stroke: #000000; stroke-width: 0.5"/>
      </g>
     </g>
    </g>
    <g id="ytick_19">
     <g id="line2d_91">
      <g>
       <use xlink:href="#mceb0722bd9" x="34.430358" y="84.417389" style="stroke: #000000; stroke-width: 0.5"/>
      </g>
     </g>
     <g id="line2d_92">
      <g>
       <use xlink:href="#m50871c6627" x="229.730358" y="84.417389" style="stroke: #000000; stroke-width: 0.5"/>
      </g>
     </g>
    </g>
    <g id="ytick_20">
     <g id="line2d_93">
      <g>
       <use xlink:href="#mceb0722bd9" x="34.430358" y="74.747621" style="stroke: #000000; stroke-width: 0.5"/>
      </g>
     </g>
     <g id="line2d_94">
      <g>
       <use xlink:href="#m50871c6627" x="229.730358" y="74.747621" style="stroke: #000000; stroke-width: 0.5"/>
      </g>
     </g>
    </g>
    <g id="ytick_21">
     <g id="line2d_95">
      <g>
       <use xlink:href="#mceb0722bd9" x="34.430358" y="69.912738" style="stroke: #000000; stroke-width: 0.5"/>
      </g>
     </g>
     <g id="line2d_96">
      <g>
       <use xlink:href="#m50871c6627" x="229.730358" y="69.912738" style="stroke: #000000; stroke-width: 0.5"/>
      </g>
     </g>
    </g>
    <g id="ytick_22">
     <g id="line2d_97">
      <g>
       <use xlink:href="#mceb0722bd9" x="34.430358" y="65.077854" style="stroke: #000000; stroke-width: 0.5"/>
      </g>
     </g>
     <g id="line2d_98">
      <g>
       <use xlink:href="#m50871c6627" x="229.730358" y="65.077854" style="stroke: #000000; stroke-width: 0.5"/>
      </g>
     </g>
    </g>
    <g id="ytick_23">
     <g id="line2d_99">
      <g>
       <use xlink:href="#mceb0722bd9" x="34.430358" y="60.24297" style="stroke: #000000; stroke-width: 0.5"/>
      </g>
     </g>
     <g id="line2d_100">
      <g>
       <use xlink:href="#m50871c6627" x="229.730358" y="60.24297" style="stroke: #000000; stroke-width: 0.5"/>
      </g>
     </g>
    </g>
    <g id="ytick_24">
     <g id="line2d_101">
      <g>
       <use xlink:href="#mceb0722bd9" x="34.430358" y="50.573203" style="stroke: #000000; stroke-width: 0.5"/>
      </g>
     </g>
     <g id="line2d_102">
      <g>
       <use xlink:href="#m50871c6627" x="229.730358" y="50.573203" style="stroke: #000000; stroke-width: 0.5"/>
      </g>
     </g>
    </g>
    <g id="ytick_25">
     <g id="line2d_103">
      <g>
       <use xlink:href="#mceb0722bd9" x="34.430358" y="45.738319" style="stroke: #000000; stroke-width: 0.5"/>
      </g>
     </g>
     <g id="line2d_104">
      <g>
       <use xlink:href="#m50871c6627" x="229.730358" y="45.738319" style="stroke: #000000; stroke-width: 0.5"/>
      </g>
     </g>
    </g>
    <g id="ytick_26">
     <g id="line2d_105">
      <g>
       <use xlink:href="#mceb0722bd9" x="34.430358" y="40.903435" style="stroke: #000000; stroke-width: 0.5"/>
      </g>
     </g>
     <g id="line2d_106">
      <g>
       <use xlink:href="#m50871c6627" x="229.730358" y="40.903435" style="stroke: #000000; stroke-width: 0.5"/>
      </g>
     </g>
    </g>
    <g id="ytick_27">
     <g id="line2d_107">
      <g>
       <use xlink:href="#mceb0722bd9" x="34.430358" y="36.068552" style="stroke: #000000; stroke-width: 0.5"/>
      </g>
     </g>
     <g id="line2d_108">
      <g>
       <use xlink:href="#m50871c6627" x="229.730358" y="36.068552" style="stroke: #000000; stroke-width: 0.5"/>
      </g>
     </g>
    </g>
    <g id="ytick_28">
     <g id="line2d_109">
      <g>
       <use xlink:href="#mceb0722bd9" x="34.430358" y="26.398784" style="stroke: #000000; stroke-width: 0.5"/>
      </g>
     </g>
     <g id="line2d_110">
      <g>
       <use xlink:href="#m50871c6627" x="229.730358" y="26.398784" style="stroke: #000000; stroke-width: 0.5"/>
      </g>
     </g>
    </g>
    <g id="ytick_29">
     <g id="line2d_111">
      <g>
       <use xlink:href="#mceb0722bd9" x="34.430358" y="21.5639" style="stroke: #000000; stroke-width: 0.5"/>
      </g>
     </g>
     <g id="line2d_112">
      <g>
       <use xlink:href="#m50871c6627" x="229.730358" y="21.5639" style="stroke: #000000; stroke-width: 0.5"/>
      </g>
     </g>
    </g>
    <g id="ytick_30">
     <g id="line2d_113">
      <g>
       <use xlink:href="#mceb0722bd9" x="34.430358" y="16.729017" style="stroke: #000000; stroke-width: 0.5"/>
      </g>
     </g>
     <g id="line2d_114">
      <g>
       <use xlink:href="#m50871c6627" x="229.730358" y="16.729017" style="stroke: #000000; stroke-width: 0.5"/>
      </g>
     </g>
    </g>
    <g id="ytick_31">
     <g id="line2d_115">
      <g>
       <use xlink:href="#mceb0722bd9" x="34.430358" y="11.894133" style="stroke: #000000; stroke-width: 0.5"/>
      </g>
     </g>
     <g id="line2d_116">
      <g>
       <use xlink:href="#m50871c6627" x="229.730358" y="11.894133" style="stroke: #000000; stroke-width: 0.5"/>
      </g>
     </g>
    </g>
    <g id="text_14">
     <!-- $S^0_{\text{ee}}$ [Ryd$^{-1}$] -->
     <g transform="translate(11.709619 105.509242) rotate(-90) scale(0.1 -0.1)">
      <defs>
       <path id="CMMI12-53" d="M 4064 4423 
C 4064 4480 4019 4480 4006 4480 
C 3981 4480 3974 4474 3898 4378 
C 3859 4333 3597 4001 3590 3995 
C 3379 4410 2957 4480 2688 4480 
C 1875 4480 1139 3743 1139 3025 
C 1139 2549 1427 2269 1741 2161 
C 1811 2135 2189 2033 2381 1989 
C 2707 1900 2790 1875 2925 1735 
C 2950 1703 3078 1557 3078 1258 
C 3078 667 2528 57 1888 57 
C 1363 57 781 280 781 991 
C 781 1112 806 1265 826 1328 
C 826 1348 832 1378 832 1391 
C 832 1417 819 1449 768 1449 
C 710 1449 704 1436 678 1328 
L 352 24 
C 352 18 326 -64 326 -71 
C 326 -128 378 -128 390 -128 
C 416 -128 422 -122 499 -26 
L 794 356 
C 947 126 1280 -128 1875 -128 
C 2701 -128 3456 666 3456 1460 
C 3456 1728 3392 1963 3149 2197 
C 3014 2331 2899 2363 2310 2516 
C 1882 2630 1824 2649 1709 2751 
C 1600 2858 1517 3011 1517 3227 
C 1517 3761 2061 4308 2669 4308 
C 3296 4308 3590 3926 3590 3323 
C 3590 3158 3558 2986 3558 2961 
C 3558 2903 3610 2903 3629 2903 
C 3686 2903 3693 2922 3718 3024 
L 4064 4423 
z
" transform="scale(0.015625)"/>
       <path id="CMR17-65" d="M 2438 1472 
C 2464 1498 2464 1511 2464 1576 
C 2464 2238 2118 2816 1389 2816 
C 710 2816 173 2169 173 1383 
C 173 551 781 -64 1459 -64 
C 2176 -64 2458 607 2458 740 
C 2458 784 2419 784 2406 784 
C 2362 784 2355 771 2330 696 
C 2189 265 1837 51 1504 51 
C 1229 51 954 203 781 480 
C 582 803 582 1176 582 1472 
L 2438 1472 
z
M 589 1568 
C 634 2505 1126 2714 1382 2714 
C 1818 2714 2112 2297 2118 1568 
L 589 1568 
z
" transform="scale(0.015625)"/>
       <path id="CMR17-5b" d="M 1504 -1600 
L 1504 -1377 
L 902 -1377 
L 902 4544 
L 1504 4544 
L 1504 4767 
L 678 4767 
L 678 -1600 
L 1504 -1600 
z
" transform="scale(0.015625)"/>
       <path id="CMR17-52" d="M 2509 2146 
C 3117 2268 3629 2676 3629 3186 
C 3629 3785 2950 4326 2054 4326 
L 333 4326 
L 333 4160 
C 774 4160 845 4160 845 3873 
L 845 415 
C 845 128 774 128 333 128 
L 333 -26 
C 518 -26 851 -26 1050 -26 
C 1248 -26 1581 -26 1766 -26 
L 1766 128 
C 1325 128 1254 128 1254 417 
L 1254 2112 
L 2003 2112 
C 2368 2112 2573 1964 2662 1881 
C 2918 1632 2918 1459 2918 1024 
C 2918 595 2918 377 3110 160 
C 3354 -102 3680 -128 3821 -128 
C 4294 -128 4365 396 4365 503 
C 4365 540 4365 585 4307 585 
C 4256 585 4250 547 4250 522 
C 4218 112 4032 -26 3834 -26 
C 3482 -26 3443 375 3405 764 
C 3386 898 3373 993 3360 1133 
C 3322 1452 3270 1917 2509 2146 
z
M 1984 2214 
L 1254 2214 
L 1254 3913 
C 1254 4129 1267 4160 1523 4160 
L 1990 4160 
C 2522 4160 3142 3977 3142 3190 
C 3142 2372 2464 2214 1984 2214 
z
" transform="scale(0.015625)"/>
       <path id="CMR17-79" d="M 2496 2197 
C 2656 2586 2944 2586 3034 2586 
L 3034 2752 
C 2912 2752 2752 2752 2630 2752 
C 2496 2752 2285 2752 2157 2758 
L 2157 2592 
C 2400 2573 2406 2394 2406 2343 
C 2406 2280 2394 2248 2362 2171 
L 1664 449 
L 902 2306 
C 870 2382 870 2426 870 2433 
C 870 2573 1018 2586 1171 2586 
L 1171 2758 
C 1018 2752 742 2752 582 2752 
C 410 2752 205 2752 64 2758 
L 64 2586 
C 410 2586 448 2554 531 2350 
L 1485 15 
C 1197 -738 1030 -1178 627 -1178 
C 557 -1178 397 -1159 282 -1044 
C 429 -1031 493 -942 493 -833 
C 493 -725 416 -629 288 -629 
C 147 -629 77 -725 77 -840 
C 77 -1095 339 -1280 627 -1280 
C 998 -1280 1229 -922 1357 -604 
L 2496 2197 
z
" transform="scale(0.015625)"/>
       <path id="CMR17-64" d="M 1869 4326 
L 1869 4160 
C 2246 4160 2304 4122 2304 3820 
L 2304 2345 
C 2278 2377 2016 2790 1498 2790 
C 845 2790 211 2208 211 1364 
C 211 525 806 -64 1434 -64 
C 1978 -64 2259 337 2291 380 
L 2291 -63 
L 3066 -63 
L 3066 128 
C 2688 128 2630 166 2630 473 
L 2630 4396 
L 1869 4326 
z
M 2291 755 
C 2291 563 2176 390 2029 262 
C 1811 70 1594 38 1472 38 
C 1286 38 621 134 621 1356 
C 621 2612 1363 2688 1530 2688 
C 1824 2688 2061 2522 2208 2291 
C 2291 2157 2291 2138 2291 2023 
L 2291 755 
z
" transform="scale(0.015625)"/>
       <path id="CMR17-5d" d="M 915 4767 
L 90 4767 
L 90 4544 
L 691 4544 
L 691 -1377 
L 90 -1377 
L 90 -1600 
L 915 -1600 
L 915 4767 
z
" transform="scale(0.015625)"/>
      </defs>
      <use xlink:href="#CMMI12-53" transform="scale(0.996264)"/>
      <use xlink:href="#CMR17-30" transform="translate(65.794439 36.153639) scale(0.697382)"/>
      <use xlink:href="#CMR17-65" transform="translate(59.994488 -24.62935) scale(0.697382)"/>
      <use xlink:href="#CMR17-65" transform="translate(88.334319 -24.62935) scale(0.697382)"/>
      <use xlink:href="#CMR17-5b" transform="translate(147.248249 0) scale(0.996264)"/>
      <use xlink:href="#CMR17-52" transform="translate(172.119308 0) scale(0.996264)"/>
      <use xlink:href="#CMR17-79" transform="translate(239.91041 0) scale(0.996264)"/>
      <use xlink:href="#CMR17-64" transform="translate(288.203326 0) scale(0.996264)"/>
      <use xlink:href="#CMSY10-0" transform="translate(339.098695 36.153639) scale(0.697382)"/>
      <use xlink:href="#CMR17-31" transform="translate(393.339689 36.153639) scale(0.697382)"/>
      <use xlink:href="#CMR17-5d" transform="translate(425.821003 0) scale(0.996264)"/>
     </g>
    </g>
   </g>
   <g id="line2d_117">
    <path d="M 43.307631 152.093519 
L 45.101019 152.092421 
L 46.894407 152.091198 
L 48.687796 152.089833 
L 50.481184 152.088306 
L 52.274573 152.086592 
L 54.067961 152.084663 
L 55.86135 152.082487 
L 57.654738 152.080025 
L 59.448126 152.077228 
L 61.241515 152.074041 
L 63.034903 152.070397 
L 64.828292 152.066213 
L 66.62168 152.061391 
L 68.415069 152.055807 
L 70.208457 152.049309 
L 72.001845 152.041711 
L 73.795234 152.032777 
L 75.588622 152.022209 
L 77.382011 152.009628 
L 79.175399 151.994541 
L 80.968788 151.97631 
L 82.762176 151.954095 
L 84.555564 151.926765 
L 86.348953 151.892782 
L 88.142341 151.850031 
L 89.93573 151.795527 
L 91.729118 151.724985 
L 93.522507 151.632077 
L 95.315895 151.507219 
L 97.109283 151.335336 
L 98.902672 151.092054 
L 100.69606 150.735542 
L 102.489449 150.19071 
L 104.282837 149.312475 
L 106.076226 147.798409 
L 107.869614 144.947875 
L 109.663002 138.969133 
L 111.456391 125.092592 
L 113.249779 96.458375 
L 115.043168 81.636005 
L 116.836556 103.747287 
L 118.629945 121.809848 
L 120.423333 131.341406 
L 122.216721 136.621208 
L 124.01011 139.875697 
L 125.803498 142.085327 
L 127.596887 143.700023 
L 129.390275 144.946149 
L 131.183664 145.944042 
L 132.977052 146.761498 
L 134.77044 147.43436 
L 136.563829 147.979989 
L 138.357217 148.40588 
L 140.150606 148.708713 
L 141.943994 148.870246 
L 143.737383 148.841875 
L 145.530771 148.523375 
L 147.324159 147.804135 
L 149.117548 147.390187 
L 150.910936 149.304534 
L 152.704325 151.082819 
L 154.497713 151.731537 
L 156.291102 151.952368 
L 158.08449 152.036322 
L 159.877878 152.071886 
L 161.671267 152.08829 
L 163.464655 152.096357 
L 165.258044 152.100527 
L 167.051432 152.102769 
L 168.844821 152.104012 
L 170.638209 152.10472 
L 172.431598 152.105131 
L 174.224986 152.105375 
L 176.018374 152.105522 
L 177.811763 152.105611 
L 179.605151 152.105666 
L 181.39854 152.1057 
L 183.191928 152.105722 
L 184.985317 152.105736 
L 186.778705 152.105745 
L 188.572093 152.10575 
L 190.365482 152.105754 
L 192.15887 152.105756 
L 193.952259 152.105758 
L 195.745647 152.105759 
L 197.539036 152.105759 
L 199.332424 152.10576 
L 201.125812 152.10576 
L 202.919201 152.10576 
L 204.712589 152.105761 
L 206.505978 152.105761 
L 208.299366 152.105761 
L 210.092755 152.105761 
L 211.886143 152.105761 
L 213.679531 152.105761 
L 215.47292 152.105761 
L 217.266308 152.105761 
L 219.059697 152.105761 
L 220.853085 152.105761 
" clip-path="url(#pe5a0eebd03)" style="fill: none; stroke: #0c5da5; stroke-linecap: square"/>
   </g>
   <g id="line2d_118">
    <path d="M 43.307631 152.09352 
L 45.101019 152.0924 
L 46.894407 152.091163 
L 48.687796 152.089792 
L 50.481184 152.088271 
L 52.274573 152.086578 
L 54.067961 152.084641 
L 55.86135 152.08243 
L 57.654738 152.079947 
L 59.448126 152.07715 
L 61.241515 152.073991 
L 63.034903 152.07039 
L 64.828292 152.066121 
L 66.62168 152.061238 
L 68.415069 152.05563 
L 70.208457 152.049161 
L 72.001845 152.041665 
L 73.795234 152.032642 
L 75.588622 152.021896 
L 77.382011 152.009203 
L 79.175399 151.994114 
L 80.968788 151.976044 
L 82.762176 151.953978 
L 84.555564 151.926076 
L 86.348953 151.891648 
L 88.142341 151.848687 
L 89.93573 151.794382 
L 91.729118 151.72472 
L 93.522507 151.630539 
L 95.315895 151.503739 
L 97.109283 151.330427 
L 98.902672 151.086774 
L 100.69606 150.732214 
L 102.489449 150.18832 
L 104.282837 149.303125 
L 106.076226 147.785167 
L 107.869614 144.94215 
L 109.663002 138.991146 
L 111.456391 125.109711 
L 113.249779 96.952455 
L 115.043168 81.445944 
L 116.836556 103.022945 
L 118.629945 121.473261 
L 120.423333 131.264186 
L 122.216721 136.621301 
L 124.01011 139.912135 
L 125.803498 142.148531 
L 127.596887 143.766062 
L 129.390275 144.990134 
L 131.183664 145.944007 
L 132.977052 146.761468 
L 134.77044 147.463059 
L 136.563829 148.012402 
L 138.357217 148.429217 
L 140.150606 148.718834 
L 141.943994 148.870265 
L 143.737383 148.829737 
L 145.530771 148.483575 
L 147.324159 147.739703 
L 149.117548 147.377469 
L 150.910936 149.329405 
L 152.704325 151.083467 
L 154.497713 151.732164 
L 156.291102 151.952246 
L 158.08449 152.036109 
L 159.877878 152.071773 
L 161.671267 152.088268 
L 163.464655 152.096334 
L 165.258044 152.1005 
L 167.051432 152.10275 
L 168.844821 152.104002 
L 170.638209 152.104716 
L 172.431598 152.105131 
L 174.224986 152.105374 
L 176.018374 152.10552 
L 177.811763 152.10561 
L 179.605151 152.105666 
L 181.39854 152.1057 
L 183.191928 152.105722 
L 184.985317 152.105736 
L 186.778705 152.105744 
L 188.572093 152.10575 
L 190.365482 152.105754 
L 192.15887 152.105756 
L 193.952259 152.105758 
L 195.745647 152.105759 
L 197.539036 152.105759 
L 199.332424 152.10576 
L 201.125812 152.10576 
L 202.919201 152.10576 
L 204.712589 152.105761 
L 206.505978 152.105761 
L 208.299366 152.105761 
L 210.092755 152.105761 
L 211.886143 152.105761 
L 213.679531 152.105761 
L 215.47292 152.105761 
L 217.266308 152.105761 
L 219.059697 152.105761 
L 220.853085 152.105761 
" clip-path="url(#pe5a0eebd03)" style="fill: none; stroke-dasharray: 1,1.65; stroke-dashoffset: 0; stroke: #0c5da5"/>
   </g>
   <g id="line2d_119">
    <path d="M 43.307631 152.105761 
L 45.101019 152.105761 
L 46.894407 152.105761 
L 48.687796 152.105761 
L 50.481184 152.105761 
L 52.274573 152.105761 
L 54.067961 152.105761 
L 55.86135 152.105761 
L 57.654738 152.105761 
L 59.448126 152.105761 
L 61.241515 152.105761 
L 63.034903 152.105761 
L 64.828292 152.105761 
L 66.62168 152.105761 
L 68.415069 152.105761 
L 70.208457 152.105761 
L 72.001845 152.105761 
L 73.795234 152.105761 
L 75.588622 152.105761 
L 77.382011 152.105761 
L 79.175399 152.105761 
L 80.968788 152.105761 
L 82.762176 152.105761 
L 84.555564 152.105761 
L 86.348953 152.105761 
L 88.142341 152.105761 
L 89.93573 152.105761 
L 91.729118 152.105761 
L 93.522507 152.105761 
L 95.315895 152.105761 
L 97.109283 152.105761 
L 98.902672 152.105761 
L 100.69606 152.105761 
L 102.489449 152.105761 
L 104.282837 152.105761 
L 106.076226 152.10576 
L 107.869614 152.105745 
L 109.663002 152.105404 
L 111.456391 152.098231 
L 113.249779 151.919517 
L 115.043168 126.817586 
L 116.836556 139.61069 
L 118.629945 145.2842 
L 120.423333 145.93904 
L 122.216721 146.226157 
L 124.01011 146.602677 
L 125.803498 147.077571 
L 127.596887 147.596229 
L 129.390275 148.116233 
L 131.183664 148.613471 
L 132.977052 149.076783 
L 134.77044 149.502731 
L 136.563829 149.892356 
L 138.357217 150.249184 
L 140.150606 150.577213 
L 141.943994 150.877211 
L 143.737383 151.136433 
L 145.530771 151.299135 
L 147.324159 150.994288 
L 149.117548 150.41357 
L 150.910936 152.096386 
L 152.704325 152.105476 
L 154.497713 152.105751 
L 156.291102 152.10576 
L 158.08449 152.105761 
L 159.877878 152.105761 
L 161.671267 152.105761 
L 163.464655 152.105761 
L 165.258044 152.105761 
L 167.051432 152.105761 
L 168.844821 152.105761 
L 170.638209 152.105761 
L 172.431598 152.105761 
L 174.224986 152.105761 
L 176.018374 152.105761 
L 177.811763 152.105761 
L 179.605151 152.105761 
L 181.39854 152.105761 
L 183.191928 152.105761 
L 184.985317 152.105761 
L 186.778705 152.105761 
L 188.572093 152.105761 
L 190.365482 152.105761 
L 192.15887 152.105761 
L 193.952259 152.105761 
L 195.745647 152.105761 
L 197.539036 152.105761 
L 199.332424 152.105761 
L 201.125812 152.105761 
L 202.919201 152.105761 
L 204.712589 152.105761 
L 206.505978 152.105761 
L 208.299366 152.105761 
L 210.092755 152.105761 
L 211.886143 152.105761 
L 213.679531 152.105761 
L 215.47292 152.105761 
L 217.266308 152.105761 
L 219.059697 152.105761 
L 220.853085 152.105761 
" clip-path="url(#pe5a0eebd03)" style="fill: none; stroke-dasharray: 3.7,1.6; stroke-dashoffset: 0; stroke: #0c5da5"/>
   </g>
   <g id="line2d_120">
    <path d="M 43.307631 152.105761 
L 45.101019 152.105761 
L 46.894407 152.105761 
L 48.687796 152.105761 
L 50.481184 152.105761 
L 52.274573 152.105761 
L 54.067961 152.105761 
L 55.86135 152.105761 
L 57.654738 152.105761 
L 59.448126 152.105761 
L 61.241515 152.105761 
L 63.034903 152.105761 
L 64.828292 152.105761 
L 66.62168 152.105761 
L 68.415069 152.105761 
L 70.208457 152.105761 
L 72.001845 152.105761 
L 73.795234 152.105761 
L 75.588622 152.105761 
L 77.382011 152.105761 
L 79.175399 152.105761 
L 80.968788 152.105761 
L 82.762176 152.105761 
L 84.555564 152.105761 
L 86.348953 152.105761 
L 88.142341 152.105761 
L 89.93573 152.105761 
L 91.729118 152.105761 
L 93.522507 152.105761 
L 95.315895 152.105761 
L 97.109283 152.105761 
L 98.902672 152.105761 
L 100.69606 152.105761 
L 102.489449 152.105761 
L 104.282837 152.105761 
L 106.076226 152.105761 
L 107.869614 152.105761 
L 109.663002 152.105761 
L 111.456391 152.105761 
L 113.249779 152.105761 
L 115.043168 152.105761 
L 116.836556 152.105761 
L 118.629945 152.105761 
L 120.423333 152.105761 
L 122.216721 152.105761 
L 124.01011 152.105761 
L 125.803498 152.105761 
L 127.596887 152.105761 
L 129.390275 152.105761 
L 131.183664 152.105761 
L 132.977052 152.105761 
L 134.77044 152.105761 
L 136.563829 152.105761 
L 138.357217 152.105761 
L 140.150606 152.105761 
L 141.943994 152.105761 
L 143.737383 152.105761 
L 145.530771 152.105761 
L 147.324159 152.105761 
L 149.117548 152.105761 
L 150.910936 152.105761 
L 152.704325 152.105761 
L 154.497713 152.105761 
L 156.291102 152.105761 
L 158.08449 152.105761 
L 159.877878 152.105761 
L 161.671267 152.105761 
L 163.464655 152.105761 
L 165.258044 152.105761 
L 167.051432 152.105761 
L 168.844821 152.105761 
L 170.638209 152.105761 
L 172.431598 152.105761 
L 174.224986 152.105761 
L 176.018374 152.105761 
L 177.811763 152.105761 
L 179.605151 152.105761 
L 181.39854 152.105761 
L 183.191928 152.105761 
L 184.985317 152.105761 
L 186.778705 152.105761 
L 188.572093 152.105761 
L 190.365482 152.105761 
L 192.15887 152.105761 
L 193.952259 152.105761 
L 195.745647 152.105761 
L 197.539036 152.105761 
L 199.332424 152.105761 
L 201.125812 152.105761 
L 202.919201 152.105761 
L 204.712589 152.105761 
L 206.505978 152.105761 
L 208.299366 152.105761 
L 210.092755 152.105761 
L 211.886143 152.105761 
L 213.679531 152.105761 
L 215.47292 152.105761 
L 217.266308 152.105761 
L 219.059697 152.105761 
L 220.853085 152.105761 
" clip-path="url(#pe5a0eebd03)" style="fill: none; stroke-dasharray: 1,1.65; stroke-dashoffset: 0; stroke: #000000"/>
   </g>
   <g id="line2d_121">
    <path d="M 43.307631 152.087365 
L 45.101019 152.085545 
L 46.894407 152.083497 
L 48.687796 152.081185 
L 50.481184 152.078567 
L 52.274573 152.075595 
L 54.067961 152.072208 
L 55.86135 152.068334 
L 57.654738 152.063889 
L 59.448126 152.058765 
L 61.241515 152.052836 
L 63.034903 152.045943 
L 64.828292 152.03789 
L 66.62168 152.028433 
L 68.415069 152.017263 
L 70.208457 152.003989 
L 72.001845 151.988116 
L 73.795234 151.968983 
L 75.588622 151.945747 
L 77.382011 151.917277 
L 79.175399 151.882027 
L 80.968788 151.837928 
L 82.762176 151.782083 
L 84.555564 151.710306 
L 86.348953 151.61651 
L 88.142341 151.491612 
L 89.93573 151.3216 
L 91.729118 151.084209 
L 93.522507 150.742529 
L 95.315895 150.235508 
L 97.109283 149.459775 
L 98.902672 148.234916 
L 100.69606 146.257306 
L 102.489449 143.022601 
L 104.282837 137.783118 
L 106.076226 129.738691 
L 107.869614 118.847998 
L 109.663002 107.366199 
L 111.456391 99.473032 
L 113.249779 97.490614 
L 115.043168 99.977023 
L 116.836556 104.298686 
L 118.629945 108.793527 
L 120.423333 112.79592 
L 122.216721 116.120108 
L 124.01011 118.852087 
L 125.803498 121.055981 
L 127.596887 122.855967 
L 129.390275 124.31014 
L 131.183664 125.488333 
L 132.977052 126.41881 
L 134.77044 127.124417 
L 136.563829 127.623295 
L 138.357217 127.901946 
L 140.150606 127.964615 
L 141.943994 127.775847 
L 143.737383 127.354039 
L 145.530771 126.707286 
L 147.324159 125.997245 
L 149.117548 125.592682 
L 150.910936 126.236203 
L 152.704325 128.887765 
L 154.497713 133.725422 
L 156.291102 139.381055 
L 158.08449 144.13579 
L 159.877878 147.352805 
L 161.671267 149.298579 
L 163.464655 150.422437 
L 165.258044 151.068172 
L 167.051432 151.44522 
L 168.844821 151.670945 
L 170.638209 151.810594 
L 172.431598 151.899768 
L 174.224986 151.958499 
L 176.018374 151.998349 
L 177.811763 152.026071 
L 179.605151 152.045774 
L 181.39854 152.060034 
L 183.191928 152.070523 
L 184.985317 152.078347 
L 186.778705 152.084252 
L 188.572093 152.088755 
L 190.365482 152.092223 
L 192.15887 152.094917 
L 193.952259 152.097024 
L 195.745647 152.098686 
L 197.539036 152.100003 
L 199.332424 152.101055 
L 201.125812 152.101898 
L 202.919201 152.102578 
L 204.712589 152.103129 
L 206.505978 152.103577 
L 208.299366 152.103943 
L 210.092755 152.104243 
L 211.886143 152.10449 
L 213.679531 152.104694 
L 215.47292 152.104863 
L 217.266308 152.105003 
L 219.059697 152.10512 
L 220.853085 152.105218 
" clip-path="url(#pe5a0eebd03)" style="fill: none; stroke: #00b945; stroke-linecap: square"/>
   </g>
   <g id="line2d_122">
    <path d="M 43.307631 152.087367 
L 45.101019 152.085507 
L 46.894407 152.083431 
L 48.687796 152.081109 
L 50.481184 152.078503 
L 52.274573 152.07557 
L 54.067961 152.072167 
L 55.86135 152.068229 
L 57.654738 152.063746 
L 59.448126 152.058623 
L 61.241515 152.052744 
L 63.034903 152.045933 
L 64.828292 152.03773 
L 66.62168 152.028166 
L 68.415069 152.016954 
L 70.208457 152.003731 
L 72.001845 151.988034 
L 73.795234 151.968771 
L 75.588622 151.945247 
L 77.382011 151.916596 
L 79.175399 151.881354 
L 80.968788 151.837524 
L 82.762176 151.781955 
L 84.555564 151.709448 
L 86.348953 151.615137 
L 88.142341 151.490065 
L 89.93573 151.320379 
L 91.729118 151.083976 
L 93.522507 150.742093 
L 95.315895 150.235388 
L 97.109283 149.460892 
L 98.902672 148.239546 
L 100.69606 146.262865 
L 102.489449 143.034055 
L 104.282837 137.849199 
L 106.076226 129.866668 
L 107.869614 118.998139 
L 109.663002 107.430167 
L 111.456391 99.469742 
L 113.249779 97.364381 
L 115.043168 99.742568 
L 116.836556 104.079637 
L 118.629945 108.651962 
L 120.423333 112.730591 
L 122.216721 116.113729 
L 124.01011 118.880135 
L 125.803498 121.13285 
L 127.596887 122.941708 
L 129.390275 124.371013 
L 131.183664 125.472452 
L 132.977052 126.403484 
L 134.77044 127.179127 
L 136.563829 127.695061 
L 138.357217 127.961867 
L 140.150606 127.984978 
L 141.943994 127.771535 
L 143.737383 127.312904 
L 145.530771 126.624271 
L 147.324159 125.877618 
L 149.117548 125.473436 
L 150.910936 126.176411 
L 152.704325 128.886314 
L 154.497713 133.751702 
L 156.291102 139.4385 
L 158.08449 144.181391 
L 159.877878 147.374734 
L 161.671267 149.302119 
L 163.464655 150.424037 
L 165.258044 151.069413 
L 167.051432 151.445499 
L 168.844821 151.670917 
L 170.638209 151.810499 
L 172.431598 151.899721 
L 174.224986 151.95827 
L 176.018374 151.998079 
L 177.811763 152.025848 
L 179.605151 152.045643 
L 181.39854 152.060016 
L 183.191928 152.07047 
L 184.985317 152.078264 
L 186.778705 152.084175 
L 188.572093 152.088702 
L 190.365482 152.092202 
L 192.15887 152.094909 
L 193.952259 152.097002 
L 195.745647 152.098661 
L 197.539036 152.099983 
L 199.332424 152.101044 
L 201.125812 152.101897 
L 202.919201 152.102572 
L 204.712589 152.103121 
L 206.505978 152.103569 
L 208.299366 152.103938 
L 210.092755 152.104241 
L 211.886143 152.104489 
L 213.679531 152.104691 
L 215.47292 152.10486 
L 217.266308 152.105001 
L 219.059697 152.105119 
L 220.853085 152.105218 
" clip-path="url(#pe5a0eebd03)" style="fill: none; stroke-dasharray: 1,1.65; stroke-dashoffset: 0; stroke: #00b945"/>
   </g>
   <g id="line2d_123">
    <path d="M 43.307631 152.105761 
L 45.101019 152.105761 
L 46.894407 152.105761 
L 48.687796 152.105761 
L 50.481184 152.105761 
L 52.274573 152.105761 
L 54.067961 152.105761 
L 55.86135 152.105761 
L 57.654738 152.105761 
L 59.448126 152.105761 
L 61.241515 152.105761 
L 63.034903 152.105761 
L 64.828292 152.105761 
L 66.62168 152.105761 
L 68.415069 152.105761 
L 70.208457 152.105761 
L 72.001845 152.105761 
L 73.795234 152.105761 
L 75.588622 152.105761 
L 77.382011 152.105761 
L 79.175399 152.105761 
L 80.968788 152.105761 
L 82.762176 152.10576 
L 84.555564 152.105758 
L 86.348953 152.10575 
L 88.142341 152.105715 
L 89.93573 152.105581 
L 91.729118 152.105087 
L 93.522507 152.103364 
L 95.315895 152.097643 
L 97.109283 152.079482 
L 98.902672 152.024036 
L 100.69606 151.859649 
L 102.489449 151.378858 
L 104.282837 149.957701 
L 106.076226 145.559526 
L 107.869614 130.821479 
L 109.663002 82.881252 
L 111.456391 27.278915 
L 113.249779 57.515309 
L 115.043168 89.267679 
L 116.836556 106.211369 
L 118.629945 115.646426 
L 120.423333 121.432436 
L 122.216721 125.27896 
L 124.01011 127.992257 
L 125.803498 129.988103 
L 127.596887 131.497338 
L 129.390275 132.652598 
L 131.183664 133.531583 
L 132.977052 134.180888 
L 134.77044 134.62221 
L 136.563829 134.856237 
L 138.357217 134.864682 
L 140.150606 134.600098 
L 141.943994 133.96815 
L 143.737383 132.792084 
L 145.530771 130.725854 
L 147.324159 127.041804 
L 149.117548 120.145827 
L 150.910936 107.3011 
L 152.704325 97.04061 
L 154.497713 123.66628 
L 156.291102 143.962212 
L 158.08449 149.773166 
L 159.877878 151.392929 
L 161.671267 151.881109 
L 163.464655 152.034924 
L 165.258044 152.083854 
L 167.051432 152.099201 
L 168.844821 152.103874 
L 170.638209 152.105242 
L 172.431598 152.105625 
L 174.224986 152.105727 
L 176.018374 152.105753 
L 177.811763 152.105759 
L 179.605151 152.10576 
L 181.39854 152.105761 
L 183.191928 152.105761 
L 184.985317 152.105761 
L 186.778705 152.105761 
L 188.572093 152.105761 
L 190.365482 152.105761 
L 192.15887 152.105761 
L 193.952259 152.105761 
L 195.745647 152.105761 
L 197.539036 152.105761 
L 199.332424 152.105761 
L 201.125812 152.105761 
L 202.919201 152.105761 
L 204.712589 152.105761 
L 206.505978 152.105761 
L 208.299366 152.105761 
L 210.092755 152.105761 
L 211.886143 152.105761 
L 213.679531 152.105761 
L 215.47292 152.105761 
L 217.266308 152.105761 
L 219.059697 152.105761 
L 220.853085 152.105761 
" clip-path="url(#pe5a0eebd03)" style="fill: none; stroke-dasharray: 3.7,1.6; stroke-dashoffset: 0; stroke: #00b945"/>
   </g>
   <g id="line2d_124">
    <path d="M 43.307631 152.105761 
L 45.101019 152.105761 
L 46.894407 152.105761 
L 48.687796 152.105761 
L 50.481184 152.105761 
L 52.274573 152.105761 
L 54.067961 152.105761 
L 55.86135 152.105761 
L 57.654738 152.105761 
L 59.448126 152.105761 
L 61.241515 152.105761 
L 63.034903 152.105761 
L 64.828292 152.105761 
L 66.62168 152.105761 
L 68.415069 152.105761 
L 70.208457 152.105761 
L 72.001845 152.105761 
L 73.795234 152.105761 
L 75.588622 152.105761 
L 77.382011 152.105761 
L 79.175399 152.105761 
L 80.968788 152.105761 
L 82.762176 152.105761 
L 84.555564 152.105761 
L 86.348953 152.105761 
L 88.142341 152.105761 
L 89.93573 152.105761 
L 91.729118 152.105761 
L 93.522507 152.105761 
L 95.315895 152.105761 
L 97.109283 152.105761 
L 98.902672 152.105761 
L 100.69606 152.105761 
L 102.489449 152.105761 
L 104.282837 152.105761 
L 106.076226 152.105761 
L 107.869614 152.105761 
L 109.663002 152.105761 
L 111.456391 152.105761 
L 113.249779 152.105761 
L 115.043168 152.105761 
L 116.836556 152.105761 
L 118.629945 152.105761 
L 120.423333 152.105761 
L 122.216721 152.105761 
L 124.01011 152.105761 
L 125.803498 152.105761 
L 127.596887 152.105761 
L 129.390275 152.105761 
L 131.183664 152.105761 
L 132.977052 152.105761 
L 134.77044 152.105761 
L 136.563829 152.105761 
L 138.357217 152.105761 
L 140.150606 152.105761 
L 141.943994 152.105761 
L 143.737383 152.105761 
L 145.530771 152.105761 
L 147.324159 152.105761 
L 149.117548 152.105761 
L 150.910936 152.105761 
L 152.704325 152.105761 
L 154.497713 152.105761 
L 156.291102 152.105761 
L 158.08449 152.105761 
L 159.877878 152.105761 
L 161.671267 152.105761 
L 163.464655 152.105761 
L 165.258044 152.105761 
L 167.051432 152.105761 
L 168.844821 152.105761 
L 170.638209 152.105761 
L 172.431598 152.105761 
L 174.224986 152.105761 
L 176.018374 152.105761 
L 177.811763 152.105761 
L 179.605151 152.105761 
L 181.39854 152.105761 
L 183.191928 152.105761 
L 184.985317 152.105761 
L 186.778705 152.105761 
L 188.572093 152.105761 
L 190.365482 152.105761 
L 192.15887 152.105761 
L 193.952259 152.105761 
L 195.745647 152.105761 
L 197.539036 152.105761 
L 199.332424 152.105761 
L 201.125812 152.105761 
L 202.919201 152.105761 
L 204.712589 152.105761 
L 206.505978 152.105761 
L 208.299366 152.105761 
L 210.092755 152.105761 
L 211.886143 152.105761 
L 213.679531 152.105761 
L 215.47292 152.105761 
L 217.266308 152.105761 
L 219.059697 152.105761 
L 220.853085 152.105761 
" clip-path="url(#pe5a0eebd03)" style="fill: none; stroke-dasharray: 1,1.65; stroke-dashoffset: 0; stroke: #000000"/>
   </g>
   <g id="line2d_125">
    <path d="M 43.307631 152.083868 
L 45.101019 152.081413 
L 46.894407 152.078582 
L 48.687796 152.075295 
L 50.481184 152.071445 
L 52.274573 152.06689 
L 54.067961 152.061434 
L 55.86135 152.054804 
L 57.654738 152.046609 
L 59.448126 152.036295 
L 61.241515 152.023043 
L 63.034903 152.00566 
L 64.828292 151.982422 
L 66.62168 151.950738 
L 68.415069 151.906869 
L 70.208457 151.845408 
L 72.001845 151.758494 
L 73.795234 151.634917 
L 75.588622 151.458653 
L 77.382011 151.207264 
L 79.175399 150.84944 
L 80.968788 150.342135 
L 82.762176 149.626781 
L 84.555564 148.625982 
L 86.348953 147.239206 
L 88.142341 145.340951 
L 89.93573 142.782807 
L 91.729118 139.405966 
L 93.522507 135.073096 
L 95.315895 129.708276 
L 97.109283 123.359616 
L 98.902672 116.268953 
L 100.69606 108.876448 
L 102.489449 101.761928 
L 104.282837 95.490943 
L 106.076226 90.471126 
L 107.869614 86.868043 
L 109.663002 84.620677 
L 111.456391 83.501344 
L 113.249779 83.267177 
L 115.043168 83.637397 
L 116.836556 84.398437 
L 118.629945 85.365885 
L 120.423333 86.433516 
L 122.216721 87.518572 
L 124.01011 88.554936 
L 125.803498 89.515903 
L 127.596887 90.380913 
L 129.390275 91.132692 
L 131.183664 91.7709 
L 132.977052 92.305245 
L 134.77044 92.738377 
L 136.563829 93.066201 
L 138.357217 93.294527 
L 140.150606 93.444586 
L 141.943994 93.539274 
L 143.737383 93.605488 
L 145.530771 93.702827 
L 147.324159 93.901048 
L 149.117548 94.284749 
L 150.910936 94.997241 
L 152.704325 96.195143 
L 154.497713 98.07722 
L 156.291102 100.797483 
L 158.08449 104.486051 
L 159.877878 109.13577 
L 161.671267 114.569184 
L 163.464655 120.442185 
L 165.258044 126.319749 
L 167.051432 131.786509 
L 168.844821 136.553248 
L 170.638209 140.487071 
L 172.431598 143.595468 
L 174.224986 145.9685 
L 176.018374 147.731045 
L 177.811763 149.014119 
L 179.605151 149.934098 
L 181.39854 150.585959 
L 183.191928 151.043592 
L 184.985317 151.362466 
L 186.778705 151.583545 
L 188.572093 151.736287 
L 190.365482 151.841668 
L 192.15887 151.914416 
L 193.952259 151.964835 
L 195.745647 152.000002 
L 197.539036 152.024783 
L 199.332424 152.042469 
L 201.125812 152.0553 
L 202.919201 152.064798 
L 204.712589 152.071967 
L 206.505978 152.077492 
L 208.299366 152.081838 
L 210.092755 152.085318 
L 211.886143 152.08815 
L 213.679531 152.090488 
L 215.47292 152.09244 
L 217.266308 152.094087 
L 219.059697 152.095487 
L 220.853085 152.096686 
" clip-path="url(#pe5a0eebd03)" style="fill: none; stroke: #ff9500; stroke-linecap: square"/>
   </g>
   <g id="line2d_126">
    <path d="M 43.307631 152.083869 
L 45.101019 152.081398 
L 46.894407 152.078556 
L 48.687796 152.075264 
L 50.481184 152.071418 
L 52.274573 152.066879 
L 54.067961 152.061417 
L 55.86135 152.05476 
L 57.654738 152.046551 
L 59.448126 152.036234 
L 61.241515 152.023003 
L 63.034903 152.005662 
L 64.828292 151.982346 
L 66.62168 151.950615 
L 68.415069 151.906742 
L 70.208457 151.845307 
L 72.001845 151.75848 
L 73.795234 151.634851 
L 75.588622 151.458532 
L 77.382011 151.207148 
L 79.175399 150.849393 
L 80.968788 150.34215 
L 82.762176 149.627003 
L 84.555564 148.626839 
L 86.348953 147.240801 
L 88.142341 145.343087 
L 89.93573 142.78535 
L 91.729118 139.408656 
L 93.522507 135.078153 
L 95.315895 129.714789 
L 97.109283 123.367778 
L 98.902672 116.27568 
L 100.69606 108.880383 
L 102.489449 101.761951 
L 104.282837 95.485318 
L 106.076226 90.457933 
L 107.869614 86.850793 
L 109.663002 84.604056 
L 111.456391 83.505848 
L 113.249779 83.255711 
L 115.043168 83.618375 
L 116.836556 84.375315 
L 118.629945 85.354215 
L 120.423333 86.42967 
L 122.216721 87.515065 
L 124.01011 88.559409 
L 125.803498 89.526244 
L 127.596887 90.391558 
L 129.390275 91.141785 
L 131.183664 91.770739 
L 132.977052 92.305085 
L 134.77044 92.747231 
L 136.563829 93.076383 
L 138.357217 93.304244 
L 140.150606 93.448715 
L 141.943994 93.536093 
L 143.737383 93.602062 
L 145.530771 93.692615 
L 147.324159 93.881171 
L 149.117548 94.268685 
L 150.910936 94.987729 
L 152.704325 96.198815 
L 154.497713 98.063914 
L 156.291102 100.783916 
L 158.08449 104.475858 
L 159.877878 109.1315 
L 161.671267 114.569201 
L 163.464655 120.445068 
L 165.258044 126.32459 
L 167.051432 131.792279 
L 168.844821 136.55777 
L 170.638209 140.49052 
L 172.431598 143.59727 
L 174.224986 145.970174 
L 176.018374 147.732426 
L 177.811763 149.015133 
L 179.605151 149.934633 
L 181.39854 150.586095 
L 183.191928 151.043601 
L 184.985317 151.362438 
L 186.778705 151.583477 
L 188.572093 151.736218 
L 190.365482 151.841631 
L 192.15887 151.914408 
L 193.952259 151.964781 
L 195.745647 151.999934 
L 197.539036 152.024718 
L 199.332424 152.04243 
L 201.125812 152.0553 
L 202.919201 152.064778 
L 204.712589 152.071937 
L 206.505978 152.077464 
L 208.299366 152.081817 
L 210.092755 152.08531 
L 211.886143 152.088145 
L 213.679531 152.090476 
L 215.47292 152.092427 
L 217.266308 152.094076 
L 219.059697 152.095481 
L 220.853085 152.096687 
" clip-path="url(#pe5a0eebd03)" style="fill: none; stroke-dasharray: 1,1.65; stroke-dashoffset: 0; stroke: #ff9500"/>
   </g>
   <g id="line2d_127">
    <path d="M 43.307631 152.105752 
L 45.101019 152.105744 
L 46.894407 152.105727 
L 48.687796 152.105696 
L 50.481184 152.105635 
L 52.274573 152.105522 
L 54.067961 152.105314 
L 55.86135 152.104936 
L 57.654738 152.104259 
L 59.448126 152.103064 
L 61.241515 152.100983 
L 63.034903 152.097412 
L 64.828292 152.091366 
L 66.62168 152.081273 
L 68.415069 152.064647 
L 70.208457 152.037625 
L 72.001845 151.994263 
L 73.795234 151.925577 
L 75.588622 151.818075 
L 77.382011 151.651812 
L 79.175399 151.397576 
L 80.968788 151.013002 
L 82.762176 150.437674 
L 84.555564 149.587328 
L 86.348953 148.343906 
L 88.142341 146.551307 
L 89.93573 144.009056 
L 91.729118 140.481763 
L 93.522507 135.732859 
L 95.315895 129.58347 
L 97.109283 122.065984 
L 98.902672 113.496542 
L 100.69606 104.582415 
L 102.489449 96.289015 
L 104.282837 89.525031 
L 106.076226 84.691346 
L 107.869614 81.963563 
L 109.663002 80.875443 
L 111.456391 81.148066 
L 113.249779 82.148913 
L 115.043168 83.652892 
L 116.836556 85.357541 
L 118.629945 87.105126 
L 120.423333 88.775569 
L 122.216721 90.327164 
L 124.01011 91.716243 
L 125.803498 92.996691 
L 127.596887 93.968886 
L 129.390275 94.820677 
L 131.183664 95.495797 
L 132.977052 95.997153 
L 134.77044 96.329242 
L 136.563829 96.498081 
L 138.357217 96.565176 
L 140.150606 96.36266 
L 141.943994 96.086054 
L 143.737383 95.691769 
L 145.530771 95.224808 
L 147.324159 94.725543 
L 149.117548 94.297835 
L 150.910936 94.069529 
L 152.704325 94.27729 
L 154.497713 95.078787 
L 156.291102 96.940199 
L 158.08449 100.020519 
L 159.877878 104.607712 
L 161.671267 110.488557 
L 163.464655 117.296994 
L 165.258044 124.324889 
L 167.051432 130.872104 
L 168.844821 136.466584 
L 170.638209 140.937122 
L 172.431598 144.316373 
L 174.224986 146.775734 
L 176.018374 148.513767 
L 177.811763 149.715917 
L 179.605151 150.534056 
L 181.39854 151.083097 
L 183.191928 151.447631 
L 184.985317 151.686767 
L 186.778705 151.841921 
L 188.572093 151.941503 
L 190.365482 152.004697 
L 192.15887 152.044325 
L 193.952259 152.06888 
L 195.745647 152.083899 
L 197.539036 152.092969 
L 199.332424 152.098374 
L 201.125812 152.101552 
L 202.919201 152.103395 
L 204.712589 152.104449 
L 206.505978 152.105043 
L 208.299366 152.105374 
L 210.092755 152.105555 
L 211.886143 152.105653 
L 213.679531 152.105705 
L 215.47292 152.105732 
L 217.266308 152.105746 
L 219.059697 152.105754 
L 220.853085 152.105757 
" clip-path="url(#pe5a0eebd03)" style="fill: none; stroke-dasharray: 3.7,1.6; stroke-dashoffset: 0; stroke: #ff9500"/>
   </g>
   <g id="line2d_128">
    <path d="M 43.307631 152.105761 
L 45.101019 152.105761 
L 46.894407 152.105761 
L 48.687796 152.105761 
L 50.481184 152.105761 
L 52.274573 152.105761 
L 54.067961 152.105761 
L 55.86135 152.105761 
L 57.654738 152.105761 
L 59.448126 152.105761 
L 61.241515 152.105761 
L 63.034903 152.105761 
L 64.828292 152.105761 
L 66.62168 152.105761 
L 68.415069 152.105761 
L 70.208457 152.105761 
L 72.001845 152.105761 
L 73.795234 152.105761 
L 75.588622 152.105761 
L 77.382011 152.105761 
L 79.175399 152.105761 
L 80.968788 152.105761 
L 82.762176 152.105761 
L 84.555564 152.105761 
L 86.348953 152.105761 
L 88.142341 152.105761 
L 89.93573 152.105761 
L 91.729118 152.105761 
L 93.522507 152.105761 
L 95.315895 152.105761 
L 97.109283 152.105761 
L 98.902672 152.105761 
L 100.69606 152.105761 
L 102.489449 152.105761 
L 104.282837 152.105761 
L 106.076226 152.105761 
L 107.869614 152.105761 
L 109.663002 152.105761 
L 111.456391 152.105761 
L 113.249779 152.105761 
L 115.043168 152.105761 
L 116.836556 152.105761 
L 118.629945 152.105761 
L 120.423333 152.105761 
L 122.216721 152.105761 
L 124.01011 152.105761 
L 125.803498 152.105761 
L 127.596887 152.105761 
L 129.390275 152.105761 
L 131.183664 152.105761 
L 132.977052 152.105761 
L 134.77044 152.105761 
L 136.563829 152.105761 
L 138.357217 152.105761 
L 140.150606 152.105761 
L 141.943994 152.105761 
L 143.737383 152.105761 
L 145.530771 152.105761 
L 147.324159 152.105761 
L 149.117548 152.105761 
L 150.910936 152.105761 
L 152.704325 152.105761 
L 154.497713 152.105761 
L 156.291102 152.105761 
L 158.08449 152.105761 
L 159.877878 152.105761 
L 161.671267 152.105761 
L 163.464655 152.105761 
L 165.258044 152.105761 
L 167.051432 152.105761 
L 168.844821 152.105761 
L 170.638209 152.105761 
L 172.431598 152.105761 
L 174.224986 152.105761 
L 176.018374 152.105761 
L 177.811763 152.105761 
L 179.605151 152.105761 
L 181.39854 152.105761 
L 183.191928 152.105761 
L 184.985317 152.105761 
L 186.778705 152.105761 
L 188.572093 152.105761 
L 190.365482 152.105761 
L 192.15887 152.105761 
L 193.952259 152.105761 
L 195.745647 152.105761 
L 197.539036 152.105761 
L 199.332424 152.105761 
L 201.125812 152.105761 
L 202.919201 152.105761 
L 204.712589 152.105761 
L 206.505978 152.105761 
L 208.299366 152.105761 
L 210.092755 152.105761 
L 211.886143 152.105761 
L 213.679531 152.105761 
L 215.47292 152.105761 
L 217.266308 152.105761 
L 219.059697 152.105761 
L 220.853085 152.105761 
" clip-path="url(#pe5a0eebd03)" style="fill: none; stroke-dasharray: 1,1.65; stroke-dashoffset: 0; stroke: #000000"/>
   </g>
   <g id="patch_3">
    <path d="M 34.430358 152.589249 
L 34.430358 7.059249 
" style="fill: none; stroke: #000000; stroke-width: 0.5; stroke-linejoin: miter; stroke-linecap: square"/>
   </g>
   <g id="patch_4">
    <path d="M 229.730358 152.589249 
L 229.730358 7.059249 
" style="fill: none; stroke: #000000; stroke-width: 0.5; stroke-linejoin: miter; stroke-linecap: square"/>
   </g>
   <g id="patch_5">
    <path d="M 34.430358 152.589249 
L 229.730358 152.589249 
" style="fill: none; stroke: #000000; stroke-width: 0.5; stroke-linejoin: miter; stroke-linecap: square"/>
   </g>
   <g id="patch_6">
    <path d="M 34.430358 7.059249 
L 229.730358 7.059249 
" style="fill: none; stroke: #000000; stroke-width: 0.5; stroke-linejoin: miter; stroke-linecap: square"/>
   </g>
   <g id="legend_1">
    <g id="line2d_129">
     <path d="M 248.495358 19.559249 
L 258.495358 19.559249 
L 268.495358 19.559249 
" style="fill: none; stroke: #0c5da5; stroke-linecap: square"/>
    </g>
    <g id="text_15">
     <!-- T = 0.5 eV, BM -->
     <g transform="translate(276.495358 23.059249) scale(0.1 -0.1)">
      <defs>
       <path id="CMR17-54" d="M 3981 4326 
L 288 4326 
L 179 2918 
L 294 2918 
C 378 3976 467 4160 1453 4160 
C 1568 4160 1754 4160 1805 4154 
C 1926 4135 1926 4058 1926 3912 
L 1926 459 
C 1926 230 1907 160 1376 160 
L 1197 160 
L 1197 0 
C 1504 0 1824 0 2138 0 
C 2451 0 2771 0 3078 0 
L 3078 160 
L 2899 160 
C 2368 160 2349 230 2349 459 
L 2349 3912 
C 2349 4052 2349 4129 2464 4154 
C 2515 4160 2701 4160 2816 4160 
C 3795 4160 3891 3976 3974 2918 
L 4090 2918 
L 3981 4326 
z
" transform="scale(0.015625)"/>
       <path id="CMR17-3d" d="M 4115 2017 
C 4211 2017 4307 2017 4307 2125 
C 4307 2240 4198 2240 4090 2240 
L 512 2240 
C 403 2240 294 2240 294 2125 
C 294 2017 390 2017 486 2017 
L 4115 2017 
z
M 4090 896 
C 4198 896 4307 896 4307 1011 
C 4307 1119 4211 1119 4115 1119 
L 486 1119 
C 390 1119 294 1119 294 1011 
C 294 896 403 896 512 896 
L 4090 896 
z
" transform="scale(0.015625)"/>
       <path id="CMR17-2e" d="M 1062 261 
C 1062 420 934 522 800 522 
C 672 522 538 420 538 261 
C 538 102 666 0 800 0 
C 928 0 1062 102 1062 261 
z
" transform="scale(0.015625)"/>
       <path id="CMR17-56" d="M 3776 3745 
C 3834 3886 3936 4160 4365 4160 
L 4365 4332 
C 4218 4319 4051 4319 3891 4319 
C 3738 4319 3475 4319 3328 4332 
L 3328 4160 
C 3648 4160 3661 3936 3661 3898 
C 3661 3827 3642 3783 3622 3732 
L 2362 446 
L 1043 3886 
C 1024 3931 1011 3963 1011 3994 
C 1011 4160 1267 4160 1402 4160 
L 1402 4319 
C 1197 4319 896 4319 685 4319 
C 518 4319 218 4319 64 4332 
L 64 4160 
C 435 4160 506 4135 582 3931 
L 2106 -26 
C 2138 -115 2144 -128 2214 -128 
C 2285 -128 2291 -115 2323 -26 
L 3776 3745 
z
" transform="scale(0.015625)"/>
       <path id="CMR17-2c" d="M 1011 102 
C 1024 45 1024 25 1024 -77 
C 1024 -463 896 -817 627 -1139 
C 595 -1170 595 -1183 595 -1197 
C 595 -1222 621 -1248 646 -1248 
C 685 -1248 1126 -799 1126 -87 
C 1126 124 1101 522 800 522 
C 659 522 538 427 538 261 
C 538 96 659 0 800 0 
C 877 0 960 32 1011 102 
z
" transform="scale(0.015625)"/>
       <path id="CMR17-42" d="M 333 4352 
L 333 4186 
C 774 4186 845 4186 845 3900 
L 845 452 
C 845 166 774 166 333 166 
L 333 0 
L 2534 0 
C 3354 0 3885 583 3885 1164 
C 3885 1741 3360 2233 2675 2233 
C 3290 2356 3718 2771 3718 3264 
C 3718 3802 3194 4352 2368 4352 
L 333 4352 
z
M 1248 2304 
L 1248 3937 
C 1248 4155 1261 4186 1517 4186 
L 2336 4186 
C 2970 4186 3251 3674 3251 3277 
C 3251 2791 2861 2304 2170 2304 
L 1248 2304 
z
M 1517 166 
C 1261 166 1248 197 1248 413 
L 1248 2202 
L 2432 2202 
C 3091 2202 3411 1625 3411 1162 
C 3411 699 3046 166 2349 166 
L 1517 166 
z
" transform="scale(0.015625)"/>
       <path id="CMR17-4d" d="M 1338 4224 
C 1299 4320 1293 4320 1158 4320 
L 339 4320 
L 339 4160 
C 781 4160 851 4160 851 3875 
L 851 610 
C 851 451 851 153 339 153 
L 339 -13 
C 486 0 755 0 915 0 
C 1075 0 1344 0 1491 -13 
L 1491 153 
C 979 153 979 451 979 610 
L 979 4135 
L 986 4135 
L 2490 89 
C 2515 25 2528 -13 2579 -13 
C 2630 -13 2643 25 2669 89 
L 4186 4166 
L 4192 4166 
L 4192 438 
C 4192 153 4122 153 3680 153 
L 3680 -13 
C 3853 0 4198 0 4384 0 
C 4570 0 4922 0 5094 -13 
L 5094 153 
C 4653 153 4582 153 4582 438 
L 4582 3875 
C 4582 4160 4653 4160 5094 4160 
L 5094 4320 
L 4282 4320 
C 4147 4320 4141 4314 4102 4218 
L 2720 502 
L 1338 4224 
z
" transform="scale(0.015625)"/>
      </defs>
      <use xlink:href="#CMR17-54" transform="scale(0.996264)"/>
      <use xlink:href="#CMR17-3d" transform="translate(96.585847 0) scale(0.996264)"/>
      <use xlink:href="#CMR17-30" transform="translate(198.376602 0) scale(0.996264)"/>
      <use xlink:href="#CMR17-2e" transform="translate(244.067079 0) scale(0.996264)"/>
      <use xlink:href="#CMR17-35" transform="translate(268.938137 0) scale(0.996264)"/>
      <use xlink:href="#CMR17-65" transform="translate(344.704581 0) scale(0.996264)"/>
      <use xlink:href="#CMR17-56" transform="translate(385.190241 0) scale(0.996264)"/>
      <use xlink:href="#CMR17-2c" transform="translate(454.262671 0) scale(0.996264)"/>
      <use xlink:href="#CMR17-42" transform="translate(509.209696 0) scale(0.996264)"/>
      <use xlink:href="#CMR17-4d" transform="translate(574.39845 0) scale(0.996264)"/>
     </g>
    </g>
    <g id="line2d_130">
     <path d="M 248.495358 33.496428 
L 258.495358 33.496428 
L 268.495358 33.496428 
" style="fill: none; stroke-dasharray: 1,1.65; stroke-dashoffset: 0; stroke: #0c5da5"/>
    </g>
    <g id="text_16">
     <!-- T = 0.5 eV, BMA, Chapman Interp -->
     <g transform="translate(276.495358 36.996428) scale(0.1 -0.1)">
      <defs>
       <path id="CMR17-41" d="M 2323 4378 
C 2291 4461 2278 4480 2214 4480 
C 2150 4480 2138 4461 2106 4378 
L 749 566 
C 627 223 371 153 147 153 
L 147 -13 
C 262 0 518 0 640 0 
C 800 0 1056 0 1210 -13 
L 1210 153 
C 909 153 864 361 864 439 
C 864 497 877 530 890 569 
L 1229 1536 
L 2906 1536 
L 3290 442 
C 3322 365 3322 352 3322 327 
C 3322 153 3046 153 2925 153 
L 2925 0 
C 3110 0 3443 0 3642 0 
C 3808 0 4128 0 4282 -13 
L 4282 153 
C 3942 153 3827 153 3744 387 
L 2323 4378 
z
M 2067 3893 
L 2848 1702 
L 1286 1702 
L 2067 3893 
z
" transform="scale(0.015625)"/>
       <path id="CMR17-43" d="M 3974 4289 
C 3974 4403 3968 4410 3930 4410 
C 3904 4410 3898 4403 3853 4327 
L 3571 3792 
C 3258 4187 2874 4416 2381 4416 
C 1286 4416 294 3456 294 2148 
C 294 826 1286 -128 2387 -128 
C 3366 -128 3974 730 3974 1461 
C 3974 1524 3974 1550 3917 1550 
C 3866 1550 3866 1531 3859 1474 
C 3808 585 3168 38 2477 38 
C 1824 38 781 495 781 2147 
C 781 3805 1843 4250 2464 4250 
C 3187 4250 3712 3628 3834 2745 
C 3846 2668 3846 2655 3904 2655 
C 3974 2655 3974 2668 3974 2783 
L 3974 4289 
z
" transform="scale(0.015625)"/>
       <path id="CMR17-68" d="M 2656 1933 
C 2656 2259 2592 2790 1837 2790 
C 1312 2790 1056 2368 979 2157 
L 973 2157 
L 973 4396 
L 211 4326 
L 211 4160 
C 589 4160 646 4122 646 3817 
L 646 426 
C 646 184 621 153 211 153 
L 211 -13 
C 365 0 646 0 813 0 
C 979 0 1267 0 1421 -13 
L 1421 153 
C 1011 153 986 178 986 428 
L 986 1658 
C 986 2247 1344 2688 1792 2688 
C 2266 2688 2317 2266 2317 1958 
L 2317 428 
C 2317 184 2291 153 1882 153 
L 1882 -13 
C 2035 0 2317 0 2483 0 
C 2650 0 2938 0 3091 -13 
L 3091 153 
C 2682 153 2656 178 2656 428 
L 2656 1933 
z
" transform="scale(0.015625)"/>
       <path id="CMR17-61" d="M 2304 1653 
C 2304 2072 2304 2294 2035 2543 
C 1798 2752 1523 2816 1306 2816 
C 800 2816 435 2407 435 1971 
C 435 1728 627 1728 666 1728 
C 749 1728 896 1778 896 1954 
C 896 2112 774 2181 666 2181 
C 640 2181 608 2174 589 2168 
C 723 2592 1069 2714 1293 2714 
C 1613 2714 1965 2429 1965 1885 
L 1965 1600 
C 1587 1600 1133 1549 774 1357 
C 371 1133 256 813 256 570 
C 256 77 832 -64 1171 -64 
C 1523 -64 1850 139 1990 511 
C 2003 233 2182 -18 2464 -18 
C 2598 -18 2938 70 2938 567 
L 2938 920 
L 2822 920 
L 2822 562 
C 2822 178 2650 128 2566 128 
C 2304 128 2304 458 2304 738 
L 2304 1653 
z
M 1965 870 
C 1965 317 1568 38 1216 38 
C 896 38 646 275 646 570 
C 646 761 730 1100 1101 1305 
C 1408 1478 1760 1504 1965 1504 
L 1965 870 
z
" transform="scale(0.015625)"/>
       <path id="CMR17-70" d="M 1408 -1063 
C 998 -1063 973 -1037 973 -789 
L 973 402 
C 1158 134 1427 -38 1766 -38 
C 2406 -38 3053 523 3053 1388 
C 3053 2191 2496 2802 1837 2802 
C 1453 2802 1139 2592 960 2338 
L 960 2802 
L 198 2732 
L 198 2567 
C 576 2567 634 2528 634 2223 
L 634 -789 
C 634 -1031 608 -1063 198 -1063 
L 198 -1228 
C 352 -1216 634 -1216 800 -1216 
C 966 -1216 1254 -1216 1408 -1228 
L 1408 -1063 
z
M 973 2012 
C 973 2102 973 2235 1222 2471 
C 1254 2497 1472 2688 1792 2688 
C 2259 2688 2643 2108 2643 1382 
C 2643 656 2234 64 1728 64 
C 1498 64 1248 172 1056 472 
C 973 612 973 650 973 752 
L 973 2012 
z
" transform="scale(0.015625)"/>
       <path id="CMR17-6d" d="M 4326 1933 
C 4326 2252 4269 2790 3507 2790 
C 3072 2790 2771 2496 2656 2151 
L 2650 2151 
C 2573 2676 2195 2790 1837 2790 
C 1331 2790 1069 2400 973 2144 
L 966 2144 
L 966 2790 
L 211 2720 
L 211 2554 
C 589 2554 646 2515 646 2208 
L 646 428 
C 646 184 621 153 211 153 
L 211 -13 
C 365 0 646 0 813 0 
C 979 0 1267 0 1421 -13 
L 1421 153 
C 1011 153 986 178 986 428 
L 986 1658 
C 986 2247 1344 2688 1792 2688 
C 2266 2688 2317 2266 2317 1958 
L 2317 428 
C 2317 184 2291 153 1882 153 
L 1882 -13 
C 2035 0 2317 0 2483 0 
C 2650 0 2938 0 3091 -13 
L 3091 153 
C 2682 153 2656 178 2656 428 
L 2656 1658 
C 2656 2247 3014 2688 3462 2688 
C 3936 2688 3987 2266 3987 1958 
L 3987 428 
C 3987 184 3962 153 3552 153 
L 3552 -13 
C 3706 0 3987 0 4154 0 
C 4320 0 4608 0 4762 -13 
L 4762 153 
C 4352 153 4326 178 4326 428 
L 4326 1933 
z
" transform="scale(0.015625)"/>
       <path id="CMR17-6e" d="M 2656 1933 
C 2656 2259 2592 2790 1837 2790 
C 1331 2790 1069 2400 973 2144 
L 966 2144 
L 966 2790 
L 211 2720 
L 211 2554 
C 589 2554 646 2515 646 2208 
L 646 428 
C 646 184 621 153 211 153 
L 211 -13 
C 365 0 646 0 813 0 
C 979 0 1267 0 1421 -13 
L 1421 153 
C 1011 153 986 178 986 428 
L 986 1658 
C 986 2247 1344 2688 1792 2688 
C 2266 2688 2317 2266 2317 1958 
L 2317 428 
C 2317 184 2291 153 1882 153 
L 1882 -13 
C 2035 0 2317 0 2483 0 
C 2650 0 2938 0 3091 -13 
L 3091 153 
C 2682 153 2656 178 2656 428 
L 2656 1933 
z
" transform="scale(0.015625)"/>
       <path id="CMR17-49" d="M 1261 3905 
C 1261 4192 1338 4192 1798 4192 
L 1798 4352 
C 1594 4352 1267 4352 1050 4352 
C 832 4352 506 4352 301 4352 
L 301 4192 
C 762 4192 838 4192 838 3905 
L 838 447 
C 838 160 762 160 301 160 
L 301 0 
C 506 0 832 0 1050 0 
C 1267 0 1594 0 1798 0 
L 1798 160 
C 1338 160 1261 160 1261 447 
L 1261 3905 
z
" transform="scale(0.015625)"/>
       <path id="CMR17-74" d="M 966 2560 
L 1862 2560 
L 1862 2725 
L 966 2725 
L 966 3904 
L 851 3904 
C 838 3245 614 2668 70 2668 
L 70 2560 
L 627 2560 
L 627 771 
C 627 650 627 -64 1370 -64 
C 1747 -64 1965 306 1965 777 
L 1965 1140 
L 1850 1140 
L 1850 783 
C 1850 344 1677 51 1408 51 
C 1222 51 966 178 966 758 
L 966 2560 
z
" transform="scale(0.015625)"/>
       <path id="CMR17-72" d="M 960 1497 
C 960 2112 1222 2688 1702 2688 
C 1747 2688 1792 2682 1837 2662 
C 1837 2662 1696 2617 1696 2452 
C 1696 2298 1818 2234 1914 2234 
C 1990 2234 2131 2279 2131 2458 
C 2131 2663 1926 2790 1709 2790 
C 1222 2790 1011 2317 947 2093 
L 941 2093 
L 941 2790 
L 198 2720 
L 198 2554 
C 576 2554 634 2515 634 2208 
L 634 428 
C 634 184 608 153 198 153 
L 198 -13 
C 352 0 646 0 813 0 
C 998 0 1325 0 1498 -13 
L 1498 153 
C 1037 153 960 153 960 440 
L 960 1497 
z
" transform="scale(0.015625)"/>
      </defs>
      <use xlink:href="#CMR17-54" transform="scale(0.996264)"/>
      <use xlink:href="#CMR17-3d" transform="translate(96.585847 0) scale(0.996264)"/>
      <use xlink:href="#CMR17-30" transform="translate(198.376602 0) scale(0.996264)"/>
      <use xlink:href="#CMR17-2e" transform="translate(244.067079 0) scale(0.996264)"/>
      <use xlink:href="#CMR17-35" transform="translate(268.938137 0) scale(0.996264)"/>
      <use xlink:href="#CMR17-65" transform="translate(344.704581 0) scale(0.996264)"/>
      <use xlink:href="#CMR17-56" transform="translate(385.190241 0) scale(0.996264)"/>
      <use xlink:href="#CMR17-2c" transform="translate(454.262671 0) scale(0.996264)"/>
      <use xlink:href="#CMR17-42" transform="translate(509.209696 0) scale(0.996264)"/>
      <use xlink:href="#CMR17-4d" transform="translate(574.39845 0) scale(0.996264)"/>
      <use xlink:href="#CMR17-41" transform="translate(659.085391 0) scale(0.996264)"/>
      <use xlink:href="#CMR17-2c" transform="translate(728.157821 0) scale(0.996264)"/>
      <use xlink:href="#CMR17-43" transform="translate(783.104845 0) scale(0.996264)"/>
      <use xlink:href="#CMR17-68" transform="translate(849.614726 0) scale(0.996264)"/>
      <use xlink:href="#CMR17-61" transform="translate(900.510096 0) scale(0.996264)"/>
      <use xlink:href="#CMR17-70" transform="translate(946.200573 0) scale(0.996264)"/>
      <use xlink:href="#CMR17-6d" transform="translate(997.095943 0) scale(0.996264)"/>
      <use xlink:href="#CMR17-61" transform="translate(1074.015533 0) scale(0.996264)"/>
      <use xlink:href="#CMR17-6e" transform="translate(1119.70601 0) scale(0.996264)"/>
      <use xlink:href="#CMR17-49" transform="translate(1200.677346 0) scale(0.996264)"/>
      <use xlink:href="#CMR17-6e" transform="translate(1233.315755 0) scale(0.996264)"/>
      <use xlink:href="#CMR17-74" transform="translate(1281.608671 0) scale(0.996264)"/>
      <use xlink:href="#CMR17-65" transform="translate(1316.889439 0) scale(0.996264)"/>
      <use xlink:href="#CMR17-72" transform="translate(1357.375099 0) scale(0.996264)"/>
      <use xlink:href="#CMR17-70" transform="translate(1392.655867 0) scale(0.996264)"/>
     </g>
    </g>
    <g id="line2d_131">
     <path d="M 248.495358 47.433606 
L 258.495358 47.433606 
L 268.495358 47.433606 
" style="fill: none; stroke-dasharray: 3.7,1.6; stroke-dashoffset: 0; stroke: #0c5da5"/>
    </g>
    <g id="text_17">
     <!-- T = 0.5 eV, RPA -->
     <g transform="translate(276.495358 50.933606) scale(0.1 -0.1)">
      <defs>
       <path id="CMR17-50" d="M 1267 2042 
L 2291 2042 
C 3117 2042 3718 2578 3718 3184 
C 3718 3791 3130 4352 2291 4352 
L 333 4352 
L 333 4186 
C 774 4186 845 4186 845 3899 
L 845 446 
C 845 160 774 160 333 160 
L 333 0 
C 518 0 858 0 1056 0 
C 1254 0 1594 0 1779 0 
L 1779 160 
C 1338 160 1267 160 1267 446 
L 1267 2042 
z
M 1254 2176 
L 1254 3938 
C 1254 4155 1267 4186 1523 4186 
L 2170 4186 
C 2995 4186 3232 3714 3232 3184 
C 3232 2604 2950 2176 2170 2176 
L 1254 2176 
z
" transform="scale(0.015625)"/>
      </defs>
      <use xlink:href="#CMR17-54" transform="scale(0.996264)"/>
      <use xlink:href="#CMR17-3d" transform="translate(96.585847 0) scale(0.996264)"/>
      <use xlink:href="#CMR17-30" transform="translate(198.376602 0) scale(0.996264)"/>
      <use xlink:href="#CMR17-2e" transform="translate(244.067079 0) scale(0.996264)"/>
      <use xlink:href="#CMR17-35" transform="translate(268.938137 0) scale(0.996264)"/>
      <use xlink:href="#CMR17-65" transform="translate(344.704581 0) scale(0.996264)"/>
      <use xlink:href="#CMR17-56" transform="translate(385.190241 0) scale(0.996264)"/>
      <use xlink:href="#CMR17-2c" transform="translate(454.262671 0) scale(0.996264)"/>
      <use xlink:href="#CMR17-52" transform="translate(509.209696 0) scale(0.996264)"/>
      <use xlink:href="#CMR17-50" transform="translate(577.000798 0) scale(0.996264)"/>
      <use xlink:href="#CMR17-41" transform="translate(631.779843 0) scale(0.996264)"/>
     </g>
    </g>
    <g id="line2d_132">
     <path d="M 248.495358 61.370784 
L 258.495358 61.370784 
L 268.495358 61.370784 
" style="fill: none; stroke-dasharray: 1,1.65; stroke-dashoffset: 0; stroke: #000000"/>
    </g>
    <g id="text_18">
     <!-- T = 0.5 eV, RPA, with damping -->
     <g transform="translate(276.495358 64.870784) scale(0.1 -0.1)">
      <defs>
       <path id="CMR17-77" d="M 3725 2183 
C 3853 2560 4109 2560 4205 2560 
L 4205 2732 
C 4077 2732 3949 2732 3821 2732 
C 3699 2732 3424 2732 3315 2738 
L 3315 2560 
C 3514 2560 3622 2445 3622 2286 
C 3622 2241 3610 2184 3597 2140 
L 2995 407 
L 2342 2275 
C 2330 2319 2310 2370 2310 2395 
C 2310 2560 2528 2560 2630 2560 
L 2630 2738 
C 2483 2732 2214 2732 2061 2732 
C 1901 2732 1734 2732 1587 2738 
L 1587 2560 
C 1939 2560 1939 2547 2074 2149 
L 1485 451 
L 851 2281 
C 819 2363 819 2376 819 2395 
C 819 2560 1037 2560 1139 2560 
L 1139 2738 
C 986 2732 717 2732 557 2732 
C 416 2732 198 2732 64 2738 
L 64 2560 
C 346 2560 416 2541 486 2331 
L 1274 49 
C 1299 -33 1318 -52 1370 -52 
C 1414 -52 1440 -39 1472 56 
L 2131 1980 
L 2797 56 
C 2829 -39 2854 -52 2899 -52 
C 2950 -52 2970 -33 2995 50 
L 3725 2183 
z
" transform="scale(0.015625)"/>
       <path id="CMR17-69" d="M 992 3909 
C 992 4049 877 4170 730 4170 
C 589 4170 467 4056 467 3909 
C 467 3769 582 3648 730 3648 
C 870 3648 992 3763 992 3909 
z
M 243 2706 
L 243 2541 
C 602 2541 653 2502 653 2197 
L 653 427 
C 653 184 627 153 218 153 
L 218 -13 
C 371 0 646 0 806 0 
C 960 0 1222 0 1370 -13 
L 1370 153 
C 992 153 979 191 979 420 
L 979 2776 
L 243 2706 
z
" transform="scale(0.015625)"/>
       <path id="CMR17-67" d="M 710 1164 
C 832 1068 1043 960 1299 960 
C 1805 960 2240 1357 2240 1888 
C 2240 2054 2189 2310 1997 2509 
C 2176 2692 2438 2752 2586 2752 
C 2611 2752 2650 2752 2682 2734 
C 2656 2728 2598 2703 2598 2605 
C 2598 2527 2656 2471 2739 2471 
C 2835 2471 2886 2533 2886 2614 
C 2886 2731 2790 2854 2586 2854 
C 2330 2854 2106 2738 1926 2580 
C 1734 2753 1504 2816 1299 2816 
C 794 2816 358 2419 358 1888 
C 358 1522 570 1292 634 1228 
C 442 1004 442 743 442 711 
C 442 545 506 302 723 168 
C 390 85 128 -169 128 -486 
C 128 -943 736 -1280 1466 -1280 
C 2170 -1280 2803 -956 2803 -479 
C 2803 384 1856 384 1363 384 
C 1216 384 954 384 922 391 
C 723 423 589 602 589 826 
C 589 883 589 1024 710 1164 
z
M 1299 1068 
C 736 1068 736 1760 736 1889 
C 736 2016 736 2708 1299 2708 
C 1862 2708 1862 2016 1862 1889 
C 1862 1760 1862 1068 1299 1068 
z
M 1466 -1171 
C 826 -1171 384 -835 384 -486 
C 384 -289 493 -105 634 -4 
C 794 104 858 104 1293 104 
C 1818 104 2547 104 2547 -486 
C 2547 -835 2106 -1171 1466 -1171 
z
" transform="scale(0.015625)"/>
      </defs>
      <use xlink:href="#CMR17-54" transform="scale(0.996264)"/>
      <use xlink:href="#CMR17-3d" transform="translate(96.585847 0) scale(0.996264)"/>
      <use xlink:href="#CMR17-30" transform="translate(198.376602 0) scale(0.996264)"/>
      <use xlink:href="#CMR17-2e" transform="translate(244.067079 0) scale(0.996264)"/>
      <use xlink:href="#CMR17-35" transform="translate(268.938137 0) scale(0.996264)"/>
      <use xlink:href="#CMR17-65" transform="translate(344.704581 0) scale(0.996264)"/>
      <use xlink:href="#CMR17-56" transform="translate(385.190241 0) scale(0.996264)"/>
      <use xlink:href="#CMR17-2c" transform="translate(454.262671 0) scale(0.996264)"/>
      <use xlink:href="#CMR17-52" transform="translate(509.209696 0) scale(0.996264)"/>
      <use xlink:href="#CMR17-50" transform="translate(577.000798 0) scale(0.996264)"/>
      <use xlink:href="#CMR17-41" transform="translate(631.779843 0) scale(0.996264)"/>
      <use xlink:href="#CMR17-2c" transform="translate(700.852273 0) scale(0.996264)"/>
      <use xlink:href="#CMR17-77" transform="translate(755.799298 0) scale(0.996264)"/>
      <use xlink:href="#CMR17-69" transform="translate(822.309178 0) scale(0.996264)"/>
      <use xlink:href="#CMR17-74" transform="translate(847.180237 0) scale(0.996264)"/>
      <use xlink:href="#CMR17-68" transform="translate(882.461004 0) scale(0.996264)"/>
      <use xlink:href="#CMR17-64" transform="translate(963.432341 0) scale(0.996264)"/>
      <use xlink:href="#CMR17-61" transform="translate(1014.32771 0) scale(0.996264)"/>
      <use xlink:href="#CMR17-6d" transform="translate(1060.018187 0) scale(0.996264)"/>
      <use xlink:href="#CMR17-70" transform="translate(1136.937777 0) scale(0.996264)"/>
      <use xlink:href="#CMR17-69" transform="translate(1187.833147 0) scale(0.996264)"/>
      <use xlink:href="#CMR17-6e" transform="translate(1212.704206 0) scale(0.996264)"/>
      <use xlink:href="#CMR17-67" transform="translate(1263.599575 0) scale(0.996264)"/>
     </g>
    </g>
    <g id="line2d_133">
     <path d="M 248.495358 75.307963 
L 258.495358 75.307963 
L 268.495358 75.307963 
" style="fill: none; stroke: #00b945; stroke-linecap: square"/>
    </g>
    <g id="text_19">
     <!-- T = 2.0 eV -->
     <g transform="translate(276.495358 78.807963) scale(0.1 -0.1)">
      <use xlink:href="#CMR17-54" transform="scale(0.996264)"/>
      <use xlink:href="#CMR17-3d" transform="translate(96.585847 0) scale(0.996264)"/>
      <use xlink:href="#CMR17-32" transform="translate(198.376602 0) scale(0.996264)"/>
      <use xlink:href="#CMR17-2e" transform="translate(244.067079 0) scale(0.996264)"/>
      <use xlink:href="#CMR17-30" transform="translate(268.938137 0) scale(0.996264)"/>
      <use xlink:href="#CMR17-65" transform="translate(344.704581 0) scale(0.996264)"/>
      <use xlink:href="#CMR17-56" transform="translate(385.190241 0) scale(0.996264)"/>
     </g>
    </g>
    <g id="line2d_134">
     <path d="M 248.495358 89.245141 
L 258.495358 89.245141 
L 268.495358 89.245141 
" style="fill: none; stroke: #ff9500; stroke-linecap: square"/>
    </g>
    <g id="text_20">
     <!-- T = 8.0 eV -->
     <g transform="translate(276.495358 92.745141) scale(0.1 -0.1)">
      <defs>
       <path id="CMR17-38" d="M 1741 2264 
C 2144 2467 2554 2773 2554 3263 
C 2554 3841 1990 4179 1472 4179 
C 890 4179 378 3759 378 3180 
C 378 3021 416 2747 666 2505 
C 730 2442 998 2251 1171 2130 
C 883 1983 211 1634 211 934 
C 211 279 838 -128 1459 -128 
C 2144 -128 2720 362 2720 1010 
C 2720 1590 2330 1857 2074 2029 
L 1741 2264 
z
M 902 2822 
C 851 2854 595 3051 595 3351 
C 595 3739 998 4032 1459 4032 
C 1965 4032 2336 3676 2336 3262 
C 2336 2669 1670 2331 1638 2331 
C 1632 2331 1626 2331 1574 2370 
L 902 2822 
z
M 2080 1519 
C 2176 1449 2483 1240 2483 851 
C 2483 381 2010 25 1472 25 
C 890 25 448 438 448 940 
C 448 1443 838 1862 1280 2060 
L 2080 1519 
z
" transform="scale(0.015625)"/>
      </defs>
      <use xlink:href="#CMR17-54" transform="scale(0.996264)"/>
      <use xlink:href="#CMR17-3d" transform="translate(96.585847 0) scale(0.996264)"/>
      <use xlink:href="#CMR17-38" transform="translate(198.376602 0) scale(0.996264)"/>
      <use xlink:href="#CMR17-2e" transform="translate(244.067079 0) scale(0.996264)"/>
      <use xlink:href="#CMR17-30" transform="translate(268.938137 0) scale(0.996264)"/>
      <use xlink:href="#CMR17-65" transform="translate(344.704581 0) scale(0.996264)"/>
      <use xlink:href="#CMR17-56" transform="translate(385.190241 0) scale(0.996264)"/>
     </g>
    </g>
   </g>
  </g>
 </g>
 <defs>
  <clipPath id="pe5a0eebd03">
   <rect x="34.430358" y="7.059249" width="195.3" height="145.53"/>
  </clipPath>
 </defs>
</svg>
