<?xml version="1.0" encoding="utf-8" standalone="no"?>
<!DOCTYPE svg PUBLIC "-//W3C//DTD SVG 1.1//EN"
  "http://www.w3.org/Graphics/SVG/1.1/DTD/svg11.dtd">
<svg xmlns:xlink="http://www.w3.org/1999/xlink" width="460.8pt" height="345.6pt" viewBox="0 0 460.8 345.6" xmlns="http://www.w3.org/2000/svg" version="1.1">
 <metadata>
  <rdf:RDF xmlns:dc="http://purl.org/dc/elements/1.1/" xmlns:cc="http://creativecommons.org/ns#" xmlns:rdf="http://www.w3.org/1999/02/22-rdf-syntax-ns#">
   <cc:Work>
    <dc:type rdf:resource="http://purl.org/dc/dcmitype/StillImage"/>
    <dc:date>2026-04-28T08:10:58.442126</dc:date>
    <dc:format>image/svg+xml</dc:format>
    <dc:creator>
     <cc:Agent>
      <dc:title>Matplotlib v3.10.8, https://matplotlib.org/</dc:title>
     </cc:Agent>
    </dc:creator>
   </cc:Work>
  </rdf:RDF>
 </metadata>
 <defs>
  <style type="text/css">*{stroke-linejoin: round; stroke-linecap: butt}</style>
 </defs>
 <g id="figure_1">
  <g id="patch_1">
   <path d="M 0 345.6 
L 460.8 345.6 
L 460.8 0 
L 0 0 
z
" style="fill: #ffffff"/>
  </g>
  <g id="axes_1">
   <g id="patch_2">
    <path d="M 57.6 162.432 
L 414.72 162.432 
L 414.72 41.472 
L 57.6 41.472 
z
" style="fill: #ffffff"/>
   </g>
   <g id="matplotlib.axis_1">
    <g id="xtick_1">
     <g id="line2d_1">
      <defs>
       <path id="m0dddb7571f" d="M 0 0 
L 0 3.5 
" style="stroke: #000000; stroke-width: 0.8"/>
      </defs>
      <g>
       <use xlink:href="#m0dddb7571f" x="73.832727" y="162.432" style="stroke: #000000; stroke-width: 0.8"/>
      </g>
     </g>
     <g id="text_1">
      <!-- −200 -->
      <g transform="translate(60.099134 177.030437) scale(0.1 -0.1)">
       <defs>
        <path id="DejaVuSans-2212" d="M 678 2272 
L 4684 2272 
L 4684 1741 
L 678 1741 
L 678 2272 
z
" transform="scale(0.015625)"/>
        <path id="DejaVuSans-32" d="M 1228 531 
L 3431 531 
L 3431 0 
L 469 0 
L 469 531 
Q 828 903 1448 1529 
Q 2069 2156 2228 2338 
Q 2531 2678 2651 2914 
Q 2772 3150 2772 3378 
Q 2772 3750 2511 3984 
Q 2250 4219 1831 4219 
Q 1534 4219 1204 4116 
Q 875 4013 500 3803 
L 500 4441 
Q 881 4594 1212 4672 
Q 1544 4750 1819 4750 
Q 2544 4750 2975 4387 
Q 3406 4025 3406 3419 
Q 3406 3131 3298 2873 
Q 3191 2616 2906 2266 
Q 2828 2175 2409 1742 
Q 1991 1309 1228 531 
z
" transform="scale(0.015625)"/>
        <path id="DejaVuSans-30" d="M 2034 4250 
Q 1547 4250 1301 3770 
Q 1056 3291 1056 2328 
Q 1056 1369 1301 889 
Q 1547 409 2034 409 
Q 2525 409 2770 889 
Q 3016 1369 3016 2328 
Q 3016 3291 2770 3770 
Q 2525 4250 2034 4250 
z
M 2034 4750 
Q 2819 4750 3233 4129 
Q 3647 3509 3647 2328 
Q 3647 1150 3233 529 
Q 2819 -91 2034 -91 
Q 1250 -91 836 529 
Q 422 1150 422 2328 
Q 422 3509 836 4129 
Q 1250 4750 2034 4750 
z
" transform="scale(0.015625)"/>
       </defs>
       <use xlink:href="#DejaVuSans-2212"/>
       <use xlink:href="#DejaVuSans-32" transform="translate(83.789062 0)"/>
       <use xlink:href="#DejaVuSans-30" transform="translate(147.412109 0)"/>
       <use xlink:href="#DejaVuSans-30" transform="translate(211.035156 0)"/>
      </g>
     </g>
    </g>
    <g id="xtick_2">
     <g id="line2d_2">
      <g>
       <use xlink:href="#m0dddb7571f" x="114.414545" y="162.432" style="stroke: #000000; stroke-width: 0.8"/>
      </g>
     </g>
     <g id="text_2">
      <!-- −150 -->
      <g transform="translate(100.680952 177.030437) scale(0.1 -0.1)">
       <defs>
        <path id="DejaVuSans-31" d="M 794 531 
L 1825 531 
L 1825 4091 
L 703 3866 
L 703 4441 
L 1819 4666 
L 2450 4666 
L 2450 531 
L 3481 531 
L 3481 0 
L 794 0 
L 794 531 
z
" transform="scale(0.015625)"/>
        <path id="DejaVuSans-35" d="M 691 4666 
L 3169 4666 
L 3169 4134 
L 1269 4134 
L 1269 2991 
Q 1406 3038 1543 3061 
Q 1681 3084 1819 3084 
Q 2600 3084 3056 2656 
Q 3513 2228 3513 1497 
Q 3513 744 3044 326 
Q 2575 -91 1722 -91 
Q 1428 -91 1123 -41 
Q 819 9 494 109 
L 494 744 
Q 775 591 1075 516 
Q 1375 441 1709 441 
Q 2250 441 2565 725 
Q 2881 1009 2881 1497 
Q 2881 1984 2565 2268 
Q 2250 2553 1709 2553 
Q 1456 2553 1204 2497 
Q 953 2441 691 2322 
L 691 4666 
z
" transform="scale(0.015625)"/>
       </defs>
       <use xlink:href="#DejaVuSans-2212"/>
       <use xlink:href="#DejaVuSans-31" transform="translate(83.789062 0)"/>
       <use xlink:href="#DejaVuSans-35" transform="translate(147.412109 0)"/>
       <use xlink:href="#DejaVuSans-30" transform="translate(211.035156 0)"/>
      </g>
     </g>
    </g>
    <g id="xtick_3">
     <g id="line2d_3">
      <g>
       <use xlink:href="#m0dddb7571f" x="154.996364" y="162.432" style="stroke: #000000; stroke-width: 0.8"/>
      </g>
     </g>
     <g id="text_3">
      <!-- −100 -->
      <g transform="translate(141.26277 177.030437) scale(0.1 -0.1)">
       <use xlink:href="#DejaVuSans-2212"/>
       <use xlink:href="#DejaVuSans-31" transform="translate(83.789062 0)"/>
       <use xlink:href="#DejaVuSans-30" transform="translate(147.412109 0)"/>
       <use xlink:href="#DejaVuSans-30" transform="translate(211.035156 0)"/>
      </g>
     </g>
    </g>
    <g id="xtick_4">
     <g id="line2d_4">
      <g>
       <use xlink:href="#m0dddb7571f" x="195.578182" y="162.432" style="stroke: #000000; stroke-width: 0.8"/>
      </g>
     </g>
     <g id="text_4">
      <!-- −50 -->
      <g transform="translate(185.025838 177.030437) scale(0.1 -0.1)">
       <use xlink:href="#DejaVuSans-2212"/>
       <use xlink:href="#DejaVuSans-35" transform="translate(83.789062 0)"/>
       <use xlink:href="#DejaVuSans-30" transform="translate(147.412109 0)"/>
      </g>
     </g>
    </g>
    <g id="xtick_5">
     <g id="line2d_5">
      <g>
       <use xlink:href="#m0dddb7571f" x="236.16" y="162.432" style="stroke: #000000; stroke-width: 0.8"/>
      </g>
     </g>
     <g id="text_5">
      <!-- 0 -->
      <g transform="translate(232.97875 177.030437) scale(0.1 -0.1)">
       <use xlink:href="#DejaVuSans-30"/>
      </g>
     </g>
    </g>
    <g id="xtick_6">
     <g id="line2d_6">
      <g>
       <use xlink:href="#m0dddb7571f" x="276.741818" y="162.432" style="stroke: #000000; stroke-width: 0.8"/>
      </g>
     </g>
     <g id="text_6">
      <!-- 50 -->
      <g transform="translate(270.379318 177.030437) scale(0.1 -0.1)">
       <use xlink:href="#DejaVuSans-35"/>
       <use xlink:href="#DejaVuSans-30" transform="translate(63.623047 0)"/>
      </g>
     </g>
    </g>
    <g id="xtick_7">
     <g id="line2d_7">
      <g>
       <use xlink:href="#m0dddb7571f" x="317.323636" y="162.432" style="stroke: #000000; stroke-width: 0.8"/>
      </g>
     </g>
     <g id="text_7">
      <!-- 100 -->
      <g transform="translate(307.779886 177.030437) scale(0.1 -0.1)">
       <use xlink:href="#DejaVuSans-31"/>
       <use xlink:href="#DejaVuSans-30" transform="translate(63.623047 0)"/>
       <use xlink:href="#DejaVuSans-30" transform="translate(127.246094 0)"/>
      </g>
     </g>
    </g>
    <g id="xtick_8">
     <g id="line2d_8">
      <g>
       <use xlink:href="#m0dddb7571f" x="357.905455" y="162.432" style="stroke: #000000; stroke-width: 0.8"/>
      </g>
     </g>
     <g id="text_8">
      <!-- 150 -->
      <g transform="translate(348.361705 177.030437) scale(0.1 -0.1)">
       <use xlink:href="#DejaVuSans-31"/>
       <use xlink:href="#DejaVuSans-35" transform="translate(63.623047 0)"/>
       <use xlink:href="#DejaVuSans-30" transform="translate(127.246094 0)"/>
      </g>
     </g>
    </g>
    <g id="xtick_9">
     <g id="line2d_9">
      <g>
       <use xlink:href="#m0dddb7571f" x="398.487273" y="162.432" style="stroke: #000000; stroke-width: 0.8"/>
      </g>
     </g>
     <g id="text_9">
      <!-- 200 -->
      <g transform="translate(388.943523 177.030437) scale(0.1 -0.1)">
       <use xlink:href="#DejaVuSans-32"/>
       <use xlink:href="#DejaVuSans-30" transform="translate(63.623047 0)"/>
       <use xlink:href="#DejaVuSans-30" transform="translate(127.246094 0)"/>
      </g>
     </g>
    </g>
   </g>
   <g id="matplotlib.axis_2">
    <g id="ytick_1">
     <g id="line2d_10">
      <defs>
       <path id="m56890049e9" d="M 0 0 
L -3.5 0 
" style="stroke: #000000; stroke-width: 0.8"/>
      </defs>
      <g>
       <use xlink:href="#m56890049e9" x="57.6" y="156.946286" style="stroke: #000000; stroke-width: 0.8"/>
      </g>
     </g>
     <g id="text_10">
      <!-- 0.0 -->
      <g transform="translate(34.696875 160.745505) scale(0.1 -0.1)">
       <defs>
        <path id="DejaVuSans-2e" d="M 684 794 
L 1344 794 
L 1344 0 
L 684 0 
L 684 794 
z
" transform="scale(0.015625)"/>
       </defs>
       <use xlink:href="#DejaVuSans-30"/>
       <use xlink:href="#DejaVuSans-2e" transform="translate(63.623047 0)"/>
       <use xlink:href="#DejaVuSans-30" transform="translate(95.410156 0)"/>
      </g>
     </g>
    </g>
    <g id="ytick_2">
     <g id="line2d_11">
      <g>
       <use xlink:href="#m56890049e9" x="57.6" y="133.624755" style="stroke: #000000; stroke-width: 0.8"/>
      </g>
     </g>
     <g id="text_11">
      <!-- 0.2 -->
      <g transform="translate(34.696875 137.423973) scale(0.1 -0.1)">
       <use xlink:href="#DejaVuSans-30"/>
       <use xlink:href="#DejaVuSans-2e" transform="translate(63.623047 0)"/>
       <use xlink:href="#DejaVuSans-32" transform="translate(95.410156 0)"/>
      </g>
     </g>
    </g>
    <g id="ytick_3">
     <g id="line2d_12">
      <g>
       <use xlink:href="#m56890049e9" x="57.6" y="110.303223" style="stroke: #000000; stroke-width: 0.8"/>
      </g>
     </g>
     <g id="text_12">
      <!-- 0.4 -->
      <g transform="translate(34.696875 114.102442) scale(0.1 -0.1)">
       <defs>
        <path id="DejaVuSans-34" d="M 2419 4116 
L 825 1625 
L 2419 1625 
L 2419 4116 
z
M 2253 4666 
L 3047 4666 
L 3047 1625 
L 3713 1625 
L 3713 1100 
L 3047 1100 
L 3047 0 
L 2419 0 
L 2419 1100 
L 313 1100 
L 313 1709 
L 2253 4666 
z
" transform="scale(0.015625)"/>
       </defs>
       <use xlink:href="#DejaVuSans-30"/>
       <use xlink:href="#DejaVuSans-2e" transform="translate(63.623047 0)"/>
       <use xlink:href="#DejaVuSans-34" transform="translate(95.410156 0)"/>
      </g>
     </g>
    </g>
    <g id="ytick_4">
     <g id="line2d_13">
      <g>
       <use xlink:href="#m56890049e9" x="57.6" y="86.981692" style="stroke: #000000; stroke-width: 0.8"/>
      </g>
     </g>
     <g id="text_13">
      <!-- 0.6 -->
      <g transform="translate(34.696875 90.780911) scale(0.1 -0.1)">
       <defs>
        <path id="DejaVuSans-36" d="M 2113 2584 
Q 1688 2584 1439 2293 
Q 1191 2003 1191 1497 
Q 1191 994 1439 701 
Q 1688 409 2113 409 
Q 2538 409 2786 701 
Q 3034 994 3034 1497 
Q 3034 2003 2786 2293 
Q 2538 2584 2113 2584 
z
M 3366 4563 
L 3366 3988 
Q 3128 4100 2886 4159 
Q 2644 4219 2406 4219 
Q 1781 4219 1451 3797 
Q 1122 3375 1075 2522 
Q 1259 2794 1537 2939 
Q 1816 3084 2150 3084 
Q 2853 3084 3261 2657 
Q 3669 2231 3669 1497 
Q 3669 778 3244 343 
Q 2819 -91 2113 -91 
Q 1303 -91 875 529 
Q 447 1150 447 2328 
Q 447 3434 972 4092 
Q 1497 4750 2381 4750 
Q 2619 4750 2861 4703 
Q 3103 4656 3366 4563 
z
" transform="scale(0.015625)"/>
       </defs>
       <use xlink:href="#DejaVuSans-30"/>
       <use xlink:href="#DejaVuSans-2e" transform="translate(63.623047 0)"/>
       <use xlink:href="#DejaVuSans-36" transform="translate(95.410156 0)"/>
      </g>
     </g>
    </g>
    <g id="ytick_5">
     <g id="line2d_14">
      <g>
       <use xlink:href="#m56890049e9" x="57.6" y="63.660161" style="stroke: #000000; stroke-width: 0.8"/>
      </g>
     </g>
     <g id="text_14">
      <!-- 0.8 -->
      <g transform="translate(34.696875 67.459379) scale(0.1 -0.1)">
       <defs>
        <path id="DejaVuSans-38" d="M 2034 2216 
Q 1584 2216 1326 1975 
Q 1069 1734 1069 1313 
Q 1069 891 1326 650 
Q 1584 409 2034 409 
Q 2484 409 2743 651 
Q 3003 894 3003 1313 
Q 3003 1734 2745 1975 
Q 2488 2216 2034 2216 
z
M 1403 2484 
Q 997 2584 770 2862 
Q 544 3141 544 3541 
Q 544 4100 942 4425 
Q 1341 4750 2034 4750 
Q 2731 4750 3128 4425 
Q 3525 4100 3525 3541 
Q 3525 3141 3298 2862 
Q 3072 2584 2669 2484 
Q 3125 2378 3379 2068 
Q 3634 1759 3634 1313 
Q 3634 634 3220 271 
Q 2806 -91 2034 -91 
Q 1263 -91 848 271 
Q 434 634 434 1313 
Q 434 1759 690 2068 
Q 947 2378 1403 2484 
z
M 1172 3481 
Q 1172 3119 1398 2916 
Q 1625 2713 2034 2713 
Q 2441 2713 2670 2916 
Q 2900 3119 2900 3481 
Q 2900 3844 2670 4047 
Q 2441 4250 2034 4250 
Q 1625 4250 1398 4047 
Q 1172 3844 1172 3481 
z
" transform="scale(0.015625)"/>
       </defs>
       <use xlink:href="#DejaVuSans-30"/>
       <use xlink:href="#DejaVuSans-2e" transform="translate(63.623047 0)"/>
       <use xlink:href="#DejaVuSans-38" transform="translate(95.410156 0)"/>
      </g>
     </g>
    </g>
   </g>
   <g id="line2d_15">
    <path d="M 236.248102 142.258853 
L 236.254772 142.282131 
L 236.261946 142.282131 
L 236.269664 142.282131 
L 236.277966 142.282131 
L 236.286896 142.254974 
L 236.296502 142.282131 
L 236.306836 142.282131 
L 236.317952 142.287951 
L 236.329909 142.346146 
L 236.342771 142.346146 
L 236.356608 142.346146 
L 236.371491 142.346146 
L 236.387502 142.346146 
L 236.404724 142.346146 
L 236.42325 142.346146 
L 236.443179 142.346146 
L 236.464616 142.386883 
L 236.487676 142.456718 
L 236.512482 142.474176 
L 236.539166 142.474176 
L 236.56787 142.573108 
L 236.598746 142.602206 
L 236.63196 142.701138 
L 236.667689 142.776792 
L 236.706122 142.899002 
L 236.747465 143.044491 
L 236.791937 143.224897 
L 236.839776 143.457678 
L 236.891237 143.771933 
L 236.962404 144.353887 
L 237.023148 145.063871 
L 237.088491 145.791313 
L 237.15878 146.448921 
L 237.233677 147.032039 
L 237.282972 147.490356 
L 237.354701 147.985279 
L 237.445143 148.555594 
L 237.542431 149.120705 
L 237.713289 149.972343 
L 237.829532 150.412027 
L 237.962551 150.889229 
L 238.099008 151.319875 
L 238.245795 151.733062 
L 238.403694 152.122971 
L 238.573547 152.489602 
L 238.756258 152.832955 
L 238.952801 153.14721 
L 239.164222 153.461465 
L 239.391649 153.740803 
L 239.636292 154.002682 
L 239.899455 154.252922 
L 240.182541 154.468245 
L 240.487056 154.695207 
L 240.814624 154.881432 
L 241.16699 155.079296 
L 241.54603 155.236424 
L 241.997167 155.397189 
L 242.392367 155.53322 
L 242.998933 155.690348 
L 243.522081 155.803506 
L 243.995215 155.91731 
L 244.672647 156.022062 
L 245.317074 156.103535 
L 246.010286 156.17337 
L 246.755975 156.272302 
L 247.558114 156.3014 
L 248.420978 156.388693 
L 249.349162 156.429429 
L 250.347611 156.458527 
" clip-path="url(#p34abc62267)" style="fill: none; stroke: #1f77b4; stroke-width: 1.5; stroke-linecap: square"/>
   </g>
   <g id="line2d_16">
    <path d="M 73.832727 156.933818 
L 204.896368 156.796818 
L 218.53868 156.595127 
L 224.222977 156.321253 
L 227.308738 155.97848 
L 229.25764 155.56489 
L 230.719316 155.032089 
L 231.856175 154.358852 
L 232.668218 153.615216 
L 233.317852 152.732292 
L 233.967486 151.383378 
L 234.454711 149.80184 
L 234.941936 147.221417 
L 235.753979 141.241355 
L 236.078796 140.932785 
L 236.403613 141.02019 
L 236.566021 141.241355 
L 236.72843 141.688409 
L 236.890838 142.537225 
L 237.378064 147.221417 
L 237.865289 149.80184 
L 238.352514 151.383378 
L 239.002148 152.732292 
L 239.651782 153.615216 
L 240.463825 154.358852 
L 241.438276 154.952997 
L 242.737543 155.468462 
L 244.524037 155.895861 
L 246.960164 156.2225 
L 250.857967 156.486731 
L 257.516715 156.682981 
L 273.595154 156.832293 
L 308.025751 156.903468 
L 398.487273 156.933818 
L 398.487273 156.933818 
" clip-path="url(#p34abc62267)" style="fill: none; stroke-dasharray: 5.55,2.4; stroke-dashoffset: 0; stroke: #ff7f0e; stroke-width: 1.5"/>
   </g>
   <g id="line2d_17">
    <path d="M 73.832727 156.933818 
L 204.896368 156.796817 
L 218.53868 156.595125 
L 224.222977 156.32125 
L 227.308738 155.978475 
L 229.25764 155.56489 
L 230.719316 155.032192 
L 231.856175 154.358824 
L 232.668218 153.615252 
L 233.317852 152.732276 
L 233.967486 151.383388 
L 234.454711 149.801812 
L 234.941936 147.221381 
L 235.753979 141.240929 
L 236.078796 140.932805 
L 236.403613 141.019406 
L 236.566021 141.240929 
L 236.72843 141.688765 
L 236.890838 142.537429 
L 237.378064 147.221381 
L 237.865289 149.801812 
L 238.352514 151.383388 
L 239.002148 152.732276 
L 239.651782 153.615252 
L 240.463825 154.358824 
L 241.438276 154.953196 
L 242.737543 155.468511 
L 244.524037 155.895856 
L 246.960164 156.222497 
L 250.857967 156.486739 
L 257.516715 156.68298 
L 273.595154 156.832293 
L 308.025751 156.903468 
L 398.487273 156.933818 
L 398.487273 156.933818 
" clip-path="url(#p34abc62267)" style="fill: none; stroke-dasharray: 1.5,2.475; stroke-dashoffset: 0; stroke: #2ca02c; stroke-width: 1.5"/>
   </g>
   <g id="line2d_18">
    <path d="M 236.241164 142.26887 
" clip-path="url(#p34abc62267)" style="fill: none; stroke: #d62728; stroke-width: 1.5; stroke-linecap: square"/>
    <defs>
     <path id="md295eea0b5" d="M -3 3 
L 3 -3 
M -3 -3 
L 3 3 
" style="stroke: #d62728"/>
    </defs>
    <g clip-path="url(#p34abc62267)">
     <use xlink:href="#md295eea0b5" x="236.241164" y="142.26887" style="fill: #d62728; stroke: #d62728"/>
    </g>
   </g>
   <g id="line2d_19">
    <path d="M 236.24752 122.691736 
L 236.25168 122.62955 
L 236.263308 122.62955 
L 236.270394 122.62955 
L 236.287741 122.62955 
L 236.29605 122.661557 
L 236.316907 122.693565 
L 236.327114 122.693565 
L 236.352733 122.728482 
L 236.365271 122.781585 
L 236.39674 122.821595 
L 236.41214 122.829597 
L 236.450794 122.937986 
L 236.46971 122.97363 
L 236.51719 123.118391 
L 236.540426 123.205684 
L 236.598746 123.450105 
L 236.627287 123.589774 
L 236.698924 124.002961 
L 236.733981 124.229923 
L 236.817598 124.957365 
L 236.860375 125.398195 
L 236.967745 127.133873 
L 237.003338 127.814759 
L 237.082351 129.69447 
L 237.129404 130.5674 
L 237.227286 132.353999 
L 237.285458 133.204815 
L 237.403214 134.943693 
L 237.475332 135.763278 
L 237.627484 137.492651 
L 237.70747 138.223585 
L 237.900851 139.921581 
L 237.992695 140.543059 
L 238.232004 142.253034 
L 238.337704 142.794251 
L 238.605783 144.173481 
L 238.747661 144.800052 
L 239.066207 146.070651 
L 239.255259 146.667154 
L 239.65943 147.892166 
L 239.887072 148.403558 
L 240.401791 149.515818 
L 240.662763 149.963922 
L 241.301633 150.924146 
L 241.636102 151.316237 
L 242.392367 152.14043 
L 242.797789 152.468506 
L 243.764768 153.176307 
L 244.259466 153.444734 
L 245.501143 154.0059 
L 246.108795 154.228078 
L 247.35597 154.65892 
L 250.442044 155.317282 
L 251.220492 155.422033 
L 253.357335 155.681311 
L 254.476041 155.797701 
L 257.283955 156.022062 
L 258.732841 156.102242 
" clip-path="url(#p34abc62267)" style="fill: none; stroke: #9467bd; stroke-width: 1.5; stroke-linecap: square"/>
   </g>
   <g id="line2d_20">
    <path d="M 73.832727 156.895997 
L 160.234037 156.787654 
L 194.177409 156.562154 
L 207.494904 156.268316 
L 216.102553 155.791049 
L 219.67554 155.403192 
L 222.761301 154.854327 
L 225.035019 154.206 
L 226.659104 153.508034 
L 227.958372 152.717519 
L 229.095231 151.761483 
L 230.069682 150.647121 
L 231.044133 149.161705 
L 231.856175 147.515694 
L 232.668218 145.293282 
L 233.317852 142.862344 
L 233.967486 139.455711 
L 234.454711 135.776993 
L 234.941936 130.165131 
L 235.753979 117.637082 
L 236.078796 116.871888 
L 236.241204 116.871888 
L 236.403613 117.100098 
L 236.566021 117.637082 
L 236.72843 118.627547 
L 236.890838 120.401648 
L 237.378064 130.165131 
L 237.865289 135.776993 
L 238.514923 140.432586 
L 239.164557 143.541332 
L 239.976599 146.267108 
L 240.788642 148.22794 
L 241.763092 149.958961 
L 242.737543 151.243077 
L 243.711994 152.209332 
L 245.011262 153.14543 
L 246.31053 153.816981 
L 247.772206 154.369636 
L 249.721108 154.890407 
L 252.482052 155.379638 
L 255.89263 155.763743 
L 260.764884 156.095389 
L 269.859759 156.412734 
L 281.228352 156.601206 
L 307.700934 156.773619 
L 398.487273 156.895997 
L 398.487273 156.895997 
" clip-path="url(#p34abc62267)" style="fill: none; stroke-dasharray: 5.55,2.4; stroke-dashoffset: 0; stroke: #8c564b; stroke-width: 1.5"/>
   </g>
   <g id="line2d_21">
    <path d="M 73.832727 156.895994 
L 159.746812 156.789597 
L 197.100761 156.518202 
L 209.443806 156.192883 
L 216.42737 155.763644 
L 220.64999 155.257902 
L 223.410935 154.696339 
L 225.359836 154.0848 
L 226.821513 153.424598 
L 228.12078 152.599921 
L 229.25764 151.596089 
L 230.232091 150.428879 
L 231.206541 148.866054 
L 232.018584 147.122702 
L 232.668218 145.293953 
L 233.317852 142.861701 
L 233.967486 139.455308 
L 234.454711 135.775531 
L 234.941936 130.16511 
L 235.753979 117.634288 
L 236.078796 116.868623 
L 236.241204 116.868623 
L 236.403613 117.096422 
L 236.566021 117.634288 
L 236.72843 118.624362 
L 236.890838 120.394002 
L 237.378064 130.16511 
L 237.865289 135.775531 
L 238.514923 140.432749 
L 239.164557 143.540443 
L 239.976599 146.266436 
L 240.788642 148.227407 
L 241.763092 149.958958 
L 242.737543 151.243807 
L 243.874403 152.345546 
L 245.17367 153.242492 
L 246.635347 153.955579 
L 248.259432 154.518464 
L 250.53315 155.057892 
L 253.456503 155.508164 
L 257.191898 155.869855 
L 262.226561 156.164503 
L 272.458295 156.468674 
L 284.476522 156.635535 
L 318.582302 156.807109 
L 398.487273 156.895994 
L 398.487273 156.895994 
" clip-path="url(#p34abc62267)" style="fill: none; stroke-dasharray: 1.5,2.475; stroke-dashoffset: 0; stroke: #e377c2; stroke-width: 1.5"/>
   </g>
   <g id="line2d_22">
    <path d="M 236.241164 122.600496 
" clip-path="url(#p34abc62267)" style="fill: none; stroke: #7f7f7f; stroke-width: 1.5; stroke-linecap: square"/>
    <defs>
     <path id="m64a587f843" d="M -3 3 
L 3 -3 
M -3 -3 
L 3 3 
" style="stroke: #7f7f7f"/>
    </defs>
    <g clip-path="url(#p34abc62267)">
     <use xlink:href="#m64a587f843" x="236.241164" y="122.600496" style="fill: #7f7f7f; stroke: #7f7f7f"/>
    </g>
   </g>
   <g id="line2d_23">
    <path d="M 236.253523 74.938432 
L 236.259606 74.97044 
L 236.27224 75.002447 
L 236.286896 75.072282 
L 236.2956 75.066462 
L 236.312798 75.130477 
L 236.333324 75.194492 
L 236.344599 75.226499 
L 236.368013 75.322522 
L 236.39674 75.479649 
L 236.41214 75.554576 
L 236.443179 75.72795 
L 236.481219 75.991769 
L 236.502115 76.146714 
L 236.545507 76.506798 
L 236.595845 77.056744 
L 236.624197 77.362997 
L 236.679615 78.091167 
L 236.74358 79.151778 
L 236.779485 79.766986 
L 236.837525 81.083865 
L 236.908414 82.90829 
L 236.939321 83.874915 
L 236.992222 85.500895 
L 237.052259 87.634725 
L 237.091576 88.749652 
L 237.139098 90.532467 
L 237.199337 92.551681 
L 237.255986 93.929526 
L 237.308081 95.679267 
L 237.390904 97.807764 
L 237.440887 98.928025 
L 237.51519 100.71084 
L 237.617781 102.884503 
L 237.682017 103.921189 
L 237.770307 105.652792 
L 237.910364 107.915263 
L 237.980577 108.786323 
L 238.092587 110.482718 
L 238.252725 112.540798 
L 238.352198 113.555435 
L 238.494803 115.203819 
L 238.69667 117.265099 
L 238.817246 118.260531 
L 238.999506 119.876908 
L 239.245009 121.896288 
L 239.402386 122.88561 
L 239.613307 124.447574 
L 239.949401 126.517002 
L 240.129522 127.409331 
L 240.401791 128.903012 
L 240.814624 130.910753 
L 241.052072 131.815691 
L 241.404987 133.256027 
L 241.915457 135.141558 
L 242.22916 135.995866 
L 242.688609 137.481012 
L 243.371692 139.209415 
L 243.764768 140.0032 
L 244.422276 141.385922 
L 245.317074 142.957198 
L 245.848267 143.701129 
L 246.755975 144.932349 
L 247.942529 146.291793 
L 248.667439 146.946076 
L 249.93033 148.043474 
L 251.625486 149.172465 
L 252.576987 149.689573 
L 254.354935 150.604071 
L 256.730783 151.465363 
L 258.068935 151.860364 
L 260.522332 152.556527 
L 263.703504 153.193766 
L 265.495239 153.476741 
L 269.215933 153.964855 
L 273.532294 154.450786 
L 275.963402 154.653015 
L 280.863284 154.978424 
L 286.868448 155.28298 
L 290.167087 155.437198 
L 297.017 155.645247 
L 305.421513 155.876573 
L 309.92705 155.965321 
" clip-path="url(#p34abc62267)" style="fill: none; stroke: #bcbd22; stroke-width: 1.5; stroke-linecap: square"/>
   </g>
   <g id="line2d_24">
    <path d="M 73.832727 156.62991 
L 146.429316 156.176957 
L 163.482207 155.89378 
L 184.270492 155.197654 
L 192.878141 154.656402 
L 198.400029 154.137101 
L 204.409143 153.313579 
L 208.95658 152.37835 
L 212.529567 151.326295 
L 214.965694 150.353247 
L 217.077004 149.259441 
L 218.863497 148.078022 
L 220.325173 146.871824 
L 221.78685 145.372454 
L 223.086118 143.705604 
L 224.222977 141.90704 
L 225.359836 139.683589 
L 226.496696 136.88995 
L 227.471146 133.898604 
L 228.445597 130.18699 
L 229.420048 125.577361 
L 230.556908 118.96163 
L 231.693767 111.07168 
L 232.830626 101.645608 
L 233.805077 91.585716 
L 234.454711 82.563559 
L 234.941936 72.385952 
L 235.753979 48.711715 
L 236.078796 46.970182 
L 236.241204 46.970182 
L 236.403613 47.498863 
L 236.566021 48.711715 
L 236.72843 50.887427 
L 236.890838 54.681134 
L 237.540472 76.34962 
L 238.190106 87.44803 
L 239.002148 96.939038 
L 240.139008 107.251334 
L 241.438276 116.841655 
L 242.737543 124.709448 
L 243.874403 130.18699 
L 244.848854 133.898604 
L 245.985713 137.330392 
L 247.122572 140.032025 
L 248.259432 142.186566 
L 249.558699 144.159112 
L 250.857967 145.735818 
L 252.319643 147.161525 
L 253.78132 148.314677 
L 255.567813 149.446562 
L 257.679123 150.499143 
L 260.11525 151.44086 
L 262.551378 152.17487 
L 266.611589 153.092762 
L 272.458295 153.974411 
L 281.390761 154.809545 
L 286.750241 155.13586 
L 298.281242 155.609343 
L 325.728275 156.175291 
L 370.715423 156.525765 
L 398.487273 156.62991 
L 398.487273 156.62991 
" clip-path="url(#p34abc62267)" style="fill: none; stroke-dasharray: 5.55,2.4; stroke-dashoffset: 0; stroke: #17becf; stroke-width: 1.5"/>
   </g>
   <g id="line2d_25">
    <path d="M 73.832727 156.629678 
L 138.146484 156.273998 
L 173.713941 155.623875 
L 190.929239 154.804286 
L 201.648199 153.737508 
L 205.221185 153.178831 
L 210.743073 151.899056 
L 213.341609 151.030152 
L 215.940145 149.88242 
L 217.889046 148.757373 
L 219.67554 147.43737 
L 221.137216 146.081468 
L 222.598892 144.370672 
L 223.735752 142.721869 
L 224.872611 140.694526 
L 226.00947 138.167907 
L 227.14633 134.961058 
L 228.12078 131.508288 
L 229.095231 127.212872 
L 230.069682 121.932487 
L 231.206541 114.589876 
L 232.343401 105.883787 
L 233.317852 96.926764 
L 234.129894 87.474594 
L 234.617119 79.75793 
L 235.104345 67.672075 
L 235.59157 50.726659 
L 235.916387 47.477781 
L 236.078796 47.069217 
L 236.241204 47.069217 
L 236.403613 47.477781 
L 236.566021 48.622004 
L 236.72843 50.726659 
L 236.890838 54.316208 
L 237.378064 72.53615 
L 237.865289 82.6256 
L 238.514923 91.586967 
L 239.489374 101.624719 
L 240.626233 111.044534 
L 241.925501 119.963791 
L 243.06236 126.40191 
L 244.036811 130.854291 
L 245.011262 134.440281 
L 246.148121 137.750638 
L 247.284981 140.365783 
L 248.42184 142.458074 
L 249.721108 144.370672 
L 251.020376 145.90872 
L 252.319643 147.163643 
L 254.268545 148.647553 
L 255.89263 149.62623 
L 258.00394 150.637418 
L 260.602476 151.597499 
L 263.850645 152.498327 
L 267.098815 153.178831 
L 273.757562 154.122381 
L 279.766676 154.682753 
L 283.66448 154.952536 
L 288.536734 155.226718 
L 313.385231 155.979751 
L 357.23552 156.457682 
L 398.487273 156.629678 
L 398.487273 156.629678 
" clip-path="url(#p34abc62267)" style="fill: none; stroke-dasharray: 1.5,2.475; stroke-dashoffset: 0; stroke: #1f77b4; stroke-width: 1.5"/>
   </g>
   <g id="line2d_26">
    <path d="M 236.241164 74.830942 
" clip-path="url(#p34abc62267)" style="fill: none; stroke: #ff7f0e; stroke-width: 1.5; stroke-linecap: square"/>
    <defs>
     <path id="md2c16b115f" d="M -3 3 
L 3 -3 
M -3 -3 
L 3 3 
" style="stroke: #ff7f0e"/>
    </defs>
    <g clip-path="url(#p34abc62267)">
     <use xlink:href="#md2c16b115f" x="236.241164" y="74.830942" style="fill: #ff7f0e; stroke: #ff7f0e"/>
    </g>
   </g>
   <g id="patch_3">
    <path d="M 57.6 162.432 
L 57.6 41.472 
" style="fill: none; stroke: #000000; stroke-width: 0.8; stroke-linejoin: miter; stroke-linecap: square"/>
   </g>
   <g id="patch_4">
    <path d="M 414.72 162.432 
L 414.72 41.472 
" style="fill: none; stroke: #000000; stroke-width: 0.8; stroke-linejoin: miter; stroke-linecap: square"/>
   </g>
   <g id="patch_5">
    <path d="M 57.6 162.432 
L 414.72 162.432 
" style="fill: none; stroke: #000000; stroke-width: 0.8; stroke-linejoin: miter; stroke-linecap: square"/>
   </g>
   <g id="patch_6">
    <path d="M 57.6 41.472 
L 414.72 41.472 
" style="fill: none; stroke: #000000; stroke-width: 0.8; stroke-linejoin: miter; stroke-linecap: square"/>
   </g>
  </g>
  <g id="axes_2">
   <g id="patch_7">
    <path d="M 57.6 307.584 
L 414.72 307.584 
L 414.72 186.624 
L 57.6 186.624 
z
" style="fill: #ffffff"/>
   </g>
   <g id="matplotlib.axis_3">
    <g id="xtick_10">
     <g id="line2d_27">
      <g>
       <use xlink:href="#m0dddb7571f" x="73.832727" y="307.584" style="stroke: #000000; stroke-width: 0.8"/>
      </g>
     </g>
     <g id="text_15">
      <!-- −200 -->
      <g transform="translate(60.099134 322.182437) scale(0.1 -0.1)">
       <use xlink:href="#DejaVuSans-2212"/>
       <use xlink:href="#DejaVuSans-32" transform="translate(83.789062 0)"/>
       <use xlink:href="#DejaVuSans-30" transform="translate(147.412109 0)"/>
       <use xlink:href="#DejaVuSans-30" transform="translate(211.035156 0)"/>
      </g>
     </g>
    </g>
    <g id="xtick_11">
     <g id="line2d_28">
      <g>
       <use xlink:href="#m0dddb7571f" x="114.414545" y="307.584" style="stroke: #000000; stroke-width: 0.8"/>
      </g>
     </g>
     <g id="text_16">
      <!-- −150 -->
      <g transform="translate(100.680952 322.182437) scale(0.1 -0.1)">
       <use xlink:href="#DejaVuSans-2212"/>
       <use xlink:href="#DejaVuSans-31" transform="translate(83.789062 0)"/>
       <use xlink:href="#DejaVuSans-35" transform="translate(147.412109 0)"/>
       <use xlink:href="#DejaVuSans-30" transform="translate(211.035156 0)"/>
      </g>
     </g>
    </g>
    <g id="xtick_12">
     <g id="line2d_29">
      <g>
       <use xlink:href="#m0dddb7571f" x="154.996364" y="307.584" style="stroke: #000000; stroke-width: 0.8"/>
      </g>
     </g>
     <g id="text_17">
      <!-- −100 -->
      <g transform="translate(141.26277 322.182437) scale(0.1 -0.1)">
       <use xlink:href="#DejaVuSans-2212"/>
       <use xlink:href="#DejaVuSans-31" transform="translate(83.789062 0)"/>
       <use xlink:href="#DejaVuSans-30" transform="translate(147.412109 0)"/>
       <use xlink:href="#DejaVuSans-30" transform="translate(211.035156 0)"/>
      </g>
     </g>
    </g>
    <g id="xtick_13">
     <g id="line2d_30">
      <g>
       <use xlink:href="#m0dddb7571f" x="195.578182" y="307.584" style="stroke: #000000; stroke-width: 0.8"/>
      </g>
     </g>
     <g id="text_18">
      <!-- −50 -->
      <g transform="translate(185.025838 322.182437) scale(0.1 -0.1)">
       <use xlink:href="#DejaVuSans-2212"/>
       <use xlink:href="#DejaVuSans-35" transform="translate(83.789062 0)"/>
       <use xlink:href="#DejaVuSans-30" transform="translate(147.412109 0)"/>
      </g>
     </g>
    </g>
    <g id="xtick_14">
     <g id="line2d_31">
      <g>
       <use xlink:href="#m0dddb7571f" x="236.16" y="307.584" style="stroke: #000000; stroke-width: 0.8"/>
      </g>
     </g>
     <g id="text_19">
      <!-- 0 -->
      <g transform="translate(232.97875 322.182437) scale(0.1 -0.1)">
       <use xlink:href="#DejaVuSans-30"/>
      </g>
     </g>
    </g>
    <g id="xtick_15">
     <g id="line2d_32">
      <g>
       <use xlink:href="#m0dddb7571f" x="276.741818" y="307.584" style="stroke: #000000; stroke-width: 0.8"/>
      </g>
     </g>
     <g id="text_20">
      <!-- 50 -->
      <g transform="translate(270.379318 322.182437) scale(0.1 -0.1)">
       <use xlink:href="#DejaVuSans-35"/>
       <use xlink:href="#DejaVuSans-30" transform="translate(63.623047 0)"/>
      </g>
     </g>
    </g>
    <g id="xtick_16">
     <g id="line2d_33">
      <g>
       <use xlink:href="#m0dddb7571f" x="317.323636" y="307.584" style="stroke: #000000; stroke-width: 0.8"/>
      </g>
     </g>
     <g id="text_21">
      <!-- 100 -->
      <g transform="translate(307.779886 322.182437) scale(0.1 -0.1)">
       <use xlink:href="#DejaVuSans-31"/>
       <use xlink:href="#DejaVuSans-30" transform="translate(63.623047 0)"/>
       <use xlink:href="#DejaVuSans-30" transform="translate(127.246094 0)"/>
      </g>
     </g>
    </g>
    <g id="xtick_17">
     <g id="line2d_34">
      <g>
       <use xlink:href="#m0dddb7571f" x="357.905455" y="307.584" style="stroke: #000000; stroke-width: 0.8"/>
      </g>
     </g>
     <g id="text_22">
      <!-- 150 -->
      <g transform="translate(348.361705 322.182437) scale(0.1 -0.1)">
       <use xlink:href="#DejaVuSans-31"/>
       <use xlink:href="#DejaVuSans-35" transform="translate(63.623047 0)"/>
       <use xlink:href="#DejaVuSans-30" transform="translate(127.246094 0)"/>
      </g>
     </g>
    </g>
    <g id="xtick_18">
     <g id="line2d_35">
      <g>
       <use xlink:href="#m0dddb7571f" x="398.487273" y="307.584" style="stroke: #000000; stroke-width: 0.8"/>
      </g>
     </g>
     <g id="text_23">
      <!-- 200 -->
      <g transform="translate(388.943523 322.182437) scale(0.1 -0.1)">
       <use xlink:href="#DejaVuSans-32"/>
       <use xlink:href="#DejaVuSans-30" transform="translate(63.623047 0)"/>
       <use xlink:href="#DejaVuSans-30" transform="translate(127.246094 0)"/>
      </g>
     </g>
    </g>
   </g>
   <g id="matplotlib.axis_4">
    <g id="ytick_6">
     <g id="line2d_36">
      <g>
       <use xlink:href="#m56890049e9" x="57.6" y="277.844904" style="stroke: #000000; stroke-width: 0.8"/>
      </g>
     </g>
     <g id="text_24">
      <!-- −0.2 -->
      <g transform="translate(26.317187 281.644123) scale(0.1 -0.1)">
       <use xlink:href="#DejaVuSans-2212"/>
       <use xlink:href="#DejaVuSans-30" transform="translate(83.789062 0)"/>
       <use xlink:href="#DejaVuSans-2e" transform="translate(147.412109 0)"/>
       <use xlink:href="#DejaVuSans-32" transform="translate(179.199219 0)"/>
      </g>
     </g>
    </g>
    <g id="ytick_7">
     <g id="line2d_37">
      <g>
       <use xlink:href="#m56890049e9" x="57.6" y="247.104" style="stroke: #000000; stroke-width: 0.8"/>
      </g>
     </g>
     <g id="text_25">
      <!-- 0.0 -->
      <g transform="translate(34.696875 250.903219) scale(0.1 -0.1)">
       <use xlink:href="#DejaVuSans-30"/>
       <use xlink:href="#DejaVuSans-2e" transform="translate(63.623047 0)"/>
       <use xlink:href="#DejaVuSans-30" transform="translate(95.410156 0)"/>
      </g>
     </g>
    </g>
    <g id="ytick_8">
     <g id="line2d_38">
      <g>
       <use xlink:href="#m56890049e9" x="57.6" y="216.363096" style="stroke: #000000; stroke-width: 0.8"/>
      </g>
     </g>
     <g id="text_26">
      <!-- 0.2 -->
      <g transform="translate(34.696875 220.162315) scale(0.1 -0.1)">
       <use xlink:href="#DejaVuSans-30"/>
       <use xlink:href="#DejaVuSans-2e" transform="translate(63.623047 0)"/>
       <use xlink:href="#DejaVuSans-32" transform="translate(95.410156 0)"/>
      </g>
     </g>
    </g>
   </g>
   <g id="line2d_39">
    <path d="M 236.244664 246.299979 
L 236.251074 246.215599 
L 236.257968 246.085193 
L 236.265385 246.069851 
L 236.273362 245.939445 
L 236.281944 245.908762 
L 236.291176 245.770685 
L 236.301106 245.709317 
L 236.311788 245.578912 
L 236.323279 245.425493 
L 236.335639 245.356455 
L 236.348936 245.218378 
L 236.363238 245.064959 
L 236.378624 244.911541 
L 236.395174 244.735109 
L 236.412978 244.543336 
L 236.432129 244.351563 
L 236.452729 244.144447 
L 236.47489 243.906648 
L 236.498728 243.645837 
L 236.52437 243.369683 
L 236.551954 243.070517 
L 236.581625 242.732996 
L 236.613543 242.372462 
L 236.647878 241.981245 
L 236.684811 241.536331 
L 236.72454 241.068404 
L 236.767277 240.554451 
L 236.81325 239.979131 
L 236.862702 239.365457 
L 236.915898 238.667402 
L 236.973122 237.954006 
L 237.034677 237.470737 
L 237.100892 237.202254 
L 237.17212 237.041165 
L 237.248739 236.972126 
L 237.331159 236.972126 
L 237.419819 237.033494 
L 237.51519 237.133216 
L 237.617781 237.294305 
L 237.728138 237.440053 
L 237.84685 237.624155 
L 237.974548 237.854283 
L 238.111914 238.07674 
L 238.259678 238.32221 
L 238.418629 238.575351 
L 238.589612 238.859175 
L 238.773539 239.127658 
L 238.97139 239.411483 
L 239.184219 239.702978 
L 239.413159 239.994473 
L 239.65943 240.270627 
L 239.924345 240.577464 
L 240.209315 240.853618 
L 240.515857 241.129771 
L 240.845606 241.413596 
L 241.200317 241.689749 
L 241.58188 241.950561 
L 241.992329 242.219044 
L 242.433849 242.464513 
L 242.908794 242.694641 
L 243.419693 242.955453 
L 243.969269 243.162568 
L 244.560448 243.377354 
L 245.196381 243.584469 
L 245.880456 243.791584 
L 246.616316 243.975687 
L 247.407884 244.16746 
L 248.259374 244.313208 
L 249.175324 244.49731 
L 250.160614 244.643058 
L 251.220492 244.781135 
L 252.360606 244.926882 
L 253.587029 245.07263 
L 254.906295 245.195365 
L 256.325432 245.287416 
L 257.852001 245.410151 
L 259.494136 245.532886 
L 261.595835 245.617266 
L 263.521386 245.747672 
L 265.592706 245.801369 
L 267.507335 245.916433 
L 270.217626 245.931774 
L 272.795866 246.085193 
L 275.308709 246.085193 
L 278.552657 246.192586 
L 281.761878 246.261624 
L 285.33623 246.253954 
L 288.927548 246.353676 
L 292.880347 246.422714 
L 297.219197 246.422714 
L 301.986922 246.450841 
L 306.57979 246.532408 
L 311.160674 246.591475 
" clip-path="url(#p743b4250ea)" style="fill: none; stroke: #1f77b4; stroke-width: 1.5; stroke-linecap: square"/>
   </g>
   <g id="line2d_40">
    <path d="M 73.832727 247.380591 
L 151.788796 247.623736 
L 183.945675 247.923981 
L 200.511339 248.276067 
L 210.580665 248.694718 
L 217.077004 249.175864 
L 221.462033 249.711432 
L 224.547794 250.293765 
L 226.983921 250.976454 
L 228.770414 251.691811 
L 230.232091 252.491829 
L 231.531358 253.455187 
L 232.505809 254.4224 
L 233.48026 255.704221 
L 234.941936 258.066228 
L 235.104345 258.013791 
L 235.266753 257.437913 
L 235.59157 253.613614 
L 236.403613 244.476086 
L 237.215655 236.194209 
L 237.378064 236.141772 
L 237.702881 236.559673 
L 239.326965 239.191004 
L 240.301416 240.30177 
L 241.438276 241.272005 
L 242.737543 242.101215 
L 244.361628 242.870586 
L 246.31053 243.536669 
L 248.746657 244.124503 
L 251.994827 244.660614 
L 256.379855 245.136576 
L 262.388969 245.549228 
L 271.159027 245.911761 
L 284.63893 246.224713 
L 306.401666 246.484926 
L 345.054884 246.69707 
L 398.487273 246.827409 
L 398.487273 246.827409 
" clip-path="url(#p743b4250ea)" style="fill: none; stroke-dasharray: 5.55,2.4; stroke-dashoffset: 0; stroke: #ff7f0e; stroke-width: 1.5"/>
   </g>
   <g id="line2d_41">
    <path d="M 73.832727 247.381506 
L 155.361783 247.647795 
L 185.082534 247.944456 
L 202.460241 248.342988 
L 211.392707 248.747821 
L 217.401821 249.216211 
L 221.78685 249.773003 
L 224.872611 250.384517 
L 227.14633 251.048489 
L 228.932823 251.789543 
L 230.394499 252.620259 
L 231.693767 253.626585 
L 232.668218 254.640304 
L 233.642669 255.975565 
L 234.941936 257.978084 
L 235.104345 257.971332 
L 235.266753 257.569335 
L 236.72843 240.580387 
L 237.053247 236.638665 
L 237.215655 236.236668 
L 237.378064 236.229916 
L 237.702881 236.613137 
L 239.651782 239.567696 
L 240.788642 240.726243 
L 242.087909 241.692749 
L 243.549586 242.496601 
L 245.336079 243.215484 
L 247.609798 243.863214 
L 250.370742 244.408185 
L 253.943728 244.889597 
L 259.303208 245.355683 
L 267.261223 245.769736 
L 279.279451 246.118393 
L 297.794017 246.400446 
L 331.250163 246.638973 
L 397.188005 246.824192 
L 398.487273 246.826494 
L 398.487273 246.826494 
" clip-path="url(#p743b4250ea)" style="fill: none; stroke-dasharray: 1.5,2.475; stroke-dashoffset: 0; stroke: #2ca02c; stroke-width: 1.5"/>
   </g>
   <g id="line2d_42">
    <path d="M 236.245228 245.241391 
L 236.266086 244.811818 
L 236.271498 244.735109 
L 236.286896 244.351563 
L 236.295151 244.186637 
L 236.31587 243.737888 
L 236.326009 243.522143 
L 236.351459 242.970795 
L 236.363914 242.699436 
L 236.395174 242.019599 
L 236.410473 241.707968 
L 236.446961 240.853618 
L 236.465628 240.473907 
L 236.510151 239.442166 
L 236.532929 238.96561 
L 236.584432 237.708536 
L 236.612041 237.098697 
L 236.67447 235.6067 
L 236.706122 234.86262 
L 236.779485 232.983242 
L 236.81542 232.106199 
L 236.891237 230.091301 
L 236.933655 228.998193 
L 237.023148 227.022928 
L 237.079297 226.466785 
L 237.213218 225.757224 
L 237.281731 225.580793 
L 237.453697 225.504083 
L 237.537853 225.644078 
L 237.749083 225.948997 
L 237.852455 226.182002 
L 238.111914 226.800471 
L 238.238888 227.099637 
L 238.541736 227.882072 
L 238.69667 228.259866 
L 239.085551 229.193802 
L 239.265543 229.594882 
L 239.70617 230.58224 
L 239.936852 231.012771 
L 240.487056 232.070401 
L 240.768536 232.521068 
L 241.439898 233.589245 
L 241.783361 234.029365 
L 242.60256 235.100419 
L 243.021656 235.537662 
L 244.021247 236.550225 
L 244.53263 236.972126 
L 245.752337 237.90798 
L 246.376329 238.28002 
L 247.864622 239.173684 
L 248.626021 239.524629 
L 250.442044 240.308982 
L 251.371107 240.611024 
L 253.703024 241.313874 
L 254.844217 241.61304 
L 257.708574 242.226714 
L 259.110332 242.46739 
L 262.628699 242.993808 
L 264.350517 243.184622 
L 268.457252 243.691862 
L 270.558224 243.849116 
L 276.649099 244.219939 
L 284.088184 244.735109 
L 295.620245 245.193335 
L 299.952019 245.28313 
L 314.725677 245.578912 
" clip-path="url(#p743b4250ea)" style="fill: none; stroke: #d62728; stroke-width: 1.5; stroke-linecap: square"/>
   </g>
   <g id="line2d_43">
    <path d="M 73.832727 248.009418 
L 124.016947 248.394803 
L 155.036966 248.859774 
L 173.876349 249.355205 
L 187.031436 249.91181 
L 196.451127 250.519823 
L 203.5971 251.195363 
L 208.95658 251.911763 
L 213.179201 252.684647 
L 216.589779 253.520279 
L 219.350723 254.407213 
L 221.78685 255.422036 
L 223.735752 256.459917 
L 225.522245 257.660464 
L 227.14633 259.035346 
L 228.608006 260.576448 
L 230.069682 262.45784 
L 231.36895 264.455486 
L 232.668218 266.880664 
L 233.967486 269.836964 
L 234.779528 271.631646 
L 234.941936 271.710127 
L 235.104345 271.3254 
L 235.266753 269.849346 
L 235.59157 261.560528 
L 236.890838 227.793657 
L 237.215655 222.8826 
L 237.378064 222.497873 
L 237.540472 222.576354 
L 238.027697 223.577198 
L 239.814191 227.65856 
L 241.113459 230.022779 
L 242.575135 232.198348 
L 244.036811 234.002359 
L 245.498487 235.473389 
L 247.122572 236.78734 
L 248.909065 237.938375 
L 250.857967 238.937201 
L 253.131686 239.859719 
L 255.89263 240.7332 
L 259.140799 241.523353 
L 263.201011 242.270536 
L 268.235674 242.956562 
L 274.569605 243.582672 
L 282.690029 244.15148 
L 293.408988 244.668297 
L 308.025751 245.135701 
L 328.164402 245.545508 
L 357.073111 245.903355 
L 398.487273 246.198582 
L 398.487273 246.198582 
" clip-path="url(#p743b4250ea)" style="fill: none; stroke-dasharray: 5.55,2.4; stroke-dashoffset: 0; stroke: #9467bd; stroke-width: 1.5"/>
   </g>
   <g id="line2d_44">
    <path d="M 73.832727 248.013218 
L 127.91475 248.445386 
L 154.224923 248.851593 
L 173.389124 249.348593 
L 185.569759 249.848171 
L 196.451127 250.535346 
L 203.434692 251.19629 
L 209.443806 252.013608 
L 213.991243 252.891906 
L 217.077004 253.694391 
L 219.837948 254.628669 
L 221.949258 255.545146 
L 223.89816 256.608632 
L 225.684653 257.844031 
L 227.14633 259.102168 
L 228.608006 260.6527 
L 230.069682 262.54762 
L 231.36895 264.55954 
L 232.505809 266.663018 
L 233.805077 269.514206 
L 234.617119 271.24197 
L 234.941936 271.486386 
L 235.104345 271.200387 
L 235.266753 270.106339 
L 236.72843 232.678986 
L 237.053247 224.101661 
L 237.215655 223.007613 
L 237.378064 222.721614 
L 237.540472 222.75797 
L 237.865289 223.253341 
L 239.002148 225.811963 
L 240.463825 228.796767 
L 241.925501 231.190799 
L 243.387177 233.163595 
L 244.848854 234.788362 
L 246.31053 236.107029 
L 247.934615 237.290013 
L 249.721108 238.336419 
L 251.994827 239.386236 
L 254.755771 240.366774 
L 258.00394 241.240486 
L 261.25211 241.912962 
L 265.312322 242.563371 
L 271.321435 243.268767 
L 279.117042 243.910709 
L 287.399874 244.391105 
L 301.367004 244.938174 
L 319.231936 245.38018 
L 345.217292 245.772427 
L 385.657003 246.120236 
L 398.487273 246.194782 
L 398.487273 246.194782 
" clip-path="url(#p743b4250ea)" style="fill: none; stroke-dasharray: 1.5,2.475; stroke-dashoffset: 0; stroke: #8c564b; stroke-width: 1.5"/>
   </g>
   <g id="line2d_45">
    <path d="M 236.242721 243.385025 
L 236.253523 242.924769 
L 236.259606 242.667793 
L 236.271498 242.077131 
L 236.286896 241.421267 
L 236.294703 241.070595 
L 236.310784 240.347336 
L 236.33104 239.442166 
L 236.341563 238.973144 
L 236.362565 238.026879 
L 236.389016 236.834049 
L 236.403106 236.224758 
L 236.429434 234.98919 
L 236.462602 233.497194 
L 236.481219 232.716951 
L 236.513653 231.192079 
L 236.554562 229.278182 
L 236.574232 228.674735 
L 236.612041 226.530071 
L 236.660997 224.315089 
L 236.688304 223.11689 
L 236.730186 221.15083 
L 236.783608 218.577232 
L 236.81542 217.311528 
L 236.858056 215.258276 
L 236.92093 212.563222 
L 236.957099 211.320531 
L 237.014602 209.337595 
L 237.100892 207.132202 
L 237.155472 206.201462 
L 237.259627 204.928727 
L 237.411489 204.163552 
L 237.488486 203.991504 
L 237.656982 203.895069 
L 237.858078 203.994791 
L 237.968539 204.127115 
L 238.191174 204.485731 
L 238.46403 205.015025 
L 238.61391 205.318986 
L 238.915991 205.948322 
L 239.286214 206.771668 
L 239.478552 207.185899 
L 239.862429 208.156272 
L 240.345883 209.188012 
L 240.618179 209.770044 
L 241.117413 210.856439 
L 241.72768 212.210359 
L 242.070227 212.899647 
L 242.710301 214.168364 
L 243.516656 215.692962 
L 243.969269 216.443617 
L 244.815006 217.81781 
L 245.816184 219.428706 
L 246.410273 220.21662 
L 247.48275 221.643048 
L 248.834493 223.24883 
L 249.614281 224.049894 
L 250.972775 225.412032 
L 252.796258 226.969231 
L 253.819791 227.702353 
L 255.732333 228.998193 
L 258.141728 230.474847 
L 259.494136 231.137835 
L 262.021205 232.352308 
L 265.204773 233.596916 
L 267.094167 234.208673 
L 270.558224 235.326711 
L 275.049857 236.381465 
L 277.579685 236.898294 
L 282.370953 237.787802 
L 288.578647 238.72877 
L 291.803662 239.12985 
L 298.446566 239.869181 
L 306.813759 240.62349 
L 311.409863 240.948545 
" clip-path="url(#p743b4250ea)" style="fill: none; stroke: #e377c2; stroke-width: 1.5; stroke-linecap: square"/>
   </g>
   <g id="line2d_46">
    <path d="M 73.832727 251.315796 
L 98.681224 252.030379 
L 119.956735 252.874959 
L 135.710357 253.719018 
L 148.540627 254.617613 
L 158.934769 255.548201 
L 168.841686 256.685912 
L 175.500434 257.637046 
L 183.133632 259.002357 
L 189.305154 260.396178 
L 194.015 261.709864 
L 198.237621 263.128945 
L 201.648199 264.496394 
L 204.73396 265.955541 
L 207.657312 267.586659 
L 210.255848 269.293884 
L 212.691975 271.173636 
L 214.803285 273.07866 
L 216.752187 275.120479 
L 218.701089 277.499038 
L 220.487582 280.042984 
L 222.111667 282.720907 
L 223.735752 285.807545 
L 225.359836 289.347176 
L 227.471146 294.556547 
L 229.420048 299.274367 
L 230.232091 300.684058 
L 230.881724 301.397301 
L 231.36895 301.674587 
L 231.856175 301.720529 
L 232.343401 301.532312 
L 232.830626 301.120049 
L 233.642669 300.053679 
L 234.779528 298.493293 
L 234.941936 297.933289 
L 235.104345 296.572088 
L 235.266753 293.277732 
L 235.59157 277.40252 
L 237.053247 200.930268 
L 237.378064 196.274711 
L 237.702881 195.437874 
L 238.83974 193.917612 
L 239.651782 192.927116 
L 240.139008 192.587187 
L 240.626233 192.476719 
L 241.113459 192.60051 
L 241.600684 192.953004 
L 242.250318 193.761239 
L 242.899952 194.933633 
L 244.036811 197.582909 
L 247.609798 206.332059 
L 249.396291 209.998351 
L 251.182784 213.139149 
L 252.969277 215.827999 
L 254.918179 218.335661 
L 256.867081 220.481931 
L 258.978391 222.478333 
L 261.25211 224.321196 
L 263.688237 226.012536 
L 266.449181 227.648722 
L 269.372534 229.124934 
L 272.458295 230.456709 
L 275.868873 231.715047 
L 279.766676 232.936523 
L 284.476522 234.171087 
L 290.323227 235.43547 
L 296.819566 236.570954 
L 302.666271 237.419379 
L 312.735597 238.592299 
L 322.155289 239.460314 
L 334.335924 240.344917 
L 348.303053 241.136287 
L 367.304845 241.953068 
L 386.793862 242.586251 
L 398.487273 242.892204 
L 398.487273 242.892204 
" clip-path="url(#p743b4250ea)" style="fill: none; stroke-dasharray: 5.55,2.4; stroke-dashoffset: 0; stroke: #7f7f7f; stroke-width: 1.5"/>
   </g>
   <g id="line2d_47">
    <path d="M 73.832727 251.333904 
L 98.356407 252.039423 
L 130.838103 253.460099 
L 141.394654 254.111923 
L 153.737698 255.088505 
L 160.883671 255.789878 
L 168.029644 256.621962 
L 173.551532 257.383511 
L 182.32159 258.891102 
L 187.356253 259.975493 
L 190.766831 260.83777 
L 197.26317 262.840986 
L 201.323382 264.437726 
L 204.084326 265.712464 
L 206.358044 266.918506 
L 209.118989 268.615709 
L 211.555116 270.369171 
L 213.179201 271.707807 
L 214.965694 273.363794 
L 216.752187 275.256372 
L 218.701089 277.649867 
L 220.325173 279.962569 
L 221.78685 282.341779 
L 223.410935 285.354929 
L 225.359836 289.581994 
L 227.308738 294.407416 
L 229.25764 299.244782 
L 230.069682 300.773902 
L 230.719316 301.593118 
L 231.206541 301.958599 
L 231.693767 302.085818 
L 232.180992 301.976758 
L 232.668218 301.622057 
L 233.155443 301.030494 
L 233.967486 299.685374 
L 234.779528 297.982777 
L 234.941936 297.386896 
L 235.104345 296.339517 
L 235.266753 293.975965 
L 236.078796 251.124166 
L 237.215655 197.868483 
L 237.540472 196.225223 
L 238.190106 194.825608 
L 239.164557 193.177506 
L 239.814191 192.448448 
L 240.301416 192.171536 
L 240.788642 192.138426 
L 241.275867 192.345862 
L 241.763092 192.779073 
L 242.412726 193.697141 
L 243.06236 194.963218 
L 244.361628 198.119979 
L 247.284981 205.380605 
L 249.071474 209.170578 
L 250.53315 211.866221 
L 251.832418 214.001018 
L 253.943728 216.984853 
L 256.055038 219.49115 
L 257.841532 221.322344 
L 260.440067 223.587482 
L 262.551378 225.158537 
L 265.799547 227.196286 
L 268.560491 228.65289 
L 270.83421 229.702109 
L 275.219239 231.423509 
L 279.441859 232.77658 
L 285.938198 234.456 
L 291.947312 235.690373 
L 296.494749 236.474553 
L 304.127948 237.566858 
L 316.958217 238.975008 
L 332.062206 240.167584 
L 353.012899 241.343857 
L 377.374171 242.28341 
L 398.487273 242.874096 
L 398.487273 242.874096 
" clip-path="url(#p743b4250ea)" style="fill: none; stroke-dasharray: 1.5,2.475; stroke-dashoffset: 0; stroke: #bcbd22; stroke-width: 1.5"/>
   </g>
   <g id="patch_8">
    <path d="M 57.6 307.584 
L 57.6 186.624 
" style="fill: none; stroke: #000000; stroke-width: 0.8; stroke-linejoin: miter; stroke-linecap: square"/>
   </g>
   <g id="patch_9">
    <path d="M 414.72 307.584 
L 414.72 186.624 
" style="fill: none; stroke: #000000; stroke-width: 0.8; stroke-linejoin: miter; stroke-linecap: square"/>
   </g>
   <g id="patch_10">
    <path d="M 57.6 307.584 
L 414.72 307.584 
" style="fill: none; stroke: #000000; stroke-width: 0.8; stroke-linejoin: miter; stroke-linecap: square"/>
   </g>
   <g id="patch_11">
    <path d="M 57.6 186.624 
L 414.72 186.624 
" style="fill: none; stroke: #000000; stroke-width: 0.8; stroke-linejoin: miter; stroke-linecap: square"/>
   </g>
  </g>
 </g>
 <defs>
  <clipPath id="p34abc62267">
   <rect x="57.6" y="41.472" width="357.12" height="120.96"/>
  </clipPath>
  <clipPath id="p743b4250ea">
   <rect x="57.6" y="186.624" width="357.12" height="120.96"/>
  </clipPath>
 </defs>
</svg>
