<?xml version="1.0" encoding="utf-8" standalone="no"?>
<!DOCTYPE svg PUBLIC "-//W3C//DTD SVG 1.1//EN"
  "http://www.w3.org/Graphics/SVG/1.1/DTD/svg11.dtd">
<svg xmlns:xlink="http://www.w3.org/1999/xlink" width="576pt" height="288pt" viewBox="0 0 576 288" xmlns="http://www.w3.org/2000/svg" version="1.1">
 <metadata>
  <rdf:RDF xmlns:dc="http://purl.org/dc/elements/1.1/" xmlns:cc="http://creativecommons.org/ns#" xmlns:rdf="http://www.w3.org/1999/02/22-rdf-syntax-ns#">
   <cc:Work>
    <dc:type rdf:resource="http://purl.org/dc/dcmitype/StillImage"/>
    <dc:date>2026-03-09T08:50:44.578305</dc:date>
    <dc:format>image/svg+xml</dc:format>
    <dc:creator>
     <cc:Agent>
      <dc:title>Matplotlib v3.10.8, https://matplotlib.org/</dc:title>
     </cc:Agent>
    </dc:creator>
   </cc:Work>
  </rdf:RDF>
 </metadata>
 <defs>
  <style type="text/css">*{stroke-linejoin: round; stroke-linecap: butt}</style>
 </defs>
 <g id="figure_1">
  <g id="patch_1">
   <path d="M 0 288 
L 576 288 
L 576 0 
L 0 0 
z
" style="fill: #ffffff"/>
  </g>
  <g id="axes_1">
   <g id="patch_2">
    <path d="M 50.6 244.024 
L 275.526 244.024 
L 275.526 38.52 
L 50.6 38.52 
z
" style="fill: #ffffff"/>
   </g>
   <g id="matplotlib.axis_1">
    <g id="xtick_1">
     <g id="line2d_1">
      <defs>
       <path id="m2011da657e" d="M 0 0 
L 0 3.5 
" style="stroke: #000000; stroke-width: 0.8"/>
      </defs>
      <g>
       <use xlink:href="#m2011da657e" x="50.6" y="244.024" style="stroke: #000000; stroke-width: 0.8"/>
      </g>
     </g>
     <g id="text_1">
      <!-- 0.0 -->
      <g transform="translate(42.648438 258.622437) scale(0.1 -0.1)">
       <defs>
        <path id="DejaVuSans-30" d="M 2034 4250 
Q 1547 4250 1301 3770 
Q 1056 3291 1056 2328 
Q 1056 1369 1301 889 
Q 1547 409 2034 409 
Q 2525 409 2770 889 
Q 3016 1369 3016 2328 
Q 3016 3291 2770 3770 
Q 2525 4250 2034 4250 
z
M 2034 4750 
Q 2819 4750 3233 4129 
Q 3647 3509 3647 2328 
Q 3647 1150 3233 529 
Q 2819 -91 2034 -91 
Q 1250 -91 836 529 
Q 422 1150 422 2328 
Q 422 3509 836 4129 
Q 1250 4750 2034 4750 
z
" transform="scale(0.015625)"/>
        <path id="DejaVuSans-2e" d="M 684 794 
L 1344 794 
L 1344 0 
L 684 0 
L 684 794 
z
" transform="scale(0.015625)"/>
       </defs>
       <use xlink:href="#DejaVuSans-30"/>
       <use xlink:href="#DejaVuSans-2e" transform="translate(63.623047 0)"/>
       <use xlink:href="#DejaVuSans-30" transform="translate(95.410156 0)"/>
      </g>
     </g>
    </g>
    <g id="xtick_2">
     <g id="line2d_2">
      <g>
       <use xlink:href="#m2011da657e" x="82.732286" y="244.024" style="stroke: #000000; stroke-width: 0.8"/>
      </g>
     </g>
     <g id="text_2">
      <!-- 0.5 -->
      <g transform="translate(74.780723 258.622437) scale(0.1 -0.1)">
       <defs>
        <path id="DejaVuSans-35" d="M 691 4666 
L 3169 4666 
L 3169 4134 
L 1269 4134 
L 1269 2991 
Q 1406 3038 1543 3061 
Q 1681 3084 1819 3084 
Q 2600 3084 3056 2656 
Q 3513 2228 3513 1497 
Q 3513 744 3044 326 
Q 2575 -91 1722 -91 
Q 1428 -91 1123 -41 
Q 819 9 494 109 
L 494 744 
Q 775 591 1075 516 
Q 1375 441 1709 441 
Q 2250 441 2565 725 
Q 2881 1009 2881 1497 
Q 2881 1984 2565 2268 
Q 2250 2553 1709 2553 
Q 1456 2553 1204 2497 
Q 953 2441 691 2322 
L 691 4666 
z
" transform="scale(0.015625)"/>
       </defs>
       <use xlink:href="#DejaVuSans-30"/>
       <use xlink:href="#DejaVuSans-2e" transform="translate(63.623047 0)"/>
       <use xlink:href="#DejaVuSans-35" transform="translate(95.410156 0)"/>
      </g>
     </g>
    </g>
    <g id="xtick_3">
     <g id="line2d_3">
      <g>
       <use xlink:href="#m2011da657e" x="114.864571" y="244.024" style="stroke: #000000; stroke-width: 0.8"/>
      </g>
     </g>
     <g id="text_3">
      <!-- 1.0 -->
      <g transform="translate(106.913009 258.622437) scale(0.1 -0.1)">
       <defs>
        <path id="DejaVuSans-31" d="M 794 531 
L 1825 531 
L 1825 4091 
L 703 3866 
L 703 4441 
L 1819 4666 
L 2450 4666 
L 2450 531 
L 3481 531 
L 3481 0 
L 794 0 
L 794 531 
z
" transform="scale(0.015625)"/>
       </defs>
       <use xlink:href="#DejaVuSans-31"/>
       <use xlink:href="#DejaVuSans-2e" transform="translate(63.623047 0)"/>
       <use xlink:href="#DejaVuSans-30" transform="translate(95.410156 0)"/>
      </g>
     </g>
    </g>
    <g id="xtick_4">
     <g id="line2d_4">
      <g>
       <use xlink:href="#m2011da657e" x="146.996857" y="244.024" style="stroke: #000000; stroke-width: 0.8"/>
      </g>
     </g>
     <g id="text_4">
      <!-- 1.5 -->
      <g transform="translate(139.045295 258.622437) scale(0.1 -0.1)">
       <use xlink:href="#DejaVuSans-31"/>
       <use xlink:href="#DejaVuSans-2e" transform="translate(63.623047 0)"/>
       <use xlink:href="#DejaVuSans-35" transform="translate(95.410156 0)"/>
      </g>
     </g>
    </g>
    <g id="xtick_5">
     <g id="line2d_5">
      <g>
       <use xlink:href="#m2011da657e" x="179.129143" y="244.024" style="stroke: #000000; stroke-width: 0.8"/>
      </g>
     </g>
     <g id="text_5">
      <!-- 2.0 -->
      <g transform="translate(171.17758 258.622437) scale(0.1 -0.1)">
       <defs>
        <path id="DejaVuSans-32" d="M 1228 531 
L 3431 531 
L 3431 0 
L 469 0 
L 469 531 
Q 828 903 1448 1529 
Q 2069 2156 2228 2338 
Q 2531 2678 2651 2914 
Q 2772 3150 2772 3378 
Q 2772 3750 2511 3984 
Q 2250 4219 1831 4219 
Q 1534 4219 1204 4116 
Q 875 4013 500 3803 
L 500 4441 
Q 881 4594 1212 4672 
Q 1544 4750 1819 4750 
Q 2544 4750 2975 4387 
Q 3406 4025 3406 3419 
Q 3406 3131 3298 2873 
Q 3191 2616 2906 2266 
Q 2828 2175 2409 1742 
Q 1991 1309 1228 531 
z
" transform="scale(0.015625)"/>
       </defs>
       <use xlink:href="#DejaVuSans-32"/>
       <use xlink:href="#DejaVuSans-2e" transform="translate(63.623047 0)"/>
       <use xlink:href="#DejaVuSans-30" transform="translate(95.410156 0)"/>
      </g>
     </g>
    </g>
    <g id="xtick_6">
     <g id="line2d_6">
      <g>
       <use xlink:href="#m2011da657e" x="211.261429" y="244.024" style="stroke: #000000; stroke-width: 0.8"/>
      </g>
     </g>
     <g id="text_6">
      <!-- 2.5 -->
      <g transform="translate(203.309866 258.622437) scale(0.1 -0.1)">
       <use xlink:href="#DejaVuSans-32"/>
       <use xlink:href="#DejaVuSans-2e" transform="translate(63.623047 0)"/>
       <use xlink:href="#DejaVuSans-35" transform="translate(95.410156 0)"/>
      </g>
     </g>
    </g>
    <g id="xtick_7">
     <g id="line2d_7">
      <g>
       <use xlink:href="#m2011da657e" x="243.393714" y="244.024" style="stroke: #000000; stroke-width: 0.8"/>
      </g>
     </g>
     <g id="text_7">
      <!-- 3.0 -->
      <g transform="translate(235.442152 258.622437) scale(0.1 -0.1)">
       <defs>
        <path id="DejaVuSans-33" d="M 2597 2516 
Q 3050 2419 3304 2112 
Q 3559 1806 3559 1356 
Q 3559 666 3084 287 
Q 2609 -91 1734 -91 
Q 1441 -91 1130 -33 
Q 819 25 488 141 
L 488 750 
Q 750 597 1062 519 
Q 1375 441 1716 441 
Q 2309 441 2620 675 
Q 2931 909 2931 1356 
Q 2931 1769 2642 2001 
Q 2353 2234 1838 2234 
L 1294 2234 
L 1294 2753 
L 1863 2753 
Q 2328 2753 2575 2939 
Q 2822 3125 2822 3475 
Q 2822 3834 2567 4026 
Q 2313 4219 1838 4219 
Q 1578 4219 1281 4162 
Q 984 4106 628 3988 
L 628 4550 
Q 988 4650 1302 4700 
Q 1616 4750 1894 4750 
Q 2613 4750 3031 4423 
Q 3450 4097 3450 3541 
Q 3450 3153 3228 2886 
Q 3006 2619 2597 2516 
z
" transform="scale(0.015625)"/>
       </defs>
       <use xlink:href="#DejaVuSans-33"/>
       <use xlink:href="#DejaVuSans-2e" transform="translate(63.623047 0)"/>
       <use xlink:href="#DejaVuSans-30" transform="translate(95.410156 0)"/>
      </g>
     </g>
    </g>
    <g id="xtick_8">
     <g id="line2d_8">
      <g>
       <use xlink:href="#m2011da657e" x="275.526" y="244.024" style="stroke: #000000; stroke-width: 0.8"/>
      </g>
     </g>
     <g id="text_8">
      <!-- 3.5 -->
      <g transform="translate(267.574437 258.622437) scale(0.1 -0.1)">
       <use xlink:href="#DejaVuSans-33"/>
       <use xlink:href="#DejaVuSans-2e" transform="translate(63.623047 0)"/>
       <use xlink:href="#DejaVuSans-35" transform="translate(95.410156 0)"/>
      </g>
     </g>
    </g>
    <g id="text_9">
     <!-- $r [d_i]$ -->
     <g transform="translate(152.813 272.300563) scale(0.1 -0.1)">
      <defs>
       <path id="DejaVuSans-Oblique-72" d="M 2853 2969 
Q 2766 3016 2653 3041 
Q 2541 3066 2413 3066 
Q 1953 3066 1609 2717 
Q 1266 2369 1153 1784 
L 800 0 
L 225 0 
L 909 3500 
L 1484 3500 
L 1375 2956 
Q 1603 3259 1920 3421 
Q 2238 3584 2597 3584 
Q 2691 3584 2781 3573 
Q 2872 3563 2963 3538 
L 2853 2969 
z
" transform="scale(0.015625)"/>
       <path id="DejaVuSans-5b" d="M 550 4863 
L 1875 4863 
L 1875 4416 
L 1125 4416 
L 1125 -397 
L 1875 -397 
L 1875 -844 
L 550 -844 
L 550 4863 
z
" transform="scale(0.015625)"/>
       <path id="DejaVuSans-Oblique-64" d="M 2675 525 
Q 2444 222 2128 65 
Q 1813 -91 1428 -91 
Q 903 -91 598 267 
Q 294 625 294 1247 
Q 294 1766 478 2236 
Q 663 2706 1013 3078 
Q 1244 3325 1534 3454 
Q 1825 3584 2144 3584 
Q 2481 3584 2739 3421 
Q 2997 3259 3138 2956 
L 3513 4863 
L 4091 4863 
L 3144 0 
L 2566 0 
L 2675 525 
z
M 891 1350 
Q 891 897 1095 644 
Q 1300 391 1663 391 
Q 1931 391 2161 520 
Q 2391 650 2566 903 
Q 2750 1166 2856 1509 
Q 2963 1853 2963 2188 
Q 2963 2622 2758 2865 
Q 2553 3109 2194 3109 
Q 1922 3109 1687 2981 
Q 1453 2853 1288 2613 
Q 1106 2353 998 2009 
Q 891 1666 891 1350 
z
" transform="scale(0.015625)"/>
       <path id="DejaVuSans-Oblique-69" d="M 1172 4863 
L 1747 4863 
L 1606 4134 
L 1031 4134 
L 1172 4863 
z
M 909 3500 
L 1484 3500 
L 800 0 
L 225 0 
L 909 3500 
z
" transform="scale(0.015625)"/>
       <path id="DejaVuSans-5d" d="M 1947 4863 
L 1947 -844 
L 622 -844 
L 622 -397 
L 1369 -397 
L 1369 4416 
L 622 4416 
L 622 4863 
L 1947 4863 
z
" transform="scale(0.015625)"/>
      </defs>
      <use xlink:href="#DejaVuSans-Oblique-72" transform="translate(0 0.015625)"/>
      <use xlink:href="#DejaVuSans-5b" transform="translate(41.113281 0.015625)"/>
      <use xlink:href="#DejaVuSans-Oblique-64" transform="translate(80.126953 0.015625)"/>
      <use xlink:href="#DejaVuSans-Oblique-69" transform="translate(143.603516 -16.390625) scale(0.7)"/>
      <use xlink:href="#DejaVuSans-5d" transform="translate(165.786133 0.015625)"/>
     </g>
    </g>
   </g>
   <g id="matplotlib.axis_2">
    <g id="ytick_1">
     <g id="line2d_9">
      <defs>
       <path id="mc65592a5ac" d="M 0 0 
L -3.5 0 
" style="stroke: #000000; stroke-width: 0.8"/>
      </defs>
      <g>
       <use xlink:href="#mc65592a5ac" x="50.6" y="244.024" style="stroke: #000000; stroke-width: 0.8"/>
      </g>
     </g>
     <g id="text_10">
      <!-- 0.0 -->
      <g transform="translate(27.696875 247.823219) scale(0.1 -0.1)">
       <use xlink:href="#DejaVuSans-30"/>
       <use xlink:href="#DejaVuSans-2e" transform="translate(63.623047 0)"/>
       <use xlink:href="#DejaVuSans-30" transform="translate(95.410156 0)"/>
      </g>
     </g>
    </g>
    <g id="ytick_2">
     <g id="line2d_10">
      <g>
       <use xlink:href="#mc65592a5ac" x="50.6" y="216.623467" style="stroke: #000000; stroke-width: 0.8"/>
      </g>
     </g>
     <g id="text_11">
      <!-- 0.2 -->
      <g transform="translate(27.696875 220.422685) scale(0.1 -0.1)">
       <use xlink:href="#DejaVuSans-30"/>
       <use xlink:href="#DejaVuSans-2e" transform="translate(63.623047 0)"/>
       <use xlink:href="#DejaVuSans-32" transform="translate(95.410156 0)"/>
      </g>
     </g>
    </g>
    <g id="ytick_3">
     <g id="line2d_11">
      <g>
       <use xlink:href="#mc65592a5ac" x="50.6" y="189.222933" style="stroke: #000000; stroke-width: 0.8"/>
      </g>
     </g>
     <g id="text_12">
      <!-- 0.4 -->
      <g transform="translate(27.696875 193.022152) scale(0.1 -0.1)">
       <defs>
        <path id="DejaVuSans-34" d="M 2419 4116 
L 825 1625 
L 2419 1625 
L 2419 4116 
z
M 2253 4666 
L 3047 4666 
L 3047 1625 
L 3713 1625 
L 3713 1100 
L 3047 1100 
L 3047 0 
L 2419 0 
L 2419 1100 
L 313 1100 
L 313 1709 
L 2253 4666 
z
" transform="scale(0.015625)"/>
       </defs>
       <use xlink:href="#DejaVuSans-30"/>
       <use xlink:href="#DejaVuSans-2e" transform="translate(63.623047 0)"/>
       <use xlink:href="#DejaVuSans-34" transform="translate(95.410156 0)"/>
      </g>
     </g>
    </g>
    <g id="ytick_4">
     <g id="line2d_12">
      <g>
       <use xlink:href="#mc65592a5ac" x="50.6" y="161.8224" style="stroke: #000000; stroke-width: 0.8"/>
      </g>
     </g>
     <g id="text_13">
      <!-- 0.6 -->
      <g transform="translate(27.696875 165.621619) scale(0.1 -0.1)">
       <defs>
        <path id="DejaVuSans-36" d="M 2113 2584 
Q 1688 2584 1439 2293 
Q 1191 2003 1191 1497 
Q 1191 994 1439 701 
Q 1688 409 2113 409 
Q 2538 409 2786 701 
Q 3034 994 3034 1497 
Q 3034 2003 2786 2293 
Q 2538 2584 2113 2584 
z
M 3366 4563 
L 3366 3988 
Q 3128 4100 2886 4159 
Q 2644 4219 2406 4219 
Q 1781 4219 1451 3797 
Q 1122 3375 1075 2522 
Q 1259 2794 1537 2939 
Q 1816 3084 2150 3084 
Q 2853 3084 3261 2657 
Q 3669 2231 3669 1497 
Q 3669 778 3244 343 
Q 2819 -91 2113 -91 
Q 1303 -91 875 529 
Q 447 1150 447 2328 
Q 447 3434 972 4092 
Q 1497 4750 2381 4750 
Q 2619 4750 2861 4703 
Q 3103 4656 3366 4563 
z
" transform="scale(0.015625)"/>
       </defs>
       <use xlink:href="#DejaVuSans-30"/>
       <use xlink:href="#DejaVuSans-2e" transform="translate(63.623047 0)"/>
       <use xlink:href="#DejaVuSans-36" transform="translate(95.410156 0)"/>
      </g>
     </g>
    </g>
    <g id="ytick_5">
     <g id="line2d_13">
      <g>
       <use xlink:href="#mc65592a5ac" x="50.6" y="134.421867" style="stroke: #000000; stroke-width: 0.8"/>
      </g>
     </g>
     <g id="text_14">
      <!-- 0.8 -->
      <g transform="translate(27.696875 138.221085) scale(0.1 -0.1)">
       <defs>
        <path id="DejaVuSans-38" d="M 2034 2216 
Q 1584 2216 1326 1975 
Q 1069 1734 1069 1313 
Q 1069 891 1326 650 
Q 1584 409 2034 409 
Q 2484 409 2743 651 
Q 3003 894 3003 1313 
Q 3003 1734 2745 1975 
Q 2488 2216 2034 2216 
z
M 1403 2484 
Q 997 2584 770 2862 
Q 544 3141 544 3541 
Q 544 4100 942 4425 
Q 1341 4750 2034 4750 
Q 2731 4750 3128 4425 
Q 3525 4100 3525 3541 
Q 3525 3141 3298 2862 
Q 3072 2584 2669 2484 
Q 3125 2378 3379 2068 
Q 3634 1759 3634 1313 
Q 3634 634 3220 271 
Q 2806 -91 2034 -91 
Q 1263 -91 848 271 
Q 434 634 434 1313 
Q 434 1759 690 2068 
Q 947 2378 1403 2484 
z
M 1172 3481 
Q 1172 3119 1398 2916 
Q 1625 2713 2034 2713 
Q 2441 2713 2670 2916 
Q 2900 3119 2900 3481 
Q 2900 3844 2670 4047 
Q 2441 4250 2034 4250 
Q 1625 4250 1398 4047 
Q 1172 3844 1172 3481 
z
" transform="scale(0.015625)"/>
       </defs>
       <use xlink:href="#DejaVuSans-30"/>
       <use xlink:href="#DejaVuSans-2e" transform="translate(63.623047 0)"/>
       <use xlink:href="#DejaVuSans-38" transform="translate(95.410156 0)"/>
      </g>
     </g>
    </g>
    <g id="ytick_6">
     <g id="line2d_14">
      <g>
       <use xlink:href="#mc65592a5ac" x="50.6" y="107.021333" style="stroke: #000000; stroke-width: 0.8"/>
      </g>
     </g>
     <g id="text_15">
      <!-- 1.0 -->
      <g transform="translate(27.696875 110.820552) scale(0.1 -0.1)">
       <use xlink:href="#DejaVuSans-31"/>
       <use xlink:href="#DejaVuSans-2e" transform="translate(63.623047 0)"/>
       <use xlink:href="#DejaVuSans-30" transform="translate(95.410156 0)"/>
      </g>
     </g>
    </g>
    <g id="ytick_7">
     <g id="line2d_15">
      <g>
       <use xlink:href="#mc65592a5ac" x="50.6" y="79.6208" style="stroke: #000000; stroke-width: 0.8"/>
      </g>
     </g>
     <g id="text_16">
      <!-- 1.2 -->
      <g transform="translate(27.696875 83.420019) scale(0.1 -0.1)">
       <use xlink:href="#DejaVuSans-31"/>
       <use xlink:href="#DejaVuSans-2e" transform="translate(63.623047 0)"/>
       <use xlink:href="#DejaVuSans-32" transform="translate(95.410156 0)"/>
      </g>
     </g>
    </g>
    <g id="ytick_8">
     <g id="line2d_16">
      <g>
       <use xlink:href="#mc65592a5ac" x="50.6" y="52.220267" style="stroke: #000000; stroke-width: 0.8"/>
      </g>
     </g>
     <g id="text_17">
      <!-- 1.4 -->
      <g transform="translate(27.696875 56.019485) scale(0.1 -0.1)">
       <use xlink:href="#DejaVuSans-31"/>
       <use xlink:href="#DejaVuSans-2e" transform="translate(63.623047 0)"/>
       <use xlink:href="#DejaVuSans-34" transform="translate(95.410156 0)"/>
      </g>
     </g>
    </g>
    <g id="text_18">
     <!-- $g(r)$ -->
     <g transform="translate(21.596875 150.422) rotate(-90) scale(0.1 -0.1)">
      <defs>
       <path id="DejaVuSans-Oblique-67" d="M 3816 3500 
L 3219 434 
Q 3047 -456 2561 -893 
Q 2075 -1331 1253 -1331 
Q 950 -1331 690 -1286 
Q 431 -1241 206 -1147 
L 313 -588 
Q 525 -725 762 -790 
Q 1000 -856 1269 -856 
Q 1816 -856 2167 -557 
Q 2519 -259 2631 300 
L 2681 563 
Q 2441 288 2122 144 
Q 1803 0 1434 0 
Q 903 0 598 351 
Q 294 703 294 1319 
Q 294 1803 478 2267 
Q 663 2731 997 3091 
Q 1219 3328 1514 3456 
Q 1809 3584 2131 3584 
Q 2484 3584 2746 3420 
Q 3009 3256 3138 2956 
L 3238 3500 
L 3816 3500 
z
M 2950 2216 
Q 2950 2641 2750 2872 
Q 2550 3103 2181 3103 
Q 1953 3103 1747 3012 
Q 1541 2922 1394 2759 
Q 1156 2491 1023 2127 
Q 891 1763 891 1375 
Q 891 944 1092 712 
Q 1294 481 1672 481 
Q 2219 481 2584 976 
Q 2950 1472 2950 2216 
z
" transform="scale(0.015625)"/>
       <path id="DejaVuSans-28" d="M 1984 4856 
Q 1566 4138 1362 3434 
Q 1159 2731 1159 2009 
Q 1159 1288 1364 580 
Q 1569 -128 1984 -844 
L 1484 -844 
Q 1016 -109 783 600 
Q 550 1309 550 2009 
Q 550 2706 781 3412 
Q 1013 4119 1484 4856 
L 1984 4856 
z
" transform="scale(0.015625)"/>
       <path id="DejaVuSans-29" d="M 513 4856 
L 1013 4856 
Q 1481 4119 1714 3412 
Q 1947 2706 1947 2009 
Q 1947 1309 1714 600 
Q 1481 -109 1013 -844 
L 513 -844 
Q 928 -128 1133 580 
Q 1338 1288 1338 2009 
Q 1338 2731 1133 3434 
Q 928 4138 513 4856 
z
" transform="scale(0.015625)"/>
      </defs>
      <use xlink:href="#DejaVuSans-Oblique-67" transform="translate(0 0.125)"/>
      <use xlink:href="#DejaVuSans-28" transform="translate(63.476562 0.125)"/>
      <use xlink:href="#DejaVuSans-Oblique-72" transform="translate(102.490234 0.125)"/>
      <use xlink:href="#DejaVuSans-29" transform="translate(143.603516 0.125)"/>
     </g>
    </g>
   </g>
   <g id="line2d_17">
    <path d="M 51.422226 244.024 
L 53.547071 244.024 
L 55.671917 244.024 
L 57.796762 244.024 
L 59.921608 244.024 
L 62.046453 244.024 
L 64.171298 244.024 
L 66.296144 244.024 
L 68.420989 244.023998 
L 70.545835 244.023923 
L 72.67068 244.022838 
L 74.795525 244.014037 
L 76.920371 243.968026 
L 79.045216 243.796701 
L 81.170062 243.307633 
L 83.294907 242.177853 
L 85.419752 239.976359 
L 87.544598 236.242954 
L 89.669443 230.59415 
L 91.794289 222.82283 
L 93.919134 212.94878 
L 96.043979 201.224283 
L 98.168825 188.081937 
L 100.29367 174.071425 
L 102.418516 159.773002 
L 104.543361 145.741722 
L 106.668207 132.448152 
L 108.793052 120.263659 
L 110.917897 109.439413 
L 113.042743 100.124166 
L 115.167588 92.365934 
L 117.292434 86.142357 
L 119.417279 81.368534 
L 121.542124 77.926089 
L 123.66697 75.668464 
L 125.791815 74.443207 
L 127.916661 74.092567 
L 130.041506 74.468698 
L 132.166351 75.43049 
L 134.291197 76.853365 
L 136.416042 78.624015 
L 138.540888 80.646658 
L 140.665733 82.837057 
L 142.790578 85.126669 
L 144.915424 87.456807 
L 147.040269 89.781599 
L 149.165115 92.062719 
L 151.28996 94.271697 
L 153.414806 96.38536 
L 155.539651 98.387793 
L 157.664496 100.266482 
L 159.789342 102.014078 
L 161.914187 103.625171 
L 164.039033 105.097933 
L 166.163878 106.431436 
L 168.288723 107.6272 
L 170.413569 108.686978 
L 172.538414 109.614221 
L 174.66326 110.412242 
L 176.788105 111.085619 
L 178.91295 111.638649 
L 181.037796 112.076682 
L 183.162641 112.404804 
L 185.287487 112.629075 
L 187.412332 112.75538 
L 189.537178 112.790553 
L 191.662023 112.741326 
L 193.786868 112.61534 
L 195.911714 112.420148 
L 198.036559 112.164093 
L 200.161405 111.85536 
L 202.28625 111.502729 
L 204.411095 111.114658 
L 206.535941 110.699946 
L 208.660786 110.266854 
L 210.785632 109.823701 
L 212.910477 109.378044 
L 215.035322 108.937239 
L 217.160168 108.507686 
L 219.285013 108.095379 
L 221.409859 107.705239 
L 223.534704 107.341657 
L 225.659549 107.007913 
L 227.784395 106.706727 
L 229.90924 106.439752 
L 232.034086 106.208125 
L 234.158931 106.012032 
L 236.283777 105.851245 
L 238.408622 105.724741 
L 240.533467 105.631221 
L 242.658313 105.568766 
L 244.783158 105.535327 
L 246.908004 105.528405 
L 249.032849 105.54551 
L 251.157694 105.583854 
L 253.28254 105.640777 
L 255.407385 105.713443 
L 257.532231 105.799235 
L 259.657076 105.895455 
L 261.781921 105.999686 
L 263.906767 106.109498 
L 266.031612 106.222774 
L 268.156458 106.337431 
L 270.281303 106.451712 
L 272.406148 106.563916 
L 274.530994 106.672669 
L 276.655839 106.776661 
" clip-path="url(#p488c08bfa1)" style="fill: none; stroke: #1f77b4; stroke-width: 1.5; stroke-linecap: square"/>
   </g>
   <g id="line2d_18">
    <path d="M 51.422226 244.024 
L 53.547071 244.024 
L 55.671917 244.024 
L 57.796762 244.024 
L 59.921608 244.024 
L 62.046453 244.024 
L 64.171298 244.024 
L 66.296144 244.024 
L 68.420989 244.024 
L 70.545835 244.024 
L 72.67068 244.024 
L 74.795525 244.024 
L 76.920371 244.024 
L 79.045216 244.024 
L 81.170062 244.024 
L 83.294907 244.024 
L 85.419752 244.023999 
L 87.544598 244.023986 
L 89.669443 244.023849 
L 91.794289 244.022829 
L 93.919134 244.017258 
L 96.043979 243.993798 
L 98.168825 243.914579 
L 100.29367 243.693098 
L 102.418516 243.166294 
L 104.543361 242.076488 
L 106.668207 240.077706 
L 108.793052 236.776715 
L 110.917897 231.799615 
L 113.042743 224.872495 
L 115.167588 215.882863 
L 117.292434 204.919646 
L 119.417279 192.262295 
L 121.542124 178.353139 
L 123.66697 163.727029 
L 125.791815 148.959252 
L 127.916661 134.589972 
L 130.041506 121.095253 
L 132.166351 108.840171 
L 134.291197 98.086351 
L 136.416042 88.974531 
L 138.540888 81.556423 
L 140.665733 75.792545 
L 142.790578 71.591252 
L 144.915424 68.809108 
L 147.040269 67.286003 
L 149.165115 66.842029 
L 151.28996 67.304715 
L 153.414806 68.501547 
L 155.539651 70.279651 
L 157.664496 72.495393 
L 159.789342 75.02838 
L 161.914187 77.769933 
L 164.039033 80.633311 
L 166.163878 83.54239 
L 168.288723 86.439537 
L 170.413569 89.275234 
L 172.538414 92.014511 
L 174.66326 94.627808 
L 176.788105 97.096512 
L 178.91295 99.405063 
L 181.037796 101.545892 
L 183.162641 103.512669 
L 185.287487 105.304793 
L 187.412332 106.921625 
L 189.537178 108.366622 
L 191.662023 109.642399 
L 193.786868 110.754561 
L 195.911714 111.707451 
L 198.036559 112.507723 
L 200.161405 113.160644 
L 202.28625 113.673438 
L 204.411095 114.052027 
L 206.535941 114.304147 
L 208.660786 114.436436 
L 210.785632 114.457309 
L 212.910477 114.374297 
L 215.035322 114.19668 
L 217.160168 113.932998 
L 219.285013 113.593438 
L 221.409859 113.187468 
L 223.534704 112.725989 
L 225.659549 112.219064 
L 227.784395 111.677871 
L 229.90924 111.112524 
L 232.034086 110.53386 
L 234.158931 109.951378 
L 236.283777 109.374905 
L 238.408622 108.812668 
L 240.533467 108.272884 
L 242.658313 107.761982 
L 244.783158 107.286149 
L 246.908004 106.849707 
L 249.032849 106.45663 
L 251.157694 106.10907 
L 253.28254 105.808845 
L 255.407385 105.556101 
L 257.532231 105.350757 
L 259.657076 105.191284 
L 261.781921 105.076092 
L 263.906767 105.002401 
L 266.031612 104.967559 
L 268.156458 104.967983 
L 270.281303 105.000399 
L 272.406148 105.060832 
L 274.530994 105.145771 
L 276.655839 105.251198 
" clip-path="url(#p488c08bfa1)" style="fill: none; stroke: #ff7f0e; stroke-width: 1.5; stroke-linecap: square"/>
   </g>
   <g id="line2d_19">
    <path d="M 51.422226 244.024 
L 53.547071 244.024 
L 55.671917 244.024 
L 57.796762 244.024 
L 59.921608 244.024 
L 62.046453 244.024 
L 64.171298 244.024 
L 66.296144 244.024 
L 68.420989 244.024 
L 70.545835 244.024 
L 72.67068 244.024 
L 74.795525 244.024 
L 76.920371 244.024 
L 79.045216 244.024 
L 81.170062 244.024 
L 83.294907 244.024 
L 85.419752 244.024 
L 87.544598 244.024 
L 89.669443 244.024 
L 91.794289 244.024 
L 93.919134 244.024 
L 96.043979 244.024 
L 98.168825 244.024 
L 100.29367 244.024 
L 102.418516 244.024 
L 104.543361 244.024 
L 106.668207 244.024 
L 108.793052 244.023996 
L 110.917897 244.023958 
L 113.042743 244.023674 
L 115.167588 244.022025 
L 117.292434 244.01444 
L 119.417279 243.98601 
L 121.542124 243.897017 
L 123.66697 243.659363 
L 125.791815 243.108108 
L 127.916661 241.978995 
L 130.041506 239.908873 
L 132.166351 236.467985 
L 134.291197 231.229446 
L 136.416042 223.851614 
L 138.540888 214.165683 
L 140.665733 202.220073 
L 142.790578 188.30402 
L 144.915424 172.899285 
L 147.040269 156.636723 
L 149.165115 140.191844 
L 151.28996 124.23625 
L 153.414806 109.341759 
L 155.539651 95.974864 
L 157.664496 84.43926 
L 159.789342 74.916548 
L 161.914187 67.43968 
L 164.039033 61.957665 
L 166.163878 58.320771 
L 168.288723 56.347084 
L 170.413569 55.806245 
L 172.538414 56.476147 
L 174.66326 58.121084 
L 176.788105 60.535979 
L 178.91295 63.520249 
L 181.037796 66.911476 
L 183.162641 70.557868 
L 185.287487 74.344363 
L 187.412332 78.166084 
L 189.537178 81.949399 
L 191.662023 85.627742 
L 193.786868 89.159335 
L 195.911714 92.505872 
L 198.036559 95.647946 
L 200.161405 98.566541 
L 202.28625 101.256773 
L 204.411095 103.711889 
L 206.535941 105.935672 
L 208.660786 107.928564 
L 210.785632 109.698968 
L 212.910477 111.251123 
L 215.035322 112.595468 
L 217.160168 113.737956 
L 219.285013 114.689607 
L 221.409859 115.457005 
L 223.534704 116.051145 
L 225.659549 116.478892 
L 227.784395 116.751201 
L 229.90924 116.875355 
L 232.034086 116.862608 
L 234.158931 116.721023 
L 236.283777 116.462586 
L 238.408622 116.096497 
L 240.533467 115.635764 
L 242.658313 115.090855 
L 244.783158 114.475795 
L 246.908004 113.802094 
L 249.032849 113.08441 
L 251.157694 112.33472 
L 253.28254 111.567602 
L 255.407385 110.794657 
L 257.532231 110.029484 
L 259.657076 109.282373 
L 261.781921 108.565051 
L 263.906767 107.885673 
L 266.031612 107.253387 
L 268.156458 106.673647 
L 270.281303 106.152637 
L 272.406148 105.692898 
L 274.530994 105.29762 
L 276.655839 104.96657 
" clip-path="url(#p488c08bfa1)" style="fill: none; stroke: #2ca02c; stroke-width: 1.5; stroke-linecap: square"/>
   </g>
   <g id="line2d_20">
    <path d="M 85.583659 239.603236 
L 87.755741 235.708051 
L 89.249047 231.868912 
L 90.470843 228.00175 
L 91.556884 223.840347 
L 92.507169 219.763013 
L 93.3217 216.063988 
L 94.136231 211.916597 
L 94.950761 207.601068 
L 95.765292 202.949264 
L 96.579823 198.185368 
L 97.394353 193.19729 
L 98.073129 188.741646 
L 98.616149 185.294828 
L 99.15917 181.679872 
L 99.70219 178.148984 
L 100.245211 174.44996 
L 100.788231 170.750935 
L 101.331252 167.135979 
L 101.874272 163.521023 
L 102.417293 159.821998 
L 102.960313 156.122974 
L 103.503333 152.592086 
L 104.046354 148.97713 
L 104.589374 145.362174 
L 105.26815 141.074668 
L 106.082681 136.030544 
L 106.897211 130.986419 
L 107.711742 126.222524 
L 108.526273 121.626766 
L 109.340803 117.255191 
L 110.155334 112.995708 
L 110.969865 109.0725 
L 111.784395 105.261384 
L 112.734681 101.184049 
L 113.820722 96.896544 
L 114.906763 92.987347 
L 116.128559 89.086557 
L 117.621865 85.084885 
L 119.386681 81.145664 
L 121.694518 77.518698 
L 124.545376 74.813213 
L 127.531988 73.911385 
L 130.518601 74.461653 
L 133.505213 76.158313 
L 136.491825 78.603949 
L 139.783887 81.848238 
L 142.46505 84.763895 
L 145.451663 88.065504 
L 148.438275 91.336543 
L 151.424888 94.500584 
L 154.207867 97.274853 
L 157.398113 100.171403 
L 160.384725 102.632325 
L 163.208431 104.689716 
L 166.35795 106.698195 
L 169.344562 108.318429 
L 172.331175 109.678814 
L 175.317787 110.794635 
L 178.3044 111.620038 
L 181.291012 112.231447 
L 184.277624 112.628863 
L 187.264237 112.888711 
L 190.250849 112.934567 
L 193.237462 112.705289 
L 195.273788 112.617399 
L 199.482197 112.002168 
L 202.468809 111.497756 
L 205.455422 110.932202 
L 208.442034 110.351364 
L 212.514688 109.449536 
L 215.5013 108.838126 
L 218.487912 108.242003 
L 221.33877 107.783446 
L 226.551766 106.841876 
L 229.619832 106.407776 
L 232.606444 106.193782 
L 235.593056 105.933934 
L 238.579669 105.735226 
L 241.566281 105.597659 
L 244.552894 105.597659 
L 247.539506 105.597659 
L 250.390364 105.463149 
L 257.313874 106.102071 
L 260.300487 106.04093 
L 263.287099 106.209068 
L 266.002201 106.214163 
L 271.02514 106.690552 
" clip-path="url(#p488c08bfa1)" style="fill: none; stroke-dasharray: 5.55,2.4; stroke-dashoffset: 0; stroke: #808080; stroke-width: 1.5"/>
   </g>
   <g id="line2d_21">
    <path d="M 102.010027 243.164694 
L 104.99664 241.697312 
L 107.575987 238.888652 
L 109.476558 235.427822 
L 110.969865 231.734402 
L 112.191661 228.00175 
L 113.277701 224.176622 
L 114.363742 219.63691 
L 115.314028 215.391438 
L 116.128559 211.300092 
L 116.943089 207.040609 
L 117.75762 202.444851 
L 118.707906 197.232589 
L 119.522437 192.104396 
L 120.336967 187.284455 
L 121.151498 181.904055 
L 121.830273 177.350331 
L 122.373294 173.483169 
L 122.916314 169.784144 
L 123.459335 166.043085 
L 124.002355 162.217957 
L 124.545376 158.350795 
L 125.088396 154.609736 
L 125.740021 150.254975 
L 126.310192 146.160827 
L 126.853213 142.461803 
L 127.396233 138.762778 
L 127.966404 134.752699 
L 128.753784 129.809457 
L 129.43256 124.597195 
L 130.24709 119.55307 
L 130.925866 115.986153 
L 131.604641 111.426425 
L 132.419172 107.222988 
L 133.233703 102.907459 
L 134.048233 99.040297 
L 134.862764 95.117088 
L 135.81305 91.053766 
L 136.899091 86.76626 
L 137.985132 82.941132 
L 139.206928 79.200073 
L 140.700234 75.332911 
L 142.600805 71.591852 
L 145.180153 68.347562 
L 148.166765 66.712043 
L 151.153377 67.109459 
L 154.13999 68.958971 
L 157.126602 71.893735 
L 160.264054 75.70655 
L 162.964072 79.267328 
L 165.679174 83.033608 
L 168.394277 86.76626 
L 171.109379 90.431657 
L 173.960236 93.996172 
L 176.946849 97.55763 
L 179.933461 100.736957 
L 182.920073 103.610579 
L 185.906686 106.117356 
L 188.893298 108.287858 
L 191.879911 110.060945 
L 194.866523 111.543612 
L 197.853136 112.705289 
L 200.839748 113.576547 
L 203.82636 114.187956 
L 206.812973 114.539516 
L 209.799585 114.677083 
L 212.786198 114.554801 
L 215.365545 114.340808 
L 219.302443 113.622402 
L 222.289056 113.072134 
L 225.275668 112.353728 
L 228.26228 111.604752 
L 231.248893 110.764065 
L 234.235505 109.938663 
L 237.222118 109.113261 
L 240.20873 108.318429 
L 242.923832 107.858174 
L 246.724976 106.805191 
L 249.711588 106.254923 
L 252.6982 105.872793 
L 255.684813 105.567088 
L 258.671425 105.291954 
L 261.658038 105.154387 
L 264.64465 104.925109 
L 267.631263 104.925109 
L 270.617875 104.955679 
L 272.246936 105.093246 
" clip-path="url(#p488c08bfa1)" style="fill: none; stroke-dasharray: 5.55,2.4; stroke-dashoffset: 0; stroke: #808080; stroke-width: 1.5"/>
   </g>
   <g id="line2d_22">
    <path d="M 55.174514 243.974811 
L 60.333208 243.974811 
L 65.220392 243.974811 
L 70.379086 243.974811 
L 75.26627 243.974811 
L 79.746189 244.097093 
L 82.732802 243.990096 
L 85.719414 243.974811 
L 88.706026 243.974811 
L 91.692639 243.974811 
L 94.679251 243.974811 
L 97.665864 244.051237 
L 100.652476 244.142948 
L 103.639089 243.974811 
L 106.625701 243.974811 
L 109.612313 243.974811 
L 112.598926 243.974811 
L 115.585538 243.974811 
L 118.572151 243.974811 
L 121.558763 243.928955 
L 124.545376 243.500969 
L 127.531988 242.21701 
L 130.382845 239.367844 
L 132.554927 235.652005 
L 134.048233 231.902539 
L 135.270029 228.043784 
L 136.35607 224.050519 
L 137.306356 219.987196 
L 138.120887 216.17608 
L 138.935417 212.028688 
L 139.80425 207.791624 
L 140.700234 202.697058 
L 141.270405 198.745827 
L 141.92203 194.710527 
L 142.46505 190.969468 
L 143.116675 186.6063 
L 143.551091 182.884857 
L 144.094112 179.241878 
L 144.637132 175.164544 
L 145.180153 170.919072 
L 145.723173 166.841738 
L 146.266193 162.596267 
L 146.809214 158.39283 
L 147.352234 154.105324 
L 147.895255 149.817818 
L 148.438275 145.614381 
L 148.981296 141.326875 
L 149.524316 137.249541 
L 150.067337 133.004069 
L 150.610357 128.884701 
L 151.261982 124.328175 
L 151.832153 119.973414 
L 152.239418 116.694733 
L 152.782439 113.331983 
L 153.434063 109.128546 
L 154.004235 105.240366 
L 154.574406 101.091574 
L 155.334635 96.753627 
L 156.040561 91.86643 
L 156.855092 87.43881 
L 157.669623 83.123281 
L 158.484153 79.312165 
L 159.434439 75.164773 
L 160.52048 70.919302 
L 161.742276 66.791526 
L 163.235582 62.722599 
L 165.136154 58.876454 
L 167.715501 55.890103 
L 170.702113 55.141127 
L 173.688726 56.715505 
L 176.539583 59.881076 
L 179.11893 63.581969 
L 181.426767 67.409432 
L 183.598849 71.276594 
L 185.635176 74.996636 
L 187.671502 78.737695 
L 189.843584 82.667909 
L 192.015666 86.451002 
L 194.187748 90.065958 
L 196.495584 93.678579 
L 199.074932 97.426177 
L 201.925789 101.164943 
L 204.912401 104.619404 
L 207.953316 107.699377 
L 210.885626 110.122085 
L 213.872239 112.216161 
L 216.858851 113.897536 
L 219.845464 115.212066 
L 222.832076 116.113894 
L 225.818688 116.725303 
L 228.805301 117.031008 
L 231.791913 117.031008 
L 234.778526 116.771159 
L 237.765138 116.282032 
L 240.751751 115.624767 
L 243.738363 114.784079 
L 246.724976 113.836395 
L 249.711588 112.781715 
L 252.6982 111.696464 
L 255.684813 110.595927 
L 258.671425 109.510676 
L 261.658038 108.486566 
L 264.590348 107.648936 
L 267.631263 106.591198 
L 270.617875 105.964504 
L 273.604487 105.353095 
L 275.369304 105.093246 
" clip-path="url(#p488c08bfa1)" style="fill: none; stroke-dasharray: 5.55,2.4; stroke-dashoffset: 0; stroke: #808080; stroke-width: 1.5"/>
   </g>
   <g id="patch_3">
    <path d="M 50.6 244.024 
L 50.6 38.52 
" style="fill: none; stroke: #000000; stroke-width: 0.8; stroke-linejoin: miter; stroke-linecap: square"/>
   </g>
   <g id="patch_4">
    <path d="M 275.526 244.024 
L 275.526 38.52 
" style="fill: none; stroke: #000000; stroke-width: 0.8; stroke-linejoin: miter; stroke-linecap: square"/>
   </g>
   <g id="patch_5">
    <path d="M 50.6 244.024 
L 275.526 244.024 
" style="fill: none; stroke: #000000; stroke-width: 0.8; stroke-linejoin: miter; stroke-linecap: square"/>
   </g>
   <g id="patch_6">
    <path d="M 50.6 38.52 
L 275.526 38.52 
" style="fill: none; stroke: #000000; stroke-width: 0.8; stroke-linejoin: miter; stroke-linecap: square"/>
   </g>
   <g id="legend_1">
    <g id="patch_7">
     <path d="M 187.566625 239.024 
L 268.526 239.024 
Q 270.526 239.024 270.526 237.024 
L 270.526 179.3115 
Q 270.526 177.3115 268.526 177.3115 
L 187.566625 177.3115 
Q 185.566625 177.3115 185.566625 179.3115 
L 185.566625 237.024 
Q 185.566625 239.024 187.566625 239.024 
z
" style="fill: #ffffff; opacity: 0.8; stroke: #cccccc; stroke-linejoin: miter"/>
    </g>
    <g id="line2d_23">
     <path d="M 189.566625 185.409937 
L 199.566625 185.409937 
L 209.566625 185.409937 
" style="fill: none; stroke: #1f77b4; stroke-width: 1.5; stroke-linecap: square"/>
    </g>
    <g id="text_19">
     <!-- HH -->
     <g transform="translate(217.566625 188.909937) scale(0.1 -0.1)">
      <defs>
       <path id="DejaVuSans-48" d="M 628 4666 
L 1259 4666 
L 1259 2753 
L 3553 2753 
L 3553 4666 
L 4184 4666 
L 4184 0 
L 3553 0 
L 3553 2222 
L 1259 2222 
L 1259 0 
L 628 0 
L 628 4666 
z
" transform="scale(0.015625)"/>
      </defs>
      <use xlink:href="#DejaVuSans-48"/>
      <use xlink:href="#DejaVuSans-48" transform="translate(75.195312 0)"/>
     </g>
    </g>
    <g id="line2d_24">
     <path d="M 189.566625 200.088062 
L 199.566625 200.088062 
L 209.566625 200.088062 
" style="fill: none; stroke: #ff7f0e; stroke-width: 1.5; stroke-linecap: square"/>
    </g>
    <g id="text_20">
     <!-- CH -->
     <g transform="translate(217.566625 203.588062) scale(0.1 -0.1)">
      <defs>
       <path id="DejaVuSans-43" d="M 4122 4306 
L 4122 3641 
Q 3803 3938 3442 4084 
Q 3081 4231 2675 4231 
Q 1875 4231 1450 3742 
Q 1025 3253 1025 2328 
Q 1025 1406 1450 917 
Q 1875 428 2675 428 
Q 3081 428 3442 575 
Q 3803 722 4122 1019 
L 4122 359 
Q 3791 134 3420 21 
Q 3050 -91 2638 -91 
Q 1578 -91 968 557 
Q 359 1206 359 2328 
Q 359 3453 968 4101 
Q 1578 4750 2638 4750 
Q 3056 4750 3426 4639 
Q 3797 4528 4122 4306 
z
" transform="scale(0.015625)"/>
      </defs>
      <use xlink:href="#DejaVuSans-43"/>
      <use xlink:href="#DejaVuSans-48" transform="translate(69.824219 0)"/>
     </g>
    </g>
    <g id="line2d_25">
     <path d="M 189.566625 214.766188 
L 199.566625 214.766188 
L 209.566625 214.766188 
" style="fill: none; stroke: #2ca02c; stroke-width: 1.5; stroke-linecap: square"/>
    </g>
    <g id="text_21">
     <!-- CC -->
     <g transform="translate(217.566625 218.266188) scale(0.1 -0.1)">
      <use xlink:href="#DejaVuSans-43"/>
      <use xlink:href="#DejaVuSans-43" transform="translate(69.824219 0)"/>
     </g>
    </g>
    <g id="line2d_26">
     <path d="M 189.566625 229.444312 
L 199.566625 229.444312 
L 209.566625 229.444312 
" style="fill: none; stroke-dasharray: 5.55,2.4; stroke-dashoffset: 0; stroke: #808080; stroke-width: 1.5"/>
    </g>
    <g id="text_22">
     <!-- Literature -->
     <g transform="translate(217.566625 232.944312) scale(0.1 -0.1)">
      <defs>
       <path id="DejaVuSans-4c" d="M 628 4666 
L 1259 4666 
L 1259 531 
L 3531 531 
L 3531 0 
L 628 0 
L 628 4666 
z
" transform="scale(0.015625)"/>
       <path id="DejaVuSans-69" d="M 603 3500 
L 1178 3500 
L 1178 0 
L 603 0 
L 603 3500 
z
M 603 4863 
L 1178 4863 
L 1178 4134 
L 603 4134 
L 603 4863 
z
" transform="scale(0.015625)"/>
       <path id="DejaVuSans-74" d="M 1172 4494 
L 1172 3500 
L 2356 3500 
L 2356 3053 
L 1172 3053 
L 1172 1153 
Q 1172 725 1289 603 
Q 1406 481 1766 481 
L 2356 481 
L 2356 0 
L 1766 0 
Q 1100 0 847 248 
Q 594 497 594 1153 
L 594 3053 
L 172 3053 
L 172 3500 
L 594 3500 
L 594 4494 
L 1172 4494 
z
" transform="scale(0.015625)"/>
       <path id="DejaVuSans-65" d="M 3597 1894 
L 3597 1613 
L 953 1613 
Q 991 1019 1311 708 
Q 1631 397 2203 397 
Q 2534 397 2845 478 
Q 3156 559 3463 722 
L 3463 178 
Q 3153 47 2828 -22 
Q 2503 -91 2169 -91 
Q 1331 -91 842 396 
Q 353 884 353 1716 
Q 353 2575 817 3079 
Q 1281 3584 2069 3584 
Q 2775 3584 3186 3129 
Q 3597 2675 3597 1894 
z
M 3022 2063 
Q 3016 2534 2758 2815 
Q 2500 3097 2075 3097 
Q 1594 3097 1305 2825 
Q 1016 2553 972 2059 
L 3022 2063 
z
" transform="scale(0.015625)"/>
       <path id="DejaVuSans-72" d="M 2631 2963 
Q 2534 3019 2420 3045 
Q 2306 3072 2169 3072 
Q 1681 3072 1420 2755 
Q 1159 2438 1159 1844 
L 1159 0 
L 581 0 
L 581 3500 
L 1159 3500 
L 1159 2956 
Q 1341 3275 1631 3429 
Q 1922 3584 2338 3584 
Q 2397 3584 2469 3576 
Q 2541 3569 2628 3553 
L 2631 2963 
z
" transform="scale(0.015625)"/>
       <path id="DejaVuSans-61" d="M 2194 1759 
Q 1497 1759 1228 1600 
Q 959 1441 959 1056 
Q 959 750 1161 570 
Q 1363 391 1709 391 
Q 2188 391 2477 730 
Q 2766 1069 2766 1631 
L 2766 1759 
L 2194 1759 
z
M 3341 1997 
L 3341 0 
L 2766 0 
L 2766 531 
Q 2569 213 2275 61 
Q 1981 -91 1556 -91 
Q 1019 -91 701 211 
Q 384 513 384 1019 
Q 384 1609 779 1909 
Q 1175 2209 1959 2209 
L 2766 2209 
L 2766 2266 
Q 2766 2663 2505 2880 
Q 2244 3097 1772 3097 
Q 1472 3097 1187 3025 
Q 903 2953 641 2809 
L 641 3341 
Q 956 3463 1253 3523 
Q 1550 3584 1831 3584 
Q 2591 3584 2966 3190 
Q 3341 2797 3341 1997 
z
" transform="scale(0.015625)"/>
       <path id="DejaVuSans-75" d="M 544 1381 
L 544 3500 
L 1119 3500 
L 1119 1403 
Q 1119 906 1312 657 
Q 1506 409 1894 409 
Q 2359 409 2629 706 
Q 2900 1003 2900 1516 
L 2900 3500 
L 3475 3500 
L 3475 0 
L 2900 0 
L 2900 538 
Q 2691 219 2414 64 
Q 2138 -91 1772 -91 
Q 1169 -91 856 284 
Q 544 659 544 1381 
z
M 1991 3584 
L 1991 3584 
z
" transform="scale(0.015625)"/>
      </defs>
      <use xlink:href="#DejaVuSans-4c"/>
      <use xlink:href="#DejaVuSans-69" transform="translate(55.712891 0)"/>
      <use xlink:href="#DejaVuSans-74" transform="translate(83.496094 0)"/>
      <use xlink:href="#DejaVuSans-65" transform="translate(122.705078 0)"/>
      <use xlink:href="#DejaVuSans-72" transform="translate(184.228516 0)"/>
      <use xlink:href="#DejaVuSans-61" transform="translate(225.341797 0)"/>
      <use xlink:href="#DejaVuSans-74" transform="translate(286.621094 0)"/>
      <use xlink:href="#DejaVuSans-75" transform="translate(325.830078 0)"/>
      <use xlink:href="#DejaVuSans-72" transform="translate(389.208984 0)"/>
      <use xlink:href="#DejaVuSans-65" transform="translate(428.072266 0)"/>
     </g>
    </g>
   </g>
  </g>
  <g id="axes_2">
   <g id="patch_8">
    <path d="M 340.274 244.024 
L 565.2 244.024 
L 565.2 38.52 
L 340.274 38.52 
z
" style="fill: #ffffff"/>
   </g>
   <g id="matplotlib.axis_3">
    <g id="xtick_9">
     <g id="line2d_27">
      <g>
       <use xlink:href="#m2011da657e" x="340.274" y="244.024" style="stroke: #000000; stroke-width: 0.8"/>
      </g>
     </g>
     <g id="text_23">
      <!-- 0 -->
      <g transform="translate(337.09275 258.622437) scale(0.1 -0.1)">
       <use xlink:href="#DejaVuSans-30"/>
      </g>
     </g>
    </g>
    <g id="xtick_10">
     <g id="line2d_28">
      <g>
       <use xlink:href="#m2011da657e" x="390.257556" y="244.024" style="stroke: #000000; stroke-width: 0.8"/>
      </g>
     </g>
     <g id="text_24">
      <!-- 2 -->
      <g transform="translate(387.076306 258.622437) scale(0.1 -0.1)">
       <use xlink:href="#DejaVuSans-32"/>
      </g>
     </g>
    </g>
    <g id="xtick_11">
     <g id="line2d_29">
      <g>
       <use xlink:href="#m2011da657e" x="440.241111" y="244.024" style="stroke: #000000; stroke-width: 0.8"/>
      </g>
     </g>
     <g id="text_25">
      <!-- 4 -->
      <g transform="translate(437.059861 258.622437) scale(0.1 -0.1)">
       <use xlink:href="#DejaVuSans-34"/>
      </g>
     </g>
    </g>
    <g id="xtick_12">
     <g id="line2d_30">
      <g>
       <use xlink:href="#m2011da657e" x="490.224667" y="244.024" style="stroke: #000000; stroke-width: 0.8"/>
      </g>
     </g>
     <g id="text_26">
      <!-- 6 -->
      <g transform="translate(487.043417 258.622437) scale(0.1 -0.1)">
       <use xlink:href="#DejaVuSans-36"/>
      </g>
     </g>
    </g>
    <g id="xtick_13">
     <g id="line2d_31">
      <g>
       <use xlink:href="#m2011da657e" x="540.208222" y="244.024" style="stroke: #000000; stroke-width: 0.8"/>
      </g>
     </g>
     <g id="text_27">
      <!-- 8 -->
      <g transform="translate(537.026972 258.622437) scale(0.1 -0.1)">
       <use xlink:href="#DejaVuSans-38"/>
      </g>
     </g>
    </g>
    <g id="text_28">
     <!-- $k [1/d_i]$ -->
     <g transform="translate(436.787 272.300563) scale(0.1 -0.1)">
      <defs>
       <path id="DejaVuSans-Oblique-6b" d="M 1172 4863 
L 1747 4863 
L 1197 2028 
L 3169 3500 
L 3916 3500 
L 1716 1825 
L 3322 0 
L 2625 0 
L 1131 1709 
L 800 0 
L 225 0 
L 1172 4863 
z
" transform="scale(0.015625)"/>
       <path id="DejaVuSans-2f" d="M 1625 4666 
L 2156 4666 
L 531 -594 
L 0 -594 
L 1625 4666 
z
" transform="scale(0.015625)"/>
      </defs>
      <use xlink:href="#DejaVuSans-Oblique-6b" transform="translate(0 0.015625)"/>
      <use xlink:href="#DejaVuSans-5b" transform="translate(57.910156 0.015625)"/>
      <use xlink:href="#DejaVuSans-31" transform="translate(96.923828 0.015625)"/>
      <use xlink:href="#DejaVuSans-2f" transform="translate(160.546875 0.015625)"/>
      <use xlink:href="#DejaVuSans-Oblique-64" transform="translate(194.238281 0.015625)"/>
      <use xlink:href="#DejaVuSans-Oblique-69" transform="translate(257.714844 -16.390625) scale(0.7)"/>
      <use xlink:href="#DejaVuSans-5d" transform="translate(279.897461 0.015625)"/>
     </g>
    </g>
   </g>
   <g id="matplotlib.axis_4">
    <g id="ytick_9">
     <g id="line2d_32">
      <g>
       <use xlink:href="#mc65592a5ac" x="340.274" y="227.8" style="stroke: #000000; stroke-width: 0.8"/>
      </g>
     </g>
     <g id="text_29">
      <!-- −0.25 -->
      <g transform="translate(302.628688 231.599219) scale(0.1 -0.1)">
       <defs>
        <path id="DejaVuSans-2212" d="M 678 2272 
L 4684 2272 
L 4684 1741 
L 678 1741 
L 678 2272 
z
" transform="scale(0.015625)"/>
       </defs>
       <use xlink:href="#DejaVuSans-2212"/>
       <use xlink:href="#DejaVuSans-30" transform="translate(83.789062 0)"/>
       <use xlink:href="#DejaVuSans-2e" transform="translate(147.412109 0)"/>
       <use xlink:href="#DejaVuSans-32" transform="translate(179.199219 0)"/>
       <use xlink:href="#DejaVuSans-35" transform="translate(242.822266 0)"/>
      </g>
     </g>
    </g>
    <g id="ytick_10">
     <g id="line2d_33">
      <g>
       <use xlink:href="#mc65592a5ac" x="340.274" y="200.76" style="stroke: #000000; stroke-width: 0.8"/>
      </g>
     </g>
     <g id="text_30">
      <!-- 0.00 -->
      <g transform="translate(311.008375 204.559219) scale(0.1 -0.1)">
       <use xlink:href="#DejaVuSans-30"/>
       <use xlink:href="#DejaVuSans-2e" transform="translate(63.623047 0)"/>
       <use xlink:href="#DejaVuSans-30" transform="translate(95.410156 0)"/>
       <use xlink:href="#DejaVuSans-30" transform="translate(159.033203 0)"/>
      </g>
     </g>
    </g>
    <g id="ytick_11">
     <g id="line2d_34">
      <g>
       <use xlink:href="#mc65592a5ac" x="340.274" y="173.72" style="stroke: #000000; stroke-width: 0.8"/>
      </g>
     </g>
     <g id="text_31">
      <!-- 0.25 -->
      <g transform="translate(311.008375 177.519219) scale(0.1 -0.1)">
       <use xlink:href="#DejaVuSans-30"/>
       <use xlink:href="#DejaVuSans-2e" transform="translate(63.623047 0)"/>
       <use xlink:href="#DejaVuSans-32" transform="translate(95.410156 0)"/>
       <use xlink:href="#DejaVuSans-35" transform="translate(159.033203 0)"/>
      </g>
     </g>
    </g>
    <g id="ytick_12">
     <g id="line2d_35">
      <g>
       <use xlink:href="#mc65592a5ac" x="340.274" y="146.68" style="stroke: #000000; stroke-width: 0.8"/>
      </g>
     </g>
     <g id="text_32">
      <!-- 0.50 -->
      <g transform="translate(311.008375 150.479219) scale(0.1 -0.1)">
       <use xlink:href="#DejaVuSans-30"/>
       <use xlink:href="#DejaVuSans-2e" transform="translate(63.623047 0)"/>
       <use xlink:href="#DejaVuSans-35" transform="translate(95.410156 0)"/>
       <use xlink:href="#DejaVuSans-30" transform="translate(159.033203 0)"/>
      </g>
     </g>
    </g>
    <g id="ytick_13">
     <g id="line2d_36">
      <g>
       <use xlink:href="#mc65592a5ac" x="340.274" y="119.64" style="stroke: #000000; stroke-width: 0.8"/>
      </g>
     </g>
     <g id="text_33">
      <!-- 0.75 -->
      <g transform="translate(311.008375 123.439219) scale(0.1 -0.1)">
       <defs>
        <path id="DejaVuSans-37" d="M 525 4666 
L 3525 4666 
L 3525 4397 
L 1831 0 
L 1172 0 
L 2766 4134 
L 525 4134 
L 525 4666 
z
" transform="scale(0.015625)"/>
       </defs>
       <use xlink:href="#DejaVuSans-30"/>
       <use xlink:href="#DejaVuSans-2e" transform="translate(63.623047 0)"/>
       <use xlink:href="#DejaVuSans-37" transform="translate(95.410156 0)"/>
       <use xlink:href="#DejaVuSans-35" transform="translate(159.033203 0)"/>
      </g>
     </g>
    </g>
    <g id="ytick_14">
     <g id="line2d_37">
      <g>
       <use xlink:href="#mc65592a5ac" x="340.274" y="92.6" style="stroke: #000000; stroke-width: 0.8"/>
      </g>
     </g>
     <g id="text_34">
      <!-- 1.00 -->
      <g transform="translate(311.008375 96.399219) scale(0.1 -0.1)">
       <use xlink:href="#DejaVuSans-31"/>
       <use xlink:href="#DejaVuSans-2e" transform="translate(63.623047 0)"/>
       <use xlink:href="#DejaVuSans-30" transform="translate(95.410156 0)"/>
       <use xlink:href="#DejaVuSans-30" transform="translate(159.033203 0)"/>
      </g>
     </g>
    </g>
    <g id="ytick_15">
     <g id="line2d_38">
      <g>
       <use xlink:href="#mc65592a5ac" x="340.274" y="65.56" style="stroke: #000000; stroke-width: 0.8"/>
      </g>
     </g>
     <g id="text_35">
      <!-- 1.25 -->
      <g transform="translate(311.008375 69.359219) scale(0.1 -0.1)">
       <use xlink:href="#DejaVuSans-31"/>
       <use xlink:href="#DejaVuSans-2e" transform="translate(63.623047 0)"/>
       <use xlink:href="#DejaVuSans-32" transform="translate(95.410156 0)"/>
       <use xlink:href="#DejaVuSans-35" transform="translate(159.033203 0)"/>
      </g>
     </g>
    </g>
    <g id="ytick_16">
     <g id="line2d_39">
      <g>
       <use xlink:href="#mc65592a5ac" x="340.274" y="38.52" style="stroke: #000000; stroke-width: 0.8"/>
      </g>
     </g>
     <g id="text_36">
      <!-- 1.50 -->
      <g transform="translate(311.008375 42.319219) scale(0.1 -0.1)">
       <use xlink:href="#DejaVuSans-31"/>
       <use xlink:href="#DejaVuSans-2e" transform="translate(63.623047 0)"/>
       <use xlink:href="#DejaVuSans-35" transform="translate(95.410156 0)"/>
       <use xlink:href="#DejaVuSans-30" transform="translate(159.033203 0)"/>
      </g>
     </g>
    </g>
    <g id="text_37">
     <!-- $S_{ii}(k)$ -->
     <g transform="translate(296.549 153.372) rotate(-90) scale(0.1 -0.1)">
      <defs>
       <path id="DejaVuSans-Oblique-53" d="M 3859 4513 
L 3738 3897 
Q 3422 4066 3111 4152 
Q 2800 4238 2509 4238 
Q 1944 4238 1609 3991 
Q 1275 3744 1275 3334 
Q 1275 3109 1398 2989 
Q 1522 2869 2034 2731 
L 2413 2638 
Q 3053 2472 3303 2217 
Q 3553 1963 3553 1503 
Q 3553 797 2998 353 
Q 2444 -91 1538 -91 
Q 1166 -91 791 -17 
Q 416 56 38 206 
L 166 856 
Q 513 641 861 531 
Q 1209 422 1556 422 
Q 2147 422 2503 684 
Q 2859 947 2859 1369 
Q 2859 1650 2717 1795 
Q 2575 1941 2106 2059 
L 1728 2156 
Q 1081 2325 845 2545 
Q 609 2766 609 3163 
Q 609 3859 1145 4304 
Q 1681 4750 2541 4750 
Q 2875 4750 3203 4690 
Q 3531 4631 3859 4513 
z
" transform="scale(0.015625)"/>
      </defs>
      <use xlink:href="#DejaVuSans-Oblique-53" transform="translate(0 0.015625)"/>
      <use xlink:href="#DejaVuSans-Oblique-69" transform="translate(63.476562 -16.390625) scale(0.7)"/>
      <use xlink:href="#DejaVuSans-Oblique-69" transform="translate(82.924805 -16.390625) scale(0.7)"/>
      <use xlink:href="#DejaVuSans-28" transform="translate(105.107422 0.015625)"/>
      <use xlink:href="#DejaVuSans-Oblique-6b" transform="translate(144.121094 0.015625)"/>
      <use xlink:href="#DejaVuSans-29" transform="translate(202.03125 0.015625)"/>
     </g>
    </g>
   </g>
   <g id="line2d_40">
    <path d="M 340.853824 101.348755 
L 341.433562 101.348755 
L 342.013299 100.424472 
L 342.593037 99.814374 
L 343.752511 99.095267 
L 344.911986 98.697413 
L 346.651199 98.365108 
L 349.549886 98.120362 
L 353.608048 98.05793 
L 358.825685 98.218899 
L 364.623059 98.615851 
L 370.420434 99.218709 
L 376.217808 100.036093 
L 382.015183 101.09177 
L 387.23282 102.270968 
L 392.450457 103.688322 
L 397.668094 105.348966 
L 403.465468 107.43445 
L 412.16153 110.605929 
L 415.639955 111.608914 
L 417.958904 112.085795 
L 420.277854 112.355101 
L 422.596804 112.375633 
L 424.915754 112.117902 
L 427.234703 111.570118 
L 429.553653 110.741946 
L 431.872603 109.664618 
L 434.77129 108.043292 
L 438.829452 105.473311 
L 445.786302 101.052599 
L 449.264726 99.100692 
L 452.743151 97.395938 
L 456.221576 95.943965 
L 459.7 94.728563 
L 463.758163 93.574254 
L 467.816325 92.660148 
L 472.454224 91.85509 
L 477.671861 91.192079 
L 483.469236 90.689817 
L 489.846348 90.35838 
L 497.382934 90.199896 
L 505.499259 90.251232 
L 515.354795 90.542388 
L 531.007706 91.270465 
L 550.718779 92.138188 
L 565.212215 92.554248 
L 565.212215 92.554248 
" clip-path="url(#p767dff08c9)" style="fill: none; stroke: #1f77b4; stroke-width: 1.5; stroke-linecap: square"/>
   </g>
   <g id="line2d_41">
    <path d="M 340.853824 230.204747 
L 341.433562 230.204747 
L 342.013299 231.379776 
L 342.593037 232.059021 
L 343.752511 232.817207 
L 344.911986 233.239111 
L 346.651199 233.62669 
L 350.129623 234.095385 
L 369.840696 236.327439 
L 379.116496 237.754055 
L 390.711244 239.541271 
L 394.769407 239.956206 
L 398.247831 240.09369 
L 401.146518 239.974432 
L 403.465468 239.670791 
L 405.784418 239.131911 
L 408.103368 238.306441 
L 409.84258 237.467038 
L 411.581792 236.414219 
L 413.321005 235.127996 
L 415.060217 233.592273 
L 416.799429 231.796953 
L 418.538642 229.740172 
L 420.857592 226.6074 
L 423.176541 223.079652 
L 426.075229 218.259449 
L 433.611815 205.456462 
L 435.930765 202.000752 
L 438.249715 198.963424 
L 439.988927 196.992382 
L 441.72814 195.294003 
L 443.467352 193.865641 
L 445.206564 192.696501 
L 446.945777 191.769884 
L 448.684989 191.065297 
L 450.424201 190.560261 
L 452.743151 190.157542 
L 455.062101 190.015853 
L 457.381051 190.086683 
L 460.279738 190.409492 
L 463.758163 191.0498 
L 467.816325 192.028432 
L 474.193437 193.831137 
L 489.26661 198.188166 
L 495.643722 199.764256 
L 501.441096 200.961623 
L 506.658733 201.814002 
L 511.87637 202.436061 
L 517.094007 202.826574 
L 522.311644 203.000559 
L 528.109019 202.976409 
L 535.065868 202.721064 
L 545.501142 202.08713 
L 564.05274 200.948811 
L 565.212215 200.892636 
L 565.212215 200.892636 
" clip-path="url(#p767dff08c9)" style="fill: none; stroke: #ff7f0e; stroke-width: 1.5; stroke-linecap: square"/>
   </g>
   <g id="line2d_42">
    <path d="M 340.853824 187.646781 
L 341.433562 187.646781 
L 342.013299 186.793471 
L 342.593037 186.304686 
L 343.752511 185.751941 
L 345.491724 185.304685 
L 348.970148 184.748155 
L 355.926998 183.64531 
L 360.564897 182.654743 
L 364.623059 181.545496 
L 368.101484 180.37498 
L 371.579909 178.962801 
L 374.478596 177.569352 
L 377.377283 175.946024 
L 380.27597 174.055945 
L 383.174658 171.855578 
L 385.493607 169.837831 
L 387.812557 167.559062 
L 390.131507 164.985895 
L 392.450457 162.081601 
L 394.769407 158.80655 
L 397.088356 155.119178 
L 399.407306 150.977714 
L 401.726256 146.342965 
L 404.045206 141.182497 
L 406.364155 135.476533 
L 408.683105 129.225743 
L 411.581792 120.696454 
L 415.060217 109.626392 
L 422.596804 85.232874 
L 424.915754 78.663256 
L 426.654966 74.336453 
L 428.394178 70.637046 
L 429.553653 68.557614 
L 430.713128 66.805817 
L 431.872603 65.389899 
L 433.032078 64.311435 
L 434.191553 63.565542 
L 435.351028 63.141357 
L 436.510503 63.022756 
L 437.669977 63.189235 
L 438.829452 63.61689 
L 439.988927 64.279418 
L 441.148402 65.149093 
L 442.887615 66.780238 
L 444.626827 68.720271 
L 446.945777 71.636645 
L 451.583676 77.949933 
L 455.641838 83.338814 
L 458.540526 86.856564 
L 461.439213 90.001001 
L 463.758163 92.219244 
L 466.077112 94.163874 
L 468.396062 95.834879 
L 470.715012 97.237811 
L 473.033962 98.382034 
L 475.352911 99.279473 
L 477.671861 99.94377 
L 479.990811 100.389731 
L 482.309761 100.632987 
L 484.628711 100.689818 
L 487.527398 100.524406 
L 490.426085 100.128125 
L 493.90451 99.397707 
L 497.962672 98.274445 
L 503.180309 96.561161 
L 514.19532 92.865934 
L 518.83322 91.605494 
L 522.891382 90.749176 
L 526.949544 90.149526 
L 531.007706 89.807485 
L 535.065868 89.70395 
L 539.703768 89.833783 
L 544.921405 90.218964 
L 552.457992 91.032279 
L 565.212215 92.46855 
L 565.212215 92.46855 
" clip-path="url(#p767dff08c9)" style="fill: none; stroke: #2ca02c; stroke-width: 1.5; stroke-linecap: square"/>
   </g>
   <g id="line2d_43">
    <path d="M 343.01856 97.698418 
L 345.608718 97.698418 
L 348.19885 97.738248 
L 350.78894 97.844461 
L 353.379014 97.977228 
L 355.969095 98.096718 
L 358.559135 98.282591 
L 361.149167 98.481741 
L 363.739181 98.707444 
L 366.329171 98.972977 
L 368.919135 99.27834 
L 371.509082 99.610257 
L 374.099005 99.982003 
L 376.688902 100.39358 
L 379.278773 100.844986 
L 381.868612 101.349499 
L 384.458416 101.907119 
L 387.048204 102.491292 
L 389.637941 103.155125 
L 392.227645 103.872065 
L 394.817315 104.642111 
L 397.40696 105.451987 
L 399.99658 106.301693 
L 402.586175 107.191229 
L 405.175752 108.107319 
L 407.765355 108.983578 
L 410.354958 109.859838 
L 412.94462 110.643161 
L 415.799242 111.335207 
L 418.124238 111.745123 
L 420.714252 111.970827 
L 423.304468 111.87789 
L 425.894895 111.453037 
L 428.485514 110.722821 
L 431.076319 109.700518 
L 433.667291 108.412682 
L 436.258381 106.938973 
L 438.84953 105.372327 
L 441.440712 103.752575 
L 444.031878 102.159375 
L 446.622984 100.659113 
L 449.214032 99.251787 
L 451.804988 97.990504 
L 454.395851 96.875265 
L 456.986664 95.839686 
L 459.577376 94.963426 
L 462.16802 94.19338 
L 464.640832 93.579998 
L 467.820138 92.825884 
L 470.41059 92.361201 
L 473.001008 91.949624 
L 475.591392 91.591155 
L 478.181726 91.312345 
L 480.772051 91.046812 
L 483.362335 90.847662 
L 485.952593 90.688342 
L 488.542843 90.542299 
L 491.133076 90.422809 
L 493.72325 90.396255 
L 496.313433 90.356425 
L 498.903632 90.290042 
L 501.493756 90.343149 
L 504.267022 90.396255 
L 509.264245 90.316595 
L 514.444434 90.515745 
L 519.624614 90.728172 
L 528.101283 91.060088 
L 530.69134 91.219408 
L 533.281464 91.272515 
L 535.87152 91.431835 
L 538.461627 91.511495 
L 541.051684 91.670815 
L 543.641774 91.777028 
L 546.23189 91.843411 
L 548.82198 91.949624 
L 551.412104 92.002731 
L 554.002177 92.135498 
L 556.592293 92.201881 
L 559.182358 92.347924 
" clip-path="url(#p767dff08c9)" style="fill: none; stroke-dasharray: 5.55,2.4; stroke-dashoffset: 0; stroke: #808080; stroke-width: 1.5"/>
   </g>
   <g id="line2d_44">
    <path d="M 342.460939 234.686988 
L 345.051096 234.686988 
L 347.641212 234.753371 
L 350.231294 234.872861 
L 352.821384 234.979075 
L 355.411415 235.178225 
L 358.00148 235.324268 
L 360.591487 235.563248 
L 363.181493 235.802227 
L 365.771474 236.081037 
L 368.361446 236.373124 
L 370.951402 236.691764 
L 373.541341 237.036957 
L 376.131263 237.408703 
L 378.721202 237.753896 
L 381.311116 238.13892 
L 383.901047 238.497389 
L 386.490978 238.855859 
L 389.080933 239.174499 
L 391.670931 239.426755 
L 394.260954 239.639182 
L 396.851103 239.652459 
L 399.441269 239.639182 
L 402.031603 239.360372 
L 404.622105 238.816029 
L 407.212766 238.01943 
L 409.803713 236.771424 
L 412.394913 235.125118 
L 414.986414 233.000852 
L 417.578252 230.345521 
L 420.052604 227.2972 
L 422.291546 224.155647 
L 424.294962 221.104966 
L 426.18063 218.074568 
L 428.066345 214.971149 
L 429.952059 211.86773 
L 431.837739 208.819077 
L 433.841174 205.73797 
L 436.197968 202.411429 
L 438.79015 199.211755 
L 441.382021 196.503316 
L 443.973531 194.365774 
L 446.564688 192.785852 
L 449.155543 191.683889 
L 451.746154 190.966949 
L 454.33653 190.621756 
L 456.926713 190.581926 
L 459.516778 190.727969 
L 462.106725 191.059886 
L 464.69658 191.537846 
L 467.286376 192.108742 
L 469.876131 192.746022 
L 472.465843 193.449684 
L 475.055555 194.153347 
L 477.64525 194.883564 
L 480.234946 195.61378 
L 482.824641 196.343996 
L 485.414353 197.047659 
L 488.004065 197.751322 
L 490.593803 198.415155 
L 493.183557 199.052435 
L 495.773345 199.636608 
L 498.363149 200.194227 
L 500.952996 200.685464 
L 503.542859 201.150147 
L 506.132756 201.561723 
L 508.722695 201.906916 
L 511.31266 202.21228 
L 513.902657 202.464536 
L 516.492706 202.637133 
L 519.082745 202.823006 
L 521.672886 202.849559 
L 524.262968 202.969049 
L 526.853108 202.995602 
L 529.443342 202.876113 
L 532.033516 202.849559 
L 534.623715 202.783176 
L 537.213965 202.637133 
L 539.804181 202.544196 
L 542.394456 202.358323 
L 544.984689 202.238833 
L 547.574964 202.05296 
L 550.165206 201.920193 
L 552.755489 201.721043 
L 555.345722 201.601553 
L 557.935997 201.41568 
L 560.526239 201.282913 
L 563.116514 201.09704 
L 564.764796 201.09704 
" clip-path="url(#p767dff08c9)" style="fill: none; stroke-dasharray: 5.55,2.4; stroke-dashoffset: 0; stroke: #808080; stroke-width: 1.5"/>
   </g>
   <g id="line2d_45">
    <path d="M 342.493006 184.00998 
L 345.083256 183.863936 
L 347.673481 183.757723 
L 350.263798 183.505467 
L 352.854157 183.186827 
L 355.444541 182.828357 
L 358.035018 182.323844 
L 360.625528 181.766224 
L 363.216114 181.089115 
L 365.806767 180.305792 
L 368.397504 179.389702 
L 370.988326 178.340846 
L 373.579239 177.145947 
L 376.17027 175.765174 
L 378.761444 174.158699 
L 381.352727 172.379626 
L 383.944212 170.281914 
L 386.535848 167.945222 
L 389.127728 165.223507 
L 391.71986 162.103492 
L 394.07653 158.971676 
L 396.079926 155.95142 
L 397.965653 152.829745 
L 399.851575 149.397729 
L 401.619783 145.934418 
L 403.15239 142.679739 
L 404.567221 139.491129 
L 405.98216 136.132134 
L 407.161322 133.25995 
L 408.340807 129.876614 
L 409.638042 126.468939 
L 410.817512 123.109944 
L 411.997037 119.663323 
L 413.176636 116.099868 
L 414.356291 112.448786 
L 415.535945 108.797705 
L 416.597704 105.402199 
L 417.659416 102.079716 
L 418.721174 98.68421 
L 419.782887 95.361726 
L 420.962523 91.739853 
L 422.142085 88.234815 
L 423.321573 84.846612 
L 424.500969 81.604452 
L 425.798155 78.274665 
L 427.330868 74.853081 
L 429.099097 71.355866 
L 431.338159 68.025085 
L 433.929954 65.436136 
L 436.520725 64.46694 
L 439.110673 64.798856 
L 441.699897 66.272565 
L 444.288593 68.582704 
L 446.876894 71.516846 
L 449.464993 74.769627 
L 452.053117 77.982579 
L 454.641242 81.19553 
L 457.229366 84.408482 
L 459.817658 87.3559 
L 462.406161 89.971402 
L 464.994831 92.321371 
L 467.58372 94.326147 
L 470.172802 96.025559 
L 472.762061 97.446161 
L 475.351529 98.534847 
L 477.941166 99.358 
L 480.530979 99.902343 
L 483.120926 100.23426 
L 485.711025 100.327196 
L 488.301266 100.19443 
L 490.891609 99.902343 
L 493.482043 99.464214 
L 496.072562 98.893317 
L 498.663139 98.229484 
L 501.253776 97.472715 
L 503.844446 96.662839 
L 506.435141 95.813132 
L 509.025827 94.976703 
L 511.616514 94.140273 
L 514.207167 93.35695 
L 516.797778 92.640011 
L 519.388381 91.936348 
L 521.154494 91.783666 
L 524.569393 90.834385 
L 527.159761 90.502469 
L 529.750086 90.236935 
L 532.340361 90.051062 
L 534.930628 89.878466 
L 537.520827 89.812082 
L 540.110909 89.931572 
L 542.700966 90.090892 
L 545.291048 90.210382 
L 547.881071 90.422809 
L 550.47106 90.688342 
L 553.061049 90.953875 
L 555.65103 91.232685 
L 558.240986 91.551325 
L 560.830984 91.803581 
L 563.420999 92.029284 
L 564.951471 92.148774 
" clip-path="url(#p767dff08c9)" style="fill: none; stroke-dasharray: 5.55,2.4; stroke-dashoffset: 0; stroke: #808080; stroke-width: 1.5"/>
   </g>
   <g id="patch_9">
    <path d="M 340.274 244.024 
L 340.274 38.52 
" style="fill: none; stroke: #000000; stroke-width: 0.8; stroke-linejoin: miter; stroke-linecap: square"/>
   </g>
   <g id="patch_10">
    <path d="M 565.2 244.024 
L 565.2 38.52 
" style="fill: none; stroke: #000000; stroke-width: 0.8; stroke-linejoin: miter; stroke-linecap: square"/>
   </g>
   <g id="patch_11">
    <path d="M 340.274 244.024 
L 565.2 244.024 
" style="fill: none; stroke: #000000; stroke-width: 0.8; stroke-linejoin: miter; stroke-linecap: square"/>
   </g>
   <g id="patch_12">
    <path d="M 340.274 38.52 
L 565.2 38.52 
" style="fill: none; stroke: #000000; stroke-width: 0.8; stroke-linejoin: miter; stroke-linecap: square"/>
   </g>
  </g>
  <g id="text_38">
   <!-- MSVT reproduce wunsch.2011 (Fig. 4.12) -->
   <g transform="translate(164.82375 14.878125) scale(0.12 -0.12)">
    <defs>
     <path id="DejaVuSans-4d" d="M 628 4666 
L 1569 4666 
L 2759 1491 
L 3956 4666 
L 4897 4666 
L 4897 0 
L 4281 0 
L 4281 4097 
L 3078 897 
L 2444 897 
L 1241 4097 
L 1241 0 
L 628 0 
L 628 4666 
z
" transform="scale(0.015625)"/>
     <path id="DejaVuSans-53" d="M 3425 4513 
L 3425 3897 
Q 3066 4069 2747 4153 
Q 2428 4238 2131 4238 
Q 1616 4238 1336 4038 
Q 1056 3838 1056 3469 
Q 1056 3159 1242 3001 
Q 1428 2844 1947 2747 
L 2328 2669 
Q 3034 2534 3370 2195 
Q 3706 1856 3706 1288 
Q 3706 609 3251 259 
Q 2797 -91 1919 -91 
Q 1588 -91 1214 -16 
Q 841 59 441 206 
L 441 856 
Q 825 641 1194 531 
Q 1563 422 1919 422 
Q 2459 422 2753 634 
Q 3047 847 3047 1241 
Q 3047 1584 2836 1778 
Q 2625 1972 2144 2069 
L 1759 2144 
Q 1053 2284 737 2584 
Q 422 2884 422 3419 
Q 422 4038 858 4394 
Q 1294 4750 2059 4750 
Q 2388 4750 2728 4690 
Q 3069 4631 3425 4513 
z
" transform="scale(0.015625)"/>
     <path id="DejaVuSans-56" d="M 1831 0 
L 50 4666 
L 709 4666 
L 2188 738 
L 3669 4666 
L 4325 4666 
L 2547 0 
L 1831 0 
z
" transform="scale(0.015625)"/>
     <path id="DejaVuSans-54" d="M -19 4666 
L 3928 4666 
L 3928 4134 
L 2272 4134 
L 2272 0 
L 1638 0 
L 1638 4134 
L -19 4134 
L -19 4666 
z
" transform="scale(0.015625)"/>
     <path id="DejaVuSans-20" transform="scale(0.015625)"/>
     <path id="DejaVuSans-70" d="M 1159 525 
L 1159 -1331 
L 581 -1331 
L 581 3500 
L 1159 3500 
L 1159 2969 
Q 1341 3281 1617 3432 
Q 1894 3584 2278 3584 
Q 2916 3584 3314 3078 
Q 3713 2572 3713 1747 
Q 3713 922 3314 415 
Q 2916 -91 2278 -91 
Q 1894 -91 1617 61 
Q 1341 213 1159 525 
z
M 3116 1747 
Q 3116 2381 2855 2742 
Q 2594 3103 2138 3103 
Q 1681 3103 1420 2742 
Q 1159 2381 1159 1747 
Q 1159 1113 1420 752 
Q 1681 391 2138 391 
Q 2594 391 2855 752 
Q 3116 1113 3116 1747 
z
" transform="scale(0.015625)"/>
     <path id="DejaVuSans-6f" d="M 1959 3097 
Q 1497 3097 1228 2736 
Q 959 2375 959 1747 
Q 959 1119 1226 758 
Q 1494 397 1959 397 
Q 2419 397 2687 759 
Q 2956 1122 2956 1747 
Q 2956 2369 2687 2733 
Q 2419 3097 1959 3097 
z
M 1959 3584 
Q 2709 3584 3137 3096 
Q 3566 2609 3566 1747 
Q 3566 888 3137 398 
Q 2709 -91 1959 -91 
Q 1206 -91 779 398 
Q 353 888 353 1747 
Q 353 2609 779 3096 
Q 1206 3584 1959 3584 
z
" transform="scale(0.015625)"/>
     <path id="DejaVuSans-64" d="M 2906 2969 
L 2906 4863 
L 3481 4863 
L 3481 0 
L 2906 0 
L 2906 525 
Q 2725 213 2448 61 
Q 2172 -91 1784 -91 
Q 1150 -91 751 415 
Q 353 922 353 1747 
Q 353 2572 751 3078 
Q 1150 3584 1784 3584 
Q 2172 3584 2448 3432 
Q 2725 3281 2906 2969 
z
M 947 1747 
Q 947 1113 1208 752 
Q 1469 391 1925 391 
Q 2381 391 2643 752 
Q 2906 1113 2906 1747 
Q 2906 2381 2643 2742 
Q 2381 3103 1925 3103 
Q 1469 3103 1208 2742 
Q 947 2381 947 1747 
z
" transform="scale(0.015625)"/>
     <path id="DejaVuSans-63" d="M 3122 3366 
L 3122 2828 
Q 2878 2963 2633 3030 
Q 2388 3097 2138 3097 
Q 1578 3097 1268 2742 
Q 959 2388 959 1747 
Q 959 1106 1268 751 
Q 1578 397 2138 397 
Q 2388 397 2633 464 
Q 2878 531 3122 666 
L 3122 134 
Q 2881 22 2623 -34 
Q 2366 -91 2075 -91 
Q 1284 -91 818 406 
Q 353 903 353 1747 
Q 353 2603 823 3093 
Q 1294 3584 2113 3584 
Q 2378 3584 2631 3529 
Q 2884 3475 3122 3366 
z
" transform="scale(0.015625)"/>
     <path id="DejaVuSans-77" d="M 269 3500 
L 844 3500 
L 1563 769 
L 2278 3500 
L 2956 3500 
L 3675 769 
L 4391 3500 
L 4966 3500 
L 4050 0 
L 3372 0 
L 2619 2869 
L 1863 0 
L 1184 0 
L 269 3500 
z
" transform="scale(0.015625)"/>
     <path id="DejaVuSans-6e" d="M 3513 2113 
L 3513 0 
L 2938 0 
L 2938 2094 
Q 2938 2591 2744 2837 
Q 2550 3084 2163 3084 
Q 1697 3084 1428 2787 
Q 1159 2491 1159 1978 
L 1159 0 
L 581 0 
L 581 3500 
L 1159 3500 
L 1159 2956 
Q 1366 3272 1645 3428 
Q 1925 3584 2291 3584 
Q 2894 3584 3203 3211 
Q 3513 2838 3513 2113 
z
" transform="scale(0.015625)"/>
     <path id="DejaVuSans-73" d="M 2834 3397 
L 2834 2853 
Q 2591 2978 2328 3040 
Q 2066 3103 1784 3103 
Q 1356 3103 1142 2972 
Q 928 2841 928 2578 
Q 928 2378 1081 2264 
Q 1234 2150 1697 2047 
L 1894 2003 
Q 2506 1872 2764 1633 
Q 3022 1394 3022 966 
Q 3022 478 2636 193 
Q 2250 -91 1575 -91 
Q 1294 -91 989 -36 
Q 684 19 347 128 
L 347 722 
Q 666 556 975 473 
Q 1284 391 1588 391 
Q 1994 391 2212 530 
Q 2431 669 2431 922 
Q 2431 1156 2273 1281 
Q 2116 1406 1581 1522 
L 1381 1569 
Q 847 1681 609 1914 
Q 372 2147 372 2553 
Q 372 3047 722 3315 
Q 1072 3584 1716 3584 
Q 2034 3584 2315 3537 
Q 2597 3491 2834 3397 
z
" transform="scale(0.015625)"/>
     <path id="DejaVuSans-68" d="M 3513 2113 
L 3513 0 
L 2938 0 
L 2938 2094 
Q 2938 2591 2744 2837 
Q 2550 3084 2163 3084 
Q 1697 3084 1428 2787 
Q 1159 2491 1159 1978 
L 1159 0 
L 581 0 
L 581 4863 
L 1159 4863 
L 1159 2956 
Q 1366 3272 1645 3428 
Q 1925 3584 2291 3584 
Q 2894 3584 3203 3211 
Q 3513 2838 3513 2113 
z
" transform="scale(0.015625)"/>
     <path id="DejaVuSans-46" d="M 628 4666 
L 3309 4666 
L 3309 4134 
L 1259 4134 
L 1259 2759 
L 3109 2759 
L 3109 2228 
L 1259 2228 
L 1259 0 
L 628 0 
L 628 4666 
z
" transform="scale(0.015625)"/>
     <path id="DejaVuSans-67" d="M 2906 1791 
Q 2906 2416 2648 2759 
Q 2391 3103 1925 3103 
Q 1463 3103 1205 2759 
Q 947 2416 947 1791 
Q 947 1169 1205 825 
Q 1463 481 1925 481 
Q 2391 481 2648 825 
Q 2906 1169 2906 1791 
z
M 3481 434 
Q 3481 -459 3084 -895 
Q 2688 -1331 1869 -1331 
Q 1566 -1331 1297 -1286 
Q 1028 -1241 775 -1147 
L 775 -588 
Q 1028 -725 1275 -790 
Q 1522 -856 1778 -856 
Q 2344 -856 2625 -561 
Q 2906 -266 2906 331 
L 2906 616 
Q 2728 306 2450 153 
Q 2172 0 1784 0 
Q 1141 0 747 490 
Q 353 981 353 1791 
Q 353 2603 747 3093 
Q 1141 3584 1784 3584 
Q 2172 3584 2450 3431 
Q 2728 3278 2906 2969 
L 2906 3500 
L 3481 3500 
L 3481 434 
z
" transform="scale(0.015625)"/>
    </defs>
    <use xlink:href="#DejaVuSans-4d"/>
    <use xlink:href="#DejaVuSans-53" transform="translate(86.279297 0)"/>
    <use xlink:href="#DejaVuSans-56" transform="translate(149.755859 0)"/>
    <use xlink:href="#DejaVuSans-54" transform="translate(218.164062 0)"/>
    <use xlink:href="#DejaVuSans-20" transform="translate(279.248047 0)"/>
    <use xlink:href="#DejaVuSans-72" transform="translate(311.035156 0)"/>
    <use xlink:href="#DejaVuSans-65" transform="translate(349.898438 0)"/>
    <use xlink:href="#DejaVuSans-70" transform="translate(411.421875 0)"/>
    <use xlink:href="#DejaVuSans-72" transform="translate(474.898438 0)"/>
    <use xlink:href="#DejaVuSans-6f" transform="translate(513.761719 0)"/>
    <use xlink:href="#DejaVuSans-64" transform="translate(574.943359 0)"/>
    <use xlink:href="#DejaVuSans-75" transform="translate(638.419922 0)"/>
    <use xlink:href="#DejaVuSans-63" transform="translate(701.798828 0)"/>
    <use xlink:href="#DejaVuSans-65" transform="translate(756.779297 0)"/>
    <use xlink:href="#DejaVuSans-20" transform="translate(818.302734 0)"/>
    <use xlink:href="#DejaVuSans-77" transform="translate(850.089844 0)"/>
    <use xlink:href="#DejaVuSans-75" transform="translate(931.876953 0)"/>
    <use xlink:href="#DejaVuSans-6e" transform="translate(995.255859 0)"/>
    <use xlink:href="#DejaVuSans-73" transform="translate(1058.634766 0)"/>
    <use xlink:href="#DejaVuSans-63" transform="translate(1110.734375 0)"/>
    <use xlink:href="#DejaVuSans-68" transform="translate(1165.714844 0)"/>
    <use xlink:href="#DejaVuSans-2e" transform="translate(1229.09375 0)"/>
    <use xlink:href="#DejaVuSans-32" transform="translate(1260.880859 0)"/>
    <use xlink:href="#DejaVuSans-30" transform="translate(1324.503906 0)"/>
    <use xlink:href="#DejaVuSans-31" transform="translate(1388.126953 0)"/>
    <use xlink:href="#DejaVuSans-31" transform="translate(1451.75 0)"/>
    <use xlink:href="#DejaVuSans-20" transform="translate(1515.373047 0)"/>
    <use xlink:href="#DejaVuSans-28" transform="translate(1547.160156 0)"/>
    <use xlink:href="#DejaVuSans-46" transform="translate(1586.173828 0)"/>
    <use xlink:href="#DejaVuSans-69" transform="translate(1636.443359 0)"/>
    <use xlink:href="#DejaVuSans-67" transform="translate(1664.226562 0)"/>
    <use xlink:href="#DejaVuSans-2e" transform="translate(1727.703125 0)"/>
    <use xlink:href="#DejaVuSans-20" transform="translate(1759.490234 0)"/>
    <use xlink:href="#DejaVuSans-34" transform="translate(1791.277344 0)"/>
    <use xlink:href="#DejaVuSans-2e" transform="translate(1854.900391 0)"/>
    <use xlink:href="#DejaVuSans-31" transform="translate(1886.6875 0)"/>
    <use xlink:href="#DejaVuSans-32" transform="translate(1950.310547 0)"/>
    <use xlink:href="#DejaVuSans-29" transform="translate(2013.933594 0)"/>
   </g>
  </g>
 </g>
 <defs>
  <clipPath id="p488c08bfa1">
   <rect x="50.6" y="38.52" width="224.926" height="205.504"/>
  </clipPath>
  <clipPath id="p767dff08c9">
   <rect x="340.274" y="38.52" width="224.926" height="205.504"/>
  </clipPath>
 </defs>
</svg>
